<svg width="1406" height="525" viewBox="0 0 1406 525" fill="none" xmlns="http://www.w3.org/2000/svg">
<path d="M1422.44 46.5027V148.34C1411.61 151.92 1401.49 146.088 1390.26 146.427C1390.85 159.11 1377.79 152.846 1372.55 158.277C1367.67 163.523 1361.35 161.764 1355.42 161.857C1344.65 161.085 1333.2 162.752 1324.9 153.216C1315.28 133.219 1322 118.098 1343.11 112.358C1351.01 110.197 1359.19 109.519 1367.3 108.593C1374.43 107.76 1381.59 106.741 1386.37 98.625C1381.22 87.4537 1379.98 74.3691 1369.59 64.4322C1357.64 53.0449 1360.64 37.2755 1361.41 22.6171C1361.5 21.0432 1361.96 19.5928 1362.77 18.235C1363.78 17.0314 1365.02 16.1365 1366.47 15.4884C1374.4 13.0505 1381.37 14.7787 1387.45 20.2717C1388.66 20.9198 1389.8 21.753 1390.88 22.6171C1394.15 26.7832 1398.9 26.6289 1403.53 26.814C1415.16 28.2953 1416.15 39.9912 1422.48 46.5335L1422.44 46.5027Z" fill="#6D5C3F"/>
<path d="M1422.45 194.63V259.436C1413.16 267.676 1406.03 260.146 1399.4 255.424C1390.02 248.759 1381.47 242.062 1369.16 248.882C1365.42 250.95 1359.96 249.561 1357.92 246.228C1349.93 233.267 1335.74 229.132 1324.29 221.108C1323.09 219.164 1322.56 217.004 1322.25 214.813C1322.5 207.345 1313.67 208.733 1311.11 203.117C1310.77 196.667 1316.33 193.427 1320.25 189.137C1322.25 187.934 1324.44 187.378 1326.73 187.162C1338.58 187.255 1348.88 182.039 1359.44 177.688C1365.39 174.571 1372.15 174.016 1378.38 171.763C1393.16 169.017 1408.01 163.74 1422.45 173.028V176.114C1411.34 181.916 1402.08 191.791 1389.61 191.637C1399.49 194.445 1411.77 185.372 1422.45 194.63Z" fill="#6B5B3E"/>
<path d="M1422.44 262.522C1409.02 264.22 1397.05 260.115 1385.69 253.45C1381.74 256.597 1374.68 254.067 1372.55 260.64C1369.65 261.381 1367.09 263.232 1363.97 263.201C1360.73 263.047 1357.98 261.844 1355.67 259.591C1343.48 242.124 1340.27 241.229 1322.87 250.765C1318.36 253.234 1313.64 254.993 1308.49 255.456C1306.2 255.456 1304.07 254.807 1302.04 253.789C1298.06 251.289 1293.46 250.765 1289.05 249.962C1282.54 248.821 1276.24 246.444 1276.83 239.162C1277.41 231.724 1283.86 230.243 1290.62 231.076C1292.1 231.261 1293.64 231.076 1295.16 231.261C1297.59 233.298 1300.62 233.854 1303.64 234.317C1300.34 233.082 1296.7 232.743 1293.64 230.706C1282.75 223.978 1289.05 218.053 1296.08 216.665C1306.05 214.69 1316.94 213.486 1326.75 219.164C1343.79 221.541 1355.64 231.416 1363.04 248.481C1379.34 232.774 1390.69 241.846 1401.89 251.228C1407.88 256.258 1414.05 260.547 1422.44 259.375V262.461V262.522Z" fill="#685A40"/>
<path d="M1373.14 154.574C1375.17 147.415 1382.46 154.204 1385.97 149.019C1388.1 143.187 1376.96 147.199 1379 140.039C1393.22 143.804 1408.99 139.052 1422.45 148.371V163.801C1413.75 170.714 1404.43 170.776 1395.79 164.604C1388.78 159.573 1378.14 163.523 1373.14 154.605V154.574Z" fill="#766142"/>
<path d="M1373.13 154.574C1390.17 154.45 1404.73 167.566 1422.44 163.77V173.028C1406.92 172.38 1391.49 173.46 1376.19 176.237C1375.05 173.151 1376.5 171.732 1379.43 171.794C1380.23 171.794 1380.6 172.75 1380.6 172.534C1379.89 170.158 1376.1 172.226 1375.32 169.541C1375.14 167.412 1375.82 165.714 1374.86 166.27C1372.52 167.936 1366.9 168.893 1360.85 167.874C1355.79 166.239 1351.22 164.264 1354.53 157.536C1360.76 156.888 1367.55 159.604 1373.07 154.543L1373.13 154.574Z" fill="#564B34"/>
<path d="M1422.45 194.629C1408.34 194.135 1394.09 201.85 1378.23 192.006C1393.9 187.007 1406.58 177.749 1422.45 176.113V194.629Z" fill="#896F47"/>
<path d="M1252.73 321.155C1246.47 321.68 1241.5 318.007 1235.94 316.187C1231.25 314.674 1225.67 310.539 1221.9 317.946C1215.02 327.666 1205.39 326.432 1195.61 324.611C1182.1 315.199 1166.76 310.539 1150.81 307.546C1143.4 306.435 1136.46 307.854 1130.01 311.65C1122.82 313.471 1116.25 312.576 1114.18 304.522C1112.48 297.918 1104 297.547 1103.13 290.789C1103.26 284.771 1106.5 280.698 1111.25 277.519C1130.81 270.36 1140.81 272.088 1150.93 284.432C1155.99 286.592 1161.02 282.704 1166.08 284.401C1182.84 288.505 1199.75 289.493 1216.5 285.913C1214.03 280.389 1208.51 279.525 1202.68 279.216C1195.58 278.136 1190.06 273.909 1184.35 270.082C1183.36 268.786 1182.81 267.335 1182.56 265.731C1182.87 261.04 1183.21 256.349 1186.97 252.862C1190.09 251.288 1193.27 252.029 1195.49 254.096C1206.88 264.774 1219.93 263.91 1234.09 261.626C1247.52 259.466 1261.37 258.016 1274.67 263.54C1277.76 266.41 1279.55 269.465 1276.15 273.291C1274.39 274.649 1272.39 275.421 1270.2 275.729C1265.81 276.47 1261.06 274.155 1256.99 277.396C1254.06 279.309 1251 281.037 1246.84 281.624C1250.94 282.765 1254.67 281.932 1258.01 283.444C1275.87 291.622 1276.68 293.967 1265.32 304.306C1264.39 305.262 1263.41 306.126 1262.36 306.959C1258.72 311.372 1258.01 317.822 1252.7 321.124L1252.73 321.155Z" fill="#242323"/>
<path d="M1376.16 169.943C1378.04 170.098 1379.92 170.252 1383.01 170.499C1380.14 172.906 1378.17 174.572 1376.19 176.239C1371.04 178.245 1365.85 180.25 1360.7 182.287C1359.59 183.367 1358.32 183.676 1356.84 183.151C1343.45 186.669 1333.79 174.603 1321.67 174.634C1325.43 175.745 1330.43 175.097 1332.06 178.059C1335.3 185.281 1325.37 183.182 1327.74 188.613C1328.05 189.848 1327.74 190.835 1326.73 191.545C1324.69 191.545 1322.62 191.545 1320.58 191.576C1317.75 194.261 1314.57 196.267 1310.53 196.298C1306.39 197.007 1302.1 197.501 1303.21 203.611C1304.01 207.932 1303.43 213.456 1299.54 214.443C1286.8 217.653 1277.66 228.176 1264.76 230.706C1255.41 222.436 1244.8 217.313 1231.96 217.992C1230.97 212.406 1224.53 210.709 1222.98 205.494C1221.25 199.229 1224.12 193.026 1223.29 186.762C1224.59 172.967 1232.89 165.962 1246.96 163.895C1246.9 151.489 1256.19 145.749 1264.52 139.207C1270.04 137.695 1273.25 134.794 1272.97 128.375C1272.51 117.883 1278.53 111.741 1287.41 106.866C1303.46 98.0705 1313.21 84.2453 1316.91 66.2231C1318.42 63.0754 1320.34 60.514 1324.44 61.4398C1332.9 67.2723 1330.92 76.2526 1331.39 84.4613C1333.24 100.694 1333.42 116.463 1317.01 126.801C1320.59 135.658 1321.05 144.515 1326.91 151.396C1335.27 157.26 1345.46 155.038 1354.56 157.568C1355.18 163.339 1359.37 163.802 1363.85 163.833C1366.72 168.339 1373.26 165.438 1376.13 169.943H1376.16Z" fill="#4B483D"/>
<path d="M1326.91 151.365C1320.74 144.205 1314.6 137.015 1306.86 128.004C1322.75 118.345 1330.71 104.951 1326.79 86.6207C1349.41 81.6522 1347.34 62.2722 1350.46 45.9164C1350.83 40.6703 1353.05 35.887 1354.41 30.8877C1357.34 27.5857 1359.22 23.1727 1364 21.8457C1368.05 25.7958 1365.98 30.1779 1365.33 34.7452C1363.02 50.854 1369.28 61.3772 1385.33 68.8145C1381.87 79.5846 1386.62 88.1328 1394.28 95.1997C1392.33 110.537 1380.85 112.481 1369.65 114.086C1362.58 115.073 1355.49 115.043 1348.36 116.647C1326.17 121.739 1321.33 129.115 1326.91 151.334V151.365Z" fill="#50493B"/>
<path d="M1265.04 228.639C1268.5 226.818 1271.95 224.997 1275.35 223.238C1275.72 218.27 1267.35 219.381 1269.73 212.437C1279.02 212.375 1290.28 222.806 1299.29 208.611C1296.36 200.988 1292.97 191.36 1308.33 191.576C1312.13 195.094 1309.91 200.124 1311.33 204.198C1316.33 207.654 1323.08 207.808 1326.79 213.209C1326.79 215.215 1326.79 217.251 1326.79 219.257C1317.87 219.751 1309.23 224.812 1299.97 220.399C1297.1 219.041 1293.77 219.998 1291.98 222.96C1289.26 227.497 1294.54 228.793 1295.93 231.663C1290.34 233.669 1284.79 235.675 1278.52 237.927C1284.6 250.302 1298.64 242.124 1305.06 250.457C1303.86 253.543 1301.67 256.104 1298.43 256.196C1281.36 256.721 1265.93 251.321 1251.49 244.624C1250.75 232.836 1258.71 231.509 1265.04 228.669V228.639Z" fill="#514A3A"/>
<path d="M1339.16 314.954C1328.39 305.942 1314.32 301.499 1305.12 290.327C1302.13 289.988 1299.14 289.679 1294.32 289.155C1301.58 280.267 1312.25 287.92 1318.12 281.779C1317.84 272.891 1302.93 284.31 1305.53 271.997C1306.61 270.515 1308.03 269.497 1309.78 268.941C1329.81 269.404 1349.9 268.201 1369.83 271.256C1371.53 271.873 1372.95 272.861 1374.12 274.218C1378.72 280.267 1380.82 285.235 1369.68 284.495C1362.37 288.013 1352.15 288.013 1351.5 299.554C1347.62 304.615 1355.79 308.72 1351.69 315.046C1348.51 318.101 1343.88 317.206 1339.16 314.954Z" fill="#796448"/>
<path d="M37.1664 499.796C35.2224 493.871 33.3092 487.915 31.3651 481.99C29.1743 480.786 28.5262 478.811 28.4645 476.497C30.0691 472.207 29.6063 467.455 31.5812 462.332C43.5539 457.456 55.8568 461.155 64.4661 442.146C65.361 437.764 60.557 431.53 57.7489 429.617C56.1135 428.197 55.0027 426.5 55.0335 424.278C55.9901 421.717 58.2735 420.359 60.0633 418.6C54.9101 408.2 47.6585 399.714 37.5063 394.19C33.0011 391.721 28.6503 389.499 26.9531 384.222C27.9097 377.958 32.0137 372.032 28.8663 365.336C30.2549 359.102 28.3417 352.93 28.4651 346.696C29.0514 344.228 30.3474 342.314 32.6 341.08C51.7317 345.246 294.284 330.663 313.539 335.354C330.449 339.458 341.663 364.935 356.413 349.042C363.356 341.543 370.793 340.617 381.222 344.752C395.108 350.245 410.63 346.82 425.41 346.696C441.055 346.573 456.762 348.733 472.222 341.635C479.874 338.117 482.188 334.075 482.775 327.069C482.991 324.354 483.917 321.916 485.521 319.725C494.007 312.504 503.974 310.529 514.774 311.393C532.363 322.811 551.279 327.841 572.262 323.644C580.439 322.008 588.493 324.323 596.516 325.65C608.458 330.248 621.202 327.069 633.36 329.353C634.995 329.754 636.631 330.186 638.235 330.649C667.242 333.427 696.032 328.582 715.904 328.551C698.377 329.168 671.839 332.192 645.178 331.328C641.63 331.143 638.235 330.618 635.674 327.81C634.193 320.311 639.933 320.219 644.592 319.509C648.912 318.83 653.417 319.2 657.552 317.534C660.329 316.299 665.39 317.163 665.976 315.281C670.296 301.085 683.627 304.727 693.069 300.808C711.676 300.869 730.469 298.246 748.336 306.517C761.049 312.411 773.053 303.739 785.519 303.739C793.696 303.925 801.873 304.233 809.125 299.203C810.76 298.061 812.982 297.783 815.05 297.629C823.258 297.105 832.793 295.531 835.508 306.054C838.162 316.423 829.213 318.552 821.808 320.959C819.864 321.607 817.919 322.317 816.13 322.965C823.042 334.445 836.311 337.593 845.907 345.616C847.049 351.881 840.137 352.961 838.378 357.343C833.873 361.417 829.954 365.706 832.021 372.557C831.805 376.661 829.399 379.284 826.066 381.259C824.77 381.969 823.381 382.432 821.962 382.772C817.055 383.697 811.933 382 807.15 383.45C802.614 384.839 909.2 360.087 913.273 367.586C920.401 371.752 932.193 310.654 936.389 316.795C940.987 323.461 1122.57 281.787 1117.42 285.213C1105.07 294.903 1245.58 202.677 1228.77 207.398C1219.05 210.762 1431.03 251.94 1421.19 254.934C1416.71 254.934 1440.28 348.1 1435.84 348.377C1432.13 347.544 1435.19 505.31 1443 511.496C1431.71 513.934 780.335 525.627 769.874 523.868C753.304 521.091 658.046 466.68 661.934 483.406C663.693 493.836 655.053 494.361 648.82 497.169C647.277 497.663 645.703 497.879 644.098 497.91C635.489 498.126 627.096 496.429 618.703 494.855C613.025 492.849 608.828 489.454 610.402 482.758C612.006 475.969 608.705 472.451 603.181 469.92C593.461 464.828 585.932 465.877 582.105 477.388C580.902 486.831 574.576 490.812 566.09 492.54C548.81 491.46 532.394 498.558 515.175 497.756C500.055 492.077 483.793 500.132 468.704 494.022C458.582 490.442 445.715 497.2 437.599 485.936C394.615 485.597 351.692 485.936 308.769 485.844C303.647 485.844 298.524 485.875 293.926 488.621C280.565 494.176 266.093 493.281 252.145 495.688C249.893 495.595 37.9995 502.357 37.1046 499.95L37.1664 499.796Z" fill="#786D50"/>
<path d="M487.615 321.373C487.553 323.286 487.46 325.168 487.399 327.082C482.153 345.289 465.058 347.11 451.696 347.696C432.565 348.529 413.032 351.523 393.715 347.511C389.302 346.585 384.396 347.974 380.292 345.289C369.183 338.068 362.456 347.388 354.495 352.047C340.085 354.454 326.044 350.319 312.405 347.542C295.711 344.147 278.4 342.882 262.354 336.741C256.862 334.642 252.511 338.222 247.543 337.944C223.073 336.401 199.065 340.876 174.966 343.869C170.275 344.456 165.77 344.425 161.481 342.172C160.123 341.339 159.074 340.166 158.333 338.747C156.389 323.625 167.251 323.163 177.064 323.718C194.653 324.705 211.563 323.224 228.133 315.448C223.288 313.164 218.66 314.306 214.216 313.905C195.733 312.176 184.47 297.456 187.648 278.632C189.191 269.466 193.326 264.097 203.447 269.744C208.539 273.077 202.861 281.378 209.989 283.724C214.864 283.724 219.74 282.767 224.492 284.526C258.59 292.735 292.409 286.161 322.249 282.52C304.66 279.156 282.751 282.366 261.089 279.928C256.738 269.158 262.539 259.344 275.654 256.999C280.313 256.166 284.788 256.783 286.361 251.074C300.031 226.046 321.57 215.461 349.496 216.603C350.885 216.603 352.242 216.881 353.538 217.313C356.994 218.486 357.982 223.732 362.703 222.775C370.294 219.967 377.731 216.881 386.062 220.306C390.228 222.035 393.9 220.368 396.616 216.85C401.584 211.357 410.501 212.684 414.914 206.203C426.455 195.186 437.749 183.583 456.078 187.811C457.436 188.243 458.701 188.86 459.905 189.663C464.194 193.798 470.334 195.804 473.513 201.266C484.992 206.08 482.554 195.403 485.331 190.588C486.535 188.521 488.263 187.286 490.67 187.132C497.18 188.336 501.747 192.317 505.234 197.624C509.431 204.074 513.905 209.938 520.416 214.597C526.372 218.856 530.692 225.182 524.582 232.959C508.536 235.952 492.644 237.711 476.598 231.941C468.39 228.978 459.287 225.522 450.956 233.329C456.85 243.42 470.982 245.488 473.019 260.023C461.602 263.109 449.814 259.807 439.014 263.233C435.774 264.128 433.274 262.554 430.528 260.609C432.256 262.677 433.614 264.59 431.948 267.059C425.005 273.725 418.339 272.429 411.828 266.411C409.637 264.22 410.44 259.869 405.965 258.758C408.989 259.869 408.835 261.906 408.65 263.973C404.299 271.009 396.029 269.435 390.444 272.614C410.779 275.916 431.793 276.009 455.615 275.947C444.26 273.704 437.512 269.909 435.373 264.56C440.279 262.523 445.71 262.924 450.709 261.288C474.994 263.541 499.402 255.425 523.595 263.017C520.138 262.368 516.682 262.461 514.831 257.061C521.157 249.191 529.149 248.111 537.419 251.259C530.167 245.982 528.532 240.89 540.443 237.434C542.387 236.878 543.436 236.107 541.554 236.94C541.399 237.002 540.967 236.415 540.505 236.076C533.006 227.065 523.934 219.072 524.489 205.957C529.427 201.328 535.752 201.451 541.801 201.42C566.672 201.297 590.988 192.872 614.408 197.902C619.623 194.076 617.834 190.033 618.852 186.762C623.203 183.521 621.876 180.374 620.364 175.652C616.137 162.413 622.061 157.136 634.559 160.654C629.128 157.537 625.918 152.415 627.276 144.885C631.133 134.454 636.842 125.628 647.766 121.308C653.258 119.919 656.899 122.851 660.17 126.616C671.156 129.115 675.537 140.163 684.424 145.379C691.151 151.828 705.037 147.631 707.228 160.778C703.34 165.592 698.526 164.851 693.496 162.814C696.088 164.018 696.922 166.271 697.693 168.616C698.557 175.374 700.069 181.886 704.574 187.317C708.802 191.638 713.338 195.341 719.664 196.236C725.28 197.038 730.31 198.951 732.099 205.247C731.914 207.932 730.927 210.802 728.612 211.727C712.628 218.115 700.007 227.466 695.626 245.303C694.885 248.327 691.552 249.592 688.405 250.333C661.497 256.752 635.7 267.491 607.867 270.485C598.671 271.472 589.26 273.941 589.692 286.624C589.198 288.013 588.488 289.247 587.593 290.42C581.73 296.685 572.782 299.493 568.955 308.226C567.227 312.176 562.444 313.688 558.309 313.04C545.627 311.065 532.975 314.213 520.447 312.917C508.166 311.652 497.767 315.478 487.615 321.403V321.373Z" fill="#BD954C"/>
<path d="M894.749 83.535C895.151 82.8253 895.274 82.0846 895.12 81.2823C898.144 75.6658 898.36 68.0125 906.29 65.9757C912.986 66.5929 917.276 57.8596 924.743 61.069C929.588 65.1734 926.378 69.3086 924.836 73.8142C924.897 74.2771 925.329 74.0302 926.193 72.7341C934.833 59.1557 947.084 49.188 959.334 39.1894C963.408 35.8874 967.82 33.326 973.282 36.4428C979.731 41.9668 977.849 49.1571 977.324 56.1006C977.787 59.8964 976.923 63.5687 976.43 67.241C975.164 74.4314 978.281 78.7209 985.101 80.8811C997.629 84.8312 1000.9 93.6262 997.752 105.662C996.826 106.742 995.685 107.606 994.419 108.285C988.803 110.507 981.984 108.47 977.108 113.13C976.306 113.654 975.658 114.364 975.319 115.352C977.448 116.648 980.071 116.555 982.231 117.728C984.854 119.117 987.168 120.845 988.279 123.745C984.236 140.441 971.122 133.744 960.754 133.652C959.55 140.07 964.92 141.984 967.357 145.533C970.443 150.038 972.541 154.575 969.363 159.759C966 165.19 960.877 167.227 954.768 165.622C944.924 163.061 934.525 161.981 926.872 153.865C919.806 146.366 911.474 146.181 903.235 151.828C897.897 155.531 893.762 164.635 887.22 162.135C874.877 157.414 860.035 162.876 849.42 152.198C847.661 150.439 844.976 149.637 843.433 147.446C840.193 140.688 842.199 135.287 847.661 130.782C860.868 127.264 861.609 112.759 870.156 105.137H870.125C875.278 99.4587 881.512 95.4469 888.887 93.2559V93.1016C890.584 89.7379 891.725 86.0656 894.688 83.4425L894.749 83.535Z" fill="#4C473A"/>
<path d="M1009.02 15.6116C1017.07 16.7534 1024.11 20.2097 1030.65 24.9004C1032.01 26.9063 1032.93 29.0665 1033.73 31.3501C1034.75 39.96 1037.93 47.7367 1042.74 54.8654C1047.93 62.5495 1048.51 69.7398 1040.37 75.9426C1026.45 76.1587 1020.16 86.7436 1013 96.1868C1000.35 102.05 998.711 98.9641 990.904 75.7266C990.101 68.1042 987.972 60.6053 988.188 52.8903C984.64 45.2679 972.451 44.9593 972.451 34.3127C972.204 29.2516 975.475 25.857 978.036 22.0921C979.61 20.2714 981.492 18.8827 983.683 17.8643C991.737 13.0193 1000.5 15.8276 1008.99 15.6116H1009.02Z" fill="#766540"/>
<path d="M980.937 24.9321C978.993 28.0181 977.018 31.135 975.074 34.221C973.901 35.1159 973.747 37.0909 971.896 37.2144C955.88 46.102 942.982 58.7546 932.182 73.1661C927.738 79.0912 923.881 81.344 916.167 79.4615C918.851 74.4005 921.32 69.7098 923.789 64.9883C915.889 58.4151 916.29 80.7268 907.187 69.6173C906.262 65.1117 907.99 60.5445 911.044 58.4768C930.917 45.0219 940.421 22.4016 957.639 6.72478C962.669 1.57117 967.73 -3.45897 975.136 3.17591C977.172 7.21855 972.019 9.19355 972.513 13.6991C973.562 17.9578 978.9 20.2723 980.937 24.9013V24.9321Z" fill="#474235"/>
<path d="M957.638 6.7242C947.948 25.5796 933.692 40.8552 919.282 56.0383C915.116 60.4513 911.197 65.0803 907.155 69.6167C900.891 71.1906 900.705 79.0598 895.089 81.2817C895.398 76.1898 895.737 71.0671 896.046 65.9752C897.064 60.3278 904.964 63.2287 906.537 56.0692C907.278 45.978 892.25 43.6635 891.047 32.9243C898.535 33.4592 905.632 39.6208 912.339 51.4093C922.676 43.8795 931.995 36.0719 938.074 24.5921C942.425 16.3525 947.701 8.94613 957.607 6.69336L957.638 6.7242Z" fill="#EDC965"/>
<path d="M1326.54 39.5592C1327.75 34.8994 1328.92 30.2087 1330.12 25.5489C1333.27 27.6473 1332.34 31.1653 1333.08 34.097C1335.61 37.8928 1337.06 42.2749 1339.75 45.9781C1341.79 49.0024 1340.24 52.4278 1340.89 55.6373C1342.34 59.7416 1340.86 63.3214 1339.07 66.716C1339.19 66.5925 1339.1 67.4874 1339.1 67.4874C1339.1 67.4874 1340.03 67.4566 1340.03 67.2406C1342.65 62.3338 1341.6 57.458 1340.77 52.5821C1341.76 43.4476 1340.95 34.0353 1345.24 25.4562C1346.38 25.3945 1347.49 25.302 1348.64 25.2402C1351.69 31.7825 1353.2 38.726 1353.73 45.8855C1360.27 68.6601 1348.57 86.3737 1326.82 86.6514C1327.5 78.1958 1326.17 70.0179 1323.73 61.9635C1320.68 54.0016 1326.42 47.1507 1326.57 39.5901L1326.54 39.5592Z" fill="#4D4835"/>
<path d="M1045.86 296.19C1043.89 297.61 1041.94 299.03 1039.97 300.418C1038.27 301.714 1037.5 303.813 1035.96 305.232C1025.65 309.182 1025.9 319.767 1021.79 327.637C1012.35 331.155 1006.86 340.444 997.6 344.178C984.115 343.838 970.445 345.937 957.824 341.369C954.059 336 956.312 332.111 958.873 328.223C963.78 325.106 963.718 320.354 963.317 315.293C962.854 309.182 963.378 303.35 970.321 300.634C976.585 298.844 982.788 299.091 988.188 300.758C986.46 299.06 982.109 300.017 980.319 296.684C980.227 296.283 980.011 295.789 979.949 295.295C979.918 294.802 980.011 294.308 980.072 293.783C971.895 302.424 959.213 302.455 950.017 310.293C941.531 317.576 930.916 312.7 927.46 301.683C925.547 295.573 923.294 290.574 917.586 286.994C913.883 284.649 909.717 281.254 914.13 275.823C919.931 271.379 927.028 274.496 932.305 272.891C921.782 273.755 910.242 273.447 898.732 273.046C893.64 272.86 886.913 272.644 889.197 263.911C891.943 261.473 895.307 261.226 898.732 261.041C921.659 259.776 944.741 263.325 967.544 258.757C976.616 257.677 985.689 256.412 994.576 259.899C1006.86 266.195 1020.22 263.479 1033.12 264.281C1039.5 264.682 1046.45 263.016 1050.8 269.836C1051.75 272.12 1051.85 274.465 1051.04 276.81C1047.71 283.044 1041.29 281.933 1035.89 282.921C1042.07 285.204 1048.42 287.241 1045.83 296.129L1045.86 296.19Z" fill="#7B6A4A"/>
<path d="M1231.13 216.294C1208.69 219.194 1203.94 242.741 1188.05 253.264C1187.4 257.492 1188.82 262.306 1184.75 265.608C1179.87 272.644 1177.13 268.2 1174.38 263.725C1172.93 259.281 1169.51 258.479 1165.22 257.708C1149.88 254.961 1148.89 251.69 1158.92 238.945C1162.96 235.612 1169.07 237.68 1173.15 233.421C1174.75 224.934 1170.06 221.848 1162.35 220.83C1156.76 220.089 1149.57 222.682 1147.2 214.288C1155.22 203.734 1168.18 211.078 1177.65 205.832C1189.38 204.567 1201.57 207.56 1212.8 201.018C1216.87 198.642 1221.62 200 1225.02 203.888C1228.04 212.097 1233.63 206.696 1238.29 205.801C1239.83 212.467 1232.79 212.436 1231.16 216.263L1231.13 216.294Z" fill="#514C41"/>
<path d="M1178.64 262.553C1178.76 267.336 1181.29 267.398 1184.72 265.639C1184.87 266.534 1185 267.459 1185.03 268.385C1187.71 271.286 1193.05 270.453 1194.72 276.378C1195.06 282.488 1190.49 285.975 1184.53 288.383C1182.13 288.784 1179.72 288.876 1177.28 288.876C1170.28 288.506 1163.98 285.142 1156.36 286.438C1148.83 287.704 1133.43 269.589 1132.82 260.763C1148.55 250.054 1163.61 256.659 1178.67 262.553H1178.64Z" fill="#806B43"/>
<path d="M1132.39 262.553C1143.49 278.847 1160.1 284.927 1178.64 287.334C1174.51 290.883 1170.43 289.864 1166.39 287.21C1147.85 292.117 1146.33 291.623 1141.52 278.446C1132.54 280.452 1122.91 275.329 1113.84 280.73C1113.81 279.773 1113.75 278.816 1113.72 277.86C1112.76 271.626 1100.91 266.966 1110.97 259.066C1118.5 257.801 1126.28 255.147 1132.39 262.522V262.553Z" fill="#746043"/>
<path d="M1265.44 142.262C1263.1 148.372 1258.07 151.582 1252.73 153.773C1249.58 159.821 1259.36 160.284 1256 167.783C1246.68 172.289 1226.41 166.148 1227.92 188.212C1225.82 196.267 1221.1 200.464 1212.52 202.624C1197.55 206.389 1182.8 207.932 1167.65 204.846C1154.11 195.711 1141.67 184.54 1123.99 183.182C1119.36 182.843 1117.05 177.72 1118.07 172.443C1128.06 148.959 1128.03 149.267 1154.14 151.15C1161.57 151.674 1170.43 155.532 1176.2 146.613C1196.88 139.793 1216.38 127.974 1239.77 132.788C1245.66 133.992 1251.34 140.565 1258.07 134.794C1261.37 134.146 1263.87 135.442 1265.81 138.065C1266.4 139.516 1266.27 140.935 1265.41 142.262H1265.44Z" fill="#826B41"/>
<path d="M1265.44 142.262C1265.32 141.213 1265.2 140.133 1265.04 139.084C1264.06 125.968 1272.2 116.093 1277.17 105.076C1277.26 99.0276 1278.5 93.195 1281 87.6711C1288.19 87.1465 1283.19 94.2134 1286.3 96.2193C1286.21 98.7498 1286.12 101.28 1288.68 103.101C1295.72 101.188 1297.84 94.3369 1302.04 89.5536C1304.73 86.8688 1305.13 82.5484 1308.61 80.4499C1311.58 74.1854 1314.51 67.9208 1317.47 61.6562C1319.94 63.0449 1318.33 66.4087 1320.49 67.9516C1318.89 87.5168 1307.04 100.879 1291.55 110.137C1282.63 115.445 1276.49 120.136 1277.45 130.937C1278.25 139.886 1273.59 142.88 1265.44 142.231V142.262Z" fill="#52472A"/>
<path d="M962.515 327.36C960.54 324.521 958.596 321.682 956.344 318.441C933.231 321.065 926.288 344.148 909.872 355.072C906.292 366.799 897.93 370.965 886.636 368.435C878.675 366.645 870.714 366.367 862.691 365.626C852.97 364.731 845.472 360.38 845.38 348.931C834.024 344.21 819.397 344.395 815.818 328.347C809.832 327.638 804.493 326.99 799.155 326.342C798.97 325.508 798.816 324.675 798.63 323.842C809.647 319.984 820.663 316.096 833.067 311.745C829.519 298.197 818.256 301.006 811.868 304.277C803.382 308.628 795.329 308.597 786.719 308.813C785.886 306.159 786.874 304.153 788.756 302.61C775.549 304.277 761.756 310.048 749.598 298.969C750.832 292.766 755.461 291.532 759.441 289.526C785.979 285.607 813.164 286.872 839.177 279.095C858.031 274.713 877.564 277.552 896.511 273.54C902.127 272.368 908.884 271.936 913.266 277.922C916.167 284.804 923.696 283.477 927.553 285.421C933.972 292.087 930.114 299.648 933.509 306.499C947.981 313.535 953.721 303.228 959.059 291.285C961.682 294.031 963.626 296.068 965.508 298.074C972.729 297.179 975.568 292.92 974.889 285.823H988.096C988.034 291.501 983.406 293.075 981.153 296.346C979.764 301.253 975.907 302.333 971.525 302.579C961.651 308.134 972.791 316.528 968.717 323.842C966.527 327.792 964.613 326.372 962.515 327.329V327.36Z" fill="#7B6D4F"/>
<path d="M759.07 293.444C757.219 294.957 755.398 296.469 752.374 298.999H796.068C792.149 303.134 789.465 305.974 786.78 308.813C768.111 315.046 750.646 316.435 731.267 307.393C720.066 302.178 704.699 306.004 691.183 305.757C684.58 309.492 677.051 305.387 670.57 308.165C666.806 311.251 671.589 315.17 668.164 319.428C648.569 319.367 628.018 324.15 607.282 320.2C598.703 318.564 590.186 316.435 585.496 307.794C587.44 299.678 594.939 299.74 600.802 297.549C613.978 292.642 625.086 285.174 632.554 272.892C638.787 265.979 646.44 266.72 654.339 268.849C668.503 278.57 685.259 278.693 701.274 280.792C714.419 282.489 727.595 284.433 740.926 284.958C747.067 285.205 753.145 286.563 757.836 291.192C758.268 291.932 758.7 292.673 759.132 293.444H759.07Z" fill="#645B47"/>
<path d="M52.6185 413.293C44.5338 409.219 32.0673 411.287 30.7404 397.709C17.4717 389.346 19.6934 378.236 36.5108 369.04C42.3737 368.577 47.6812 366.232 52.8962 363.701C55.7351 361.757 58.6048 359.782 61.5055 357.899C68.6644 356.079 72.9228 349.166 80.02 347.222C85.8521 344.784 91.8076 343.395 98.1643 344.846C101.281 345.432 104.089 346.913 107.02 347.993C121.369 352.715 135.44 355.184 149.511 346.512C154.572 343.395 160.311 343.766 164.57 349.104C166.082 355.616 165.249 361.634 160.558 366.756C158.83 368.361 156.67 369.256 154.634 370.336C154.387 371.169 154.171 371.972 153.986 372.805C147.536 379.594 140.223 383.235 130.256 383.019C119.518 382.803 112.39 391.012 104.984 397.709C92.7333 392.493 80.4829 387.648 66.3192 395.919C70.053 402.029 67.3375 407.615 64.6838 413.231L64.8072 413.108C60.7958 416.657 56.6916 415.947 52.5876 413.262L52.6185 413.293Z" fill="#7A6C4C"/>
<path d="M98.6554 348.93C92.453 349.948 86.2815 350.997 80.0792 352.016C72.735 348.343 65.7612 347.788 57.1211 349.454C31.0773 354.546 4.84832 345.103 0.589977 326.34C-1.10719 316.434 0.528262 307.762 9.84725 302.023C17.0062 298.35 26.9115 298.227 28.7012 287.518C34.0087 282.951 41.6923 282.828 46.7838 277.828C49.6844 275.822 52.3381 273.415 55.5164 271.811C76.3762 261.534 96.8965 262.923 117.17 273.57C118.682 273.755 120.04 274.372 122.015 275.205C119.762 269.126 121.212 264.312 125.933 260.485C130.038 257.399 133.617 253.819 136.456 249.53C141.023 242.741 146.33 237.093 155.156 236.414C167.715 233.853 178.33 241.63 190.148 242.957C197.369 245.179 204.559 247.431 212.026 248.697C224.77 249.283 224.369 256.998 221.469 266.102C218.506 271.101 216.223 276.779 210.082 278.97C204.713 279.495 205.855 274.125 203.602 271.811C200.208 272.058 196.721 268.91 193.419 272.058C189.315 303.689 193.357 308.256 224.369 308.966C230.541 309.12 241.094 305.047 239.304 318.409C216.716 326.71 194.314 332.574 170.708 328.932C163.796 327.883 161.173 330.444 160.371 336.586C140.344 343.406 120.749 352.386 98.6554 348.93Z" fill="#BF9A4E"/>
<path d="M490.547 188.427C497.922 182.255 499.403 171.238 508.599 166.578C512.085 166.578 515.758 165.93 518.504 168.954C519.738 170.497 518.38 172.904 520.201 174.355C524.552 174.694 527.391 170.806 531.464 170.343C544.795 170.096 555.78 161.579 569.049 159.912C576.3 158.986 579.633 149.512 581.33 141.797C582.194 137.878 581.546 133.558 584.446 130.163C585.496 129.145 586.761 128.497 588.211 128.25C599.752 130.935 607.127 142.816 619.995 142.569C623.42 142.939 627.153 142.507 629.468 145.964C631.813 154.851 637.213 160.807 648.507 162.288C639.25 168.152 632.831 161.208 625.672 162.566C622.155 167.565 621.722 173.305 626.197 177.41C629.869 180.804 637.768 180.465 634.127 188.982C628.419 191.791 625.364 184.446 620.241 185.31C605.43 190.278 590.371 194.537 575.714 200.092C568.74 202.746 561.766 198.024 554.885 196.234C542.295 192.963 531.773 195.062 524.583 206.912C533.161 214.565 537.666 224.903 543.097 234.624C536.062 238.821 529.921 237.494 524.583 231.538C524.614 227.434 524.583 222.65 520.818 220.583C507.179 213.022 501.656 198.148 490.609 188.334L490.547 188.427Z" fill="#BC9448"/>
<path d="M524.492 231.631C530.663 232.65 536.835 233.699 543.006 234.717C548.067 234.902 553.374 234.162 558.589 239.192C551.153 243.235 542.328 238.359 535.786 242.988C535.847 252.307 544.518 248.203 549.116 252.616C538.47 253.727 528.318 252.894 518.475 257.955C526.991 261.781 536.125 256.751 543.408 263.201C512.211 266.225 481.075 266.997 449.909 262.769C445.867 264.25 441.824 265.732 438.183 261.843C447.811 256.319 459.135 262.213 469.781 256.381C457.562 253.017 454.322 236.816 437.844 238.544C447.533 225.027 458.241 217.744 472.528 225.336C489.376 234.316 507.644 226.262 524.523 231.693L524.492 231.631Z" fill="#C59D50"/>
<path d="M586.7 288.044C582.349 277.49 586.855 270.238 596.822 268.355C628.389 262.43 659.37 254.222 692.511 242.927C694.825 239.594 696.862 232.681 698.127 224.75C699.886 213.764 713.463 217.19 720.221 210.987C723.153 208.302 729.016 208.796 731.206 203.951C731.7 203.334 732.194 202.716 732.657 202.068C734.662 200.618 736.884 199.908 739.353 199.785C745.308 199.661 750.4 201.667 754.627 205.895C761.509 216.634 752.683 219.844 745.926 224.102C735.681 229.75 723.893 226.293 712.136 229.811C706.86 243.544 700.997 257.894 683.315 260.949C679.582 261.906 675.694 262.153 672.083 263.51C649.681 266.566 628.543 274.157 607.375 281.563C600.216 282.86 594.631 289.186 586.7 288.075V288.044Z" fill="#B29250"/>
<path d="M629.406 146.027C626.321 146.767 623.266 147.539 620.18 148.279C609.318 140.75 599.567 131.769 588.705 124.24C586.792 115.259 600.986 117.512 599.413 108.779C598.888 104.983 600.092 101.372 600.338 97.6384C600.524 94.1821 602.591 91.8059 604.936 89.584C626.012 92.3614 633.85 112.204 648.445 123.314C642.089 130.875 635.732 138.466 629.375 146.027H629.406Z" fill="#74633F"/>
<path d="M259.113 277.952C288.582 271.101 317.372 275.823 346.501 281.47C345.823 284.062 345.668 285.698 345.36 285.729C306.541 289 268 299.338 228.718 290.173C226.342 289.617 224.151 288.198 221.898 287.179C222.33 286.593 222.793 286.006 223.225 285.389C233.871 280.205 246.739 285.112 256.953 277.952C257.693 277.952 258.403 277.952 259.144 277.952H259.113Z" fill="#CAA353"/>
<path d="M434.94 266.04C440.062 270.607 446.728 268.076 452.56 269.743C458.392 271.378 460.675 274.218 458.916 281.099C432.471 279.834 404.916 285.204 375.848 270.484C389.394 269.619 398.158 264.96 407.384 261.596C409.76 260.732 411.92 260.763 413.463 263.108C418.987 269.589 425.621 267.182 432.163 265.423C433.304 264.558 434.23 264.713 434.878 266.04H434.94Z" fill="#C59D50"/>
<path d="M398.129 219.565C400.382 225.645 398.283 229.811 392.019 226.817C381.374 221.725 371.777 223.947 361.871 227.99C356.41 226.015 356.348 221.016 355.453 216.51C357.767 204.722 366.654 198.827 376.189 193.52C379.306 194.6 381.034 196.883 381.836 200C382.608 202.963 380.787 206.11 382.546 209.227C388.687 212.838 395.321 204.814 401.493 209.721C403.097 213.949 399.487 216.356 398.129 219.565Z" fill="#50462B"/>
<path d="M357.951 253.14C344.435 261.873 331.475 248.603 315.367 254.96C325.951 235.21 340.454 237.247 354.772 238.697C357.735 243.542 345.824 251.01 358.012 253.201H357.951V253.14Z" fill="#C49D4F"/>
<path d="M715.932 166.733C719.172 173.954 722.412 181.175 725.652 188.396C719.357 195.71 712.352 189.044 705.687 189.476C703.65 189.816 701.614 190.248 699.762 191.235C697.726 184.261 691.647 178.305 694.362 170.127C700.719 163.647 708.217 164.48 715.932 166.733Z" fill="#6C5930"/>
<path d="M468.977 178.738C478.018 178.738 482.646 185.188 487.429 191.422C490.947 198.489 489.805 204.074 482.276 207.654C476.999 210.185 471.723 213.054 469.285 204.383C475.827 193.057 462.25 196.267 459.904 191.36H459.873C459.071 190.712 458.67 189.94 458.701 189.045C458.701 188.12 458.824 187.688 459.04 187.688C460.583 182.719 468.946 185.373 468.977 178.738Z" fill="#66532C"/>
<path d="M699.762 191.236C700.996 190.31 702.261 189.416 703.496 188.49C713.802 185.465 722.905 192.193 732.193 191.391C737.47 196.729 734.754 200.34 731.267 203.827L731.175 203.92C720.498 200.186 708.587 199.568 699.762 191.236Z" fill="#B29250"/>
<path d="M413.497 263.108C411.46 262.614 409.424 262.09 407.418 261.596C403.19 258.078 394.859 259.713 394.211 249.869C402.11 253.202 409.794 254.961 413.497 263.108Z" fill="#795818"/>
<path d="M358.015 253.203C363.97 246.938 368.784 251.907 374.771 254.129C367.457 264.621 363.384 252.493 357.953 253.172L358.015 253.203Z" fill="#7F601B"/>
<path d="M434.942 266.041C434.078 265.701 433.152 265.485 432.226 265.424C429.881 263.942 427.505 262.461 424.82 260.764C430.097 257.647 433.985 261.011 438.182 261.782C442.101 262.091 445.989 262.399 449.907 262.708C445.68 267.337 440.002 265.177 434.942 266.01V266.041Z" fill="#846423"/>
<path d="M1259.27 135.471C1258.31 141.52 1256.15 145.069 1249.12 141.767C1228.17 131.953 1208.63 132.972 1191.35 149.914C1190.3 150.932 1188.79 151.457 1187.74 152.074C1183.86 152.043 1184.47 142.692 1178.52 148.124C1172.47 152.074 1170 148.679 1168.49 143.279C1171.67 136.798 1177.87 140.069 1182.68 138.866C1183.42 138.773 1184.16 138.681 1184.94 138.588C1204.62 130.75 1224.53 124.362 1246.1 129.978C1249.55 134.052 1257.45 127.448 1259.24 135.502L1259.27 135.471Z" fill="#735C2D"/>
<path d="M1116.83 130.01C1139.3 134.855 1162.41 132.633 1185.03 135.997C1184.9 136.861 1184.87 137.725 1184.97 138.589L1184.6 139.823C1176.79 141.243 1168.36 139.731 1161.36 144.884C1149.11 149.236 1136.12 148.186 1123.5 149.945C1116.28 150.964 1108.84 149.019 1108.29 139.083C1108.72 133.775 1113.59 132.633 1116.86 130.01H1116.83Z" fill="#AD8A40"/>
<path d="M1058.3 71.1598C1059.44 71.2832 1060.58 71.3758 1061.72 71.4992C1068.26 71.4992 1072.03 75.8196 1075.61 80.4177C1076.96 82.5471 1078.29 84.6764 1079.65 86.8366C1080.27 89.7374 1080.88 92.6074 1081.32 94.7676C1086.47 99.52 1091.96 93.564 1098.07 98.5633C1104.52 106.649 1103.22 121.4 1114.02 129.639C1109.98 134.021 1104.98 136.212 1099.03 136.367C1097.36 136.212 1095.73 135.842 1094.12 135.317C1075.48 132.972 1056.69 135.626 1038.02 133.805C1033.39 132.108 1028.52 130.688 1026.57 125.35C1030.46 114.425 1040.12 117.882 1046.91 116.4C1041.91 115.012 1036.11 118.684 1030.09 117.727C1025.28 116.03 1019.57 115.752 1017.38 109.858C1017.78 103.192 1026.48 106.093 1027.9 100.631C1024.29 90.3237 1021.24 80.2017 1036.7 77.2083C1043.7 74.4926 1048.64 64.5248 1058.27 71.1289L1058.3 71.1598Z" fill="#90743F"/>
<path d="M1160.19 203.857C1166.42 205.74 1171.17 211.973 1178.67 210.091C1169.48 217.559 1157.04 208.764 1147.84 216.201C1143.89 221.694 1138.19 220.583 1132.69 220.182C1131.24 219.904 1129.82 219.38 1128.47 218.732C1119.73 214.504 1112.85 207.591 1104.74 202.407C1103.44 201.975 1102.21 201.419 1101 200.864C1096.9 199.043 1092.58 198.025 1088.47 197.099C1083.63 198.21 1084.83 202.746 1083.2 205.554C1081.53 208.98 1078.97 211.48 1075.54 213.084C1066.19 213.979 1057.99 217.868 1050.36 223.145C1048.39 224.256 1046.26 224.78 1044.01 224.657C1039.13 222.497 1035.43 217.652 1028.58 222.713C1023.36 226.57 1015.62 224.749 1008.95 224.78C995.593 224.842 982.386 225.089 969.148 228.02C950.386 232.187 936.716 220.645 923.756 209.813C917.801 204.845 912.03 201.944 904.563 201.851C897.003 199.845 891.572 194.26 885.246 190.248C874.939 183.706 864.263 180.527 852.321 185.218C842.848 184.477 836.398 194.229 826.493 192.562C820.599 191.575 814.181 193.828 808.873 189.476C807.978 188.335 807.516 187.038 807.516 185.557C809.552 181.206 813.008 179.2 817.76 179.354C829.764 178.058 829.394 166.794 833.004 159.295C835.843 153.401 837.509 147.816 845.378 148.278C847.322 146.705 849.266 145.131 851.025 143.68C856.764 144.884 855.314 150.5 857.906 153.494C865.59 155.932 872.841 154.389 879.969 149.852C881.79 153.278 883.364 156.271 884.814 158.987C889.566 159.357 892.066 157.166 894.287 154.049C905.334 138.496 919.405 137.447 931.779 151.179C940.234 160.561 960.816 162.752 967.883 154.666C965.568 144.514 948.319 143.31 951.96 129.114C960.199 123.652 967.389 128.034 974.517 131.83C979.886 130.472 983.713 127.17 987.416 123.621C993.34 117.727 999.45 118.159 1005.74 122.942C1007.69 127.201 1006.33 129.3 1001.76 129.608C1003.99 131.83 1008.06 130.935 1010.47 133.527C1016.05 138.65 1023.03 137.817 1029.57 137.416C1046.23 136.428 1062.18 137.354 1075.08 149.852C1085.79 158.431 1102.39 152.259 1111.71 164.356C1114.52 174.448 1120.38 180.342 1130.69 184.878C1141.12 189.446 1155 190.495 1160.25 203.795L1160.19 203.857Z" fill="#4D4A3D"/>
<path d="M996.58 74.2778C996.395 81.3756 997.506 88.103 1001.95 94.2442C1006.33 93.7504 1010.71 93.2566 1015.09 92.7629C1016.45 103.749 1008.74 105.354 1000.72 106.681C999.11 106.619 997.722 106.063 996.518 104.953C995.13 99.6138 993.741 94.275 992.445 89.3065C985.441 81.8693 963.223 89.7694 971.925 68.0441C982.355 61.2858 990.007 65.5753 996.549 74.2161L996.58 74.2778Z" fill="#5C5136"/>
<path d="M1005.87 126.77C1000.38 121.678 993.589 124.363 987.356 123.653C985.319 122.696 983.283 121.739 981.246 120.752C987.634 113.222 997.693 117.357 1005.13 113.13C1013.55 113.253 1022.01 112.296 1030.37 113.994C1039.66 113.5 1049.26 109.581 1058.61 116.802C1048.73 122.665 1037.13 119.055 1027.47 123.591C1022.01 136.305 1014.54 135.472 1005.9 126.8L1005.87 126.77Z" fill="#574626"/>
<path d="M996.581 74.2763C988.373 72.2087 980.165 70.141 971.957 68.1043C971.957 63.9999 971.957 59.8955 971.957 55.7912C977.388 47.7676 985.288 48.2614 993.403 49.5575C992.879 58.0131 994.144 66.2218 996.55 74.2763H996.581Z" fill="#685844"/>
<path d="M993.433 49.5585C988.465 59.2176 978.406 51.2249 971.987 55.7922C974.055 49.5893 974.116 43.4173 971.895 37.2454C972.944 36.2579 974.024 35.2395 975.073 34.252C975.937 39.961 978.189 43.6951 984.947 41.6275C992.291 39.3747 993.495 43.8494 993.464 49.5893L993.433 49.5585Z" fill="#5C4C36"/>
<path d="M731.268 203.858C731.638 200.958 732.039 198.057 732.533 194.23C722.659 192.286 713.062 190.404 703.496 188.521C710.84 181.207 718.277 190.589 725.652 188.429C734.724 186.731 743.796 194.539 752.899 188.552C759.966 192.564 768.174 187.41 775.24 191.391C776.752 194.508 775.888 197.594 775.209 200.711C772.031 208.796 767.31 215.863 760.027 220.615C754.72 224.041 748.857 225.028 743.703 219.72C746.542 215.431 757.404 217.005 752.806 207.253C748.641 202.624 743.796 200.896 737.871 203.704C735.681 203.766 733.49 203.828 731.299 203.858H731.268Z" fill="#A18552"/>
<path d="M777.617 188.118C776.568 189.26 775.519 190.371 774.5 191.513C769.532 192.593 764.472 193.395 759.596 194.877C753.27 196.759 752.437 193.488 752.931 188.55C761.047 181.483 769.409 188.211 777.648 188.149L777.617 188.118Z" fill="#856725"/>
<path d="M603.917 111.401C605.213 122.14 593.271 118.406 590 124.146C591.265 126.244 590.987 128.189 589.321 129.948C588.272 129.948 587.284 130.133 586.297 130.441C581.514 133.558 583.18 138.311 582.841 142.785C582.008 153.864 573.553 162.135 564.882 162.412C550.502 162.875 540.504 173.491 527.05 174.509C523.039 176.33 519.83 175.003 517.083 171.979C514.245 170.158 511.437 168.368 508.598 166.547C512.115 161.579 515.633 156.611 519.151 151.642C520.755 150.469 522.329 149.297 523.934 148.093C525.816 146.55 527.884 146.211 530.136 147.075C533.839 149.266 531.864 153.71 534.456 157.475C542.202 151.92 548.959 144.884 558.618 142.199C566.918 139.885 566.826 132.848 565.406 125.782C563.833 117.881 562.568 110.043 573.522 107.728C583.458 110.568 594.721 102.359 603.917 111.37V111.401Z" fill="#47402A"/>
<path d="M459.287 188.673C451.418 189.723 444.198 187.532 436.73 183.767C433.058 186.297 429.355 188.859 425.652 191.42C421.672 185.124 425.621 181.267 429.88 177.502C435.557 173.645 442.624 175.589 448.672 173.182C449.351 173.027 450.061 172.873 450.739 172.719C456.818 174.725 462.897 176.731 468.976 178.736C469.995 180.31 471.013 181.884 472.648 184.353C467.958 185.865 463.638 187.285 459.287 188.673Z" fill="#5E4F34"/>
<path d="M376.344 194.63C376.436 193.643 376.56 192.655 376.745 191.668C377.177 190.217 378.134 189.199 379.491 188.582C382.577 187.44 386.496 189.508 388.964 186.082C390.137 182.286 391.31 178.491 395.013 176.238C396.031 175.189 397.049 174.139 398.037 173.121C398.715 173.337 399.394 173.522 400.073 173.738C403.56 175.497 405.875 178.09 406.121 182.194C402.881 196.482 393.408 201.852 379.491 200.802C378.442 198.766 377.393 196.698 376.344 194.661V194.63Z" fill="#4F4729"/>
<path d="M416.52 169.881C416.89 167.011 417.229 164.11 417.599 161.24C425.468 158.648 433.954 153.279 438.552 165.808C438.398 167.258 437.719 168.431 436.515 169.264C434.664 170.344 432.627 170.838 430.498 170.93C425.869 170.313 421.056 171.98 416.55 169.85L416.52 169.881Z" fill="#786727"/>
<path d="M604.966 89.5827C604.719 92.6996 604.472 95.8164 604.194 98.9641C594.814 109.179 581.051 101.217 570.621 107.08C564.45 109.765 560.068 117.326 551.736 113.993C550.255 113.314 549.175 112.234 548.527 110.753C562.938 91.9589 582.286 86.3116 604.997 89.6136L604.966 89.5827Z" fill="#47402A"/>
<path d="M536.586 126.091C537.851 118.87 542.757 114.457 548.497 110.723L549.391 111.525C553.958 117.388 554.205 123.684 549.885 129.455C546.367 134.114 541.399 134.022 536.586 130.782C535.32 129.239 535.32 127.665 536.586 126.091Z" fill="#4D3C2B"/>
<path d="M536.585 126.092C536.77 127.388 536.955 128.653 537.141 129.949C543.312 143.805 542.51 146.089 530.661 148.342C528.408 148.28 526.186 148.218 523.934 148.157C528.161 140.812 532.389 133.436 536.585 126.092Z" fill="#59481A"/>
<path d="M895.366 428.856C899.346 422.592 897.032 417.932 891.539 414.136C890.182 411.328 885.553 412.932 884.812 408.396C886.294 401.946 890.521 396.824 896.847 393.336C898.235 393.059 899.624 393.213 900.951 393.707C905.086 394.972 907.277 398.922 910.887 400.928C912.924 400.959 914.991 401.082 917.028 401.02C948.256 399.94 942.979 398.243 952.082 433.115C946.435 435.429 939.924 430.06 934.617 434.905C921.903 430.399 907.925 434.226 895.366 428.887V428.856Z" fill="#76684E"/>
<path d="M1049.19 271.904C1037.34 266.164 1024.63 270.392 1012.41 268.725C1006.08 267.861 999.17 270.67 993.523 265.608C1006.27 256.381 1020.28 266.905 1030.34 262.492C1027.74 262.183 1022.04 262.307 1016.39 262.584C1006.27 263.078 1000.47 258.696 1000.62 248.543C1000.77 238.976 1005.9 233.36 1016.05 233.391C1019.1 233.391 1022.19 233.298 1025.25 233.391C1026.82 233.391 1028.39 233.514 1029.97 233.668C1040.09 236.014 1050.05 239.1 1060.48 239.964C1069.59 241.63 1075.33 245.704 1071.99 256.165C1071.41 257.523 1070.57 258.788 1069.65 259.93C1064.71 267.121 1061.63 277.52 1049.19 271.904Z" fill="#736444"/>
<path d="M913.297 277.951C888.611 280.019 863.894 282.087 839.208 284.154C833.036 287.271 826.464 284.957 820.138 285.666C815.324 284.339 816.528 281.068 818.718 278.877C826.248 271.316 834.919 266.039 846.151 269.557C852.076 271.409 858.062 272.397 864.511 272.983C862.259 267.953 854.112 265.577 858 258.17C861.395 255.331 865.314 255.146 869.418 255.856C875.959 258.849 884.908 257.152 888.549 265.7C900.645 271.687 913.544 267.798 926.041 268.601C935.298 269.187 944.648 268.724 953.967 270.761C940.698 276.192 927.245 278.538 913.297 277.951Z" fill="#655438"/>
<path d="M1030.52 237.834H1009.85C1003.34 244.994 1003.46 251.32 1008.34 258.079C1019.17 261.967 1031.88 255.887 1044.07 265.639H993.494C985.657 261.165 977.078 262.769 968.716 262.584C964.643 265.145 960.292 263.942 956.002 263.572C949.09 260.825 940.666 265.207 933.661 258.665C933.445 248.697 940.018 246.691 948.257 246.568C966.278 254.499 981.769 249.16 996.117 237.464C1009.76 226.355 1022.38 226.571 1030.49 237.834H1030.52Z" fill="#685A3E"/>
<path d="M950.231 250.117C945.078 250.117 940.357 251.197 936.16 255.949C941.838 262.738 951.373 256.412 956.619 262.399C942.702 266.071 928.539 263.078 914.529 264.096C909.037 264.497 903.39 262.8 898.113 265.485C894.935 265.547 891.725 265.639 888.547 265.701C882.314 263.726 876.05 261.72 869.816 259.745C870.31 259.066 870.804 258.356 871.267 257.647C885.091 253.048 899.44 253.388 913.696 253.511C920.855 253.573 926.903 252.555 930.575 245.704C937.518 242.093 944.245 240.92 950.324 247.401C950.324 248.327 950.293 249.222 950.262 250.148L950.231 250.117Z" fill="#8E754D"/>
<path d="M1049.19 271.902C1053.33 270.359 1057.43 268.816 1061.72 267.242C1063.26 263.477 1056.1 263.076 1057.92 259.188C1061.41 255.392 1064.56 258.324 1067.71 259.095C1081.53 259.466 1083.13 262.336 1076.22 274.278C1069.4 277.241 1061.07 275.451 1054.96 280.882H1053.57H1052.18C1051.17 279.895 1050.18 278.907 1049.19 277.92C1049.19 275.914 1049.19 273.908 1049.19 271.902Z" fill="#5A4C30"/>
<path d="M898.113 265.454C917.338 259.004 937.179 264.281 956.65 262.399C960.692 262.46 964.735 262.522 968.746 262.584C945.418 269.003 921.658 264.343 898.113 265.485V265.454Z" fill="#9B8259"/>
<path d="M1132.38 262.552L1107.7 262.707C1094.77 270.422 1087.02 267.706 1085.17 254.776C1088.23 250.363 1092.64 248.82 1097.79 248.881C1110.78 254.868 1123.1 241.845 1134.73 247.647C1147.32 243.265 1152.84 224.965 1169.47 233.945C1171.2 242.71 1162.19 237.124 1160.19 240.889C1158.86 244.006 1157.5 247.122 1156.11 250.363C1161.42 258.479 1178.18 245.579 1178.67 262.491C1163.24 262.707 1147.81 256.782 1132.41 262.491L1132.38 262.552Z" fill="#5C4E37"/>
<path d="M1160.16 240.92C1163.18 238.76 1166.24 236.631 1169.26 234.47C1165.68 230.613 1162.47 226.169 1156.18 227.002C1145.96 226.416 1134.08 230.119 1129.21 216.263C1135.41 216.232 1141.61 216.171 1147.81 216.14C1151.89 216.14 1155.96 216.109 1160 216.201C1178.15 216.664 1180.77 220.275 1176.36 238.914C1171.33 242.155 1165.59 240.396 1160.16 240.889V240.92Z" fill="#564D36"/>
<path d="M1086.28 256.537C1092.02 263.449 1100.17 261.968 1107.67 262.708C1110.44 264.529 1113.22 266.35 1115.69 267.955C1117.33 272.028 1115.13 274.836 1113.72 277.861C1102.45 277.861 1091.19 277.922 1079.96 277.922C1076.1 277.676 1072.49 277.151 1073.75 271.72C1084.4 261.443 1072.34 262.03 1067.71 259.067C1067.71 258.141 1067.68 257.215 1067.68 256.29C1072.52 254.531 1073.23 248.297 1077.52 246.445C1084.4 247.001 1086.25 251.043 1086.31 256.537H1086.28Z" fill="#826B44"/>
<path d="M1092.18 138.991C1098.41 138.034 1104.61 137.047 1110.85 136.09C1110.48 145.224 1116.52 145.811 1123.13 144.947C1135.72 143.342 1148.25 141.398 1160.8 139.577C1163.18 141.799 1167.22 139.052 1169.23 142.385C1171.33 145.934 1174.23 148.156 1178.52 148.125C1181.11 154.359 1177.37 156.519 1172.28 157.352C1169.29 157.846 1166.08 158.062 1163.12 157.537C1145.84 154.482 1128.5 150.841 1120.32 172.967C1115.91 170.776 1112.7 167.104 1109.09 163.925C1107.2 160.191 1104.95 156.859 1100.01 157.692C1091.19 159.173 1083.44 155.316 1075.39 152.847C1073.88 152.446 1072.8 151.52 1072.18 150.069C1071.19 144.391 1075.02 141.521 1078.82 138.62C1083.35 135.905 1087.86 135.226 1092.21 139.052L1092.18 138.991Z" fill="#8E7445"/>
<path d="M817.573 284.154C807.606 289.37 796.837 286.746 786.407 287.117C776.81 287.456 767.461 288.382 758.975 293.32C728.858 288.166 697.969 288.814 668.13 281.377C662.144 279.896 655.664 279.525 654.09 271.779C655.88 261.503 667.359 265.083 672.172 259.127C675.042 256.72 678.437 256.38 681.985 256.596C692.415 260.732 703.863 258.602 713.213 256.195C725.186 253.109 735.616 251.844 747.156 256.072C751.847 257.8 758.419 258.417 762.061 255.393C777.551 242.648 795.665 245.981 813.253 245.579C816.895 245.487 820.289 244.438 823.714 243.45C826.769 242.925 829.762 243.234 832.694 244.222C839.359 249.869 847.999 247.801 855.559 250.054C856.917 250.764 858.028 251.751 858.953 252.986C859.848 255.269 859.601 257.399 857.966 259.281C863.057 267.798 872.808 269.434 884.689 275.853C866.699 278.599 853.245 280.667 839.359 271.44C832.323 275.544 824.979 279.865 817.635 284.154H817.573Z" fill="#575042"/>
<path d="M672.145 259.127C674.15 261.163 675.169 264.558 671.867 264.681C664.831 264.959 660.172 269.989 654.062 271.779C647.767 273.384 639.034 267.706 635.578 277.889C625.148 277.859 614.719 277.828 604.258 277.766C626.568 270.483 648.97 263.447 672.114 259.096L672.145 259.127Z" fill="#65582F"/>
<path d="M154.26 240.92C145.774 241.012 144.324 249.777 138.801 253.511C133.555 254.591 130.685 259.868 126.026 261.318C117.756 263.91 108.252 268.509 103.777 255.486C113.837 240.519 128.803 231.384 144.633 224.688C155.741 219.997 166.696 224.163 173.516 235.365C169.103 244.16 159.753 235.859 154.26 240.889V240.92Z" fill="#4B4537"/>
<path d="M237.732 249.93C238.689 251.874 239.645 253.819 240.91 256.349C235.325 262.058 227.117 263.755 218.971 265.576C216.132 261.842 219.279 258.386 219.68 254.096C217.273 253.788 215.021 253.51 212.768 253.232C209.621 251.041 207.09 248.727 210.948 244.962C219.526 240.395 228.074 241.536 236.59 245.178C238.102 246.505 238.473 248.079 237.763 249.961L237.732 249.93Z" fill="#A38C59"/>
<path d="M154.262 240.92C159.014 234.717 167.438 240.395 172.529 235.242C179.935 229.008 185.675 234.563 191.754 237.896C193.605 239.469 194.901 241.444 195.426 243.821C195.148 246.382 194.315 248.295 191.137 247.493C178.423 247.74 167.469 237.896 154.262 240.92Z" fill="#74603A"/>
<path d="M823.809 247.092C816.527 252.74 808.041 249.654 800.142 250.055C788.724 250.672 778.665 250.363 768.019 259.159C757.126 268.139 741.852 263.201 729.539 254.807C723.677 258.418 718.091 261.874 711.58 265.886C703.928 255.733 688.9 270.885 681.957 256.566C698.713 252.431 705.933 241.321 704.699 224.318C717.659 218.485 731.483 225.367 743.734 219.627C760.459 221.664 764.84 207.931 771.876 197.624C780.177 200.093 785.114 190.526 793.014 191.637C806.344 197.099 802.703 208.579 800.358 217.59C798.691 224.009 797.889 230.428 796.809 237.217C800.358 240.612 805.511 238.575 809.615 240.303C814.274 242.741 820.508 241.846 823.84 247.061L823.809 247.092Z" fill="#514B3E"/>
<path d="M567.691 105.137C571.024 95.0462 579.541 99.8912 585.928 99.1197C591.945 98.41 598.117 98.9346 604.227 98.9346C604.134 103.101 604.042 107.236 603.949 111.402C593.92 108.594 583.861 118.623 573.863 111.279C572.166 108.871 568.525 108.409 567.691 105.137Z" fill="#3E3D3C"/>
<path d="M240.969 272.335C240.352 274.279 239.735 276.224 239.087 278.199C234.304 277.118 228.935 279.587 222.578 274.125C230.046 274.372 233.255 262.491 240.938 272.335H240.969Z" fill="#4D4C46"/>
<path d="M416.519 169.88C420.869 164.263 426.671 166.763 432.102 167.041C435.897 171.114 432.78 175.157 432.009 179.2C430.003 183.335 425.683 186.266 425.683 191.42V191.451C423.06 194.105 418.709 194.413 416.827 198.055H416.92C411.057 201.264 408.465 208.763 401.182 210.09C392.234 214.966 383.192 219.194 371.898 214.009C374.614 209.319 377.083 205.06 379.551 200.771C388.037 193.981 401.09 192.5 404.299 179.57C406.181 175.928 411.643 179.57 413.186 175.249C414.328 173.46 415.439 171.67 416.58 169.88H416.519Z" fill="#46433D"/>
<path d="M1005.87 126.77C1013.55 128.992 1020.83 128.529 1027.44 123.561C1030.52 125.628 1033.61 127.727 1036.69 129.794C1057.03 134.084 1077.77 128.93 1098.13 132.448L1098.53 132.849C1096.44 133.868 1094.37 134.917 1092.27 135.935C1063.48 142.879 1034.69 140.132 1005.9 135.905C1003.92 134.547 1001.92 133.189 999.789 131.708C1000.1 128.097 1003.77 128.313 1005.87 126.77Z" fill="#6B5B41"/>
<path d="M808.409 244.037C800.541 243.45 792.302 245.487 785.42 242.247C783.507 233.452 792.271 236.414 793.628 232.001C793.381 227.187 787.056 229.81 785.883 224.811C806.866 218.176 794.523 203.826 793.011 191.667C799.491 192.933 802.701 186.082 808.409 185.465C819.487 187.162 831.12 192.069 841.951 180.033C843.834 180.496 847.691 181.391 851.548 182.317C854.726 187.347 854.078 193.21 855.004 198.703C859.417 225.12 887.806 237.679 911.165 223.33C914.096 213.331 902.247 207.437 904.068 197.747C914.22 195.895 921.441 201.11 928.785 207.159C943.164 218.978 957.328 228.391 978.496 220.707C990.315 216.417 1004.82 219.935 1018.09 219.164C1023.27 218.855 1027.84 220.213 1033.45 213.856C1042.49 203.61 1039.38 222.28 1045.83 222.373C1046.85 223.114 1047.52 224.07 1047.86 225.274C1048.3 227.156 1048.48 229.039 1048.54 230.952C1048.64 233.081 1048.27 235.087 1047.22 236.97C1041.85 240.796 1036.26 239.994 1030.58 237.865H1030.52C1018.3 233.884 1007.29 230.088 997.69 244.777C989.913 256.72 962.882 258.325 950.231 250.147C944.152 244.901 940.758 244.685 929.772 246.752C914.374 249.684 898.884 250.239 883.486 246.289C878.981 241.784 873.241 242.185 867.594 242.463C847.876 243.419 828.189 245.672 808.378 244.037H808.409Z" fill="#574F41"/>
<path d="M1043.14 228.36C1044.04 227.342 1044.93 226.292 1045.83 225.274C1048.76 220.83 1053.17 219.225 1058.2 218.793C1063.11 215.399 1068.63 213.177 1073.69 210.06C1075.79 208.023 1077.89 205.987 1079.96 203.95C1086.34 194.599 1095.02 194.599 1104.52 197.901H1104.43C1112.57 204.166 1118.5 213.424 1129.17 216.355V216.294C1138.74 221.849 1149.39 222.281 1160.03 222.774C1159.23 233.915 1142.78 249.499 1131.24 249.098C1120.04 248.728 1109.36 251.289 1098.47 252.894C1094.4 254.097 1090.32 255.301 1086.25 256.504C1084.25 254.282 1082.24 252.091 1079.99 249.592C1075.02 249.993 1073.38 257.214 1067.61 256.257C1072.52 246.043 1066.53 244.129 1058.23 244.037C1053.48 245.395 1051.88 241.753 1049.87 238.76C1050.36 233.483 1048.11 229.996 1043.08 228.298L1043.14 228.36Z" fill="#8F7342"/>
<path d="M904.04 197.716C905.12 203.981 916.044 202.037 914.686 208.857C913.266 215.954 919.098 218.423 921.598 222.373C905.428 243.944 864.419 236.415 852.477 212.467C848.465 204.413 843.682 192.501 851.582 182.286C864.45 174.078 876.916 176.053 893.641 189.045C897.22 191.822 900.615 194.815 904.071 197.716H904.04Z" fill="#6A5A3F"/>
<path d="M567.69 105.137C571.455 105.476 573.491 107.513 573.862 111.278C566.641 113.222 567.814 117.234 569.943 122.943C576.114 139.453 573.43 144.514 556.458 148.341C549.762 149.853 546.275 154.729 541.893 158.833C535.506 164.727 535.567 164.789 526.557 164.727C521.157 157.599 530.538 154.111 530.661 148.371C540.844 145.069 535.166 136.182 537.141 129.979C540.103 129.732 543.097 129.516 546.985 129.177C547.818 123.159 548.62 117.357 549.422 111.556C556.797 113.099 561.488 106.988 567.69 105.168V105.137Z" fill="#434038"/>
<path d="M431.979 179.169C420.623 175.033 434.602 171.083 432.071 167.01C434.077 167.195 436.052 167.411 438.027 167.596C439.57 174.478 445.433 172.595 449.907 173.429C446.482 183.427 437.996 177.471 431.948 179.138L431.979 179.169Z" fill="#4B4B52"/>
<path d="M1052.12 237.835C1054.19 239.902 1056.23 242.001 1058.3 244.068C1048.42 244.871 1039.69 240.612 1030.59 237.865C1036.11 236.847 1043.64 240.859 1045.92 231.724C1052.16 229.564 1049.44 236.415 1052.12 237.835Z" fill="#685A3E"/>
<path d="M857.906 259.282C857.937 257.307 857.999 255.332 858.03 253.357C865.281 246.846 873.736 247.247 882.438 249.222C887.128 263.14 873.366 254.839 870.218 259.344L869.787 259.714C865.806 259.56 861.856 259.406 857.906 259.252V259.282Z" fill="#8E754D"/>
<path d="M870.25 259.344C873.212 254.838 881.883 258.047 882.47 250.302C898.454 242.093 915.21 245.642 931.811 247C932.829 256.258 928.787 259.868 919.437 259.59C903.052 259.066 886.635 259.405 870.25 259.344Z" fill="#9A8044"/>
<path d="M931.811 247C915.272 246.722 898.732 246.29 882.47 250.302C874.447 252.308 866.393 253.974 858.062 253.357L857.63 253.264C852.384 249.654 853.803 246.537 858.339 243.667C866.362 243.173 874.478 237.865 882.439 243.976C903.237 243.976 924.066 243.852 944.864 244.192C947.425 244.222 955.726 241.723 950.233 250.148C944.802 244.901 938.014 247.617 931.811 247.031V247Z" fill="#685A3E"/>
<path d="M1098.5 252.893C1102.24 243.203 1110.72 247.184 1116.99 247.338C1136.61 247.832 1151.08 240.425 1160.06 222.774C1162.1 222.712 1164.14 222.434 1166.14 222.619C1167.59 222.743 1168.95 223.514 1170.15 223.915C1172.22 227.866 1169.35 231.044 1169.26 234.47C1164.26 234.809 1158 233.698 1155.16 238.45C1144.51 256.195 1124.76 248.974 1110.04 255.393C1107.11 256.658 1102.39 253.85 1098.47 252.893H1098.5Z" fill="#7E714E"/>
<path d="M882.437 243.945C874.198 244.994 865.959 246.074 857.72 247.123C849.481 247.123 841.273 254.345 833.034 247.123C829.948 247.123 826.863 247.123 823.777 247.123C818.531 246.63 812.792 248.666 808.379 244.068C833.682 239.532 859.078 237.001 886.449 238.205C884.505 240.982 883.455 242.494 882.406 243.976L882.437 243.945Z" fill="#4D4633"/>
<path d="M833.066 247.123C841.305 249.715 849.514 241.383 857.752 247.123C855.099 249.128 857.197 251.196 857.629 253.264C849.514 250.918 838.898 258.664 833.066 247.123Z" fill="#574F41"/>
<path d="M1052.12 237.835C1050.06 235.798 1047.99 233.761 1045.92 231.725C1045 230.614 1044.07 229.472 1043.14 228.361C1047.06 227.898 1050.95 227.466 1055.55 226.941C1054.35 230.737 1053.23 234.286 1052.12 237.835Z" fill="#736444"/>
</svg>
