<svg width="623" height="158" viewBox="0 0 623 158" fill="none" xmlns="http://www.w3.org/2000/svg">
<mask id="path-1-inside-1_30_3584" fill="white">
<path d="M241.923 124.644H258.149L273.828 140.444L289.507 156.244H272.321H255.134L240.414 141.514C232.319 133.413 225.696 126.303 225.696 125.714C225.696 125.125 232.998 124.644 241.923 124.644Z"/>
<path fill-rule="evenodd" clip-rule="evenodd" d="M13.5644 142.639L27.0447 128.154L84.0376 128.156H141.031L146.061 122.889L151.091 117.622H175.732H200.376L220.446 137.811L240.516 158L120.217 158C54.0509 158 -0.0454774 157.802 2.8689e-05 157.561C0.0472851 157.321 6.15036 150.604 13.5644 142.639ZM29.8346 133.605L21.0222 142.73C16.1758 147.749 12.201 152.054 12.1888 152.294C12.1783 152.535 60.7858 152.733 120.206 152.733H228.245L213.445 137.811L198.645 122.889H176.352C154.119 122.889 154.042 122.903 148.128 128.112L142.198 133.334L86.0154 133.47L29.8346 133.605Z"/>
<path fill-rule="evenodd" clip-rule="evenodd" d="M96.6848 56.5482L153.081 0L242.444 0L331.806 0L336.836 5.26667L341.867 10.5333L441.851 10.5333L541.835 10.5333L546.865 5.26667L551.895 0L575.633 0.0175727L599.372 0.0333774L611.186 11.4041L623 22.773V63.1754V103.578L384.436 103.578L145.872 103.578L139.84 109.859L133.809 116.141L111.214 115.868L88.6198 115.595C63.7665 115.293 42.7233 114.608 41.8587 114.072C40.9941 113.535 65.6654 87.6514 96.6848 56.5482ZM156.562 5.31231L104.536 56.6325C64.2128 96.4081 53.188 108.198 55.5298 109.053C57.1908 109.659 75.0151 110.295 95.1411 110.465L131.735 110.772L138.085 104.554L144.433 98.3357L381.023 98.2988L617.611 98.2619L618.119 62.2467L618.624 26.2333L608.123 15.8228L597.622 5.41239L576.027 5.14553L554.433 4.87696L548.815 10.3385L543.198 15.8L441.767 15.7719L340.337 15.7438L334.411 10.5053L328.486 5.26667L242.523 5.28949L156.562 5.31231Z"/>
<path d="M291.882 125.556C292.38 125.054 299.565 124.644 307.849 124.644H322.908L338.587 140.444L354.265 156.244H337.788H321.312L306.143 141.356C297.799 133.166 291.381 126.056 291.882 125.556Z"/>
<path d="M372.279 124.809L387.593 124.513L403.309 140.38L419.024 156.244H402.395H385.766L371.365 141.724C363.445 133.738 356.964 126.732 356.964 126.156C356.964 125.578 363.857 124.973 372.279 124.809Z"/>
<path fill-rule="evenodd" clip-rule="evenodd" d="M518.457 122.889L623 122.889V140.444V158H535.892H448.785L431.349 140.444L413.913 122.889H518.457ZM617.749 128.156H523.237C467.905 128.156 428.724 128.816 428.724 129.746C428.724 130.622 434.333 136.547 441.189 142.913L453.653 154.489H535.702H617.749V141.322V128.156Z"/>
</mask>
<path d="M241.923 124.644H258.149L273.828 140.444L289.507 156.244H272.321H255.134L240.414 141.514C232.319 133.413 225.696 126.303 225.696 125.714C225.696 125.125 232.998 124.644 241.923 124.644Z" fill="url(#paint0_linear_30_3584)"/>
<path fill-rule="evenodd" clip-rule="evenodd" d="M13.5644 142.639L27.0447 128.154L84.0376 128.156H141.031L146.061 122.889L151.091 117.622H175.732H200.376L220.446 137.811L240.516 158L120.217 158C54.0509 158 -0.0454774 157.802 2.8689e-05 157.561C0.0472851 157.321 6.15036 150.604 13.5644 142.639ZM29.8346 133.605L21.0222 142.73C16.1758 147.749 12.201 152.054 12.1888 152.294C12.1783 152.535 60.7858 152.733 120.206 152.733H228.245L213.445 137.811L198.645 122.889H176.352C154.119 122.889 154.042 122.903 148.128 128.112L142.198 133.334L86.0154 133.47L29.8346 133.605Z" fill="url(#paint1_linear_30_3584)"/>
<path fill-rule="evenodd" clip-rule="evenodd" d="M96.6848 56.5482L153.081 0L242.444 0L331.806 0L336.836 5.26667L341.867 10.5333L441.851 10.5333L541.835 10.5333L546.865 5.26667L551.895 0L575.633 0.0175727L599.372 0.0333774L611.186 11.4041L623 22.773V63.1754V103.578L384.436 103.578L145.872 103.578L139.84 109.859L133.809 116.141L111.214 115.868L88.6198 115.595C63.7665 115.293 42.7233 114.608 41.8587 114.072C40.9941 113.535 65.6654 87.6514 96.6848 56.5482ZM156.562 5.31231L104.536 56.6325C64.2128 96.4081 53.188 108.198 55.5298 109.053C57.1908 109.659 75.0151 110.295 95.1411 110.465L131.735 110.772L138.085 104.554L144.433 98.3357L381.023 98.2988L617.611 98.2619L618.119 62.2467L618.624 26.2333L608.123 15.8228L597.622 5.41239L576.027 5.14553L554.433 4.87696L548.815 10.3385L543.198 15.8L441.767 15.7719L340.337 15.7438L334.411 10.5053L328.486 5.26667L242.523 5.28949L156.562 5.31231Z" fill="url(#paint2_linear_30_3584)"/>
<path d="M291.882 125.556C292.38 125.054 299.565 124.644 307.849 124.644H322.908L338.587 140.444L354.265 156.244H337.788H321.312L306.143 141.356C297.799 133.166 291.381 126.056 291.882 125.556Z" fill="url(#paint3_linear_30_3584)"/>
<path d="M372.279 124.809L387.593 124.513L403.309 140.38L419.024 156.244H402.395H385.766L371.365 141.724C363.445 133.738 356.964 126.732 356.964 126.156C356.964 125.578 363.857 124.973 372.279 124.809Z" fill="url(#paint4_linear_30_3584)"/>
<path fill-rule="evenodd" clip-rule="evenodd" d="M518.457 122.889L623 122.889V140.444V158H535.892H448.785L431.349 140.444L413.913 122.889H518.457ZM617.749 128.156H523.237C467.905 128.156 428.724 128.816 428.724 129.746C428.724 130.622 434.333 136.547 441.189 142.913L453.653 154.489H535.702H617.749V141.322V128.156Z" fill="url(#paint5_linear_30_3584)"/>
<path d="M241.923 124.644H258.149L273.828 140.444L289.507 156.244H272.321H255.134L240.414 141.514C232.319 133.413 225.696 126.303 225.696 125.714C225.696 125.125 232.998 124.644 241.923 124.644Z" stroke="#D7CC00" stroke-width="2" mask="url(#path-1-inside-1_30_3584)"/>
<path fill-rule="evenodd" clip-rule="evenodd" d="M13.5644 142.639L27.0447 128.154L84.0376 128.156H141.031L146.061 122.889L151.091 117.622H175.732H200.376L220.446 137.811L240.516 158L120.217 158C54.0509 158 -0.0454774 157.802 2.8689e-05 157.561C0.0472851 157.321 6.15036 150.604 13.5644 142.639ZM29.8346 133.605L21.0222 142.73C16.1758 147.749 12.201 152.054 12.1888 152.294C12.1783 152.535 60.7858 152.733 120.206 152.733H228.245L213.445 137.811L198.645 122.889H176.352C154.119 122.889 154.042 122.903 148.128 128.112L142.198 133.334L86.0154 133.47L29.8346 133.605Z" stroke="#D7CC00" stroke-width="2" mask="url(#path-1-inside-1_30_3584)"/>
<path fill-rule="evenodd" clip-rule="evenodd" d="M96.6848 56.5482L153.081 0L242.444 0L331.806 0L336.836 5.26667L341.867 10.5333L441.851 10.5333L541.835 10.5333L546.865 5.26667L551.895 0L575.633 0.0175727L599.372 0.0333774L611.186 11.4041L623 22.773V63.1754V103.578L384.436 103.578L145.872 103.578L139.84 109.859L133.809 116.141L111.214 115.868L88.6198 115.595C63.7665 115.293 42.7233 114.608 41.8587 114.072C40.9941 113.535 65.6654 87.6514 96.6848 56.5482ZM156.562 5.31231L104.536 56.6325C64.2128 96.4081 53.188 108.198 55.5298 109.053C57.1908 109.659 75.0151 110.295 95.1411 110.465L131.735 110.772L138.085 104.554L144.433 98.3357L381.023 98.2988L617.611 98.2619L618.119 62.2467L618.624 26.2333L608.123 15.8228L597.622 5.41239L576.027 5.14553L554.433 4.87696L548.815 10.3385L543.198 15.8L441.767 15.7719L340.337 15.7438L334.411 10.5053L328.486 5.26667L242.523 5.28949L156.562 5.31231Z" stroke="#D7CC00" stroke-width="2" mask="url(#path-1-inside-1_30_3584)"/>
<path d="M291.882 125.556C292.38 125.054 299.565 124.644 307.849 124.644H322.908L338.587 140.444L354.265 156.244H337.788H321.312L306.143 141.356C297.799 133.166 291.381 126.056 291.882 125.556Z" stroke="#D7CC00" stroke-width="2" mask="url(#path-1-inside-1_30_3584)"/>
<path d="M372.279 124.809L387.593 124.513L403.309 140.38L419.024 156.244H402.395H385.766L371.365 141.724C363.445 133.738 356.964 126.732 356.964 126.156C356.964 125.578 363.857 124.973 372.279 124.809Z" stroke="#D7CC00" stroke-width="2" mask="url(#path-1-inside-1_30_3584)"/>
<path fill-rule="evenodd" clip-rule="evenodd" d="M518.457 122.889L623 122.889V140.444V158H535.892H448.785L431.349 140.444L413.913 122.889H518.457ZM617.749 128.156H523.237C467.905 128.156 428.724 128.816 428.724 129.746C428.724 130.622 434.333 136.547 441.189 142.913L453.653 154.489H535.702H617.749V141.322V128.156Z" stroke="#D7CC00" stroke-width="2" mask="url(#path-1-inside-1_30_3584)"/>
<path d="M191.472 51.64H187.44V50.728C187.44 50.248 187.408 49.944 187.344 49.816C187.312 49.656 187.152 49.464 186.864 49.24C186.576 49.016 186.352 48.888 186.192 48.856C186.032 48.792 185.664 48.76 185.088 48.76H173.184C172.608 48.76 172.24 48.792 172.08 48.856C171.92 48.888 171.696 49.016 171.408 49.24C171.12 49.464 170.944 49.656 170.88 49.816C170.848 49.944 170.832 50.248 170.832 50.728V73.672C170.832 74.152 170.848 74.472 170.88 74.632C170.944 74.76 171.12 74.936 171.408 75.16C171.696 75.384 171.92 75.528 172.08 75.592C172.24 75.624 172.608 75.64 173.184 75.64H185.088C185.664 75.64 186.032 75.624 186.192 75.592C186.352 75.528 186.576 75.384 186.864 75.16C187.152 74.936 187.312 74.76 187.344 74.632C187.408 74.472 187.44 74.152 187.44 73.672V72.76H191.472V74.68C191.472 75.64 191.088 76.44 190.32 77.08L189.168 78.04C188.4 78.68 187.632 79 186.864 79H171.408C170.64 79 169.872 78.68 169.104 78.04L167.952 77.08C167.184 76.44 166.8 75.64 166.8 74.68V49.72C166.8 48.76 167.184 47.96 167.952 47.32L169.104 46.36C169.872 45.72 170.64 45.4 171.408 45.4H186.864C187.632 45.4 188.4 45.72 189.168 46.36L190.32 47.32C191.088 47.96 191.472 48.76 191.472 49.72V51.64ZM207.076 45.4H224.644C225.412 45.4 226.18 45.72 226.948 46.36L228.1 47.32C228.868 47.96 229.252 48.76 229.252 49.72V74.68C229.252 75.64 228.868 76.44 228.1 77.08L226.948 78.04C226.18 78.68 225.412 79 224.644 79H207.076C206.308 79 205.54 78.68 204.772 78.04L203.62 77.08C202.852 76.44 202.468 75.64 202.468 74.68V49.72C202.468 48.76 202.852 47.96 203.62 47.32L204.772 46.36C205.54 45.72 206.308 45.4 207.076 45.4ZM225.22 73.672V50.728C225.22 50.248 225.188 49.944 225.124 49.816C225.092 49.656 224.932 49.464 224.644 49.24C224.356 49.016 224.132 48.888 223.972 48.856C223.812 48.792 223.444 48.76 222.868 48.76H208.852C208.276 48.76 207.908 48.792 207.748 48.856C207.588 48.888 207.364 49.016 207.076 49.24C206.788 49.464 206.612 49.656 206.548 49.816C206.516 49.944 206.5 50.248 206.5 50.728V73.672C206.5 74.152 206.516 74.472 206.548 74.632C206.612 74.76 206.788 74.936 207.076 75.16C207.364 75.384 207.588 75.528 207.748 75.592C207.908 75.624 208.276 75.64 208.852 75.64H222.868C223.444 75.64 223.812 75.624 223.972 75.592C224.132 75.528 224.356 75.384 224.644 75.16C224.932 74.936 225.092 74.76 225.124 74.632C225.188 74.472 225.22 74.152 225.22 73.672ZM242.683 79V45.4H260.443C261.275 45.4 262.043 45.72 262.747 46.36L267.355 50.2C268.123 50.84 268.507 51.48 268.507 52.12V72.28C268.507 72.92 268.123 73.56 267.355 74.2L262.747 78.04C262.043 78.68 261.275 79 260.443 79H242.683ZM264.475 70.84V53.56C264.475 52.92 264.091 52.28 263.323 51.64L261.019 49.72C260.315 49.08 259.547 48.76 258.715 48.76H246.715V75.64H258.715C259.547 75.64 260.315 75.32 261.019 74.68L263.323 72.76C264.091 72.12 264.475 71.48 264.475 70.84ZM280.742 45.4H284.774V79H280.742V45.4ZM319.823 72.76L319.967 72.712C319.743 71.944 319.631 71.176 319.631 70.408V45.4H323.663V79H319.631L302.063 52.024L301.919 52.072C302.143 52.84 302.255 53.608 302.255 54.376V79H298.223V45.4H302.255L319.823 72.76ZM361.701 51.64H357.669V50.728C357.669 50.248 357.637 49.944 357.573 49.816C357.541 49.656 357.381 49.464 357.093 49.24C356.805 49.016 356.581 48.888 356.421 48.856C356.261 48.792 355.893 48.76 355.317 48.76H343.509C342.933 48.76 342.565 48.792 342.405 48.856C342.245 48.888 342.021 49.016 341.733 49.24C341.445 49.464 341.269 49.656 341.205 49.816C341.173 49.944 341.157 50.248 341.157 50.728V73.672C341.157 74.152 341.173 74.472 341.205 74.632C341.269 74.76 341.445 74.936 341.733 75.16C342.021 75.384 342.245 75.528 342.405 75.592C342.565 75.624 342.933 75.64 343.509 75.64H355.317C355.893 75.64 356.261 75.624 356.421 75.592C356.581 75.528 356.805 75.384 357.093 75.16C357.381 74.936 357.541 74.76 357.573 74.632C357.637 74.472 357.669 74.152 357.669 73.672V65.08H350.373V61.72H361.701V74.68C361.701 75.64 361.317 76.44 360.549 77.08L359.397 78.04C358.629 78.68 357.861 79 357.093 79H341.733C340.965 79 340.197 78.68 339.429 78.04L338.277 77.08C337.509 76.44 337.125 75.64 337.125 74.68V49.72C337.125 48.76 337.509 47.96 338.277 47.32L339.429 46.36C340.197 45.72 340.965 45.4 341.733 45.4H357.093C357.861 45.4 358.629 45.72 359.397 46.36L360.549 47.32C361.317 47.96 361.701 48.76 361.701 49.72V51.64ZM411.262 75.64V79H389.758V45.4H411.262V48.76H393.79V60.28H408.574V63.64H393.79V75.64H411.262ZM433.104 76.024H433.296C433.296 75.832 433.392 75.416 433.584 74.776L442.704 45.4H446.976L435.84 79H430.56L419.424 45.4H423.696L432.816 74.776C433.008 75.416 433.104 75.832 433.104 76.024ZM477.817 75.64V79H456.313V45.4H477.817V48.76H460.345V60.28H475.129V63.64H460.345V75.64H477.817ZM511.659 72.76L511.803 72.712C511.579 71.944 511.467 71.176 511.467 70.408V45.4H515.499V79H511.467L493.899 52.024L493.755 52.072C493.979 52.84 494.091 53.608 494.091 54.376V79H490.059V45.4H494.091L511.659 72.76ZM523.874 45.4H549.218V48.76H538.562V79H534.53V48.76H523.874V45.4ZM572.959 63.64H561.487C560.719 63.64 559.951 63.32 559.183 62.68L557.887 61.576C557.215 61.032 556.879 60.392 556.879 59.656V49.72C556.879 48.76 557.263 47.96 558.031 47.32L559.183 46.36C559.951 45.72 560.719 45.4 561.487 45.4H574.255C575.023 45.4 575.791 45.72 576.559 46.36L577.711 47.32C578.479 47.96 578.863 48.76 578.863 49.72V51.64H574.831V50.728C574.831 50.248 574.799 49.944 574.735 49.816C574.703 49.656 574.543 49.464 574.255 49.24C573.967 49.016 573.743 48.888 573.583 48.856C573.423 48.792 573.055 48.76 572.479 48.76H563.263C562.687 48.76 562.319 48.792 562.159 48.856C561.999 48.888 561.775 49.016 561.487 49.24C561.199 49.464 561.023 49.656 560.959 49.816C560.927 49.944 560.911 50.248 560.911 50.728V58.312C560.911 58.792 560.927 59.112 560.959 59.272C561.023 59.4 561.199 59.576 561.487 59.8C561.775 60.024 561.999 60.168 562.159 60.232C562.319 60.264 562.687 60.28 563.263 60.28H574.735C575.503 60.28 576.271 60.6 577.039 61.24L578.191 62.2C578.959 62.84 579.343 63.64 579.343 64.6V74.68C579.343 75.64 578.959 76.44 578.191 77.08L577.039 78.04C576.271 78.68 575.503 79 574.735 79H561.007C560.239 79 559.471 78.68 558.703 78.04L557.551 77.08C556.783 76.44 556.399 75.64 556.399 74.68V72.76H560.431V73.672C560.431 74.152 560.447 74.472 560.479 74.632C560.543 74.76 560.719 74.936 561.007 75.16C561.295 75.384 561.519 75.528 561.679 75.592C561.839 75.624 562.207 75.64 562.783 75.64H572.959C573.535 75.64 573.903 75.624 574.063 75.592C574.223 75.528 574.447 75.384 574.735 75.16C575.023 74.936 575.183 74.76 575.215 74.632C575.279 74.472 575.311 74.152 575.311 73.672V65.608C575.311 65.128 575.279 64.824 575.215 64.696C575.183 64.536 575.023 64.344 574.735 64.12C574.447 63.896 574.223 63.768 574.063 63.736C573.903 63.672 573.535 63.64 572.959 63.64Z" fill="white"/>
<defs>
<linearGradient id="paint0_linear_30_3584" x1="311.5" y1="0" x2="311.5" y2="158" gradientUnits="userSpaceOnUse">
<stop stop-color="#C51C07"/>
<stop offset="1" stop-color="#B56210"/>
</linearGradient>
<linearGradient id="paint1_linear_30_3584" x1="311.5" y1="0" x2="311.5" y2="158" gradientUnits="userSpaceOnUse">
<stop stop-color="#C51C07"/>
<stop offset="1" stop-color="#B56210"/>
</linearGradient>
<linearGradient id="paint2_linear_30_3584" x1="311.5" y1="0" x2="311.5" y2="158" gradientUnits="userSpaceOnUse">
<stop stop-color="#C51C07"/>
<stop offset="1" stop-color="#B56210"/>
</linearGradient>
<linearGradient id="paint3_linear_30_3584" x1="311.5" y1="0" x2="311.5" y2="158" gradientUnits="userSpaceOnUse">
<stop stop-color="#C51C07"/>
<stop offset="1" stop-color="#B56210"/>
</linearGradient>
<linearGradient id="paint4_linear_30_3584" x1="311.5" y1="0" x2="311.5" y2="158" gradientUnits="userSpaceOnUse">
<stop stop-color="#C51C07"/>
<stop offset="1" stop-color="#B56210"/>
</linearGradient>
<linearGradient id="paint5_linear_30_3584" x1="311.5" y1="0" x2="311.5" y2="158" gradientUnits="userSpaceOnUse">
<stop stop-color="#C51C07"/>
<stop offset="1" stop-color="#B56210"/>
</linearGradient>
</defs>
</svg>
