<svg width="1549" height="1024" viewBox="0 0 1549 1024" fill="none" xmlns="http://www.w3.org/2000/svg">
<g clip-path="url(#clip0_163_43)">
<rect width="1549" height="1024" fill="url(#paint0_linear_163_43)"/>
<ellipse cx="669.5" cy="937.624" rx="226.5" ry="225.624" fill="url(#paint1_linear_163_43)"/>
<path d="M770.942 744.339C784.042 748.471 794.547 756.88 805.156 765.102C823.737 779.49 841.176 794.979 853.549 815.367C847.363 820.184 843.729 815.97 839.66 811.9C846.802 822.219 846.927 835.548 854.255 845.93C853.861 847.466 852.823 848.463 851.515 849.252C842.878 853.632 839.39 862.228 834.74 869.869C833.723 869.869 832.83 869.557 832.02 868.955C829.031 861.377 825.107 854.068 824.837 845.639C824.775 843.936 824.65 841.943 823.322 840.781C815.432 834.012 818.36 827.513 823.737 821.638C823.633 815.264 819.356 810.924 818.297 804.384C818.983 813.001 815.1 816.821 807.917 817.776C805.218 818.129 801.44 816.779 799.986 819.084C791.931 831.998 778.063 830.171 766.063 833.098C763.115 832.725 761.247 831.001 760.126 828.344C760.188 817.049 761.787 816.094 776.589 818.399C781.364 817.298 782.88 814.101 782.298 809.533C781.966 800.19 779.62 791.47 774.43 783.643C747.399 776.023 723.96 783.954 714.597 803.865C711.151 809.575 710.84 816.925 705.38 821.617C701.995 823.029 699.068 826.143 693.961 824.108C690.286 817.921 691.221 810.135 690.183 802.889C689.643 799.111 688.916 795.955 685.2 794.709C675.11 791.283 671.311 782.625 668.301 773.801C666.349 768.092 663.09 764.292 657.983 761.614C647.125 755.925 635.457 753.039 623.333 752.458C616.939 752.146 611.188 754.741 607.43 760.43C601.306 769.69 592.669 770.417 582.995 767.822C580.047 764.52 578.884 760.908 580.939 756.693C590.053 750.9 600.475 746.852 606.787 737.26C607.513 736.159 608.842 735.163 610.129 734.976C624.828 732.796 639.09 726.339 654.433 730.283C665.228 734.934 676.045 735.059 686.923 730.553C695.207 728.332 703.47 730.553 711.462 730.616C731.102 730.719 744.368 743.447 760.728 749.634C764.153 750.091 767.205 749.634 768.97 746.125C769.427 745.315 770.091 744.734 770.921 744.36L770.942 744.339Z" fill="#FCE9AC"/>
<path d="M762.305 753.042C750.824 751.983 741.752 746.751 734.527 736.266C727.365 736.266 717.939 739.007 712.043 735.622C703.552 730.723 695.642 733.38 687.566 732.3C687.089 732.238 686.611 732.197 686.113 732.134C676.002 730.64 665.913 730.66 655.802 732.134C655.325 732.197 654.847 732.238 654.349 732.28C640.709 730.453 628.066 737.595 614.488 736.702C610.71 736.453 608.488 739.609 606.599 742.64C600.869 751.879 591.921 755.637 581.686 757.195C580.835 757.88 579.984 757.859 579.133 757.195C576.87 750.011 586.046 749.492 586.212 744.446C582.953 746.751 579.07 748.744 574.773 744.903C572.302 738.778 579.091 738.965 580.98 735.809C586.046 729.601 594.018 730.868 600.454 728.21H600.433C613.056 719.822 628.087 720.487 642.079 718.12C656.612 715.649 671.622 716.023 686.404 717.933C693.794 722.335 702.389 719.864 710.175 722.085C711.15 722.376 712.022 722.874 712.728 723.601C717.213 726.923 722.797 728.48 727.863 728.626C733.427 728.771 738.762 729.913 744.243 730.203C748.271 729.892 751.634 731.013 753.835 734.647C753.876 735.186 753.959 735.726 754.084 736.266C756.409 740.398 761.786 741.291 764.007 745.568C765.025 748.433 764.319 750.904 762.284 753.084L762.305 753.042Z" fill="#FAECB2"/>
<path d="M861.562 823.777C861.686 825.105 861.832 826.434 861.956 827.763C862.891 833.722 870.8 837.77 866.773 845.12C862.621 847.84 858.469 850.602 853.673 846.366C847.465 844.061 845.182 840.594 844.496 833.057C843.604 823.154 835.777 814.537 834.926 802.807C843.5 804.011 843.126 818.461 853.569 815.326C856.247 818.129 858.904 820.953 861.583 823.756L861.562 823.777Z" fill="#FBECB8"/>
<path d="M878.734 860.818C883.364 865.594 882.741 872.798 886.706 877.885C886.831 879.151 886.955 880.418 887.08 881.685C886.955 883.096 886.81 884.529 886.685 885.941C877.26 887.851 876.201 881.373 875.537 874.688C875.059 869.746 873.627 864.493 878.734 860.818Z" fill="#FDE899"/>
<path d="M887.16 889.616C890.503 893.228 891.188 897.713 891.292 902.384C895.444 921.174 895.153 940.068 892.703 959.024C891.707 959.522 890.648 959.647 889.569 959.398C885.52 956.491 888.053 951.591 885.79 947.356C883.506 944.2 878.15 944.221 875.347 940.546C874.766 939.757 874.309 938.885 873.977 937.95C872.15 929.085 874.164 920.552 877.091 912.08C875.264 914.842 877.693 919.638 872.005 919.887C866.856 917.894 862.123 915.049 856.746 913.472C851.784 912.018 848.358 908.675 848.857 902.8C849.417 901.948 850.144 901.305 851.037 900.827C860.109 901.533 866.69 898.128 870.074 889.346C881.451 891.235 885.375 898.19 885.001 915.963C884.96 910.191 885.582 904.44 883.859 898.668C882.904 895.45 883.569 891.733 887.14 889.636L887.16 889.616Z" fill="#F7E5A2"/>
<path d="M887.163 889.615C885.979 901.678 888.263 913.969 884.485 926.219C884.09 912.267 884.381 898.273 870.388 890.03C869.122 889.096 868.686 887.767 868.644 886.251C869.329 881.954 872.236 877.614 868.291 873.462C867.482 872.382 866.755 871.22 866.091 870.057C864.886 867.088 862.561 864.804 861.129 861.959C859.053 858.866 855.087 856.727 855.959 852.097C856.208 851.101 856.644 850.187 857.288 849.378C860.111 846.803 863.62 846.388 867.212 846.305C876.409 846.928 874.146 856.644 878.775 860.901V860.838C879.813 869.725 874.146 880.729 886.727 885.982C886.893 887.207 887.038 888.411 887.204 889.636L887.163 889.615Z" fill="#FAEBB1"/>
<path d="M583.765 767.575C592.816 765.416 602.636 765.914 607.805 754.848C609.591 751.007 616.421 748.744 622.442 748.806C638.573 748.972 653.209 753.561 666.642 762.364C667.514 762.924 669.008 763.443 669.091 764.129C671.209 780.614 681.236 791.016 696.973 797.058C690.122 806.089 699.547 813.958 694.233 821.516C698.759 823.966 700.731 818.734 704.136 819.481C707.54 822.242 708.495 826.395 707.001 829.779C702.122 840.845 705.713 850.562 710.613 860.3C711.111 862.563 711.028 864.784 710.135 866.944C709.139 868.999 707.54 870.411 705.423 871.2C700.004 872.549 697.451 869.83 695.52 865.054C693.651 860.424 694.15 854.86 690.33 851.04C682.005 849.773 678.06 860.092 669.756 858.41C660.932 853.967 652.877 850.105 641.853 854.465C630.746 858.846 611.771 841.593 619.639 825.897C624.352 820.934 630.725 820.561 636.829 820.332C644.365 820.062 649.784 816.387 654.725 811.342C656.718 809.307 658.752 806.961 657.528 804.075C653.542 794.753 653.064 784.995 654.268 774.987C645.943 772.703 639.57 768.987 633.59 764.149C627.528 759.249 620.345 759.187 613.328 762.8C612.248 763.755 611.086 764.585 609.882 765.333C606.29 766.786 603.778 769.921 600.352 771.645C599.439 772.06 598.484 772.33 597.487 772.496C594.436 772.87 591.404 773.264 588.353 772.537C586.194 772.143 584.408 771.25 583.453 769.132C583.536 768.613 583.64 768.115 583.723 767.596L583.765 767.575Z" fill="#FDE6A1"/>
<path d="M708.329 861.006C701.52 852.058 696.475 843.109 703.305 831.482C705.132 828.389 703.949 823.53 704.136 819.461C708.329 814.602 705.879 806.464 712.44 802.789C717.111 798.74 722.073 800.422 727.014 802.083C731.934 805.508 737.54 806.671 743.415 806.9C756.39 807.398 758.134 808.955 760.231 822.118C760.563 824.174 760.979 826.125 762.266 827.807C763.636 829.219 764.985 830.652 766.356 832.063C767.477 833.33 767.477 834.68 766.625 836.071C760.231 837.586 763.325 842.175 763.968 845.434C765.38 852.411 768.681 859.283 763.553 866.093C762.037 867.526 760.314 868.356 758.176 867.879C754.19 864.764 754.19 859.449 751.429 855.67C748.439 851.601 746.612 845.538 739.45 847.614C733.678 852.452 734.176 859.262 733.657 865.761C732.64 870.723 728.862 871.553 724.564 871.678C723.775 870.723 724.107 873.36 724.502 872.031C727.803 873.111 728.177 875.208 726.599 878.011C719.748 879.547 714.848 876.744 711.256 871.076C710.634 867.629 711.111 863.83 708.288 861.006H708.329Z" fill="#F4D582"/>
<path d="M766.479 836.049C766.437 834.72 766.417 833.371 766.375 832.042C767.932 826.146 772.811 827.786 776.61 827.89C784.395 828.076 790.81 826.561 794.319 818.547C796.167 814.332 799.966 812.276 804.554 813.937C809.724 815.827 813.357 814.56 815.557 809.66C818.194 803.805 811.945 803.618 809.433 800.961C811.841 797.161 815.101 799.674 818.028 798.656C821.287 804.781 824.132 810.532 827.329 816.076C832.062 824.298 824.215 827.142 820.872 830.07C820.748 836.755 826.374 835.302 828.616 839.683C825.709 849.275 833.951 858.535 832.913 869.269C832.581 869.601 832.228 869.954 831.896 870.307C830.609 870.868 829.28 871.013 827.91 870.577C826.228 870.016 825.336 868.501 824.111 867.442C820.955 876.557 825.938 883.159 831.045 889.72C832.457 893.125 834.097 896.53 831.626 900.163C826.187 902.593 823.363 897.132 819.107 895.99C813.959 890.903 808.852 885.92 808.893 877.761C808.893 872.529 804.347 872.549 800.672 871.906C796.021 870.473 795.689 865.013 792.015 862.667C788.174 860.279 783.254 860.756 779.558 858.12C775.074 854.922 769.967 851.849 774.015 844.998C781.759 839.6 786.783 849.171 793.842 848.61C792.596 841.759 788.631 837.814 782.319 836.61C778.126 837.44 778.229 841.53 775.842 843.358C771.441 846.887 770.942 842.299 769.24 840.202C768.493 839.205 767.496 838.395 766.853 837.316C766.728 836.921 766.624 836.506 766.52 836.112L766.479 836.049Z" fill="#FBECB4"/>
<path d="M556.587 748.766C560.116 748.808 563.625 748.849 567.154 748.87C568.296 750.614 566.49 751.901 566.407 753.583C570.995 754.123 576.081 752.919 579.611 757.196C580.317 757.196 581.002 757.196 581.708 757.196C582.393 760.642 583.078 764.11 583.784 767.556V767.577C582.143 775.155 578.469 782.007 577.701 790.021C576.912 798.264 563.563 806.797 555.134 806.091C549.487 805.613 545.293 803.288 544.857 796.914C547.888 790.914 547.473 783.688 551.418 777.979C553.556 776.38 555.902 774.947 556.649 770.94C550.878 775.633 543.736 770.401 538.442 775.321C536.262 776.546 533.999 777.377 531.446 777.148C530.47 776.92 529.639 776.442 528.934 775.736C526.65 767.577 534.788 765.895 537.985 761.14C538.089 760.559 538.131 759.978 538.172 759.396C544.317 755.846 550.442 752.275 556.587 748.725V748.766Z" fill="#FCEAB0"/>
<path d="M727.013 804.946C722.155 804.22 717.318 803.514 712.46 802.787C711.111 796.434 715.678 792.842 719.768 790.371C730.709 783.769 740.404 772.91 755.476 777.748C756.12 777.955 756.847 777.81 757.532 777.914C764.071 778.89 772.002 774.986 776.881 781.63C783.213 790.247 786.016 800.296 785.185 811.154C781.365 812.275 779.476 809.597 777.379 807.272C776.569 805.943 776.071 804.51 775.864 802.974C775.594 798.323 776.652 792.987 770.362 791.243C765.525 792.759 766.085 797.14 764.756 800.545C761.954 807.77 756.224 808.891 751.781 802.559C747.151 795.956 743.518 796.434 738.992 802.247C735.837 806.296 731.685 807.023 727.013 804.946Z" fill="#FCE6A0"/>
<path d="M727.012 804.945C729.96 804.052 732.929 803.139 736.084 802.184C736.998 799.131 737.849 796.266 738.762 793.214C743.537 792.944 747.856 795.145 751.842 793.463C755.641 796.412 752.319 801.478 756.222 804.094C760.873 804.82 762.097 801.706 762.201 797.948C762.388 792.321 763.592 786.466 770.111 786.799C777.211 787.172 778.81 793.484 778.914 799.775C778.914 800.813 778.914 801.851 778.893 802.889C776.443 804.156 774.575 801.228 771.481 802.225C770.277 809.533 774.429 814.433 779.536 818.939C779.91 819.935 779.703 820.787 778.955 821.534C773.91 825.458 770.319 817.776 767.641 819.001C761.516 821.306 762.658 824.835 762.347 827.763C756.243 823.569 757.032 815.534 752.028 809.803C743.496 811.423 734.506 811.734 727.053 804.924L727.012 804.945Z" fill="#FAE396"/>
<path d="M834.93 869.331C834.328 858.182 841.718 852.264 849.67 846.721C851.268 848.465 854.362 848.797 854.528 851.911C844.397 861.773 843.338 873.213 848.196 886.003C849.255 888.785 848.258 892.128 845.746 894.453C840.743 895.201 839.476 891.464 838.625 887.955C837.836 884.695 837.193 881.498 835.158 878.736C834.037 875.622 833.269 872.508 834.95 869.331H834.93Z" fill="#EFD890"/>
<path d="M778.915 821.555C778.915 820.849 778.915 820.143 778.915 819.458C775.448 815.306 774.763 811.153 778.935 807.021C781.925 807.021 783.129 809.741 785.164 811.174C788.091 817.652 781.842 818.607 778.915 821.576V821.555Z" fill="#FBE59A"/>
<path d="M853.571 850.812C851.142 850.501 849.709 849.276 849.668 846.701C850.997 846.597 852.325 846.493 853.654 846.369C857.806 845.767 861.958 845.165 866.111 844.562C868.021 845.227 869.308 846.244 868.249 848.528C864.616 848.466 861.086 848.819 857.931 850.895C856.457 851.954 855.004 851.539 853.571 850.812Z" fill="#CEC086"/>
<path d="M834.928 869.33C835.654 872.07 836.36 874.832 837.087 877.573C838.498 880.022 839.121 882.41 836.443 884.486C828.388 881.061 827.807 878.631 832.872 869.371L832.893 869.268C833.578 869.288 834.263 869.309 834.928 869.309V869.33Z" fill="#FBF2BF"/>
<path d="M579.613 757.193C571.828 756.632 563.835 758.48 555.406 755.698C559.185 751.774 564.686 752.936 567.157 748.888C569.918 747.497 572.679 746.126 575.461 744.735C579.447 745.171 582.582 743.739 585.675 741.164C588.603 738.735 592.277 737.074 595.495 742.41C589.246 746.313 584.7 752.023 579.613 757.193Z" fill="#F9EFBC"/>
<path d="M868.249 848.526C867.543 847.197 866.816 845.889 866.111 844.56C867.709 838.228 860.381 834.096 861.958 827.764C869.661 837.73 875.661 848.568 878.754 860.88C871.778 859.717 875.038 849.855 868.27 848.526H868.249Z" fill="#FDE899"/>
<path d="M887.036 958.875C897.458 966.246 890.025 975.672 889.465 984.06C889.112 989.375 886.226 994.524 887.036 1000.19C883.423 1007.44 880.351 1014.89 878.462 1022.8C877.029 1024.8 876.697 1027.7 873.77 1028.49C872.213 1028.76 870.78 1028.45 869.534 1027.45C865.86 1022.16 869.451 1017.63 870.822 1013.02C869.887 1013.6 871.174 1012.19 870.697 1012.59C863.368 1019.04 858.261 1017.22 855.106 1008.52C854.151 1005.86 853.279 1003.35 850.808 1001.73C848.441 993.61 848.815 986.8 858.407 983.478C862.31 982.129 863.887 978.495 864.593 974.509C865.32 970.44 865.009 966.183 866.773 962.28C867.791 960.349 869.306 958.937 871.195 957.899C876.635 955.429 882.198 951.338 886.994 958.917L887.036 958.875Z" fill="#F8E9B4"/>
<path d="M837.045 883.842C837.045 881.745 837.066 879.669 837.086 877.572C843.896 881.123 839.121 890.403 845.328 894.244C849.605 895.469 852.013 897.67 849.564 902.383C852.221 907.325 855.19 911.124 861.896 911.124C866.671 911.124 870.823 914.01 872.401 919.201C875.411 922.398 874.144 926.343 874.311 930.039C872.878 936.87 869.12 937.451 863.806 933.963C861.792 932.634 859.944 931.015 857.536 930.371C855.73 929.603 854.173 928.482 852.761 927.111C850.913 925.18 849.667 922.668 847.218 921.319C846.491 920.779 845.848 920.156 845.245 919.491C843.896 917.664 841.986 916.377 840.533 914.654C837.605 910.647 832.166 908.321 832.311 902.279C835.903 899.103 837.522 895.469 834.886 890.86C834.325 888.12 835.114 885.794 837.045 883.822V883.842Z" fill="#FBE8A9"/>
<path d="M849.563 902.406C848.151 899.686 846.74 896.966 845.328 894.267C846.947 882.308 837.293 871.45 842.546 858.286C846.179 856.916 851.286 855.836 853.57 850.833C855.065 848.86 856.476 850.376 857.93 850.916C857.867 851.518 857.826 852.099 857.764 852.701C854.421 859.532 862.352 857.933 863.992 861.027C865.383 863.788 868.144 865.844 868.227 869.27C859.03 873.754 859.217 883.035 857.328 891.112C856.31 895.451 856.663 900.205 851.618 902.406H850.58H849.542H849.563Z" fill="#F0D07F"/>
<path d="M851.641 902.404C853.862 891.275 856.104 880.126 858.471 868.291C861.087 868.54 864.658 868.893 868.249 869.246C868.955 869.973 869.682 870.679 870.388 871.405C872.588 876.222 872.547 881.06 870.429 885.877C870.429 887.268 870.388 888.638 870.367 890.008C870.201 893.413 870.055 896.798 869.91 900.016C864.201 905.705 858.014 904.729 851.661 902.383L851.641 902.404Z" fill="#E7C878"/>
<path d="M876.489 939.924C887.063 942.651 891.146 948.215 888.738 956.617C883.714 956.139 878.669 955.766 873.624 955.682C869.244 949.454 868.912 943.952 876.51 939.924H876.489Z" fill="#FAEBB4"/>
<path d="M872.277 931.535C872.319 927.424 872.36 923.334 872.381 919.223C876.928 914.676 871.073 913.015 869.641 910.69C871.945 907.928 873.855 905.624 876.429 902.551C883.799 915.195 873.128 926.511 876.471 937.805C874.976 938.968 873.44 939.176 871.841 937.992C870.803 935.771 870.949 933.611 872.277 931.535Z" fill="#E1CF84"/>
<path d="M872.338 937.846C873.729 937.846 875.1 937.825 876.49 937.805C876.49 938.511 876.49 939.217 876.49 939.922C873.397 944.49 873.792 949.515 874.58 954.581C875.037 957.467 872.961 957.944 870.927 958.463C869.889 958.588 868.871 958.505 867.854 958.256C864.864 956.428 861.211 955.494 859.238 952.214C860.899 944.968 865.031 939.943 872.359 937.867L872.338 937.846Z" fill="#EFDC9D"/>
<path d="M870.074 956.906C871.569 956.117 873.064 955.349 874.558 954.56C879.458 954.02 884.274 953.999 888.717 956.594C888.842 957.279 888.987 957.965 889.112 958.65C888.406 958.712 887.7 958.774 887.015 958.837C881.721 956.096 876.904 957.902 872.15 960.394C870.531 959.771 869.846 958.588 870.074 956.885V956.906Z" fill="#AA9D67"/>
<path d="M608.676 763.424C609.361 762.739 610.067 762.033 610.752 761.348C621.9 759.915 629.187 767.846 624.599 777.688C621.464 784.394 622.44 789.626 624.412 796.124C627.443 806.111 627.007 816.368 621.153 825.711C621.153 841.719 624.163 846.888 636.018 851.539C638.758 852.619 641.685 853.304 643.741 851.124C651.567 842.84 658.46 847.968 665.415 852.349C667.429 853.615 669.131 855.339 670.979 856.854C674.031 864.516 668.259 867.402 663.422 870.786C654.868 873.464 649.906 865.512 642.578 863.602C630.537 872.883 615.734 876.662 602.074 882.89C597.444 881.956 594.87 879.112 594.268 874.44C595.077 869.166 593.23 864.557 590.614 860.156C586.337 858.266 582.268 861.131 578.095 860.716C576.683 860.612 575.375 860.197 574.13 859.553C572.282 858.266 570.164 857.519 568.067 856.751C564.58 855.297 561.362 853.449 558.767 850.646C556.483 848.861 553.493 847.574 553.68 843.919C554.158 841.739 555.652 840.535 557.604 839.767C563.936 837.628 570.746 838.251 577.036 836.217C577.472 830.092 569.562 830.071 568.836 824.86C569.915 821.102 573.175 819.503 576.019 820.998C582.642 824.486 588.704 821.787 595.098 820.832C607.783 818.942 610.772 814.375 607.347 800.734C603.195 798.201 598.503 797.64 593.707 797.64C586.026 815.454 578.053 821.33 563.23 820.147C560.656 813.98 565.638 811.219 569.209 808.686C576.164 803.765 579.237 797.702 577.202 789.377C575.874 783.979 577.7 780.74 583.119 779.494C591.776 781.757 593.375 773.099 598.337 769.632C599.022 769.632 599.728 769.632 600.413 769.632C603.319 767.742 605.831 765.313 608.717 763.403L608.676 763.424Z" fill="#F7DD94"/>
<path d="M621.154 825.73C620.406 811.819 626.531 796.995 615.071 785.264C626.614 770.897 625.95 767.845 610.773 761.367C618.683 754.951 628.794 754.661 635.956 760.64C642.683 766.26 649.638 769.582 656.821 770.606C660.35 777.126 658.461 783.583 655.741 789.749C656.925 791.867 658.025 793.611 658.897 795.48C664.357 807.231 656.717 822.18 643.7 823.28C636.143 823.924 628.732 825.523 621.154 825.73Z" fill="#FBE096"/>
<path d="M583.762 782.111C570.6 787.239 584.281 793.634 582.081 801.108C578.676 808.375 567.922 811.032 563.002 819.483C560.095 826.438 551.043 821.517 547.597 827.455C545.874 828.556 544.047 829.116 542.033 828.452C539.791 827.103 538.836 824.964 538.4 822.514C538.006 818.237 534.082 818.631 531.424 817.344C529.618 816.493 528.04 815.351 527.085 813.545C526.857 812.569 526.919 811.614 527.293 810.68C528.788 808.624 531.196 807.96 533.189 806.672C534.31 806.07 535.701 805.8 536.179 804.222C534.975 801.606 532.4 802.125 530.2 801.752C528.082 801.648 526.006 801.378 524.241 800.07C522.352 798.326 521.916 796.354 523.307 794.111C522.663 792.865 521.999 791.64 521.355 790.395C521.916 788.152 523.494 787.114 525.653 786.761C528.518 786.595 530.096 788.671 531.923 790.353L531.84 790.457C536.179 793.675 542.116 791.267 546.414 794.609C547.327 803.558 554.241 804.928 559.95 802.208C567.548 798.596 576.828 794.63 575.437 783.066C574.586 775.923 578.634 771.48 583.762 767.598C585.153 768.283 586.524 768.968 587.915 769.653C592.69 775.861 588.33 779.017 583.742 782.09L583.762 782.111Z" fill="#F7E19D"/>
<path d="M662.654 869.329C664.689 864.678 670.605 862.622 670.958 856.85C677.498 852.947 682.875 846.947 691.034 845.639C699.442 850.061 695.705 859.487 699.214 866.007C700.729 868.83 701.933 869.079 704.155 869.308C710.362 869.806 713.85 874.789 718.5 877.903C720.12 882.513 722.923 887.392 715.739 889.966C707.393 889.364 701.29 884.298 695.02 879.523C691.823 877.094 689.622 873.086 684.868 873.107C681.775 873.356 680.176 875.744 678.474 877.8C672.723 884.796 665.477 882.222 660.017 878.962C653.789 875.246 658.834 871.841 662.633 869.329H662.654Z" fill="#FAEAAC"/>
<path d="M583.762 782.109C585.007 777.915 589.201 774.696 587.935 769.672C591.381 769.672 594.848 769.672 598.294 769.672C596.052 776.856 595.886 786.489 583.762 782.129V782.109Z" fill="#FBE096"/>
<path d="M716.634 877.635C711.194 876.763 708.205 872.237 704.156 869.309C705.547 868.624 706.917 867.918 708.308 867.233C710.177 866.984 711.423 867.939 712.481 869.33C716.156 874.126 721.761 875.517 726.993 877.552C727.263 877.988 727.554 878.445 727.844 878.881C728.509 883.822 726.619 887.061 721.844 888.784C718.668 885.234 718.751 880.936 716.634 877.635Z" fill="#F4DD99"/>
<path d="M712.458 869.33C711.067 868.624 709.676 867.939 708.285 867.233C708.285 865.156 708.306 863.08 708.327 861.004C710.61 862.291 712.894 863.578 715.531 865.073C714.306 866.776 713.372 868.042 712.458 869.309V869.33Z" fill="#F3D789"/>
<path d="M608.675 763.422C606.828 766.744 604.482 769.36 600.371 769.651C602.219 766.349 604.586 763.733 608.675 763.422Z" fill="#FBE096"/>
<path d="M726.973 877.552C725.686 875.247 724.399 872.922 723.008 870.43C725.354 868.126 730.876 870.493 731.167 865.157C737.291 859.447 738.765 852.346 737.395 844.394C741.007 841.654 749.81 844.27 752.779 850.146C755.436 855.398 759.609 860.527 758.156 867.212C758.737 871.51 755.436 870.908 753.069 871.385C757.782 872.444 761.955 868.043 766.875 869.662C768.972 870.451 770.695 871.655 771.609 873.773C768.474 883.137 763.159 885.525 752.613 882.327C749.81 878.798 745.824 878.216 741.693 878.071C737.976 877.054 734.447 878.029 730.918 879.067C729.402 879.192 728.073 878.818 727.035 877.656L726.994 877.531L726.973 877.552Z" fill="#F3D789"/>
<path d="M762.287 865.136C764.114 855.835 760.585 839.785 755.062 832.685C760.523 828.428 762.246 836.671 766.502 836.069L766.564 836.048C769.927 839.599 770.342 844.561 772.481 848.693C772.688 850.873 773.041 853.011 773.56 855.129C773.56 861.461 777.733 869.829 766.045 870.431C762.744 870.14 760.045 869.413 762.266 865.157L762.287 865.136Z" fill="#EFCC73"/>
<path d="M737.392 844.395C744.347 848.838 741.087 854.651 739.364 860.112C738.16 863.911 736.312 867.399 731.164 865.157C729.523 857.122 730.603 849.917 737.392 844.395Z" fill="#F9E194"/>
<path d="M762.285 865.137C762.534 867.67 763.925 869.082 766.479 869.331C766.998 869.787 767.164 870.244 766.998 870.722C766.832 871.179 766.645 871.407 766.479 871.407C760.52 873.026 754.541 874.48 748.105 872.902C749.787 867.857 755.828 870.763 758.154 867.213C759.524 866.528 760.915 865.822 762.285 865.137Z" fill="#E8CC7A"/>
<path d="M766.46 871.405C766.46 870.72 766.46 870.014 766.46 869.329C774.661 866.402 770.01 859.799 770.654 854.712C775.45 853.612 776.591 857.204 777.318 860.443C778.875 867.315 784.211 869.744 789.775 872.755C790.314 865.626 792.197 861.772 795.421 861.19C798.681 862.955 798.681 866.402 799.636 869.35C801.027 870.616 802.771 870.326 804.411 870.367C806.072 870.409 807.774 870.201 810.245 871.239C811.594 878.278 810.037 886.935 816.618 892.894C810.348 899.476 808.397 893.559 805.698 889.219C803.975 886.458 806.508 881.122 800.715 880.852C797.622 882.368 794.861 884.486 791.311 885.046C788.238 885.524 786.266 887.724 786.391 890.818C786.681 897.898 784.231 904.314 782.01 909.816C782.695 915.795 789.712 917.373 788.57 923.187C784.169 930.017 779.519 936.578 770.882 938.551C767.727 937.056 767.083 933.879 766.398 931.035C765.131 925.761 761.872 924.931 757.305 926.114C753.775 925.242 752.903 922.045 751.429 919.387C750.433 913.989 747.236 909.504 745.035 904.625C743.25 900.701 742.087 897.109 744.142 893.06C751.803 888.513 752.467 897.504 756.599 899.725C763.159 899.04 761.789 892.147 765.298 889.074C768.889 885.939 773.996 884.548 776.28 879.606C776.197 875.994 773.643 874.499 770.571 873.502L766.46 871.426V871.405Z" fill="#EACF80"/>
<path d="M832.872 902.549C836.319 906.016 839.786 909.463 843.232 912.93C840.969 916.854 837.834 919.823 833.765 921.9C829.862 923.893 827.786 927.215 827.225 932.364C832.665 934.44 841.841 933.464 839.412 943.845C839.121 944.78 838.685 945.631 838.146 946.441C832 948.475 835.758 956.635 830.34 959.126C824.713 952.69 816.783 949.264 810.389 943.804C808.229 939.631 808.188 935.354 809.786 931.014C811.406 927.194 816.139 926.094 817.53 922.086C820.79 917.166 818.921 911.498 819.835 906.182C818.153 904.708 814.956 906.743 813.71 903.151C813.129 899.58 815.807 896.798 817.904 893.787C818.859 893.248 819.71 893.372 820.458 894.14C825.004 894.431 827.869 897.462 830.776 900.431C831.98 900.618 832.665 901.324 832.852 902.528L832.872 902.549Z" fill="#F4DF9B"/>
<path d="M795.44 861.172C789.897 863.497 794.111 866.944 794.755 869.601C795.98 874.501 795.191 877.74 789.128 878.944C784.831 875.332 782.091 868.771 774.803 868.937C773.703 863.829 776.734 857.829 770.651 854.715C770.651 852.659 770.61 850.604 770.589 848.548C768.866 844.437 767.454 840.306 770.527 836.174L774.741 844.416C774.056 852.244 778.79 855.545 785.495 856.729C789.274 857.393 792.948 857.808 795.44 861.172Z" fill="#F9E5A1"/>
<path d="M774.741 844.396C774.969 840.701 774.159 836.86 775.779 833.6C783.502 828.908 788.152 835.946 794.671 837.337C794.754 843.234 798.408 847.967 800.567 854.03C790.125 854.238 783.045 847.656 774.741 844.396Z" fill="#FCF4C6"/>
<path d="M837.045 883.843V892.148C833.35 895.283 830.879 893.29 828.72 890.093C814.499 882.12 821.246 869.704 820.727 857.994C828.367 859.489 824.402 870.618 832.872 869.393C834.242 874.21 829.509 880.812 837.045 883.843Z" fill="#FCF6CE"/>
<path d="M828.719 890.092C831.501 890.777 834.283 891.462 837.044 892.147C841.341 892.874 841.258 896.009 840.988 899.518C839.12 902.425 835.674 901.719 832.871 902.57C832.186 901.864 831.48 901.179 830.795 900.473C830.11 897.006 829.404 893.559 828.719 890.092Z" fill="#FBF2BF"/>
<path d="M820.478 894.161C819.751 894.182 819.045 894.203 818.319 894.244C817.966 894.494 817.613 894.763 817.239 895.013C816.886 894.763 816.513 894.514 816.16 894.265C808.935 889.075 810.16 881.123 809.703 874.25C807.212 869.994 802.042 872.693 799.613 869.35C803.288 869.454 807.066 868.769 811.613 870.908C810.409 879.981 814.623 887.434 820.457 894.203L820.478 894.161Z" fill="#F9E5A1"/>
<path d="M770.528 836.175C770.549 840.306 770.569 844.417 770.59 848.549C766.729 845.185 766.21 840.742 766.521 836.029C767.85 836.071 769.178 836.112 770.507 836.175H770.528Z" fill="#F8DA8A"/>
<path d="M778.936 807.021C778.936 811.174 778.936 815.306 778.915 819.458C769.116 819.79 769.241 811.465 767.165 805.485C765.483 800.647 767.725 796.993 772.459 795.395C777.213 796.017 776.154 801.021 778.895 802.91C778.895 804.281 778.936 805.651 778.957 807.001L778.936 807.021Z" fill="#F2D57F"/>
<path d="M851.598 1002.21C852.677 1001.46 853.736 1000.7 854.857 999.906C859.342 1003.64 856.373 1011.01 862.123 1013.98C869.244 1013.98 868.891 1005.43 874.414 1002.79C877.424 1012.05 870.075 1018.92 870.199 1027.06C869.327 1037.69 864.573 1045.69 854.587 1050.17C849.978 1051.54 845.162 1052.21 840.595 1053.93C825.148 1059.72 822.906 1063.98 826.996 1080.44C827.183 1084.51 824.816 1087.29 822.201 1089.93C821.432 1090.62 820.581 1091.16 819.668 1091.61C814.934 1092.82 811.343 1095.41 808.312 1099.42C805.114 1103.61 801.689 1108.26 795.191 1107.37C787.094 1103.37 779.039 1104.55 770.984 1107.62C769.966 1107.75 768.928 1107.68 767.911 1107.52C764.548 1106.62 761.247 1105.52 758.963 1102.72C755.164 1098.05 753.877 1092.8 756.783 1087.34C759.544 1082.13 764.569 1079.9 769.946 1081.81C778.81 1084.97 783.585 1080.8 787.613 1073.65C787.717 1069.81 784.333 1067.11 783.585 1063.42C782.527 1058.14 778.935 1056.75 773.952 1055.88C745.469 1050.94 716.154 1053.95 687.899 1047C684.287 1046.1 682.086 1048.18 679.719 1050.23C676.501 1053.02 673.097 1055.45 668.612 1052.7C666.848 1042.55 671.27 1034.6 680.467 1032.11C691.781 1029.04 703.802 1030.07 715.013 1025.92C719.559 1024.24 723.13 1029.1 727.822 1030.2C740.86 1020.88 757.219 1017.35 769.78 1006.86C775.53 1006.55 781.281 1005.99 786.969 1007.3C793.883 1013.36 801.564 1017.72 811.073 1017.95C813.253 1018.18 815.37 1018.76 817.509 1019.13C820.27 1019.24 822.014 1016.95 824.38 1016.18C833.972 1013.38 841.342 1006.55 850.103 1002.25C850.581 1002.25 851.058 1002.25 851.536 1002.25L851.598 1002.21Z" fill="#F8EECB"/>
<path d="M868.354 962.159C868.52 970.484 870.347 979.038 862.935 985.828C860.153 988.381 857.558 989.129 854.133 987.904C853.24 992.908 852.41 997.538 851.579 1002.19C845.828 1007.46 840.223 1003.7 832.957 1002C838.168 990.811 825.13 981.862 830.424 970.484C830.901 969.612 831.524 968.865 832.272 968.242C838.5 965.211 842.88 972.249 849.42 971.169C851.953 963.882 857.974 959.895 865.447 957.674C867.669 958.338 868.665 959.812 868.312 962.138L868.354 962.159Z" fill="#F5E4AC"/>
<path d="M868.352 962.158C867.543 960.974 866.733 959.812 865.944 958.628C865.384 957.798 865.384 956.946 865.882 956.074C866.754 955.555 867.584 955.618 868.352 956.303C868.934 956.469 869.515 956.677 870.096 956.884C870.781 958.068 871.487 959.23 872.172 960.414C870.906 960.995 869.619 961.576 868.352 962.158Z" fill="#7B6C38"/>
<path d="M866.008 956.512C865.987 957.218 865.945 957.944 865.924 958.65C859.26 963.654 853.136 969.218 849.42 976.755C843.254 973.828 838.084 971.378 832.936 968.928C829.385 966.063 828.867 962.574 830.839 958.588C830.88 955.142 830.693 951.674 831.005 948.248C831.441 943.639 834.389 945.051 837.025 946.11C842.922 949.909 838.022 958.505 843.98 962.263C847.198 961.765 848.008 959.211 848.506 957.031C850.209 949.556 852.16 942.393 858.887 937.556C860.817 936.165 858.97 934.483 858.222 933.03C857.371 931.203 856.603 929.375 857.869 927.424C861.585 927.548 864.243 930.019 866.61 932.261C869.308 934.815 870.616 933.217 872.34 931.556C872.34 933.653 872.36 935.75 872.381 937.867C869.661 943.888 864.056 947.418 859.945 952.235C861.565 954.249 865.364 953.169 866.049 956.512H866.008Z" fill="#ECD590"/>
<path d="M837.046 944.051C836.714 941.456 837.814 938.466 835.136 936.722C831.212 934.895 829.074 940.272 825.399 938.715C819.711 927.732 823.821 921.815 843.233 912.949C844.748 914.942 847.406 916.126 847.447 919.116C846.16 919.863 844.582 920.299 844.146 922.043C842.008 925.49 842.735 928.853 843.482 932.632C844.458 937.698 845.475 943.823 837.046 944.051Z" fill="#ECD590"/>
<path d="M843.272 919.138C844.663 917.311 846.075 918.826 847.466 919.096L847.424 919.138C850.04 920.674 852.075 922.813 853.756 925.304C855.106 925.989 856.476 926.695 857.826 927.38C858.511 928.772 859.217 930.163 859.902 931.554C860.338 938.115 856.476 941.167 850.705 941.167C844.497 941.167 843.355 936.35 843.065 931.097C842.857 927.069 841.134 923.083 843.252 919.096L843.272 919.138Z" fill="#E2C879"/>
<path d="M853.738 925.327C850.873 924.039 848.839 921.901 847.406 919.16C851.247 919.43 853.261 921.61 853.738 925.327Z" fill="#E9CF84"/>
<path d="M866.006 956.511C864.47 954.373 860.068 956.325 859.902 952.234C863.349 952.297 866.525 952.899 868.331 956.345C867.563 956.408 866.774 956.47 866.006 956.532V956.511Z" fill="#AA9D67"/>
<path d="M546.457 825.543C549.966 818.048 557.73 822.2 562.983 819.48C566.201 818.276 569.335 816.802 572.616 815.951C582.996 813.231 590.408 808.373 588.103 795.915C587.999 795.313 588.311 794.545 588.622 793.943C588.934 793.361 589.494 792.925 590.449 791.846C596.075 794.316 602.241 796.081 608.511 795.002C615.487 805.507 614.76 810.906 604.878 824.671C596.352 824.02 589.688 825.405 584.885 828.823C579.487 829.114 576.249 817.84 569.273 825.668C568.899 826.124 568.526 826.602 568.152 827.059C561.259 830.152 554.388 829.509 547.516 826.976C547.163 826.498 546.81 826.021 546.457 825.543Z" fill="#F4D98D"/>
<path d="M662.655 869.33C661.513 871.344 660.351 873.379 658.731 876.244C663.672 877.407 667.866 878.382 671.914 879.338C677.686 877.365 677.956 868.375 685.513 869.33C687.526 877.843 684.682 882.66 675.88 884.798C669.465 886.355 662.842 885.857 656.323 886.085C652.877 885.732 649.742 884.487 646.939 882.452C644.469 880.646 642.579 878.113 639.195 876.784C628.088 880.272 617.417 887.933 604.421 883.864C603.528 883.324 602.843 882.597 602.324 881.684C610.898 877.199 616.898 867.981 628.524 869.019C635.521 869.642 635.874 860.797 641.292 857.537C648.725 860.444 653.769 868.52 662.614 869.309L662.655 869.33Z" fill="#FAE5A5"/>
<path d="M602.366 881.686C603.092 881.727 603.798 881.748 604.525 881.79C606.663 883.949 609.922 885.257 610.151 888.932C609.715 893.977 606.102 895.223 602.179 894.434C597.362 893.479 592.151 892.773 588.788 888.371C582.767 881.603 573.882 879.921 566.283 875.914C564.394 874.938 562.962 873.568 562.318 871.471C562.235 869.727 563.107 868.481 564.456 867.526C565.37 866.986 566.346 866.633 567.404 866.488C570.996 866.218 574.608 866.052 578.158 866.924C579.113 867.215 580.006 867.671 580.857 868.19C582.83 869.831 584.76 870.703 587.355 869.062C592.504 865.823 594.829 868.772 596.22 873.443C596.802 877.305 600.103 879.111 602.386 881.707L602.366 881.686Z" fill="#E9D9AA"/>
<path d="M596.199 873.44C593.064 874.146 593.562 869.786 591.279 869.682C586.607 870.118 590.635 875.765 586.213 876.554C582.87 875.537 580.483 873.149 579.715 869.184C581.272 862.706 586.919 860.235 591.735 856.996C595.244 857.598 599.022 857.951 596.22 863.183C593.604 868.042 598.919 866.36 600.413 868.187C599.043 869.89 597.631 871.675 596.22 873.44H596.199Z" fill="#F0D698"/>
<path d="M591.716 856.976C591.156 864.45 584.118 865.53 579.696 869.163V869.226C577.018 867.315 572.928 868.374 570.956 865.032C570.665 864.077 570.769 863.184 571.226 862.312C572.741 860.215 575.399 860.339 577.371 859.114C582.021 857.516 586.319 853.508 591.716 856.997V856.976Z" fill="#C5A86C"/>
<path d="M654.373 883.885C659.73 880.729 665.646 881.871 671.356 881.83C679.805 881.767 684.892 878.155 685.515 869.352C695.376 870.493 698.428 881.726 707.5 884.155C710.012 884.84 712.192 886.709 714.538 888.017C717.798 889.678 721.099 888.827 724.462 888.349C728.946 887.685 731.707 889.595 732.372 894.972C726.912 898.523 724.213 904.295 722.406 910.606C721.763 911.52 720.953 912.226 719.977 912.786C713.936 914.053 707.729 915.922 703.826 908.738C703.742 906.828 704.988 905.52 706.151 904.315C708.704 901.699 710.905 899 708.663 895.221C705.881 890.55 701.853 892.045 697.846 892.481C697.224 899.146 705.798 900.246 704.448 906.35C701.895 909.485 698.656 908.489 696.144 906.911C689.335 902.654 682.442 903.962 675.404 905.748C673.847 905.603 672.435 905.021 671.169 904.128C667.017 900.267 665.377 896.571 671.895 893.436C673.224 893.332 674.511 892.896 675.84 892.771C674.594 892.626 673.473 893.394 672.228 893.332C666.124 895.201 662.387 902.696 654.664 900.62C650.055 898.959 647.771 895.055 645.55 891.09C645.28 884.736 650.034 884.591 654.373 883.948V883.885Z" fill="#F4DD99"/>
<path d="M720.805 908.778C721.365 902.196 722.819 896.196 730.562 893.746C726.763 887.081 718.272 893.849 714.535 888.015C721.677 885.856 714.93 880.894 716.611 877.634C718.5 880.52 720.39 883.406 722.32 886.375C725.684 884.174 724.999 880.209 726.992 877.676C728.362 877.634 729.711 877.592 731.082 877.551C733.801 878.132 734.902 881.33 737.663 881.703C741.628 881.226 740.382 877.634 741.524 875.516C744.763 877.447 751.365 871.073 751.925 879.71C752.237 882.202 752.465 884.672 750.804 886.852C748.458 889.718 743.891 890.008 742.126 895.137C743.87 903.379 748.832 911.331 753.192 919.532C753.939 924.868 761.019 928.481 757.385 935C753.524 938.281 752.216 934.253 750.181 932.426C742.438 925.45 734.113 918.951 731.746 909.504C727.178 906.245 724.044 910.854 720.784 908.819L720.805 908.778Z" fill="#F6E4A6"/>
<path d="M749.788 885.816C749.892 883.553 749.788 881.227 751.968 879.691C760.272 883.906 765.546 879.026 770.59 873.462C776.134 869.455 779.04 873.67 782.403 876.68C780.493 885.92 772.231 887.56 765.649 892.024C767.456 901.325 763.262 905.062 753.484 902.612C751.927 898.896 750.058 894.619 745.74 892.127C744.349 888.245 748.252 887.788 749.809 885.816H749.788Z" fill="#E8CC7A"/>
<path d="M741.565 875.496C743.122 876.721 744.658 877.925 746.298 879.212C744.036 883.095 741.067 885.731 736.624 886.728C732.513 885.025 731.953 881.205 731.102 877.53C733.531 871.468 737.413 872.859 741.544 875.496H741.565Z" fill="#FDEFB5"/>
<path d="M787.218 923.268C786.969 919.78 783.896 919.407 781.612 918.078C779.183 916.645 776.007 913.655 777.419 911.787C784.955 901.842 777.377 882.969 796.228 879.792C797.453 879.584 798.512 878.38 799.654 877.633C804.657 886 793.467 888.014 793.01 894.575C797.328 903.814 807.48 895.281 813.003 900.845C815.619 908.984 811.383 913.593 804.657 916.728C801.626 918.14 798.429 919.178 795.792 921.317C793.052 922.479 790.54 924.763 787.197 923.289L787.218 923.268Z" fill="#E8CC7A"/>
<path d="M787.22 923.273C789.255 921.84 790.438 919.12 793.428 919.162C803.227 915.3 811.822 919.369 820.437 923.293C819.981 928.463 816.514 929.626 812.112 929.522C808.541 931.993 804.825 929.169 800.071 930.02C797.144 939.758 793.428 950.139 779.123 946.713C774.577 945.924 770.3 944.243 765.982 942.685C762.307 940.9 758.508 939.301 756.12 935.688C756.473 929.709 754.21 924.415 751.844 919.141C752.55 918.393 753.276 918.373 754.003 919.099C755.352 921.196 756.723 923.293 758.072 925.37C762.66 929.065 767.352 932.636 770.549 937.723C776.217 933.052 780.473 926.719 787.199 923.252L787.22 923.273Z" fill="#EFD68C"/>
<path d="M812.112 900.451C806.465 903.732 800.091 901.905 793.406 903.483C791.289 900.181 789.171 896.859 787.406 894.098C789.586 886.291 799.863 886.001 799.697 877.633C801.171 875.246 802.811 873.149 806.506 874.602C811.177 880.229 802.852 892.769 816.201 894.285L816.264 894.326C818.797 898.998 815.475 899.725 812.132 900.451H812.112Z" fill="#E3C46E"/>
<path d="M754.023 919.118C753.296 919.118 752.591 919.139 751.864 919.159C747.297 918.537 747.193 914.426 746.259 911.394C744.12 904.439 739.304 899.124 734.176 891.815C741.712 893.082 744.182 886.438 749.788 885.836C748.438 887.933 747.068 890.051 745.719 892.148C744.39 902.404 753.587 909.422 754.023 919.118Z" fill="#EBD48C"/>
<path d="M770.59 937.742C765.773 934.296 756.742 935.085 758.113 925.389C758.32 923.416 758.071 921.278 760.334 919.866C764.092 919.077 765.607 923.375 769.053 924.018C769.572 928.628 770.091 933.175 770.611 937.721L770.59 937.742Z" fill="#E0C579"/>
<path d="M843.274 919.137C845.973 925.636 842.423 934.418 850.208 939.339C854.505 937.553 857.578 935.041 859.903 931.574C862.166 932.965 865.239 933.505 865.654 937.657C862.166 940.232 858.388 943.035 854.132 946.17C854.609 953.976 851.308 961.056 847.364 968.676C832.748 966.122 838.271 954.454 837.004 946.066C837.004 945.381 837.004 944.696 837.025 944.011C844.893 937.636 841.302 931.885 834.824 925.283C840.367 925.76 841.052 921.67 843.253 919.096L843.274 919.137Z" fill="#E9CF84"/>
<path d="M812.111 900.453C813.564 898.46 816.263 897.297 816.242 894.328C816.948 894.328 817.633 894.286 818.339 894.266C818.941 897.525 817.01 900.141 815.889 903.173C820.623 904.605 819.19 898.605 824.173 897.961C821.557 906.578 826.934 915.36 820.477 923.333C818.007 924.267 816.408 927.132 812.796 926.51C811.052 924.454 809.121 922.17 807.523 920.281C802.561 918.122 797.661 923.914 793.488 919.18C797.371 917.042 801.191 914.8 805.135 912.786C810.201 910.17 813.128 906.453 812.173 900.453H812.111Z" fill="#EACF82"/>
<path d="M778.914 944.053C795.46 947.25 794.629 934.232 796.664 924.37C803.515 922.294 806.795 928.876 812.131 929.519C812.131 934.357 812.131 939.195 812.131 944.032C805.737 948.807 796.436 946.814 790.747 953.23C789.813 953.77 788.837 954.102 787.799 954.31C780.865 954.351 775.903 952.628 778.914 944.053Z" fill="#F9E4A6"/>
<path d="M789.294 952.339C794.298 942.394 803.557 944.158 812.131 944.055C817.923 943.66 821.785 948.685 826.809 948.955C829.695 951.944 827.702 956.263 830.816 958.568C832.726 961.765 833.079 965.295 832.913 968.907C832.913 969.613 832.892 970.319 832.871 971.025C824.131 971.959 823.778 963.717 819.958 959.273C819.273 958.734 818.671 958.111 818.069 957.488C816.512 955.64 814.394 955.391 812.173 955.412C807.273 954.394 802.457 953.294 797.37 954.664C794.464 955.453 791.35 955.266 789.273 952.318L789.294 952.339Z" fill="#F8E9B1"/>
<path d="M668.885 1052.02C663.964 1054.63 660.186 1059.26 654.373 1060.32C650.615 1054.9 656.283 1052.33 657.881 1048.53C660.643 1045.35 663.051 1041.99 663.549 1037.61C664.172 1025.01 665.563 1023.43 677.646 1021.91C679.016 1021.75 680.947 1022.31 681.673 1021.39C689.479 1011.68 702.06 1014.17 711.756 1009.48C721.139 1004.93 730.295 1004.74 739.534 1009.77C746.052 1013.34 751.346 1012.32 755 1005.32C758.364 998.888 759.921 992.95 752.073 988.528C750.89 987.863 749.519 986.929 749.125 985.683C745.928 975.343 742.897 964.942 745.72 953.938C754.377 953.938 756.869 960.166 757.388 966.893C757.907 973.62 760.855 978.271 765.298 982.984C774.515 992.742 775.657 999.532 770.633 1008.44C764.01 1017.41 754.523 1021.69 744.184 1024.57C741.464 1025.34 738.89 1026.36 737.084 1028.56C730.357 1036.76 723.818 1038.42 717.652 1027.12C705.444 1036.88 690.538 1031.24 676.587 1036.97C674.531 1041.2 669.798 1045.58 668.905 1052.04L668.885 1052.02Z" fill="#F9EDC5"/>
<path d="M770.612 1008.42C771.775 995.44 766.543 985.931 754.71 979.598C752.571 971.106 757.429 959.687 745.699 954.434C741.091 944.364 745.533 937.451 756.038 937.721C760.232 937.824 763.014 940.191 766.232 942.018C769.159 943.264 771.007 945.423 771.692 948.558C771.879 952.275 768.765 955.638 770.592 959.583C787.325 968.573 795.899 997.101 787.2 1008.44C781.657 1010.85 776.135 1012.13 770.592 1008.44L770.612 1008.42Z" fill="#FCF0CE"/>
<path d="M787.218 1008.42C790.27 993.697 783.938 981.219 777.564 968.803C776.837 967.391 775.405 966.145 774.035 965.294C764.609 959.585 764.069 957.093 770.609 948.228C772.747 947.522 773.765 948.913 774.408 950.511C777.626 958.733 782.111 957.716 787.259 952.38C787.944 952.38 788.629 952.359 789.315 952.338C794.297 953.024 798.74 951.653 802.477 948.56C806.816 949.183 809.743 953.21 814.228 952.38C815.826 954.498 818.878 954.394 820.456 956.512C825.48 966.27 824.919 967.204 811.591 971.419C810.615 971.73 809.577 971.876 808.56 971.917C805.259 971.98 802.622 972.623 802.207 976.797C801.833 980.534 800.38 983.98 798.138 987.095C792.013 995.566 792.678 997.434 802.705 1000.9C803.702 1001.21 804.532 1001.75 805.28 1002.46C806.961 1008.83 817.113 1012.05 812.172 1020.9C801.937 1020.61 791.474 1020.77 787.259 1008.44L787.218 1008.42Z" fill="#FAEFC2"/>
<path d="M812.134 1020.88C812.093 1018.14 812.176 1014.79 809.331 1013.8C803.331 1011.66 803.643 1007.05 803.83 1002.27C805.511 994.798 810.785 994.051 817.864 995.629C816.058 986.099 820.957 975.406 810.058 968.928C812.798 965.648 817.553 968.077 820.459 965.253C823.366 962.347 820.314 959.44 820.459 956.533C826.687 959.606 826.334 968.305 832.916 971.067C832.002 977.794 830.736 984.666 839.082 988.279C837.877 992.327 836.736 996.169 835.012 1002C841.677 997.31 845.808 1005.95 851.6 1002.25C847.074 1010.64 836.839 1012.2 831.006 1019.17C830.632 1019.61 826.874 1017.3 824.466 1018.8C820.584 1017.6 820.48 1022.04 818.092 1023.08C816.099 1022.35 814.127 1021.64 812.134 1020.92V1020.88Z" fill="#F9EBBA"/>
<path d="M818.09 1023.04C818.879 1019.61 819.086 1015.33 824.463 1018.76C822.325 1020.15 821.432 1023.43 818.09 1023.04Z" fill="#C3B78B"/>
<path d="M654.371 883.885C653.769 888.909 647.603 886.127 646.046 889.802C644.863 892.335 642.558 892.979 640.088 893.062C632.884 893.29 625.742 891.774 618.434 894.349C614.137 895.864 611.293 891.297 608.739 888.037C606.082 886.812 604.67 884.736 604.504 881.808C617.002 882.286 628.524 879.774 638.302 870.514C645.112 873.15 647.707 881.082 654.371 883.885Z" fill="#F7E5AF"/>
<path d="M766.459 944.054C752.342 936.662 746.363 939.652 745.698 954.435C748.978 963.799 750.888 973.412 749.933 983.025C763.075 988.901 769.532 993.883 750.162 1018.82C734.467 1005.82 717.692 1011.1 700.128 1016.31C690.495 1019.15 689.914 1017.16 685.803 1026.02C673.222 1026.38 666.897 1030.9 666.828 1039.58C657.756 1038.48 655.513 1035.57 657.029 1027.31C658.897 1017.05 665.769 1009.64 671.499 1001.63C666.143 994.527 659.499 988.942 658.461 979.163C657.963 974.408 649.181 971.564 653.313 964.401C663.652 955.452 673.16 954.788 684.143 962.221C687.007 964.159 690.343 964.747 694.149 963.986C693.464 958.089 689.27 956.491 684.309 955.224C673.907 952.587 670.378 947.417 670.316 935.79C671.478 934.565 672.932 934.213 674.572 934.337C677.333 934.898 679.181 936.725 680.862 938.801C681.485 939.59 681.983 940.462 682.461 941.334C689.706 946.545 694.731 944.905 696.205 936.974C697.512 929.935 694.647 925.015 688.938 921.236C685.201 918.765 682.482 915.381 684.848 910.834C687.568 905.581 692.239 906.91 696.62 908.55C701.997 910.585 706.751 914.343 712.813 914.488C715.699 917.603 713.768 921.88 715.72 925.97C721.574 928.005 727.719 930.683 735.11 931.783C734.384 921.61 725.768 919.617 720.017 915.049C719.457 913.492 719.623 912.101 720.806 910.876C720.806 910.191 720.827 909.505 720.827 908.82C724.439 907.45 725.124 902.405 731.768 901.74C734.404 916.336 748.854 923.208 756.141 935.749C760.355 935.251 763.283 937.908 766.48 939.922C767.705 941.313 767.58 942.704 766.48 944.095L766.459 944.054Z" fill="#F9ECBD"/>
<path d="M712.479 915.007C708.036 917.976 704.133 915.941 699.96 914.031C696.099 912.266 692.736 908.508 687.753 910.086C684.888 913.989 686.715 916.647 689.995 918.578C698.673 923.685 702.888 933.983 699.67 942.766C697.718 948.081 693.068 948.102 688.583 948.164C684.12 948.247 679.116 948.953 679.283 941.977C681.732 940.523 684.037 938.904 686.175 937.035C692.715 929.333 685.698 927.983 680.84 926.114C669.608 921.796 668.84 920.82 670.584 910.065C671.663 907.823 672.847 905.643 675.38 904.688C680.757 897.836 687.462 898.957 694.064 902.072C697.427 903.67 700.292 906.307 704.237 906.639C708.389 913.512 715.178 909.878 720.825 910.813C720.825 912.183 720.825 913.574 720.825 914.944C718.084 917.602 715.323 917.104 712.541 914.986L712.479 915.007Z" fill="#FAE9AF"/>
<path d="M675.34 904.707C674.945 906.888 675.153 909.296 673.015 910.812C670.793 912.078 668.966 913.739 669.527 916.542C671.416 925.947 666.309 928.169 658.358 927.65C655.721 926.882 653.749 925.283 652.275 922.999C650.572 916.106 646.15 912.867 639.05 913.241C635.583 911.85 631.805 913.137 628.317 911.974C624.953 911.393 621.279 911.331 620.199 907.033C620.324 904.271 622.088 903.15 624.497 902.673C633.611 902.88 642.787 902.714 651.59 906.015C650.033 905.143 647.147 905.829 648.102 902.486C651.506 902.382 654.932 902.278 658.337 902.195C663.444 896.942 668.364 903.15 673.388 902.465C674.032 903.213 674.676 903.939 675.319 904.687L675.34 904.707Z" fill="#E1CD8A"/>
<path d="M704.196 906.662C702.452 902.904 698.445 901.865 695.559 899.499C693.296 897.63 691.324 895.907 692.155 892.668C693.11 888.951 696.037 888.391 699.296 887.996C707.248 887.041 713.102 889.18 713.953 898.108C714.597 905.042 710.362 907.118 704.196 906.682V906.662Z" fill="#E4C87C"/>
<path d="M766.457 944.052C766.457 942.661 766.457 941.27 766.457 939.879C770.63 941.228 775.239 941.187 778.893 944.052C779.391 949.097 781.841 952.191 787.218 952.378C785.661 962.219 783.086 963.091 772.062 957.589C769.156 954.786 774.035 950.883 770.588 948.225C769.218 946.834 767.827 945.443 766.457 944.052Z" fill="#F8E9B1"/>
<path d="M820.435 956.51C817.425 956.551 814.664 956.198 814.207 952.378C817.217 952.337 819.999 952.669 820.435 956.51Z" fill="#F9EBBA"/>
<path d="M660.536 1049.92C653.041 1050.63 645.879 1051.85 644.53 1062.11C639.402 1058.95 635.457 1056.52 631.513 1054.11C631.056 1053.99 630.578 1053.86 630.122 1053.76C627.173 1051.37 623.706 1049.73 620.738 1047.41C617.707 1045.04 614.676 1042.38 616.087 1037.94C617.271 1034.18 620.655 1033.21 624.122 1032.35C627.547 1031.52 631.886 1033.16 634.606 1028.39C629.831 1023.68 619.554 1026.42 618.267 1017.07C620.987 1009.83 627.962 1011.92 633.672 1010.28C636.371 1004.01 633.464 1000.24 628.253 996.892C622.793 993.384 622.025 989.626 629 986.698C636.08 987.736 643.097 989.127 650.114 990.352C657.152 986.615 652.522 982.276 650.737 978.165C648.723 973.514 643.741 969.299 648.952 963.777C650.405 963.154 651.837 963.154 653.291 963.818C653.643 964.171 653.996 964.524 654.349 964.877C652.979 971.126 657.484 973.14 662.737 975.071C657.796 984.643 669.775 987.965 668.84 995.252C672.494 998.117 675.193 992.989 678.909 996.29C673.096 1008.77 659.747 1017.68 659.249 1033.99C661.408 1035.59 664.107 1037.59 666.827 1039.58C667.699 1044.83 663.692 1047.12 660.578 1049.94L660.536 1049.92Z" fill="#F2E0A9"/>
<path d="M810.034 968.908C813.024 969.24 816.2 968.327 819.792 970.631C823.217 979.435 817.383 989.837 823.093 998.37C817.799 1003.89 814.913 1000.65 812.422 996.958C808.311 997.187 807.75 1002.4 803.806 1002.27L802.789 1002.25H801.771C792.927 1003.23 793.675 995.588 795.398 992.245C799.425 984.459 800.463 974.888 808.02 969.012C808.705 969.012 809.37 968.97 810.055 968.929L810.034 968.908Z" fill="#EBD9A1"/>
<path d="M807.999 968.988C807.418 976.753 800.816 981.882 799.217 989.273C798.159 994.111 794.712 999.114 801.771 1002.23C800.65 1003.43 799.529 1004.62 798.802 1005.41C796.041 1002.25 793.633 999.488 789.688 994.983C789.397 987.176 803.245 981.55 798.968 969.424C802.622 969.258 805.3 969.113 807.999 968.988Z" fill="#F4E5B0"/>
<path d="M494.407 873.504C495.362 876.39 496.38 879.151 500.345 877.303C500.822 877.366 501.3 877.428 501.777 877.49C506.573 877.324 511.369 877.781 516.165 877.926C532.171 878.383 540.621 891.941 533.687 906.142C529.41 914.904 527.479 922.939 536.406 928.981C536.739 926.655 538.192 923.686 541.617 922.025C543.091 921.465 544.586 921.423 546.102 921.839C547.534 922.378 548.634 923.333 549.486 924.6C550.96 927.382 550.503 931.908 555.652 931.41C557.167 931.742 558.434 932.427 559.389 933.694C560.302 936.455 558.309 938.884 558.537 941.584C561.153 952.505 558.89 963.446 558.62 974.367C558.475 980.139 558.413 987.032 550.503 987.676C543.465 988.257 540.247 983.295 539.064 976.921C538.254 973.599 535.825 972.665 532.794 973.059C524.158 974.16 519.113 971.149 517.784 961.91C516.954 956.013 512.635 952.484 506.033 951.072C504.165 956.885 500.283 962.491 508.317 966.81C509.189 967.391 509.916 968.097 510.559 968.907C512.905 975.572 515.895 982.589 506.116 985.87C500.636 987.717 497.002 986.16 493.556 980.451C485.792 967.599 484.463 952.006 475.328 939.923C473.771 936.206 469.308 935.729 467.169 932.656C466.692 931.867 466.401 930.995 466.297 930.081C466.588 927.008 464.948 923.728 467.148 920.821C467.979 920.323 468.851 920.219 469.785 920.489C476.781 920.302 484.94 922.711 487.432 912.662C487.764 912.06 488.096 911.603 488.49 911.25C485.418 912.122 486.767 915.423 485.148 917.001C480.456 919.7 475.723 922.15 470.055 920.178C467.979 919.223 466.235 917.977 465.425 915.714C464.74 913.617 464.802 911.52 465.488 909.443C467.356 905.561 470.512 902.55 473.003 898.979C472.422 896.01 469.224 895.491 467.73 893.394C465.155 889.823 461.917 886.48 462.934 881.477C468 878.404 472.422 874.604 475.806 869.684C477.882 870.348 479.958 871.012 482.055 871.656C483.57 872.445 483.84 875.082 486.311 874.5C489.01 873.919 491.418 871.178 494.428 873.504H494.407Z" fill="#EFD998"/>
<path d="M454.985 885.898C454.985 885.171 454.985 884.444 454.985 883.739C455.462 879.711 451.102 875.517 455.4 871.634C462.064 869.413 468.936 869.579 475.808 869.662C477.178 879.316 472.735 883.033 463.414 881.766C461.379 884.735 460.694 890.445 454.964 885.898H454.985Z" fill="#F0D899"/>
<path d="M577.638 891.962C578.22 892.253 578.843 892.357 579.465 892.232C583.368 894.723 588.206 891.505 592.046 894.308C593.686 896.447 593.894 900.786 598.441 898.44C603.07 898.897 599.188 901.762 599.832 903.34C605.582 903.381 611.52 902.094 616.876 905.437C618.06 906.537 618.475 907.928 618.33 909.506C618.08 910.482 617.582 911.333 616.876 912.039C615.195 913.721 612.143 913.243 610.627 916.482C612.454 921.798 619.804 925.867 616.876 933.383C615.693 936.393 613.492 937.556 610.357 937.099C596.261 936.31 584.406 926.677 569.998 927.009C565.431 927.113 563.916 921.507 559.66 920.697C558.808 920.178 558.123 919.472 557.625 918.6C558.372 913.036 562.981 909.451 571.452 907.845C562.047 904.544 562.13 900.765 571.825 890.675C574.026 889.99 575.998 890.218 577.659 891.962H577.638Z" fill="#FAEEBB"/>
<path d="M617.003 906.703C607.889 906.184 598.671 907.7 589.516 905.769C590.305 899.789 599.315 905.644 598.443 898.44C600.394 894.329 603.861 896.924 606.664 896.571C611.314 898.689 616.567 895.844 621.197 898.336C623.065 900.786 625.536 898.336 627.612 899.125C629.75 899.935 631.016 901.513 630.103 903.651C629.169 905.81 627.28 906.163 625.307 904.627C623.875 905.312 622.442 905.977 621.01 906.662C619.702 907.949 618.373 907.887 617.024 906.703H617.003Z" fill="#F4ECC5"/>
<path d="M625.285 904.647C626.344 904.128 627.403 903.629 627.901 903.38C628.877 896.197 619.16 906.993 621.195 898.335C627.548 894.349 634.357 893.29 641.458 895.013C644.738 896.757 642.392 903.235 648.143 902.508C649.928 905.145 653.146 904.086 655.471 906.121C645.402 905.623 635.25 908.903 625.285 904.647Z" fill="#EBDFAD"/>
<path d="M570.852 886.502C570.229 884.571 569.627 882.64 568.734 879.816C576.478 880.045 581.066 883.429 583.558 889.969C582.229 890.011 580.921 890.052 579.592 890.115C576.603 889.118 572.575 890.613 570.852 886.502Z" fill="#C9BE9D"/>
<path d="M621.197 898.337C616.339 897.901 611.19 899.77 606.664 896.572C611.667 895.908 616.775 894.206 621.197 898.337Z" fill="#EBDFAD"/>
<path d="M592.046 894.329C587.79 893.976 583.368 894.745 579.465 892.253C583.845 891.776 588.247 891.215 592.046 894.329Z" fill="#6F6542"/>
<path d="M610.754 935.75C617.792 932.261 615.841 927.486 611.502 923.957C607.08 920.365 606.146 916.357 606.976 910.855H616.983C620.616 916.337 625.536 920.655 630.083 925.306C633.674 929.604 635.771 927.258 638.865 924.164C642.228 920.821 641.356 913.762 647.875 913.43C651.819 914.821 652.027 918.849 654.269 921.237L658.463 925.41C664.089 928.711 673.722 925.617 675.092 935.77C673.701 935.77 672.31 935.77 670.94 935.77C669.819 936.829 668.511 937.411 666.954 937.431C658.691 936.871 653.314 942.767 647.397 946.857C644.574 948.809 646.816 952.484 649.785 954.415C650.511 955.1 651.03 955.91 651.425 956.823C651.778 958.318 651.57 959.709 650.698 960.976C645.508 961.952 642.415 965.46 640.069 969.862C632.533 972.686 631.536 967.059 629.937 962.097C627.882 955.702 624.747 951.612 617.792 956.055C615.488 960.976 621.197 965.855 616.754 970.132C610.734 973.018 605.855 971.066 602.658 965.813C599.295 960.291 598.319 954.228 602.554 948.477C604.941 945.238 608.658 942.829 608.741 938.199C608.99 937.722 609.26 937.244 609.53 936.767C609.945 936.414 610.36 936.061 610.775 935.708L610.754 935.75Z" fill="#F8E7AE"/>
<path d="M666.808 935.727C668.179 935.727 669.57 935.768 670.94 935.768C672.455 939.173 674.054 942.537 675.507 945.962C677.313 950.239 680.241 952.565 685.099 952.087C695.832 951.028 697.181 959.25 700.462 966.123C695.147 970.192 689.562 973.244 685.742 968.469C676.047 956.385 665.48 960.122 654.352 964.815C651.342 962.842 653.086 958.524 650.221 956.51C645.612 947.063 646.068 944.488 655.888 942.225C660.767 941.104 660.02 932.135 666.829 935.727H666.808Z" fill="#FBF0C8"/>
<path d="M712.481 915.006C715.242 915.006 718.003 914.986 720.765 914.965C724.19 914.965 727.595 914.965 731.747 914.965C731.892 923 743.851 925.388 739.138 935.167C729.754 938.634 722.01 931.284 713.312 929.685C707.125 928.543 711.858 920.176 712.481 915.006Z" fill="#FCF2C5"/>
<path d="M721.366 945.174C727.387 945.133 731.58 937.741 737.892 942.475C744.597 947.5 740.196 954.455 741.815 961.473C734.508 960.954 728.528 960.538 722.84 960.144C719.705 955.431 720.888 950.988 721.366 945.174Z" fill="#FCE7B5"/>
<path d="M675.11 935.769C670.439 930.911 662.653 931.056 658.48 925.409C661.615 925.409 664.626 924.931 667.636 922.087C669.567 919.014 662.736 910.626 673.013 910.834C671.705 913.782 671.456 916.71 673.075 920.011C680.175 922.606 687.795 924.516 694.812 929.458C691.947 932.634 692.092 937.7 687.608 939.984C685.49 938.801 685.179 936.226 683.29 934.441C680.632 935.313 681.608 939.05 679.179 940.046C677.83 938.635 676.459 937.202 675.11 935.79V935.769Z" fill="#ECD995"/>
<path d="M679.179 940.023C678.12 934.812 676.418 929.393 683.809 926.029C685.677 930.701 689.123 934.521 687.629 939.961C685.677 944.072 682.729 944.051 679.262 941.996C679.262 941.331 679.221 940.687 679.179 940.023Z" fill="#E6CF84"/>
<path d="M627.361 927.443C624.537 924.702 621.963 921.63 618.849 919.304C615.527 916.813 614.946 914.259 616.98 910.854C620.655 907.553 625.534 911.664 629.292 908.861C632.883 909.11 636.745 907.802 639.817 910.833C645.257 915.92 640.502 919.263 637.824 923.041C635.208 926.716 633.091 931.284 627.361 927.443Z" fill="#EFD695"/>
<path d="M627.363 927.445C635.273 924.725 637.495 917.749 639.82 910.814C643.162 910.814 646.505 910.814 649.328 910.814C652.92 913.97 653.563 917.624 654.29 921.216C652.069 919.182 649.847 917.168 647.211 914.759C645.363 921.569 642.353 927.487 636.892 930.954C633.633 933.03 629.522 931.473 627.384 927.445H627.363Z" fill="#F2DEA1"/>
<path d="M629.292 908.84C625.638 912.224 621.112 910.335 616.98 910.833C616.98 909.463 616.98 908.072 616.98 906.702C618.309 906.702 619.638 906.681 620.967 906.66C623.25 909.255 626.385 908.591 629.271 908.84H629.292Z" fill="#F8E7AE"/>
<path d="M625.452 1064.6C623.688 1066.64 621.155 1066.47 618.809 1066.89C614.823 1066.66 610.837 1066.43 606.643 1066.18C605.667 1063.46 611.003 1059.1 604.671 1057.9C603.321 1058.1 602.18 1057.63 601.1 1056.88C599.834 1055.86 598.505 1054.99 596.761 1054.97C595.453 1054.89 594.187 1054.66 592.92 1054.28C587.003 1048.64 589.495 1039.58 584.471 1033.56C584.118 1031.09 584.99 1028.89 585.965 1026.73C588.187 1022.06 583.827 1017.87 584.969 1013.28C585.405 1012.39 586.111 1011.76 587.045 1011.39C594.124 1011.55 599.086 1016.52 601.764 1021.48C607.349 1031.76 613.162 1041.76 620.096 1051.15C620.885 1052.23 620.781 1053.79 620.761 1055.18C619.556 1059.68 624.622 1061.11 625.432 1064.64L625.452 1064.6Z" fill="#F0E1B3"/>
<path d="M631.515 1054.09C628.983 1053.47 626.45 1052.85 625.121 1052.52C621.031 1052 623.813 1058.89 619.059 1056.15C617.585 1050.61 615.53 1045.71 608.284 1046.81C610.236 1038.31 597.738 1019.25 586.008 1012.51C580.174 1011.78 581.046 1004.97 576.271 1003.14C579.24 997.371 579.593 991.329 583.973 987.156C584.243 987.156 584.596 987.073 584.907 987.156C585.198 987.239 585.447 987.509 585.717 987.696C583.454 979.225 588.001 969.944 582.624 961.847C579.219 959.335 574.361 960.435 571.33 957.155C569.399 951.985 575.295 952.089 576.707 949.182C580.008 946.047 583.433 942.413 588.395 945.507C593.731 948.808 596.7 954.123 596.72 960.29C596.762 969.612 595.661 978.872 592.381 986.824C594.125 985.101 593.502 981.094 596.305 978.934C605.917 980.969 616.256 993.302 615.924 1003.04C615.758 1008.02 615.862 1012.61 619.017 1016.7C623.896 1022.64 630.228 1023.7 636.851 1021.68C641.813 1026.09 637.308 1030.38 639.135 1033.85C631.619 1037.46 623.481 1032.17 617.689 1038.69C619.599 1046.52 630.706 1045.71 631.495 1054.03L631.515 1054.09Z" fill="#F6E7B6"/>
<path d="M619.036 1016.74C612.517 1018.49 609.652 1016.31 611.437 1009.47C613.534 1001.4 615.008 994.048 604.607 989.854C601.887 988.754 600.704 983.813 598.233 979.66C594.974 985.245 590.884 989.522 592.296 996.332C586.545 980.034 602.282 960.974 585.839 946.586C581.396 946.814 581.957 950.946 579.611 952.316C577.161 950.261 576.953 947.603 577.597 944.738C579.279 940.315 582.642 937.803 587.043 936.474C588.04 936.288 589.078 936.267 590.095 936.391C596.842 938.821 604.171 932.966 610.752 937.824C614.738 946.087 606.994 948.267 602.801 952.773C603.257 961.701 604.461 970.089 616.98 968.947C623.022 965.915 626.842 969.715 629.893 973.805C633.174 978.207 633.983 983.19 629.437 987.654C628.233 988.754 627.049 989.834 624.163 992.45C639.713 993.945 639.091 1004.06 638.405 1014.91C631.97 1015.1 625.015 1012.3 619.015 1016.74H619.036Z" fill="#EEDEA2"/>
<path d="M629.456 987.655C630.993 977.627 626.259 971.772 617 968.948C616.605 967.661 616.439 966.228 615.775 965.087C613.761 961.661 609.879 958.422 613.45 954.186C616.086 951.072 619.678 948.56 624.204 949.93C629.041 951.404 632.757 954.311 633.401 959.792C633.899 964.069 632.861 969.281 639.837 968.948C650.84 972.623 655.075 981.946 650.217 991.766C642.619 993.905 635.519 993.427 629.498 987.634L629.456 987.655Z" fill="#F9EABA"/>
<path d="M650.177 991.787C651.61 981.966 645.091 975.738 639.797 968.969C639.797 965.564 639.797 962.18 639.797 958.027C643.762 959.045 646.98 959.854 650.177 960.685C651.298 962.034 651.444 963.405 650.219 964.796C646.856 969.634 651.693 972.125 653.271 975.572C656.53 982.735 660.246 989.96 652.938 996.915C649.513 996.168 650.592 993.614 650.177 991.808V991.787Z" fill="#EADBA1"/>
<path d="M650.217 964.792C650.217 963.422 650.197 962.051 650.176 960.681C650.176 959.29 650.176 957.899 650.176 956.508C655.241 957.442 654.1 961.47 654.307 964.813C652.937 964.813 651.567 964.813 650.197 964.792H650.217Z" fill="#F9ECBD"/>
<path d="M579.611 944.033C579.611 946.794 579.611 949.555 579.611 952.317C576.87 953.729 574.109 955.14 571.369 956.552C576.621 962.075 571.036 966.684 569.604 971.439C575.168 976.546 584.427 977.854 583.763 987.654C584.323 993.343 583.763 998.679 578.718 1002.04C580.337 1005.36 582.704 1003.02 584.718 1004.1C582.725 1007.19 583.597 1009.99 585.984 1012.51L585.631 1012.71C585.008 1013.42 584.282 1013.98 583.431 1014.4C578.531 1015.02 573.673 1018.11 568.649 1014.81C565.161 1005.36 558.767 1010.91 553.473 1012.11C550.442 1012.8 549.217 1016.41 546.58 1018.01C544.131 1019.07 541.785 1018.86 539.542 1017.41C538.359 1016.58 537.404 1015.5 536.532 1014.35C535.349 1012.36 533.75 1010.62 532.733 1008.52C532.276 1007.09 532.359 1005.68 532.961 1004.31C533.501 1003.5 534.186 1002.83 534.996 1002.31C544.982 997.932 545.21 997.246 540.103 987.467C538.546 984.893 535.328 983.543 534.809 980.201C535.453 975.903 535.203 970.65 542.262 973.121C542.221 980.408 543.757 986.18 554.137 984.54C554.802 968.844 556.442 953.376 554.739 937.804C560.22 936.06 564.559 938.884 568.753 941.52C572.448 940.648 572.656 935.478 576.974 935.562C580.628 937.389 581.022 940.399 579.652 944.012L579.611 944.033Z" fill="#EDDDA3"/>
<path d="M450.997 941.977C451.018 939.901 451.039 937.825 451.06 935.769C452.451 934.295 454.008 932.904 454.236 930.724C455.046 922.98 459.551 922.191 465.758 924.557C466.859 926.073 468.706 927.319 467.544 929.623C467.461 930.288 467.461 930.952 467.544 931.637C474.478 934.253 475.371 941.147 476.761 946.669C480.27 960.539 486.893 974.325 479.357 989.211C476.761 994.34 474.935 999.551 468.519 1000.09C461.855 1000.63 461.71 994.838 459.945 990.478C458.7 987.343 457.143 984.249 455.17 981.446C455.066 979.453 454.963 977.439 454.859 975.446C452.575 968.075 453.032 960.497 452.928 952.94C452.887 949.223 453.717 945.278 450.977 942.019L450.997 941.977Z" fill="#FBEEC2"/>
<path d="M542.242 973.121C537.28 973.723 538.069 978.644 536.013 981.426C537.799 989.274 535.557 993.281 526.983 994.693C515.585 996.562 504.229 996.354 494.388 988.755C479.025 976.9 480.561 958.048 475.226 942.061C474.479 939.818 475.724 937.347 477.863 935.77C486.25 950.781 489.717 967.847 499.163 983.627C501.654 983.274 505.412 982.755 509.066 982.256C511.744 977.523 507.883 973.287 509.004 968.989C510.561 967.972 512.159 969.072 513.945 968.885C511.453 962.657 509.253 966.809 507.011 968.927C499.558 965.896 498.125 955.826 503.855 944.78C516.187 948.518 522.913 956.677 522.623 968.989C529.848 971.938 537.674 964.172 542.242 973.121Z" fill="#ECDCA1"/>
<path d="M477.863 935.767C476.97 948.64 483.365 960.121 485.15 972.558C485.939 977.977 494.534 981.07 496.568 987.631C497.129 988.13 497.357 988.669 497.274 989.272C497.191 989.874 497.087 990.185 496.942 990.185C493.973 993.299 489.655 991.161 485.711 993.216C483.074 998.448 480.209 1004.26 474.832 1008.21C468.292 1012.4 466.465 1006.03 463.144 1003L462.957 1002.19C459.656 995.521 454.113 989.708 455.171 981.403C463.351 983.396 462.915 990.891 464.41 996.476C469.102 999.092 472.818 996.476 473.462 993.59C475.766 983.437 483.032 974.51 477.593 962.343C473.275 952.688 473.275 941.124 467.524 931.594C470.97 932.985 474.417 934.355 477.842 935.746L477.863 935.767Z" fill="#F6E9B5"/>
<path d="M501.344 878.049C513.572 878.527 525.945 875.765 538.049 879.586C538.09 880.042 538.132 880.52 538.194 880.977C537.841 884.236 537.592 887.455 540.312 889.988C543.198 896.403 541.62 902.673 539.232 908.694C536.948 914.425 537.903 919.138 542.263 923.311C537.26 927.505 539.44 932.488 541.474 937.679C529.142 932.197 523.475 919.304 529.62 908.985C535.35 899.351 534.499 891.254 523.973 881.849C519.198 880.416 509.835 881.579 501.364 878.049H501.344Z" fill="#F4DFA2"/>
<path d="M454.985 885.9C457.684 886.004 459.968 886.108 460.092 882.122C460.175 879.734 462.106 880.419 463.414 881.769C466.798 884.447 467.919 888.454 469.58 892.15C474.148 898.358 471.199 903.59 467.483 908.76C467.442 911.064 467.379 913.369 467.338 915.674C466.528 916.068 465.656 916.193 464.764 916.11C461.255 915.424 458.141 913.805 455.131 911.936C453.345 911.397 452.183 910.047 450.958 908.781C451.248 900.974 449.401 892.794 454.985 885.921V885.9Z" fill="#F6E2AC"/>
<path d="M542.263 923.311C533.709 921.858 531.28 917.581 535.432 909.006C538.443 902.777 538.837 896.611 538.09 890.071C537.197 888.618 538.048 887.704 539.045 886.853C541.038 886.375 541.702 883.78 543.965 883.697C548.699 883.697 555.259 878.34 556.754 887.995C558.685 893.87 562.401 899.622 558.166 905.975C554.429 909.712 552.456 903.38 548.366 904.708C542.636 909.878 548.512 917.187 546.373 923.332H542.242L542.263 923.311Z" fill="#F8E7B0"/>
<path d="M579.612 944.032C578.636 941.935 577.64 939.859 576.623 937.7C572.221 940.586 574.65 945.735 571.391 949.555C566.014 945.403 562.069 938.925 554.699 937.804C556.069 936.412 557.44 935.021 558.81 933.63C558.229 931.762 559.35 931.056 560.844 930.578C564.145 931.139 566.574 929.291 569.273 927.838C578.512 922.896 585.446 926.696 587.896 937.804C585.135 939.88 582.353 941.956 579.591 944.032H579.612Z" fill="#F7E5AA"/>
<path d="M546.375 923.333C539.005 913.222 540.417 904.71 550.693 897.65C554.887 899.187 553.683 904.377 556.755 906.703C561.261 911.644 555.925 916.689 556.922 921.652C556.672 922.711 556.216 923.666 555.551 924.538C553.392 926.552 551.088 927.527 548.43 925.389C547.745 924.704 547.06 924.019 546.375 923.333Z" fill="#F9ECBA"/>
<path d="M560.863 931.47C560.863 930.827 560.884 930.162 560.946 929.519C562.607 926.072 562.545 922.605 560.988 919.137L561.05 918.992C567.258 915.213 565.908 922.895 569.209 924.266C576.558 922.812 584.115 923.892 590.468 928.294C594.226 930.91 597.797 931.74 602.011 931.595C605.644 931.47 608.945 932.072 610.793 935.726C604.066 938.259 596.904 936.64 590.032 937.803C589.347 937.803 588.662 937.803 587.956 937.803C585.942 935.519 583.991 933.152 581.894 930.951C578.344 927.235 574.918 926.114 570.621 930.494C568.13 933.048 564.849 938.841 560.905 931.47H560.863Z" fill="#F8E7AE"/>
<path d="M666.807 935.728C662.136 936.04 663.236 941.189 660.828 943.223C657.589 943.867 654.599 944.448 651.963 944.967C649.305 948.891 650.551 952.815 650.198 956.511C645.008 956.74 641.894 953.729 642.496 949.099C643.451 941.811 648.932 939.154 655.285 939.59C659.478 937.306 653.416 934.212 656.945 932.136C660.911 931.119 664.046 932.904 666.828 935.728H666.807Z" fill="#F9ECBD"/>
<path d="M589.992 937.826C596.573 933.653 603.86 936.643 610.753 935.75C610.753 936.435 610.753 937.141 610.753 937.826C605.584 940.775 598.421 936.311 594.248 943.162C592.504 940.982 591.238 939.404 589.992 937.826Z" fill="#F7E5AA"/>
<path d="M585.736 1033.37C582.663 1032.09 579.3 1029.24 577.411 1034.81C573.861 1038.46 571.12 1036.3 568.421 1033.58C567.114 1030.2 568.359 1027.64 571.037 1025.55C573.84 1023.91 576.954 1024.11 580.027 1024.07C583.12 1024.24 586.276 1024.18 588.103 1027.42C587.314 1029.41 586.525 1031.38 585.736 1033.37Z" fill="#D4C6A4"/>
<path d="M583.764 987.655C579.217 979.557 570.789 976.505 561.695 973.246C567.052 967.37 572.865 963.82 571.37 956.553C576.166 956.553 580.941 956.553 585.695 956.553C592.006 969.01 587.252 981.198 587.875 994.88C585.944 991.475 584.844 989.565 583.764 987.655Z" fill="#FAF0C5"/>
<path d="M496.568 989.752C496.568 989.046 496.568 988.361 496.589 987.655C504.748 991.974 513.841 991.787 522.54 992.057C528.851 992.264 536.159 990.811 536.013 981.447C538.899 981.551 540.975 982.921 542.283 985.496C543.093 993.22 541.079 999.697 534.103 1004L533.875 1004.39C532.11 1005.99 530.429 1007.73 528.145 1008.65C525.841 1009.31 523.599 1010.12 521.439 1011.22C513.384 1013.46 507.239 1020.83 498.021 1019.9C495.841 1018.96 495.135 1017.3 495.551 1015.04C497.461 1010.6 502.983 1010.68 505.973 1006.76C504.063 1000.57 494.035 998.431 496.526 989.752H496.568Z" fill="#F2E4AE"/>
<path d="M496.569 989.754C499.974 995.339 504.23 1000.16 509.607 1004.04C507.801 1011.01 503.482 1014.44 496.569 1014.69C493.143 1016.79 489.676 1017.89 486.168 1014.88C484.341 1008.73 479.794 1006.51 473.815 1006.41C470.576 999.844 481.393 1003.5 480.064 997.602C479.13 993.429 482.182 990.044 485.524 986.826C489.054 987.802 492.396 990.667 496.59 989.733L496.569 989.754Z" fill="#F8EAC2"/>
<rect y="712" width="1549" height="312" fill="url(#paint2_linear_163_43)"/>
</g>
<defs>
<linearGradient id="paint0_linear_163_43" x1="774.5" y1="0" x2="774.5" y2="1024" gradientUnits="userSpaceOnUse">
<stop stop-color="#F5AE22"/>
<stop offset="0.459572" stop-color="#F3BD39"/>
<stop offset="0.750732" stop-color="#F5CD5B"/>
<stop offset="1" stop-color="#FCD872"/>
</linearGradient>
<linearGradient id="paint1_linear_163_43" x1="669.5" y1="712" x2="669.5" y2="1163.25" gradientUnits="userSpaceOnUse">
<stop stop-color="#FAECB2"/>
<stop offset="1" stop-color="#F8EECE"/>
</linearGradient>
<linearGradient id="paint2_linear_163_43" x1="706.5" y1="712" x2="699.223" y2="1023.99" gradientUnits="userSpaceOnUse">
<stop offset="0.0639996" stop-color="#FCCC6D"/>
<stop offset="0.344" stop-color="#B8985E"/>
<stop offset="0.699" stop-color="#4A463F" stop-opacity="0.93"/>
<stop offset="0.929" stop-color="#18191C"/>
</linearGradient>
<clipPath id="clip0_163_43">
<rect width="1549" height="1024" fill="white"/>
</clipPath>
</defs>
</svg>
