<svg width="1150" height="1150" viewBox="0 0 1150 1150" fill="none" xmlns="http://www.w3.org/2000/svg">
<path d="M358.099 895.195C361.677 897.519 365.304 899.794 368.97 902.017L269.86 805.195L423.031 811.195L293.181 788.291L402.642 702.07L264.887 769.799L314.12 644.773L248.475 764.259L214.585 649.69L224.517 720.418C224.737 720.945 224.96 721.477 225.187 722.016C229.115 731.363 233.428 742.336 234.77 746.402C237.817 755.628 241.105 769.162 240.452 769.799C240.05 770.192 233.537 757.283 228.08 745.794L231.45 769.799L199.364 744.483C200.829 749.863 204.516 755.526 212.083 766.492C219.602 777.389 228.327 793.993 228.327 797.405C228.327 798.343 228.749 799.52 229.264 800.023C229.779 800.525 230.763 802.853 231.45 805.195C233.012 810.519 234.498 810.708 237.765 805.999C240.571 801.958 243.972 783.939 242.68 779.968C240.976 774.726 244.275 778.207 250.57 788.291C264.504 810.614 280.072 829.423 303.257 851.947L358.099 895.195Z" fill="white" fill-opacity="0.989"/>
<path d="M227.706 844.621C225.646 841.608 223.643 838.87 223.252 838.535C222.959 838.283 219.966 834.054 215.977 828.277L215.857 828.103L174.873 944.218L228.194 845.334C228.031 845.096 227.868 844.858 227.706 844.621Z" fill="white" fill-opacity="0.989"/>
<path d="M202.02 808.068L90.3306 879.58L209.979 819.535C207.461 815.87 204.673 811.856 202.02 808.068Z" fill="white" fill-opacity="0.989"/>
<path d="M193.344 795.859C186.956 787.089 183.475 782.247 181.944 779.581L59 774.335L193.887 796.605C193.699 796.346 193.518 796.097 193.344 795.859Z" fill="white" fill-opacity="0.989"/>
<path d="M181.524 744.16C181.178 743.093 180.826 742.032 180.47 740.99C178.642 735.641 177.087 730.879 175.75 726.5C175.662 726.214 175.576 725.93 175.49 725.647L119.175 681.215L181.524 744.16Z" fill="white" fill-opacity="0.989"/>
<path d="M277.012 930.865C275.373 930.122 273.75 929.406 272.146 928.719L281.795 964.821L277.012 930.865Z" fill="white" fill-opacity="0.989"/>
<path d="M1003.5 762.466C1002.19 764.402 994.574 775.862 986.572 787.933C978.571 800.005 964.065 821.859 954.338 836.501C944.61 851.142 936.651 863.624 936.651 864.24C936.651 864.856 936.154 865.359 935.548 865.359C934.941 865.359 934.097 866.32 933.673 867.493C933.248 868.666 932.575 870.313 932.174 871.151C931.281 873.021 938.679 873.253 943.396 871.502C944.851 870.962 946.258 870.779 946.855 871.012C947.598 870.059 948.332 869.108 949.057 868.159C948.739 867.418 947.531 867.232 945.274 867.555C942.004 868.023 941.478 867.754 941.887 865.82C942.254 864.078 943.313 863.602 946.314 863.831C949.881 864.102 950.911 863.284 957.056 855.296C960.795 850.436 964.979 844.54 966.356 842.192C967.731 839.845 972.011 832.865 975.865 826.679C977.562 823.956 979.123 821.359 980.339 819.255C981.202 817.608 982.049 815.956 982.883 814.3C983.056 813.413 985.667 807.943 988.835 801.846C988.883 801.753 988.932 801.659 988.981 801.564C994.964 788.434 1000.25 774.884 1005.34 760.489C1004.83 760.784 1004.2 761.424 1003.5 762.466Z" fill="white" fill-opacity="0.989"/>
<path fill-rule="evenodd" clip-rule="evenodd" d="M653.072 92.5057C634.236 97.3329 615.912 107.432 597.874 122.928C580.373 137.964 560.264 146.637 533.517 150.683C525.41 151.911 516.675 153.79 514.107 154.862C506.715 157.943 498.332 164.064 496.331 167.844C494.643 171.029 489.083 174.015 484.839 174.015C483.9 174.015 485.766 171.549 488.989 168.535C492.212 165.521 494.457 162.674 493.98 162.207C493.501 161.741 492.303 162.483 491.318 163.857C488.92 167.199 480.299 170.68 464.435 174.712C446.612 179.243 440.328 182.239 430.081 191.098C425.271 195.256 420.108 199.463 418.608 200.446C417.109 201.428 413.526 205.212 410.649 208.851L405.417 215.471H395.67C390.31 215.471 383.124 216.101 379.704 216.872C374.02 218.152 373.189 218.047 370.071 215.653C366.054 212.57 365.481 212.513 360.312 214.691C358.147 215.603 353.037 217.31 348.958 218.483C340.1 221.031 334.513 225.886 334.513 231.034C334.513 232.991 335.35 237.286 336.373 240.578C337.397 243.87 338.24 249.169 338.247 252.355C338.26 257.675 338.508 258.147 341.303 258.147C346.781 258.147 350.611 260.41 353.086 265.109C356.335 271.279 364.375 280.09 364.443 277.557C364.472 276.497 363.092 272.931 361.377 269.631C359.662 266.333 358.257 262.94 358.254 262.091C358.248 260.172 365.55 255.719 368.714 255.713C370.005 255.71 374.663 253.977 379.067 251.861C387.058 248.02 387.094 248.015 397.334 249.382C402.977 250.136 412.566 251.347 418.644 252.072C438.706 254.47 443.559 259.804 435.754 270.876C431.379 277.084 425.391 291.29 421.079 305.699C416.425 321.252 412.611 328.064 406.765 331.271C399.662 335.168 393.43 334.888 389.844 330.512C386.174 326.037 386.224 321.261 390.046 310.981C391.733 306.449 392.888 302.522 392.615 302.255C392.341 301.989 390.677 303.288 388.917 305.141C385.683 308.547 381.985 318.395 381.985 323.601C381.985 326.098 381.366 326.439 376.675 326.524C373.756 326.576 372.209 326.921 373.24 327.288C374.271 327.657 378.066 330.15 381.675 332.83C390.354 339.274 396.617 340.075 405.19 335.834C415.161 330.904 418.778 326.565 423.198 314.235C429.865 295.635 444.447 275.541 444.447 284.954C444.447 286.286 445.127 289.853 445.956 292.882C447.357 297.992 447.222 298.858 444.082 304.909C442.219 308.503 440.699 313.455 440.699 315.942C440.699 322.077 437.924 326.847 432.552 329.939C430.082 331.362 428.348 332.98 428.7 333.536C429.051 334.091 432.598 335.299 436.581 336.219C442.289 337.538 444.942 339.007 449.106 343.154C455.504 349.526 459.772 351.378 463.533 349.413L466.217 348.012L463.492 347.028C459.874 345.722 457.318 339.292 457.74 332.564C457.94 329.382 457.476 326.751 456.624 326.237C455.571 325.602 455.759 324.717 457.302 323.053C458.476 321.786 459.438 320.137 459.438 319.39C459.438 318.642 460.423 317.301 461.624 316.411C465.796 313.319 469.626 308.377 470.063 305.521C471.437 296.535 472.241 292.638 473.166 290.458C473.736 289.117 474.517 287.059 474.901 285.886C475.304 284.657 476.838 283.752 478.518 283.752C482.177 283.752 491.421 278.08 500.562 270.227C508.853 263.104 518.308 258.154 523.673 258.127C528.733 258.103 541.782 255.08 543.323 253.577C544.593 252.337 537.528 248.392 534.035 248.392C533.015 248.392 530.57 247.573 528.602 246.571C523.792 244.122 522.307 244.236 512.651 247.783C504.104 250.922 499.414 251.626 499.414 249.769C499.414 249.185 502.084 248.354 505.348 247.924C508.612 247.494 515.779 245.19 521.276 242.805C536.16 236.348 542.589 234.69 549.876 235.427C559.383 236.389 562.542 237.311 572.965 242.162C578.121 244.561 589.091 254.944 594.345 262.397C598.205 267.873 599.851 269.364 598.642 266.29C598.293 265.404 597.55 256.487 596.99 246.477C596.431 236.465 595.55 227.314 595.032 226.14C594.513 224.966 594.572 224.015 595.16 224.024C595.749 224.034 598.518 228.286 601.314 233.474C605.305 240.881 606.915 242.818 608.81 242.497C610.136 242.271 614.323 241.715 618.112 241.259C621.901 240.805 626.679 239.307 628.73 237.933C640.521 230.033 670.037 227.946 691.174 233.517C703.666 236.81 719.037 244.816 728.027 252.715C729.744 254.223 733.398 255.743 736.147 256.093C738.895 256.443 743.674 257.358 746.765 258.126C749.857 258.895 754.355 259.9 756.759 260.36C768.021 262.511 796.033 283.472 811.839 301.573C821.357 312.474 831.99 326.35 836.024 333.134C837.543 335.689 836.75 335.148 833.394 331.341C804.628 298.702 786.609 284.323 765.504 277.16C757.901 274.58 738.933 274.505 736.771 277.046C735.512 278.527 735.557 278.875 737.008 278.875C737.993 278.875 739.983 279.951 741.431 281.268C742.879 282.585 749.59 287.228 756.346 291.588C772.119 301.767 778.408 306.148 786.117 312.331C789.552 315.086 794.612 318.967 797.36 320.955C803.77 325.594 838.375 359.3 844.871 367.232C847.597 370.561 851.972 375.5 854.593 378.205C857.214 380.911 860.235 384.738 861.306 386.71C861.711 387.454 863.812 390.504 866.837 394.894L866.841 394.9C878.246 411.454 902.771 447.049 898.983 449.959C897.997 449.063 895.65 447.539 892.875 445.947C896.202 448.751 898.458 450.362 898.983 449.959C901.957 452.666 910.417 468.403 910.417 471.232C910.417 472.082 910.913 473.73 911.52 474.895C917.308 485.999 927.357 518.776 929.1 532.236C929.647 536.455 930.399 540.205 930.772 540.571C932.075 541.843 937.844 528.099 937.882 523.633C937.892 522.45 938.394 520.53 938.996 519.365C941.343 514.832 942.898 508.298 942.898 502.965C942.898 499.899 943.813 493.079 944.931 487.811C946.93 478.393 946.769 459.541 944.611 450.31C943.026 443.534 946.242 448.185 948.923 456.547C954.553 474.113 957 501.118 954.224 515.055C953.584 518.273 952.399 526.393 951.595 533.099C950.672 540.783 947.912 552.283 944.132 564.192C940.834 574.586 937.747 584.914 937.275 587.141C936.801 589.368 936.162 590.944 935.853 590.643C935.544 590.342 934.75 583.581 934.088 575.619C933.426 567.658 932.426 558.674 931.865 555.656L930.846 550.17L926.842 562.18C920.296 581.818 917.984 594.686 914.099 633.082C912.543 648.46 908.974 661.144 903.977 669.052C901.156 673.515 900.865 674.614 902.418 674.947C904.419 675.376 920.732 668.009 921.452 666.352C921.682 665.825 922.377 665.394 923 665.394C925.684 665.394 929.157 660.964 929.186 657.502C929.202 655.471 929.812 651.615 930.541 648.933C931.85 644.118 933.344 630.326 934.925 608.457C935.688 597.9 935.853 597.385 937.754 599.648C939.452 601.668 940.711 601.924 945.647 601.253C951.071 600.517 951.713 600.051 954.079 595.14C955.487 592.216 956.639 588.481 956.639 586.841C956.639 585.201 957.229 582.344 957.95 580.494C958.671 578.643 959.296 570.515 959.339 562.43L959.416 547.731L962.412 556.876C966.969 570.788 968.291 581.397 967.348 596.503C966.417 611.383 964.35 619.792 958.985 630.509C957.008 634.46 955.39 638.392 955.39 639.248C955.39 640.104 954.969 640.987 954.453 641.211C953.937 641.434 950.719 644.909 947.301 648.933C940.105 657.402 935.676 661.469 932.591 662.434C931.253 662.854 930.405 664.343 930.405 666.271C930.405 674.763 914.433 726.929 908.965 736.298C907.298 739.155 907.293 739.153 906.9 735.176C906.277 728.852 904.156 731.932 904.316 738.929C904.396 742.41 904.718 744.297 905.031 743.124C905.346 741.951 906.038 740.99 906.571 740.99C907.59 740.99 909.155 761.371 909.185 775.016C909.205 784.365 910.146 788.649 912.13 788.419C919.065 787.612 919.482 788.104 918.934 796.487C918.52 802.853 917.89 804.789 915.765 806.243C914.306 807.239 912.806 809.563 912.43 811.406C911.545 815.74 913.399 860.141 914.51 861.225C915.835 862.518 918.272 860.015 928.659 846.693C933.987 839.859 938.7 833.993 939.132 833.657C939.566 833.322 940.73 831.891 941.721 830.476C942.711 829.063 947.535 823.576 952.439 818.283C957.343 812.991 964.629 804.546 968.632 799.517C972.633 794.487 981.592 783.513 988.538 775.131C1012.08 746.721 1012.1 746.683 1019.62 717.214C1025.25 695.125 1031.77 652.968 1029.85 651.09C1029.43 650.686 1029.1 651.038 1029.1 651.87C1029.1 655.256 1018.52 679.477 1013.97 686.509C1011.29 690.655 1008.71 694.87 1008.24 695.876C1005.87 700.978 990.112 722.12 981.023 732.391C968.503 746.537 948.905 765.129 937.9 773.298L929.78 779.325L940.796 767.778C957.521 750.246 974.572 727.618 981.652 713.556C982.665 711.544 983.824 709.624 984.226 709.288C985.502 708.226 997.538 683.3 1000.74 675.097C1004.45 665.578 1007.32 655.377 1010.26 641.22C1012.01 632.781 1011.99 607.318 1010.23 599.873C1006.24 583.027 1005.87 581.975 999.948 570.288C997.399 565.258 995.323 560.458 995.338 559.619C995.373 557.662 1001.44 557.674 1004.87 559.637C1006.32 560.465 1010.26 563.187 1013.62 565.685C1022.41 572.223 1026.52 571.623 1026.63 563.787C1026.66 561.702 1026.9 561.53 1027.75 562.972C1029.18 565.425 1031.31 588.353 1032.36 612.681C1032.83 623.591 1033.38 632.355 1033.58 632.158C1035.46 630.326 1038.03 595.079 1039.03 557.485C1039.85 526.435 1040.77 510.196 1041.99 505.392C1044.02 497.309 1042.79 497.329 1038.59 505.447C1034.78 512.815 1030.91 528.593 1029.04 544.436C1028.22 551.343 1027.39 556.829 1027.19 556.629C1026.99 556.429 1026.21 553.019 1025.47 549.05C1024.72 545.081 1023.33 540.966 1022.38 539.905C1021.43 538.845 1020.36 534.087 1019.99 529.332C1019.25 519.806 1017.56 512.87 1010.35 489.814C1009.83 488.138 1008.73 484.297 1007.92 481.279C1007.11 478.261 1005.92 474.107 1005.27 472.048C1003.56 466.53 1003.85 459.952 1006.11 453.202C1008.07 447.379 1008.04 447.106 1005.21 442.609C1002.63 438.505 967.409 395.019 965.428 393.489C964.994 393.154 963.288 390.959 961.636 388.612C959.985 386.265 958.306 384.07 957.906 383.735C957.506 383.399 954.406 379.284 951.016 374.59C934.39 351.562 922.785 338.304 900.464 316.839C884.238 301.234 873.348 291.997 874.397 294.726C874.783 295.732 876.65 301.493 878.545 307.528C880.44 313.564 882.484 319.454 883.087 320.619C883.689 321.783 884.183 323.809 884.183 325.119C884.183 326.43 884.745 327.842 885.432 328.257C886.119 328.671 886.681 330.317 886.681 331.914C886.681 333.512 887.243 335.158 887.93 335.572C888.618 335.987 889.18 337.345 889.18 338.591C889.18 339.836 889.622 341.038 890.163 341.263C890.959 341.592 893.428 346.03 898.861 356.896C899.034 357.238 897.512 357.472 895.482 357.412C891.567 357.3 884.01 352.973 878.734 347.823C876.983 346.114 875.02 344.717 874.37 344.717C872.643 344.717 853.791 326.55 850.329 321.55C848.705 319.203 845.959 315.722 844.229 313.814C842.499 311.906 841.14 309.849 841.209 309.242C841.277 308.634 841.418 307.344 841.521 306.372C841.652 305.132 843.66 304.498 848.267 304.239L854.825 303.87L855.951 297.392C857.008 291.314 856.803 290.394 852.63 282.456C850.184 277.804 848.609 273.998 849.128 273.998C849.647 273.998 854.937 277.579 860.882 281.955C866.826 286.332 871.69 289.638 871.69 289.301C871.69 287.065 863.015 270.887 858.497 264.697C842.808 243.203 820.249 231.044 784.243 224.674C772.2 222.544 750.513 220.518 750.513 221.524C750.513 221.889 754.027 223.516 758.321 225.138C770.049 229.565 777.016 232.685 776.438 233.25C776.154 233.526 772.875 233.219 769.151 232.564C765.428 231.911 748.608 229.97 731.774 228.253C699.621 224.972 681.608 221.964 674.309 218.656L669.937 216.675L675.558 217.401C678.65 217.802 684.834 218.611 689.3 219.198C693.766 219.787 707.539 220.263 719.907 220.256L742.393 220.243L734.273 217.769C729.807 216.409 724.037 214.696 721.451 213.963C713.116 211.602 712.974 210.478 719.863 201.337C721.491 199.176 720.955 198.825 712.359 196.415C706.715 194.832 699.481 194.283 682.429 194.147C670.062 194.048 658.818 193.486 657.444 192.899C647.884 188.813 650.507 180.825 663.69 173.877C669.477 170.828 669.073 168.449 662.209 165.137C646.969 157.783 633.407 157.961 616.91 165.73C612.064 168.011 608.099 169.53 608.099 169.105C608.099 167.299 619.814 160.344 628.725 156.862C638.274 153.129 644.23 151.684 658.693 149.59C672.433 147.6 675.576 146.929 676.268 145.837C676.646 145.239 678.082 144.752 679.458 144.752C684.057 144.752 695.973 138.117 703.385 131.432C711.348 124.249 717.067 116.821 720.11 109.714L722.049 105.185L717.031 110.083C710.988 115.981 700.523 121.741 693.679 122.936C690.926 123.416 686.284 124.678 683.362 125.74C679.998 126.963 671.977 127.914 661.5 128.331C645.66 128.963 636.058 130.214 627.066 132.821C624.787 133.48 622.581 133.688 622.164 133.282C621.061 132.205 626.233 122.796 630.269 118.537C633.355 115.28 643.487 106.315 648.415 102.483C649.42 101.702 654.956 98.5534 660.715 95.4881C670.411 90.3268 670.862 89.9219 666.813 90.0097C664.409 90.0622 658.225 91.1851 653.072 92.5057ZM453.923 201.509C450.372 202.445 446.612 204.457 445.009 206.278C442.782 208.808 442.094 209.064 441.51 207.58C440.914 206.065 440.212 205.985 437.619 207.14C435.877 207.914 434.453 209.239 434.453 210.087C434.453 212.461 440.744 219.206 444.132 220.463C447.903 221.863 456.255 218.523 461.662 213.456C465.141 210.194 470.666 202.37 470.676 200.689C470.685 199.335 460.229 199.847 453.923 201.509ZM351.503 228.247C346.161 230.105 343.941 232.477 345.824 234.314C346.609 235.08 350.233 233.924 356.078 231.044C364.673 226.811 364.904 226.589 360.748 226.57C358.343 226.561 354.183 227.314 351.503 228.247ZM782.994 235.577C782.994 235.905 788.002 238.629 794.123 241.63C807.485 248.18 824.073 257.621 836.343 265.661C841.294 268.905 845.702 271.559 846.141 271.559C846.579 271.559 844.6 268.834 841.743 265.504C832.799 255.075 816.202 245.768 792.457 237.861C783.006 234.714 782.994 234.71 782.994 235.577ZM615.943 246.868C607.477 254.511 606.385 265.178 613.788 267.927C615.95 268.729 619.375 268.69 624.117 267.811C636.558 265.501 641.716 265.186 645.567 266.496C650.987 268.34 650.531 265.482 644.639 260.669C637.611 254.928 637.005 254.489 636.126 254.489C635.681 254.489 632.676 251.745 629.451 248.392C626.225 245.039 623.006 242.296 622.296 242.296C621.587 242.296 618.727 244.354 615.943 246.868ZM695.089 244.367C694.653 244.793 694.297 246.772 694.297 248.765C694.297 253.005 691.346 255.614 686.489 255.669C684.599 255.691 683.054 256.123 683.054 256.63C683.054 257.558 687.647 259.722 692.599 261.125C694.07 261.544 697.724 261.051 700.719 260.033C703.714 259.015 708.132 258.15 710.537 258.11C712.942 258.071 717.637 257.337 720.97 256.48L727.03 254.92L716.555 249.737C706.916 244.966 697.013 242.49 695.089 244.367ZM693.341 270.003C689.2 274.96 689.87 283.169 694.702 286.677C697.766 288.902 699.985 289.241 711.567 289.255C718.902 289.263 726.449 289.734 728.339 290.301C731.202 291.16 731.774 290.968 731.774 289.145C731.774 287.942 730.571 285.708 729.102 284.181C727.632 282.655 725.806 280.238 725.042 278.813C723.557 276.039 707.474 268.562 700.366 267.34C696.82 266.731 695.732 267.144 693.341 270.003ZM312.651 306.34C299.618 309.149 274.92 318.872 263.931 325.519C236.807 341.929 221.992 352.576 203.401 369.021C188.436 382.258 181.583 388.762 173.879 397.036L167.739 403.631L179.606 397.815C186.134 394.616 192.45 391.512 193.643 390.915C194.836 390.319 196.911 389.831 198.254 389.831C199.597 389.831 201.044 389.283 201.468 388.612C202.689 386.686 216.263 387.181 220.639 389.311C224.126 391.009 224.576 391.815 224.552 396.322C224.534 399.491 223.601 402.567 222.081 404.463C220.737 406.139 219.625 407.976 219.61 408.543C219.595 409.11 218.522 411.03 217.226 412.81C214.277 416.863 201.016 442.666 196.451 453.235C194.569 457.594 192.306 462.807 191.423 464.818C188.927 470.506 180.856 493.556 180.856 494.995C180.856 495.703 184.019 491.398 187.885 485.428C201.23 464.822 212.946 446.522 214.351 444.09C215.125 442.749 215.776 442.325 215.797 443.148C215.891 446.852 208.49 462.807 192.366 493.663C179.592 518.11 174.401 529.344 172.903 535.778C169.842 548.938 170.271 569.408 174.137 594.674C177.493 616.597 178.513 635.213 176.709 641.554C175.307 646.483 173.419 643.45 173.335 636.13C173.262 629.7 171.384 620.845 166.372 603.301L162.742 590.589L161.871 602.691C160.088 627.495 162.924 664.167 169.471 700.979C170.871 708.844 172.695 716.404 175.49 725.647L199.364 744.483C198.113 739.888 198.482 735.499 199.44 728.188C200.555 719.672 200.436 717.9 198.511 714.24C197.298 711.934 195.717 709.855 194.998 709.623C193.466 709.124 192.189 715.676 191.974 725.139L191.823 731.846L190.148 725.139C184.52 702.602 184.57 652.749 190.248 626.505C194.876 605.108 195.395 604.322 196.371 617.231C199.227 654.976 205.325 687.978 212.562 704.865C213.675 707.462 214.585 710.622 214.585 711.889C214.585 713.156 215.622 716.518 216.89 719.361C218.158 722.203 219.917 726.725 220.798 729.407C221.582 731.793 224.619 738.508 228.08 745.794C233.537 757.283 240.05 770.192 240.452 769.799C241.105 769.162 237.817 755.628 234.77 746.402C233.428 742.336 229.115 731.363 225.187 722.016C224.96 721.477 224.737 720.945 224.517 720.418C210.471 686.844 208.11 676.129 207.442 644.773C206.996 623.836 207.24 619.895 209.552 610.632C211.748 601.842 224.011 563.148 227.168 555.047C227.691 553.706 228.485 551.236 228.932 549.56C229.379 547.883 230.272 544.591 230.918 542.244C232.618 536.052 235.788 514.311 235.715 509.323C235.639 504.046 235.078 505.215 229.584 522.126C227.405 528.832 224.192 537.611 222.443 541.634C219.13 549.256 218.333 551.112 212.757 564.192C210.899 568.551 208.019 575.009 206.36 578.545C204.7 582.081 203.342 585.71 203.342 586.61C203.342 587.509 201.682 591.75 199.652 596.032C197.024 601.579 195.945 602.967 195.904 600.857C195.873 599.228 195.173 596.08 194.351 593.86C193.142 590.595 193.273 587.085 195.04 575.483C196.242 567.597 197.757 557.439 198.409 552.913C199.061 548.387 200.149 540.978 200.826 536.452C201.503 531.926 202.307 526.302 202.611 523.955C203.252 519.002 204.249 514.11 205.841 508.104C206.463 505.756 208.189 498.898 209.677 492.862C213.384 477.831 222.385 448.826 224.712 444.412C225.327 443.248 225.829 441.732 225.829 441.046C225.829 440.358 227.018 437.196 228.472 434.018C229.926 430.84 231.955 426.319 232.981 423.972C234.006 421.625 235.582 418.201 236.481 416.363C237.38 414.526 238.472 411.445 238.906 409.517C240.57 402.124 248.862 397.701 250.095 403.548C250.414 405.058 250.902 410.158 251.183 414.884C251.866 426.379 257.422 437.8 266.91 447.203C277.996 458.191 287.222 458.222 288.93 447.276C290.653 436.228 292.758 429.438 296.013 424.429C297.95 421.449 299.534 418.754 299.534 418.442C299.534 418.13 297.427 417.863 294.85 417.848C289.653 417.819 281.073 414.448 278.515 411.431C277.604 410.357 276.073 406.572 275.114 403.023C269.445 382.048 288.696 341.73 319.397 310.272C325.737 303.777 325.416 303.59 312.651 306.34ZM303.257 851.947L260.908 816.53L273.073 902.9C274.848 904.814 276.691 906.802 278.297 908.536C282.076 912.613 288.773 919.656 293.181 924.186C297.588 928.715 300.887 932.421 300.513 932.421C300.138 932.421 295.97 930.986 291.251 929.232C286.317 927.4 281.149 925.691 276.071 924.184C274.201 923.629 272.342 923.101 270.512 922.605C259.559 919.634 249.622 917.785 244.174 917.894C239.261 917.992 239.488 918.134 247.939 920.267C255.187 922.095 263.389 924.972 272.146 928.719C273.75 929.406 275.373 930.122 277.012 930.865C286.921 935.362 297.422 940.885 307.974 947.194C326.357 958.183 340.76 965.927 340.76 964.821C340.76 964.515 337.245 961.65 332.952 958.454C318.448 947.661 304.22 935.57 305.523 935.146C306.235 934.914 310.941 936.808 315.981 939.355L317.177 939.96C323.813 943.314 326.293 944.567 326.559 944.218C326.717 944.009 326.088 943.231 325.083 941.988C324.986 941.868 324.885 941.742 324.78 941.613C322.709 939.043 322.368 937.724 323.325 935.979C324.379 934.055 324.036 933.586 321.111 932.973C311.887 931.038 313.141 929.953 323.895 930.567C340.842 931.536 358.333 935.978 370.094 942.301C389.52 952.745 404.992 971.442 408.217 988.37C410.23 998.936 410.212 998.942 399.286 991.427C390.256 985.217 368.642 975.623 355.751 972.105C352.834 971.309 352.875 971.424 356.375 973.845C362.951 978.392 386.034 991.59 395.727 996.345C400.88 998.873 406.501 1001.65 408.219 1002.51C409.937 1003.38 420.056 1007.5 430.705 1011.66C441.355 1015.83 451.193 1019.71 452.567 1020.29C453.942 1020.87 459.001 1022.51 463.811 1023.92C468.62 1025.34 473.961 1026.97 475.678 1027.55C491.879 1033.01 530.664 1040.05 559.197 1042.71C603.582 1046.85 650.094 1043.38 698.045 1032.34C700.449 1031.79 705.228 1030.69 708.663 1029.89C722.183 1026.76 754.737 1015.43 771.126 1008.14C773.874 1006.92 778.934 1004.69 782.369 1003.18C785.804 1001.67 789.74 999.842 791.114 999.118C792.488 998.394 795.861 996.733 798.609 995.426C801.358 994.12 806.417 991.336 809.852 989.239C813.288 987.142 819.191 983.839 822.97 981.899C826.749 979.958 831.418 977.3 833.348 975.99C833.653 975.783 834.044 975.513 834.489 975.207C836.858 973.572 840.737 970.896 841.059 971.21C840.769 970.929 842.699 967.435 845.346 963.447C847.993 959.46 857.259 945.55 865.935 932.535C874.612 919.522 881.538 908.705 881.324 908.497C881.112 908.29 846.71 917.166 804.878 928.223C763.044 939.279 728.328 948.167 727.728 947.972C727.13 947.777 735.806 944.231 747.009 940.093C767.841 932.396 800.516 920.194 836.087 906.825C847.08 902.693 860.742 897.646 866.447 895.61C872.152 893.573 876.65 891.744 876.441 891.544C876.232 891.345 864.819 887.003 851.078 881.897C837.336 876.79 823.363 871.536 820.028 870.219L813.964 867.827L806.954 873.604C798.131 880.876 797.906 881.048 787.366 888.581C770.444 900.676 731.774 922.804 731.774 920.394C731.774 919.752 736.694 914.713 742.705 909.194C748.718 903.674 752.231 899.858 750.513 900.712C743.957 903.97 712.537 927.463 713.49 928.395C713.717 928.614 717.096 927.416 721 925.731C724.904 924.045 728.362 922.666 728.683 922.666C729.004 922.666 725.467 927.551 720.824 933.521C712.138 944.688 709.283 949.234 702.376 962.903C695.677 976.163 692.919 985.26 692.83 994.389C692.738 1004.07 694.536 1007.67 701.609 1011.96C705.467 1014.3 707.844 1014.72 717.126 1014.67L728.085 1014.61L721.605 1018.6C718.041 1020.79 710.861 1024.37 705.648 1026.54C697.436 1029.97 694.724 1030.5 685.336 1030.54C676.322 1030.57 673.908 1030.15 670.97 1028.06C662.1 1021.73 660.015 1007.35 665.561 990.738C667.201 985.823 669.438 980.431 670.534 978.754C671.629 977.078 673.333 974.06 674.32 972.048C678.17 964.203 686.229 953.717 696.182 943.602C701.902 937.788 706.453 932.906 706.296 932.752C706.139 932.599 700.985 934.412 694.844 936.782C688.703 939.151 680.586 941.93 676.807 942.958L674.209 943.664L671.442 944.415C669.11 945.048 666.917 945.643 665.564 946.01C653.77 949.204 616.069 955.692 605.244 956.391C598.521 956.824 592.726 957.645 592.366 958.213C592.006 958.781 592.166 959.247 592.722 959.247C593.278 959.248 595.419 960.609 597.48 962.272C599.541 963.934 601.79 965.721 602.477 966.243L603.166 966.766C604.411 967.71 606.878 969.58 609.344 971.449C615.913 976.427 619.073 978.894 621.044 980.583C621.826 981.254 624.01 982.582 625.901 983.533C627.791 984.484 629.336 985.719 629.336 986.276C629.336 986.833 629.883 987.289 630.552 987.289C632.796 987.289 645.576 993.659 645.576 994.778C645.576 995.387 643.879 996.217 641.802 996.622C639.727 997.027 637.726 997.836 637.356 998.42C636.986 999.004 634.46 999.482 631.743 999.482C629.026 999.482 625.827 999.99 624.634 1000.61C621.206 1002.39 594.676 1003.89 584.363 1002.88C575.211 1001.99 566.269 1000.22 561.252 998.305C554.827 995.857 545.656 991.216 539.534 987.311C535.834 984.952 531.905 982.473 530.802 981.803C528.144 980.187 511.538 965.024 504.396 957.691C498.572 951.711 496.413 950.901 480.356 948.667C477.775 948.308 475.352 947.523 474.973 946.923C474.593 946.323 472.62 945.833 470.59 945.833C468.56 945.833 465.923 945.336 464.73 944.726C463.537 944.118 459.578 942.757 455.933 941.701C452.286 940.646 441.886 936.944 432.822 933.474C411.157 925.184 389.437 914.423 368.97 902.017C365.304 899.794 361.677 897.519 358.099 895.195C337.829 882.034 319.093 867.331 303.257 851.947ZM261.947 890.561L242.68 818.47L228.194 845.334C239.474 861.786 252.933 879.768 261.951 890.565L261.947 890.561ZM215.857 828.103L220.798 814.105L209.979 819.535C210.576 820.403 211.157 821.252 211.718 822.074C213.207 824.253 214.647 826.351 215.977 828.277L215.857 828.103ZM202.02 808.068L214.585 800.023L193.887 796.605C193.699 796.346 193.518 796.097 193.344 795.859C195.455 798.756 198.628 803.227 202.02 808.068ZM170.884 515.696C163.296 532.169 161.926 538.585 161.203 561.009C160.714 576.168 160.913 581.379 161.952 580.751C162.73 580.283 163.369 578.148 163.373 576.008C163.383 568.807 168.145 540.419 172.086 524.059C174.236 515.134 175.765 507.605 175.483 507.329C175.2 507.055 173.132 510.819 170.884 515.696ZM1031.69 636.841C1031.75 638.262 1032.05 638.551 1032.45 637.579C1032.81 636.699 1032.76 635.646 1032.35 635.241C1031.93 634.837 1031.64 635.556 1031.69 636.841ZM896.111 764.573C893.396 770.045 890.836 774.795 890.424 775.131C890.012 775.466 888.705 777.774 887.52 780.262C886.335 782.748 884.819 785.112 884.149 785.516C881.89 786.878 882.915 788.379 886.369 788.768C889.293 789.095 889.864 789.788 890.205 793.42C890.426 795.768 891.13 798.21 891.767 798.846C894.128 801.203 892.76 801.955 886.119 801.955C881.304 801.955 878.996 801.409 878.24 800.089C877.346 798.529 876.667 798.791 874.118 801.685C870.497 805.791 866.812 811.481 865.846 814.453C865.464 815.626 864.656 816.587 864.049 816.587C863.443 816.587 862.945 817.365 862.945 818.315C862.945 819.265 862.272 820.261 861.448 820.529C860.193 820.938 892.44 861.729 895.453 863.547C896.519 864.19 897.843 843.524 898.393 817.67C898.724 802.103 898.604 801.11 896.462 801.657C894.448 802.17 894.177 801.425 894.177 795.392C894.177 788.959 894.36 788.543 897.2 788.543C899.991 788.543 900.287 787.954 901.033 780.922C901.479 776.732 901.663 769.1 901.445 763.963L901.048 754.625L896.111 764.573ZM818.013 773.419C817.94 775.864 821.936 782.558 824.344 784.026C825.649 784.821 826.717 786.163 826.717 787.008C826.717 787.852 827.279 788.543 827.967 788.543C830.175 788.543 829.301 785.595 825.978 781.837C824.199 779.825 821.688 776.807 820.397 775.131C819.107 773.454 818.034 772.684 818.013 773.419ZM879.95 793.2C879.602 793.75 880.975 793.96 883 793.671C885.025 793.381 886.681 792.931 886.681 792.673C886.681 791.744 880.569 792.222 879.95 793.2ZM883.641 797.021C881.857 797.654 881.641 798.127 882.814 798.834C883.686 799.361 885.017 799.19 885.769 798.456C887.613 796.656 886.599 795.974 883.641 797.021ZM849.204 832.288C849.204 832.877 843.372 839.323 836.247 846.615L823.288 859.872L852.116 867.449C867.97 871.615 881.133 874.839 881.366 874.611C882.358 873.644 852.707 831.219 851.039 831.219C850.03 831.219 849.204 831.7 849.204 832.288ZM376.828 885.25C377.771 886.381 379.09 887.307 379.759 887.307C380.427 887.307 382.473 888.348 384.306 889.622C391.328 894.502 430.441 912.912 433.786 912.912C434.759 912.912 435.902 913.461 436.327 914.131C436.752 914.802 438.358 915.351 439.899 915.351C441.439 915.351 443.233 915.841 443.885 916.441C444.538 917.039 450.975 919.529 458.189 921.974C465.403 924.419 472.282 926.945 473.475 927.59C474.668 928.235 476.503 928.763 477.552 928.763C478.602 928.763 480.437 929.286 481.63 929.925C482.823 930.564 487.453 932.245 491.919 933.662C496.385 935.079 501.303 936.752 502.85 937.378C509.543 940.091 521.938 944.405 528.771 946.4C534.594 948.1 536.117 948.659 546.573 952.937C550.868 954.693 554.381 956.557 554.381 957.079C554.381 957.599 552.482 958.026 550.161 958.026C545.275 958.026 542.375 960.765 542.924 964.858C543.218 967.04 542.559 967.876 540.065 968.487C537.476 969.121 537.114 969.62 538.261 970.969C539.05 971.898 540.999 972.658 542.592 972.658C544.186 972.658 545.836 973.206 546.261 973.877C546.686 974.548 549.465 975.096 552.437 975.096C556.802 975.096 558.229 974.518 559.859 972.091C562.345 968.388 562.384 964.27 559.963 961.146C557.717 958.248 557.614 956.635 559.69 956.898C560.55 957.007 567.153 957.031 574.365 956.951L587.479 956.807L581.236 952.453C577.803 950.058 568.81 945.181 561.252 941.614C541.188 932.149 530.694 928.841 483.799 917.198C426.061 902.863 415.603 899.608 376.988 883.952C375.378 883.299 375.355 883.482 376.828 885.25ZM883.638 934.502C882.961 936.24 883.103 936.38 884.338 935.185C885.192 934.357 885.576 933.373 885.191 932.999C884.806 932.623 884.108 933.3 883.638 934.502Z" fill="white" fill-opacity="0.989"/>
</svg>
