<svg width="623" height="158" viewBox="0 0 623 158" fill="none" xmlns="http://www.w3.org/2000/svg">
<g clip-path="url(#clip0_9_18)">
<path d="M241.923 124.644H258.149L273.828 140.444L289.507 156.244H272.321H255.134L240.414 141.514C232.319 133.413 225.696 126.303 225.696 125.714C225.696 125.125 232.998 124.644 241.923 124.644Z" fill="url(#paint0_linear_9_18)"/>
<path fill-rule="evenodd" clip-rule="evenodd" d="M13.5644 142.639L27.0447 128.154L84.0376 128.156H141.031L146.061 122.889L151.091 117.622H175.732H200.376L220.446 137.811L240.516 158H120.217C54.0509 158 -0.0454774 157.802 2.86889e-05 157.561C0.0472851 157.321 6.15036 150.604 13.5644 142.639ZM29.8346 133.605L21.0222 142.73C16.1758 147.749 12.201 152.054 12.1888 152.294C12.1783 152.535 60.7858 152.733 120.206 152.733H228.245L213.445 137.811L198.645 122.889H176.352C154.119 122.889 154.042 122.903 148.128 128.112L142.198 133.334L86.0154 133.47L29.8346 133.605Z" fill="url(#paint1_linear_9_18)"/>
<path fill-rule="evenodd" clip-rule="evenodd" d="M96.6848 56.5482L153.081 0H242.444H331.806L336.836 5.26667L341.867 10.5333H441.851H541.835L546.865 5.26667L551.895 0L575.633 0.0175727L599.372 0.0333774L611.186 11.4041L623 22.773V63.1754V103.578H384.436H145.872L139.84 109.859L133.809 116.141L111.214 115.868L88.6198 115.595C63.7665 115.293 42.7233 114.608 41.8587 114.072C40.9941 113.535 65.6654 87.6514 96.6848 56.5482ZM156.562 5.31231L104.536 56.6325C64.2128 96.4081 53.188 108.198 55.5298 109.053C57.1908 109.659 75.0151 110.295 95.1411 110.465L131.735 110.772L138.085 104.554L144.433 98.3357L381.023 98.2988L617.611 98.2619L618.119 62.2467L618.624 26.2333L608.123 15.8228L597.622 5.41239L576.027 5.14553L554.433 4.87696L548.815 10.3385L543.198 15.8L441.767 15.7719L340.337 15.7438L334.411 10.5053L328.486 5.26667L242.523 5.28949L156.562 5.31231Z" fill="url(#paint2_linear_9_18)"/>
<path d="M291.882 125.556C292.38 125.054 299.565 124.644 307.849 124.644H322.908L338.587 140.444L354.265 156.244H337.788H321.312L306.143 141.356C297.799 133.166 291.381 126.056 291.882 125.556Z" fill="url(#paint3_linear_9_18)"/>
<path d="M372.279 124.809L387.593 124.513L403.309 140.38L419.024 156.244H402.395H385.766L371.365 141.724C363.445 133.738 356.964 126.732 356.964 126.156C356.964 125.578 363.857 124.973 372.279 124.809Z" fill="url(#paint4_linear_9_18)"/>
<path fill-rule="evenodd" clip-rule="evenodd" d="M518.457 122.889H623V140.444V158H535.892H448.785L431.349 140.444L413.913 122.889H518.457ZM617.749 128.156H523.237C467.905 128.156 428.724 128.816 428.724 129.746C428.724 130.622 434.333 136.547 441.189 142.913L453.653 154.489H535.702H617.749V141.322V128.156Z" fill="url(#paint5_linear_9_18)"/>
<mask id="mask0_9_18" style="mask-type:luminance" maskUnits="userSpaceOnUse" x="0" y="0" width="623" height="158">
<path d="M241.923 124.644H258.149L273.828 140.444L289.507 156.244H272.321H255.134L240.414 141.514C232.319 133.413 225.696 126.303 225.696 125.714C225.696 125.125 232.998 124.644 241.923 124.644Z" fill="white"/>
<path fill-rule="evenodd" clip-rule="evenodd" d="M13.5644 142.639L27.0447 128.154L84.0376 128.156H141.031L146.061 122.889L151.091 117.622H175.732H200.376L220.446 137.811L240.516 158H120.217C54.0509 158 -0.0454774 157.802 2.86889e-05 157.561C0.0472851 157.321 6.15036 150.604 13.5644 142.639ZM29.8346 133.605L21.0222 142.73C16.1758 147.749 12.201 152.054 12.1888 152.294C12.1783 152.535 60.7858 152.733 120.206 152.733H228.245L213.445 137.811L198.645 122.889H176.352C154.119 122.889 154.042 122.903 148.128 128.112L142.198 133.334L86.0154 133.47L29.8346 133.605Z" fill="white"/>
<path fill-rule="evenodd" clip-rule="evenodd" d="M96.6848 56.5482L153.081 0H242.444H331.806L336.836 5.26667L341.867 10.5333H441.851H541.835L546.865 5.26667L551.895 0L575.633 0.0175727L599.372 0.0333774L611.186 11.4041L623 22.773V63.1754V103.578H384.436H145.872L139.84 109.859L133.809 116.141L111.214 115.868L88.6198 115.595C63.7665 115.293 42.7233 114.608 41.8587 114.072C40.9941 113.535 65.6654 87.6514 96.6848 56.5482ZM156.562 5.31231L104.536 56.6325C64.2128 96.4081 53.188 108.198 55.5298 109.053C57.1908 109.659 75.0151 110.295 95.1411 110.465L131.735 110.772L138.085 104.554L144.433 98.3357L381.023 98.2988L617.611 98.2619L618.119 62.2467L618.624 26.2333L608.123 15.8228L597.622 5.41239L576.027 5.14553L554.433 4.87696L548.815 10.3385L543.198 15.8L441.767 15.7719L340.337 15.7438L334.411 10.5053L328.486 5.26667L242.523 5.28949L156.562 5.31231Z" fill="white"/>
<path d="M291.882 125.556C292.38 125.054 299.565 124.644 307.849 124.644H322.908L338.587 140.444L354.265 156.244H337.788H321.312L306.143 141.356C297.799 133.166 291.381 126.056 291.882 125.556Z" fill="white"/>
<path d="M372.279 124.809L387.593 124.513L403.309 140.38L419.024 156.244H402.395H385.766L371.365 141.724C363.445 133.738 356.964 126.732 356.964 126.156C356.964 125.578 363.857 124.973 372.279 124.809Z" fill="white"/>
<path fill-rule="evenodd" clip-rule="evenodd" d="M518.457 122.889H623V140.444V158H535.892H448.785L431.349 140.444L413.913 122.889H518.457ZM617.749 128.156H523.237C467.905 128.156 428.724 128.816 428.724 129.746C428.724 130.622 434.333 136.547 441.189 142.913L453.653 154.489H535.702H617.749V141.322V128.156Z" fill="white"/>
</mask>
<g mask="url(#mask0_9_18)">
<path d="M241.923 124.644H258.149L273.828 140.444L289.507 156.244H272.321H255.134L240.414 141.514C232.319 133.413 225.696 126.303 225.696 125.714C225.696 125.125 232.998 124.644 241.923 124.644Z" stroke="#D7CC00" stroke-width="2"/>
</g>
<mask id="mask1_9_18" style="mask-type:luminance" maskUnits="userSpaceOnUse" x="0" y="0" width="623" height="158">
<path d="M241.923 124.644H258.149L273.828 140.444L289.507 156.244H272.321H255.134L240.414 141.514C232.319 133.413 225.696 126.303 225.696 125.714C225.696 125.125 232.998 124.644 241.923 124.644Z" fill="white"/>
<path fill-rule="evenodd" clip-rule="evenodd" d="M13.5644 142.639L27.0447 128.154L84.0376 128.156H141.031L146.061 122.889L151.091 117.622H175.732H200.376L220.446 137.811L240.516 158H120.217C54.0509 158 -0.0454774 157.802 2.86889e-05 157.561C0.0472851 157.321 6.15036 150.604 13.5644 142.639ZM29.8346 133.605L21.0222 142.73C16.1758 147.749 12.201 152.054 12.1888 152.294C12.1783 152.535 60.7858 152.733 120.206 152.733H228.245L213.445 137.811L198.645 122.889H176.352C154.119 122.889 154.042 122.903 148.128 128.112L142.198 133.334L86.0154 133.47L29.8346 133.605Z" fill="white"/>
<path fill-rule="evenodd" clip-rule="evenodd" d="M96.6848 56.5482L153.081 0H242.444H331.806L336.836 5.26667L341.867 10.5333H441.851H541.835L546.865 5.26667L551.895 0L575.633 0.0175727L599.372 0.0333774L611.186 11.4041L623 22.773V63.1754V103.578H384.436H145.872L139.84 109.859L133.809 116.141L111.214 115.868L88.6198 115.595C63.7665 115.293 42.7233 114.608 41.8587 114.072C40.9941 113.535 65.6654 87.6514 96.6848 56.5482ZM156.562 5.31231L104.536 56.6325C64.2128 96.4081 53.188 108.198 55.5298 109.053C57.1908 109.659 75.0151 110.295 95.1411 110.465L131.735 110.772L138.085 104.554L144.433 98.3357L381.023 98.2988L617.611 98.2619L618.119 62.2467L618.624 26.2333L608.123 15.8228L597.622 5.41239L576.027 5.14553L554.433 4.87696L548.815 10.3385L543.198 15.8L441.767 15.7719L340.337 15.7438L334.411 10.5053L328.486 5.26667L242.523 5.28949L156.562 5.31231Z" fill="white"/>
<path d="M291.882 125.556C292.38 125.054 299.565 124.644 307.849 124.644H322.908L338.587 140.444L354.265 156.244H337.788H321.312L306.143 141.356C297.799 133.166 291.381 126.056 291.882 125.556Z" fill="white"/>
<path d="M372.279 124.809L387.593 124.513L403.309 140.38L419.024 156.244H402.395H385.766L371.365 141.724C363.445 133.738 356.964 126.732 356.964 126.156C356.964 125.578 363.857 124.973 372.279 124.809Z" fill="white"/>
<path fill-rule="evenodd" clip-rule="evenodd" d="M518.457 122.889H623V140.444V158H535.892H448.785L431.349 140.444L413.913 122.889H518.457ZM617.749 128.156H523.237C467.905 128.156 428.724 128.816 428.724 129.746C428.724 130.622 434.333 136.547 441.189 142.913L453.653 154.489H535.702H617.749V141.322V128.156Z" fill="white"/>
</mask>
<g mask="url(#mask1_9_18)">
<path fill-rule="evenodd" clip-rule="evenodd" d="M13.5644 142.639L27.0447 128.154L84.0376 128.156H141.031L146.061 122.889L151.091 117.622H175.732H200.376L220.446 137.811L240.516 158H120.217C54.0509 158 -0.0454774 157.802 2.86889e-05 157.561C0.0472851 157.321 6.15036 150.604 13.5644 142.639ZM29.8346 133.605L21.0222 142.73C16.1758 147.749 12.201 152.054 12.1888 152.294C12.1783 152.535 60.7858 152.733 120.206 152.733H228.245L213.445 137.811L198.645 122.889H176.352C154.119 122.889 154.042 122.903 148.128 128.112L142.198 133.334L86.0154 133.47L29.8346 133.605Z" stroke="#D7CC00" stroke-width="2"/>
</g>
<mask id="mask2_9_18" style="mask-type:luminance" maskUnits="userSpaceOnUse" x="0" y="0" width="623" height="158">
<path d="M241.923 124.644H258.149L273.828 140.444L289.507 156.244H272.321H255.134L240.414 141.514C232.319 133.413 225.696 126.303 225.696 125.714C225.696 125.125 232.998 124.644 241.923 124.644Z" fill="white"/>
<path fill-rule="evenodd" clip-rule="evenodd" d="M13.5644 142.639L27.0447 128.154L84.0376 128.156H141.031L146.061 122.889L151.091 117.622H175.732H200.376L220.446 137.811L240.516 158H120.217C54.0509 158 -0.0454774 157.802 2.86889e-05 157.561C0.0472851 157.321 6.15036 150.604 13.5644 142.639ZM29.8346 133.605L21.0222 142.73C16.1758 147.749 12.201 152.054 12.1888 152.294C12.1783 152.535 60.7858 152.733 120.206 152.733H228.245L213.445 137.811L198.645 122.889H176.352C154.119 122.889 154.042 122.903 148.128 128.112L142.198 133.334L86.0154 133.47L29.8346 133.605Z" fill="white"/>
<path fill-rule="evenodd" clip-rule="evenodd" d="M96.6848 56.5482L153.081 0H242.444H331.806L336.836 5.26667L341.867 10.5333H441.851H541.835L546.865 5.26667L551.895 0L575.633 0.0175727L599.372 0.0333774L611.186 11.4041L623 22.773V63.1754V103.578H384.436H145.872L139.84 109.859L133.809 116.141L111.214 115.868L88.6198 115.595C63.7665 115.293 42.7233 114.608 41.8587 114.072C40.9941 113.535 65.6654 87.6514 96.6848 56.5482ZM156.562 5.31231L104.536 56.6325C64.2128 96.4081 53.188 108.198 55.5298 109.053C57.1908 109.659 75.0151 110.295 95.1411 110.465L131.735 110.772L138.085 104.554L144.433 98.3357L381.023 98.2988L617.611 98.2619L618.119 62.2467L618.624 26.2333L608.123 15.8228L597.622 5.41239L576.027 5.14553L554.433 4.87696L548.815 10.3385L543.198 15.8L441.767 15.7719L340.337 15.7438L334.411 10.5053L328.486 5.26667L242.523 5.28949L156.562 5.31231Z" fill="white"/>
<path d="M291.882 125.556C292.38 125.054 299.565 124.644 307.849 124.644H322.908L338.587 140.444L354.265 156.244H337.788H321.312L306.143 141.356C297.799 133.166 291.381 126.056 291.882 125.556Z" fill="white"/>
<path d="M372.279 124.809L387.593 124.513L403.309 140.38L419.024 156.244H402.395H385.766L371.365 141.724C363.445 133.738 356.964 126.732 356.964 126.156C356.964 125.578 363.857 124.973 372.279 124.809Z" fill="white"/>
<path fill-rule="evenodd" clip-rule="evenodd" d="M518.457 122.889H623V140.444V158H535.892H448.785L431.349 140.444L413.913 122.889H518.457ZM617.749 128.156H523.237C467.905 128.156 428.724 128.816 428.724 129.746C428.724 130.622 434.333 136.547 441.189 142.913L453.653 154.489H535.702H617.749V141.322V128.156Z" fill="white"/>
</mask>
<g mask="url(#mask2_9_18)">
<path fill-rule="evenodd" clip-rule="evenodd" d="M96.6848 56.5482L153.081 0H242.444H331.806L336.836 5.26667L341.867 10.5333H441.851H541.835L546.865 5.26667L551.895 0L575.633 0.0175727L599.372 0.0333774L611.186 11.4041L623 22.773V63.1754V103.578H384.436H145.872L139.84 109.859L133.809 116.141L111.214 115.868L88.6198 115.595C63.7665 115.293 42.7233 114.608 41.8587 114.072C40.9941 113.535 65.6654 87.6514 96.6848 56.5482ZM156.562 5.31231L104.536 56.6325C64.2128 96.4081 53.188 108.198 55.5298 109.053C57.1908 109.659 75.0151 110.295 95.1411 110.465L131.735 110.772L138.085 104.554L144.433 98.3357L381.023 98.2988L617.611 98.2619L618.119 62.2467L618.624 26.2333L608.123 15.8228L597.622 5.41239L576.027 5.14553L554.433 4.87696L548.815 10.3385L543.198 15.8L441.767 15.7719L340.337 15.7438L334.411 10.5053L328.486 5.26667L242.523 5.28949L156.562 5.31231Z" stroke="#D7CC00" stroke-width="2"/>
</g>
<mask id="mask3_9_18" style="mask-type:luminance" maskUnits="userSpaceOnUse" x="0" y="0" width="623" height="158">
<path d="M241.923 124.644H258.149L273.828 140.444L289.507 156.244H272.321H255.134L240.414 141.514C232.319 133.413 225.696 126.303 225.696 125.714C225.696 125.125 232.998 124.644 241.923 124.644Z" fill="white"/>
<path fill-rule="evenodd" clip-rule="evenodd" d="M13.5644 142.639L27.0447 128.154L84.0376 128.156H141.031L146.061 122.889L151.091 117.622H175.732H200.376L220.446 137.811L240.516 158H120.217C54.0509 158 -0.0454774 157.802 2.86889e-05 157.561C0.0472851 157.321 6.15036 150.604 13.5644 142.639ZM29.8346 133.605L21.0222 142.73C16.1758 147.749 12.201 152.054 12.1888 152.294C12.1783 152.535 60.7858 152.733 120.206 152.733H228.245L213.445 137.811L198.645 122.889H176.352C154.119 122.889 154.042 122.903 148.128 128.112L142.198 133.334L86.0154 133.47L29.8346 133.605Z" fill="white"/>
<path fill-rule="evenodd" clip-rule="evenodd" d="M96.6848 56.5482L153.081 0H242.444H331.806L336.836 5.26667L341.867 10.5333H441.851H541.835L546.865 5.26667L551.895 0L575.633 0.0175727L599.372 0.0333774L611.186 11.4041L623 22.773V63.1754V103.578H384.436H145.872L139.84 109.859L133.809 116.141L111.214 115.868L88.6198 115.595C63.7665 115.293 42.7233 114.608 41.8587 114.072C40.9941 113.535 65.6654 87.6514 96.6848 56.5482ZM156.562 5.31231L104.536 56.6325C64.2128 96.4081 53.188 108.198 55.5298 109.053C57.1908 109.659 75.0151 110.295 95.1411 110.465L131.735 110.772L138.085 104.554L144.433 98.3357L381.023 98.2988L617.611 98.2619L618.119 62.2467L618.624 26.2333L608.123 15.8228L597.622 5.41239L576.027 5.14553L554.433 4.87696L548.815 10.3385L543.198 15.8L441.767 15.7719L340.337 15.7438L334.411 10.5053L328.486 5.26667L242.523 5.28949L156.562 5.31231Z" fill="white"/>
<path d="M291.882 125.556C292.38 125.054 299.565 124.644 307.849 124.644H322.908L338.587 140.444L354.265 156.244H337.788H321.312L306.143 141.356C297.799 133.166 291.381 126.056 291.882 125.556Z" fill="white"/>
<path d="M372.279 124.809L387.593 124.513L403.309 140.38L419.024 156.244H402.395H385.766L371.365 141.724C363.445 133.738 356.964 126.732 356.964 126.156C356.964 125.578 363.857 124.973 372.279 124.809Z" fill="white"/>
<path fill-rule="evenodd" clip-rule="evenodd" d="M518.457 122.889H623V140.444V158H535.892H448.785L431.349 140.444L413.913 122.889H518.457ZM617.749 128.156H523.237C467.905 128.156 428.724 128.816 428.724 129.746C428.724 130.622 434.333 136.547 441.189 142.913L453.653 154.489H535.702H617.749V141.322V128.156Z" fill="white"/>
</mask>
<g mask="url(#mask3_9_18)">
<path d="M291.882 125.556C292.38 125.054 299.565 124.644 307.849 124.644H322.908L338.587 140.444L354.265 156.244H337.788H321.312L306.143 141.356C297.799 133.166 291.381 126.056 291.882 125.556Z" stroke="#D7CC00" stroke-width="2"/>
</g>
<mask id="mask4_9_18" style="mask-type:luminance" maskUnits="userSpaceOnUse" x="0" y="0" width="623" height="158">
<path d="M241.923 124.644H258.149L273.828 140.444L289.507 156.244H272.321H255.134L240.414 141.514C232.319 133.413 225.696 126.303 225.696 125.714C225.696 125.125 232.998 124.644 241.923 124.644Z" fill="white"/>
<path fill-rule="evenodd" clip-rule="evenodd" d="M13.5644 142.639L27.0447 128.154L84.0376 128.156H141.031L146.061 122.889L151.091 117.622H175.732H200.376L220.446 137.811L240.516 158H120.217C54.0509 158 -0.0454774 157.802 2.86889e-05 157.561C0.0472851 157.321 6.15036 150.604 13.5644 142.639ZM29.8346 133.605L21.0222 142.73C16.1758 147.749 12.201 152.054 12.1888 152.294C12.1783 152.535 60.7858 152.733 120.206 152.733H228.245L213.445 137.811L198.645 122.889H176.352C154.119 122.889 154.042 122.903 148.128 128.112L142.198 133.334L86.0154 133.47L29.8346 133.605Z" fill="white"/>
<path fill-rule="evenodd" clip-rule="evenodd" d="M96.6848 56.5482L153.081 0H242.444H331.806L336.836 5.26667L341.867 10.5333H441.851H541.835L546.865 5.26667L551.895 0L575.633 0.0175727L599.372 0.0333774L611.186 11.4041L623 22.773V63.1754V103.578H384.436H145.872L139.84 109.859L133.809 116.141L111.214 115.868L88.6198 115.595C63.7665 115.293 42.7233 114.608 41.8587 114.072C40.9941 113.535 65.6654 87.6514 96.6848 56.5482ZM156.562 5.31231L104.536 56.6325C64.2128 96.4081 53.188 108.198 55.5298 109.053C57.1908 109.659 75.0151 110.295 95.1411 110.465L131.735 110.772L138.085 104.554L144.433 98.3357L381.023 98.2988L617.611 98.2619L618.119 62.2467L618.624 26.2333L608.123 15.8228L597.622 5.41239L576.027 5.14553L554.433 4.87696L548.815 10.3385L543.198 15.8L441.767 15.7719L340.337 15.7438L334.411 10.5053L328.486 5.26667L242.523 5.28949L156.562 5.31231Z" fill="white"/>
<path d="M291.882 125.556C292.38 125.054 299.565 124.644 307.849 124.644H322.908L338.587 140.444L354.265 156.244H337.788H321.312L306.143 141.356C297.799 133.166 291.381 126.056 291.882 125.556Z" fill="white"/>
<path d="M372.279 124.809L387.593 124.513L403.309 140.38L419.024 156.244H402.395H385.766L371.365 141.724C363.445 133.738 356.964 126.732 356.964 126.156C356.964 125.578 363.857 124.973 372.279 124.809Z" fill="white"/>
<path fill-rule="evenodd" clip-rule="evenodd" d="M518.457 122.889H623V140.444V158H535.892H448.785L431.349 140.444L413.913 122.889H518.457ZM617.749 128.156H523.237C467.905 128.156 428.724 128.816 428.724 129.746C428.724 130.622 434.333 136.547 441.189 142.913L453.653 154.489H535.702H617.749V141.322V128.156Z" fill="white"/>
</mask>
<g mask="url(#mask4_9_18)">
<path d="M372.279 124.809L387.593 124.513L403.309 140.38L419.024 156.244H402.395H385.766L371.365 141.724C363.445 133.738 356.964 126.732 356.964 126.156C356.964 125.578 363.857 124.973 372.279 124.809Z" stroke="#D7CC00" stroke-width="2"/>
</g>
<mask id="mask5_9_18" style="mask-type:luminance" maskUnits="userSpaceOnUse" x="0" y="0" width="623" height="158">
<path d="M241.923 124.644H258.149L273.828 140.444L289.507 156.244H272.321H255.134L240.414 141.514C232.319 133.413 225.696 126.303 225.696 125.714C225.696 125.125 232.998 124.644 241.923 124.644Z" fill="white"/>
<path fill-rule="evenodd" clip-rule="evenodd" d="M13.5644 142.639L27.0447 128.154L84.0376 128.156H141.031L146.061 122.889L151.091 117.622H175.732H200.376L220.446 137.811L240.516 158H120.217C54.0509 158 -0.0454774 157.802 2.86889e-05 157.561C0.0472851 157.321 6.15036 150.604 13.5644 142.639ZM29.8346 133.605L21.0222 142.73C16.1758 147.749 12.201 152.054 12.1888 152.294C12.1783 152.535 60.7858 152.733 120.206 152.733H228.245L213.445 137.811L198.645 122.889H176.352C154.119 122.889 154.042 122.903 148.128 128.112L142.198 133.334L86.0154 133.47L29.8346 133.605Z" fill="white"/>
<path fill-rule="evenodd" clip-rule="evenodd" d="M96.6848 56.5482L153.081 0H242.444H331.806L336.836 5.26667L341.867 10.5333H441.851H541.835L546.865 5.26667L551.895 0L575.633 0.0175727L599.372 0.0333774L611.186 11.4041L623 22.773V63.1754V103.578H384.436H145.872L139.84 109.859L133.809 116.141L111.214 115.868L88.6198 115.595C63.7665 115.293 42.7233 114.608 41.8587 114.072C40.9941 113.535 65.6654 87.6514 96.6848 56.5482ZM156.562 5.31231L104.536 56.6325C64.2128 96.4081 53.188 108.198 55.5298 109.053C57.1908 109.659 75.0151 110.295 95.1411 110.465L131.735 110.772L138.085 104.554L144.433 98.3357L381.023 98.2988L617.611 98.2619L618.119 62.2467L618.624 26.2333L608.123 15.8228L597.622 5.41239L576.027 5.14553L554.433 4.87696L548.815 10.3385L543.198 15.8L441.767 15.7719L340.337 15.7438L334.411 10.5053L328.486 5.26667L242.523 5.28949L156.562 5.31231Z" fill="white"/>
<path d="M291.882 125.556C292.38 125.054 299.565 124.644 307.849 124.644H322.908L338.587 140.444L354.265 156.244H337.788H321.312L306.143 141.356C297.799 133.166 291.381 126.056 291.882 125.556Z" fill="white"/>
<path d="M372.279 124.809L387.593 124.513L403.309 140.38L419.024 156.244H402.395H385.766L371.365 141.724C363.445 133.738 356.964 126.732 356.964 126.156C356.964 125.578 363.857 124.973 372.279 124.809Z" fill="white"/>
<path fill-rule="evenodd" clip-rule="evenodd" d="M518.457 122.889H623V140.444V158H535.892H448.785L431.349 140.444L413.913 122.889H518.457ZM617.749 128.156H523.237C467.905 128.156 428.724 128.816 428.724 129.746C428.724 130.622 434.333 136.547 441.189 142.913L453.653 154.489H535.702H617.749V141.322V128.156Z" fill="white"/>
</mask>
<g mask="url(#mask5_9_18)">
<path fill-rule="evenodd" clip-rule="evenodd" d="M518.457 122.889H623V140.444V158H535.892H448.785L431.349 140.444L413.913 122.889H518.457ZM617.749 128.156H523.237C467.905 128.156 428.724 128.816 428.724 129.746C428.724 130.622 434.333 136.547 441.189 142.913L453.653 154.489H535.702H617.749V141.322V128.156Z" stroke="#D7CC00" stroke-width="2"/>
</g>
<path d="M273.724 46.976H257.644V58.448H271.852V61.28H257.644V74H253.372V44.144H273.724V46.976ZM289.886 44.144V69.68C289.886 70.32 289.966 70.736 290.126 70.928C290.318 71.088 290.734 71.168 291.374 71.168H304.238C304.878 71.168 305.278 71.088 305.438 70.928C305.63 70.736 305.726 70.32 305.726 69.68V44.144H309.854V70.208C309.854 72.736 308.59 74 306.062 74H289.502C286.974 74 285.71 72.736 285.71 70.208V44.144H289.886ZM343.484 69.68V61.856C343.484 61.248 343.388 60.848 343.196 60.656C343.036 60.464 342.636 60.368 341.996 60.368H328.028C325.5 60.368 324.236 59.104 324.236 56.576V47.936C324.236 45.408 325.5 44.144 328.028 44.144H343.724C346.252 44.144 347.516 45.408 347.516 47.936V52.688H343.292V48.464C343.292 47.824 343.196 47.424 343.004 47.264C342.844 47.072 342.444 46.976 341.804 46.976H329.948C329.34 46.976 328.94 47.072 328.748 47.264C328.556 47.424 328.46 47.824 328.46 48.464V56.048C328.46 56.688 328.556 57.104 328.748 57.296C328.94 57.456 329.34 57.536 329.948 57.536H343.868C346.396 57.536 347.66 58.8 347.66 61.328V70.208C347.66 72.736 346.396 74 343.868 74H328.124C325.596 74 324.332 72.736 324.332 70.208V65.456H328.556V69.68C328.556 70.32 328.652 70.736 328.844 70.928C329.036 71.088 329.436 71.168 330.044 71.168H341.996C342.636 71.168 343.036 71.088 343.196 70.928C343.388 70.736 343.484 70.32 343.484 69.68ZM363.041 44.144H367.265V74H363.041V44.144ZM406.366 47.936V70.208C406.366 72.736 405.102 74 402.574 74H386.878C384.35 74 383.086 72.736 383.086 70.208V47.936C383.086 45.408 384.35 44.144 386.878 44.144H402.574C405.102 44.144 406.366 45.408 406.366 47.936ZM402.238 69.68V48.464C402.238 47.824 402.142 47.424 401.95 47.264C401.79 47.072 401.39 46.976 400.75 46.976H388.75C388.11 46.976 387.694 47.072 387.502 47.264C387.342 47.424 387.262 47.824 387.262 48.464V69.68C387.262 70.32 387.342 70.736 387.502 70.928C387.694 71.088 388.11 71.168 388.75 71.168H400.75C401.39 71.168 401.79 71.088 401.95 70.928C402.142 70.736 402.238 70.32 402.238 69.68ZM442.8 44.144H446.64V74H442.416L425.568 49.088V74H421.728V44.144H426.192L442.8 68.816V44.144Z" fill="white"/>
</g>
<defs>
<linearGradient id="paint0_linear_9_18" x1="311.5" y1="-3.93837e-05" x2="311.5" y2="158" gradientUnits="userSpaceOnUse">
<stop stop-color="#C51C07"/>
<stop offset="1" stop-color="#B56210"/>
</linearGradient>
<linearGradient id="paint1_linear_9_18" x1="311.5" y1="1.48156e-05" x2="311.5" y2="158" gradientUnits="userSpaceOnUse">
<stop stop-color="#C51C07"/>
<stop offset="1" stop-color="#B56210"/>
</linearGradient>
<linearGradient id="paint2_linear_9_18" x1="311.5" y1="0" x2="311.5" y2="158" gradientUnits="userSpaceOnUse">
<stop stop-color="#C51C07"/>
<stop offset="1" stop-color="#B56210"/>
</linearGradient>
<linearGradient id="paint3_linear_9_18" x1="311.5" y1="-3.93837e-05" x2="311.5" y2="158" gradientUnits="userSpaceOnUse">
<stop stop-color="#C51C07"/>
<stop offset="1" stop-color="#B56210"/>
</linearGradient>
<linearGradient id="paint4_linear_9_18" x1="311.5" y1="-8.90139e-06" x2="311.5" y2="158" gradientUnits="userSpaceOnUse">
<stop stop-color="#C51C07"/>
<stop offset="1" stop-color="#B56210"/>
</linearGradient>
<linearGradient id="paint5_linear_9_18" x1="311.5" y1="5.87107e-06" x2="311.5" y2="158" gradientUnits="userSpaceOnUse">
<stop stop-color="#C51C07"/>
<stop offset="1" stop-color="#B56210"/>
</linearGradient>
<clipPath id="clip0_9_18">
<rect width="623" height="158" fill="white"/>
</clipPath>
</defs>
</svg>
