<svg width="623" height="158" viewBox="0 0 623 158" fill="none" xmlns="http://www.w3.org/2000/svg">
<mask id="path-1-inside-1_30_3574" fill="white">
<path d="M381.077 124.644H364.851L349.172 140.444L333.493 156.244H350.679H367.866L382.586 141.514C390.681 133.413 397.304 126.303 397.304 125.714C397.304 125.125 390.002 124.644 381.077 124.644Z"/>
<path fill-rule="evenodd" clip-rule="evenodd" d="M609.436 142.639L595.955 128.154L538.962 128.156H481.969L476.939 122.889L471.909 117.622H447.268H422.624L402.554 137.811L382.484 158L502.783 158C568.949 158 623.045 157.802 623 157.561C622.953 157.321 616.85 150.604 609.436 142.639ZM593.165 133.605L601.978 142.73C606.824 147.749 610.799 152.054 610.811 152.294C610.822 152.535 562.214 152.733 502.794 152.733H394.755L409.555 137.811L424.355 122.889H446.648C468.881 122.889 468.958 122.903 474.872 128.112L480.802 133.334L536.985 133.47L593.165 133.605Z"/>
<path fill-rule="evenodd" clip-rule="evenodd" d="M526.315 56.5482L469.919 0L380.556 0L291.194 0L286.164 5.26667L281.133 10.5333L181.149 10.5333L81.1655 10.5333L76.1352 5.26667L71.105 0L47.3666 0.0175727L23.6282 0.0333774L11.8141 11.4041L1.41635e-05 22.773V63.1754V103.578L238.564 103.578L477.128 103.578L483.16 109.859L489.191 116.141L511.786 115.868L534.38 115.595C559.234 115.293 580.277 114.608 581.141 114.072C582.006 113.535 557.335 87.6514 526.315 56.5482ZM466.438 5.31231L518.464 56.6325C558.787 96.4081 569.812 108.198 567.47 109.053C565.809 109.659 547.985 110.295 527.859 110.465L491.265 110.772L484.915 104.554L478.567 98.3357L241.977 98.2988L5.38895 98.2619L4.88131 62.2467L4.3756 26.2333L14.877 15.8228L25.3784 5.41239L46.9729 5.14553L68.5673 4.87696L74.1855 10.3385L79.802 15.8L181.233 15.7719L282.663 15.7438L288.589 10.5053L294.514 5.26667L380.477 5.28949L466.438 5.31231Z"/>
<path d="M331.118 125.556C330.62 125.054 323.435 124.644 315.151 124.644H300.092L284.413 140.444L268.735 156.244H285.212H301.688L316.857 141.356C325.201 133.166 331.619 126.056 331.118 125.556Z"/>
<path d="M250.721 124.809L235.407 124.513L219.691 140.38L203.976 156.244H220.605H237.234L251.635 141.724C259.555 133.738 266.036 126.732 266.036 126.156C266.036 125.578 259.143 124.973 250.721 124.809Z"/>
<path fill-rule="evenodd" clip-rule="evenodd" d="M104.543 122.889L1.41635e-05 122.889V140.444V158H87.1076H174.215L191.651 140.444L209.087 122.889H104.543ZM5.25069 128.156H99.7634C155.095 128.156 194.276 128.816 194.276 129.746C194.276 130.622 188.667 136.547 181.811 142.913L169.347 154.489H87.2983H5.25069V141.322V128.156Z"/>
</mask>
<path d="M381.077 124.644H364.851L349.172 140.444L333.493 156.244H350.679H367.866L382.586 141.514C390.681 133.413 397.304 126.303 397.304 125.714C397.304 125.125 390.002 124.644 381.077 124.644Z" fill="url(#paint0_linear_30_3574)"/>
<path fill-rule="evenodd" clip-rule="evenodd" d="M609.436 142.639L595.955 128.154L538.962 128.156H481.969L476.939 122.889L471.909 117.622H447.268H422.624L402.554 137.811L382.484 158L502.783 158C568.949 158 623.045 157.802 623 157.561C622.953 157.321 616.85 150.604 609.436 142.639ZM593.165 133.605L601.978 142.73C606.824 147.749 610.799 152.054 610.811 152.294C610.822 152.535 562.214 152.733 502.794 152.733H394.755L409.555 137.811L424.355 122.889H446.648C468.881 122.889 468.958 122.903 474.872 128.112L480.802 133.334L536.985 133.47L593.165 133.605Z" fill="url(#paint1_linear_30_3574)"/>
<path fill-rule="evenodd" clip-rule="evenodd" d="M526.315 56.5482L469.919 0L380.556 0L291.194 0L286.164 5.26667L281.133 10.5333L181.149 10.5333L81.1655 10.5333L76.1352 5.26667L71.105 0L47.3666 0.0175727L23.6282 0.0333774L11.8141 11.4041L1.41635e-05 22.773V63.1754V103.578L238.564 103.578L477.128 103.578L483.16 109.859L489.191 116.141L511.786 115.868L534.38 115.595C559.234 115.293 580.277 114.608 581.141 114.072C582.006 113.535 557.335 87.6514 526.315 56.5482ZM466.438 5.31231L518.464 56.6325C558.787 96.4081 569.812 108.198 567.47 109.053C565.809 109.659 547.985 110.295 527.859 110.465L491.265 110.772L484.915 104.554L478.567 98.3357L241.977 98.2988L5.38895 98.2619L4.88131 62.2467L4.3756 26.2333L14.877 15.8228L25.3784 5.41239L46.9729 5.14553L68.5673 4.87696L74.1855 10.3385L79.802 15.8L181.233 15.7719L282.663 15.7438L288.589 10.5053L294.514 5.26667L380.477 5.28949L466.438 5.31231Z" fill="url(#paint2_linear_30_3574)"/>
<path d="M331.118 125.556C330.62 125.054 323.435 124.644 315.151 124.644H300.092L284.413 140.444L268.735 156.244H285.212H301.688L316.857 141.356C325.201 133.166 331.619 126.056 331.118 125.556Z" fill="url(#paint3_linear_30_3574)"/>
<path d="M250.721 124.809L235.407 124.513L219.691 140.38L203.976 156.244H220.605H237.234L251.635 141.724C259.555 133.738 266.036 126.732 266.036 126.156C266.036 125.578 259.143 124.973 250.721 124.809Z" fill="url(#paint4_linear_30_3574)"/>
<path fill-rule="evenodd" clip-rule="evenodd" d="M104.543 122.889L1.41635e-05 122.889V140.444V158H87.1076H174.215L191.651 140.444L209.087 122.889H104.543ZM5.25069 128.156H99.7634C155.095 128.156 194.276 128.816 194.276 129.746C194.276 130.622 188.667 136.547 181.811 142.913L169.347 154.489H87.2983H5.25069V141.322V128.156Z" fill="url(#paint5_linear_30_3574)"/>
<path d="M381.077 124.644H364.851L349.172 140.444L333.493 156.244H350.679H367.866L382.586 141.514C390.681 133.413 397.304 126.303 397.304 125.714C397.304 125.125 390.002 124.644 381.077 124.644Z" stroke="#D7CC00" stroke-width="2" mask="url(#path-1-inside-1_30_3574)"/>
<path fill-rule="evenodd" clip-rule="evenodd" d="M609.436 142.639L595.955 128.154L538.962 128.156H481.969L476.939 122.889L471.909 117.622H447.268H422.624L402.554 137.811L382.484 158L502.783 158C568.949 158 623.045 157.802 623 157.561C622.953 157.321 616.85 150.604 609.436 142.639ZM593.165 133.605L601.978 142.73C606.824 147.749 610.799 152.054 610.811 152.294C610.822 152.535 562.214 152.733 502.794 152.733H394.755L409.555 137.811L424.355 122.889H446.648C468.881 122.889 468.958 122.903 474.872 128.112L480.802 133.334L536.985 133.47L593.165 133.605Z" stroke="#D7CC00" stroke-width="2" mask="url(#path-1-inside-1_30_3574)"/>
<path fill-rule="evenodd" clip-rule="evenodd" d="M526.315 56.5482L469.919 0L380.556 0L291.194 0L286.164 5.26667L281.133 10.5333L181.149 10.5333L81.1655 10.5333L76.1352 5.26667L71.105 0L47.3666 0.0175727L23.6282 0.0333774L11.8141 11.4041L1.41635e-05 22.773V63.1754V103.578L238.564 103.578L477.128 103.578L483.16 109.859L489.191 116.141L511.786 115.868L534.38 115.595C559.234 115.293 580.277 114.608 581.141 114.072C582.006 113.535 557.335 87.6514 526.315 56.5482ZM466.438 5.31231L518.464 56.6325C558.787 96.4081 569.812 108.198 567.47 109.053C565.809 109.659 547.985 110.295 527.859 110.465L491.265 110.772L484.915 104.554L478.567 98.3357L241.977 98.2988L5.38895 98.2619L4.88131 62.2467L4.3756 26.2333L14.877 15.8228L25.3784 5.41239L46.9729 5.14553L68.5673 4.87696L74.1855 10.3385L79.802 15.8L181.233 15.7719L282.663 15.7438L288.589 10.5053L294.514 5.26667L380.477 5.28949L466.438 5.31231Z" stroke="#D7CC00" stroke-width="2" mask="url(#path-1-inside-1_30_3574)"/>
<path d="M331.118 125.556C330.62 125.054 323.435 124.644 315.151 124.644H300.092L284.413 140.444L268.735 156.244H285.212H301.688L316.857 141.356C325.201 133.166 331.619 126.056 331.118 125.556Z" stroke="#D7CC00" stroke-width="2" mask="url(#path-1-inside-1_30_3574)"/>
<path d="M250.721 124.809L235.407 124.513L219.691 140.38L203.976 156.244H220.605H237.234L251.635 141.724C259.555 133.738 266.036 126.732 266.036 126.156C266.036 125.578 259.143 124.973 250.721 124.809Z" stroke="#D7CC00" stroke-width="2" mask="url(#path-1-inside-1_30_3574)"/>
<path fill-rule="evenodd" clip-rule="evenodd" d="M104.543 122.889L1.41635e-05 122.889V140.444V158H87.1076H174.215L191.651 140.444L209.087 122.889H104.543ZM5.25069 128.156H99.7634C155.095 128.156 194.276 128.816 194.276 129.746C194.276 130.622 188.667 136.547 181.811 142.913L169.347 154.489H87.2983H5.25069V141.322V128.156Z" stroke="#D7CC00" stroke-width="2" mask="url(#path-1-inside-1_30_3574)"/>
<path d="M195.376 41.64H191.344V40.728C191.344 40.248 191.312 39.944 191.248 39.816C191.216 39.656 191.056 39.464 190.768 39.24C190.48 39.016 190.256 38.888 190.096 38.856C189.936 38.792 189.568 38.76 188.992 38.76H177.184C176.608 38.76 176.24 38.792 176.08 38.856C175.92 38.888 175.696 39.016 175.408 39.24C175.12 39.464 174.944 39.656 174.88 39.816C174.848 39.944 174.832 40.248 174.832 40.728V63.672C174.832 64.152 174.848 64.472 174.88 64.632C174.944 64.76 175.12 64.936 175.408 65.16C175.696 65.384 175.92 65.528 176.08 65.592C176.24 65.624 176.608 65.64 177.184 65.64H188.992C189.568 65.64 189.936 65.624 190.096 65.592C190.256 65.528 190.48 65.384 190.768 65.16C191.056 64.936 191.216 64.76 191.248 64.632C191.312 64.472 191.344 64.152 191.344 63.672V55.08H184.048V51.72H195.376V64.68C195.376 65.64 194.992 66.44 194.224 67.08L193.072 68.04C192.304 68.68 191.536 69 190.768 69H175.408C174.64 69 173.872 68.68 173.104 68.04L171.952 67.08C171.184 66.44 170.8 65.64 170.8 64.68V39.72C170.8 38.76 171.184 37.96 171.952 37.32L173.104 36.36C173.872 35.72 174.64 35.4 175.408 35.4H190.768C191.536 35.4 192.304 35.72 193.072 36.36L194.224 37.32C194.992 37.96 195.376 38.76 195.376 39.72V41.64ZM205.193 69L216.713 35.4H222.377L234.137 69H230.105L227.609 62.04H211.625L209.225 69H205.193ZM219.641 38.28H219.449C219.449 38.664 219.337 39.128 219.113 39.672L212.633 58.92H226.601L219.977 39.672C219.753 39.128 219.641 38.664 219.641 38.28ZM249.023 38.28L248.879 38.328C249.103 39.096 249.215 39.864 249.215 40.632V69H245.183V35.4H251.711L261.983 62.232C262.175 62.776 262.271 63.224 262.271 63.576H262.463C262.463 63.224 262.559 62.776 262.751 62.232L273.071 35.4H279.551V69H275.519V40.632C275.519 39.864 275.631 39.096 275.855 38.328L275.711 38.28L263.903 69H260.831C259.359 65.384 257.951 61.88 256.607 58.488C255.295 55.096 254.207 52.264 253.343 49.992C252.479 47.688 251.727 45.672 251.087 43.944C250.447 42.184 249.951 40.824 249.599 39.864C249.247 38.904 249.055 38.376 249.023 38.28ZM292.992 35.4H297.024V69H292.992V35.4ZM332.073 62.76L332.217 62.712C331.993 61.944 331.881 61.176 331.881 60.408V35.4H335.913V69H331.881L314.313 42.024L314.169 42.072C314.393 42.84 314.505 43.608 314.505 44.376V69H310.473V35.4H314.505L332.073 62.76ZM373.951 41.64H369.919V40.728C369.919 40.248 369.887 39.944 369.823 39.816C369.791 39.656 369.631 39.464 369.343 39.24C369.055 39.016 368.831 38.888 368.671 38.856C368.511 38.792 368.143 38.76 367.567 38.76H355.759C355.183 38.76 354.815 38.792 354.655 38.856C354.495 38.888 354.271 39.016 353.983 39.24C353.695 39.464 353.519 39.656 353.455 39.816C353.423 39.944 353.407 40.248 353.407 40.728V63.672C353.407 64.152 353.423 64.472 353.455 64.632C353.519 64.76 353.695 64.936 353.983 65.16C354.271 65.384 354.495 65.528 354.655 65.592C354.815 65.624 355.183 65.64 355.759 65.64H367.567C368.143 65.64 368.511 65.624 368.671 65.592C368.831 65.528 369.055 65.384 369.343 65.16C369.631 64.936 369.791 64.76 369.823 64.632C369.887 64.472 369.919 64.152 369.919 63.672V55.08H362.623V51.72H373.951V64.68C373.951 65.64 373.567 66.44 372.799 67.08L371.647 68.04C370.879 68.68 370.111 69 369.343 69H353.983C353.215 69 352.447 68.68 351.679 68.04L350.527 67.08C349.759 66.44 349.375 65.64 349.375 64.68V39.72C349.375 38.76 349.759 37.96 350.527 37.32L351.679 36.36C352.447 35.72 353.215 35.4 353.983 35.4H369.343C370.111 35.4 370.879 35.72 371.647 36.36L372.799 37.32C373.567 37.96 373.951 38.76 373.951 39.72V41.64Z" fill="white"/>
<defs>
<linearGradient id="paint0_linear_30_3574" x1="311.5" y1="0" x2="311.5" y2="158" gradientUnits="userSpaceOnUse">
<stop stop-color="#C51C07"/>
<stop offset="1" stop-color="#B56210"/>
</linearGradient>
<linearGradient id="paint1_linear_30_3574" x1="311.5" y1="0" x2="311.5" y2="158" gradientUnits="userSpaceOnUse">
<stop stop-color="#C51C07"/>
<stop offset="1" stop-color="#B56210"/>
</linearGradient>
<linearGradient id="paint2_linear_30_3574" x1="311.5" y1="0" x2="311.5" y2="158" gradientUnits="userSpaceOnUse">
<stop stop-color="#C51C07"/>
<stop offset="1" stop-color="#B56210"/>
</linearGradient>
<linearGradient id="paint3_linear_30_3574" x1="311.5" y1="0" x2="311.5" y2="158" gradientUnits="userSpaceOnUse">
<stop stop-color="#C51C07"/>
<stop offset="1" stop-color="#B56210"/>
</linearGradient>
<linearGradient id="paint4_linear_30_3574" x1="311.5" y1="0" x2="311.5" y2="158" gradientUnits="userSpaceOnUse">
<stop stop-color="#C51C07"/>
<stop offset="1" stop-color="#B56210"/>
</linearGradient>
<linearGradient id="paint5_linear_30_3574" x1="311.5" y1="0" x2="311.5" y2="158" gradientUnits="userSpaceOnUse">
<stop stop-color="#C51C07"/>
<stop offset="1" stop-color="#B56210"/>
</linearGradient>
</defs>
</svg>
