<svg width="623" height="158" viewBox="0 0 623 158" fill="none" xmlns="http://www.w3.org/2000/svg">
<mask id="path-1-inside-1_30_3581" fill="white">
<path d="M241.923 124.644H258.149L273.828 140.444L289.507 156.244H272.321H255.134L240.414 141.514C232.319 133.413 225.696 126.303 225.696 125.714C225.696 125.125 232.998 124.644 241.923 124.644Z"/>
<path fill-rule="evenodd" clip-rule="evenodd" d="M13.5644 142.639L27.0447 128.154L84.0376 128.156H141.031L146.061 122.889L151.091 117.622H175.732H200.376L220.446 137.811L240.516 158L120.217 158C54.0509 158 -0.0454774 157.802 2.8689e-05 157.561C0.0472851 157.321 6.15036 150.604 13.5644 142.639ZM29.8346 133.605L21.0222 142.73C16.1758 147.749 12.201 152.054 12.1888 152.294C12.1783 152.535 60.7858 152.733 120.206 152.733H228.245L213.445 137.811L198.645 122.889H176.352C154.119 122.889 154.042 122.903 148.128 128.112L142.198 133.334L86.0154 133.47L29.8346 133.605Z"/>
<path fill-rule="evenodd" clip-rule="evenodd" d="M96.6848 56.5482L153.081 0L242.444 0L331.806 0L336.836 5.26667L341.867 10.5333L441.851 10.5333L541.835 10.5333L546.865 5.26667L551.895 0L575.633 0.0175727L599.372 0.0333774L611.186 11.4041L623 22.773V63.1754V103.578L384.436 103.578L145.872 103.578L139.84 109.859L133.809 116.141L111.214 115.868L88.6198 115.595C63.7665 115.293 42.7233 114.608 41.8587 114.072C40.9941 113.535 65.6654 87.6514 96.6848 56.5482ZM156.562 5.31231L104.536 56.6325C64.2128 96.4081 53.188 108.198 55.5298 109.053C57.1908 109.659 75.0151 110.295 95.1411 110.465L131.735 110.772L138.085 104.554L144.433 98.3357L381.023 98.2988L617.611 98.2619L618.119 62.2467L618.624 26.2333L608.123 15.8228L597.622 5.41239L576.027 5.14553L554.433 4.87696L548.815 10.3385L543.198 15.8L441.767 15.7719L340.337 15.7438L334.411 10.5053L328.486 5.26667L242.523 5.28949L156.562 5.31231Z"/>
<path d="M291.882 125.556C292.38 125.054 299.565 124.644 307.849 124.644H322.908L338.587 140.444L354.265 156.244H337.788H321.312L306.143 141.356C297.799 133.166 291.381 126.056 291.882 125.556Z"/>
<path d="M372.279 124.809L387.593 124.513L403.309 140.38L419.024 156.244H402.395H385.766L371.365 141.724C363.445 133.738 356.964 126.732 356.964 126.156C356.964 125.578 363.857 124.973 372.279 124.809Z"/>
<path fill-rule="evenodd" clip-rule="evenodd" d="M518.457 122.889L623 122.889V140.444V158H535.892H448.785L431.349 140.444L413.913 122.889H518.457ZM617.749 128.156H523.237C467.905 128.156 428.724 128.816 428.724 129.746C428.724 130.622 434.333 136.547 441.189 142.913L453.653 154.489H535.702H617.749V141.322V128.156Z"/>
</mask>
<path d="M241.923 124.644H258.149L273.828 140.444L289.507 156.244H272.321H255.134L240.414 141.514C232.319 133.413 225.696 126.303 225.696 125.714C225.696 125.125 232.998 124.644 241.923 124.644Z" fill="url(#paint0_linear_30_3581)"/>
<path fill-rule="evenodd" clip-rule="evenodd" d="M13.5644 142.639L27.0447 128.154L84.0376 128.156H141.031L146.061 122.889L151.091 117.622H175.732H200.376L220.446 137.811L240.516 158L120.217 158C54.0509 158 -0.0454774 157.802 2.8689e-05 157.561C0.0472851 157.321 6.15036 150.604 13.5644 142.639ZM29.8346 133.605L21.0222 142.73C16.1758 147.749 12.201 152.054 12.1888 152.294C12.1783 152.535 60.7858 152.733 120.206 152.733H228.245L213.445 137.811L198.645 122.889H176.352C154.119 122.889 154.042 122.903 148.128 128.112L142.198 133.334L86.0154 133.47L29.8346 133.605Z" fill="url(#paint1_linear_30_3581)"/>
<path fill-rule="evenodd" clip-rule="evenodd" d="M96.6848 56.5482L153.081 0L242.444 0L331.806 0L336.836 5.26667L341.867 10.5333L441.851 10.5333L541.835 10.5333L546.865 5.26667L551.895 0L575.633 0.0175727L599.372 0.0333774L611.186 11.4041L623 22.773V63.1754V103.578L384.436 103.578L145.872 103.578L139.84 109.859L133.809 116.141L111.214 115.868L88.6198 115.595C63.7665 115.293 42.7233 114.608 41.8587 114.072C40.9941 113.535 65.6654 87.6514 96.6848 56.5482ZM156.562 5.31231L104.536 56.6325C64.2128 96.4081 53.188 108.198 55.5298 109.053C57.1908 109.659 75.0151 110.295 95.1411 110.465L131.735 110.772L138.085 104.554L144.433 98.3357L381.023 98.2988L617.611 98.2619L618.119 62.2467L618.624 26.2333L608.123 15.8228L597.622 5.41239L576.027 5.14553L554.433 4.87696L548.815 10.3385L543.198 15.8L441.767 15.7719L340.337 15.7438L334.411 10.5053L328.486 5.26667L242.523 5.28949L156.562 5.31231Z" fill="url(#paint2_linear_30_3581)"/>
<path d="M291.882 125.556C292.38 125.054 299.565 124.644 307.849 124.644H322.908L338.587 140.444L354.265 156.244H337.788H321.312L306.143 141.356C297.799 133.166 291.381 126.056 291.882 125.556Z" fill="url(#paint3_linear_30_3581)"/>
<path d="M372.279 124.809L387.593 124.513L403.309 140.38L419.024 156.244H402.395H385.766L371.365 141.724C363.445 133.738 356.964 126.732 356.964 126.156C356.964 125.578 363.857 124.973 372.279 124.809Z" fill="url(#paint4_linear_30_3581)"/>
<path fill-rule="evenodd" clip-rule="evenodd" d="M518.457 122.889L623 122.889V140.444V158H535.892H448.785L431.349 140.444L413.913 122.889H518.457ZM617.749 128.156H523.237C467.905 128.156 428.724 128.816 428.724 129.746C428.724 130.622 434.333 136.547 441.189 142.913L453.653 154.489H535.702H617.749V141.322V128.156Z" fill="url(#paint5_linear_30_3581)"/>
<path d="M241.923 124.644H258.149L273.828 140.444L289.507 156.244H272.321H255.134L240.414 141.514C232.319 133.413 225.696 126.303 225.696 125.714C225.696 125.125 232.998 124.644 241.923 124.644Z" stroke="#D7CC00" stroke-width="2" mask="url(#path-1-inside-1_30_3581)"/>
<path fill-rule="evenodd" clip-rule="evenodd" d="M13.5644 142.639L27.0447 128.154L84.0376 128.156H141.031L146.061 122.889L151.091 117.622H175.732H200.376L220.446 137.811L240.516 158L120.217 158C54.0509 158 -0.0454774 157.802 2.8689e-05 157.561C0.0472851 157.321 6.15036 150.604 13.5644 142.639ZM29.8346 133.605L21.0222 142.73C16.1758 147.749 12.201 152.054 12.1888 152.294C12.1783 152.535 60.7858 152.733 120.206 152.733H228.245L213.445 137.811L198.645 122.889H176.352C154.119 122.889 154.042 122.903 148.128 128.112L142.198 133.334L86.0154 133.47L29.8346 133.605Z" stroke="#D7CC00" stroke-width="2" mask="url(#path-1-inside-1_30_3581)"/>
<path fill-rule="evenodd" clip-rule="evenodd" d="M96.6848 56.5482L153.081 0L242.444 0L331.806 0L336.836 5.26667L341.867 10.5333L441.851 10.5333L541.835 10.5333L546.865 5.26667L551.895 0L575.633 0.0175727L599.372 0.0333774L611.186 11.4041L623 22.773V63.1754V103.578L384.436 103.578L145.872 103.578L139.84 109.859L133.809 116.141L111.214 115.868L88.6198 115.595C63.7665 115.293 42.7233 114.608 41.8587 114.072C40.9941 113.535 65.6654 87.6514 96.6848 56.5482ZM156.562 5.31231L104.536 56.6325C64.2128 96.4081 53.188 108.198 55.5298 109.053C57.1908 109.659 75.0151 110.295 95.1411 110.465L131.735 110.772L138.085 104.554L144.433 98.3357L381.023 98.2988L617.611 98.2619L618.119 62.2467L618.624 26.2333L608.123 15.8228L597.622 5.41239L576.027 5.14553L554.433 4.87696L548.815 10.3385L543.198 15.8L441.767 15.7719L340.337 15.7438L334.411 10.5053L328.486 5.26667L242.523 5.28949L156.562 5.31231Z" stroke="#D7CC00" stroke-width="2" mask="url(#path-1-inside-1_30_3581)"/>
<path d="M291.882 125.556C292.38 125.054 299.565 124.644 307.849 124.644H322.908L338.587 140.444L354.265 156.244H337.788H321.312L306.143 141.356C297.799 133.166 291.381 126.056 291.882 125.556Z" stroke="#D7CC00" stroke-width="2" mask="url(#path-1-inside-1_30_3581)"/>
<path d="M372.279 124.809L387.593 124.513L403.309 140.38L419.024 156.244H402.395H385.766L371.365 141.724C363.445 133.738 356.964 126.732 356.964 126.156C356.964 125.578 363.857 124.973 372.279 124.809Z" stroke="#D7CC00" stroke-width="2" mask="url(#path-1-inside-1_30_3581)"/>
<path fill-rule="evenodd" clip-rule="evenodd" d="M518.457 122.889L623 122.889V140.444V158H535.892H448.785L431.349 140.444L413.913 122.889H518.457ZM617.749 128.156H523.237C467.905 128.156 428.724 128.816 428.724 129.746C428.724 130.622 434.333 136.547 441.189 142.913L453.653 154.489H535.702H617.749V141.322V128.156Z" stroke="#D7CC00" stroke-width="2" mask="url(#path-1-inside-1_30_3581)"/>
<path d="M331.376 51.64H327.344V50.728C327.344 50.248 327.312 49.944 327.248 49.816C327.216 49.656 327.056 49.464 326.768 49.24C326.48 49.016 326.256 48.888 326.096 48.856C325.936 48.792 325.568 48.76 324.992 48.76H313.184C312.608 48.76 312.24 48.792 312.08 48.856C311.92 48.888 311.696 49.016 311.408 49.24C311.12 49.464 310.944 49.656 310.88 49.816C310.848 49.944 310.832 50.248 310.832 50.728V73.672C310.832 74.152 310.848 74.472 310.88 74.632C310.944 74.76 311.12 74.936 311.408 75.16C311.696 75.384 311.92 75.528 312.08 75.592C312.24 75.624 312.608 75.64 313.184 75.64H324.992C325.568 75.64 325.936 75.624 326.096 75.592C326.256 75.528 326.48 75.384 326.768 75.16C327.056 74.936 327.216 74.76 327.248 74.632C327.312 74.472 327.344 74.152 327.344 73.672V65.08H320.048V61.72H331.376V74.68C331.376 75.64 330.992 76.44 330.224 77.08L329.072 78.04C328.304 78.68 327.536 79 326.768 79H311.408C310.64 79 309.872 78.68 309.104 78.04L307.952 77.08C307.184 76.44 306.8 75.64 306.8 74.68V49.72C306.8 48.76 307.184 47.96 307.952 47.32L309.104 46.36C309.872 45.72 310.64 45.4 311.408 45.4H326.768C327.536 45.4 328.304 45.72 329.072 46.36L330.224 47.32C330.992 47.96 331.376 48.76 331.376 49.72V51.64ZM343.593 79V45.4H361.353C362.185 45.4 362.953 45.72 363.657 46.36L368.265 50.2C369.033 50.84 369.417 51.48 369.417 52.12V72.28C369.417 72.92 369.033 73.56 368.265 74.2L363.657 78.04C362.953 78.68 362.185 79 361.353 79H343.593ZM365.385 70.84V53.56C365.385 52.92 365.001 52.28 364.233 51.64L361.929 49.72C361.225 49.08 360.457 48.76 359.625 48.76H347.625V75.64H359.625C360.457 75.64 361.225 75.32 361.929 74.68L364.233 72.76C365.001 72.12 365.385 71.48 365.385 70.84ZM399.22 45.4H403.54L394.564 61.576L404.74 79H400.324L392.212 64.6C391.892 64.088 391.732 63.64 391.732 63.256H391.54C391.54 63.64 391.38 64.088 391.06 64.6L382.948 79H378.532L388.708 61.576L379.732 45.4H384.052L390.964 58.36C391.348 59.128 391.54 59.624 391.54 59.848H391.732C391.732 59.72 391.764 59.576 391.828 59.416C391.892 59.224 391.972 59.032 392.068 58.84C392.196 58.616 392.276 58.456 392.308 58.36L399.22 45.4ZM415.07 45.4H432.83C433.598 45.4 434.366 45.72 435.134 46.36L436.286 47.32C437.054 47.96 437.438 48.76 437.438 49.72V60.952C437.438 61.944 437.038 62.776 436.238 63.448L435.038 64.456C434.334 65.032 433.598 65.32 432.83 65.32H430.142L435.086 73C435.438 73.544 435.678 73.896 435.806 74.056C435.966 74.184 436.302 74.392 436.814 74.68L437.342 74.968C437.918 75.288 438.254 75.544 438.35 75.736C438.446 75.928 438.494 76.392 438.494 77.128V79H437.294C436.718 79 436.318 78.968 436.094 78.904C435.902 78.84 435.55 78.632 435.038 78.28L434.126 77.656C433.422 77.176 432.846 76.552 432.398 75.784L426.014 65.56H419.102V79H415.07V45.4ZM419.102 48.76V62.2H431.054C431.63 62.2 431.998 62.184 432.158 62.152C432.318 62.088 432.542 61.944 432.83 61.72C433.118 61.496 433.278 61.32 433.31 61.192C433.374 61.032 433.406 60.712 433.406 60.232V50.728C433.406 50.248 433.374 49.944 433.31 49.816C433.278 49.656 433.118 49.464 432.83 49.24C432.542 49.016 432.318 48.888 432.158 48.856C431.998 48.792 431.63 48.76 431.054 48.76H419.102Z" fill="white"/>
<defs>
<linearGradient id="paint0_linear_30_3581" x1="311.5" y1="0" x2="311.5" y2="158" gradientUnits="userSpaceOnUse">
<stop stop-color="#C51C07"/>
<stop offset="1" stop-color="#B56210"/>
</linearGradient>
<linearGradient id="paint1_linear_30_3581" x1="311.5" y1="0" x2="311.5" y2="158" gradientUnits="userSpaceOnUse">
<stop stop-color="#C51C07"/>
<stop offset="1" stop-color="#B56210"/>
</linearGradient>
<linearGradient id="paint2_linear_30_3581" x1="311.5" y1="0" x2="311.5" y2="158" gradientUnits="userSpaceOnUse">
<stop stop-color="#C51C07"/>
<stop offset="1" stop-color="#B56210"/>
</linearGradient>
<linearGradient id="paint3_linear_30_3581" x1="311.5" y1="0" x2="311.5" y2="158" gradientUnits="userSpaceOnUse">
<stop stop-color="#C51C07"/>
<stop offset="1" stop-color="#B56210"/>
</linearGradient>
<linearGradient id="paint4_linear_30_3581" x1="311.5" y1="0" x2="311.5" y2="158" gradientUnits="userSpaceOnUse">
<stop stop-color="#C51C07"/>
<stop offset="1" stop-color="#B56210"/>
</linearGradient>
<linearGradient id="paint5_linear_30_3581" x1="311.5" y1="0" x2="311.5" y2="158" gradientUnits="userSpaceOnUse">
<stop stop-color="#C51C07"/>
<stop offset="1" stop-color="#B56210"/>
</linearGradient>
</defs>
</svg>
