<svg width="69" height="69" viewBox="0 0 69 69" fill="none" xmlns="http://www.w3.org/2000/svg">
<rect x="34.2227" y="0.711013" width="47.4" height="47.4" rx="5.5" transform="rotate(45 34.2227 0.711013)" fill="#DD2626" fill-opacity="0.1"/>
<rect x="34.2227" y="0.711013" width="47.4" height="47.4" rx="5.5" transform="rotate(45 34.2227 0.711013)" stroke="#DD2626"/>
<g clip-path="url(#clip0_122_858)">
<g clip-path="url(#clip1_122_858)">
<g clip-path="url(#clip2_122_858)">
<path fill-rule="evenodd" clip-rule="evenodd" d="M32.8332 25.4265C33.119 25.4261 33.4379 25.4265 33.7962 25.4265C36.6624 25.4265 37.002 25.4368 38.1338 25.4882C39.1805 25.5361 39.7485 25.711 40.1269 25.858C40.6279 26.0526 40.985 26.2852 41.3605 26.6609C41.7362 27.0367 41.9688 27.3945 42.1638 27.8956C42.3107 28.2735 42.4859 28.8417 42.5335 29.8884C42.5849 31.0202 42.5961 31.3601 42.5961 34.2253C42.5961 37.0904 42.5849 37.4304 42.5335 38.5621C42.4856 39.6089 42.3107 40.177 42.1638 40.555C41.9692 41.056 41.7362 41.4128 41.3605 41.7883C40.9848 42.1641 40.6281 42.3967 40.1269 42.5913C39.749 42.7389 39.1805 42.9134 38.1338 42.9612C37.0023 43.0126 36.6624 43.0238 33.7962 43.0238C30.9299 43.0238 30.5901 43.0126 29.4585 42.9612C28.4119 42.9128 27.8439 42.7379 27.4653 42.5911C26.9643 42.3965 26.6065 42.1638 26.2308 41.7881C25.8551 41.4123 25.6225 41.0554 25.4275 40.5541C25.2806 40.1761 25.1055 39.608 25.0578 38.5612C25.0064 37.4296 24.9961 37.0895 24.9961 34.2226C24.9961 31.3557 25.0064 31.0175 25.0578 29.8857C25.1057 28.839 25.2806 28.2709 25.4275 27.8924C25.6221 27.3914 25.8551 27.0335 26.2308 26.6578C26.6065 26.282 26.9643 26.0494 27.4653 25.8544C27.8437 25.7068 28.4119 25.5323 29.4585 25.4842C30.4488 25.4395 30.8326 25.4261 32.8332 25.4238V25.4265ZM39.2961 27.6242C38.6888 27.6242 38.1961 28.1163 38.1961 28.7238C38.1961 29.3311 38.6888 29.8238 39.2961 29.8238C39.9034 29.8238 40.3961 29.3311 40.3961 28.7238C40.3961 28.1165 39.9034 27.6242 39.2961 27.6242ZM33.7965 28.7238C30.7589 28.7238 28.2961 31.1867 28.2961 34.2244C28.2961 37.262 30.7589 39.7238 33.7965 39.7238C36.8342 39.7238 39.2961 37.262 39.2961 34.2244C39.2961 31.1867 36.8342 28.7238 33.7965 28.7238Z" fill="white"/>
<path fill-rule="evenodd" clip-rule="evenodd" d="M33.7836 30.334C35.9097 30.334 37.6336 32.0576 37.6336 34.184C37.6336 36.3101 35.9097 38.034 33.7836 38.034C31.6572 38.034 29.9336 36.3101 29.9336 34.184C29.9336 32.0576 31.6572 30.334 33.7836 30.334Z" fill="white"/>
</g>
</g>
</g>
<defs>
<clipPath id="clip0_122_858">
<rect width="18.7" height="17.6" fill="white" transform="translate(24.8711 25.4238)"/>
</clipPath>
<clipPath id="clip1_122_858">
<rect width="18.7" height="17.6" fill="white" transform="translate(24.8711 25.4238)"/>
</clipPath>
<clipPath id="clip2_122_858">
<rect width="18.7" height="17.6" fill="white" transform="translate(24.8711 25.4238)"/>
</clipPath>
</defs>
</svg>
