<svg width="743" height="1281" viewBox="0 0 743 1281" fill="none" xmlns="http://www.w3.org/2000/svg">
<g filter="url(#filter0_f_141_46)">
<circle cx="202.5" cy="202.5" r="202.5" transform="matrix(-1 0 0 1 305 438)" fill="#F5AE22" fill-opacity="0.5"/>
</g>
<g filter="url(#filter1_f_141_46)">
<circle cx="69.0061" cy="69.0061" r="69.0061" transform="matrix(-1 0 0 1 122.625 557.939)" fill="#F5AD23"/>
</g>
<g filter="url(#filter2_f_141_46)">
<circle cx="46.0041" cy="46.0041" r="46.0041" transform="matrix(-1 0 0 1 105.375 582.584)" fill="#F5AD23"/>
</g>
<path d="M58.6317 738.793C58.752 736.775 58.7005 736.664 57.5307 736.397C56.8558 736.244 56.1621 736.255 55.9887 736.422C55.8157 736.589 55.23 739.791 54.6873 743.537C54.1449 747.283 53.5146 751.298 53.2868 752.459C53.0593 753.62 52.942 754.649 53.0262 754.746C53.1829 754.927 53.7649 752.768 54.4656 749.404C54.7809 747.891 54.823 748.348 54.6774 751.705C54.5772 754.01 54.601 755.773 54.7298 755.625C54.8586 755.476 55.3085 752.741 55.7294 749.547L56.4947 743.74L56.2967 748.696C56.1875 751.421 55.9977 754.182 55.8746 754.831C55.6766 755.874 55.7241 755.847 56.2824 754.595C56.9127 753.183 56.9135 753.186 56.7785 755.91C56.6836 757.823 56.772 758.491 57.0739 758.143C57.3111 757.869 57.5774 756.163 57.6661 754.351C57.853 750.535 58.5532 749.87 58.5532 753.51C58.5532 755.326 58.6727 755.826 59.013 755.434C59.3533 755.041 59.3471 753.086 58.9892 747.906C58.7234 744.057 58.5622 739.956 58.6317 738.793Z" fill="black" fill-opacity="0.78"/>
<path d="M64.0807 745.864C63.7727 743.398 63.3981 740.265 63.248 738.902C62.9723 736.394 62.7854 736.203 61.1096 736.722C60.2544 736.986 60.1893 737.268 60.1893 740.708C60.1893 742.744 60.3676 745.958 60.5861 747.85C60.8041 749.743 61.1104 752.778 61.2667 754.595L61.5505 757.899L61.8904 755.775C62.0859 754.554 62.0573 752.051 61.8234 749.888C61.5997 747.818 61.4365 744.632 61.4614 742.808C61.5011 739.864 61.5411 739.704 61.8209 741.38C61.9939 742.418 62.3877 745.817 62.6961 748.932L63.257 754.595L63.4615 751.292L63.666 747.988L64.0059 750.292C64.1928 751.559 64.5192 753.046 64.7314 753.596C65.1507 754.682 65.0836 753.888 64.0807 745.864Z" fill="black" fill-opacity="0.78"/>
<path fill-rule="evenodd" clip-rule="evenodd" d="M60.1893 542.385C60.1893 546.997 60.3071 548.136 60.8175 548.465C61.1627 548.689 61.5853 549.475 61.7567 550.213C61.996 551.247 62.4393 551.683 63.6847 552.113C67.8731 553.558 71.0937 556.658 73.2328 561.304C75.0828 565.323 75.732 569.971 75.732 579.203C75.732 585.797 75.8436 587.342 76.3639 587.942C77.0261 588.706 77.708 588.956 84.7979 591.028C88.043 591.978 89.5097 592.658 90.5257 593.686C91.2767 594.446 93.1332 595.676 94.6506 596.419C97.0912 597.614 97.4099 597.918 97.4099 599.051C97.4099 600.671 98.6418 602.014 101.506 603.514C102.846 604.216 103.412 604.7 102.911 604.716C102.45 604.731 101.852 604.998 101.582 605.31C100.232 606.868 101.92 609.687 104.685 610.49L106.579 611.041L104.896 611.866C103.104 612.744 102.485 613.976 102.963 615.715C103.373 617.204 104.334 617.921 105.999 617.98L107.431 618.03L106.022 618.618C102.025 620.284 102.487 625.51 106.632 625.51C107.184 625.51 107.635 625.723 107.635 625.982C107.635 626.242 107.083 626.454 106.408 626.454C104.142 626.454 102.84 629.243 103.968 631.677C104.279 632.346 104.852 632.6 106.116 632.629L107.84 632.667L106.408 633.38C104.284 634.437 103.545 635.391 103.545 637.074C103.545 638.977 104.627 640.134 106.441 640.168L107.84 640.195L106.447 640.758C105.68 641.068 104.693 641.882 104.253 642.568C103.552 643.659 103.513 644.027 103.939 645.518C104.389 647.089 104.551 647.221 106.031 647.221C106.913 647.221 107.635 647.434 107.635 647.693C107.635 647.953 107.207 648.165 106.684 648.165C106.161 648.165 105.307 648.688 104.787 649.327C104.035 650.251 103.89 650.829 104.077 652.159C104.302 653.758 104.26 653.829 103.092 653.829C101.293 653.829 99.8018 651.946 100.125 650.081C100.358 648.739 100.292 648.637 99.1994 648.63C98.5527 648.627 97.6095 648.496 97.1031 648.34C96.2299 648.07 96.1828 648.189 96.1828 650.668C96.1828 650.752 96.1827 650.834 96.1826 650.913C96.1812 651.943 96.1803 652.569 96.4382 652.979C96.8391 653.616 97.8653 653.729 100.486 654.018L100.887 654.062C102.236 654.212 104.164 654.453 105.171 654.599L107.002 654.862L105.714 655.488C105.005 655.832 104.099 656.688 103.7 657.39C103.011 658.604 103.01 658.735 103.686 660.096L104.397 661.525L102.949 662.903C101.717 664.074 101.498 664.577 101.489 666.253C101.479 667.956 101.284 668.385 100.055 669.404C99.055 670.233 98.497 671.179 98.178 672.585C97.7624 674.416 97.632 674.563 96.6467 674.315C94.4695 673.769 94.4457 673.741 95.1349 672.606C96.6925 670.04 94.8069 669.399 93.1361 671.926C92.5622 672.795 92.0927 673.621 92.0927 673.762C92.0927 673.903 92.7827 674.16 93.6265 674.332C96.7992 674.981 96.8794 675.079 95.1902 676.256C94.3427 676.846 93.3071 677.978 92.889 678.771C91.9467 680.56 90.612 681.368 85.357 683.333C83.0816 684.184 79.9853 685.527 78.4761 686.316L75.732 687.752V692.956C75.732 697.728 75.662 698.204 74.8898 698.681C74.4264 698.967 71.5272 699.347 68.4478 699.524L62.8479 699.846L62.6434 708.999C62.4594 717.229 62.3633 718.205 61.6876 718.675C59.7026 720.056 59.6899 720.086 59.9844 722.807C60.2245 725.022 60.4479 725.542 61.4573 726.23C65.5638 729.029 64.0783 735.952 59.3713 735.952C56.5896 735.952 54.8721 733.844 54.8721 730.427C54.8721 729.003 55.1841 728.392 56.7695 726.712C58.4444 724.938 58.6902 724.423 58.8653 722.32C59.0485 720.119 58.9839 719.896 58.0129 719.386C57.435 719.082 56.8198 718.491 56.646 718.072C56.4721 717.652 56.2321 713.38 56.1122 708.578L55.8946 699.846L50.2617 699.503C47.1634 699.315 44.2708 698.939 43.8331 698.669C43.1292 698.235 43.0237 697.568 42.9218 692.905L42.8061 687.633L40.4886 686.315C39.2137 685.59 35.9227 684.136 33.1749 683.084C27.7522 681.007 26.7947 680.423 26.0781 678.758C25.8188 678.156 24.9144 677.145 24.0686 676.512C22.3262 675.206 22.5732 674.79 25.4302 674.217L27.0683 673.888L25.9759 672.118C24.8057 670.222 23.3778 669.737 23.3778 671.234C23.3778 671.721 23.6718 672.402 24.0309 672.746C24.624 673.314 24.6146 673.403 23.9287 673.715C23.5131 673.903 22.6669 674.072 22.0484 674.091C21.0942 674.119 20.9236 673.932 20.9236 672.859C20.9236 671.973 20.3879 671.018 19.1379 669.673C17.5754 667.992 17.377 667.558 17.5508 666.198C17.7239 664.845 17.5288 664.409 16.0498 662.833C14.6996 661.395 14.4845 660.963 15.0031 660.733C15.4751 660.524 15.6208 659.956 15.5291 658.685C15.4297 657.31 15.1111 656.702 14.0669 655.892L12.7318 654.858L14.2714 654.594C15.1181 654.449 17.0993 654.191 18.6741 654.021C22.6636 653.59 22.9687 653.339 22.9687 650.487V648.122L21.4349 648.417C19.0266 648.878 18.8012 649.029 19.0675 649.996C19.3039 650.856 18.5911 653.338 18.097 653.375C17.9645 653.385 17.175 653.506 16.3431 653.646L14.8297 653.899L15.0579 652.277C15.3557 650.161 14.6837 648.789 13.1605 648.403C11.3813 647.952 11.2291 647.221 12.9143 647.221C13.9883 647.221 14.5254 646.93 15.0023 646.091C16.2097 643.965 14.8857 641.327 12.2488 640.606L10.9027 640.238L12.5388 640.136C14.7847 639.996 16.1124 639.819 19.7989 639.169L22.9687 638.61V636.072C22.9687 633.741 22.8939 633.538 22.0484 633.581C19.7919 633.696 19.0778 634.223 19.2046 635.68C19.3678 637.554 18.5559 638.696 16.7222 639.173L15.2015 639.569L15.4559 637.734C15.7611 635.532 15.2608 634.687 12.9511 633.499L11.3117 632.657L13.0358 632.623C15.0543 632.584 15.8387 631.453 15.4408 629.155C15.0763 627.055 14.466 626.454 12.6934 626.454C11.8209 626.454 11.1072 626.242 11.1072 625.982C11.1072 625.723 11.7309 625.51 12.4934 625.51C14.381 625.51 15.7426 624.159 15.7426 622.286C15.7426 620.41 14.7291 619.106 12.8116 618.517L11.3117 618.056L12.9867 618.007C14.7512 617.956 15.6984 617.141 16.1999 615.242C16.5492 613.919 14.5307 611.373 13.0815 611.309C12.3698 611.277 12.4909 611.153 13.5613 610.82C15.8163 610.117 16.8584 609.361 17.4789 607.976C18.2045 606.357 17.8642 605.295 16.492 604.898C15.4555 604.598 15.4759 604.562 17.1627 603.735C19.8099 602.438 21.675 600.607 21.8198 599.163C21.9241 598.118 22.4898 597.573 25.0846 596.011C26.8107 594.971 28.6513 593.667 29.1748 593.112C29.6983 592.556 30.7707 591.955 31.5581 591.776C32.3455 591.596 34.186 591.057 35.6483 590.577C37.1105 590.098 39.0808 589.473 40.0268 589.189C43.009 588.292 43.0106 588.286 43.0106 578.539C43.0106 573.767 43.2159 568.738 43.4666 567.363C44.1121 563.82 45.7387 560.056 47.6819 557.607C49.3475 555.509 52.6025 552.808 53.4185 552.847C53.6557 552.859 53.1403 553.3 52.2736 553.827C47.2521 556.884 42.914 566.682 43.4924 573.659C43.6118 575.097 43.7386 575.237 44.8512 575.155C45.526 575.106 48.8763 574.886 52.2961 574.667C55.7163 574.447 58.6351 574.128 58.7823 573.958C58.9296 573.788 58.9144 568.73 58.7484 562.719L58.4465 551.789L57.3205 552.049C54.9478 552.596 54.3089 552.649 55.5879 552.192C56.4002 551.901 56.9172 551.406 56.9172 550.919C56.9172 550.481 57.2792 549.591 57.7213 548.942C58.3942 547.955 58.5443 546.887 58.6416 542.394C58.672 540.989 58.703 539.941 58.7484 539.16C58.854 537.343 59.0376 536.965 59.4735 536.868C60.1231 536.724 60.1893 537.235 60.1893 542.385ZM74.2456 566.278C72.6484 559.068 68.8163 554.362 63.0524 552.531C62.0401 552.209 61.0062 551.932 60.7546 551.914C60.0597 551.866 59.5263 572.907 60.1987 573.842C60.5779 574.369 61.6994 574.539 64.8407 574.547C67.1193 574.552 70.2532 574.767 71.8054 575.027C73.3572 575.285 74.7221 575.388 74.8379 575.255C75.2432 574.786 74.8673 569.083 74.2456 566.278ZM59.7803 575.82C66.4166 575.811 70.926 575.659 69.8012 575.481C66.9033 575.022 51.7591 575.004 49.5549 575.457C48.4477 575.684 52.5215 575.829 59.7803 575.82ZM75.5275 589.383L73.2779 588.86C70.3096 588.169 69.5967 588.133 69.5967 588.675C69.5967 589.28 71.9113 589.747 73.9094 589.546L75.5275 589.383ZM59.3471 589.168C62.6352 589.168 64.6885 588.987 64.6885 588.696C64.6885 588.407 62.7195 588.224 59.6 588.224C56.6489 588.224 54.405 588.423 54.2586 588.696C54.095 589.002 55.8905 589.168 59.3471 589.168ZM46.3993 589.488C47.7008 589.398 48.9892 589.059 49.2624 588.736C49.6583 588.266 49.3442 588.216 47.7143 588.487C44.4933 589.023 43.629 589.681 46.3993 589.488ZM76.9807 593.131C74.8554 592.753 73.035 592.349 72.9356 592.234C72.8362 592.12 72.5703 592.157 72.3445 592.318C71.5187 592.907 74.2129 593.945 77.6879 594.377C79.6491 594.621 81.8979 594.925 82.6853 595.051L84.1168 595.281L82.4808 594.55C81.5809 594.147 79.106 593.509 76.9807 593.131ZM68.4327 593.298C68.1521 592.974 66.505 592.574 64.772 592.41C63.039 592.246 59.3725 592.14 56.6247 592.174C52.4597 592.226 51.51 592.374 50.9132 593.062C50.2318 593.849 50.6441 593.888 59.5701 593.888C67.067 593.888 68.8405 593.77 68.4327 593.298ZM44.6708 593.898C45.0214 593.892 45.6656 593.576 46.1024 593.195C46.8689 592.526 46.8611 592.502 45.8737 592.488C43.7693 592.458 32.8571 595.158 34.6257 595.27C34.8507 595.285 37.0594 594.984 39.5339 594.601C42.0085 594.219 44.3199 593.902 44.6708 593.898ZM93.5803 597.049C93.6899 596.922 92.4338 596.282 90.7887 595.626C87.2192 594.204 87.1624 594.193 88.207 595.104C89.1248 595.905 93.271 597.405 93.5803 597.049ZM24.0931 597.546C24.6997 597.779 29.949 595.862 30.5356 595.193C30.9838 594.681 30.5572 594.799 26.2413 596.377C24.7794 596.912 23.8125 597.438 24.0931 597.546ZM85.4916 599.588C84.9218 598.776 83.8506 598.433 79.7502 597.747C76.9778 597.284 74.5524 596.996 74.3601 597.106C74.1679 597.217 74.4595 597.826 75.008 598.459C75.8669 599.45 76.7913 599.734 81.6971 600.51L82.8606 600.695L82.8617 600.695C88.1005 601.524 89.8845 601.807 89.8968 601.727C89.9031 601.686 89.4369 601.548 88.7299 601.339L88.5936 601.299L88.4262 601.249C87.1889 600.881 85.8789 600.14 85.4916 599.588ZM69.8012 597.234L60.5983 597.086C55.5367 597.004 51.1087 596.888 50.7578 596.828C50.0804 596.713 49.2464 597.373 48.3597 598.726C47.8476 599.508 48.4436 599.552 59.5447 599.552H71.2708L70.5363 598.393L69.8012 597.234ZM43.9309 598.538C44.3248 597.999 44.6467 597.406 44.6467 597.218C44.6467 597.031 42.3263 597.267 39.4898 597.743C35.2417 598.457 34.1193 598.817 33.1189 599.789C32.451 600.437 31.6117 600.968 31.2542 600.968C30.8963 600.968 30.6947 601.073 30.8064 601.201C30.9176 601.33 33.7553 601.004 37.1117 600.476C42.1618 599.682 43.3386 599.347 43.9309 598.538ZM93.9333 600.98C93.2584 600.244 92.3381 599.54 91.8882 599.415C90.057 598.909 89.9073 599.182 91.2746 600.533C92.5929 601.837 96.8062 603.71 97.2549 603.192C97.3613 603.069 96.9334 602.823 96.3044 602.644C95.6749 602.465 94.6081 601.716 93.9333 600.98ZM20.8058 603.767C22.3339 603.822 26.261 601.882 27.6156 600.404L28.8995 599.003L27.5321 599.275C26.7689 599.426 25.6675 600.161 25.0384 600.937C24.4183 601.703 23.3774 602.463 22.7242 602.626C22.0714 602.79 21.1691 603.106 20.7191 603.329C19.9334 603.72 19.9367 603.737 20.8058 603.767ZM89.5972 605.309C89.4827 604.911 87.3886 604.404 83.4976 603.829C82.8827 603.738 82.3153 603.653 81.7921 603.575L81.7778 603.573L81.7637 603.571L81.7563 603.57C77.4852 602.933 76.1791 602.738 75.9783 603.193C75.8898 603.394 76.0158 603.72 76.1973 604.19C76.2488 604.324 76.3047 604.469 76.3615 604.625C76.7136 605.599 77.13 606.521 77.2871 606.674C77.5746 606.955 89.4865 608.551 91.1409 608.53C91.9966 608.52 91.9875 608.471 90.9012 607.217C90.2803 606.501 89.6938 605.642 89.5972 605.309ZM73.0885 606.277C72.9364 605.823 72.7093 604.868 72.5846 604.154L72.3576 602.856H59.5439H46.7302L46.3044 604.625C46.07 605.599 45.8774 606.555 45.8762 606.749C45.875 606.944 52.0593 607.103 59.6195 607.103C72.5437 607.103 73.3491 607.054 73.0885 606.277ZM28.3424 608.519C29.0479 608.519 32.0391 608.188 34.9889 607.783C35.6561 607.691 36.2607 607.611 36.8091 607.537L36.8101 607.537C40.3921 607.059 41.575 606.9 42.1253 606.136C42.3966 605.759 42.5142 605.235 42.6897 604.452C42.7443 604.209 42.8044 603.941 42.8765 603.644C43.0654 602.867 42.8887 602.809 41.1058 603.067C40.0162 603.224 37.0099 603.653 34.4253 604.019C30.3531 604.595 29.6325 604.83 29.0271 605.776C28.6426 606.376 28.0426 607.239 27.6937 607.693C27.1043 608.46 27.1509 608.519 28.3424 608.519ZM97.4099 606.847C97.4099 606.484 96.8115 605.987 96.0806 605.744C93.6473 604.933 93.514 605.307 95.3668 607.742C96.3824 609.077 97.0606 609.459 99.2709 609.939C100.742 610.26 102.049 610.404 102.174 610.259C102.299 610.115 101.737 609.852 100.925 609.677C99.2497 609.314 97.4099 607.833 97.4099 606.847ZM21.0423 609.669C22.4816 609.374 23.5778 608.232 24.8003 605.755C25.0519 605.245 24.8347 605.183 23.7356 605.451C22.1609 605.834 21.8325 606.117 21.1773 607.654C20.9188 608.26 20.1118 608.959 19.3841 609.207C18.6561 609.455 18.0605 609.841 18.0605 610.065C18.0605 610.288 18.3824 610.361 18.7763 610.228C19.1702 610.095 20.1895 609.843 21.0423 609.669ZM92.923 611.83C92.6436 611.32 90.504 610.856 85.0559 610.123C80.94 609.569 77.373 609.088 77.1296 609.054C76.8858 609.019 76.5852 609.108 76.4612 609.251C76.0669 609.706 77.1762 613.856 77.7954 614.242C78.5186 614.693 92.5806 616.528 93.013 616.228C93.4486 615.926 93.3819 612.667 92.923 611.83ZM73.5413 612.891C73.4014 611.914 73.2848 610.637 73.2824 610.053L73.2779 608.991H59.6032C58.3926 608.991 57.2862 608.989 56.275 608.987H56.2698H56.265H56.2606H56.2565H56.2528H56.2493H56.2461C48.3557 608.972 46.2721 608.968 45.683 610.049C45.4716 610.437 45.4526 610.964 45.4268 611.681C45.4175 611.939 45.4074 612.222 45.387 612.531L45.2631 614.419L59.5292 614.543L73.7957 614.667L73.5413 612.891ZM26.1386 616.202C26.3071 616.304 29.8181 615.945 33.9406 615.404L34.5096 615.329L34.6178 615.315L34.6305 615.313C39.5346 614.671 41.1363 614.461 41.7936 613.441C42.1123 612.946 42.2089 612.261 42.3523 611.243L42.3525 611.241C42.3659 611.146 42.3797 611.048 42.3942 610.947L42.6882 608.891L41.1111 609.158C40.2436 609.306 36.681 609.787 33.1942 610.228C28.6496 610.803 26.7096 611.235 26.3431 611.753C25.791 612.533 25.6364 615.896 26.1386 616.202ZM99.1736 613.792C99.3041 612.997 99.1134 612.582 98.484 612.288C98.0058 612.065 97.2005 611.869 96.6941 611.853C95.8978 611.827 95.7746 612.061 95.7799 613.593C95.7836 614.567 95.9214 615.597 96.0867 615.884C96.4618 616.533 101.909 617.969 101.909 617.417C101.909 617.196 101.64 617.015 101.312 617.015C100.309 617.015 98.9748 615.003 99.1736 613.792ZM23.1732 616.289L23.298 614.056C23.4076 612.094 23.3242 611.823 22.6088 611.823C22.1614 611.823 21.3376 612.024 20.7781 612.269C20.0103 612.606 19.8164 612.958 19.9862 613.708C20.2545 614.89 18.7084 617.015 17.5803 617.015C17.1697 617.015 16.8335 617.231 16.8335 617.496C16.8335 617.771 17.2646 617.852 17.8437 617.684C18.3996 617.523 19.8258 617.144 21.0136 616.84L23.1732 616.289ZM73.8473 619.48C73.7209 618.254 73.5457 616.983 73.4582 616.655C73.3335 616.187 70.2916 616.085 59.2796 616.183L45.2602 616.307L45.1392 618.962C45.0541 620.828 45.1756 621.669 45.5482 621.794C45.8398 621.891 52.3779 621.912 60.0777 621.84L74.0775 621.71L73.8473 619.48ZM93.2175 618.38C93.1614 618.352 90.4464 617.954 87.1845 617.495C83.9226 617.036 80.2181 616.634 78.9522 616.602L76.6507 616.543L76.8548 618.785C76.9669 620.018 77.2127 621.219 77.4004 621.455C77.6646 621.786 90.2546 623.546 92.8085 623.61C93.1569 623.618 93.3197 622.796 93.3197 621.027C93.3197 619.599 93.2735 618.408 93.2175 618.38ZM41.6007 621.631C41.7152 621.499 41.9209 620.3 42.0575 618.967L42.3067 616.543L40.9201 616.544C39.1392 616.546 27.0168 617.917 26.3431 618.192C25.7783 618.423 25.6118 622.938 26.1542 623.325C26.537 623.597 41.2992 621.979 41.6007 621.631ZM99.7196 620.798C99.9237 619.621 99.8096 619.495 98.1637 619.079C97.1866 618.832 96.2929 618.782 96.1776 618.968C96.0622 619.153 96.0343 620.274 96.1161 621.458C96.2568 623.499 96.3444 623.636 97.7996 624.088C98.6439 624.351 100.236 624.671 101.338 624.8C103.133 625.01 103.205 624.985 102.03 624.556C100.356 623.946 99.4337 622.446 99.7196 620.798ZM23.0317 621.217C23.1095 619.9 23.1001 618.739 23.0105 618.636C22.7998 618.393 20.9322 618.907 19.9837 619.469C19.4839 619.765 19.3309 620.205 19.5064 620.843C19.8908 622.24 18.7207 623.92 16.9562 624.504C15.4715 624.995 15.5025 625.007 17.6515 624.769C18.8888 624.633 20.5736 624.316 21.3957 624.066C22.8391 623.626 22.8955 623.529 23.0317 621.217ZM90.2521 625.001C89.1273 624.973 86.2744 624.681 83.9123 624.352C81.5503 624.023 79.0193 623.724 78.2883 623.689L76.959 623.622V626.202C76.959 628.183 77.1251 628.879 77.6748 629.203C78.3824 629.619 87.5493 630.726 91.4522 630.866L93.4702 630.938L93.3594 628.345C93.2984 626.918 93.0343 625.594 92.7729 625.402C92.5111 625.21 91.3769 625.029 90.2521 625.001ZM73.947 627.096C73.8039 625.892 73.6869 624.618 73.6869 624.264C73.6869 623.735 71.171 623.622 59.3713 623.622H45.0557L45.05 625.392C45.0471 626.366 44.9334 627.64 44.798 628.224L44.5514 629.286H59.3791H74.2071L73.947 627.096ZM41.8485 626.636C41.9254 625.194 41.896 623.906 41.7835 623.774C41.6711 623.642 40.8428 623.65 39.943 623.792C39.0431 623.933 35.7301 624.291 32.5806 624.587C29.4312 624.882 26.5783 625.286 26.2409 625.483C25.447 625.948 25.2245 629.273 25.9161 630.336C26.4115 631.098 26.8532 631.106 32.7852 630.463C33.4652 630.39 34.0936 630.323 34.6743 630.261C39.6959 629.727 41.1504 629.572 41.6003 628.715C41.7837 628.365 41.8002 627.899 41.8233 627.243C41.8298 627.057 41.8369 626.855 41.8485 626.636ZM99.9585 628.139C100.123 627.146 99.9463 626.924 98.6775 626.533C96.1894 625.767 96.1828 625.772 96.1828 628.56V631.138L97.7167 631.585C98.5601 631.831 100.171 632.169 101.296 632.336L103.341 632.64L102.114 631.747C100.345 630.461 99.7413 629.45 99.9585 628.139ZM22.7642 631.41L22.8877 628.67L23.0109 625.93L21.4562 626.254C19.3882 626.685 19.2892 626.776 19.2786 628.252C19.2688 629.612 18.2344 631.401 17.2626 631.739C15.7729 632.257 17.7141 632.382 20.1056 631.922L22.7642 631.41ZM93.2175 633.208C92.9361 632.998 89.6692 632.476 85.9574 632.049C85.4365 631.989 84.9462 631.932 84.4848 631.878C79.4325 631.291 77.8443 631.106 77.3917 631.846C77.1842 632.186 77.2153 632.72 77.2608 633.498C77.2698 633.653 77.2795 633.817 77.2879 633.992C77.3562 635.412 77.5055 636.682 77.6192 636.813C77.8806 637.114 88.2291 638.172 91.3769 638.219L93.7287 638.254V635.922C93.7287 634.574 93.5128 633.428 93.2175 633.208ZM73.9638 634.124C73.8546 632.632 73.7474 631.357 73.7261 631.292C73.7045 631.227 67.2449 631.174 59.3713 631.174H45.0557V632.531C45.0557 633.277 44.9407 634.551 44.8 635.363L44.5444 636.838H59.3533H74.1622L73.9638 634.124ZM40.4542 636.997C41.7815 636.733 41.7835 636.728 41.7835 633.893V631.052L39.4317 631.337C38.1384 631.494 34.7141 631.877 31.8227 632.189C28.4406 632.553 26.3615 632.99 25.9942 633.414C25.1696 634.366 25.2449 637.733 26.099 638.111C26.7452 638.397 37.6754 637.549 40.4542 636.997ZM99.9516 635.706C100.047 634.554 99.8836 634.239 99.046 633.963C98.4836 633.779 97.6095 633.607 97.1031 633.581C96.2577 633.538 96.1828 633.741 96.1828 636.071L96.1828 636.203C96.1824 637.246 96.1821 637.888 96.4467 638.308C96.8715 638.982 97.9785 639.084 100.862 639.349L101.091 639.37C102.553 639.504 103.29 639.502 102.727 639.365C101.064 638.958 99.8178 637.315 99.9516 635.706ZM91.0701 640.036C89.7204 639.848 86.4073 639.503 83.7078 639.269C83.2478 639.229 82.8201 639.191 82.4224 639.156C79.0014 638.852 77.8022 638.745 77.4183 639.34C77.2111 639.661 77.2413 640.186 77.2879 640.994C77.298 641.168 77.3088 641.356 77.3181 641.557C77.3844 642.985 77.4826 644.205 77.5366 644.268C77.8695 644.656 93.1201 645.752 93.4175 645.409C93.6159 645.18 93.721 643.955 93.6511 642.686L93.5242 640.378L91.0701 640.036ZM74.1769 642.147C74.1057 640.915 73.9724 639.64 73.8799 639.316C73.7503 638.859 70.4961 638.726 59.4412 638.726H45.1698L44.9203 641.153C44.7832 642.489 44.7686 643.763 44.8876 643.985C45.0066 644.208 51.6744 644.389 59.705 644.389H74.3061L74.1769 642.147ZM41.7835 644.314V641.52C41.7835 639.983 41.7059 638.726 41.6114 638.726C40.1357 638.726 26.0413 640.228 25.7815 640.413C25.2187 640.815 25.3623 644.688 25.9611 645.261C26.4724 645.751 29.1073 645.615 39.2272 644.577L41.7835 644.314ZM100.135 642.589C100.319 641.776 100.083 641.566 98.5739 641.198C97.5964 640.96 96.6471 640.914 96.465 641.095C96.2826 641.277 96.1906 642.459 96.2605 643.723C96.3865 646.003 96.3988 646.022 98.0234 646.331C98.9233 646.501 100.672 646.759 101.909 646.903L104.159 647.164L102.394 646.435C100.535 645.667 99.7426 644.319 100.135 642.589ZM22.8922 643.982C22.9626 642.848 22.929 641.646 22.8169 641.31C22.6648 640.853 22.221 640.804 21.0529 641.117C20.1943 641.347 19.3342 641.54 19.1412 641.546C18.9477 641.552 18.9064 642.093 19.0487 642.747C19.4316 644.507 18.6647 645.708 16.7852 646.292C14.1982 647.096 15.0583 647.21 19.0892 646.599L22.7642 646.041L22.8922 643.982ZM73.9667 649.57C73.8325 648.266 73.6121 646.991 73.4763 646.738C73.08 645.998 45.4806 646.124 45.2778 646.867C45.1894 647.192 44.9996 648.466 44.8565 649.699L44.5963 651.941H59.4031H74.21L73.9667 649.57ZM93.1574 647.882C92.8428 647.743 90.3122 647.462 87.5334 647.258C84.7545 647.055 81.2386 646.856 79.7199 646.819L76.959 646.749V648.134C76.959 648.896 77.13 650.038 77.3386 650.672C77.7848 652.026 78.7685 652.216 87.9002 652.705L93.7287 653.018V650.576C93.7287 648.922 93.5447 648.054 93.1574 647.882ZM41.7835 651.853V649.244V646.635L35.8826 646.975C32.6375 647.163 29.0022 647.454 27.8046 647.622L25.6273 647.929V650.289V652.649L29.922 652.551C32.2841 652.497 35.919 652.318 38.0001 652.153L41.7835 651.853ZM74.0959 656.92C74.0959 655.418 73.8922 654.683 73.3801 654.34C72.5948 653.813 46.2725 653.713 45.5825 654.234C45.3621 654.4 45.0679 655.517 44.9293 656.715L44.6773 658.894L48.4456 659.186C51.33 659.41 62.771 659.339 73.7891 659.029C73.9577 659.024 74.0959 658.075 74.0959 656.92ZM91.5385 655.187C90.6059 655.155 87.9105 654.979 85.5484 654.794C83.1863 654.61 80.2872 654.423 79.1064 654.38L76.959 654.301L76.9651 656.071C76.9688 657.044 77.1378 658.144 77.3407 658.514C77.8446 659.433 92.471 660.62 93.1582 659.797C93.4126 659.493 93.5279 658.379 93.422 657.251C93.2351 655.26 93.2212 655.244 91.5385 655.187ZM41.6813 659.079C41.7373 659.047 41.7835 657.929 41.7835 656.596V654.171L38.4091 654.46C36.5534 654.618 33.0101 654.89 30.5356 655.063C27.9964 655.24 25.9054 655.606 25.7357 655.901C25.2494 656.749 25.3799 659.338 25.9341 659.835C26.2658 660.132 29.1056 660.089 34.0122 659.714C38.174 659.396 41.6253 659.11 41.6813 659.079ZM99.9712 657.922C100.056 656.643 99.9131 656.418 98.8415 656.143C96.2483 655.478 96.1828 655.525 96.1828 658.039L96.1828 658.112C96.1827 659.063 96.1826 659.656 96.4251 660.051C96.828 660.707 97.9006 660.816 100.755 661.106L100.887 661.12C102.705 661.305 103.043 661.257 102.19 660.936C100.413 660.266 99.8644 659.521 99.9712 657.922ZM18.265 661.112C22.9557 660.703 22.9687 660.694 22.9687 657.984V655.634L21.2304 655.965C18.9215 656.406 18.7894 656.534 19.0774 658.046C19.3649 659.557 18.7215 660.355 16.7287 660.959C15.808 661.238 16.2789 661.285 18.265 661.112ZM91.6837 663.3C91.6837 663.088 88.969 662.726 85.6507 662.495C85.1496 662.46 84.6783 662.427 84.2348 662.396C78.9162 662.022 77.6049 661.929 77.1422 662.608C76.9908 662.83 76.9303 663.134 76.8499 663.538L76.8497 663.539C76.8293 663.642 76.8076 663.751 76.7828 663.867C76.5476 664.965 76.5476 665.803 76.7828 666.055C76.9922 666.28 80.0357 666.612 83.5458 666.792L89.9282 667.119L90.8059 665.403C91.2885 664.459 91.6837 663.513 91.6837 663.3ZM71.9608 665.982C72.5155 665.202 72.7203 663.183 72.3207 662.442C72.077 661.991 68.9881 661.852 59.1426 661.852H46.2827V663.268C46.2827 664.055 46.6463 665.104 47.1008 665.628C47.8812 666.529 48.464 666.572 59.7304 666.572C68.6829 666.572 71.643 666.429 71.9608 665.982ZM42.3529 664.276C42.2057 663.332 41.995 662.38 41.885 662.159C41.775 661.938 40.7405 661.879 39.5867 662.026C38.4328 662.174 35.2343 662.435 32.4784 662.606C29.2079 662.81 27.4683 663.101 27.4695 663.447C27.4703 663.738 27.8495 664.693 28.3125 665.569L29.1543 667.162L34.5484 666.842C37.5155 666.666 40.5454 666.402 41.2821 666.256C42.5713 666.001 42.611 665.927 42.3529 664.276ZM98.6227 666.603C99.3994 664.928 99.1396 663.819 97.9212 663.61C96.1963 663.315 96.1072 663.4 95.973 665.476C95.8573 667.267 95.9346 667.435 96.9903 667.679C97.6185 667.824 98.6414 668.09 99.2636 668.27C100.065 668.502 100.311 668.44 100.105 668.057C99.9463 667.76 99.4521 667.516 99.0075 667.516C98.3351 667.516 98.2705 667.363 98.6227 666.603ZM22.9369 664.493C23.1753 664.161 23.2432 663.742 23.0874 663.562C22.7614 663.186 20.4782 663.659 19.9686 664.208C19.7809 664.41 19.9236 665.237 20.286 666.046L20.9445 667.516H19.7072C19.0266 667.516 18.4695 667.728 18.4695 667.988C18.4695 668.598 19.2344 668.586 20.965 667.947C21.7294 667.664 22.5932 667.349 22.8841 667.246C23.2902 667.102 23.3075 666.83 22.9582 666.077C22.6363 665.384 22.6301 664.919 22.9369 664.493ZM87.5935 670.758C87.5935 670.554 86.1668 670.315 84.4236 670.227L84.2124 670.216C76.974 669.849 75.6398 669.781 75.1574 670.487C75.0485 670.647 74.983 670.846 74.9026 671.09L74.8923 671.122C74.6665 671.806 74.561 672.458 74.6579 672.57C74.7544 672.681 77.2486 672.897 80.2005 673.048C85.4163 673.316 85.5962 673.292 86.5807 672.225C87.1378 671.621 87.5935 670.961 87.5935 670.758ZM59.2764 672.708C70.2344 672.708 70.8238 672.607 70.8238 670.726C70.8238 669.928 70.1354 669.876 59.6 669.876C53.4267 669.876 48.2947 670.035 48.1953 670.23C48.0963 670.424 48.1711 671.062 48.3626 671.646L48.7107 672.708H59.2764ZM44.1211 672.528C44.2581 672.369 44.1604 671.708 43.9039 671.058C43.4695 669.958 43.2445 669.879 40.6673 669.923C39.1441 669.949 36.3788 670.108 34.5219 670.277L31.1458 670.584L32.1659 671.95L33.186 673.316L38.529 673.066C41.4674 672.928 43.9837 672.686 44.1211 672.528ZM89.4386 678.367C89.7735 678.046 90.0476 677.597 90.0476 677.37C90.0476 676.585 89.0213 676.998 87.6794 678.323L86.3341 679.651L88.4732 679.944C89.65 680.105 90.7003 680.135 90.8075 680.012C90.9143 679.888 90.6141 679.787 90.1401 679.787C89.012 679.787 88.6729 679.101 89.4386 678.367ZM81.4582 677.899C81.4582 677.674 80.9519 677.422 80.3334 677.339C79.715 677.255 77.7145 677.121 75.8883 677.041C73.2791 676.926 72.5188 677.042 72.3396 677.58C72.1551 678.135 72.8374 678.327 75.9402 678.596C79.7113 678.922 81.4582 678.701 81.4582 677.899ZM59.3471 678.371C66.8137 678.371 68.4482 678.147 67.6547 677.232C67.4989 677.052 63.7306 676.944 59.2813 676.991C52.7411 677.062 51.1909 677.202 51.1909 677.725C51.1909 678.251 52.7145 678.371 59.3471 678.371ZM42.8449 678.592C46.3968 678.285 47.4587 677.863 46.1805 677.268C45.4291 676.918 41.0428 676.974 38.9204 677.361C37.1457 677.684 37.1142 677.718 38.039 678.311C38.7498 678.766 39.9945 678.839 42.8449 678.592ZM32.3209 679.509C32.4031 679.429 31.943 678.829 31.2984 678.175C29.9678 676.824 29.104 676.623 29.104 677.664C29.104 678.053 29.2881 678.371 29.513 678.371C30.2791 678.371 29.9249 679.344 29.0017 679.776C28.3567 680.078 28.6933 680.124 30.1265 679.93C31.2513 679.778 32.2387 679.589 32.3209 679.509ZM74.7781 683.681C75.3103 683.43 74.9348 683.248 73.4824 683.053C71.3044 682.762 70.043 682.936 69.4127 683.616C68.937 684.129 73.7077 684.187 74.7781 683.681ZM59.3713 684.035C62.6434 684.035 64.6885 683.853 64.6885 683.563C64.6885 683.273 62.6434 683.091 59.3713 683.091C56.0991 683.091 54.0541 683.273 54.0541 683.563C54.0541 683.853 56.0991 684.035 59.3713 684.035ZM44.6467 683.563C45.4577 684.168 49.5549 684.168 49.5549 683.563C49.5549 683.295 48.3663 683.095 46.794 683.098C44.8606 683.104 44.2172 683.243 44.6467 683.563ZM59.1668 698.597C61.4164 698.597 64.0852 698.426 65.0975 698.218C66.3176 697.968 64.3179 697.84 59.1668 697.84C54.0156 697.84 52.0159 697.968 53.236 698.218C54.2483 698.426 56.9172 698.597 59.1668 698.597ZM61.3174 716.432C61.8819 715.796 62.5629 701.75 62.0974 700.351C61.8847 699.711 61.3599 699.591 59.2743 699.706L56.7127 699.846V707.794C56.7127 715.648 56.7245 715.753 57.7094 716.673C58.7619 717.656 60.3235 717.551 61.3174 716.432ZM59.1144 729.264C60.4875 729.445 61.2225 728.784 60.8601 727.694C60.465 726.507 57.9397 726.914 57.9397 728.165C57.9397 728.854 58.2571 729.151 59.1144 729.264ZM59.7288 734.835C60.9873 734.6 62.6442 733.382 62.643 732.693C62.6426 732.539 61.1702 732.413 59.3705 732.413C57.5712 732.413 56.0991 732.557 56.0991 732.732C56.0991 732.908 56.6051 733.511 57.2239 734.073C58.0641 734.836 58.6972 735.028 59.7288 734.835Z" fill="black" fill-opacity="0.78"/>
<path fill-rule="evenodd" clip-rule="evenodd" d="M90.7887 595.626C92.4338 596.282 93.6899 596.922 93.5803 597.049C93.271 597.405 89.1248 595.905 88.207 595.104C87.1624 594.193 87.2192 594.204 90.7887 595.626ZM65.0975 698.218C64.0852 698.426 61.4164 698.597 59.1668 698.597C56.9172 698.597 54.2483 698.426 53.236 698.218C52.0159 697.968 54.0156 697.84 59.1668 697.84C64.3179 697.84 66.3176 697.968 65.0975 698.218Z" fill="black" fill-opacity="0.78"/>
<path d="M58.6416 542.394L0.223213 533.048L1.45546 530.197L58.7484 539.16C58.703 539.941 58.672 540.989 58.6416 542.394Z" fill="black" fill-opacity="0.78"/>
<defs>
<filter id="filter0_f_141_46" x="-537.7" y="0.299988" width="1280.4" height="1280.4" filterUnits="userSpaceOnUse" color-interpolation-filters="sRGB">
<feFlood flood-opacity="0" result="BackgroundImageFix"/>
<feBlend mode="normal" in="SourceGraphic" in2="BackgroundImageFix" result="shape"/>
<feGaussianBlur stdDeviation="218.85" result="effect1_foregroundBlur_141_46"/>
</filter>
<filter id="filter1_f_141_46" x="-200.687" y="372.639" width="508.612" height="508.612" filterUnits="userSpaceOnUse" color-interpolation-filters="sRGB">
<feFlood flood-opacity="0" result="BackgroundImageFix"/>
<feBlend mode="normal" in="SourceGraphic" in2="BackgroundImageFix" result="shape"/>
<feGaussianBlur stdDeviation="92.65" result="effect1_foregroundBlur_141_46"/>
</filter>
<filter id="filter2_f_141_46" x="-45.8328" y="523.384" width="210.408" height="210.408" filterUnits="userSpaceOnUse" color-interpolation-filters="sRGB">
<feFlood flood-opacity="0" result="BackgroundImageFix"/>
<feBlend mode="normal" in="SourceGraphic" in2="BackgroundImageFix" result="shape"/>
<feGaussianBlur stdDeviation="29.6" result="effect1_foregroundBlur_141_46"/>
</filter>
</defs>
</svg>
