<svg width="1507" height="953" viewBox="0 0 1507 953" fill="none" xmlns="http://www.w3.org/2000/svg">
<path d="M1295.45 552.483C1308.97 590.989 1319.5 675.711 1319.28 684.883C1319.06 694.055 1332.89 708.37 1337.07 706.271C1341.24 704.17 1340.82 658.926 1320.93 589.356C1312.6 560.227 1301.81 535.915 1292.07 517.492C1279.83 494.344 1269.27 480.494 1267.37 478.069C1269.67 480.909 1277.14 489.752 1287.17 501.436C1316.87 536.036 1369.09 595.552 1376.31 598.025C1386.1 601.373 1399.87 584.399 1397.71 579.92C1395.56 575.44 1372.53 567.768 1337.43 534.36C1325.41 522.914 1311.36 509.517 1297.93 496.787C1279.55 479.365 1262.31 463.188 1252.97 454.962C1249.22 451.656 1246.74 449.637 1245.97 449.334L1240.59 454.369C1240.59 454.369 1241.95 456.316 1244.24 459.735C1254.19 474.579 1281.92 517.159 1293.96 548.444C1294.49 549.815 1294.99 551.163 1295.45 552.483Z" fill="url(#paint0_linear_5_205)"/>
<path opacity="0.4" d="M1295.45 552.483C1308.97 590.989 1319.5 675.711 1319.28 684.883C1319.06 694.055 1332.89 708.37 1337.07 706.271C1338.5 705.55 1339.39 699.729 1339.14 689.58C1337.84 692.448 1335.91 694.034 1333.3 693.756C1326.31 693.01 1323.81 679.823 1322.83 666.801C1321.84 653.779 1306.04 572.758 1313.22 577.327C1316.14 579.185 1321.49 593.863 1326.7 610.998C1325 604.083 1323.08 596.862 1320.93 589.356C1312.6 560.227 1301.81 535.915 1292.07 517.492C1279.83 494.344 1269.27 480.494 1267.37 478.069C1269.67 480.909 1277.14 489.752 1287.17 501.436C1316.87 536.036 1369.09 595.552 1376.31 598.025C1386.1 601.373 1399.87 584.399 1397.71 579.92C1397.24 584.823 1384.47 593.376 1377.74 590.825C1371.01 588.271 1311.71 530.882 1308.79 517.597C1307.71 512.728 1309.34 510.745 1312.69 510.8C1307.77 506.125 1302.81 501.413 1297.93 496.788C1279.55 479.366 1262.31 463.189 1252.97 454.963C1249.22 451.657 1246.74 449.638 1245.98 449.335L1240.6 454.37C1240.6 454.37 1241.95 456.317 1244.24 459.736C1254.2 474.58 1281.92 517.16 1293.97 548.445C1294.49 549.815 1294.99 551.163 1295.45 552.483Z" fill="url(#paint1_linear_5_205)"/>
<path opacity="0.6" d="M1244.24 459.737C1254.19 474.581 1281.92 517.161 1293.96 548.446C1295.21 544.381 1296.08 539.982 1295.89 535.96C1295.69 531.618 1294.06 524.629 1292.07 517.492C1279.83 494.344 1269.27 480.494 1267.37 478.069C1269.67 480.909 1277.13 489.752 1287.17 501.436C1285.35 495.88 1283.97 492.006 1283.97 492.006C1286.45 493.399 1292.45 495.266 1297.93 496.787C1279.55 479.365 1262.31 463.188 1252.97 454.962C1250.23 456.466 1247.24 458.099 1244.24 459.737Z" fill="url(#paint2_linear_5_205)"/>
<path d="M1245.19 448.396C1245.3 447.361 1245.36 446.806 1245.36 446.806C1247.53 444.082 1282.95 415.95 1323.65 434.51C1364.35 453.072 1386 496.318 1336.28 498.658C1329.25 498.988 1322.7 498.544 1316.62 497.541C1316.62 497.54 1316.62 497.541 1316.62 497.541C1314.57 497.205 1312.57 496.803 1310.63 496.345L1310.63 496.345C1282.66 489.738 1266.07 471.553 1261.65 466.155L1261.64 466.137C1261.11 465.486 1260.76 465.024 1260.58 464.795C1263.49 468.858 1316.76 544.254 1273.75 563.333C1259.05 569.856 1250.98 559.144 1246.77 541.937C1239.13 510.732 1244.16 458.172 1245.19 448.396ZM1322.1 484.287C1361.71 487.814 1347.56 453.955 1313.9 444.215C1280.25 434.478 1253.18 451.045 1249.97 448.57C1249.97 448.57 1249.97 448.714 1249.95 448.995C1249.55 456.554 1244.44 562.073 1274.23 532.846C1290.38 517.009 1252.33 455.229 1252.33 455.229C1252.33 455.229 1288.44 481.289 1322.1 484.287Z" fill="url(#paint3_linear_5_205)"/>
<path opacity="0.4" d="M1246.77 541.938C1249.53 548.577 1251.34 552.948 1251.34 552.948C1251.34 552.948 1281.29 552.935 1283.73 529.469C1286.14 506.309 1261.21 465.813 1260.56 464.757L1261.64 466.139L1261.65 466.156C1266.07 471.554 1282.66 489.737 1310.63 496.347L1310.63 496.346L1316.62 497.542C1316.62 497.542 1316.62 497.541 1316.62 497.543C1332.99 497.407 1355.3 494.323 1352.54 472.693C1350.21 454.36 1325.38 445.488 1313.91 444.217C1347.56 453.958 1361.72 487.816 1322.1 484.289C1288.44 481.29 1252.33 455.233 1252.33 455.233C1252.33 455.233 1290.38 517.012 1274.24 532.85C1244.45 562.076 1249.55 456.559 1249.96 448.998L1245.19 448.398C1244.16 458.174 1239.13 510.734 1246.77 541.938Z" fill="url(#paint4_linear_5_205)"/>
<path d="M197.799 186.426L197.799 704.171L1254.81 704.171L1254.81 186.426L197.799 186.426Z" fill="url(#paint5_linear_5_205)"/>
<path opacity="0.2" d="M348.829 340.808C339.732 354.305 357.519 386.412 365.316 370.163C373.11 353.914 364.717 317.236 348.829 340.808Z" fill="url(#paint6_linear_5_205)"/>
<path opacity="0.2" d="M936.78 234.111C927.682 247.608 945.47 279.715 953.267 263.466C961.061 247.217 952.667 210.539 936.78 234.111Z" fill="url(#paint7_linear_5_205)"/>
<path opacity="0.2" d="M493.51 669.518C484.413 683.015 502.201 715.122 509.997 698.873C517.792 682.624 509.398 645.946 493.51 669.518Z" fill="url(#paint8_linear_5_205)"/>
<path opacity="0.2" d="M1159.08 609.656C1142.84 597.103 1125.05 599.706 1125.59 640C1126.14 680.295 1141.18 698.986 1149.73 687.673C1158.28 676.357 1164.46 637.861 1164.46 637.861C1164.46 637.861 1168.74 674.913 1179.84 649.317C1187.08 632.633 1168.68 550.601 1159.08 609.656Z" fill="url(#paint9_linear_5_205)"/>
<path opacity="0.2" d="M426.125 289.586C413.737 299.985 401.576 226.284 401.576 226.284C394.878 240.852 372.033 265.655 368.533 231.391C366.457 211.062 369.1 195.206 371.746 185.421C391.561 183.97 412.99 183.611 429.609 184.5C436.808 212.407 436.687 280.719 426.125 289.586Z" fill="url(#paint10_linear_5_205)"/>
<path opacity="0.2" d="M350.82 597.56C363.572 587.59 373.097 661.662 373.097 661.662C380.311 647.332 404.026 623.323 406.302 657.686C407.652 678.074 404.445 693.83 401.452 703.519C381.598 704.292 360.168 703.919 343.591 702.463C337.392 674.327 339.949 606.061 350.82 597.56Z" fill="url(#paint11_linear_5_205)"/>
<path d="M286.895 224.91L286.895 660.558L1197.15 660.558L1197.15 224.91L286.895 224.91Z" fill="url(#paint12_linear_5_205)"/>
<path opacity="0.6" d="M236.558 186.408L621.076 186.408C585.017 252.377 548.655 345.656 548.655 457.746C548.655 565.216 574.375 647.295 601.686 704.153L236.558 704.153L236.558 186.408Z" fill="url(#paint13_linear_5_205)" fill-opacity="0.42"/>
<path opacity="0.6" d="M1179.28 704.171C1179.28 704.171 1217.18 701.984 1217.18 653.923C1217.18 605.862 1220.32 285.758 1220.32 237.005C1220.32 188.252 1173.67 186.429 1173.67 186.429L1254.8 186.429L1254.8 704.171L1179.28 704.171Z" fill="url(#paint14_linear_5_205)"/>
<path d="M1286.92 186.903L1286.92 703.696C1286.92 715.276 1277.33 724.663 1265.49 724.663L1250.68 724.663C1238.84 724.663 1229.25 715.276 1229.25 703.696L1229.25 186.906C1229.25 175.325 1238.84 165.939 1250.68 165.939L1265.49 165.939C1277.33 165.936 1286.92 175.322 1286.92 186.903Z" fill="url(#paint15_linear_5_205)"/>
<path opacity="0.3" d="M1245.17 709.32C1251.28 710.516 1253.67 558.67 1252.41 445.298C1251.14 330.737 1251.9 178.891 1245.17 178.891C1241.64 178.891 1242.01 306.448 1242.07 445.298C1242.12 570.634 1241.49 708.6 1245.17 709.32Z" fill="url(#paint16_linear_5_205)"/>
<path opacity="0.4" d="M1229.25 180.737L1229.25 709.859C1229.25 718.031 1236.02 724.659 1244.37 724.659L1271.79 724.659C1280.15 724.659 1286.92 718.031 1286.92 709.859L1286.92 180.734C1286.92 172.562 1280.15 165.935 1271.79 165.935L1244.37 165.935C1236.02 165.938 1229.25 172.565 1229.25 180.737ZM1266.69 173.001C1275.04 173.001 1281.82 179.628 1281.82 187.801L1281.82 702.796C1281.82 710.968 1275.04 717.596 1266.69 717.596L1254.83 717.596C1246.47 717.596 1239.7 710.968 1239.7 702.796L1239.7 187.798C1239.7 179.625 1246.47 172.998 1254.83 172.998L1266.69 172.998L1266.69 173.001Z" fill="url(#paint17_linear_5_205)"/>
<path opacity="0.4" d="M1229.24 704.171C1229.24 704.171 1223.36 632.418 1223.36 450.908C1223.36 269.398 1229.24 186.426 1229.24 186.426C1229.24 186.426 1235.58 325.774 1235.14 450.052C1234.71 574.334 1229.24 704.171 1229.24 704.171Z" fill="url(#paint18_linear_5_205)"/>
<path d="M206.189 189.545C206.321 192.973 206.461 196.626 206.605 200.491C206.88 207.927 207.18 216.142 207.494 225.03C211.482 337.254 218.307 557.168 220.965 678.23C221.304 693.678 221.576 707.52 221.763 719.32C222.17 744.565 222.197 760.478 221.703 762.853C220.127 770.464 196.69 775.318 173.053 776.559C169.202 776.763 165.344 776.871 161.576 776.878C155.623 776.889 149.891 776.656 144.748 776.155C132.953 775.013 124.264 772.486 123.143 768.399C122.542 766.2 121.595 750.309 120.431 724.983C119.888 713.177 119.299 699.32 118.675 683.838C114.54 581.365 108.876 407.926 105.339 288.825C104.665 266.152 104.071 245.449 103.576 227.578C103.369 220.144 103.183 213.206 103.013 206.817C102.368 182.251 102.011 165.848 102.041 161.146C102.071 157.136 106.893 153.889 114.432 151.425C119.639 149.722 126.144 148.391 133.265 147.435C152.122 144.905 175.276 145.002 189.997 147.804C198.505 149.421 204.201 151.94 204.626 155.372C204.874 157.384 205.43 169.706 206.189 189.545Z" fill="url(#paint19_linear_5_205)"/>
<path opacity="0.3" d="M207.49 225.029L197.197 225.319C164.744 158.489 164.653 182.699 151.871 252.057C140.998 311.067 152.963 692.595 173.049 776.558C169.198 776.762 165.34 776.87 161.572 776.877C136.2 659.958 123.697 299.588 129.565 258.31C136.788 207.467 150.386 162.316 170.22 168.473C190.051 174.637 207.49 225.029 207.49 225.029Z" fill="url(#paint20_linear_5_205)"/>
<path opacity="0.3" d="M206.187 189.544C201.567 173.815 196.196 159.317 189.993 147.805C198.501 149.422 204.197 151.941 204.622 155.373C204.873 157.384 205.428 169.705 206.187 189.544Z" fill="url(#paint21_linear_5_205)"/>
<path opacity="0.3" d="M168.655 695.05C169.426 697.243 171.63 758.181 196.178 757.565C208.842 757.246 215.189 702.027 215.189 702.027L168.655 695.05Z" fill="url(#paint22_linear_5_205)"/>
<path opacity="0.3" d="M136.274 638.19C142.537 674.847 144.271 745.154 144.745 776.154C132.951 775.012 124.261 772.485 123.14 768.398C122.539 766.199 121.592 750.308 120.429 724.982C119.886 713.176 119.296 699.319 118.672 683.837C114.538 581.364 108.873 407.925 105.337 288.824C107.81 236.319 111.714 186.121 114.429 151.424C119.637 149.721 126.141 148.39 133.262 147.434C97.9613 244.37 129.009 595.659 136.274 638.19Z" fill="url(#paint23_linear_5_205)"/>
<path opacity="0.4" d="M204.626 148.879C202.782 134.017 102.173 136.286 102.041 154.653C101.817 186.298 119.332 747.998 123.143 761.906C126.951 775.815 218.534 771.67 221.703 756.36C224.877 741.05 206.472 163.742 204.626 148.879ZM203.099 750.538C198.854 762.304 182.566 764.938 166.475 762.411C150.385 759.881 138.776 735.133 142.725 728.425C147.202 720.814 177.76 718.849 190.288 719.125C202.814 719.399 207.342 738.771 203.099 750.538ZM192.958 186.95C190.006 191.383 116.561 193.914 111.891 191.512C107.224 189.108 105.718 152.817 111.639 149.14C122.973 142.105 180.557 141.959 188.45 144.819C194.705 147.089 195.906 182.521 192.958 186.95Z" fill="url(#paint24_linear_5_205)"/>
<path opacity="0.6" d="M206.604 200.49C206.879 207.927 207.18 216.141 207.493 225.029C185.044 225.695 125.617 227.073 103.575 227.577C103.369 220.143 103.182 213.205 103.012 206.817C113.155 203.516 131.827 198.426 153.411 197.296C174.637 196.188 195.176 198.682 206.604 200.49Z" fill="url(#paint25_linear_5_205)"/>
<path opacity="0.6" d="M220.962 678.227C221.3 693.675 221.573 707.517 221.759 719.317C211.713 722.609 195.657 726.437 172.472 728.031C148.113 729.71 130.951 727.403 120.425 724.98C119.882 713.174 119.293 699.317 118.669 683.835L220.962 678.227Z" fill="url(#paint26_linear_5_205)"/>
<path d="M228.622 396.078C228.955 418.245 229.274 440.946 229.564 463.52C231.145 587.424 231.82 707.505 229.429 713.971C226.696 721.353 186.065 726.617 149.329 727.85C119.439 728.85 92.1253 727.187 89.9009 721.823C88.7312 718.999 87.4221 689.694 86.1233 646.202C84.904 605.438 83.6952 552.211 82.6152 496.652C81.9857 464.359 81.4036 431.279 80.8878 399.402C79.2276 296.807 78.264 206.667 78.803 195.291C78.953 192.118 84.7032 189.374 93.8457 187.117C102.006 185.104 112.861 183.478 124.833 182.277C128.486 181.91 132.241 181.582 136.056 181.299C156.12 179.798 177.819 179.426 194.647 180.346C211.458 181.259 223.41 183.465 224.02 187.117C224.945 192.63 226.983 287.967 228.622 396.078Z" fill="url(#paint27_linear_5_205)"/>
<path opacity="0.2" d="M138.13 325.898C128.918 339.864 146.93 373.088 154.824 356.274C162.717 339.46 154.218 301.507 138.13 325.898Z" fill="url(#paint28_linear_5_205)"/>
<path opacity="0.2" d="M149.332 727.848C119.442 728.848 92.1284 727.184 89.904 721.821C88.7343 718.996 87.4252 689.692 86.1264 646.199C92.2708 640.356 98.479 638.149 101.366 646.629C107.835 665.626 111.009 714.411 111.009 714.411C111.009 714.411 120.267 694.763 128.547 689.535C134.075 686.042 143.611 710.939 149.332 727.848Z" fill="url(#paint29_linear_5_205)"/>
<path opacity="0.2" d="M185.388 592.817C168.942 579.827 150.927 582.521 151.48 624.216C152.034 665.911 167.265 685.253 175.921 673.546C184.578 661.836 190.834 622.002 190.834 622.002C190.834 622.002 195.17 660.342 206.413 633.857C213.741 616.592 195.113 531.709 185.388 592.817Z" fill="url(#paint30_linear_5_205)"/>
<path opacity="0.2" d="M191.121 289.084C178.576 299.845 166.263 223.581 166.263 223.581C159.48 238.655 136.348 264.321 132.804 228.866C130.702 207.83 133.379 191.422 136.058 181.297C156.121 179.796 177.821 179.425 194.648 180.345C201.937 209.222 201.815 279.909 191.121 289.084Z" fill="url(#paint31_linear_5_205)"/>
<path opacity="0.2" d="M114.419 223.02C105.898 229.174 90.8117 204.007 93.8504 187.115C102.01 185.102 112.866 183.476 124.838 182.275C127.664 195.919 120.935 218.313 114.419 223.02Z" fill="url(#paint32_linear_5_205)"/>
<path opacity="0.4" d="M229.429 713.968C224.473 727.357 94.8611 733.776 89.9011 721.821C84.9438 709.864 77.5048 222.767 78.8032 195.288C78.9418 192.318 83.9892 189.725 92.1294 187.56C83.4142 247.932 90.8537 356.773 102.501 439.608C102.764 591.298 92.5468 684.273 102.187 700.217C118.89 727.84 186.039 713.219 195.308 671.663C199.713 651.922 190.145 580.016 171.553 438.3C184.206 297.985 180.617 208.957 170.61 179.866C198.985 179.625 223.15 181.884 224.024 187.12C226.175 199.963 234.388 700.583 229.429 713.968Z" fill="url(#paint33_linear_5_205)"/>
<defs>
<linearGradient id="paint0_linear_5_205" x1="1393.69" y1="558.339" x2="1264.97" y2="582.778" gradientUnits="userSpaceOnUse">
<stop stop-color="#DE371B"/>
<stop offset="0.75" stop-color="#B92538"/>
<stop offset="0.9944" stop-color="#AC1F42"/>
</linearGradient>
<linearGradient id="paint1_linear_5_205" x1="1224.23" y1="663.355" x2="1188.2" y2="709.825" gradientUnits="userSpaceOnUse">
<stop offset="0.0045" stop-color="#FFCE2F"/>
<stop offset="0.9944" stop-color="white"/>
</linearGradient>
<linearGradient id="paint2_linear_5_205" x1="1308.3" y1="541.501" x2="1326.27" y2="569.016" gradientUnits="userSpaceOnUse">
<stop offset="0.0045" stop-color="#FFCE2F"/>
<stop offset="0.9714" stop-color="#F9F1FF"/>
<stop offset="0.9944" stop-color="white"/>
</linearGradient>
<linearGradient id="paint3_linear_5_205" x1="1365.47" y1="480" x2="1239.42" y2="503.934" gradientUnits="userSpaceOnUse">
<stop stop-color="#DE371B"/>
<stop offset="0.75" stop-color="#B92538"/>
<stop offset="0.9944" stop-color="#AC1F42"/>
</linearGradient>
<linearGradient id="paint4_linear_5_205" x1="1233.05" y1="503.634" x2="1146.13" y2="518.953" gradientUnits="userSpaceOnUse">
<stop offset="0.0045" stop-color="#FFCE2F"/>
<stop offset="0.8858" stop-color="#E5C4FF"/>
<stop offset="0.9714" stop-color="#F9F1FF"/>
<stop offset="0.9944" stop-color="white"/>
</linearGradient>
<linearGradient id="paint5_linear_5_205" x1="204.656" y1="445.299" x2="1260.42" y2="445.299" gradientUnits="userSpaceOnUse">
<stop stop-color="#E4A9C0"/>
<stop offset="0.6749" stop-color="#F5CEB2"/>
<stop offset="0.9944" stop-color="#FEE1AA"/>
</linearGradient>
<linearGradient id="paint6_linear_5_205" x1="348.279" y1="354.587" x2="362.626" y2="353.626" gradientUnits="userSpaceOnUse">
<stop stop-color="#EBBA68"/>
<stop offset="0.4276" stop-color="#E19562"/>
<stop offset="0.9944" stop-color="#D15E58"/>
</linearGradient>
<linearGradient id="paint7_linear_5_205" x1="936.23" y1="247.889" x2="950.577" y2="246.929" gradientUnits="userSpaceOnUse">
<stop stop-color="#EBBA68"/>
<stop offset="0.4276" stop-color="#E19562"/>
<stop offset="0.9944" stop-color="#D15E58"/>
</linearGradient>
<linearGradient id="paint8_linear_5_205" x1="492.961" y1="683.297" x2="507.308" y2="682.336" gradientUnits="userSpaceOnUse">
<stop stop-color="#EBBA68"/>
<stop offset="0.4276" stop-color="#E19562"/>
<stop offset="0.9944" stop-color="#D15E58"/>
</linearGradient>
<linearGradient id="paint9_linear_5_205" x1="1154.86" y1="673.194" x2="1152.54" y2="609.552" gradientUnits="userSpaceOnUse">
<stop stop-color="#EBBA68"/>
<stop offset="0.4276" stop-color="#E19562"/>
<stop offset="0.9944" stop-color="#D15E58"/>
</linearGradient>
<linearGradient id="paint10_linear_5_205" x1="403.011" y1="272.985" x2="400.555" y2="205.635" gradientUnits="userSpaceOnUse">
<stop stop-color="#EBBA68"/>
<stop offset="0.4276" stop-color="#E19562"/>
<stop offset="0.9944" stop-color="#D15E58"/>
</linearGradient>
<linearGradient id="paint11_linear_5_205" x1="373.329" y1="614.94" x2="373.483" y2="682.332" gradientUnits="userSpaceOnUse">
<stop stop-color="#EBBA68"/>
<stop offset="0.4276" stop-color="#E19562"/>
<stop offset="0.9944" stop-color="#D15E58"/>
</linearGradient>
<linearGradient id="paint12_linear_5_205" x1="283.059" y1="442.735" x2="1167.46" y2="442.735" gradientUnits="userSpaceOnUse">
<stop stop-color="#F5C36E"/>
<stop offset="0.3691" stop-color="#FBE9CA"/>
<stop offset="0.7532" stop-color="#FAECD9"/>
<stop offset="0.9944" stop-color="#FEF5D9"/>
</linearGradient>
<linearGradient id="paint13_linear_5_205" x1="271.66" y1="445.28" x2="512.664" y2="445.28" gradientUnits="userSpaceOnUse">
<stop offset="0.1457" stop-color="#FFCE2F"/>
<stop offset="0.2322" stop-color="#FFD346"/>
<stop offset="0.3561" stop-color="#FFDF75"/>
<stop offset="0.5026" stop-color="#FEE79D"/>
<stop offset="0.6664" stop-color="#FFEFBC"/>
<stop offset="0.8424" stop-color="#FFF5D3"/>
<stop offset="0.9944" stop-color="white"/>
</linearGradient>
<linearGradient id="paint14_linear_5_205" x1="1242.09" y1="445.298" x2="1201.44" y2="445.298" gradientUnits="userSpaceOnUse">
<stop offset="0.0045" stop-color="#FFCE2F"/>
<stop offset="0.2215" stop-color="#FFD343"/>
<stop offset="0.3646" stop-color="#FFD85B"/>
<stop offset="0.4865" stop-color="#FFDE74"/>
<stop offset="0.5964" stop-color="#FFE386"/>
<stop offset="0.6983" stop-color="#FFE696"/>
<stop offset="0.7944" stop-color="#FFEBA9"/>
<stop offset="0.8858" stop-color="#FFF0C0"/>
<stop offset="0.9714" stop-color="#FFF5D5"/>
<stop offset="0.9944" stop-color="white"/>
</linearGradient>
<linearGradient id="paint15_linear_5_205" x1="1236.65" y1="445.299" x2="1287.88" y2="445.299" gradientUnits="userSpaceOnUse">
<stop stop-color="#97502D"/>
<stop offset="0.0577" stop-color="#954F31"/>
<stop offset="0.6655" stop-color="#7E4153"/>
<stop offset="0.9944" stop-color="#753C60"/>
</linearGradient>
<linearGradient id="paint16_linear_5_205" x1="1247.09" y1="704.143" x2="1247.62" y2="187.561" gradientUnits="userSpaceOnUse">
<stop offset="0.0184" stop-color="#FFFEF3"/>
<stop offset="0.0923" stop-color="#FFF9CB"/>
<stop offset="0.1725" stop-color="#FFF5A8"/>
<stop offset="0.2536" stop-color="#FFF18C"/>
<stop offset="0.3348" stop-color="#FFEF78"/>
<stop offset="0.4163" stop-color="#FFED6C"/>
<stop offset="0.4984" stop-color="#FFED68"/>
<stop offset="0.592" stop-color="#FFED6B"/>
<stop offset="0.6724" stop-color="#FFEF76"/>
<stop offset="0.748" stop-color="#FFF188"/>
<stop offset="0.8206" stop-color="#FFF4A1"/>
<stop offset="0.8912" stop-color="#FFF8C1"/>
<stop offset="0.9592" stop-color="#FFFCE8"/>
<stop offset="0.9944" stop-color="white"/>
</linearGradient>
<linearGradient id="paint17_linear_5_205" x1="1367.14" y1="443.649" x2="1467.5" y2="442.062" gradientUnits="userSpaceOnUse">
<stop offset="0.0045" stop-color="#FFCE2F"/>
<stop offset="0.2215" stop-color="#A432FF"/>
<stop offset="0.3646" stop-color="#A83BFF"/>
<stop offset="0.4865" stop-color="#AF4AFF"/>
<stop offset="0.5964" stop-color="#B85FFF"/>
<stop offset="0.6983" stop-color="#C47AFF"/>
<stop offset="0.7944" stop-color="#D39CFF"/>
<stop offset="0.8858" stop-color="#E5C4FF"/>
<stop offset="0.9714" stop-color="#F9F1FF"/>
<stop offset="0.9944" stop-color="white"/>
</linearGradient>
<linearGradient id="paint18_linear_5_205" x1="1239.77" y1="445.104" x2="1188.79" y2="446.088" gradientUnits="userSpaceOnUse">
<stop offset="0.0045" stop-color="#FFCE2F"/>
<stop offset="0.3646" stop-color="#FFCE2F"/>
<stop offset="0.7944" stop-color="#D39CFF"/>
<stop offset="0.8858" stop-color="#E5C4FF"/>
<stop offset="0.9714" stop-color="#F9F1FF"/>
<stop offset="0.9944" stop-color="white"/>
</linearGradient>
<linearGradient id="paint19_linear_5_205" x1="105.597" y1="464.386" x2="221.711" y2="457.846" gradientUnits="userSpaceOnUse">
<stop stop-color="#97502D"/>
<stop offset="0.0577" stop-color="#954F31"/>
<stop offset="0.6655" stop-color="#7E4153"/>
<stop offset="0.9944" stop-color="#753C60"/>
</linearGradient>
<linearGradient id="paint20_linear_5_205" x1="132.929" y1="474.302" x2="221.249" y2="469.328" gradientUnits="userSpaceOnUse">
<stop stop-color="#97502D"/>
<stop offset="0.0577" stop-color="#954F31"/>
<stop offset="0.6655" stop-color="#7E4153"/>
<stop offset="0.9944" stop-color="#753C60"/>
</linearGradient>
<linearGradient id="paint21_linear_5_205" x1="191.191" y1="169.062" x2="205.401" y2="168.262" gradientUnits="userSpaceOnUse">
<stop stop-color="#97502D"/>
<stop offset="0.0577" stop-color="#954F31"/>
<stop offset="0.6655" stop-color="#7E4153"/>
<stop offset="0.9944" stop-color="#753C60"/>
</linearGradient>
<linearGradient id="paint22_linear_5_205" x1="170.454" y1="726.982" x2="216.449" y2="724.392" gradientUnits="userSpaceOnUse">
<stop stop-color="#97502D"/>
<stop offset="0.0577" stop-color="#954F31"/>
<stop offset="0.6655" stop-color="#7E4153"/>
<stop offset="0.9944" stop-color="#753C60"/>
</linearGradient>
<linearGradient id="paint23_linear_5_205" x1="105.555" y1="463.675" x2="150.926" y2="461.12" gradientUnits="userSpaceOnUse">
<stop stop-color="#97502D"/>
<stop offset="0.0577" stop-color="#954F31"/>
<stop offset="0.6655" stop-color="#7E4153"/>
<stop offset="0.9944" stop-color="#753C60"/>
</linearGradient>
<linearGradient id="paint24_linear_5_205" x1="349.518" y1="568.001" x2="413.787" y2="607.078" gradientUnits="userSpaceOnUse">
<stop offset="0.0045" stop-color="#FFCE2F"/>
<stop offset="0.9714" stop-color="#F9F1FF"/>
<stop offset="0.9944" stop-color="white"/>
</linearGradient>
<linearGradient id="paint25_linear_5_205" x1="155.199" y1="221.858" x2="154.78" y2="268.696" gradientUnits="userSpaceOnUse">
<stop offset="0.0045" stop-color="#CB2E2A"/>
<stop offset="0.2215" stop-color="#A432FF"/>
<stop offset="0.3646" stop-color="#A83BFF"/>
<stop offset="0.4865" stop-color="#AF4AFF"/>
<stop offset="0.5964" stop-color="#B85FFF"/>
<stop offset="0.6983" stop-color="#C47AFF"/>
<stop offset="0.7944" stop-color="#D39CFF"/>
<stop offset="0.8858" stop-color="#E5C4FF"/>
<stop offset="0.9714" stop-color="#F9F1FF"/>
<stop offset="0.9944" stop-color="white"/>
</linearGradient>
<linearGradient id="paint26_linear_5_205" x1="170.065" y1="718.611" x2="169.38" y2="795.349" gradientUnits="userSpaceOnUse">
<stop offset="0.0045" stop-color="#C82C2C"/>
<stop offset="0.4865" stop-color="#AF4AFF"/>
<stop offset="0.5964" stop-color="#B85FFF"/>
<stop offset="0.6983" stop-color="#C47AFF"/>
<stop offset="0.7944" stop-color="#D39CFF"/>
<stop offset="0.8858" stop-color="#E5C4FF"/>
<stop offset="0.9714" stop-color="#F9F1FF"/>
<stop offset="0.9944" stop-color="white"/>
</linearGradient>
<linearGradient id="paint27_linear_5_205" x1="258.672" y1="448.075" x2="90.3827" y2="457.553" gradientUnits="userSpaceOnUse">
<stop stop-color="#E4A9C0"/>
<stop offset="0.6749" stop-color="#F5CEB2"/>
<stop offset="0.9944" stop-color="#FEE1AA"/>
</linearGradient>
<linearGradient id="paint28_linear_5_205" x1="137.574" y1="340.156" x2="152.104" y2="339.204" gradientUnits="userSpaceOnUse">
<stop stop-color="#EBBA68"/>
<stop offset="0.4276" stop-color="#E19562"/>
<stop offset="0.9944" stop-color="#D15E58"/>
</linearGradient>
<linearGradient id="paint29_linear_5_205" x1="122.006" y1="750.314" x2="118.308" y2="712.752" gradientUnits="userSpaceOnUse">
<stop stop-color="#EBBA68"/>
<stop offset="0.4276" stop-color="#E19562"/>
<stop offset="0.9944" stop-color="#D15E58"/>
</linearGradient>
<linearGradient id="paint30_linear_5_205" x1="181.119" y1="658.564" x2="178.667" y2="592.712" gradientUnits="userSpaceOnUse">
<stop stop-color="#EBBA68"/>
<stop offset="0.4276" stop-color="#E19562"/>
<stop offset="0.9944" stop-color="#D15E58"/>
</linearGradient>
<linearGradient id="paint31_linear_5_205" x1="167.715" y1="271.906" x2="165.119" y2="202.219" gradientUnits="userSpaceOnUse">
<stop stop-color="#EBBA68"/>
<stop offset="0.4276" stop-color="#E19562"/>
<stop offset="0.9944" stop-color="#D15E58"/>
</linearGradient>
<linearGradient id="paint32_linear_5_205" x1="112.102" y1="260.831" x2="109.713" y2="196.705" gradientUnits="userSpaceOnUse">
<stop stop-color="#EBBA68"/>
<stop offset="0.4276" stop-color="#E19562"/>
<stop offset="0.9944" stop-color="#D15E58"/>
</linearGradient>
<linearGradient id="paint33_linear_5_205" x1="23.9779" y1="450.82" x2="313.573" y2="457.838" gradientUnits="userSpaceOnUse">
<stop offset="0.0045" stop-color="#F3C718"/>
<stop offset="0.2215" stop-color="#FFCE2F"/>
<stop offset="0.3646" stop-color="#FFCE2F"/>
<stop offset="0.4865" stop-color="#FFCE2F"/>
<stop offset="0.5964" stop-color="#FFCE2F"/>
<stop offset="0.6983" stop-color="#FFCE2F"/>
<stop offset="0.7944" stop-color="#D39CFF"/>
<stop offset="0.8858" stop-color="#E5C4FF"/>
<stop offset="0.9714" stop-color="#F9F1FF"/>
<stop offset="0.9944" stop-color="white"/>
</linearGradient>
</defs>
</svg>
