<svg width="69" height="69" viewBox="0 0 69 69" fill="none" xmlns="http://www.w3.org/2000/svg">
<rect x="34.2227" y="0.711013" width="47.4" height="47.4" rx="5.5" transform="rotate(45 34.2227 0.711013)" fill="#DD2626" fill-opacity="0.1"/>
<rect x="34.2227" y="0.711013" width="47.4" height="47.4" rx="5.5" transform="rotate(45 34.2227 0.711013)" stroke="#DD2626"/>
<g clip-path="url(#clip0_122_937)">
<path d="M42.3655 25.3984H26.0756C25.3291 25.3984 24.7227 25.9698 24.7227 26.6711V41.7774C24.7227 42.4787 25.3291 43.05 26.0756 43.05H42.3655C43.1119 43.05 43.7227 42.4787 43.7227 41.7774V26.6711C43.7227 25.9698 43.1119 25.3984 42.3655 25.3984ZM30.4651 40.5284C28.9098 40.5284 27.649 39.2676 27.649 37.7123V33.5146C27.649 32.7358 28.2803 32.1045 29.0592 32.1045C29.838 32.1045 30.4693 32.7358 30.4693 33.5146V40.5241C30.4693 40.5265 30.4674 40.5284 30.4651 40.5284ZM29.057 30.954C28.1537 30.954 27.4242 30.2723 27.4242 29.437C27.4242 28.6017 28.1537 27.9201 29.057 27.9201C29.9561 27.9201 30.6898 28.6017 30.6898 29.437C30.6898 30.2763 29.9604 30.954 29.057 30.954ZM41.0211 39.1204C41.0211 39.898 40.3907 40.5284 39.6131 40.5284C38.8354 40.5284 38.205 39.898 38.205 39.1204V36.4307C38.205 35.4536 38.1838 34.1967 36.7419 34.1967C35.2744 34.1967 35.0497 35.2605 35.0497 36.3598V39.1204C35.0497 39.898 34.4193 40.5284 33.6416 40.5284C32.864 40.5284 32.2336 39.898 32.2336 39.1204V33.4553C32.2336 32.7092 32.8384 32.1045 33.5844 32.1045H34.3599C34.6776 32.1045 34.9352 32.362 34.9352 32.6797V33.2308C34.9352 33.2442 34.946 33.255 34.9593 33.255C34.968 33.255 34.9759 33.2504 34.9802 33.2429C35.362 32.5846 36.2794 31.8956 37.641 31.8956C40.491 31.8956 41.0211 33.6411 41.0211 35.9106V39.1204Z" fill="white"/>
</g>
<defs>
<clipPath id="clip0_122_937">
<rect width="19" height="17.6516" fill="white" transform="translate(24.7227 25.3984)"/>
</clipPath>
</defs>
</svg>
