<svg width="175" height="58" viewBox="0 0 175 58" fill="none" xmlns="http://www.w3.org/2000/svg">
<g clip-path="url(#clip0_57_37)">
<path d="M138.144 9.37843C137.56 9.37843 137.086 8.9212 137.086 8.35719C137.086 7.79317 137.56 7.33594 138.144 7.33594C138.729 7.33594 139.203 7.79317 139.203 8.35719C139.203 8.9212 138.729 9.37843 138.144 9.37843Z" fill="#FDE49F" stroke="black" stroke-width="1.35241"/>
<path d="M131.68 8.35719C131.68 8.92162 131.206 9.37843 130.621 9.37843C130.036 9.37843 129.562 8.92162 129.562 8.35719C129.562 7.79275 130.036 7.33594 130.621 7.33594C131.206 7.33594 131.68 7.79275 131.68 8.35719Z" fill="#FDE49F" stroke="black" stroke-width="1.35241"/>
<path d="M124.582 8.35719C124.582 8.92162 124.108 9.37843 123.523 9.37843C122.938 9.37843 122.464 8.92162 122.464 8.35719C122.464 7.79275 122.938 7.33594 123.523 7.33594C124.108 7.33594 124.582 7.79275 124.582 8.35719Z" fill="#FDE49F" stroke="black" stroke-width="1.35241"/>
<path d="M1.11948 56.9843L167.088 56.8814L167.073 36.0476L174.289 36.0332V1H8.29293L1.10956 8.14868L1.00293 23.9911L6.30429 23.9744L6.29685 27.1553L1.00542 27.1601L1.11948 56.989V56.9843ZM164.968 54.8389L3.2296 54.9393L3.13044 29.1954L8.40946 29.1906L8.42434 21.9175L3.13291 21.9343L3.21968 8.97619L9.18805 3.03771H172.171V33.9883L164.956 34.0027L164.971 54.8341L164.968 54.8389Z" fill="#FDE49F"/>
<path d="M164.968 54.8388L3.23002 54.9392L3.13086 29.1953L8.40988 29.1905L8.42476 21.9174L3.13333 21.9342L3.2201 8.97608L9.18847 3.0376H172.171V33.9882L164.956 34.0026L164.971 54.834L164.968 54.8388Z" fill="#FDE49F"/>
<path d="M1.11948 56.9843L167.088 56.8814L167.073 36.0476L174.289 36.0332V1H8.29293L1.10956 8.14868L1.00293 23.9911L6.30429 23.9744L6.29685 27.1553L1.00542 27.1601L1.11948 56.989V56.9843ZM164.968 54.8389L3.2296 54.9393L3.13044 29.1954L8.40946 29.1906L8.42434 21.9175L3.13291 21.9343L3.21968 8.97619L9.18805 3.03771H172.171V33.9883L164.956 34.0027L164.971 54.8341L164.968 54.8389Z" stroke="black" stroke-width="1.35241"/>
<path d="M164.968 54.8388L3.23002 54.9392L3.13086 29.1953L8.40988 29.1905L8.42476 21.9174L3.13333 21.9342L3.2201 8.97608L9.18847 3.0376H172.171V33.9882L164.956 34.0026L164.971 54.834L164.968 54.8388Z" stroke="black" stroke-width="1.35241"/>
<path d="M35.5254 45.25L41.165 50.6878H42.3203V49.8883L37.5097 45.25H35.5254Z" fill="#FDE49F" stroke="black" stroke-width="1.02293"/>
<path d="M39.4731 45.25L42.3201 47.9942V46.0803L41.4593 45.25H39.4731Z" fill="#FDE49F" stroke="black" stroke-width="1.02293"/>
<path d="M31.5654 45.25L37.2031 50.6878H39.1874L33.5497 45.25H31.5654Z" fill="#FDE49F" stroke="black" stroke-width="1.02293"/>
<path d="M27.6279 45.25L33.2656 50.6878H35.2499L29.6122 45.25H27.6279Z" fill="#FDE49F" stroke="black" stroke-width="1.02293"/>
<path d="M23.667 45.25L29.3047 50.6878H31.289L25.6494 45.25H23.667Z" fill="#FDE49F" stroke="black" stroke-width="1.02293"/>
<path d="M19.6904 45.25L25.3281 50.6878H27.3124L21.6747 45.25H19.6904Z" fill="#FDE49F" stroke="black" stroke-width="1.02293"/>
<path d="M15.7275 45.25L21.3652 50.6878H23.3514L17.7118 45.25H15.7275Z" fill="#FDE49F" stroke="black" stroke-width="1.02293"/>
<path d="M11.792 45.25L17.4316 50.6878H19.414L13.7763 45.25H11.792Z" fill="#FDE49F" stroke="black" stroke-width="1.02293"/>
<path d="M8.68994 45.25V46.0785L13.4687 50.6878H15.4529L9.81523 45.25H8.68994Z" fill="#FDE49F" stroke="black" stroke-width="1.02293"/>
<path d="M8.69287 47.9688V49.8844L9.5237 50.6841H11.508L8.69287 47.9688Z" fill="#FDE49F" stroke="black" stroke-width="1.02293"/>
<path d="M166.051 28.9909H167.109V7.84375H145.185V8.865H166.051V28.9909Z" fill="#FDE49F" stroke="black" stroke-width="1.35241"/>
<path d="M8.68799 39.6875H12.2264V43.1004H8.68799V39.6875Z" fill="#FDE49F" stroke="black" stroke-width="1.35241"/>
<path d="M169.322 38.2656H174.301V56.9111H169.322V38.2656Z" fill="#FDE49F" stroke="black" stroke-width="1.35241"/>
<path d="M30.225 31.6431L33.4594 31.3286C33.6541 32.4142 34.0471 33.2116 34.6386 33.7207C35.2376 34.2298 36.0424 34.4844 37.0532 34.4844C38.1238 34.4844 38.9287 34.2598 39.4677 33.8105C40.0143 33.3538 40.2875 32.8223 40.2875 32.2158C40.2875 31.8265 40.1715 31.4971 39.9394 31.2275C39.7148 30.9505 39.318 30.7109 38.749 30.5088C38.3596 30.374 37.4724 30.1344 36.0873 29.79C34.3054 29.3483 33.0551 28.8055 32.3364 28.1616C31.3256 27.2557 30.8203 26.1514 30.8203 24.8486C30.8203 24.0101 31.0561 23.2277 31.5278 22.5015C32.0069 21.7677 32.692 21.21 33.583 20.8281C34.4814 20.4463 35.5633 20.2554 36.8286 20.2554C38.895 20.2554 40.4485 20.7083 41.4892 21.6143C42.5374 22.5202 43.0877 23.7293 43.1401 25.2417L39.8159 25.3877C39.6736 24.5417 39.3666 23.9352 38.895 23.5684C38.4308 23.194 37.7307 23.0068 36.7949 23.0068C35.829 23.0068 35.0729 23.2052 34.5263 23.6021C34.1744 23.8566 33.9985 24.1973 33.9985 24.624C33.9985 25.0133 34.1632 25.3465 34.4926 25.6235C34.9119 25.9754 35.9301 26.3423 37.5473 26.7241C39.1645 27.106 40.3587 27.5028 41.1298 27.9146C41.9085 28.3188 42.5149 28.8766 42.9492 29.5879C43.3909 30.2917 43.6118 31.1639 43.6118 32.2046C43.6118 33.1479 43.3497 34.0314 42.8256 34.855C42.3015 35.6785 41.5603 36.2925 40.602 36.6968C39.6437 37.0936 38.4495 37.292 37.0195 37.292C34.9381 37.292 33.3396 36.8128 32.2241 35.8545C31.1085 34.8887 30.4422 33.4849 30.225 31.6431ZM58.6251 28.5996L55.5143 29.1611C55.4094 28.5397 55.1699 28.0718 54.7955 27.7573C54.4286 27.4429 53.9495 27.2856 53.358 27.2856C52.5719 27.2856 51.943 27.5589 51.4713 28.1055C51.0071 28.6445 50.775 29.5505 50.775 30.8232C50.775 32.2383 51.0108 33.2378 51.4825 33.8218C51.9617 34.4058 52.6018 34.6978 53.4029 34.6978C54.0019 34.6978 54.4923 34.5293 54.8741 34.1924C55.256 33.848 55.5255 33.2603 55.6827 32.4292L58.7823 32.957C58.4604 34.3796 57.8427 35.4539 56.9293 36.1802C56.0159 36.9064 54.7918 37.2695 53.2569 37.2695C51.5125 37.2695 50.1199 36.7192 49.0792 35.6187C48.046 34.5181 47.5294 32.9945 47.5294 31.0479C47.5294 29.0788 48.0497 27.5477 49.0904 26.4546C50.1311 25.354 51.5387 24.8037 53.3131 24.8037C54.7656 24.8037 55.9186 25.1182 56.7721 25.7471C57.6331 26.3685 58.2508 27.3193 58.6251 28.5996ZM66.013 20.5361V26.5894C67.0312 25.3989 68.2478 24.8037 69.6629 24.8037C70.3891 24.8037 71.0442 24.9385 71.6282 25.208C72.2122 25.4775 72.6502 25.8219 72.9422 26.2412C73.2416 26.6605 73.4438 27.1247 73.5486 27.6338C73.6609 28.1429 73.7171 28.9328 73.7171 30.0034V37H70.5613V30.6997C70.5613 29.4494 70.5014 28.6558 70.3816 28.3188C70.2618 27.9819 70.0484 27.7161 69.7415 27.5215C69.442 27.3193 69.0639 27.2183 68.6072 27.2183C68.0831 27.2183 67.6152 27.3455 67.2034 27.6001C66.7916 27.8547 66.4884 28.2402 66.2937 28.7568C66.1065 29.266 66.013 30.0221 66.013 31.0254V37H62.8572V20.5361H66.013ZM85.6757 33.2041L88.8202 33.7319C88.4159 34.8849 87.7758 35.7646 86.8998 36.3711C86.0313 36.9701 84.942 37.2695 83.6318 37.2695C81.5579 37.2695 80.023 36.592 79.0273 35.2368C78.2411 34.1512 77.8481 32.7811 77.8481 31.1265C77.8481 29.1499 78.3647 27.6038 79.3979 26.4883C80.4311 25.3652 81.7376 24.8037 83.3173 24.8037C85.0917 24.8037 86.4918 25.3914 87.5175 26.5669C88.5432 27.7349 89.0336 29.528 88.9887 31.9463H81.0824C81.1049 32.8822 81.3595 33.6121 81.8461 34.1362C82.3328 34.6528 82.9392 34.9111 83.6655 34.9111C84.1596 34.9111 84.5751 34.7764 84.912 34.5068C85.2489 34.2373 85.5035 33.8031 85.6757 33.2041ZM85.8554 30.0146C85.8329 29.1012 85.5971 28.4087 85.1479 27.937C84.6987 27.4578 84.1521 27.2183 83.5082 27.2183C82.8194 27.2183 82.2504 27.4691 81.8012 27.9707C81.352 28.4723 81.1311 29.1536 81.1386 30.0146H85.8554ZM104.35 37H101.419V35.248C100.932 35.9294 100.356 36.4385 99.6895 36.7754C99.0307 37.1048 98.3643 37.2695 97.6905 37.2695C96.3204 37.2695 95.1449 36.7192 94.1641 35.6187C93.1908 34.5106 92.7042 32.9683 92.7042 30.9917C92.7042 28.9702 93.1796 27.4354 94.1304 26.3872C95.0813 25.3315 96.283 24.8037 97.7354 24.8037C99.0681 24.8037 100.221 25.3577 101.194 26.4658V20.5361H104.35V37ZM95.9273 30.7783C95.9273 32.0511 96.1033 32.972 96.4552 33.541C96.9643 34.3646 97.6755 34.7764 98.5889 34.7764C99.3152 34.7764 99.9329 34.4694 100.442 33.8555C100.951 33.234 101.206 32.3094 101.206 31.0815C101.206 29.7114 100.959 28.7269 100.464 28.1279C99.9703 27.5215 99.3376 27.2183 98.5665 27.2183C97.8178 27.2183 97.1889 27.5177 96.6798 28.1167C96.1781 28.7082 95.9273 29.5954 95.9273 30.7783ZM117.162 37V35.2144C116.728 35.8507 116.155 36.3524 115.444 36.7192C114.74 37.0861 113.995 37.2695 113.209 37.2695C112.408 37.2695 111.689 37.0936 111.053 36.7417C110.417 36.3898 109.956 35.8957 109.672 35.2593C109.387 34.6229 109.245 33.7432 109.245 32.6201V25.0732H112.401V30.5537C112.401 32.2308 112.457 33.2603 112.569 33.6421C112.689 34.0164 112.902 34.3159 113.209 34.5405C113.516 34.7576 113.906 34.8662 114.377 34.8662C114.916 34.8662 115.399 34.7202 115.826 34.4282C116.253 34.1287 116.545 33.7619 116.702 33.3276C116.859 32.8859 116.938 31.8115 116.938 30.1045V25.0732H120.093V37H117.162ZM125.213 37V20.5361H128.369V37H125.213ZM140.361 33.2041L143.505 33.7319C143.101 34.8849 142.461 35.7646 141.585 36.3711C140.717 36.9701 139.627 37.2695 138.317 37.2695C136.243 37.2695 134.708 36.592 133.712 35.2368C132.926 34.1512 132.533 32.7811 132.533 31.1265C132.533 29.1499 133.05 27.6038 134.083 26.4883C135.116 25.3652 136.423 24.8037 138.003 24.8037C139.777 24.8037 141.177 25.3914 142.203 26.5669C143.228 27.7349 143.719 29.528 143.674 31.9463H135.768C135.79 32.8822 136.045 33.6121 136.531 34.1362C137.018 34.6528 137.624 34.9111 138.351 34.9111C138.845 34.9111 139.26 34.7764 139.597 34.5068C139.934 34.2373 140.189 33.8031 140.361 33.2041ZM140.541 30.0146C140.518 29.1012 140.282 28.4087 139.833 27.937C139.384 27.4578 138.837 27.2183 138.193 27.2183C137.505 27.2183 136.936 27.4691 136.486 27.9707C136.037 28.4723 135.816 29.1536 135.824 30.0146H140.541Z" fill="black"/>
<path d="M30.225 31.6431L30.1912 31.2947L29.8356 31.3293L29.8774 31.684L30.225 31.6431ZM33.4594 31.3286L33.8039 31.2668L33.7469 30.949L33.4255 30.9803L33.4594 31.3286ZM34.6386 33.7207L34.4103 33.986L34.4119 33.9874L34.6386 33.7207ZM39.4677 33.8105L39.6918 34.0794L39.6921 34.0791L39.4677 33.8105ZM39.9394 31.2275L39.6674 31.4481L39.6742 31.4559L39.9394 31.2275ZM38.749 30.5088L38.8661 30.179L38.8635 30.178L38.749 30.5088ZM36.0873 29.79L36.1718 29.4504L36.1716 29.4503L36.0873 29.79ZM32.3364 28.1616L32.1028 28.4223L32.1028 28.4223L32.3364 28.1616ZM31.5278 22.5015L31.2347 22.3101L31.2343 22.3108L31.5278 22.5015ZM33.583 20.8281L33.4461 20.506L33.4451 20.5064L33.583 20.8281ZM41.4892 21.6143L41.2594 21.8782L41.2603 21.8791L41.4892 21.6143ZM43.1401 25.2417L43.1554 25.5914L43.5019 25.5761L43.4899 25.2296L43.1401 25.2417ZM39.8159 25.3877L39.4707 25.4457L39.522 25.7509L39.8312 25.7374L39.8159 25.3877ZM38.895 23.5684L38.6752 23.8408L38.6801 23.8446L38.895 23.5684ZM34.5263 23.6021L34.7315 23.8856L34.7319 23.8853L34.5263 23.6021ZM34.4926 25.6235L34.2674 25.8914L34.2676 25.8916L34.4926 25.6235ZM41.1298 27.9146L40.965 28.2233L40.9685 28.2252L41.1298 27.9146ZM42.9492 29.5879L42.6504 29.7703L42.6527 29.774L42.9492 29.5879ZM42.8256 34.855L42.5303 34.6671L42.8256 34.855ZM40.602 36.6968L40.7359 37.0202L40.738 37.0193L40.602 36.6968ZM32.2241 35.8545L31.995 36.1191L31.996 36.12L32.2241 35.8545ZM30.2589 31.9914L33.4933 31.677L33.4255 30.9803L30.1912 31.2947L30.2589 31.9914ZM33.1149 31.3904C33.318 32.523 33.737 33.4064 34.4103 33.986L34.8669 33.4554C34.3573 33.0167 33.9901 32.3054 33.8039 31.2668L33.1149 31.3904ZM34.4119 33.9874C35.0905 34.5641 35.9836 34.8344 37.0532 34.8344V34.1344C36.1012 34.1344 35.3847 33.8955 34.8653 33.454L34.4119 33.9874ZM37.0532 34.8344C38.1645 34.8344 39.0641 34.6025 39.6918 34.0794L39.2437 33.5417C38.7932 33.9171 38.0831 34.1344 37.0532 34.1344V34.8344ZM39.6921 34.0791C40.3029 33.5688 40.6375 32.9445 40.6375 32.2158H39.9375C39.9375 32.7 39.7257 33.1389 39.2433 33.542L39.6921 34.0791ZM40.6375 32.2158C40.6375 31.7512 40.4967 31.3384 40.2046 30.9992L39.6742 31.4559C39.8463 31.6558 39.9375 31.9018 39.9375 32.2158H40.6375ZM40.2113 31.0071C39.9269 30.6564 39.4586 30.3895 38.8661 30.179L38.6318 30.8386C39.1774 31.0324 39.5027 31.2446 39.6675 31.448L40.2113 31.0071ZM38.8635 30.178C38.4564 30.0371 37.5527 29.7937 36.1718 29.4504L36.0029 30.1297C37.3921 30.4751 38.2629 30.7109 38.6345 30.8395L38.8635 30.178ZM36.1716 29.4503C34.4036 29.012 33.2228 28.4858 32.5699 27.9009L32.1028 28.4223C32.8875 29.1252 34.2073 29.6846 36.0031 30.1298L36.1716 29.4503ZM32.57 27.901C31.6298 27.0583 31.1703 26.0473 31.1703 24.8486H30.4703C30.4703 26.2555 31.0215 27.4531 32.1028 28.4223L32.57 27.901ZM31.1703 24.8486C31.1703 24.0801 31.3852 23.3636 31.8213 22.6921L31.2343 22.3108C30.727 23.0919 30.4703 23.9401 30.4703 24.8486H31.1703ZM31.8208 22.6928C32.2583 22.023 32.8863 21.5075 33.7208 21.1498L33.4451 20.5064C32.4977 20.9125 31.7556 21.5125 31.2347 22.3101L31.8208 22.6928ZM33.7198 21.1502C34.5642 20.7914 35.597 20.6054 36.8286 20.6054V19.9054C35.5295 19.9054 34.3986 20.1012 33.4461 20.506L33.7198 21.1502ZM36.8286 20.6054C38.8512 20.6054 40.3076 21.0497 41.2594 21.8782L41.719 21.3503C40.5894 20.367 38.9387 19.9054 36.8286 19.9054V20.6054ZM41.2603 21.8791C42.2275 22.715 42.7409 23.8288 42.7903 25.2538L43.4899 25.2296C43.4344 23.6298 42.8472 22.3254 41.7181 21.3495L41.2603 21.8791ZM43.1247 24.892L39.8005 25.038L39.8312 25.7374L43.1554 25.5914L43.1247 24.892ZM40.161 25.3297C40.0105 24.4345 39.6758 23.7323 39.1098 23.2921L38.6801 23.8446C39.0575 24.1382 39.3367 24.6488 39.4707 25.4457L40.161 25.3297ZM39.1147 23.2959C38.5615 22.8498 37.7678 22.6568 36.7949 22.6568V23.3568C37.6937 23.3568 38.3 23.5382 38.6752 23.8408L39.1147 23.2959ZM36.7949 22.6568C35.7858 22.6568 34.9478 22.8635 34.3207 23.3188L34.7319 23.8853C35.1979 23.5469 35.8723 23.3568 36.7949 23.3568V22.6568ZM34.3212 23.3185C33.8802 23.6375 33.6485 24.0826 33.6485 24.624H34.3485C34.3485 24.3119 34.4686 24.0758 34.7315 23.8856L34.3212 23.3185ZM33.6485 24.624C33.6485 25.1284 33.8683 25.5558 34.2674 25.8914L34.7179 25.3557C34.4581 25.1372 34.3485 24.8983 34.3485 24.624H33.6485ZM34.2676 25.8916C34.5265 26.1089 34.9345 26.3054 35.4521 26.4919C35.9785 26.6815 36.6514 26.8722 37.4669 27.0648L37.6277 26.3835C36.826 26.1942 36.1812 26.0105 35.6894 25.8333C35.1888 25.6529 34.878 25.49 34.7176 25.3554L34.2676 25.8916ZM37.4669 27.0648C39.076 27.4447 40.2346 27.8333 40.965 28.2233L41.2947 27.6058C40.4827 27.1722 39.253 26.7672 37.6277 26.3835L37.4669 27.0648ZM40.9685 28.2252C41.6937 28.6017 42.2512 29.1164 42.6504 29.7703L43.2479 29.4055C42.7786 28.6368 42.1233 28.036 41.2911 27.6039L40.9685 28.2252ZM42.6527 29.774C43.0516 30.4095 43.2618 31.2132 43.2618 32.2046H43.9618C43.9618 31.1146 43.7302 30.1739 43.2456 29.4018L42.6527 29.774ZM43.2618 32.2046C43.2618 33.079 43.02 33.8976 42.5303 34.6671L43.1209 35.0429C43.6794 34.1652 43.9618 33.2169 43.9618 32.2046H43.2618ZM42.5303 34.6671C42.047 35.4266 41.3633 35.9957 40.4659 36.3743L40.738 37.0193C41.7574 36.5892 42.5561 35.9305 43.1209 35.0429L42.5303 34.6671ZM40.4681 36.3734C39.565 36.7473 38.4198 36.942 37.0195 36.942V37.642C38.4792 37.642 39.7223 37.4398 40.7359 37.0202L40.4681 36.3734ZM37.0195 36.942C34.9874 36.942 33.4823 36.474 32.4521 35.589L31.996 36.12C33.197 37.1517 34.8888 37.642 37.0195 37.642V36.942ZM32.4532 35.5899C31.4193 34.6948 30.7823 33.3803 30.5726 31.6021L29.8774 31.684C30.1021 33.5894 30.7977 35.0825 31.995 36.1191L32.4532 35.5899ZM58.6251 28.5996L58.6873 28.944L59.0703 28.8749L58.961 28.5014L58.6251 28.5996ZM55.5143 29.1611L55.1691 29.2193L55.228 29.5685L55.5764 29.5056L55.5143 29.1611ZM54.7955 27.7573L54.5677 28.0231L54.5704 28.0253L54.7955 27.7573ZM51.4713 28.1055L51.2063 27.8768L51.2061 27.8771L51.4713 28.1055ZM51.4825 33.8218L51.2102 34.0417L51.2119 34.0438L51.4825 33.8218ZM54.8741 34.1924L55.1057 34.4548L55.1085 34.4523L54.8741 34.1924ZM55.6827 32.4292L55.7415 32.0842L55.4027 32.0265L55.3388 32.3641L55.6827 32.4292ZM58.7823 32.957L59.1237 33.0343L59.2052 32.674L58.8411 32.612L58.7823 32.957ZM49.0792 35.6187L48.824 35.8582L48.8249 35.8591L49.0792 35.6187ZM49.0904 26.4546L49.3439 26.6959L49.3447 26.6951L49.0904 26.4546ZM56.7721 25.7471L56.5644 26.0289L56.5672 26.0309L56.7721 25.7471ZM58.5629 28.2552L55.4521 28.8167L55.5764 29.5056L58.6873 28.944L58.5629 28.2552ZM55.8594 29.1029C55.7448 28.4237 55.4752 27.8711 55.0206 27.4893L54.5704 28.0253C54.8645 28.2724 55.0741 28.6557 55.1691 29.2193L55.8594 29.1029ZM55.0233 27.4916C54.5796 27.1113 54.0136 26.9356 53.358 26.9356V27.6356C53.8854 27.6356 54.2777 27.7744 54.5677 28.0231L55.0233 27.4916ZM53.358 26.9356C52.4803 26.9356 51.7509 27.2458 51.2063 27.8768L51.7363 28.3341C52.1351 27.872 52.6634 27.6356 53.358 27.6356V26.9356ZM51.2061 27.8771C50.658 28.5135 50.425 29.526 50.425 30.8232H51.125C51.125 29.5749 51.3562 28.7756 51.7365 28.3339L51.2061 27.8771ZM50.425 30.8232C50.425 32.2568 50.6599 33.3603 51.2102 34.0417L51.7548 33.6019C51.3618 33.1153 51.125 32.2197 51.125 30.8232H50.425ZM51.2119 34.0438C51.7621 34.7143 52.5043 35.0478 53.4029 35.0478V34.3478C52.6994 34.3478 52.1613 34.0973 51.7531 33.5998L51.2119 34.0438ZM53.4029 35.0478C54.0713 35.0478 54.6489 34.8579 55.1057 34.4548L54.6426 33.9299C54.3356 34.2007 53.9325 34.3478 53.4029 34.3478V35.0478ZM55.1085 34.4523C55.5735 34.0329 55.8636 33.356 56.0266 32.4943L55.3388 32.3641C55.1874 33.1645 54.9384 33.663 54.6397 33.9325L55.1085 34.4523ZM55.624 32.7742L58.7236 33.3021L58.8411 32.612L55.7415 32.0842L55.624 32.7742ZM58.441 32.8798C58.1321 34.2445 57.5482 35.2409 56.7115 35.9062L57.1471 36.4541C58.1372 35.667 58.7887 34.5147 59.1237 33.0343L58.441 32.8798ZM56.7115 35.9062C55.8771 36.5696 54.7377 36.9195 53.2569 36.9195V37.6195C54.8458 37.6195 56.1547 37.2432 57.1471 36.4541L56.7115 35.9062ZM53.2569 36.9195C51.5927 36.9195 50.2979 36.398 49.3335 35.3782L48.8249 35.8591C49.9419 37.0404 51.4322 37.6195 53.2569 37.6195V36.9195ZM49.3344 35.3791C48.3782 34.3605 47.8794 32.9321 47.8794 31.0479H47.1794C47.1794 33.0568 47.7138 34.6756 48.824 35.8582L49.3344 35.3791ZM47.8794 31.0479C47.8794 29.1403 48.3823 27.706 49.3439 26.6959L48.8369 26.2133C47.7172 27.3894 47.1794 29.0172 47.1794 31.0479H47.8794ZM49.3447 26.6951C50.3079 25.6764 51.6169 25.1537 53.3131 25.1537V24.4537C51.4604 24.4537 49.9543 25.0316 48.8361 26.2141L49.3447 26.6951ZM53.3131 25.1537C54.718 25.1537 55.7898 25.458 56.5645 26.0288L56.9797 25.4653C56.0473 24.7783 54.8131 24.4537 53.3131 24.4537V25.1537ZM56.5672 26.0309C57.3504 26.5961 57.931 27.4728 58.2892 28.6978L58.961 28.5014C58.5705 27.1659 57.9157 26.1409 56.9769 25.4633L56.5672 26.0309ZM66.013 20.5361H66.363V20.1861H66.013V20.5361ZM66.013 26.5894H65.663V27.537L66.2789 26.8169L66.013 26.5894ZM72.9422 26.2412L72.6549 26.4412L72.6573 26.4446L72.9422 26.2412ZM73.5486 27.6338L73.2058 27.7044L73.2068 27.7092L73.5486 27.6338ZM73.7171 37V37.35H74.0671V37H73.7171ZM70.5613 37H70.2113V37.35H70.5613V37ZM69.7415 27.5215L69.5456 27.8117L69.554 27.8171L69.7415 27.5215ZM67.2034 27.6001L67.3874 27.8978L67.2034 27.6001ZM66.2937 28.7568L65.9662 28.6334L65.9652 28.6361L66.2937 28.7568ZM66.013 37V37.35H66.363V37H66.013ZM62.8572 37H62.5072V37.35H62.8572V37ZM62.8572 20.5361V20.1861H62.5072V20.5361H62.8572ZM65.663 20.5361V26.5894H66.363V20.5361H65.663ZM66.2789 26.8169C67.2387 25.6948 68.3618 25.1537 69.6629 25.1537V24.4537C68.1338 24.4537 66.8237 25.103 65.747 26.3619L66.2789 26.8169ZM69.6629 25.1537C70.345 25.1537 70.9491 25.2801 71.4815 25.5258L71.7749 24.8902C71.1393 24.5969 70.4332 24.4537 69.6629 24.4537V25.1537ZM71.4815 25.5258C72.0235 25.7759 72.4066 26.0846 72.6549 26.4412L73.2294 26.0412C72.8937 25.5592 72.4009 25.1792 71.7749 24.8902L71.4815 25.5258ZM72.6573 26.4446C72.9282 26.8238 73.1107 27.2427 73.2058 27.7044L73.8914 27.5632C73.7768 27.0067 73.5551 26.4972 73.227 26.0378L72.6573 26.4446ZM73.2068 27.7092C73.3105 28.1793 73.3671 28.9375 73.3671 30.0034H74.0671C74.0671 28.9281 74.0113 28.1065 73.8904 27.5584L73.2068 27.7092ZM73.3671 30.0034V37H74.0671V30.0034H73.3671ZM73.7171 36.65H70.5613V37.35H73.7171V36.65ZM70.9113 37V30.6997H70.2113V37H70.9113ZM70.9113 30.6997C70.9113 30.0701 70.8962 29.5494 70.8654 29.1404C70.8352 28.741 70.7882 28.4176 70.7114 28.2016L70.0518 28.4361C70.0948 28.557 70.1376 28.7989 70.1674 29.1931C70.1964 29.5777 70.2113 30.079 70.2113 30.6997H70.9113ZM70.7114 28.2016C70.5649 27.7897 70.3007 27.4617 69.9289 27.2259L69.554 27.8171C69.7961 27.9706 69.9587 28.1742 70.0518 28.4361L70.7114 28.2016ZM69.9373 27.2314C69.5664 26.981 69.1153 26.8683 68.6072 26.8683V27.5683C69.0125 27.5683 69.3176 27.6576 69.5457 27.8116L69.9373 27.2314ZM68.6072 26.8683C68.0237 26.8683 67.491 27.0108 67.0193 27.3024L67.3874 27.8978C67.7393 27.6802 68.1425 27.5683 68.6072 27.5683V26.8683ZM67.0193 27.3024C66.5327 27.6032 66.1841 28.0551 65.9662 28.6334L66.6212 28.8802C66.7926 28.4254 67.0505 28.1061 67.3874 27.8978L67.0193 27.3024ZM65.9652 28.6361C65.7564 29.2039 65.663 30.0098 65.663 31.0254H66.363C66.363 30.0345 66.4566 29.328 66.6222 28.8776L65.9652 28.6361ZM65.663 31.0254V37H66.363V31.0254H65.663ZM66.013 36.65H62.8572V37.35H66.013V36.65ZM63.2072 37V20.5361H62.5072V37H63.2072ZM62.8572 20.8861H66.013V20.1861H62.8572V20.8861ZM85.6757 33.2041L85.7336 32.8589L85.4256 32.8072L85.3393 33.1074L85.6757 33.2041ZM88.8202 33.7319L89.1505 33.8477L89.288 33.4556L88.8782 33.3868L88.8202 33.7319ZM86.8998 36.3711L87.0985 36.6592L87.099 36.6589L86.8998 36.3711ZM79.0273 35.2368L78.7438 35.4421L78.7452 35.4441L79.0273 35.2368ZM79.3979 26.4883L79.6547 26.7261L79.6554 26.7253L79.3979 26.4883ZM87.5175 26.5669L87.2538 26.797L87.2545 26.7978L87.5175 26.5669ZM88.9887 31.9463V32.2963H89.3323L89.3386 31.9528L88.9887 31.9463ZM81.0824 31.9463V31.5963H80.7239L80.7325 31.9547L81.0824 31.9463ZM81.8461 34.1362L81.5896 34.3744L81.5914 34.3762L81.8461 34.1362ZM85.8554 30.0146V30.3646H86.2141L86.2053 30.006L85.8554 30.0146ZM85.1479 27.937L84.8925 28.1764L84.8944 28.1784L85.1479 27.937ZM81.1386 30.0146L80.7886 30.0177L80.7916 30.3646H81.1386V30.0146ZM85.6178 33.5493L88.7623 34.0771L88.8782 33.3868L85.7336 32.8589L85.6178 33.5493ZM88.49 33.6161C88.1064 34.71 87.5072 35.5249 86.7006 36.0833L87.099 36.6589C88.0444 36.0044 88.7255 35.0598 89.1505 33.8477L88.49 33.6161ZM86.7011 36.083C85.9038 36.6328 84.8883 36.9195 83.6318 36.9195V37.6195C84.9957 37.6195 86.1588 37.3073 87.0985 36.6592L86.7011 36.083ZM83.6318 36.9195C81.6402 36.9195 80.2236 36.2739 79.3093 35.0296L78.7452 35.4441C79.8224 36.91 81.4755 37.6195 83.6318 37.6195V36.9195ZM79.3107 35.0315C78.5771 34.0184 78.1981 32.7249 78.1981 31.1265H77.4981C77.4981 32.8373 77.9052 34.284 78.7438 35.4421L79.3107 35.0315ZM78.1981 31.1265C78.1981 29.2108 78.6976 27.7594 79.6547 26.7261L79.1411 26.2505C78.0317 27.4483 77.4981 29.089 77.4981 31.1265H78.1981ZM79.6554 26.7253C80.6198 25.6771 81.8315 25.1537 83.3173 25.1537V24.4537C81.6436 24.4537 80.2424 25.0534 79.1403 26.2513L79.6554 26.7253ZM83.3173 25.1537C85.0061 25.1537 86.3041 25.7086 87.2538 26.797L87.7812 26.3368C86.6795 25.0742 85.1774 24.4537 83.3173 24.4537V25.1537ZM87.2545 26.7978C88.1979 27.8721 88.6829 29.5621 88.6388 31.9398L89.3386 31.9528C89.3843 29.4939 88.8885 27.5976 87.7805 26.3359L87.2545 26.7978ZM88.9887 31.5963H81.0824V32.2963H88.9887V31.5963ZM80.7325 31.9547C80.7564 32.949 81.0288 33.7704 81.5896 34.3744L82.1026 33.8981C81.6901 33.4539 81.4534 32.8153 81.4323 31.9379L80.7325 31.9547ZM81.5914 34.3762C82.1459 34.9649 82.8453 35.2611 83.6655 35.2611V34.5611C83.0331 34.5611 82.5197 34.3408 82.1009 33.8962L81.5914 34.3762ZM83.6655 35.2611C84.2269 35.2611 84.7228 35.1064 85.1307 34.7801L84.6934 34.2335C84.4274 34.4463 84.0923 34.5611 83.6655 34.5611V35.2611ZM85.1307 34.7801C85.5442 34.4493 85.8284 33.9397 86.0121 33.3008L85.3393 33.1074C85.1786 33.6664 84.9536 34.0253 84.6934 34.2335L85.1307 34.7801ZM86.2053 30.006C86.1815 29.0407 85.9309 28.2517 85.4013 27.6956L84.8944 28.1784C85.2633 28.5657 85.4843 29.1617 85.5055 30.0233L86.2053 30.006ZM85.4032 27.6976C84.8893 27.1495 84.251 26.8683 83.5082 26.8683V27.5683C84.0532 27.5683 84.508 27.7662 84.8925 28.1764L85.4032 27.6976ZM83.5082 26.8683C82.7225 26.8683 82.0578 27.1595 81.5405 27.7372L82.0619 28.2042C82.443 27.7786 82.9163 27.5683 83.5082 27.5683V26.8683ZM81.5405 27.7372C81.0182 28.3204 80.7806 29.0946 80.7886 30.0177L81.4886 30.0116C81.4816 29.2127 81.6857 28.6243 82.0619 28.2042L81.5405 27.7372ZM81.1386 30.3646H85.8554V29.6646H81.1386V30.3646ZM104.35 37V37.35H104.7V37H104.35ZM101.419 37H101.069V37.35H101.419V37ZM101.419 35.248H101.769V34.1559L101.134 35.0446L101.419 35.248ZM99.6895 36.7754L99.8461 37.0884L99.8475 37.0877L99.6895 36.7754ZM94.1641 35.6187L93.9012 35.8496L93.9028 35.8515L94.1641 35.6187ZM94.1304 26.3872L94.3897 26.6224L94.3905 26.6214L94.1304 26.3872ZM101.194 26.4658L100.931 26.6968L101.544 27.3946V26.4658H101.194ZM101.194 20.5361V20.1861H100.844V20.5361H101.194ZM104.35 20.5361H104.7V20.1861H104.35V20.5361ZM96.4552 33.541L96.7529 33.357L96.7528 33.3569L96.4552 33.541ZM100.442 33.8555L100.711 34.0789L100.713 34.0773L100.442 33.8555ZM100.464 28.1279L100.193 28.349L100.194 28.3507L100.464 28.1279ZM96.6798 28.1167L96.4131 27.89L96.4128 27.8903L96.6798 28.1167ZM104.35 36.65H101.419V37.35H104.35V36.65ZM101.769 37V35.248H101.069V37H101.769ZM101.134 35.0446C100.676 35.6856 100.142 36.1546 99.5316 36.463L99.8475 37.0877C100.57 36.7223 101.188 36.1732 101.704 35.4515L101.134 35.0446ZM99.533 36.4623C98.9181 36.7698 98.3051 36.9195 97.6905 36.9195V37.6195C98.4236 37.6195 99.1432 37.4399 99.8461 37.0884L99.533 36.4623ZM97.6905 36.9195C96.4284 36.9195 95.3455 36.4182 94.4254 35.3858L93.9028 35.8515C94.9444 37.0202 96.2123 37.6195 97.6905 37.6195V36.9195ZM94.4271 35.3877C93.5266 34.3625 93.0542 32.9125 93.0542 30.9917H92.3542C92.3542 33.024 92.8551 34.6587 93.9012 35.8496L94.4271 35.3877ZM93.0542 30.9917C93.0542 29.0202 93.5181 27.5832 94.3897 26.6224L93.8712 26.152C92.8411 27.2876 92.3542 28.9203 92.3542 30.9917H93.0542ZM94.3905 26.6214C95.2733 25.6413 96.3796 25.1537 97.7354 25.1537V24.4537C96.1863 24.4537 94.8893 25.0218 93.8704 26.153L94.3905 26.6214ZM97.7354 25.1537C98.956 25.1537 100.017 25.6553 100.931 26.6968L101.457 26.2348C100.426 25.0602 99.1802 24.4537 97.7354 24.4537V25.1537ZM101.544 26.4658V20.5361H100.844V26.4658H101.544ZM101.194 20.8861H104.35V20.1861H101.194V20.8861ZM104 20.5361V37H104.7V20.5361H104ZM95.5773 30.7783C95.5773 32.0668 95.7524 33.0701 96.1575 33.7251L96.7528 33.3569C96.4541 32.8739 96.2773 32.0354 96.2773 30.7783H95.5773ZM96.1574 33.7251C96.7257 34.6443 97.5457 35.1264 98.5889 35.1264V34.4264C97.8054 34.4264 97.2028 34.0849 96.7529 33.357L96.1574 33.7251ZM98.5889 35.1264C99.4304 35.1264 100.143 34.7641 100.711 34.0789L100.173 33.6321C99.7225 34.1747 99.1999 34.4264 98.5889 34.4264V35.1264ZM100.713 34.0773C101.294 33.3677 101.556 32.3495 101.556 31.0815H100.856C100.856 32.2693 100.608 33.1004 100.171 33.6337L100.713 34.0773ZM101.556 31.0815C101.556 29.6859 101.307 28.5995 100.734 27.9052L100.194 28.3507C100.61 28.8543 100.856 29.7369 100.856 31.0815H101.556ZM100.736 27.9068C100.176 27.2202 99.4446 26.8683 98.5665 26.8683V27.5683C99.2307 27.5683 99.7643 27.8228 100.193 28.349L100.736 27.9068ZM98.5665 26.8683C97.7094 26.8683 96.9849 27.2173 96.4131 27.89L96.9464 28.3434C97.3929 27.8182 97.9262 27.5683 98.5665 27.5683V26.8683ZM96.4128 27.8903C95.8356 28.5709 95.5773 29.5542 95.5773 30.7783H96.2773C96.2773 29.6365 96.5206 28.8455 96.9467 28.3431L96.4128 27.8903ZM117.162 37H116.812V37.35H117.162V37ZM117.162 35.2144H117.512V34.0805L116.873 35.0171L117.162 35.2144ZM115.444 36.7192L115.284 36.4082L115.282 36.4089L115.444 36.7192ZM111.053 36.7417L110.884 37.048L111.053 36.7417ZM109.245 25.0732V24.7232H108.895V25.0732H109.245ZM112.401 25.0732H112.751V24.7232H112.401V25.0732ZM112.569 33.6421L112.233 33.7409L112.236 33.7488L112.569 33.6421ZM113.209 34.5405L113.003 34.823L113.007 34.8263L113.209 34.5405ZM115.826 34.4282L116.024 34.7171L116.027 34.7147L115.826 34.4282ZM116.702 33.3276L117.031 33.4468L117.032 33.445L116.702 33.3276ZM116.938 25.0732V24.7232H116.588V25.0732H116.938ZM120.093 25.0732H120.443V24.7232H120.093V25.0732ZM120.093 37V37.35H120.443V37H120.093ZM117.512 37V35.2144H116.812V37H117.512ZM116.873 35.0171C116.473 35.6036 115.945 36.0669 115.284 36.4082L115.605 37.0303C116.365 36.6379 116.983 36.0979 117.451 35.4116L116.873 35.0171ZM115.282 36.4089C114.628 36.75 113.938 36.9195 113.209 36.9195V37.6195C114.052 37.6195 114.853 37.4222 115.606 37.0296L115.282 36.4089ZM113.209 36.9195C112.461 36.9195 111.802 36.7558 111.222 36.4354L110.884 37.048C111.577 37.4314 112.355 37.6195 113.209 37.6195V36.9195ZM111.222 36.4354C110.649 36.1186 110.243 35.6804 109.991 35.1164L109.352 35.4021C109.669 36.111 110.184 36.6611 110.884 37.048L111.222 36.4354ZM109.991 35.1164C109.735 34.5442 109.595 33.7205 109.595 32.6201H108.895C108.895 33.7658 109.039 34.7016 109.352 35.4021L109.991 35.1164ZM109.595 32.6201V25.0732H108.895V32.6201H109.595ZM109.245 25.4232H112.401V24.7232H109.245V25.4232ZM112.051 25.0732V30.5537H112.751V25.0732H112.051ZM112.051 30.5537C112.051 31.3952 112.065 32.0789 112.093 32.6027C112.121 33.1149 112.164 33.5059 112.233 33.7408L112.905 33.5433C112.862 33.3964 112.82 33.0818 112.792 32.5646C112.765 32.0588 112.751 31.3893 112.751 30.5537H112.051ZM112.236 33.7488C112.377 34.1911 112.634 34.5531 113.003 34.823L113.416 34.2581C113.171 34.0787 113 33.8418 112.902 33.5354L112.236 33.7488ZM113.007 34.8263C113.387 35.0948 113.852 35.2162 114.377 35.2162V34.5162C113.959 34.5162 113.646 34.4205 113.411 34.2548L113.007 34.8263ZM114.377 35.2162C114.984 35.2162 115.536 35.0507 116.024 34.7171L115.628 34.1394C115.262 34.3898 114.849 34.5162 114.377 34.5162V35.2162ZM116.027 34.7147C116.505 34.3795 116.846 33.9572 117.031 33.4468L116.373 33.2085C116.243 33.5666 116.001 33.878 115.625 34.1417L116.027 34.7147ZM117.032 33.445C117.128 33.1756 117.188 32.7547 117.228 32.2161C117.268 31.667 117.288 30.9622 117.288 30.1045H116.588C116.588 30.9538 116.568 31.6397 116.53 32.165C116.491 32.7007 116.433 33.038 116.372 33.2103L117.032 33.445ZM117.288 30.1045V25.0732H116.588V30.1045H117.288ZM116.938 25.4232H120.093V24.7232H116.938V25.4232ZM119.743 25.0732V37H120.443V25.0732H119.743ZM120.093 36.65H117.162V37.35H120.093V36.65ZM125.213 37H124.863V37.35H125.213V37ZM125.213 20.5361V20.1861H124.863V20.5361H125.213ZM128.369 20.5361H128.719V20.1861H128.369V20.5361ZM128.369 37V37.35H128.719V37H128.369ZM125.563 37V20.5361H124.863V37H125.563ZM125.213 20.8861H128.369V20.1861H125.213V20.8861ZM128.019 20.5361V37H128.719V20.5361H128.019ZM128.369 36.65H125.213V37.35H128.369V36.65ZM140.361 33.2041L140.419 32.8589L140.111 32.8072L140.025 33.1074L140.361 33.2041ZM143.505 33.7319L143.836 33.8477L143.973 33.4556L143.563 33.3868L143.505 33.7319ZM141.585 36.3711L141.784 36.6592L141.784 36.6589L141.585 36.3711ZM133.712 35.2368L133.429 35.4421L133.43 35.4441L133.712 35.2368ZM134.083 26.4883L134.34 26.7261L134.341 26.7253L134.083 26.4883ZM142.203 26.5669L141.939 26.797L141.94 26.7978L142.203 26.5669ZM143.674 31.9463V32.2963H144.017L144.024 31.9528L143.674 31.9463ZM135.768 31.9463V31.5963H135.409L135.418 31.9547L135.768 31.9463ZM136.531 34.1362L136.275 34.3744L136.277 34.3762L136.531 34.1362ZM140.541 30.0146V30.3646H140.899L140.89 30.006L140.541 30.0146ZM139.833 27.937L139.578 28.1764L139.58 28.1784L139.833 27.937ZM135.824 30.0146L135.474 30.0177L135.477 30.3646H135.824V30.0146ZM140.303 33.5493L143.447 34.0771L143.563 33.3868L140.419 32.8589L140.303 33.5493ZM143.175 33.6161C142.792 34.71 142.192 35.5249 141.386 36.0833L141.784 36.6589C142.73 36.0044 143.411 35.0598 143.836 33.8477L143.175 33.6161ZM141.386 36.083C140.589 36.6328 139.573 36.9195 138.317 36.9195V37.6195C139.681 37.6195 140.844 37.3073 141.784 36.6592L141.386 36.083ZM138.317 36.9195C136.325 36.9195 134.909 36.2739 133.995 35.0296L133.43 35.4441C134.508 36.91 136.161 37.6195 138.317 37.6195V36.9195ZM133.996 35.0315C133.262 34.0184 132.883 32.7249 132.883 31.1265H132.183C132.183 32.8373 132.59 34.284 133.429 35.4421L133.996 35.0315ZM132.883 31.1265C132.883 29.2108 133.383 27.7594 134.34 26.7261L133.826 26.2505C132.717 27.4483 132.183 29.089 132.183 31.1265H132.883ZM134.341 26.7253C135.305 25.6771 136.517 25.1537 138.003 25.1537V24.4537C136.329 24.4537 134.928 25.0534 133.825 26.2513L134.341 26.7253ZM138.003 25.1537C139.691 25.1537 140.989 25.7086 141.939 26.797L142.466 26.3368C141.365 25.0742 139.863 24.4537 138.003 24.4537V25.1537ZM141.94 26.7978C142.883 27.8721 143.368 29.5621 143.324 31.9398L144.024 31.9528C144.07 29.4939 143.574 27.5976 142.466 26.3359L141.94 26.7978ZM143.674 31.5963H135.768V32.2963H143.674V31.5963ZM135.418 31.9547C135.442 32.949 135.714 33.7704 136.275 34.3744L136.788 33.8981C136.375 33.4539 136.139 32.8153 136.118 31.9379L135.418 31.9547ZM136.277 34.3762C136.831 34.9649 137.53 35.2611 138.351 35.2611V34.5611C137.718 34.5611 137.205 34.3408 136.786 33.8962L136.277 34.3762ZM138.351 35.2611C138.912 35.2611 139.408 35.1064 139.816 34.7801L139.379 34.2335C139.113 34.4463 138.777 34.5611 138.351 34.5611V35.2611ZM139.816 34.7801C140.229 34.4493 140.514 33.9397 140.697 33.3008L140.025 33.1074C139.864 33.6664 139.639 34.0253 139.379 34.2335L139.816 34.7801ZM140.89 30.006C140.867 29.0407 140.616 28.2517 140.087 27.6956L139.58 28.1784C139.949 28.5657 140.17 29.1617 140.191 30.0233L140.89 30.006ZM140.088 27.6976C139.575 27.1495 138.936 26.8683 138.193 26.8683V27.5683C138.738 27.5683 139.193 27.7662 139.578 28.1764L140.088 27.6976ZM138.193 26.8683C137.408 26.8683 136.743 27.1595 136.226 27.7372L136.747 28.2042C137.128 27.7786 137.602 27.5683 138.193 27.5683V26.8683ZM136.226 27.7372C135.703 28.3204 135.466 29.0946 135.474 30.0177L136.174 30.0116C136.167 29.2127 136.371 28.6243 136.747 28.2042L136.226 27.7372ZM135.824 30.3646H140.541V29.6646H135.824V30.3646Z" fill="black"/>
</g>
<defs>
<clipPath id="clip0_57_37">
<rect width="175" height="58" fill="white"/>
</clipPath>
</defs>
</svg>
