<svg width="623" height="158" viewBox="0 0 623 158" fill="none" xmlns="http://www.w3.org/2000/svg">
<g clip-path="url(#clip0_6_2)">
<path d="M381.077 124.644H364.851L349.172 140.444L333.493 156.244H350.679H367.866L382.586 141.514C390.681 133.413 397.304 126.303 397.304 125.714C397.304 125.125 390.002 124.644 381.077 124.644Z" fill="url(#paint0_linear_6_2)"/>
<path fill-rule="evenodd" clip-rule="evenodd" d="M609.436 142.639L595.955 128.154L538.962 128.156H481.969L476.939 122.889L471.909 117.622H447.268H422.624L402.554 137.811L382.484 158H502.783C568.949 158 623.045 157.802 623 157.561C622.953 157.321 616.85 150.604 609.436 142.639ZM593.165 133.605L601.978 142.73C606.824 147.749 610.799 152.054 610.811 152.294C610.822 152.535 562.214 152.733 502.794 152.733H394.755L409.555 137.811L424.355 122.889H446.648C468.881 122.889 468.958 122.903 474.872 128.112L480.802 133.334L536.985 133.47L593.165 133.605Z" fill="url(#paint1_linear_6_2)"/>
<path fill-rule="evenodd" clip-rule="evenodd" d="M526.315 56.5482L469.919 0H380.556H291.194L286.164 5.26667L281.133 10.5333H181.149H81.1655L76.1352 5.26667L71.105 0L47.3666 0.0175727L23.6282 0.0333774L11.8141 11.4041L0 22.773V63.1754V103.578H238.564H477.128L483.16 109.859L489.191 116.141L511.786 115.868L534.38 115.595C559.234 115.293 580.277 114.608 581.141 114.072C582.006 113.535 557.335 87.6514 526.315 56.5482ZM466.438 5.31231L518.464 56.6325C558.787 96.4081 569.812 108.198 567.47 109.053C565.809 109.659 547.985 110.295 527.859 110.465L491.265 110.772L484.915 104.554L478.567 98.3357L241.977 98.2988L5.38894 98.2619L4.8813 62.2467L4.37559 26.2333L14.877 15.8228L25.3784 5.41239L46.9729 5.14553L68.5673 4.87696L74.1855 10.3385L79.802 15.8L181.233 15.7719L282.663 15.7438L288.589 10.5053L294.514 5.26667L380.477 5.28949L466.438 5.31231Z" fill="url(#paint2_linear_6_2)"/>
<path d="M331.118 125.556C330.62 125.054 323.435 124.644 315.151 124.644H300.092L284.413 140.444L268.735 156.244H285.212H301.688L316.857 141.356C325.201 133.166 331.619 126.056 331.118 125.556Z" fill="url(#paint3_linear_6_2)"/>
<path d="M250.721 124.809L235.407 124.513L219.691 140.38L203.976 156.244H220.605H237.234L251.635 141.724C259.555 133.738 266.036 126.732 266.036 126.156C266.036 125.578 259.143 124.973 250.721 124.809Z" fill="url(#paint4_linear_6_2)"/>
<path fill-rule="evenodd" clip-rule="evenodd" d="M104.543 122.889H1.52588e-05V140.444V158H87.1076H174.215L191.651 140.444L209.087 122.889H104.543ZM5.25069 128.156H99.7634C155.095 128.156 194.276 128.816 194.276 129.746C194.276 130.622 188.667 136.547 181.811 142.913L169.347 154.489H87.2983H5.25069V141.322V128.156Z" fill="url(#paint5_linear_6_2)"/>
<mask id="mask0_6_2" style="mask-type:luminance" maskUnits="userSpaceOnUse" x="0" y="0" width="623" height="158">
<path d="M381.077 124.644H364.851L349.172 140.444L333.493 156.244H350.679H367.866L382.586 141.514C390.681 133.413 397.304 126.303 397.304 125.714C397.304 125.125 390.002 124.644 381.077 124.644Z" fill="white"/>
<path fill-rule="evenodd" clip-rule="evenodd" d="M609.436 142.639L595.955 128.154L538.962 128.156H481.969L476.939 122.889L471.909 117.622H447.268H422.624L402.554 137.811L382.484 158H502.783C568.949 158 623.045 157.802 623 157.561C622.953 157.321 616.85 150.604 609.436 142.639ZM593.165 133.605L601.978 142.73C606.824 147.749 610.799 152.054 610.811 152.294C610.822 152.535 562.214 152.733 502.794 152.733H394.755L409.555 137.811L424.355 122.889H446.648C468.881 122.889 468.958 122.903 474.872 128.112L480.802 133.334L536.985 133.47L593.165 133.605Z" fill="white"/>
<path fill-rule="evenodd" clip-rule="evenodd" d="M526.315 56.5482L469.919 0H380.556H291.194L286.164 5.26667L281.133 10.5333H181.149H81.1655L76.1352 5.26667L71.105 0L47.3666 0.0175727L23.6282 0.0333774L11.8141 11.4041L0 22.773V63.1754V103.578H238.564H477.128L483.16 109.859L489.191 116.141L511.786 115.868L534.38 115.595C559.234 115.293 580.277 114.608 581.141 114.072C582.006 113.535 557.335 87.6514 526.315 56.5482ZM466.438 5.31231L518.464 56.6325C558.787 96.4081 569.812 108.198 567.47 109.053C565.809 109.659 547.985 110.295 527.859 110.465L491.265 110.772L484.915 104.554L478.567 98.3357L241.977 98.2988L5.38894 98.2619L4.8813 62.2467L4.37559 26.2333L14.877 15.8228L25.3784 5.41239L46.9729 5.14553L68.5673 4.87696L74.1855 10.3385L79.802 15.8L181.233 15.7719L282.663 15.7438L288.589 10.5053L294.514 5.26667L380.477 5.28949L466.438 5.31231Z" fill="white"/>
<path d="M331.118 125.556C330.62 125.054 323.435 124.644 315.151 124.644H300.092L284.413 140.444L268.735 156.244H285.212H301.688L316.857 141.356C325.201 133.166 331.619 126.056 331.118 125.556Z" fill="white"/>
<path d="M250.721 124.809L235.407 124.513L219.691 140.38L203.976 156.244H220.605H237.234L251.635 141.724C259.555 133.738 266.036 126.732 266.036 126.156C266.036 125.578 259.143 124.973 250.721 124.809Z" fill="white"/>
<path fill-rule="evenodd" clip-rule="evenodd" d="M104.543 122.889H1.52588e-05V140.444V158H87.1076H174.215L191.651 140.444L209.087 122.889H104.543ZM5.25069 128.156H99.7634C155.095 128.156 194.276 128.816 194.276 129.746C194.276 130.622 188.667 136.547 181.811 142.913L169.347 154.489H87.2983H5.25069V141.322V128.156Z" fill="white"/>
</mask>
<g mask="url(#mask0_6_2)">
<path d="M381.077 124.644H364.851L349.172 140.444L333.493 156.244H350.679H367.866L382.586 141.514C390.681 133.413 397.304 126.303 397.304 125.714C397.304 125.125 390.002 124.644 381.077 124.644Z" stroke="#D7CC00" stroke-width="2"/>
</g>
<mask id="mask1_6_2" style="mask-type:luminance" maskUnits="userSpaceOnUse" x="0" y="0" width="623" height="158">
<path d="M381.077 124.644H364.851L349.172 140.444L333.493 156.244H350.679H367.866L382.586 141.514C390.681 133.413 397.304 126.303 397.304 125.714C397.304 125.125 390.002 124.644 381.077 124.644Z" fill="white"/>
<path fill-rule="evenodd" clip-rule="evenodd" d="M609.436 142.639L595.955 128.154L538.962 128.156H481.969L476.939 122.889L471.909 117.622H447.268H422.624L402.554 137.811L382.484 158H502.783C568.949 158 623.045 157.802 623 157.561C622.953 157.321 616.85 150.604 609.436 142.639ZM593.165 133.605L601.978 142.73C606.824 147.749 610.799 152.054 610.811 152.294C610.822 152.535 562.214 152.733 502.794 152.733H394.755L409.555 137.811L424.355 122.889H446.648C468.881 122.889 468.958 122.903 474.872 128.112L480.802 133.334L536.985 133.47L593.165 133.605Z" fill="white"/>
<path fill-rule="evenodd" clip-rule="evenodd" d="M526.315 56.5482L469.919 0H380.556H291.194L286.164 5.26667L281.133 10.5333H181.149H81.1655L76.1352 5.26667L71.105 0L47.3666 0.0175727L23.6282 0.0333774L11.8141 11.4041L0 22.773V63.1754V103.578H238.564H477.128L483.16 109.859L489.191 116.141L511.786 115.868L534.38 115.595C559.234 115.293 580.277 114.608 581.141 114.072C582.006 113.535 557.335 87.6514 526.315 56.5482ZM466.438 5.31231L518.464 56.6325C558.787 96.4081 569.812 108.198 567.47 109.053C565.809 109.659 547.985 110.295 527.859 110.465L491.265 110.772L484.915 104.554L478.567 98.3357L241.977 98.2988L5.38894 98.2619L4.8813 62.2467L4.37559 26.2333L14.877 15.8228L25.3784 5.41239L46.9729 5.14553L68.5673 4.87696L74.1855 10.3385L79.802 15.8L181.233 15.7719L282.663 15.7438L288.589 10.5053L294.514 5.26667L380.477 5.28949L466.438 5.31231Z" fill="white"/>
<path d="M331.118 125.556C330.62 125.054 323.435 124.644 315.151 124.644H300.092L284.413 140.444L268.735 156.244H285.212H301.688L316.857 141.356C325.201 133.166 331.619 126.056 331.118 125.556Z" fill="white"/>
<path d="M250.721 124.809L235.407 124.513L219.691 140.38L203.976 156.244H220.605H237.234L251.635 141.724C259.555 133.738 266.036 126.732 266.036 126.156C266.036 125.578 259.143 124.973 250.721 124.809Z" fill="white"/>
<path fill-rule="evenodd" clip-rule="evenodd" d="M104.543 122.889H1.52588e-05V140.444V158H87.1076H174.215L191.651 140.444L209.087 122.889H104.543ZM5.25069 128.156H99.7634C155.095 128.156 194.276 128.816 194.276 129.746C194.276 130.622 188.667 136.547 181.811 142.913L169.347 154.489H87.2983H5.25069V141.322V128.156Z" fill="white"/>
</mask>
<g mask="url(#mask1_6_2)">
<path fill-rule="evenodd" clip-rule="evenodd" d="M609.436 142.639L595.955 128.154L538.962 128.156H481.969L476.939 122.889L471.909 117.622H447.268H422.624L402.554 137.811L382.484 158H502.783C568.949 158 623.045 157.802 623 157.561C622.953 157.321 616.85 150.604 609.436 142.639ZM593.165 133.605L601.978 142.73C606.824 147.749 610.799 152.054 610.811 152.294C610.822 152.535 562.214 152.733 502.794 152.733H394.755L409.555 137.811L424.355 122.889H446.648C468.881 122.889 468.958 122.903 474.872 128.112L480.802 133.334L536.985 133.47L593.165 133.605Z" stroke="#D7CC00" stroke-width="2"/>
</g>
<mask id="mask2_6_2" style="mask-type:luminance" maskUnits="userSpaceOnUse" x="0" y="0" width="623" height="158">
<path d="M381.077 124.644H364.851L349.172 140.444L333.493 156.244H350.679H367.866L382.586 141.514C390.681 133.413 397.304 126.303 397.304 125.714C397.304 125.125 390.002 124.644 381.077 124.644Z" fill="white"/>
<path fill-rule="evenodd" clip-rule="evenodd" d="M609.436 142.639L595.955 128.154L538.962 128.156H481.969L476.939 122.889L471.909 117.622H447.268H422.624L402.554 137.811L382.484 158H502.783C568.949 158 623.045 157.802 623 157.561C622.953 157.321 616.85 150.604 609.436 142.639ZM593.165 133.605L601.978 142.73C606.824 147.749 610.799 152.054 610.811 152.294C610.822 152.535 562.214 152.733 502.794 152.733H394.755L409.555 137.811L424.355 122.889H446.648C468.881 122.889 468.958 122.903 474.872 128.112L480.802 133.334L536.985 133.47L593.165 133.605Z" fill="white"/>
<path fill-rule="evenodd" clip-rule="evenodd" d="M526.315 56.5482L469.919 0H380.556H291.194L286.164 5.26667L281.133 10.5333H181.149H81.1655L76.1352 5.26667L71.105 0L47.3666 0.0175727L23.6282 0.0333774L11.8141 11.4041L0 22.773V63.1754V103.578H238.564H477.128L483.16 109.859L489.191 116.141L511.786 115.868L534.38 115.595C559.234 115.293 580.277 114.608 581.141 114.072C582.006 113.535 557.335 87.6514 526.315 56.5482ZM466.438 5.31231L518.464 56.6325C558.787 96.4081 569.812 108.198 567.47 109.053C565.809 109.659 547.985 110.295 527.859 110.465L491.265 110.772L484.915 104.554L478.567 98.3357L241.977 98.2988L5.38894 98.2619L4.8813 62.2467L4.37559 26.2333L14.877 15.8228L25.3784 5.41239L46.9729 5.14553L68.5673 4.87696L74.1855 10.3385L79.802 15.8L181.233 15.7719L282.663 15.7438L288.589 10.5053L294.514 5.26667L380.477 5.28949L466.438 5.31231Z" fill="white"/>
<path d="M331.118 125.556C330.62 125.054 323.435 124.644 315.151 124.644H300.092L284.413 140.444L268.735 156.244H285.212H301.688L316.857 141.356C325.201 133.166 331.619 126.056 331.118 125.556Z" fill="white"/>
<path d="M250.721 124.809L235.407 124.513L219.691 140.38L203.976 156.244H220.605H237.234L251.635 141.724C259.555 133.738 266.036 126.732 266.036 126.156C266.036 125.578 259.143 124.973 250.721 124.809Z" fill="white"/>
<path fill-rule="evenodd" clip-rule="evenodd" d="M104.543 122.889H1.52588e-05V140.444V158H87.1076H174.215L191.651 140.444L209.087 122.889H104.543ZM5.25069 128.156H99.7634C155.095 128.156 194.276 128.816 194.276 129.746C194.276 130.622 188.667 136.547 181.811 142.913L169.347 154.489H87.2983H5.25069V141.322V128.156Z" fill="white"/>
</mask>
<g mask="url(#mask2_6_2)">
<path fill-rule="evenodd" clip-rule="evenodd" d="M526.315 56.5482L469.919 0H380.556H291.194L286.164 5.26667L281.133 10.5333H181.149H81.1655L76.1352 5.26667L71.105 0L47.3666 0.0175727L23.6282 0.0333774L11.8141 11.4041L0 22.773V63.1754V103.578H238.564H477.128L483.16 109.859L489.191 116.141L511.786 115.868L534.38 115.595C559.234 115.293 580.277 114.608 581.141 114.072C582.006 113.535 557.335 87.6514 526.315 56.5482ZM466.438 5.31231L518.464 56.6325C558.787 96.4081 569.812 108.198 567.47 109.053C565.809 109.659 547.985 110.295 527.859 110.465L491.265 110.772L484.915 104.554L478.567 98.3357L241.977 98.2988L5.38894 98.2619L4.8813 62.2467L4.37559 26.2333L14.877 15.8228L25.3784 5.41239L46.9729 5.14553L68.5673 4.87696L74.1855 10.3385L79.802 15.8L181.233 15.7719L282.663 15.7438L288.589 10.5053L294.514 5.26667L380.477 5.28949L466.438 5.31231Z" stroke="#D7CC00" stroke-width="2"/>
</g>
<mask id="mask3_6_2" style="mask-type:luminance" maskUnits="userSpaceOnUse" x="0" y="0" width="623" height="158">
<path d="M381.077 124.644H364.851L349.172 140.444L333.493 156.244H350.679H367.866L382.586 141.514C390.681 133.413 397.304 126.303 397.304 125.714C397.304 125.125 390.002 124.644 381.077 124.644Z" fill="white"/>
<path fill-rule="evenodd" clip-rule="evenodd" d="M609.436 142.639L595.955 128.154L538.962 128.156H481.969L476.939 122.889L471.909 117.622H447.268H422.624L402.554 137.811L382.484 158H502.783C568.949 158 623.045 157.802 623 157.561C622.953 157.321 616.85 150.604 609.436 142.639ZM593.165 133.605L601.978 142.73C606.824 147.749 610.799 152.054 610.811 152.294C610.822 152.535 562.214 152.733 502.794 152.733H394.755L409.555 137.811L424.355 122.889H446.648C468.881 122.889 468.958 122.903 474.872 128.112L480.802 133.334L536.985 133.47L593.165 133.605Z" fill="white"/>
<path fill-rule="evenodd" clip-rule="evenodd" d="M526.315 56.5482L469.919 0H380.556H291.194L286.164 5.26667L281.133 10.5333H181.149H81.1655L76.1352 5.26667L71.105 0L47.3666 0.0175727L23.6282 0.0333774L11.8141 11.4041L0 22.773V63.1754V103.578H238.564H477.128L483.16 109.859L489.191 116.141L511.786 115.868L534.38 115.595C559.234 115.293 580.277 114.608 581.141 114.072C582.006 113.535 557.335 87.6514 526.315 56.5482ZM466.438 5.31231L518.464 56.6325C558.787 96.4081 569.812 108.198 567.47 109.053C565.809 109.659 547.985 110.295 527.859 110.465L491.265 110.772L484.915 104.554L478.567 98.3357L241.977 98.2988L5.38894 98.2619L4.8813 62.2467L4.37559 26.2333L14.877 15.8228L25.3784 5.41239L46.9729 5.14553L68.5673 4.87696L74.1855 10.3385L79.802 15.8L181.233 15.7719L282.663 15.7438L288.589 10.5053L294.514 5.26667L380.477 5.28949L466.438 5.31231Z" fill="white"/>
<path d="M331.118 125.556C330.62 125.054 323.435 124.644 315.151 124.644H300.092L284.413 140.444L268.735 156.244H285.212H301.688L316.857 141.356C325.201 133.166 331.619 126.056 331.118 125.556Z" fill="white"/>
<path d="M250.721 124.809L235.407 124.513L219.691 140.38L203.976 156.244H220.605H237.234L251.635 141.724C259.555 133.738 266.036 126.732 266.036 126.156C266.036 125.578 259.143 124.973 250.721 124.809Z" fill="white"/>
<path fill-rule="evenodd" clip-rule="evenodd" d="M104.543 122.889H1.52588e-05V140.444V158H87.1076H174.215L191.651 140.444L209.087 122.889H104.543ZM5.25069 128.156H99.7634C155.095 128.156 194.276 128.816 194.276 129.746C194.276 130.622 188.667 136.547 181.811 142.913L169.347 154.489H87.2983H5.25069V141.322V128.156Z" fill="white"/>
</mask>
<g mask="url(#mask3_6_2)">
<path d="M250.721 124.809L235.407 124.513L219.691 140.38L203.976 156.244H220.605H237.234L251.635 141.724C259.555 133.738 266.036 126.732 266.036 126.156C266.036 125.578 259.143 124.973 250.721 124.809Z" stroke="#D7CC00" stroke-width="2"/>
</g>
<mask id="mask4_6_2" style="mask-type:luminance" maskUnits="userSpaceOnUse" x="0" y="0" width="623" height="158">
<path d="M381.077 124.644H364.851L349.172 140.444L333.493 156.244H350.679H367.866L382.586 141.514C390.681 133.413 397.304 126.303 397.304 125.714C397.304 125.125 390.002 124.644 381.077 124.644Z" fill="white"/>
<path fill-rule="evenodd" clip-rule="evenodd" d="M609.436 142.639L595.955 128.154L538.962 128.156H481.969L476.939 122.889L471.909 117.622H447.268H422.624L402.554 137.811L382.484 158H502.783C568.949 158 623.045 157.802 623 157.561C622.953 157.321 616.85 150.604 609.436 142.639ZM593.165 133.605L601.978 142.73C606.824 147.749 610.799 152.054 610.811 152.294C610.822 152.535 562.214 152.733 502.794 152.733H394.755L409.555 137.811L424.355 122.889H446.648C468.881 122.889 468.958 122.903 474.872 128.112L480.802 133.334L536.985 133.47L593.165 133.605Z" fill="white"/>
<path fill-rule="evenodd" clip-rule="evenodd" d="M526.315 56.5482L469.919 0H380.556H291.194L286.164 5.26667L281.133 10.5333H181.149H81.1655L76.1352 5.26667L71.105 0L47.3666 0.0175727L23.6282 0.0333774L11.8141 11.4041L0 22.773V63.1754V103.578H238.564H477.128L483.16 109.859L489.191 116.141L511.786 115.868L534.38 115.595C559.234 115.293 580.277 114.608 581.141 114.072C582.006 113.535 557.335 87.6514 526.315 56.5482ZM466.438 5.31231L518.464 56.6325C558.787 96.4081 569.812 108.198 567.47 109.053C565.809 109.659 547.985 110.295 527.859 110.465L491.265 110.772L484.915 104.554L478.567 98.3357L241.977 98.2988L5.38894 98.2619L4.8813 62.2467L4.37559 26.2333L14.877 15.8228L25.3784 5.41239L46.9729 5.14553L68.5673 4.87696L74.1855 10.3385L79.802 15.8L181.233 15.7719L282.663 15.7438L288.589 10.5053L294.514 5.26667L380.477 5.28949L466.438 5.31231Z" fill="white"/>
<path d="M331.118 125.556C330.62 125.054 323.435 124.644 315.151 124.644H300.092L284.413 140.444L268.735 156.244H285.212H301.688L316.857 141.356C325.201 133.166 331.619 126.056 331.118 125.556Z" fill="white"/>
<path d="M250.721 124.809L235.407 124.513L219.691 140.38L203.976 156.244H220.605H237.234L251.635 141.724C259.555 133.738 266.036 126.732 266.036 126.156C266.036 125.578 259.143 124.973 250.721 124.809Z" fill="white"/>
<path fill-rule="evenodd" clip-rule="evenodd" d="M104.543 122.889H1.52588e-05V140.444V158H87.1076H174.215L191.651 140.444L209.087 122.889H104.543ZM5.25069 128.156H99.7634C155.095 128.156 194.276 128.816 194.276 129.746C194.276 130.622 188.667 136.547 181.811 142.913L169.347 154.489H87.2983H5.25069V141.322V128.156Z" fill="white"/>
</mask>
<g mask="url(#mask4_6_2)">
<path fill-rule="evenodd" clip-rule="evenodd" d="M104.543 122.889H1.52588e-05V140.444V158H87.1076H174.215L191.651 140.444L209.087 122.889H104.543ZM5.25069 128.156H99.7634C155.095 128.156 194.276 128.816 194.276 129.746C194.276 130.622 188.667 136.547 181.811 142.913L169.347 154.489H87.2983H5.25069V141.322V128.156Z" stroke="#D7CC00" stroke-width="2"/>
</g>
<path d="M340.626 37.976H344.946L335.97 54.156L346.146 71.576H341.73L333.618 57.176C333.298 56.666 333.138 56.216 333.138 55.836H332.946C332.946 56.216 332.786 56.666 332.466 57.176L324.354 71.576H319.938L330.114 54.156L321.138 37.976H325.458L332.37 50.936C332.754 51.706 332.946 52.206 332.946 52.426H333.138C333.138 52.296 333.17 52.156 333.234 51.996C333.298 51.806 333.378 51.616 333.474 51.416C333.602 51.196 333.682 51.036 333.714 50.936L340.626 37.976Z" fill="white" stroke="white"/>
<path d="M148.223 56.216H136.75C135.983 56.216 135.214 55.896 134.447 55.256L133.151 54.152C132.478 53.608 132.142 52.968 132.142 52.232V42.296C132.142 41.336 132.527 40.536 133.295 39.896L134.447 38.936C135.214 38.296 135.983 37.976 136.75 37.976H149.519C150.286 37.976 151.055 38.296 151.822 38.936L152.974 39.896C153.743 40.536 154.127 41.336 154.127 42.296V44.216H150.094V43.304C150.094 42.824 150.063 42.52 149.998 42.392C149.966 42.232 149.807 42.04 149.519 41.816C149.231 41.592 149.007 41.464 148.846 41.432C148.687 41.368 148.319 41.336 147.743 41.336H138.527C137.95 41.336 137.582 41.368 137.423 41.432C137.262 41.464 137.039 41.592 136.75 41.816C136.462 42.04 136.286 42.232 136.223 42.392C136.19 42.52 136.175 42.824 136.175 43.304V50.888C136.175 51.368 136.19 51.688 136.223 51.848C136.286 51.976 136.462 52.152 136.75 52.376C137.039 52.6 137.262 52.744 137.423 52.808C137.582 52.84 137.95 52.856 138.527 52.856H149.998C150.767 52.856 151.534 53.176 152.303 53.816L153.454 54.776C154.223 55.416 154.606 56.216 154.606 57.176V67.256C154.606 68.216 154.223 69.015 153.454 69.656L152.303 70.616C151.534 71.256 150.767 71.576 149.998 71.576H136.271C135.502 71.576 134.735 71.256 133.966 70.616L132.815 69.656C132.046 69.015 131.663 68.216 131.663 67.256V65.336H135.695V66.248C135.695 66.728 135.711 67.048 135.743 67.208C135.807 67.336 135.983 67.512 136.271 67.736C136.558 67.96 136.783 68.104 136.942 68.168C137.103 68.2 137.471 68.216 138.046 68.216H148.223C148.798 68.216 149.166 68.2 149.327 68.168C149.486 68.104 149.711 67.96 149.998 67.736C150.286 67.512 150.447 67.336 150.478 67.208C150.543 67.048 150.575 66.728 150.575 66.248V58.184C150.575 57.704 150.543 57.4 150.478 57.272C150.447 57.112 150.286 56.92 149.998 56.696C149.711 56.472 149.486 56.344 149.327 56.312C149.166 56.248 148.798 56.216 148.223 56.216Z" fill="white" stroke="white"/>
<path d="M174.565 37.976H192.133C192.901 37.976 193.669 38.296 194.437 38.936L195.589 39.896C196.357 40.536 196.741 41.336 196.741 42.296V67.256C196.741 68.216 196.357 69.016 195.589 69.656L194.437 70.616C193.669 71.256 192.901 71.576 192.133 71.576H174.565C173.797 71.576 173.029 71.256 172.261 70.616L171.109 69.656C170.341 69.016 169.957 68.216 169.957 67.256V42.296C169.957 41.336 170.341 40.536 171.109 39.896L172.261 38.936C173.029 38.296 173.797 37.976 174.565 37.976ZM192.709 66.248V43.304C192.709 42.824 192.677 42.52 192.613 42.392C192.581 42.232 192.421 42.04 192.133 41.816C191.845 41.592 191.621 41.464 191.461 41.432C191.301 41.368 190.933 41.336 190.357 41.336H176.341C175.765 41.336 175.397 41.368 175.237 41.432C175.077 41.464 174.853 41.592 174.565 41.816C174.277 42.04 174.101 42.232 174.037 42.392C174.005 42.52 173.989 42.824 173.989 43.304V66.248C173.989 66.728 174.005 67.048 174.037 67.208C174.101 67.336 174.277 67.512 174.565 67.736C174.853 67.96 175.077 68.104 175.237 68.168C175.397 68.2 175.765 68.216 176.341 68.216H190.357C190.933 68.216 191.301 68.2 191.461 68.168C191.621 68.104 191.845 67.96 192.133 67.736C192.421 67.512 192.581 67.336 192.613 67.208C192.677 67.048 192.709 66.728 192.709 66.248Z" fill="white" stroke="white"/>
<path d="M255.859 68.6H256.05C256.05 68.408 256.146 67.992 256.339 67.352L265.459 37.976H269.73L258.595 71.576H253.315L242.179 37.976H246.451L255.571 67.352C255.763 67.992 255.859 68.408 255.859 68.6Z" fill="white" stroke="white"/>
<path d="M307.585 68.216V71.576H286.081V37.976H307.585V41.336H290.113V52.856H304.897V56.216H290.113V68.216H307.585Z" fill="white" stroke="white"/>
<path d="M232.828 68.216V71.576H212.092V37.976H216.124V68.216H232.828Z" fill="white" stroke="white"/>
</g>
<defs>
<linearGradient id="paint0_linear_6_2" x1="311.5" y1="-3.93837e-05" x2="311.5" y2="158" gradientUnits="userSpaceOnUse">
<stop stop-color="#C51C07"/>
<stop offset="1" stop-color="#B56210"/>
</linearGradient>
<linearGradient id="paint1_linear_6_2" x1="311.5" y1="1.48156e-05" x2="311.5" y2="158" gradientUnits="userSpaceOnUse">
<stop stop-color="#C51C07"/>
<stop offset="1" stop-color="#B56210"/>
</linearGradient>
<linearGradient id="paint2_linear_6_2" x1="311.5" y1="0" x2="311.5" y2="158" gradientUnits="userSpaceOnUse">
<stop stop-color="#C51C07"/>
<stop offset="1" stop-color="#B56210"/>
</linearGradient>
<linearGradient id="paint3_linear_6_2" x1="311.5" y1="-3.93837e-05" x2="311.5" y2="158" gradientUnits="userSpaceOnUse">
<stop stop-color="#C51C07"/>
<stop offset="1" stop-color="#B56210"/>
</linearGradient>
<linearGradient id="paint4_linear_6_2" x1="311.5" y1="-8.90139e-06" x2="311.5" y2="158" gradientUnits="userSpaceOnUse">
<stop stop-color="#C51C07"/>
<stop offset="1" stop-color="#B56210"/>
</linearGradient>
<linearGradient id="paint5_linear_6_2" x1="311.5" y1="-2.46465e-05" x2="311.5" y2="158" gradientUnits="userSpaceOnUse">
<stop stop-color="#C51C07"/>
<stop offset="1" stop-color="#B56210"/>
</linearGradient>
<clipPath id="clip0_6_2">
<rect width="623" height="158" fill="white"/>
</clipPath>
</defs>
</svg>
