<svg width="469" height="196" viewBox="0 0 469 196" fill="none" xmlns="http://www.w3.org/2000/svg">
<path d="M21.6639 63.928V97.5L17 102.873V133.5C17 134.442 19.8388 139.395 19.5 144.5L22.8033 150.979L34.1967 158.699L53 164L213.762 167L253.5 169.5L263.5 167H335V162.5H395L421.5 135.5V117L417 117.5L415.5 99H427.5L426.5 60L415 48C410.435 42.5947 403.5 33 403.5 33H391.811L380.451 39.1907H379.943L280.336 40.3686L271.486 33H172.598L164.146 36.2458H45.5492L21.6639 63.928Z" fill="black"/>
<path d="M14.5 61.5V66.5V71.5L15 108.286L15.5 145.071L28.496 158.036L41.493 171H68.821H96.148L101.915 176.5L107.681 182H145.93H184.179L190.34 176.504L196.5 171.009L265.781 171.004C328.381 171 335.122 170.846 335.677 169.399C336.015 168.519 335.663 167.4 334.896 166.914C334.117 166.421 296.292 166.024 249.28 166.015L165.06 166L162.842 163L160.624 160H105.01H49.397L44.63 155.367C39.886 150.756 39.838 150.737 34.341 151.304C28.959 151.86 28.707 151.771 24.409 147.81L20 143.745V121.839V99.933L23.5 97.867L27 95.802V81.475V67.147L38.75 55.587L50.5 44.027L108.832 44.013L167.163 44L171.435 40.5L175.706 37H224.263H272.82L277.307 42.208L281.794 47.416L297.647 47.736C306.366 47.911 328.423 47.747 346.661 47.37L379.823 46.686L385.161 41.847C390.185 37.294 390.826 37.008 396.016 37.004L401.531 37L413.266 48.765L425 60.53V79.765C425 98.333 425.069 99 427 99C428.936 99 429 98.333 429 78.201V57.401L416.164 44.701L403.328 32H389.713H376.097L371.42 24.75C368.848 20.762 366.238 17.169 365.621 16.765C365.005 16.361 339.964 16.024 309.977 16.015L255.453 16L247.5 24L239.547 32L140.523 32.005L41.5 32.009L28.5 44.94C16.537 56.84 14 57.348 14.5 61.5Z" fill="url(#paint0_linear_57_20)"/>
<path d="M31.7828 173.75L35.4998 177.5L63.4998 178.031L91.4998 178.561L63.6918 178.781L35.8838 179L31.1918 174.523C28.6108 172.061 26.8518 170.036 27.2828 170.023C27.7138 170.01 29.7388 171.688 31.7828 173.75Z" fill="url(#paint1_linear_57_20)"/>
<path d="M9.371 150.946C12.06 154.1 12.241 155.426 9.661 153.076L7 150.651L7.227 131.076L7.453 111.5L7.749 130.446C7.967 144.371 8.397 149.805 9.371 150.946Z" fill="url(#paint2_linear_57_20)"/>
<path d="M228.607 41.7502L193.713 42.0262L189.854 45.5132L185.994 49.0002H123.579C89.2499 49.0002 60.3779 49.3012 59.4179 49.6702C58.2269 50.1272 57.9019 49.9682 58.3949 49.1702C58.9349 48.2972 75.1549 47.9962 122.309 47.9852L185.5 47.9702L189.5 44.5232L193.5 41.0752L228.5 41.2742L263.5 41.4732L228.607 41.7502Z" fill="url(#paint3_linear_57_20)"/>
<path d="M416.763 95.9038L417.026 131.308L403.811 144.654L390.595 158H302.798C216.545 158 215 157.966 215 156.058C215 154.212 215.971 154.101 234.802 153.808L254.603 153.5L258.982 149.75L263.36 146H301.44H339.52L342.01 148.286C348.279 154.042 348.085 154 368.22 154H386.994L391.241 150.25C393.577 148.188 399.188 142.675 403.709 138L411.93 129.5L411.965 94.6798L412 59.8608L414.25 60.1798L416.5 60.4998L416.763 95.9038Z" fill="url(#paint4_linear_57_20)"/>
<path d="M408.304 149.197L394.527 163L363.513 162.765L332.5 162.53L363.533 162.251L394.566 161.972L407.783 148.681L421 135.39L421.208 125.945L421.415 116.5L421.748 125.947L422.08 135.394L408.304 149.197Z" fill="url(#paint5_linear_57_20)"/>
<path d="M404.788 100.981L404.577 122.5L404.038 100.953L403.5 79.407L390.75 66.879C383.738 59.989 378 53.96 378 53.482C378 53.003 384.075 58.653 391.5 66.037L405 79.462L404.788 100.981Z" fill="url(#paint6_linear_57_20)"/>
<path d="M19.796 161.805C24.36 167.334 23.512 167.136 17.958 161.377C15.506 158.835 14.137 156.947 14.916 157.183C15.695 157.418 17.891 159.498 19.796 161.805Z" fill="url(#paint7_linear_57_20)"/>
<path d="M244.33 142.75L154.16 143.011L148.458 149.505L142.756 156H98.513C55.267 156 54.21 155.953 51.635 153.927C50.186 152.788 49 151.353 49 150.74C49 150.127 50.262 150.835 51.805 152.313L54.609 155H98.084H141.558L148 148.5L154.442 142L244.471 142.245L334.5 142.489L244.33 142.75Z" fill="url(#paint8_linear_57_20)"/>
<path d="M44.843 146C46.569 147.65 47.62 149 47.178 149C46.736 149 45.081 147.65 43.5 146C41.919 144.35 40.868 143 41.165 143C41.461 143 43.116 144.35 44.843 146Z" fill="url(#paint9_linear_57_20)"/>
<path d="M31.7421 98.7502C31.5491 102.463 31.3921 99.4252 31.3921 92.0002C31.3921 84.5752 31.5491 81.5372 31.7421 85.2502C31.9341 88.9632 31.9341 95.0372 31.7421 98.7502Z" fill="url(#paint10_linear_57_20)"/>
<path d="M245 16.721C245 17.118 242.427 20.043 239.281 23.221L233.563 29H224.281C218.369 29 215 28.612 215 27.933C215 27.345 217.36 24.42 220.244 21.433L225.488 16H235.244C240.61 16 245 16.324 245 16.721Z" fill="url(#paint11_linear_57_20)"/>
<path d="M215 16.721C215 17.118 212.427 20.043 209.281 23.221L203.563 29H194.281C189.177 29 185.006 28.663 185.013 28.25C185.021 27.837 187.505 24.913 190.533 21.75L196.04 16H205.52C210.734 16 215 16.324 215 16.721Z" fill="url(#paint12_linear_57_20)"/>
<path d="M101.607 82.5357H106.214V87.1429H101.607V82.5357ZM120.036 82.5357H124.643V87.1429H120.036V82.5357ZM120.036 87.1429H124.643V91.75H120.036V87.1429ZM124.643 82.5357H129.25V87.1429H124.643V82.5357ZM124.643 87.1429H129.25V91.75H124.643V87.1429ZM124.643 91.75H129.25V96.3571H124.643V91.75ZM124.643 96.3571H129.25V100.964H124.643V96.3571ZM124.643 100.964H129.25V105.571H124.643V100.964ZM124.643 105.571H129.25V110.179H124.643V105.571ZM124.643 110.179H129.25V114.786H124.643V110.179ZM124.643 114.786H129.25V119.393H124.643V114.786ZM120.036 114.786H124.643V119.393H120.036V114.786ZM120.036 110.179H124.643V114.786H120.036V110.179ZM120.036 105.571H124.643V110.179H120.036V105.571ZM120.036 100.964H124.643V105.571H120.036V100.964ZM120.036 96.3571H124.643V100.964H120.036V96.3571ZM120.036 91.75H124.643V96.3571H120.036V91.75ZM115.429 110.179H120.036V114.786H115.429V110.179ZM115.429 114.786H120.036V119.393H115.429V114.786ZM120.036 119.393H124.643V124H120.036V119.393ZM115.429 119.393H120.036V124H115.429V119.393ZM110.821 119.393H115.429V124H110.821V119.393ZM110.821 114.786H115.429V119.393H110.821V114.786ZM106.214 119.393H110.821V124H106.214V119.393ZM101.607 119.393H106.214V124H101.607V119.393ZM101.607 114.786H106.214V119.393H101.607V114.786ZM106.214 114.786H110.821V119.393H106.214V114.786ZM106.214 110.179H110.821V114.786H106.214V110.179ZM101.607 110.179H106.214V114.786H101.607V110.179ZM97 114.786H101.607V119.393H97V114.786ZM97 110.179H101.607V114.786H97V110.179ZM97 105.571H101.607V110.179H97V105.571ZM97 100.964H101.607V105.571H97V100.964ZM97 96.3571H101.607V100.964H97V96.3571ZM97 91.75H101.607V96.3571H97V91.75ZM97 87.1429H101.607V91.75H97V87.1429ZM101.607 87.1429H106.214V91.75H101.607V87.1429ZM97 82.5357H101.607V87.1429H97V82.5357ZM101.607 91.75H106.214V96.3571H101.607V91.75ZM101.607 96.3571H106.214V100.964H101.607V96.3571ZM101.607 100.964H106.214V105.571H101.607V100.964ZM101.607 105.571H106.214V110.179H101.607V105.571ZM97 77.9286H101.607V82.5357H97V77.9286ZM101.607 77.9286H106.214V82.5357H101.607V77.9286ZM120.036 77.9286H124.643V82.5357H120.036V77.9286ZM124.643 77.9286H129.25V82.5357H124.643V77.9286ZM147.691 100.964H152.298V105.571H147.691V100.964ZM147.691 96.3571H152.298V100.964H147.691V96.3571ZM152.298 96.3571H156.905V100.964H152.298V96.3571ZM152.298 100.964H156.905V105.571H152.298V100.964ZM152.298 105.571H156.905V110.179H152.298V105.571ZM147.691 105.571H152.298V110.179H147.691V105.571ZM147.691 87.1429H152.298V91.75H147.691V87.1429ZM147.691 91.75H152.298V96.3571H147.691V91.75ZM143.083 96.3571H147.691V100.964H143.083V96.3571ZM143.083 91.75H147.691V96.3571H143.083V91.75ZM143.083 87.1429H147.691V91.75H143.083V87.1429ZM133.869 77.9286H138.476V82.5357H133.869V77.9286ZM138.476 77.9286H143.083V82.5357H138.476V77.9286ZM143.083 77.9286H147.691V82.5357H143.083V77.9286ZM143.083 82.5357H147.691V87.1429H143.083V82.5357ZM138.476 82.5357H143.083V87.1429H138.476V82.5357ZM133.869 82.5357H138.476V87.1429H133.869V82.5357ZM133.869 87.1429H138.476V91.75H133.869V87.1429ZM138.476 87.1429H143.083V91.75H138.476V87.1429ZM138.476 91.75H143.083V96.3571H138.476V91.75ZM138.476 96.3571H143.083V100.964H138.476V96.3571ZM133.869 96.3571H138.476V100.964H133.869V96.3571ZM133.869 91.75H138.476V96.3571H133.869V91.75ZM133.869 100.964H138.476V105.571H133.869V100.964ZM138.476 100.964H143.083V105.571H138.476V100.964ZM138.476 105.571H143.083V110.179H138.476V105.571ZM138.476 110.179H143.083V114.786H138.476V110.179ZM138.476 114.786H143.083V119.393H138.476V114.786ZM138.476 119.393H143.083V124H138.476V119.393ZM133.869 119.393H138.476V124H133.869V119.393ZM133.869 114.786H138.476V119.393H133.869V114.786ZM133.869 110.179H138.476V114.786H133.869V110.179ZM133.869 105.571H138.476V110.179H133.869V105.571ZM152.298 110.179H156.905V114.786H152.298V110.179ZM152.298 114.786H156.905V119.393H152.298V114.786ZM156.905 110.179H161.512V114.786H156.905V110.179ZM156.905 105.571H161.512V110.179H156.905V105.571ZM156.905 114.786H161.512V119.393H156.905V114.786ZM156.905 119.393H161.512V124H156.905V119.393ZM161.512 119.393H166.119V124H161.512V119.393ZM166.119 119.393H170.726V124H166.119V119.393ZM166.119 114.786H170.726V119.393H166.119V114.786ZM166.119 110.179H170.726V114.786H166.119V110.179ZM161.512 110.179H166.119V114.786H161.512V110.179ZM161.512 114.786H166.119V119.393H161.512V114.786ZM161.512 105.571H166.119V110.179H161.512V105.571ZM166.119 100.964H170.726V105.571H166.119V100.964ZM166.119 96.3571H170.726V100.964H166.119V96.3571ZM166.119 105.571H170.726V110.179H166.119V105.571ZM161.512 100.964H166.119V105.571H161.512V100.964ZM161.512 96.3571H166.119V100.964H161.512V96.3571ZM161.512 91.75H166.119V96.3571H161.512V91.75ZM166.119 91.75H170.726V96.3571H166.119V91.75ZM166.119 87.1429H170.726V91.75H166.119V87.1429ZM161.512 77.9286H166.119V82.5357H161.512V77.9286ZM166.119 77.9286H170.726V82.5357H166.119V77.9286ZM166.119 82.5357H170.726V87.1429H166.119V82.5357ZM161.512 82.5357H166.119V87.1429H161.512V82.5357ZM161.512 87.1429H166.119V91.75H161.512V87.1429ZM175.357 96.3571H179.965V100.964H175.357V96.3571ZM179.965 96.3571H184.572V100.964H179.965V96.3571ZM184.572 96.3571H189.179V100.964H184.572V96.3571ZM189.179 96.3571H193.786V100.964H189.179V96.3571ZM193.786 96.3571H198.393V100.964H193.786V96.3571ZM198.393 96.3571H203V100.964H198.393V96.3571ZM198.393 100.964H203V105.571H198.393V100.964ZM193.786 100.964H198.393V105.571H193.786V100.964ZM189.179 100.964H193.786V105.571H189.179V100.964ZM184.572 100.964H189.179V105.571H184.572V100.964ZM179.965 100.964H184.572V105.571H179.965V100.964ZM175.357 100.964H179.965V105.571H175.357V100.964ZM235.25 87.1429H239.857V91.75H235.25V87.1429ZM230.643 87.1429H235.25V91.75H230.643V87.1429ZM230.643 82.5357H235.25V87.1429H230.643V82.5357ZM235.25 82.5357H239.857V87.1429H235.25V82.5357ZM230.643 77.9286H235.25V82.5357H230.643V77.9286ZM226.036 77.9286H230.643V82.5357H226.036V77.9286ZM226.036 82.5357H230.643V87.1429H226.036V82.5357ZM221.429 82.5357H226.036V87.1429H221.429V82.5357ZM216.822 82.5357H221.429V87.1429H216.822V82.5357ZM216.822 77.9286H221.429V82.5357H216.822V77.9286ZM212.215 77.9286H216.822V82.5357H212.215V77.9286ZM221.429 77.9286H226.036V82.5357H221.429V77.9286ZM212.215 82.5357H216.822V87.1429H212.215V82.5357ZM207.607 82.5357H212.215V87.1429H207.607V82.5357ZM207.607 87.1429H212.215V91.75H207.607V87.1429ZM212.215 87.1429H216.822V91.75H212.215V87.1429ZM212.215 91.75H216.822V96.3571H212.215V91.75ZM212.215 96.3571H216.822V100.964H212.215V96.3571ZM207.607 96.3571H212.215V100.964H207.607V96.3571ZM207.607 91.75H212.215V96.3571H207.607V91.75ZM212.215 100.964H216.822V105.571H212.215V100.964ZM216.822 100.964H221.429V105.571H216.822V100.964ZM216.822 96.3571H221.429V100.964H216.822V96.3571ZM221.429 96.3571H226.036V100.964H221.429V96.3571ZM226.036 96.3571H230.643V100.964H226.036V96.3571ZM230.643 96.3571H235.25V100.964H230.643V96.3571ZM230.643 100.964H235.25V105.571H230.643V100.964ZM226.036 100.964H230.643V105.571H226.036V100.964ZM221.429 100.964H226.036V105.571H221.429V100.964ZM235.25 100.964H239.857V105.571H235.25V100.964ZM235.25 105.571H239.857V110.179H235.25V105.571ZM230.643 105.571H235.25V110.179H230.643V105.571ZM226.036 114.786H230.643V119.393H226.036V114.786ZM230.643 114.786H235.25V119.393H230.643V114.786ZM230.643 110.179H235.25V114.786H230.643V110.179ZM235.25 110.179H239.857V114.786H235.25V110.179ZM235.25 114.786H239.857V119.393H235.25V114.786ZM230.643 119.393H235.25V124H230.643V119.393ZM226.036 119.393H230.643V124H226.036V119.393ZM221.429 119.393H226.036V124H221.429V119.393ZM216.822 119.393H221.429V124H216.822V119.393ZM212.215 119.393H216.822V124H212.215V119.393ZM212.215 114.786H216.822V119.393H212.215V114.786ZM216.822 114.786H221.429V119.393H216.822V114.786ZM221.429 114.786H226.036V119.393H221.429V114.786ZM207.607 114.786H212.215V119.393H207.607V114.786ZM207.607 110.179H212.215V114.786H207.607V110.179ZM212.215 110.179H216.822V114.786H212.215V110.179ZM244.477 77.9286H249.084V82.5357H244.477V77.9286ZM249.084 77.9286H253.691V82.5357H249.084V77.9286ZM253.691 77.9286H258.298V82.5357H253.691V77.9286ZM258.298 77.9286H262.905V82.5357H258.298V77.9286ZM262.905 77.9286H267.512V82.5357H262.905V77.9286ZM267.512 77.9286H272.119V82.5357H267.512V77.9286ZM267.512 82.5357H272.119V87.1429H267.512V82.5357ZM262.905 82.5357H267.512V87.1429H262.905V82.5357ZM258.298 82.5357H262.905V87.1429H258.298V82.5357ZM253.691 82.5357H258.298V87.1429H253.691V82.5357ZM249.084 82.5357H253.691V87.1429H249.084V82.5357ZM244.477 82.5357H249.084V87.1429H244.477V82.5357ZM253.691 87.1429H258.298V91.75H253.691V87.1429ZM253.691 91.75H258.298V96.3571H253.691V91.75ZM253.691 96.3571H258.298V100.964H253.691V96.3571ZM253.691 100.964H258.298V105.571H253.691V100.964ZM253.691 105.571H258.298V110.179H253.691V105.571ZM253.691 110.179H258.298V114.786H253.691V110.179ZM258.298 105.571H262.905V110.179H258.298V105.571ZM258.298 100.964H262.905V105.571H258.298V100.964ZM258.298 96.3571H262.905V100.964H258.298V96.3571ZM258.298 91.75H262.905V96.3571H258.298V91.75ZM258.298 87.1429H262.905V91.75H258.298V87.1429ZM258.298 110.179H262.905V114.786H258.298V110.179ZM258.298 114.786H262.905V119.393H258.298V114.786ZM258.298 119.393H262.905V124H258.298V119.393ZM253.691 119.393H258.298V124H253.691V119.393ZM253.691 114.786H258.298V119.393H253.691V114.786ZM285.941 77.9286H290.548V82.5357H285.941V77.9286ZM281.334 77.9286H285.941V82.5357H281.334V77.9286ZM281.334 82.5357H285.941V87.1429H281.334V82.5357ZM285.941 82.5357H290.548V87.1429H285.941V82.5357ZM290.548 82.5357H295.155V87.1429H290.548V82.5357ZM290.548 77.9286H295.155V82.5357H290.548V77.9286ZM295.155 77.9286H299.762V82.5357H295.155V77.9286ZM299.762 77.9286H304.369V82.5357H299.762V77.9286ZM299.762 82.5357H304.369V87.1429H299.762V82.5357ZM295.155 82.5357H299.762V87.1429H295.155V82.5357ZM295.155 87.1429H299.762V91.75H295.155V87.1429ZM299.762 87.1429H304.369V91.75H299.762V87.1429ZM304.369 82.5357H308.977V87.1429H304.369V82.5357ZM304.369 87.1429H308.977V91.75H304.369V87.1429ZM304.369 91.75H308.977V96.3571H304.369V91.75ZM304.369 96.3571H308.977V100.964H304.369V96.3571ZM304.369 100.964H308.977V105.571H304.369V100.964ZM304.369 105.571H308.977V110.179H304.369V105.571ZM304.369 110.179H308.977V114.786H304.369V110.179ZM304.369 114.786H308.977V119.393H304.369V114.786ZM299.762 114.786H304.369V119.393H299.762V114.786ZM299.762 110.179H304.369V114.786H299.762V110.179ZM299.762 105.571H304.369V110.179H299.762V105.571ZM299.762 100.964H304.369V105.571H299.762V100.964ZM299.762 96.3571H304.369V100.964H299.762V96.3571ZM299.762 91.75H304.369V96.3571H299.762V91.75ZM295.155 110.179H299.762V114.786H295.155V110.179ZM295.155 114.786H299.762V119.393H295.155V114.786ZM299.762 119.393H304.369V124H299.762V119.393ZM295.155 119.393H299.762V124H295.155V119.393ZM290.548 119.393H295.155V124H290.548V119.393ZM290.548 114.786H295.155V119.393H290.548V114.786ZM285.941 119.393H290.548V124H285.941V119.393ZM281.334 119.393H285.941V124H281.334V119.393ZM281.334 114.786H285.941V119.393H281.334V114.786ZM285.941 114.786H290.548V119.393H285.941V114.786ZM285.941 110.179H290.548V114.786H285.941V110.179ZM281.334 110.179H285.941V114.786H281.334V110.179ZM276.727 114.786H281.334V119.393H276.727V114.786ZM276.727 110.179H281.334V114.786H276.727V110.179ZM276.727 105.571H281.334V110.179H276.727V105.571ZM276.727 100.964H281.334V105.571H276.727V100.964ZM276.727 96.3571H281.334V100.964H276.727V96.3571ZM276.727 91.75H281.334V96.3571H276.727V91.75ZM276.727 87.1429H281.334V91.75H276.727V87.1429ZM281.334 87.1429H285.941V91.75H281.334V87.1429ZM276.727 82.5357H281.334V87.1429H276.727V82.5357ZM285.941 87.1429H290.548V91.75H285.941V87.1429ZM281.334 91.75H285.941V96.3571H281.334V91.75ZM281.334 96.3571H285.941V100.964H281.334V96.3571ZM281.334 100.964H285.941V105.571H281.334V100.964ZM281.334 105.571H285.941V110.179H281.334V105.571ZM313.596 77.9286H318.203V82.5357H313.596V77.9286ZM318.203 77.9286H322.81V82.5357H318.203V77.9286ZM322.81 77.9286H327.417V82.5357H322.81V77.9286ZM327.417 77.9286H332.024V82.5357H327.417V77.9286ZM332.024 77.9286H336.631V82.5357H332.024V77.9286ZM336.631 77.9286H341.239V82.5357H336.631V77.9286ZM336.631 82.5357H341.239V87.1429H336.631V82.5357ZM332.024 82.5357H336.631V87.1429H332.024V82.5357ZM327.417 82.5357H332.024V87.1429H327.417V82.5357ZM322.81 82.5357H327.417V87.1429H322.81V82.5357ZM318.203 82.5357H322.81V87.1429H318.203V82.5357ZM313.596 82.5357H318.203V87.1429H313.596V82.5357ZM341.239 82.5357H345.846V87.1429H341.239V82.5357ZM336.631 87.1429H341.239V91.75H336.631V87.1429ZM341.239 87.1429H345.846V91.75H341.239V87.1429ZM341.239 91.75H345.846V96.3571H341.239V91.75ZM341.239 96.3571H345.846V100.964H341.239V96.3571ZM336.631 96.3571H341.239V100.964H336.631V96.3571ZM336.631 91.75H341.239V96.3571H336.631V91.75ZM336.631 100.964H341.239V105.571H336.631V100.964ZM336.631 105.571H341.239V110.179H336.631V105.571ZM332.024 105.571H336.631V110.179H332.024V105.571ZM332.024 100.964H336.631V105.571H332.024V100.964ZM327.417 100.964H332.024V105.571H327.417V100.964ZM327.417 105.571H332.024V110.179H327.417V105.571ZM322.81 105.571H327.417V110.179H322.81V105.571ZM322.81 100.964H327.417V105.571H322.81V100.964ZM318.203 100.964H322.81V105.571H318.203V100.964ZM313.596 100.964H318.203V105.571H313.596V100.964ZM313.596 105.571H318.203V110.179H313.596V105.571ZM318.203 105.571H322.81V110.179H318.203V105.571ZM313.596 87.1429H318.203V91.75H313.596V87.1429ZM318.203 87.1429H322.81V91.75H318.203V87.1429ZM318.203 91.75H322.81V96.3571H318.203V91.75ZM318.203 96.3571H322.81V100.964H318.203V96.3571ZM313.596 91.75H318.203V96.3571H313.596V91.75ZM313.596 96.3571H318.203V100.964H313.596V96.3571ZM313.596 110.179H318.203V114.786H313.596V110.179ZM318.203 110.179H322.81V114.786H318.203V110.179ZM318.203 114.786H322.81V119.393H318.203V114.786ZM318.203 119.393H322.81V124H318.203V119.393ZM313.596 119.393H318.203V124H313.596V119.393ZM313.596 114.786H318.203V119.393H313.596V114.786ZM341.239 100.964H345.846V105.571H341.239V100.964Z" fill="white"/>
<defs>
<linearGradient id="paint0_linear_57_20" x1="234.5" y1="5.80607e-07" x2="234.5" y2="196" gradientUnits="userSpaceOnUse">
<stop stop-color="#E0C893"/>
<stop offset="0.26" stop-color="#CC891D"/>
<stop offset="0.6" stop-color="#CBA466"/>
<stop offset="0.946595" stop-color="#FFAB24"/>
</linearGradient>
<linearGradient id="paint1_linear_57_20" x1="234.5" y1="-6.71266e-05" x2="234.5" y2="196" gradientUnits="userSpaceOnUse">
<stop stop-color="#E0C893"/>
<stop offset="0.26" stop-color="#CC891D"/>
<stop offset="0.6" stop-color="#CBA466"/>
<stop offset="0.946595" stop-color="#FFAB24"/>
</linearGradient>
<linearGradient id="paint2_linear_57_20" x1="234.5" y1="-1.34804e-05" x2="234.5" y2="196" gradientUnits="userSpaceOnUse">
<stop stop-color="#E0C893"/>
<stop offset="0.26" stop-color="#CC891D"/>
<stop offset="0.6" stop-color="#CBA466"/>
<stop offset="0.946595" stop-color="#FFAB24"/>
</linearGradient>
<linearGradient id="paint3_linear_57_20" x1="234.5" y1="0.000208489" x2="234.5" y2="196" gradientUnits="userSpaceOnUse">
<stop stop-color="#E0C893"/>
<stop offset="0.26" stop-color="#CC891D"/>
<stop offset="0.6" stop-color="#CBA466"/>
<stop offset="0.946595" stop-color="#FFAB24"/>
</linearGradient>
<linearGradient id="paint4_linear_57_20" x1="234.5" y1="-0.000163116" x2="234.5" y2="196" gradientUnits="userSpaceOnUse">
<stop stop-color="#E0C893"/>
<stop offset="0.26" stop-color="#CC891D"/>
<stop offset="0.6" stop-color="#CBA466"/>
<stop offset="0.946595" stop-color="#FFAB24"/>
</linearGradient>
<linearGradient id="paint5_linear_57_20" x1="234.5" y1="1.25618e-07" x2="234.5" y2="196" gradientUnits="userSpaceOnUse">
<stop stop-color="#E0C893"/>
<stop offset="0.26" stop-color="#CC891D"/>
<stop offset="0.6" stop-color="#CBA466"/>
<stop offset="0.946595" stop-color="#FFAB24"/>
</linearGradient>
<linearGradient id="paint6_linear_57_20" x1="234.5" y1="-4.15309e-05" x2="234.5" y2="196" gradientUnits="userSpaceOnUse">
<stop stop-color="#E0C893"/>
<stop offset="0.26" stop-color="#CC891D"/>
<stop offset="0.6" stop-color="#CBA466"/>
<stop offset="0.946595" stop-color="#FFAB24"/>
</linearGradient>
<linearGradient id="paint7_linear_57_20" x1="234.5" y1="7.88745e-05" x2="234.5" y2="196" gradientUnits="userSpaceOnUse">
<stop stop-color="#E0C893"/>
<stop offset="0.26" stop-color="#CC891D"/>
<stop offset="0.6" stop-color="#CBA466"/>
<stop offset="0.946595" stop-color="#FFAB24"/>
</linearGradient>
<linearGradient id="paint8_linear_57_20" x1="234.5" y1="3.96371e-06" x2="234.5" y2="196" gradientUnits="userSpaceOnUse">
<stop stop-color="#E0C893"/>
<stop offset="0.26" stop-color="#CC891D"/>
<stop offset="0.6" stop-color="#CBA466"/>
<stop offset="0.946595" stop-color="#FFAB24"/>
</linearGradient>
<linearGradient id="paint9_linear_57_20" x1="234.5" y1="-4.86771e-07" x2="234.5" y2="196" gradientUnits="userSpaceOnUse">
<stop stop-color="#E0C893"/>
<stop offset="0.26" stop-color="#CC891D"/>
<stop offset="0.6" stop-color="#CBA466"/>
<stop offset="0.946595" stop-color="#FFAB24"/>
</linearGradient>
<linearGradient id="paint10_linear_57_20" x1="234.5" y1="0.000216655" x2="234.5" y2="196" gradientUnits="userSpaceOnUse">
<stop stop-color="#E0C893"/>
<stop offset="0.26" stop-color="#CC891D"/>
<stop offset="0.6" stop-color="#CBA466"/>
<stop offset="0.946595" stop-color="#FFAB24"/>
</linearGradient>
<linearGradient id="paint11_linear_57_20" x1="234.5" y1="-1.12332e-07" x2="234.5" y2="196" gradientUnits="userSpaceOnUse">
<stop stop-color="#E0C893"/>
<stop offset="0.26" stop-color="#CC891D"/>
<stop offset="0.6" stop-color="#CBA466"/>
<stop offset="0.946595" stop-color="#FFAB24"/>
</linearGradient>
<linearGradient id="paint12_linear_57_20" x1="234.5" y1="-1.12332e-07" x2="234.5" y2="196" gradientUnits="userSpaceOnUse">
<stop stop-color="#E0C893"/>
<stop offset="0.26" stop-color="#CC891D"/>
<stop offset="0.6" stop-color="#CBA466"/>
<stop offset="0.946595" stop-color="#FFAB24"/>
</linearGradient>
</defs>
</svg>
