<svg width="175" height="58" viewBox="0 0 175 58" fill="none" xmlns="http://www.w3.org/2000/svg">
<path d="M138.144 9.37843C137.56 9.37843 137.086 8.9212 137.086 8.35719C137.086 7.79317 137.56 7.33594 138.144 7.33594C138.729 7.33594 139.203 7.79317 139.203 8.35719C139.203 8.9212 138.729 9.37843 138.144 9.37843Z" fill="#FDE49F" stroke="black" stroke-width="1.35241"/>
<path d="M131.68 8.35719C131.68 8.92162 131.206 9.37843 130.621 9.37843C130.036 9.37843 129.562 8.92162 129.562 8.35719C129.562 7.79275 130.036 7.33594 130.621 7.33594C131.206 7.33594 131.68 7.79275 131.68 8.35719Z" fill="#FDE49F" stroke="black" stroke-width="1.35241"/>
<path d="M124.582 8.35719C124.582 8.92162 124.108 9.37843 123.523 9.37843C122.938 9.37843 122.464 8.92162 122.464 8.35719C122.464 7.79275 122.938 7.33594 123.523 7.33594C124.108 7.33594 124.582 7.79275 124.582 8.35719Z" fill="#FDE49F" stroke="black" stroke-width="1.35241"/>
<path d="M1.11969 56.9843L167.088 56.8814L167.073 36.0476L174.289 36.0332V1L8.29314 1L1.10977 8.14868L1.00314 23.9911L6.3045 23.9744L6.29706 27.1553L1.00563 27.1601L1.11969 56.989V56.9843ZM164.968 54.8389L3.22981 54.9393L3.13065 29.1954L8.40967 29.1906L8.42455 21.9175L3.13312 21.9343L3.21989 8.97619L9.18826 3.03771L172.171 3.03771V33.9883L164.956 34.0027L164.971 54.8341L164.968 54.8389Z" fill="#FDE49F"/>
<path d="M164.968 54.8389L3.22981 54.9393L3.13065 29.1954L8.40967 29.1906L8.42455 21.9175L3.13312 21.9343L3.21989 8.97619L9.18826 3.03771L172.171 3.03771V33.9883L164.956 34.0027L164.971 54.8341L164.968 54.8389Z" fill="#FDE49F"/>
<path d="M1.11969 56.9843L167.088 56.8814L167.073 36.0476L174.289 36.0332V1L8.29314 1L1.10977 8.14868L1.00314 23.9911L6.3045 23.9744L6.29706 27.1553L1.00563 27.1601L1.11969 56.989V56.9843ZM164.968 54.8389L3.22981 54.9393L3.13065 29.1954L8.40967 29.1906L8.42455 21.9175L3.13312 21.9343L3.21989 8.97619L9.18826 3.03771L172.171 3.03771V33.9883L164.956 34.0027L164.971 54.8341L164.968 54.8389Z" stroke="black" stroke-width="1.35241"/>
<path d="M164.968 54.8389L3.22981 54.9393L3.13065 29.1954L8.40967 29.1906L8.42455 21.9175L3.13312 21.9343L3.21989 8.97619L9.18826 3.03771L172.171 3.03771V33.9883L164.956 34.0027L164.971 54.8341L164.968 54.8389Z" stroke="black" stroke-width="1.35241"/>
<path d="M35.5254 45.25L41.165 50.6878H42.3203V49.8883L37.5097 45.25H35.5254Z" fill="#FDE49F" stroke="black" stroke-width="1.02293"/>
<path d="M39.4733 45.25L42.3203 47.9942V46.0803L41.4595 45.25H39.4733Z" fill="#FDE49F" stroke="black" stroke-width="1.02293"/>
<path d="M31.5655 45.25L37.2032 50.6878H39.1875L33.5498 45.25H31.5655Z" fill="#FDE49F" stroke="black" stroke-width="1.02293"/>
<path d="M27.628 45.25L33.2657 50.6878H35.25L29.6123 45.25H27.628Z" fill="#FDE49F" stroke="black" stroke-width="1.02293"/>
<path d="M23.6671 45.25L29.3048 50.6878H31.2891L25.6495 45.25H23.6671Z" fill="#FDE49F" stroke="black" stroke-width="1.02293"/>
<path d="M19.6905 45.25L25.3282 50.6878H27.3125L21.6748 45.25H19.6905Z" fill="#FDE49F" stroke="black" stroke-width="1.02293"/>
<path d="M15.7277 45.25L21.3654 50.6878H23.3516L17.712 45.25H15.7277Z" fill="#FDE49F" stroke="black" stroke-width="1.02293"/>
<path d="M11.7921 45.25L17.4317 50.6878H19.4141L13.7764 45.25H11.7921Z" fill="#FDE49F" stroke="black" stroke-width="1.02293"/>
<path d="M8.69012 45.25V46.0785L13.4689 50.6878H15.4531L9.81541 45.25H8.69012Z" fill="#FDE49F" stroke="black" stroke-width="1.02293"/>
<path d="M8.69271 47.9688V49.8845L9.52354 50.6841H11.5078L8.69271 47.9688Z" fill="#FDE49F" stroke="black" stroke-width="1.02293"/>
<path d="M166.051 28.9909H167.109V7.84375L145.185 7.84375V8.865L166.051 8.865V28.9909Z" fill="#FDE49F" stroke="black" stroke-width="1.35241"/>
<path d="M8.6882 39.6875H12.2266V43.1004H8.6882V39.6875Z" fill="#FDE49F" stroke="black" stroke-width="1.35241"/>
<path d="M169.322 38.2656H174.301V56.9111H169.322V38.2656Z" fill="#FDE49F" stroke="black" stroke-width="1.35241"/>
<mask id="path-18-outside-1_435_2088" maskUnits="userSpaceOnUse" x="40" y="19" width="95" height="20" fill="black">
<rect fill="white" x="40" y="19" width="95" height="20"/>
<path d="M43.32 27.712H52.2V29.224H43.32V27.712ZM43.512 35.464H53.616V37H41.736V20.2H53.256V21.736H43.512V35.464ZM63.2929 37L57.7009 24.4H59.4769L64.6129 36.088H63.7729L68.9809 24.4H70.6609L65.0449 37H63.2929ZM80.9411 37.12C79.6291 37.12 78.4771 36.848 77.4851 36.304C76.4931 35.744 75.7171 34.984 75.1571 34.024C74.5971 33.048 74.3171 31.936 74.3171 30.688C74.3171 29.44 74.5811 28.336 75.1091 27.376C75.6531 26.416 76.3891 25.664 77.3171 25.12C78.2611 24.56 79.3171 24.28 80.4851 24.28C81.6691 24.28 82.7171 24.552 83.6291 25.096C84.5571 25.624 85.2851 26.376 85.8131 27.352C86.3411 28.312 86.6051 29.424 86.6051 30.688C86.6051 30.768 86.5971 30.856 86.5811 30.952C86.5811 31.032 86.5811 31.12 86.5811 31.216H75.6131V29.944H85.6691L84.9971 30.448C84.9971 29.536 84.7971 28.728 84.3971 28.024C84.0131 27.304 83.4851 26.744 82.8131 26.344C82.1411 25.944 81.3651 25.744 80.4851 25.744C79.6211 25.744 78.8451 25.944 78.1571 26.344C77.4691 26.744 76.9331 27.304 76.5491 28.024C76.1651 28.744 75.9731 29.568 75.9731 30.496V30.76C75.9731 31.72 76.1811 32.568 76.5971 33.304C77.0291 34.024 77.6211 34.592 78.3731 35.008C79.1411 35.408 80.0131 35.608 80.9891 35.608C81.7571 35.608 82.4691 35.472 83.1251 35.2C83.7971 34.928 84.3731 34.512 84.8531 33.952L85.8131 35.056C85.2531 35.728 84.5491 36.24 83.7011 36.592C82.8691 36.944 81.9491 37.12 80.9411 37.12ZM99.3855 24.28C100.409 24.28 101.306 24.48 102.074 24.88C102.857 25.264 103.465 25.856 103.897 26.656C104.345 27.456 104.569 28.464 104.569 29.68V37H102.865V29.848C102.865 28.52 102.53 27.52 101.858 26.848C101.201 26.16 100.273 25.816 99.0735 25.816C98.1775 25.816 97.3935 26 96.7215 26.368C96.0655 26.72 95.5535 27.24 95.1855 27.928C94.8335 28.6 94.6575 29.416 94.6575 30.376V37H92.9535V24.4H94.5855V27.856L94.3215 27.208C94.7215 26.296 95.3615 25.584 96.2415 25.072C97.1215 24.544 98.1695 24.28 99.3855 24.28ZM116.036 37.12C114.852 37.12 113.94 36.8 113.3 36.16C112.66 35.52 112.34 34.616 112.34 33.448V21.616H114.044V33.352C114.044 34.088 114.228 34.656 114.596 35.056C114.98 35.456 115.524 35.656 116.228 35.656C116.98 35.656 117.604 35.44 118.1 35.008L118.7 36.232C118.364 36.536 117.956 36.76 117.476 36.904C117.012 37.048 116.532 37.12 116.036 37.12ZM110.084 25.816V24.4H117.884V25.816H110.084ZM128.066 37.12C127.026 37.12 126.042 36.976 125.114 36.688C124.186 36.384 123.458 36.008 122.93 35.56L123.698 34.216C124.21 34.6 124.866 34.936 125.666 35.224C126.466 35.496 127.306 35.632 128.186 35.632C129.386 35.632 130.25 35.448 130.778 35.08C131.306 34.696 131.57 34.192 131.57 33.568C131.57 33.104 131.418 32.744 131.114 32.488C130.826 32.216 130.442 32.016 129.962 31.888C129.482 31.744 128.946 31.624 128.354 31.528C127.762 31.432 127.17 31.32 126.578 31.192C126.002 31.064 125.474 30.88 124.994 30.64C124.514 30.384 124.122 30.04 123.818 29.608C123.53 29.176 123.386 28.6 123.386 27.88C123.386 27.192 123.578 26.576 123.962 26.032C124.346 25.488 124.906 25.064 125.642 24.76C126.394 24.44 127.306 24.28 128.378 24.28C129.194 24.28 130.01 24.392 130.826 24.616C131.642 24.824 132.314 25.104 132.842 25.456L132.098 26.824C131.538 26.44 130.938 26.168 130.298 26.008C129.658 25.832 129.018 25.744 128.378 25.744C127.242 25.744 126.402 25.944 125.858 26.344C125.33 26.728 125.066 27.224 125.066 27.832C125.066 28.312 125.21 28.688 125.498 28.96C125.802 29.232 126.194 29.448 126.674 29.608C127.17 29.752 127.706 29.872 128.282 29.968C128.874 30.064 129.458 30.184 130.034 30.328C130.626 30.456 131.162 30.64 131.642 30.88C132.138 31.104 132.53 31.432 132.818 31.864C133.122 32.28 133.274 32.832 133.274 33.52C133.274 34.256 133.066 34.896 132.65 35.44C132.25 35.968 131.658 36.384 130.874 36.688C130.106 36.976 129.17 37.12 128.066 37.12Z"/>
</mask>
<path d="M43.32 27.712H52.2V29.224H43.32V27.712ZM43.512 35.464H53.616V37H41.736V20.2H53.256V21.736H43.512V35.464ZM63.2929 37L57.7009 24.4H59.4769L64.6129 36.088H63.7729L68.9809 24.4H70.6609L65.0449 37H63.2929ZM80.9411 37.12C79.6291 37.12 78.4771 36.848 77.4851 36.304C76.4931 35.744 75.7171 34.984 75.1571 34.024C74.5971 33.048 74.3171 31.936 74.3171 30.688C74.3171 29.44 74.5811 28.336 75.1091 27.376C75.6531 26.416 76.3891 25.664 77.3171 25.12C78.2611 24.56 79.3171 24.28 80.4851 24.28C81.6691 24.28 82.7171 24.552 83.6291 25.096C84.5571 25.624 85.2851 26.376 85.8131 27.352C86.3411 28.312 86.6051 29.424 86.6051 30.688C86.6051 30.768 86.5971 30.856 86.5811 30.952C86.5811 31.032 86.5811 31.12 86.5811 31.216H75.6131V29.944H85.6691L84.9971 30.448C84.9971 29.536 84.7971 28.728 84.3971 28.024C84.0131 27.304 83.4851 26.744 82.8131 26.344C82.1411 25.944 81.3651 25.744 80.4851 25.744C79.6211 25.744 78.8451 25.944 78.1571 26.344C77.4691 26.744 76.9331 27.304 76.5491 28.024C76.1651 28.744 75.9731 29.568 75.9731 30.496V30.76C75.9731 31.72 76.1811 32.568 76.5971 33.304C77.0291 34.024 77.6211 34.592 78.3731 35.008C79.1411 35.408 80.0131 35.608 80.9891 35.608C81.7571 35.608 82.4691 35.472 83.1251 35.2C83.7971 34.928 84.3731 34.512 84.8531 33.952L85.8131 35.056C85.2531 35.728 84.5491 36.24 83.7011 36.592C82.8691 36.944 81.9491 37.12 80.9411 37.12ZM99.3855 24.28C100.409 24.28 101.306 24.48 102.074 24.88C102.857 25.264 103.465 25.856 103.897 26.656C104.345 27.456 104.569 28.464 104.569 29.68V37H102.865V29.848C102.865 28.52 102.53 27.52 101.858 26.848C101.201 26.16 100.273 25.816 99.0735 25.816C98.1775 25.816 97.3935 26 96.7215 26.368C96.0655 26.72 95.5535 27.24 95.1855 27.928C94.8335 28.6 94.6575 29.416 94.6575 30.376V37H92.9535V24.4H94.5855V27.856L94.3215 27.208C94.7215 26.296 95.3615 25.584 96.2415 25.072C97.1215 24.544 98.1695 24.28 99.3855 24.28ZM116.036 37.12C114.852 37.12 113.94 36.8 113.3 36.16C112.66 35.52 112.34 34.616 112.34 33.448V21.616H114.044V33.352C114.044 34.088 114.228 34.656 114.596 35.056C114.98 35.456 115.524 35.656 116.228 35.656C116.98 35.656 117.604 35.44 118.1 35.008L118.7 36.232C118.364 36.536 117.956 36.76 117.476 36.904C117.012 37.048 116.532 37.12 116.036 37.12ZM110.084 25.816V24.4H117.884V25.816H110.084ZM128.066 37.12C127.026 37.12 126.042 36.976 125.114 36.688C124.186 36.384 123.458 36.008 122.93 35.56L123.698 34.216C124.21 34.6 124.866 34.936 125.666 35.224C126.466 35.496 127.306 35.632 128.186 35.632C129.386 35.632 130.25 35.448 130.778 35.08C131.306 34.696 131.57 34.192 131.57 33.568C131.57 33.104 131.418 32.744 131.114 32.488C130.826 32.216 130.442 32.016 129.962 31.888C129.482 31.744 128.946 31.624 128.354 31.528C127.762 31.432 127.17 31.32 126.578 31.192C126.002 31.064 125.474 30.88 124.994 30.64C124.514 30.384 124.122 30.04 123.818 29.608C123.53 29.176 123.386 28.6 123.386 27.88C123.386 27.192 123.578 26.576 123.962 26.032C124.346 25.488 124.906 25.064 125.642 24.76C126.394 24.44 127.306 24.28 128.378 24.28C129.194 24.28 130.01 24.392 130.826 24.616C131.642 24.824 132.314 25.104 132.842 25.456L132.098 26.824C131.538 26.44 130.938 26.168 130.298 26.008C129.658 25.832 129.018 25.744 128.378 25.744C127.242 25.744 126.402 25.944 125.858 26.344C125.33 26.728 125.066 27.224 125.066 27.832C125.066 28.312 125.21 28.688 125.498 28.96C125.802 29.232 126.194 29.448 126.674 29.608C127.17 29.752 127.706 29.872 128.282 29.968C128.874 30.064 129.458 30.184 130.034 30.328C130.626 30.456 131.162 30.64 131.642 30.88C132.138 31.104 132.53 31.432 132.818 31.864C133.122 32.28 133.274 32.832 133.274 33.52C133.274 34.256 133.066 34.896 132.65 35.44C132.25 35.968 131.658 36.384 130.874 36.688C130.106 36.976 129.17 37.12 128.066 37.12Z" fill="black"/>
<path d="M43.32 27.712V26.712H42.32V27.712H43.32ZM52.2 27.712H53.2V26.712H52.2V27.712ZM52.2 29.224V30.224H53.2V29.224H52.2ZM43.32 29.224H42.32V30.224H43.32V29.224ZM43.512 35.464H42.512V36.464H43.512V35.464ZM53.616 35.464H54.616V34.464H53.616V35.464ZM53.616 37V38H54.616V37H53.616ZM41.736 37H40.736V38H41.736V37ZM41.736 20.2V19.2H40.736V20.2H41.736ZM53.256 20.2H54.256V19.2H53.256V20.2ZM53.256 21.736V22.736H54.256V21.736H53.256ZM43.512 21.736V20.736H42.512V21.736H43.512ZM43.32 28.712H52.2V26.712H43.32V28.712ZM51.2 27.712V29.224H53.2V27.712H51.2ZM52.2 28.224H43.32V30.224H52.2V28.224ZM44.32 29.224V27.712H42.32V29.224H44.32ZM43.512 36.464H53.616V34.464H43.512V36.464ZM52.616 35.464V37H54.616V35.464H52.616ZM53.616 36H41.736V38H53.616V36ZM42.736 37V20.2H40.736V37H42.736ZM41.736 21.2H53.256V19.2H41.736V21.2ZM52.256 20.2V21.736H54.256V20.2H52.256ZM53.256 20.736H43.512V22.736H53.256V20.736ZM42.512 21.736V35.464H44.512V21.736H42.512ZM63.2929 37L62.3788 37.4057L62.6426 38H63.2929V37ZM57.7009 24.4V23.4H56.163L56.7868 24.8057L57.7009 24.4ZM59.4769 24.4L60.3924 23.9977L60.1297 23.4H59.4769V24.4ZM64.6129 36.088V37.088H66.1446L65.5284 35.6857L64.6129 36.088ZM63.7729 36.088L62.8595 35.681L62.2325 37.088H63.7729V36.088ZM68.9809 24.4V23.4H68.3317L68.0675 23.993L68.9809 24.4ZM70.6609 24.4L71.5743 24.8071L72.2014 23.4H70.6609V24.4ZM65.0449 37V38H65.694L65.9583 37.4071L65.0449 37ZM64.2069 36.5943L58.6149 23.9943L56.7868 24.8057L62.3788 37.4057L64.2069 36.5943ZM57.7009 25.4H59.4769V23.4H57.7009V25.4ZM58.5614 24.8023L63.6974 36.4903L65.5284 35.6857L60.3924 23.9977L58.5614 24.8023ZM64.6129 35.088H63.7729V37.088H64.6129V35.088ZM64.6863 36.495L69.8943 24.807L68.0675 23.993L62.8595 35.681L64.6863 36.495ZM68.9809 25.4H70.6609V23.4H68.9809V25.4ZM69.7475 23.9929L64.1315 36.5929L65.9583 37.4071L71.5743 24.8071L69.7475 23.9929ZM65.0449 36H63.2929V38H65.0449V36ZM77.4851 36.304L76.9935 37.1749L77.0043 37.1808L77.4851 36.304ZM75.1571 34.024L74.2897 34.5217L74.2933 34.5279L75.1571 34.024ZM75.1091 27.376L74.239 26.8829L74.2329 26.8941L75.1091 27.376ZM77.3171 25.12L77.8229 25.9827L77.8273 25.9801L77.3171 25.12ZM83.6291 25.096L83.1168 25.9548L83.1257 25.9601L83.1346 25.9652L83.6291 25.096ZM85.8131 27.352L84.9336 27.8278L84.9369 27.8339L85.8131 27.352ZM86.5811 30.952L85.5947 30.7876L85.5811 30.8692V30.952H86.5811ZM86.5811 31.216V32.216H87.5811V31.216H86.5811ZM75.6131 31.216H74.6131V32.216H75.6131V31.216ZM75.6131 29.944V28.944H74.6131V29.944H75.6131ZM85.6691 29.944L86.2691 30.744L88.6691 28.944H85.6691V29.944ZM84.9971 30.448H83.9971V32.448L85.5971 31.248L84.9971 30.448ZM84.3971 28.024L83.5148 28.4946L83.5211 28.5064L83.5277 28.518L84.3971 28.024ZM82.8131 26.344L83.3246 25.4847L82.8131 26.344ZM78.1571 26.344L77.6545 25.4795L78.1571 26.344ZM76.5491 28.024L77.4315 28.4946L76.5491 28.024ZM76.5971 33.304L75.7266 33.7961L75.733 33.8074L75.7396 33.8185L76.5971 33.304ZM78.3731 35.008L77.8891 35.883L77.9001 35.8891L77.9112 35.8949L78.3731 35.008ZM83.1251 35.2L82.7499 34.273L82.7421 34.2763L83.1251 35.2ZM84.8531 33.952L85.6077 33.2958L84.8477 32.4218L84.0939 33.3012L84.8531 33.952ZM85.8131 35.056L86.5813 35.6962L87.1263 35.0422L86.5677 34.3998L85.8131 35.056ZM83.7011 36.592L83.3177 35.6684L83.3115 35.671L83.7011 36.592ZM80.9411 36.12C79.7702 36.12 78.7886 35.8783 77.966 35.4272L77.0043 37.1808C78.1657 37.8177 79.4881 38.12 80.9411 38.12V36.12ZM77.9767 35.4332C77.1351 34.9581 76.4893 34.323 76.0209 33.5201L74.2933 34.5279C74.945 35.645 75.8512 36.5299 76.9935 37.1748L77.9767 35.4332ZM76.0245 33.5263C75.5606 32.7179 75.3171 31.7809 75.3171 30.688H73.3171C73.3171 32.0911 73.6336 33.3781 74.2898 34.5217L76.0245 33.5263ZM75.3171 30.688C75.3171 29.5848 75.5493 28.6508 75.9853 27.8579L74.2329 26.8941C73.613 28.0212 73.3171 29.2952 73.3171 30.688H75.3171ZM75.9791 27.869C76.4387 27.058 77.0507 26.4353 77.8228 25.9827L76.8114 24.2573C75.7275 24.8927 74.8675 25.774 74.2391 26.883L75.9791 27.869ZM77.8273 25.9801C78.6069 25.5176 79.4847 25.28 80.4851 25.28V23.28C79.1495 23.28 77.9153 23.6024 76.8069 24.2599L77.8273 25.9801ZM80.4851 25.28C81.51 25.28 82.3771 25.5135 83.1168 25.9548L84.1414 24.2372C83.0572 23.5905 81.8282 23.28 80.4851 23.28V25.28ZM83.1346 25.9652C83.8934 26.3969 84.4909 27.0096 84.9336 27.8278L86.6927 26.8762C86.0793 25.7424 85.2208 24.8511 84.1237 24.2268L83.1346 25.9652ZM84.9369 27.8339C85.372 28.625 85.6051 29.5664 85.6051 30.688H87.6051C87.6051 29.2816 87.3103 27.999 86.6893 26.8701L84.9369 27.8339ZM85.6051 30.688C85.6051 30.7026 85.6035 30.7347 85.5947 30.7876L87.5675 31.1164C87.5907 30.9773 87.6051 30.8334 87.6051 30.688H85.6051ZM85.5811 30.952C85.5811 30.9522 85.5811 30.9523 85.5811 30.9525C85.5811 30.9526 85.5811 30.9528 85.5811 30.9529C85.5811 30.9531 85.5811 30.9533 85.5811 30.9534C85.5811 30.9536 85.5811 30.9537 85.5811 30.9539C85.5811 30.954 85.5811 30.9542 85.5811 30.9543C85.5811 30.9545 85.5811 30.9547 85.5811 30.9548C85.5811 30.955 85.5811 30.9551 85.5811 30.9553C85.5811 30.9554 85.5811 30.9556 85.5811 30.9558C85.5811 30.9559 85.5811 30.9561 85.5811 30.9562C85.5811 30.9564 85.5811 30.9565 85.5811 30.9567C85.5811 30.9569 85.5811 30.957 85.5811 30.9572C85.5811 30.9573 85.5811 30.9575 85.5811 30.9576C85.5811 30.9578 85.5811 30.958 85.5811 30.9581C85.5811 30.9583 85.5811 30.9584 85.5811 30.9586C85.5811 30.9587 85.5811 30.9589 85.5811 30.9591C85.5811 30.9592 85.5811 30.9594 85.5811 30.9595C85.5811 30.9597 85.5811 30.9598 85.5811 30.96C85.5811 30.9602 85.5811 30.9603 85.5811 30.9605C85.5811 30.9606 85.5811 30.9608 85.5811 30.9609C85.5811 30.9611 85.5811 30.9613 85.5811 30.9614C85.5811 30.9616 85.5811 30.9617 85.5811 30.9619C85.5811 30.962 85.5811 30.9622 85.5811 30.9624C85.5811 30.9625 85.5811 30.9627 85.5811 30.9628C85.5811 30.963 85.5811 30.9631 85.5811 30.9633C85.5811 30.9635 85.5811 30.9636 85.5811 30.9638C85.5811 30.9639 85.5811 30.9641 85.5811 30.9642C85.5811 30.9644 85.5811 30.9646 85.5811 30.9647C85.5811 30.9649 85.5811 30.965 85.5811 30.9652C85.5811 30.9654 85.5811 30.9655 85.5811 30.9657C85.5811 30.9658 85.5811 30.966 85.5811 30.9661C85.5811 30.9663 85.5811 30.9665 85.5811 30.9666C85.5811 30.9668 85.5811 30.9669 85.5811 30.9671C85.5811 30.9673 85.5811 30.9674 85.5811 30.9676C85.5811 30.9677 85.5811 30.9679 85.5811 30.968C85.5811 30.9682 85.5811 30.9684 85.5811 30.9685C85.5811 30.9687 85.5811 30.9688 85.5811 30.969C85.5811 30.9692 85.5811 30.9693 85.5811 30.9695C85.5811 30.9696 85.5811 30.9698 85.5811 30.9699C85.5811 30.9701 85.5811 30.9703 85.5811 30.9704C85.5811 30.9706 85.5811 30.9707 85.5811 30.9709C85.5811 30.9711 85.5811 30.9712 85.5811 30.9714C85.5811 30.9715 85.5811 30.9717 85.5811 30.9718C85.5811 30.972 85.5811 30.9722 85.5811 30.9723C85.5811 30.9725 85.5811 30.9726 85.5811 30.9728C85.5811 30.973 85.5811 30.9731 85.5811 30.9733C85.5811 30.9734 85.5811 30.9736 85.5811 30.9738C85.5811 30.9739 85.5811 30.9741 85.5811 30.9742C85.5811 30.9744 85.5811 30.9746 85.5811 30.9747C85.5811 30.9749 85.5811 30.975 85.5811 30.9752C85.5811 30.9753 85.5811 30.9755 85.5811 30.9757C85.5811 30.9758 85.5811 30.976 85.5811 30.9761C85.5811 30.9763 85.5811 30.9765 85.5811 30.9766C85.5811 30.9768 85.5811 30.9769 85.5811 30.9771C85.5811 30.9773 85.5811 30.9774 85.5811 30.9776C85.5811 30.9777 85.5811 30.9779 85.5811 30.9781C85.5811 30.9782 85.5811 30.9784 85.5811 30.9785C85.5811 30.9787 85.5811 30.9789 85.5811 30.979C85.5811 30.9792 85.5811 30.9793 85.5811 30.9795C85.5811 30.9797 85.5811 30.9798 85.5811 30.98C85.5811 30.9801 85.5811 30.9803 85.5811 30.9805C85.5811 30.9806 85.5811 30.9808 85.5811 30.9809C85.5811 30.9811 85.5811 30.9813 85.5811 30.9814C85.5811 30.9816 85.5811 30.9817 85.5811 30.9819C85.5811 30.9821 85.5811 30.9822 85.5811 30.9824C85.5811 30.9825 85.5811 30.9827 85.5811 30.9829C85.5811 30.983 85.5811 30.9832 85.5811 30.9833C85.5811 30.9835 85.5811 30.9837 85.5811 30.9838C85.5811 30.984 85.5811 30.9841 85.5811 30.9843C85.5811 30.9845 85.5811 30.9846 85.5811 30.9848C85.5811 30.9849 85.5811 30.9851 85.5811 30.9853C85.5811 30.9854 85.5811 30.9856 85.5811 30.9857C85.5811 30.9859 85.5811 30.9861 85.5811 30.9862C85.5811 30.9864 85.5811 30.9865 85.5811 30.9867C85.5811 30.9869 85.5811 30.987 85.5811 30.9872C85.5811 30.9873 85.5811 30.9875 85.5811 30.9877C85.5811 30.9878 85.5811 30.988 85.5811 30.9882C85.5811 30.9883 85.5811 30.9885 85.5811 30.9886C85.5811 30.9888 85.5811 30.989 85.5811 30.9891C85.5811 30.9893 85.5811 30.9894 85.5811 30.9896C85.5811 30.9898 85.5811 30.9899 85.5811 30.9901C85.5811 30.9902 85.5811 30.9904 85.5811 30.9906C85.5811 30.9907 85.5811 30.9909 85.5811 30.9911C85.5811 30.9912 85.5811 30.9914 85.5811 30.9915C85.5811 30.9917 85.5811 30.9919 85.5811 30.992C85.5811 30.9922 85.5811 30.9923 85.5811 30.9925C85.5811 30.9927 85.5811 30.9928 85.5811 30.993C85.5811 30.9932 85.5811 30.9933 85.5811 30.9935C85.5811 30.9936 85.5811 30.9938 85.5811 30.994C85.5811 30.9941 85.5811 30.9943 85.5811 30.9944C85.5811 30.9946 85.5811 30.9948 85.5811 30.9949C85.5811 30.9951 85.5811 30.9953 85.5811 30.9954C85.5811 30.9956 85.5811 30.9957 85.5811 30.9959C85.5811 30.9961 85.5811 30.9962 85.5811 30.9964C85.5811 30.9965 85.5811 30.9967 85.5811 30.9969C85.5811 30.997 85.5811 30.9972 85.5811 30.9974C85.5811 30.9975 85.5811 30.9977 85.5811 30.9978C85.5811 30.998 85.5811 30.9982 85.5811 30.9983C85.5811 30.9985 85.5811 30.9987 85.5811 30.9988C85.5811 30.999 85.5811 30.9991 85.5811 30.9993C85.5811 30.9995 85.5811 30.9996 85.5811 30.9998C85.5811 31 85.5811 31.0001 85.5811 31.0003C85.5811 31.0004 85.5811 31.0006 85.5811 31.0008C85.5811 31.0009 85.5811 31.0011 85.5811 31.0013C85.5811 31.0014 85.5811 31.0016 85.5811 31.0017C85.5811 31.0019 85.5811 31.0021 85.5811 31.0022C85.5811 31.0024 85.5811 31.0026 85.5811 31.0027C85.5811 31.0029 85.5811 31.003 85.5811 31.0032C85.5811 31.0034 85.5811 31.0035 85.5811 31.0037C85.5811 31.0039 85.5811 31.004 85.5811 31.0042C85.5811 31.0043 85.5811 31.0045 85.5811 31.0047C85.5811 31.0048 85.5811 31.005 85.5811 31.0052C85.5811 31.0053 85.5811 31.0055 85.5811 31.0056C85.5811 31.0058 85.5811 31.006 85.5811 31.0061C85.5811 31.0063 85.5811 31.0065 85.5811 31.0066C85.5811 31.0068 85.5811 31.007 85.5811 31.0071C85.5811 31.0073 85.5811 31.0074 85.5811 31.0076C85.5811 31.0078 85.5811 31.0079 85.5811 31.0081C85.5811 31.0083 85.5811 31.0084 85.5811 31.0086C85.5811 31.0088 85.5811 31.0089 85.5811 31.0091C85.5811 31.0092 85.5811 31.0094 85.5811 31.0096C85.5811 31.0097 85.5811 31.0099 85.5811 31.0101C85.5811 31.0102 85.5811 31.0104 85.5811 31.0105C85.5811 31.0107 85.5811 31.0109 85.5811 31.011C85.5811 31.0112 85.5811 31.0114 85.5811 31.0115C85.5811 31.0117 85.5811 31.0119 85.5811 31.012C85.5811 31.0122 85.5811 31.0124 85.5811 31.0125C85.5811 31.0127 85.5811 31.0128 85.5811 31.013C85.5811 31.0132 85.5811 31.0133 85.5811 31.0135C85.5811 31.0137 85.5811 31.0138 85.5811 31.014C85.5811 31.0142 85.5811 31.0143 85.5811 31.0145C85.5811 31.0146 85.5811 31.0148 85.5811 31.015C85.5811 31.0151 85.5811 31.0153 85.5811 31.0155C85.5811 31.0156 85.5811 31.0158 85.5811 31.016C85.5811 31.0161 85.5811 31.0163 85.5811 31.0165C85.5811 31.0166 85.5811 31.0168 85.5811 31.0169C85.5811 31.0171 85.5811 31.0173 85.5811 31.0174C85.5811 31.0176 85.5811 31.0178 85.5811 31.0179C85.5811 31.0181 85.5811 31.0183 85.5811 31.0184C85.5811 31.0186 85.5811 31.0188 85.5811 31.0189C85.5811 31.0191 85.5811 31.0193 85.5811 31.0194C85.5811 31.0196 85.5811 31.0197 85.5811 31.0199C85.5811 31.0201 85.5811 31.0202 85.5811 31.0204C85.5811 31.0206 85.5811 31.0207 85.5811 31.0209C85.5811 31.0211 85.5811 31.0212 85.5811 31.0214C85.5811 31.0216 85.5811 31.0217 85.5811 31.0219C85.5811 31.0221 85.5811 31.0222 85.5811 31.0224C85.5811 31.0226 85.5811 31.0227 85.5811 31.0229C85.5811 31.0231 85.5811 31.0232 85.5811 31.0234C85.5811 31.0235 85.5811 31.0237 85.5811 31.0239C85.5811 31.024 85.5811 31.0242 85.5811 31.0244C85.5811 31.0245 85.5811 31.0247 85.5811 31.0249C85.5811 31.025 85.5811 31.0252 85.5811 31.0254C85.5811 31.0255 85.5811 31.0257 85.5811 31.0259C85.5811 31.026 85.5811 31.0262 85.5811 31.0264C85.5811 31.0265 85.5811 31.0267 85.5811 31.0269C85.5811 31.027 85.5811 31.0272 85.5811 31.0274C85.5811 31.0275 85.5811 31.0277 85.5811 31.0279C85.5811 31.028 85.5811 31.0282 85.5811 31.0283C85.5811 31.0285 85.5811 31.0287 85.5811 31.0288C85.5811 31.029 85.5811 31.0292 85.5811 31.0293C85.5811 31.0295 85.5811 31.0297 85.5811 31.0298C85.5811 31.03 85.5811 31.0302 85.5811 31.0303C85.5811 31.0305 85.5811 31.0307 85.5811 31.0308C85.5811 31.031 85.5811 31.0312 85.5811 31.0313C85.5811 31.0315 85.5811 31.0317 85.5811 31.0318C85.5811 31.032 85.5811 31.0322 85.5811 31.0323C85.5811 31.0325 85.5811 31.0327 85.5811 31.0328C85.5811 31.033 85.5811 31.0332 85.5811 31.0333C85.5811 31.0335 85.5811 31.0337 85.5811 31.0338C85.5811 31.034 85.5811 31.0342 85.5811 31.0343C85.5811 31.0345 85.5811 31.0347 85.5811 31.0348C85.5811 31.035 85.5811 31.0352 85.5811 31.0353C85.5811 31.0355 85.5811 31.0357 85.5811 31.0358C85.5811 31.036 85.5811 31.0362 85.5811 31.0363C85.5811 31.0365 85.5811 31.0367 85.5811 31.0368C85.5811 31.037 85.5811 31.0372 85.5811 31.0373C85.5811 31.0375 85.5811 31.0377 85.5811 31.0378C85.5811 31.038 85.5811 31.0382 85.5811 31.0383C85.5811 31.0385 85.5811 31.0387 85.5811 31.0388C85.5811 31.039 85.5811 31.0392 85.5811 31.0393C85.5811 31.0395 85.5811 31.0397 85.5811 31.0398C85.5811 31.04 85.5811 31.0402 85.5811 31.0403C85.5811 31.0405 85.5811 31.0407 85.5811 31.0408C85.5811 31.041 85.5811 31.0412 85.5811 31.0413C85.5811 31.0415 85.5811 31.0417 85.5811 31.0419C85.5811 31.042 85.5811 31.0422 85.5811 31.0424C85.5811 31.0425 85.5811 31.0427 85.5811 31.0429C85.5811 31.043 85.5811 31.0432 85.5811 31.0434C85.5811 31.0435 85.5811 31.0437 85.5811 31.0439C85.5811 31.044 85.5811 31.0442 85.5811 31.0444C85.5811 31.0445 85.5811 31.0447 85.5811 31.0449C85.5811 31.045 85.5811 31.0452 85.5811 31.0454C85.5811 31.0455 85.5811 31.0457 85.5811 31.0459C85.5811 31.046 85.5811 31.0462 85.5811 31.0464C85.5811 31.0466 85.5811 31.0467 85.5811 31.0469C85.5811 31.0471 85.5811 31.0472 85.5811 31.0474C85.5811 31.0476 85.5811 31.0477 85.5811 31.0479C85.5811 31.0481 85.5811 31.0482 85.5811 31.0484C85.5811 31.0486 85.5811 31.0487 85.5811 31.0489C85.5811 31.0491 85.5811 31.0492 85.5811 31.0494C85.5811 31.0496 85.5811 31.0497 85.5811 31.0499C85.5811 31.0501 85.5811 31.0503 85.5811 31.0504C85.5811 31.0506 85.5811 31.0508 85.5811 31.0509C85.5811 31.0511 85.5811 31.0513 85.5811 31.0514C85.5811 31.0516 85.5811 31.0518 85.5811 31.0519C85.5811 31.0521 85.5811 31.0523 85.5811 31.0524C85.5811 31.0526 85.5811 31.0528 85.5811 31.053C85.5811 31.0531 85.5811 31.0533 85.5811 31.0535C85.5811 31.0536 85.5811 31.0538 85.5811 31.054C85.5811 31.0541 85.5811 31.0543 85.5811 31.0545C85.5811 31.0546 85.5811 31.0548 85.5811 31.055C85.5811 31.0552 85.5811 31.0553 85.5811 31.0555C85.5811 31.0557 85.5811 31.0558 85.5811 31.056C85.5811 31.0562 85.5811 31.0563 85.5811 31.0565C85.5811 31.0567 85.5811 31.0568 85.5811 31.057C85.5811 31.0572 85.5811 31.0574 85.5811 31.0575C85.5811 31.0577 85.5811 31.0579 85.5811 31.058C85.5811 31.0582 85.5811 31.0584 85.5811 31.0585C85.5811 31.0587 85.5811 31.0589 85.5811 31.059C85.5811 31.0592 85.5811 31.0594 85.5811 31.0596C85.5811 31.0597 85.5811 31.0599 85.5811 31.0601C85.5811 31.0602 85.5811 31.0604 85.5811 31.0606C85.5811 31.0607 85.5811 31.0609 85.5811 31.0611C85.5811 31.0613 85.5811 31.0614 85.5811 31.0616C85.5811 31.0618 85.5811 31.0619 85.5811 31.0621C85.5811 31.0623 85.5811 31.0624 85.5811 31.0626C85.5811 31.0628 85.5811 31.063 85.5811 31.0631C85.5811 31.0633 85.5811 31.0635 85.5811 31.0636C85.5811 31.0638 85.5811 31.064 85.5811 31.0641C85.5811 31.0643 85.5811 31.0645 85.5811 31.0647C85.5811 31.0648 85.5811 31.065 85.5811 31.0652C85.5811 31.0653 85.5811 31.0655 85.5811 31.0657C85.5811 31.0658 85.5811 31.066 85.5811 31.0662C85.5811 31.0664 85.5811 31.0665 85.5811 31.0667C85.5811 31.0669 85.5811 31.067 85.5811 31.0672C85.5811 31.0674 85.5811 31.0676 85.5811 31.0677C85.5811 31.0679 85.5811 31.0681 85.5811 31.0682C85.5811 31.0684 85.5811 31.0686 85.5811 31.0687C85.5811 31.0689 85.5811 31.0691 85.5811 31.0693C85.5811 31.0694 85.5811 31.0696 85.5811 31.0698C85.5811 31.0699 85.5811 31.0701 85.5811 31.0703C85.5811 31.0705 85.5811 31.0706 85.5811 31.0708C85.5811 31.071 85.5811 31.0711 85.5811 31.0713C85.5811 31.0715 85.5811 31.0717 85.5811 31.0718C85.5811 31.072 85.5811 31.0722 85.5811 31.0723C85.5811 31.0725 85.5811 31.0727 85.5811 31.0729C85.5811 31.073 85.5811 31.0732 85.5811 31.0734C85.5811 31.0735 85.5811 31.0737 85.5811 31.0739C85.5811 31.0741 85.5811 31.0742 85.5811 31.0744C85.5811 31.0746 85.5811 31.0747 85.5811 31.0749C85.5811 31.0751 85.5811 31.0753 85.5811 31.0754C85.5811 31.0756 85.5811 31.0758 85.5811 31.0759C85.5811 31.0761 85.5811 31.0763 85.5811 31.0765C85.5811 31.0766 85.5811 31.0768 85.5811 31.077C85.5811 31.0771 85.5811 31.0773 85.5811 31.0775C85.5811 31.0777 85.5811 31.0778 85.5811 31.078C85.5811 31.0782 85.5811 31.0783 85.5811 31.0785C85.5811 31.0787 85.5811 31.0789 85.5811 31.079C85.5811 31.0792 85.5811 31.0794 85.5811 31.0795C85.5811 31.0797 85.5811 31.0799 85.5811 31.0801C85.5811 31.0802 85.5811 31.0804 85.5811 31.0806C85.5811 31.0808 85.5811 31.0809 85.5811 31.0811C85.5811 31.0813 85.5811 31.0814 85.5811 31.0816C85.5811 31.0818 85.5811 31.082 85.5811 31.0821C85.5811 31.0823 85.5811 31.0825 85.5811 31.0826C85.5811 31.0828 85.5811 31.083 85.5811 31.0832C85.5811 31.0833 85.5811 31.0835 85.5811 31.0837C85.5811 31.0839 85.5811 31.084 85.5811 31.0842C85.5811 31.0844 85.5811 31.0845 85.5811 31.0847C85.5811 31.0849 85.5811 31.0851 85.5811 31.0852C85.5811 31.0854 85.5811 31.0856 85.5811 31.0858C85.5811 31.0859 85.5811 31.0861 85.5811 31.0863C85.5811 31.0864 85.5811 31.0866 85.5811 31.0868C85.5811 31.087 85.5811 31.0871 85.5811 31.0873C85.5811 31.0875 85.5811 31.0877 85.5811 31.0878C85.5811 31.088 85.5811 31.0882 85.5811 31.0883C85.5811 31.0885 85.5811 31.0887 85.5811 31.0889C85.5811 31.089 85.5811 31.0892 85.5811 31.0894C85.5811 31.0896 85.5811 31.0897 85.5811 31.0899C85.5811 31.0901 85.5811 31.0903 85.5811 31.0904C85.5811 31.0906 85.5811 31.0908 85.5811 31.0909C85.5811 31.0911 85.5811 31.0913 85.5811 31.0915C85.5811 31.0916 85.5811 31.0918 85.5811 31.092C85.5811 31.0922 85.5811 31.0923 85.5811 31.0925C85.5811 31.0927 85.5811 31.0929 85.5811 31.093C85.5811 31.0932 85.5811 31.0934 85.5811 31.0936C85.5811 31.0937 85.5811 31.0939 85.5811 31.0941C85.5811 31.0942 85.5811 31.0944 85.5811 31.0946C85.5811 31.0948 85.5811 31.0949 85.5811 31.0951C85.5811 31.0953 85.5811 31.0955 85.5811 31.0956C85.5811 31.0958 85.5811 31.096 85.5811 31.0962C85.5811 31.0963 85.5811 31.0965 85.5811 31.0967C85.5811 31.0969 85.5811 31.097 85.5811 31.0972C85.5811 31.0974 85.5811 31.0976 85.5811 31.0977C85.5811 31.0979 85.5811 31.0981 85.5811 31.0982C85.5811 31.0984 85.5811 31.0986 85.5811 31.0988C85.5811 31.0989 85.5811 31.0991 85.5811 31.0993C85.5811 31.0995 85.5811 31.0996 85.5811 31.0998C85.5811 31.1 85.5811 31.1002 85.5811 31.1003C85.5811 31.1005 85.5811 31.1007 85.5811 31.1009C85.5811 31.101 85.5811 31.1012 85.5811 31.1014C85.5811 31.1016 85.5811 31.1017 85.5811 31.1019C85.5811 31.1021 85.5811 31.1023 85.5811 31.1024C85.5811 31.1026 85.5811 31.1028 85.5811 31.103C85.5811 31.1031 85.5811 31.1033 85.5811 31.1035C85.5811 31.1037 85.5811 31.1038 85.5811 31.104C85.5811 31.1042 85.5811 31.1044 85.5811 31.1045C85.5811 31.1047 85.5811 31.1049 85.5811 31.1051C85.5811 31.1052 85.5811 31.1054 85.5811 31.1056C85.5811 31.1058 85.5811 31.1059 85.5811 31.1061C85.5811 31.1063 85.5811 31.1065 85.5811 31.1066C85.5811 31.1068 85.5811 31.107 85.5811 31.1072C85.5811 31.1073 85.5811 31.1075 85.5811 31.1077C85.5811 31.1079 85.5811 31.108 85.5811 31.1082C85.5811 31.1084 85.5811 31.1086 85.5811 31.1087C85.5811 31.1089 85.5811 31.1091 85.5811 31.1093C85.5811 31.1094 85.5811 31.1096 85.5811 31.1098C85.5811 31.11 85.5811 31.1101 85.5811 31.1103C85.5811 31.1105 85.5811 31.1107 85.5811 31.1108C85.5811 31.111 85.5811 31.1112 85.5811 31.1114C85.5811 31.1116 85.5811 31.1117 85.5811 31.1119C85.5811 31.1121 85.5811 31.1123 85.5811 31.1124C85.5811 31.1126 85.5811 31.1128 85.5811 31.113C85.5811 31.1131 85.5811 31.1133 85.5811 31.1135C85.5811 31.1137 85.5811 31.1138 85.5811 31.114C85.5811 31.1142 85.5811 31.1144 85.5811 31.1145C85.5811 31.1147 85.5811 31.1149 85.5811 31.1151C85.5811 31.1152 85.5811 31.1154 85.5811 31.1156C85.5811 31.1158 85.5811 31.116 85.5811 31.1161C85.5811 31.1163 85.5811 31.1165 85.5811 31.1167C85.5811 31.1168 85.5811 31.117 85.5811 31.1172C85.5811 31.1174 85.5811 31.1175 85.5811 31.1177C85.5811 31.1179 85.5811 31.1181 85.5811 31.1182C85.5811 31.1184 85.5811 31.1186 85.5811 31.1188C85.5811 31.119 85.5811 31.1191 85.5811 31.1193C85.5811 31.1195 85.5811 31.1197 85.5811 31.1198C85.5811 31.12 85.5811 31.1202 85.5811 31.1204C85.5811 31.1205 85.5811 31.1207 85.5811 31.1209C85.5811 31.1211 85.5811 31.1213 85.5811 31.1214C85.5811 31.1216 85.5811 31.1218 85.5811 31.122C85.5811 31.1221 85.5811 31.1223 85.5811 31.1225C85.5811 31.1227 85.5811 31.1228 85.5811 31.123C85.5811 31.1232 85.5811 31.1234 85.5811 31.1236C85.5811 31.1237 85.5811 31.1239 85.5811 31.1241C85.5811 31.1243 85.5811 31.1244 85.5811 31.1246C85.5811 31.1248 85.5811 31.125 85.5811 31.1251C85.5811 31.1253 85.5811 31.1255 85.5811 31.1257C85.5811 31.1259 85.5811 31.126 85.5811 31.1262C85.5811 31.1264 85.5811 31.1266 85.5811 31.1267C85.5811 31.1269 85.5811 31.1271 85.5811 31.1273C85.5811 31.1275 85.5811 31.1276 85.5811 31.1278C85.5811 31.128 85.5811 31.1282 85.5811 31.1283C85.5811 31.1285 85.5811 31.1287 85.5811 31.1289C85.5811 31.1291 85.5811 31.1292 85.5811 31.1294C85.5811 31.1296 85.5811 31.1298 85.5811 31.1299C85.5811 31.1301 85.5811 31.1303 85.5811 31.1305C85.5811 31.1307 85.5811 31.1308 85.5811 31.131C85.5811 31.1312 85.5811 31.1314 85.5811 31.1315C85.5811 31.1317 85.5811 31.1319 85.5811 31.1321C85.5811 31.1323 85.5811 31.1324 85.5811 31.1326C85.5811 31.1328 85.5811 31.133 85.5811 31.1332C85.5811 31.1333 85.5811 31.1335 85.5811 31.1337C85.5811 31.1339 85.5811 31.134 85.5811 31.1342C85.5811 31.1344 85.5811 31.1346 85.5811 31.1348C85.5811 31.1349 85.5811 31.1351 85.5811 31.1353C85.5811 31.1355 85.5811 31.1356 85.5811 31.1358C85.5811 31.136 85.5811 31.1362 85.5811 31.1364C85.5811 31.1365 85.5811 31.1367 85.5811 31.1369C85.5811 31.1371 85.5811 31.1373 85.5811 31.1374C85.5811 31.1376 85.5811 31.1378 85.5811 31.138C85.5811 31.1381 85.5811 31.1383 85.5811 31.1385C85.5811 31.1387 85.5811 31.1389 85.5811 31.139C85.5811 31.1392 85.5811 31.1394 85.5811 31.1396C85.5811 31.1398 85.5811 31.1399 85.5811 31.1401C85.5811 31.1403 85.5811 31.1405 85.5811 31.1407C85.5811 31.1408 85.5811 31.141 85.5811 31.1412C85.5811 31.1414 85.5811 31.1416 85.5811 31.1417C85.5811 31.1419 85.5811 31.1421 85.5811 31.1423C85.5811 31.1424 85.5811 31.1426 85.5811 31.1428C85.5811 31.143 85.5811 31.1432 85.5811 31.1433C85.5811 31.1435 85.5811 31.1437 85.5811 31.1439C85.5811 31.1441 85.5811 31.1442 85.5811 31.1444C85.5811 31.1446 85.5811 31.1448 85.5811 31.145C85.5811 31.1451 85.5811 31.1453 85.5811 31.1455C85.5811 31.1457 85.5811 31.1459 85.5811 31.146C85.5811 31.1462 85.5811 31.1464 85.5811 31.1466C85.5811 31.1468 85.5811 31.1469 85.5811 31.1471C85.5811 31.1473 85.5811 31.1475 85.5811 31.1477C85.5811 31.1478 85.5811 31.148 85.5811 31.1482C85.5811 31.1484 85.5811 31.1486 85.5811 31.1487C85.5811 31.1489 85.5811 31.1491 85.5811 31.1493C85.5811 31.1495 85.5811 31.1496 85.5811 31.1498C85.5811 31.15 85.5811 31.1502 85.5811 31.1504C85.5811 31.1505 85.5811 31.1507 85.5811 31.1509C85.5811 31.1511 85.5811 31.1513 85.5811 31.1514C85.5811 31.1516 85.5811 31.1518 85.5811 31.152C85.5811 31.1522 85.5811 31.1523 85.5811 31.1525C85.5811 31.1527 85.5811 31.1529 85.5811 31.1531C85.5811 31.1532 85.5811 31.1534 85.5811 31.1536C85.5811 31.1538 85.5811 31.154 85.5811 31.1541C85.5811 31.1543 85.5811 31.1545 85.5811 31.1547C85.5811 31.1549 85.5811 31.1551 85.5811 31.1552C85.5811 31.1554 85.5811 31.1556 85.5811 31.1558C85.5811 31.156 85.5811 31.1561 85.5811 31.1563C85.5811 31.1565 85.5811 31.1567 85.5811 31.1569C85.5811 31.157 85.5811 31.1572 85.5811 31.1574C85.5811 31.1576 85.5811 31.1578 85.5811 31.1579C85.5811 31.1581 85.5811 31.1583 85.5811 31.1585C85.5811 31.1587 85.5811 31.1589 85.5811 31.159C85.5811 31.1592 85.5811 31.1594 85.5811 31.1596C85.5811 31.1598 85.5811 31.1599 85.5811 31.1601C85.5811 31.1603 85.5811 31.1605 85.5811 31.1607C85.5811 31.1608 85.5811 31.161 85.5811 31.1612C85.5811 31.1614 85.5811 31.1616 85.5811 31.1618C85.5811 31.1619 85.5811 31.1621 85.5811 31.1623C85.5811 31.1625 85.5811 31.1627 85.5811 31.1628C85.5811 31.163 85.5811 31.1632 85.5811 31.1634C85.5811 31.1636 85.5811 31.1638 85.5811 31.1639C85.5811 31.1641 85.5811 31.1643 85.5811 31.1645C85.5811 31.1647 85.5811 31.1648 85.5811 31.165C85.5811 31.1652 85.5811 31.1654 85.5811 31.1656C85.5811 31.1658 85.5811 31.1659 85.5811 31.1661C85.5811 31.1663 85.5811 31.1665 85.5811 31.1667C85.5811 31.1668 85.5811 31.167 85.5811 31.1672C85.5811 31.1674 85.5811 31.1676 85.5811 31.1678C85.5811 31.1679 85.5811 31.1681 85.5811 31.1683C85.5811 31.1685 85.5811 31.1687 85.5811 31.1688C85.5811 31.169 85.5811 31.1692 85.5811 31.1694C85.5811 31.1696 85.5811 31.1698 85.5811 31.1699C85.5811 31.1701 85.5811 31.1703 85.5811 31.1705C85.5811 31.1707 85.5811 31.1709 85.5811 31.171C85.5811 31.1712 85.5811 31.1714 85.5811 31.1716C85.5811 31.1718 85.5811 31.172 85.5811 31.1721C85.5811 31.1723 85.5811 31.1725 85.5811 31.1727C85.5811 31.1729 85.5811 31.173 85.5811 31.1732C85.5811 31.1734 85.5811 31.1736 85.5811 31.1738C85.5811 31.174 85.5811 31.1741 85.5811 31.1743C85.5811 31.1745 85.5811 31.1747 85.5811 31.1749C85.5811 31.1751 85.5811 31.1752 85.5811 31.1754C85.5811 31.1756 85.5811 31.1758 85.5811 31.176C85.5811 31.1762 85.5811 31.1763 85.5811 31.1765C85.5811 31.1767 85.5811 31.1769 85.5811 31.1771C85.5811 31.1773 85.5811 31.1774 85.5811 31.1776C85.5811 31.1778 85.5811 31.178 85.5811 31.1782C85.5811 31.1784 85.5811 31.1785 85.5811 31.1787C85.5811 31.1789 85.5811 31.1791 85.5811 31.1793C85.5811 31.1795 85.5811 31.1796 85.5811 31.1798C85.5811 31.18 85.5811 31.1802 85.5811 31.1804C85.5811 31.1806 85.5811 31.1807 85.5811 31.1809C85.5811 31.1811 85.5811 31.1813 85.5811 31.1815C85.5811 31.1817 85.5811 31.1818 85.5811 31.182C85.5811 31.1822 85.5811 31.1824 85.5811 31.1826C85.5811 31.1828 85.5811 31.1829 85.5811 31.1831C85.5811 31.1833 85.5811 31.1835 85.5811 31.1837C85.5811 31.1839 85.5811 31.1841 85.5811 31.1842C85.5811 31.1844 85.5811 31.1846 85.5811 31.1848C85.5811 31.185 85.5811 31.1852 85.5811 31.1853C85.5811 31.1855 85.5811 31.1857 85.5811 31.1859C85.5811 31.1861 85.5811 31.1863 85.5811 31.1864C85.5811 31.1866 85.5811 31.1868 85.5811 31.187C85.5811 31.1872 85.5811 31.1874 85.5811 31.1875C85.5811 31.1877 85.5811 31.1879 85.5811 31.1881C85.5811 31.1883 85.5811 31.1885 85.5811 31.1887C85.5811 31.1888 85.5811 31.189 85.5811 31.1892C85.5811 31.1894 85.5811 31.1896 85.5811 31.1898C85.5811 31.1899 85.5811 31.1901 85.5811 31.1903C85.5811 31.1905 85.5811 31.1907 85.5811 31.1909C85.5811 31.1911 85.5811 31.1912 85.5811 31.1914C85.5811 31.1916 85.5811 31.1918 85.5811 31.192C85.5811 31.1922 85.5811 31.1924 85.5811 31.1925C85.5811 31.1927 85.5811 31.1929 85.5811 31.1931C85.5811 31.1933 85.5811 31.1935 85.5811 31.1936C85.5811 31.1938 85.5811 31.194 85.5811 31.1942C85.5811 31.1944 85.5811 31.1946 85.5811 31.1948C85.5811 31.1949 85.5811 31.1951 85.5811 31.1953C85.5811 31.1955 85.5811 31.1957 85.5811 31.1959C85.5811 31.1961 85.5811 31.1962 85.5811 31.1964C85.5811 31.1966 85.5811 31.1968 85.5811 31.197C85.5811 31.1972 85.5811 31.1974 85.5811 31.1975C85.5811 31.1977 85.5811 31.1979 85.5811 31.1981C85.5811 31.1983 85.5811 31.1985 85.5811 31.1987C85.5811 31.1988 85.5811 31.199 85.5811 31.1992C85.5811 31.1994 85.5811 31.1996 85.5811 31.1998C85.5811 31.1999 85.5811 31.2001 85.5811 31.2003C85.5811 31.2005 85.5811 31.2007 85.5811 31.2009C85.5811 31.2011 85.5811 31.2013 85.5811 31.2014C85.5811 31.2016 85.5811 31.2018 85.5811 31.202C85.5811 31.2022 85.5811 31.2024 85.5811 31.2026C85.5811 31.2027 85.5811 31.2029 85.5811 31.2031C85.5811 31.2033 85.5811 31.2035 85.5811 31.2037C85.5811 31.2039 85.5811 31.204 85.5811 31.2042C85.5811 31.2044 85.5811 31.2046 85.5811 31.2048C85.5811 31.205 85.5811 31.2052 85.5811 31.2053C85.5811 31.2055 85.5811 31.2057 85.5811 31.2059C85.5811 31.2061 85.5811 31.2063 85.5811 31.2065C85.5811 31.2066 85.5811 31.2068 85.5811 31.207C85.5811 31.2072 85.5811 31.2074 85.5811 31.2076C85.5811 31.2078 85.5811 31.208 85.5811 31.2081C85.5811 31.2083 85.5811 31.2085 85.5811 31.2087C85.5811 31.2089 85.5811 31.2091 85.5811 31.2093C85.5811 31.2094 85.5811 31.2096 85.5811 31.2098C85.5811 31.21 85.5811 31.2102 85.5811 31.2104C85.5811 31.2106 85.5811 31.2108 85.5811 31.2109C85.5811 31.2111 85.5811 31.2113 85.5811 31.2115C85.5811 31.2117 85.5811 31.2119 85.5811 31.2121C85.5811 31.2123 85.5811 31.2124 85.5811 31.2126C85.5811 31.2128 85.5811 31.213 85.5811 31.2132C85.5811 31.2134 85.5811 31.2136 85.5811 31.2138C85.5811 31.2139 85.5811 31.2141 85.5811 31.2143C85.5811 31.2145 85.5811 31.2147 85.5811 31.2149C85.5811 31.2151 85.5811 31.2153 85.5811 31.2154C85.5811 31.2156 85.5811 31.2158 85.5811 31.216H87.5811C87.5811 31.2158 87.5811 31.2156 87.5811 31.2154C87.5811 31.2153 87.5811 31.2151 87.5811 31.2149C87.5811 31.2147 87.5811 31.2145 87.5811 31.2143C87.5811 31.2141 87.5811 31.2139 87.5811 31.2138C87.5811 31.2136 87.5811 31.2134 87.5811 31.2132C87.5811 31.213 87.5811 31.2128 87.5811 31.2126C87.5811 31.2124 87.5811 31.2123 87.5811 31.2121C87.5811 31.2119 87.5811 31.2117 87.5811 31.2115C87.5811 31.2113 87.5811 31.2111 87.5811 31.2109C87.5811 31.2108 87.5811 31.2106 87.5811 31.2104C87.5811 31.2102 87.5811 31.21 87.5811 31.2098C87.5811 31.2096 87.5811 31.2094 87.5811 31.2093C87.5811 31.2091 87.5811 31.2089 87.5811 31.2087C87.5811 31.2085 87.5811 31.2083 87.5811 31.2081C87.5811 31.208 87.5811 31.2078 87.5811 31.2076C87.5811 31.2074 87.5811 31.2072 87.5811 31.207C87.5811 31.2068 87.5811 31.2066 87.5811 31.2065C87.5811 31.2063 87.5811 31.2061 87.5811 31.2059C87.5811 31.2057 87.5811 31.2055 87.5811 31.2053C87.5811 31.2052 87.5811 31.205 87.5811 31.2048C87.5811 31.2046 87.5811 31.2044 87.5811 31.2042C87.5811 31.204 87.5811 31.2039 87.5811 31.2037C87.5811 31.2035 87.5811 31.2033 87.5811 31.2031C87.5811 31.2029 87.5811 31.2027 87.5811 31.2026C87.5811 31.2024 87.5811 31.2022 87.5811 31.202C87.5811 31.2018 87.5811 31.2016 87.5811 31.2014C87.5811 31.2013 87.5811 31.2011 87.5811 31.2009C87.5811 31.2007 87.5811 31.2005 87.5811 31.2003C87.5811 31.2001 87.5811 31.1999 87.5811 31.1998C87.5811 31.1996 87.5811 31.1994 87.5811 31.1992C87.5811 31.199 87.5811 31.1988 87.5811 31.1987C87.5811 31.1985 87.5811 31.1983 87.5811 31.1981C87.5811 31.1979 87.5811 31.1977 87.5811 31.1975C87.5811 31.1974 87.5811 31.1972 87.5811 31.197C87.5811 31.1968 87.5811 31.1966 87.5811 31.1964C87.5811 31.1962 87.5811 31.1961 87.5811 31.1959C87.5811 31.1957 87.5811 31.1955 87.5811 31.1953C87.5811 31.1951 87.5811 31.1949 87.5811 31.1948C87.5811 31.1946 87.5811 31.1944 87.5811 31.1942C87.5811 31.194 87.5811 31.1938 87.5811 31.1936C87.5811 31.1935 87.5811 31.1933 87.5811 31.1931C87.5811 31.1929 87.5811 31.1927 87.5811 31.1925C87.5811 31.1924 87.5811 31.1922 87.5811 31.192C87.5811 31.1918 87.5811 31.1916 87.5811 31.1914C87.5811 31.1912 87.5811 31.1911 87.5811 31.1909C87.5811 31.1907 87.5811 31.1905 87.5811 31.1903C87.5811 31.1901 87.5811 31.1899 87.5811 31.1898C87.5811 31.1896 87.5811 31.1894 87.5811 31.1892C87.5811 31.189 87.5811 31.1888 87.5811 31.1887C87.5811 31.1885 87.5811 31.1883 87.5811 31.1881C87.5811 31.1879 87.5811 31.1877 87.5811 31.1875C87.5811 31.1874 87.5811 31.1872 87.5811 31.187C87.5811 31.1868 87.5811 31.1866 87.5811 31.1864C87.5811 31.1863 87.5811 31.1861 87.5811 31.1859C87.5811 31.1857 87.5811 31.1855 87.5811 31.1853C87.5811 31.1852 87.5811 31.185 87.5811 31.1848C87.5811 31.1846 87.5811 31.1844 87.5811 31.1842C87.5811 31.1841 87.5811 31.1839 87.5811 31.1837C87.5811 31.1835 87.5811 31.1833 87.5811 31.1831C87.5811 31.1829 87.5811 31.1828 87.5811 31.1826C87.5811 31.1824 87.5811 31.1822 87.5811 31.182C87.5811 31.1818 87.5811 31.1817 87.5811 31.1815C87.5811 31.1813 87.5811 31.1811 87.5811 31.1809C87.5811 31.1807 87.5811 31.1806 87.5811 31.1804C87.5811 31.1802 87.5811 31.18 87.5811 31.1798C87.5811 31.1796 87.5811 31.1795 87.5811 31.1793C87.5811 31.1791 87.5811 31.1789 87.5811 31.1787C87.5811 31.1785 87.5811 31.1784 87.5811 31.1782C87.5811 31.178 87.5811 31.1778 87.5811 31.1776C87.5811 31.1774 87.5811 31.1773 87.5811 31.1771C87.5811 31.1769 87.5811 31.1767 87.5811 31.1765C87.5811 31.1763 87.5811 31.1762 87.5811 31.176C87.5811 31.1758 87.5811 31.1756 87.5811 31.1754C87.5811 31.1752 87.5811 31.1751 87.5811 31.1749C87.5811 31.1747 87.5811 31.1745 87.5811 31.1743C87.5811 31.1741 87.5811 31.174 87.5811 31.1738C87.5811 31.1736 87.5811 31.1734 87.5811 31.1732C87.5811 31.173 87.5811 31.1729 87.5811 31.1727C87.5811 31.1725 87.5811 31.1723 87.5811 31.1721C87.5811 31.172 87.5811 31.1718 87.5811 31.1716C87.5811 31.1714 87.5811 31.1712 87.5811 31.171C87.5811 31.1709 87.5811 31.1707 87.5811 31.1705C87.5811 31.1703 87.5811 31.1701 87.5811 31.1699C87.5811 31.1698 87.5811 31.1696 87.5811 31.1694C87.5811 31.1692 87.5811 31.169 87.5811 31.1688C87.5811 31.1687 87.5811 31.1685 87.5811 31.1683C87.5811 31.1681 87.5811 31.1679 87.5811 31.1678C87.5811 31.1676 87.5811 31.1674 87.5811 31.1672C87.5811 31.167 87.5811 31.1668 87.5811 31.1667C87.5811 31.1665 87.5811 31.1663 87.5811 31.1661C87.5811 31.1659 87.5811 31.1658 87.5811 31.1656C87.5811 31.1654 87.5811 31.1652 87.5811 31.165C87.5811 31.1648 87.5811 31.1647 87.5811 31.1645C87.5811 31.1643 87.5811 31.1641 87.5811 31.1639C87.5811 31.1638 87.5811 31.1636 87.5811 31.1634C87.5811 31.1632 87.5811 31.163 87.5811 31.1628C87.5811 31.1627 87.5811 31.1625 87.5811 31.1623C87.5811 31.1621 87.5811 31.1619 87.5811 31.1618C87.5811 31.1616 87.5811 31.1614 87.5811 31.1612C87.5811 31.161 87.5811 31.1608 87.5811 31.1607C87.5811 31.1605 87.5811 31.1603 87.5811 31.1601C87.5811 31.1599 87.5811 31.1598 87.5811 31.1596C87.5811 31.1594 87.5811 31.1592 87.5811 31.159C87.5811 31.1589 87.5811 31.1587 87.5811 31.1585C87.5811 31.1583 87.5811 31.1581 87.5811 31.1579C87.5811 31.1578 87.5811 31.1576 87.5811 31.1574C87.5811 31.1572 87.5811 31.157 87.5811 31.1569C87.5811 31.1567 87.5811 31.1565 87.5811 31.1563C87.5811 31.1561 87.5811 31.156 87.5811 31.1558C87.5811 31.1556 87.5811 31.1554 87.5811 31.1552C87.5811 31.1551 87.5811 31.1549 87.5811 31.1547C87.5811 31.1545 87.5811 31.1543 87.5811 31.1541C87.5811 31.154 87.5811 31.1538 87.5811 31.1536C87.5811 31.1534 87.5811 31.1532 87.5811 31.1531C87.5811 31.1529 87.5811 31.1527 87.5811 31.1525C87.5811 31.1523 87.5811 31.1522 87.5811 31.152C87.5811 31.1518 87.5811 31.1516 87.5811 31.1514C87.5811 31.1513 87.5811 31.1511 87.5811 31.1509C87.5811 31.1507 87.5811 31.1505 87.5811 31.1504C87.5811 31.1502 87.5811 31.15 87.5811 31.1498C87.5811 31.1496 87.5811 31.1495 87.5811 31.1493C87.5811 31.1491 87.5811 31.1489 87.5811 31.1487C87.5811 31.1486 87.5811 31.1484 87.5811 31.1482C87.5811 31.148 87.5811 31.1478 87.5811 31.1477C87.5811 31.1475 87.5811 31.1473 87.5811 31.1471C87.5811 31.1469 87.5811 31.1468 87.5811 31.1466C87.5811 31.1464 87.5811 31.1462 87.5811 31.146C87.5811 31.1459 87.5811 31.1457 87.5811 31.1455C87.5811 31.1453 87.5811 31.1451 87.5811 31.145C87.5811 31.1448 87.5811 31.1446 87.5811 31.1444C87.5811 31.1442 87.5811 31.1441 87.5811 31.1439C87.5811 31.1437 87.5811 31.1435 87.5811 31.1433C87.5811 31.1432 87.5811 31.143 87.5811 31.1428C87.5811 31.1426 87.5811 31.1424 87.5811 31.1423C87.5811 31.1421 87.5811 31.1419 87.5811 31.1417C87.5811 31.1416 87.5811 31.1414 87.5811 31.1412C87.5811 31.141 87.5811 31.1408 87.5811 31.1407C87.5811 31.1405 87.5811 31.1403 87.5811 31.1401C87.5811 31.1399 87.5811 31.1398 87.5811 31.1396C87.5811 31.1394 87.5811 31.1392 87.5811 31.139C87.5811 31.1389 87.5811 31.1387 87.5811 31.1385C87.5811 31.1383 87.5811 31.1381 87.5811 31.138C87.5811 31.1378 87.5811 31.1376 87.5811 31.1374C87.5811 31.1373 87.5811 31.1371 87.5811 31.1369C87.5811 31.1367 87.5811 31.1365 87.5811 31.1364C87.5811 31.1362 87.5811 31.136 87.5811 31.1358C87.5811 31.1356 87.5811 31.1355 87.5811 31.1353C87.5811 31.1351 87.5811 31.1349 87.5811 31.1348C87.5811 31.1346 87.5811 31.1344 87.5811 31.1342C87.5811 31.134 87.5811 31.1339 87.5811 31.1337C87.5811 31.1335 87.5811 31.1333 87.5811 31.1332C87.5811 31.133 87.5811 31.1328 87.5811 31.1326C87.5811 31.1324 87.5811 31.1323 87.5811 31.1321C87.5811 31.1319 87.5811 31.1317 87.5811 31.1315C87.5811 31.1314 87.5811 31.1312 87.5811 31.131C87.5811 31.1308 87.5811 31.1307 87.5811 31.1305C87.5811 31.1303 87.5811 31.1301 87.5811 31.1299C87.5811 31.1298 87.5811 31.1296 87.5811 31.1294C87.5811 31.1292 87.5811 31.1291 87.5811 31.1289C87.5811 31.1287 87.5811 31.1285 87.5811 31.1283C87.5811 31.1282 87.5811 31.128 87.5811 31.1278C87.5811 31.1276 87.5811 31.1275 87.5811 31.1273C87.5811 31.1271 87.5811 31.1269 87.5811 31.1267C87.5811 31.1266 87.5811 31.1264 87.5811 31.1262C87.5811 31.126 87.5811 31.1259 87.5811 31.1257C87.5811 31.1255 87.5811 31.1253 87.5811 31.1251C87.5811 31.125 87.5811 31.1248 87.5811 31.1246C87.5811 31.1244 87.5811 31.1243 87.5811 31.1241C87.5811 31.1239 87.5811 31.1237 87.5811 31.1236C87.5811 31.1234 87.5811 31.1232 87.5811 31.123C87.5811 31.1228 87.5811 31.1227 87.5811 31.1225C87.5811 31.1223 87.5811 31.1221 87.5811 31.122C87.5811 31.1218 87.5811 31.1216 87.5811 31.1214C87.5811 31.1213 87.5811 31.1211 87.5811 31.1209C87.5811 31.1207 87.5811 31.1205 87.5811 31.1204C87.5811 31.1202 87.5811 31.12 87.5811 31.1198C87.5811 31.1197 87.5811 31.1195 87.5811 31.1193C87.5811 31.1191 87.5811 31.119 87.5811 31.1188C87.5811 31.1186 87.5811 31.1184 87.5811 31.1182C87.5811 31.1181 87.5811 31.1179 87.5811 31.1177C87.5811 31.1175 87.5811 31.1174 87.5811 31.1172C87.5811 31.117 87.5811 31.1168 87.5811 31.1167C87.5811 31.1165 87.5811 31.1163 87.5811 31.1161C87.5811 31.116 87.5811 31.1158 87.5811 31.1156C87.5811 31.1154 87.5811 31.1152 87.5811 31.1151C87.5811 31.1149 87.5811 31.1147 87.5811 31.1145C87.5811 31.1144 87.5811 31.1142 87.5811 31.114C87.5811 31.1138 87.5811 31.1137 87.5811 31.1135C87.5811 31.1133 87.5811 31.1131 87.5811 31.113C87.5811 31.1128 87.5811 31.1126 87.5811 31.1124C87.5811 31.1123 87.5811 31.1121 87.5811 31.1119C87.5811 31.1117 87.5811 31.1116 87.5811 31.1114C87.5811 31.1112 87.5811 31.111 87.5811 31.1108C87.5811 31.1107 87.5811 31.1105 87.5811 31.1103C87.5811 31.1101 87.5811 31.11 87.5811 31.1098C87.5811 31.1096 87.5811 31.1094 87.5811 31.1093C87.5811 31.1091 87.5811 31.1089 87.5811 31.1087C87.5811 31.1086 87.5811 31.1084 87.5811 31.1082C87.5811 31.108 87.5811 31.1079 87.5811 31.1077C87.5811 31.1075 87.5811 31.1073 87.5811 31.1072C87.5811 31.107 87.5811 31.1068 87.5811 31.1066C87.5811 31.1065 87.5811 31.1063 87.5811 31.1061C87.5811 31.1059 87.5811 31.1058 87.5811 31.1056C87.5811 31.1054 87.5811 31.1052 87.5811 31.1051C87.5811 31.1049 87.5811 31.1047 87.5811 31.1045C87.5811 31.1044 87.5811 31.1042 87.5811 31.104C87.5811 31.1038 87.5811 31.1037 87.5811 31.1035C87.5811 31.1033 87.5811 31.1031 87.5811 31.103C87.5811 31.1028 87.5811 31.1026 87.5811 31.1024C87.5811 31.1023 87.5811 31.1021 87.5811 31.1019C87.5811 31.1017 87.5811 31.1016 87.5811 31.1014C87.5811 31.1012 87.5811 31.101 87.5811 31.1009C87.5811 31.1007 87.5811 31.1005 87.5811 31.1003C87.5811 31.1002 87.5811 31.1 87.5811 31.0998C87.5811 31.0996 87.5811 31.0995 87.5811 31.0993C87.5811 31.0991 87.5811 31.0989 87.5811 31.0988C87.5811 31.0986 87.5811 31.0984 87.5811 31.0982C87.5811 31.0981 87.5811 31.0979 87.5811 31.0977C87.5811 31.0976 87.5811 31.0974 87.5811 31.0972C87.5811 31.097 87.5811 31.0969 87.5811 31.0967C87.5811 31.0965 87.5811 31.0963 87.5811 31.0962C87.5811 31.096 87.5811 31.0958 87.5811 31.0956C87.5811 31.0955 87.5811 31.0953 87.5811 31.0951C87.5811 31.0949 87.5811 31.0948 87.5811 31.0946C87.5811 31.0944 87.5811 31.0942 87.5811 31.0941C87.5811 31.0939 87.5811 31.0937 87.5811 31.0936C87.5811 31.0934 87.5811 31.0932 87.5811 31.093C87.5811 31.0929 87.5811 31.0927 87.5811 31.0925C87.5811 31.0923 87.5811 31.0922 87.5811 31.092C87.5811 31.0918 87.5811 31.0916 87.5811 31.0915C87.5811 31.0913 87.5811 31.0911 87.5811 31.0909C87.5811 31.0908 87.5811 31.0906 87.5811 31.0904C87.5811 31.0903 87.5811 31.0901 87.5811 31.0899C87.5811 31.0897 87.5811 31.0896 87.5811 31.0894C87.5811 31.0892 87.5811 31.089 87.5811 31.0889C87.5811 31.0887 87.5811 31.0885 87.5811 31.0883C87.5811 31.0882 87.5811 31.088 87.5811 31.0878C87.5811 31.0877 87.5811 31.0875 87.5811 31.0873C87.5811 31.0871 87.5811 31.087 87.5811 31.0868C87.5811 31.0866 87.5811 31.0864 87.5811 31.0863C87.5811 31.0861 87.5811 31.0859 87.5811 31.0858C87.5811 31.0856 87.5811 31.0854 87.5811 31.0852C87.5811 31.0851 87.5811 31.0849 87.5811 31.0847C87.5811 31.0845 87.5811 31.0844 87.5811 31.0842C87.5811 31.084 87.5811 31.0839 87.5811 31.0837C87.5811 31.0835 87.5811 31.0833 87.5811 31.0832C87.5811 31.083 87.5811 31.0828 87.5811 31.0826C87.5811 31.0825 87.5811 31.0823 87.5811 31.0821C87.5811 31.082 87.5811 31.0818 87.5811 31.0816C87.5811 31.0814 87.5811 31.0813 87.5811 31.0811C87.5811 31.0809 87.5811 31.0808 87.5811 31.0806C87.5811 31.0804 87.5811 31.0802 87.5811 31.0801C87.5811 31.0799 87.5811 31.0797 87.5811 31.0795C87.5811 31.0794 87.5811 31.0792 87.5811 31.079C87.5811 31.0789 87.5811 31.0787 87.5811 31.0785C87.5811 31.0783 87.5811 31.0782 87.5811 31.078C87.5811 31.0778 87.5811 31.0777 87.5811 31.0775C87.5811 31.0773 87.5811 31.0771 87.5811 31.077C87.5811 31.0768 87.5811 31.0766 87.5811 31.0765C87.5811 31.0763 87.5811 31.0761 87.5811 31.0759C87.5811 31.0758 87.5811 31.0756 87.5811 31.0754C87.5811 31.0753 87.5811 31.0751 87.5811 31.0749C87.5811 31.0747 87.5811 31.0746 87.5811 31.0744C87.5811 31.0742 87.5811 31.0741 87.5811 31.0739C87.5811 31.0737 87.5811 31.0735 87.5811 31.0734C87.5811 31.0732 87.5811 31.073 87.5811 31.0729C87.5811 31.0727 87.5811 31.0725 87.5811 31.0723C87.5811 31.0722 87.5811 31.072 87.5811 31.0718C87.5811 31.0717 87.5811 31.0715 87.5811 31.0713C87.5811 31.0711 87.5811 31.071 87.5811 31.0708C87.5811 31.0706 87.5811 31.0705 87.5811 31.0703C87.5811 31.0701 87.5811 31.0699 87.5811 31.0698C87.5811 31.0696 87.5811 31.0694 87.5811 31.0693C87.5811 31.0691 87.5811 31.0689 87.5811 31.0687C87.5811 31.0686 87.5811 31.0684 87.5811 31.0682C87.5811 31.0681 87.5811 31.0679 87.5811 31.0677C87.5811 31.0676 87.5811 31.0674 87.5811 31.0672C87.5811 31.067 87.5811 31.0669 87.5811 31.0667C87.5811 31.0665 87.5811 31.0664 87.5811 31.0662C87.5811 31.066 87.5811 31.0658 87.5811 31.0657C87.5811 31.0655 87.5811 31.0653 87.5811 31.0652C87.5811 31.065 87.5811 31.0648 87.5811 31.0647C87.5811 31.0645 87.5811 31.0643 87.5811 31.0641C87.5811 31.064 87.5811 31.0638 87.5811 31.0636C87.5811 31.0635 87.5811 31.0633 87.5811 31.0631C87.5811 31.063 87.5811 31.0628 87.5811 31.0626C87.5811 31.0624 87.5811 31.0623 87.5811 31.0621C87.5811 31.0619 87.5811 31.0618 87.5811 31.0616C87.5811 31.0614 87.5811 31.0613 87.5811 31.0611C87.5811 31.0609 87.5811 31.0607 87.5811 31.0606C87.5811 31.0604 87.5811 31.0602 87.5811 31.0601C87.5811 31.0599 87.5811 31.0597 87.5811 31.0596C87.5811 31.0594 87.5811 31.0592 87.5811 31.059C87.5811 31.0589 87.5811 31.0587 87.5811 31.0585C87.5811 31.0584 87.5811 31.0582 87.5811 31.058C87.5811 31.0579 87.5811 31.0577 87.5811 31.0575C87.5811 31.0574 87.5811 31.0572 87.5811 31.057C87.5811 31.0568 87.5811 31.0567 87.5811 31.0565C87.5811 31.0563 87.5811 31.0562 87.5811 31.056C87.5811 31.0558 87.5811 31.0557 87.5811 31.0555C87.5811 31.0553 87.5811 31.0552 87.5811 31.055C87.5811 31.0548 87.5811 31.0546 87.5811 31.0545C87.5811 31.0543 87.5811 31.0541 87.5811 31.054C87.5811 31.0538 87.5811 31.0536 87.5811 31.0535C87.5811 31.0533 87.5811 31.0531 87.5811 31.053C87.5811 31.0528 87.5811 31.0526 87.5811 31.0524C87.5811 31.0523 87.5811 31.0521 87.5811 31.0519C87.5811 31.0518 87.5811 31.0516 87.5811 31.0514C87.5811 31.0513 87.5811 31.0511 87.5811 31.0509C87.5811 31.0508 87.5811 31.0506 87.5811 31.0504C87.5811 31.0503 87.5811 31.0501 87.5811 31.0499C87.5811 31.0497 87.5811 31.0496 87.5811 31.0494C87.5811 31.0492 87.5811 31.0491 87.5811 31.0489C87.5811 31.0487 87.5811 31.0486 87.5811 31.0484C87.5811 31.0482 87.5811 31.0481 87.5811 31.0479C87.5811 31.0477 87.5811 31.0476 87.5811 31.0474C87.5811 31.0472 87.5811 31.0471 87.5811 31.0469C87.5811 31.0467 87.5811 31.0466 87.5811 31.0464C87.5811 31.0462 87.5811 31.046 87.5811 31.0459C87.5811 31.0457 87.5811 31.0455 87.5811 31.0454C87.5811 31.0452 87.5811 31.045 87.5811 31.0449C87.5811 31.0447 87.5811 31.0445 87.5811 31.0444C87.5811 31.0442 87.5811 31.044 87.5811 31.0439C87.5811 31.0437 87.5811 31.0435 87.5811 31.0434C87.5811 31.0432 87.5811 31.043 87.5811 31.0429C87.5811 31.0427 87.5811 31.0425 87.5811 31.0424C87.5811 31.0422 87.5811 31.042 87.5811 31.0419C87.5811 31.0417 87.5811 31.0415 87.5811 31.0413C87.5811 31.0412 87.5811 31.041 87.5811 31.0408C87.5811 31.0407 87.5811 31.0405 87.5811 31.0403C87.5811 31.0402 87.5811 31.04 87.5811 31.0398C87.5811 31.0397 87.5811 31.0395 87.5811 31.0393C87.5811 31.0392 87.5811 31.039 87.5811 31.0388C87.5811 31.0387 87.5811 31.0385 87.5811 31.0383C87.5811 31.0382 87.5811 31.038 87.5811 31.0378C87.5811 31.0377 87.5811 31.0375 87.5811 31.0373C87.5811 31.0372 87.5811 31.037 87.5811 31.0368C87.5811 31.0367 87.5811 31.0365 87.5811 31.0363C87.5811 31.0362 87.5811 31.036 87.5811 31.0358C87.5811 31.0357 87.5811 31.0355 87.5811 31.0353C87.5811 31.0352 87.5811 31.035 87.5811 31.0348C87.5811 31.0347 87.5811 31.0345 87.5811 31.0343C87.5811 31.0342 87.5811 31.034 87.5811 31.0338C87.5811 31.0337 87.5811 31.0335 87.5811 31.0333C87.5811 31.0332 87.5811 31.033 87.5811 31.0328C87.5811 31.0327 87.5811 31.0325 87.5811 31.0323C87.5811 31.0322 87.5811 31.032 87.5811 31.0318C87.5811 31.0317 87.5811 31.0315 87.5811 31.0313C87.5811 31.0312 87.5811 31.031 87.5811 31.0308C87.5811 31.0307 87.5811 31.0305 87.5811 31.0303C87.5811 31.0302 87.5811 31.03 87.5811 31.0298C87.5811 31.0297 87.5811 31.0295 87.5811 31.0293C87.5811 31.0292 87.5811 31.029 87.5811 31.0288C87.5811 31.0287 87.5811 31.0285 87.5811 31.0283C87.5811 31.0282 87.5811 31.028 87.5811 31.0279C87.5811 31.0277 87.5811 31.0275 87.5811 31.0274C87.5811 31.0272 87.5811 31.027 87.5811 31.0269C87.5811 31.0267 87.5811 31.0265 87.5811 31.0264C87.5811 31.0262 87.5811 31.026 87.5811 31.0259C87.5811 31.0257 87.5811 31.0255 87.5811 31.0254C87.5811 31.0252 87.5811 31.025 87.5811 31.0249C87.5811 31.0247 87.5811 31.0245 87.5811 31.0244C87.5811 31.0242 87.5811 31.024 87.5811 31.0239C87.5811 31.0237 87.5811 31.0235 87.5811 31.0234C87.5811 31.0232 87.5811 31.0231 87.5811 31.0229C87.5811 31.0227 87.5811 31.0226 87.5811 31.0224C87.5811 31.0222 87.5811 31.0221 87.5811 31.0219C87.5811 31.0217 87.5811 31.0216 87.5811 31.0214C87.5811 31.0212 87.5811 31.0211 87.5811 31.0209C87.5811 31.0207 87.5811 31.0206 87.5811 31.0204C87.5811 31.0202 87.5811 31.0201 87.5811 31.0199C87.5811 31.0197 87.5811 31.0196 87.5811 31.0194C87.5811 31.0193 87.5811 31.0191 87.5811 31.0189C87.5811 31.0188 87.5811 31.0186 87.5811 31.0184C87.5811 31.0183 87.5811 31.0181 87.5811 31.0179C87.5811 31.0178 87.5811 31.0176 87.5811 31.0174C87.5811 31.0173 87.5811 31.0171 87.5811 31.0169C87.5811 31.0168 87.5811 31.0166 87.5811 31.0165C87.5811 31.0163 87.5811 31.0161 87.5811 31.016C87.5811 31.0158 87.5811 31.0156 87.5811 31.0155C87.5811 31.0153 87.5811 31.0151 87.5811 31.015C87.5811 31.0148 87.5811 31.0146 87.5811 31.0145C87.5811 31.0143 87.5811 31.0142 87.5811 31.014C87.5811 31.0138 87.5811 31.0137 87.5811 31.0135C87.5811 31.0133 87.5811 31.0132 87.5811 31.013C87.5811 31.0128 87.5811 31.0127 87.5811 31.0125C87.5811 31.0124 87.5811 31.0122 87.5811 31.012C87.5811 31.0119 87.5811 31.0117 87.5811 31.0115C87.5811 31.0114 87.5811 31.0112 87.5811 31.011C87.5811 31.0109 87.5811 31.0107 87.5811 31.0105C87.5811 31.0104 87.5811 31.0102 87.5811 31.0101C87.5811 31.0099 87.5811 31.0097 87.5811 31.0096C87.5811 31.0094 87.5811 31.0092 87.5811 31.0091C87.5811 31.0089 87.5811 31.0088 87.5811 31.0086C87.5811 31.0084 87.5811 31.0083 87.5811 31.0081C87.5811 31.0079 87.5811 31.0078 87.5811 31.0076C87.5811 31.0074 87.5811 31.0073 87.5811 31.0071C87.5811 31.007 87.5811 31.0068 87.5811 31.0066C87.5811 31.0065 87.5811 31.0063 87.5811 31.0061C87.5811 31.006 87.5811 31.0058 87.5811 31.0056C87.5811 31.0055 87.5811 31.0053 87.5811 31.0052C87.5811 31.005 87.5811 31.0048 87.5811 31.0047C87.5811 31.0045 87.5811 31.0043 87.5811 31.0042C87.5811 31.004 87.5811 31.0039 87.5811 31.0037C87.5811 31.0035 87.5811 31.0034 87.5811 31.0032C87.5811 31.003 87.5811 31.0029 87.5811 31.0027C87.5811 31.0026 87.5811 31.0024 87.5811 31.0022C87.5811 31.0021 87.5811 31.0019 87.5811 31.0017C87.5811 31.0016 87.5811 31.0014 87.5811 31.0013C87.5811 31.0011 87.5811 31.0009 87.5811 31.0008C87.5811 31.0006 87.5811 31.0004 87.5811 31.0003C87.5811 31.0001 87.5811 31 87.5811 30.9998C87.5811 30.9996 87.5811 30.9995 87.5811 30.9993C87.5811 30.9991 87.5811 30.999 87.5811 30.9988C87.5811 30.9987 87.5811 30.9985 87.5811 30.9983C87.5811 30.9982 87.5811 30.998 87.5811 30.9978C87.5811 30.9977 87.5811 30.9975 87.5811 30.9974C87.5811 30.9972 87.5811 30.997 87.5811 30.9969C87.5811 30.9967 87.5811 30.9965 87.5811 30.9964C87.5811 30.9962 87.5811 30.9961 87.5811 30.9959C87.5811 30.9957 87.5811 30.9956 87.5811 30.9954C87.5811 30.9953 87.5811 30.9951 87.5811 30.9949C87.5811 30.9948 87.5811 30.9946 87.5811 30.9944C87.5811 30.9943 87.5811 30.9941 87.5811 30.994C87.5811 30.9938 87.5811 30.9936 87.5811 30.9935C87.5811 30.9933 87.5811 30.9932 87.5811 30.993C87.5811 30.9928 87.5811 30.9927 87.5811 30.9925C87.5811 30.9923 87.5811 30.9922 87.5811 30.992C87.5811 30.9919 87.5811 30.9917 87.5811 30.9915C87.5811 30.9914 87.5811 30.9912 87.5811 30.9911C87.5811 30.9909 87.5811 30.9907 87.5811 30.9906C87.5811 30.9904 87.5811 30.9902 87.5811 30.9901C87.5811 30.9899 87.5811 30.9898 87.5811 30.9896C87.5811 30.9894 87.5811 30.9893 87.5811 30.9891C87.5811 30.989 87.5811 30.9888 87.5811 30.9886C87.5811 30.9885 87.5811 30.9883 87.5811 30.9882C87.5811 30.988 87.5811 30.9878 87.5811 30.9877C87.5811 30.9875 87.5811 30.9873 87.5811 30.9872C87.5811 30.987 87.5811 30.9869 87.5811 30.9867C87.5811 30.9865 87.5811 30.9864 87.5811 30.9862C87.5811 30.9861 87.5811 30.9859 87.5811 30.9857C87.5811 30.9856 87.5811 30.9854 87.5811 30.9853C87.5811 30.9851 87.5811 30.9849 87.5811 30.9848C87.5811 30.9846 87.5811 30.9845 87.5811 30.9843C87.5811 30.9841 87.5811 30.984 87.5811 30.9838C87.5811 30.9837 87.5811 30.9835 87.5811 30.9833C87.5811 30.9832 87.5811 30.983 87.5811 30.9829C87.5811 30.9827 87.5811 30.9825 87.5811 30.9824C87.5811 30.9822 87.5811 30.9821 87.5811 30.9819C87.5811 30.9817 87.5811 30.9816 87.5811 30.9814C87.5811 30.9813 87.5811 30.9811 87.5811 30.9809C87.5811 30.9808 87.5811 30.9806 87.5811 30.9805C87.5811 30.9803 87.5811 30.9801 87.5811 30.98C87.5811 30.9798 87.5811 30.9797 87.5811 30.9795C87.5811 30.9793 87.5811 30.9792 87.5811 30.979C87.5811 30.9789 87.5811 30.9787 87.5811 30.9785C87.5811 30.9784 87.5811 30.9782 87.5811 30.9781C87.5811 30.9779 87.5811 30.9777 87.5811 30.9776C87.5811 30.9774 87.5811 30.9773 87.5811 30.9771C87.5811 30.9769 87.5811 30.9768 87.5811 30.9766C87.5811 30.9765 87.5811 30.9763 87.5811 30.9761C87.5811 30.976 87.5811 30.9758 87.5811 30.9757C87.5811 30.9755 87.5811 30.9753 87.5811 30.9752C87.5811 30.975 87.5811 30.9749 87.5811 30.9747C87.5811 30.9746 87.5811 30.9744 87.5811 30.9742C87.5811 30.9741 87.5811 30.9739 87.5811 30.9738C87.5811 30.9736 87.5811 30.9734 87.5811 30.9733C87.5811 30.9731 87.5811 30.973 87.5811 30.9728C87.5811 30.9726 87.5811 30.9725 87.5811 30.9723C87.5811 30.9722 87.5811 30.972 87.5811 30.9718C87.5811 30.9717 87.5811 30.9715 87.5811 30.9714C87.5811 30.9712 87.5811 30.9711 87.5811 30.9709C87.5811 30.9707 87.5811 30.9706 87.5811 30.9704C87.5811 30.9703 87.5811 30.9701 87.5811 30.9699C87.5811 30.9698 87.5811 30.9696 87.5811 30.9695C87.5811 30.9693 87.5811 30.9692 87.5811 30.969C87.5811 30.9688 87.5811 30.9687 87.5811 30.9685C87.5811 30.9684 87.5811 30.9682 87.5811 30.968C87.5811 30.9679 87.5811 30.9677 87.5811 30.9676C87.5811 30.9674 87.5811 30.9673 87.5811 30.9671C87.5811 30.9669 87.5811 30.9668 87.5811 30.9666C87.5811 30.9665 87.5811 30.9663 87.5811 30.9661C87.5811 30.966 87.5811 30.9658 87.5811 30.9657C87.5811 30.9655 87.5811 30.9654 87.5811 30.9652C87.5811 30.965 87.5811 30.9649 87.5811 30.9647C87.5811 30.9646 87.5811 30.9644 87.5811 30.9642C87.5811 30.9641 87.5811 30.9639 87.5811 30.9638C87.5811 30.9636 87.5811 30.9635 87.5811 30.9633C87.5811 30.9631 87.5811 30.963 87.5811 30.9628C87.5811 30.9627 87.5811 30.9625 87.5811 30.9624C87.5811 30.9622 87.5811 30.962 87.5811 30.9619C87.5811 30.9617 87.5811 30.9616 87.5811 30.9614C87.5811 30.9613 87.5811 30.9611 87.5811 30.9609C87.5811 30.9608 87.5811 30.9606 87.5811 30.9605C87.5811 30.9603 87.5811 30.9602 87.5811 30.96C87.5811 30.9598 87.5811 30.9597 87.5811 30.9595C87.5811 30.9594 87.5811 30.9592 87.5811 30.9591C87.5811 30.9589 87.5811 30.9587 87.5811 30.9586C87.5811 30.9584 87.5811 30.9583 87.5811 30.9581C87.5811 30.958 87.5811 30.9578 87.5811 30.9576C87.5811 30.9575 87.5811 30.9573 87.5811 30.9572C87.5811 30.957 87.5811 30.9569 87.5811 30.9567C87.5811 30.9565 87.5811 30.9564 87.5811 30.9562C87.5811 30.9561 87.5811 30.9559 87.5811 30.9558C87.5811 30.9556 87.5811 30.9554 87.5811 30.9553C87.5811 30.9551 87.5811 30.955 87.5811 30.9548C87.5811 30.9547 87.5811 30.9545 87.5811 30.9543C87.5811 30.9542 87.5811 30.954 87.5811 30.9539C87.5811 30.9537 87.5811 30.9536 87.5811 30.9534C87.5811 30.9533 87.5811 30.9531 87.5811 30.9529C87.5811 30.9528 87.5811 30.9526 87.5811 30.9525C87.5811 30.9523 87.5811 30.9522 87.5811 30.952H85.5811ZM86.5811 30.216H75.6131V32.216H86.5811V30.216ZM76.6131 31.216V29.944H74.6131V31.216H76.6131ZM75.6131 30.944H85.6691V28.944H75.6131V30.944ZM85.0691 29.144L84.3971 29.648L85.5971 31.248L86.2691 30.744L85.0691 29.144ZM85.9971 30.448C85.9971 29.3851 85.7625 28.4028 85.2666 27.53L83.5277 28.518C83.8317 29.0532 83.9971 29.6869 83.9971 30.448H85.9971ZM85.2795 27.5534C84.8135 26.6798 84.1604 25.9822 83.3246 25.4847L82.3016 27.2033C82.8099 27.5058 83.2127 27.9282 83.5148 28.4946L85.2795 27.5534ZM83.3246 25.4847C82.4792 24.9815 81.5221 24.744 80.4851 24.744V26.744C81.2082 26.744 81.8031 26.9065 82.3016 27.2033L83.3246 25.4847ZM80.4851 24.744C79.4602 24.744 78.5081 24.9832 77.6545 25.4795L78.6597 27.2085C79.1822 26.9048 79.7821 26.744 80.4851 26.744V24.744ZM77.6545 25.4795C76.8015 25.9754 76.1359 26.6737 75.6668 27.5534L77.4315 28.4946C77.7303 27.9343 78.1367 27.5126 78.6597 27.2085L77.6545 25.4795ZM75.6668 27.5534C75.1955 28.4371 74.9731 29.4266 74.9731 30.496H76.9731C76.9731 29.7094 77.1348 29.0509 77.4315 28.4946L75.6668 27.5534ZM74.9731 30.496V30.76H76.9731V30.496H74.9731ZM74.9731 30.76C74.9731 31.8687 75.2148 32.8905 75.7266 33.7961L77.4677 32.8119C77.1475 32.2455 76.9731 31.5713 76.9731 30.76H74.9731ZM75.7396 33.8185C76.2644 34.6931 76.9868 35.3839 77.8891 35.883L78.8572 34.133C78.2554 33.8001 77.7938 33.3549 77.4546 32.7895L75.7396 33.8185ZM77.9112 35.8949C78.8391 36.3782 79.873 36.608 80.9891 36.608V34.608C80.1533 34.608 79.4431 34.4378 78.8351 34.1211L77.9112 35.8949ZM80.9891 36.608C81.8778 36.608 82.7211 36.4501 83.5081 36.1237L82.7421 34.2763C82.2171 34.4939 81.6365 34.608 80.9891 34.608V36.608ZM83.5003 36.1269C84.3232 35.7939 85.0302 35.282 85.6124 34.6028L84.0939 33.3012C83.7161 33.742 83.271 34.0621 82.7499 34.2731L83.5003 36.1269ZM84.0985 34.6082L85.0585 35.7122L86.5677 34.3998L85.6077 33.2958L84.0985 34.6082ZM85.0449 34.4158C84.5936 34.9574 84.0241 35.3752 83.3177 35.6684L84.0845 37.5156C85.0742 37.1048 85.9127 36.4986 86.5813 35.6962L85.0449 34.4158ZM83.3115 35.671C82.6163 35.9652 81.8308 36.12 80.9411 36.12V38.12C82.0675 38.12 83.122 37.9228 84.0908 37.513L83.3115 35.671ZM102.074 24.88L101.612 25.7669L101.623 25.7726L101.634 25.7781L102.074 24.88ZM103.897 26.656L103.018 27.1311L103.021 27.1379L103.025 27.1446L103.897 26.656ZM104.569 37V38H105.569V37H104.569ZM102.866 37H101.866V38H102.866V37ZM101.857 26.848L101.134 27.5381L101.142 27.5467L101.15 27.5551L101.857 26.848ZM96.7215 26.368L97.1943 27.2492L97.2018 27.2451L96.7215 26.368ZM95.1855 27.928L94.3037 27.4563L94.2997 27.464L95.1855 27.928ZM94.6575 37V38H95.6575V37H94.6575ZM92.9535 37H91.9535V38H92.9535V37ZM92.9535 24.4V23.4H91.9535V24.4H92.9535ZM94.5855 24.4H95.5855V23.4H94.5855V24.4ZM94.5855 27.856L93.6594 28.2333L95.5855 27.856H94.5855ZM94.3215 27.208L93.4057 26.8063L93.2358 27.1936L93.3954 27.5853L94.3215 27.208ZM96.2415 25.072L96.7444 25.9364L96.756 25.9295L96.2415 25.072ZM99.3855 25.28C100.278 25.28 101.01 25.4536 101.612 25.7669L102.535 23.9931C101.601 23.5064 100.541 23.28 99.3855 23.28V25.28ZM101.634 25.7781C102.222 26.0664 102.68 26.5064 103.018 27.1311L104.777 26.1809C104.251 25.2056 103.493 24.4616 102.513 23.9819L101.634 25.7781ZM103.025 27.1446C103.367 27.7544 103.569 28.5812 103.569 29.68H105.569C105.569 28.3468 105.324 27.1576 104.77 26.1674L103.025 27.1446ZM103.569 29.68V37H105.569V29.68H103.569ZM104.569 36H102.866V38H104.569V36ZM103.866 37V29.848H101.866V37H103.866ZM103.866 29.848C103.866 28.3618 103.488 27.0645 102.565 26.1409L101.15 27.5551C101.571 27.9755 101.866 28.6782 101.866 29.848H103.866ZM102.581 26.1579C101.69 25.223 100.471 24.816 99.0735 24.816V26.816C100.076 26.816 100.713 27.097 101.134 27.5381L102.581 26.1579ZM99.0735 24.816C98.0382 24.816 97.0836 25.0296 96.2412 25.4909L97.2018 27.2451C97.7034 26.9704 98.3168 26.816 99.0735 26.816V24.816ZM96.2487 25.4868C95.4104 25.9367 94.76 26.6033 94.3037 27.4563L96.0673 28.3997C96.347 27.8767 96.7206 27.5033 97.1943 27.2492L96.2487 25.4868ZM94.2997 27.464C93.8554 28.3122 93.6575 29.2963 93.6575 30.376H95.6575C95.6575 29.5357 95.8116 28.8878 96.0713 28.392L94.2997 27.464ZM93.6575 30.376V37H95.6575V30.376H93.6575ZM94.6575 36H92.9535V38H94.6575V36ZM93.9535 37V24.4H91.9535V37H93.9535ZM92.9535 25.4H94.5855V23.4H92.9535V25.4ZM93.5855 24.4V27.856H95.5855V24.4H93.5855ZM95.5116 27.4787L95.2476 26.8307L93.3954 27.5853L93.6594 28.2333L95.5116 27.4787ZM95.2373 27.6097C95.5501 26.8963 96.0432 26.3443 96.7444 25.9363L95.7386 24.2077C94.6798 24.8237 93.8929 25.6957 93.4057 26.8063L95.2373 27.6097ZM96.756 25.9295C97.454 25.5107 98.317 25.28 99.3855 25.28V23.28C98.022 23.28 96.789 23.5773 95.727 24.2145L96.756 25.9295ZM113.3 36.16L112.593 36.8671L113.3 36.16ZM112.34 21.616V20.616H111.34V21.616H112.34ZM114.044 21.616H115.044V20.616H114.044V21.616ZM114.596 35.056L113.86 35.7331L113.868 35.7409L113.875 35.7485L114.596 35.056ZM118.1 35.008L118.998 34.5678L118.425 33.3989L117.443 34.2539L118.1 35.008ZM118.7 36.232L119.371 36.9735L119.93 36.4682L119.598 35.7918L118.7 36.232ZM117.476 36.904L117.189 35.9461L117.18 35.9489L117.476 36.904ZM110.084 25.816H109.084V26.816H110.084V25.816ZM110.084 24.4V23.4H109.084V24.4H110.084ZM117.884 24.4H118.884V23.4H117.884V24.4ZM117.884 25.816V26.816H118.884V25.816H117.884ZM116.036 36.12C115.032 36.12 114.407 35.8528 114.007 35.4529L112.593 36.8671C113.473 37.7472 114.672 38.12 116.036 38.12V36.12ZM114.007 35.4529C113.605 35.0506 113.34 34.4313 113.34 33.448H111.34C111.34 34.8007 111.715 35.9894 112.593 36.8671L114.007 35.4529ZM113.34 33.448V21.616H111.34V33.448H113.34ZM112.34 22.616H114.044V20.616H112.34V22.616ZM113.044 21.616V33.352H115.044V21.616H113.044ZM113.044 33.352C113.044 34.2487 113.27 35.0914 113.86 35.7331L115.332 34.3789C115.186 34.2206 115.044 33.9273 115.044 33.352H113.044ZM113.875 35.7485C114.495 36.3947 115.33 36.656 116.228 36.656V34.656C115.719 34.656 115.465 34.5173 115.318 34.3635L113.875 35.7485ZM116.228 36.656C117.185 36.656 118.053 36.3753 118.757 35.7621L117.443 34.2539C117.156 34.5047 116.776 34.656 116.228 34.656V36.656ZM117.202 35.4482L117.802 36.6722L119.598 35.7918L118.998 34.5678L117.202 35.4482ZM118.029 35.4905C117.815 35.6846 117.542 35.8403 117.189 35.9462L117.764 37.8618C118.371 37.6797 118.914 37.3874 119.371 36.9735L118.029 35.4905ZM117.18 35.9489C116.814 36.0625 116.434 36.12 116.036 36.12V38.12C116.631 38.12 117.211 38.0335 117.773 37.8591L117.18 35.9489ZM111.084 25.816V24.4H109.084V25.816H111.084ZM110.084 25.4H117.884V23.4H110.084V25.4ZM116.884 24.4V25.816H118.884V24.4H116.884ZM117.884 24.816H110.084V26.816H117.884V24.816ZM125.114 36.688L124.803 37.6383L124.81 37.6407L124.818 37.6431L125.114 36.688ZM122.93 35.56L122.062 35.0639L121.65 35.7851L122.283 36.3225L122.93 35.56ZM123.698 34.216L124.298 33.416L123.392 32.7363L122.83 33.7199L123.698 34.216ZM125.666 35.224L125.328 36.1649L125.336 36.1679L125.344 36.1708L125.666 35.224ZM130.778 35.08L131.35 35.9004L131.358 35.8946L131.366 35.8887L130.778 35.08ZM131.114 32.488L130.428 33.215L130.448 33.2346L130.47 33.2529L131.114 32.488ZM129.962 31.888L129.675 32.8458L129.69 32.8503L129.705 32.8542L129.962 31.888ZM126.578 31.192L126.361 32.1682L126.367 32.1694L126.578 31.192ZM124.994 30.64L124.524 31.5224L124.535 31.5285L124.547 31.5344L124.994 30.64ZM123.818 29.608L122.986 30.1627L122.993 30.1732L123 30.1835L123.818 29.608ZM123.962 26.032L124.779 26.6087L123.962 26.032ZM125.642 24.76L126.024 25.6843L126.034 25.6802L125.642 24.76ZM130.826 24.616L130.562 25.5803L130.57 25.5828L130.579 25.585L130.826 24.616ZM132.842 25.456L133.721 25.9338L134.157 25.1309L133.397 24.6239L132.842 25.456ZM132.098 26.824L131.533 27.6487L132.447 28.2757L132.977 27.3018L132.098 26.824ZM130.298 26.008L130.033 26.9722L130.044 26.9753L130.056 26.9781L130.298 26.008ZM125.858 26.344L126.446 27.1527L126.451 27.1497L125.858 26.344ZM125.498 28.96L124.812 29.687L124.821 29.6963L124.831 29.7052L125.498 28.96ZM126.674 29.608L126.358 30.5567L126.377 30.5629L126.395 30.5683L126.674 29.608ZM128.282 29.968L128.118 30.9544L128.122 30.9551L128.282 29.968ZM130.034 30.328L129.792 31.2981L129.807 31.302L129.823 31.3054L130.034 30.328ZM131.642 30.88L131.195 31.7744L131.213 31.7832L131.231 31.7914L131.642 30.88ZM132.818 31.864L131.986 32.4187L131.998 32.4366L132.011 32.454L132.818 31.864ZM132.65 35.44L131.856 34.8325L131.853 34.8361L132.65 35.44ZM130.874 36.688L131.225 37.6244L131.236 37.6204L130.874 36.688ZM128.066 36.12C127.12 36.12 126.236 35.9891 125.411 35.7329L124.818 37.6431C125.848 37.9629 126.933 38.12 128.066 38.12V36.12ZM125.426 35.7377C124.574 35.4587 123.975 35.1349 123.577 34.7975L122.283 36.3225C122.942 36.8811 123.799 37.3093 124.803 37.6383L125.426 35.7377ZM123.798 36.0561L124.566 34.7121L122.83 33.7199L122.062 35.0639L123.798 36.0561ZM123.098 35.016C123.711 35.4756 124.463 35.8535 125.328 36.1649L126.005 34.2831C125.27 34.0185 124.709 33.7244 124.298 33.416L123.098 35.016ZM125.344 36.1708C126.252 36.4795 127.201 36.632 128.186 36.632V34.632C127.411 34.632 126.68 34.5125 125.988 34.2772L125.344 36.1708ZM128.186 36.632C129.439 36.632 130.562 36.4494 131.35 35.9004L130.206 34.2596C129.938 34.4466 129.334 34.632 128.186 34.632V36.632ZM131.366 35.8887C132.139 35.3268 132.57 34.529 132.57 33.568H130.57C130.57 33.855 130.473 34.0652 130.19 34.2713L131.366 35.8887ZM132.57 33.568C132.57 32.8639 132.327 32.2018 131.758 31.7231L130.47 33.2529C130.51 33.2862 130.57 33.3441 130.57 33.568H132.57ZM131.801 31.761C131.365 31.3494 130.82 31.0819 130.22 30.9218L129.705 32.8542C130.064 32.9501 130.287 33.0826 130.428 33.215L131.801 31.761ZM130.25 30.9302C129.721 30.7715 129.141 30.6426 128.514 30.5409L128.194 32.5151C128.751 32.6054 129.244 32.7165 129.675 32.8458L130.25 30.9302ZM128.514 30.5409C127.94 30.4477 127.365 30.3389 126.79 30.2146L126.367 32.1694C126.976 32.3011 127.585 32.4163 128.194 32.5151L128.514 30.5409ZM126.795 30.2158C126.291 30.1038 125.841 29.9456 125.441 29.7456L124.547 31.5344C125.107 31.8144 125.713 32.0242 126.361 32.1682L126.795 30.2158ZM125.465 29.7576C125.119 29.5731 124.847 29.3326 124.636 29.0325L123 30.1835C123.397 30.7474 123.91 31.1949 124.524 31.5224L125.465 29.7576ZM124.65 29.0533C124.507 28.8378 124.386 28.4764 124.386 27.88H122.386C122.386 28.7236 122.554 29.5142 122.986 30.1627L124.65 29.0533ZM124.386 27.88C124.386 27.3912 124.518 26.9781 124.779 26.6087L123.145 25.4553C122.638 26.1739 122.386 26.9928 122.386 27.88H124.386ZM124.779 26.6087C125.034 26.2474 125.428 25.9303 126.024 25.6843L125.26 23.8357C124.384 24.1977 123.658 24.7286 123.145 25.4553L124.779 26.6087ZM126.034 25.6802C126.63 25.4265 127.401 25.28 128.378 25.28V23.28C127.212 23.28 126.159 23.4535 125.251 23.8398L126.034 25.6802ZM128.378 25.28C129.102 25.28 129.829 25.3791 130.562 25.5803L131.091 23.6517C130.192 23.4049 129.287 23.28 128.378 23.28V25.28ZM130.579 25.585C131.319 25.7737 131.879 26.0155 132.288 26.288L133.397 24.6239C132.75 24.1925 131.965 23.8743 131.073 23.647L130.579 25.585ZM131.964 24.9782L131.22 26.3462L132.977 27.3018L133.721 25.9338L131.964 24.9782ZM132.664 25.9993C132.009 25.55 131.3 25.2276 130.541 25.0379L130.056 26.9781C130.577 27.1084 131.068 27.33 131.533 27.6487L132.664 25.9993ZM130.563 25.0438C129.84 24.8449 129.111 24.744 128.378 24.744V26.744C128.925 26.744 129.476 26.8191 130.033 26.9722L130.563 25.0438ZM128.378 24.744C127.161 24.744 126.064 24.9517 125.266 25.5383L126.451 27.1497C126.741 26.9363 127.324 26.744 128.378 26.744V24.744ZM125.27 25.5353C124.506 26.0912 124.066 26.8774 124.066 27.832H126.066C126.066 27.5706 126.155 27.3648 126.446 27.1527L125.27 25.5353ZM124.066 27.832C124.066 28.5244 124.282 29.187 124.812 29.687L126.185 28.233C126.138 28.189 126.066 28.0996 126.066 27.832H124.066ZM124.831 29.7052C125.259 30.0873 125.779 30.3636 126.358 30.5567L126.99 28.6593C126.61 28.5324 126.346 28.3767 126.165 28.2148L124.831 29.7052ZM126.395 30.5683C126.934 30.7246 127.508 30.8528 128.118 30.9544L128.447 28.9816C127.904 28.8912 127.407 28.7794 126.953 28.6477L126.395 30.5683ZM128.122 30.9551C128.687 31.0467 129.243 31.161 129.792 31.2981L130.277 29.3579C129.673 29.207 129.062 29.0813 128.442 28.9809L128.122 30.9551ZM129.823 31.3054C130.343 31.418 130.799 31.5763 131.195 31.7744L132.089 29.9856C131.526 29.7037 130.909 29.494 130.246 29.3506L129.823 31.3054ZM131.231 31.7914C131.564 31.9421 131.807 32.1503 131.986 32.4187L133.65 31.3093C133.253 30.7137 132.712 30.2659 132.054 29.9686L131.231 31.7914ZM132.011 32.454C132.154 32.6495 132.274 32.9737 132.274 33.52H134.274C134.274 32.6903 134.091 31.9105 133.626 31.274L132.011 32.454ZM132.274 33.52C132.274 34.0539 132.128 34.4764 131.856 34.8326L133.445 36.0474C134.004 35.3156 134.274 34.4581 134.274 33.52H132.274ZM131.853 34.8361C131.592 35.1814 131.17 35.5008 130.513 35.7556L131.236 37.6204C132.147 37.2672 132.909 36.7546 133.447 36.0439L131.853 34.8361ZM130.523 35.7517C129.899 35.9858 129.089 36.12 128.066 36.12V38.12C129.251 38.12 130.314 37.9662 131.225 37.6243L130.523 35.7517Z" fill="black" mask="url(#path-18-outside-1_435_2088)"/>
</svg>
