<svg width="624" height="158" viewBox="0 0 624 158" fill="none" xmlns="http://www.w3.org/2000/svg">
<mask id="path-1-inside-1_30_3580" fill="white">
<path d="M381.689 124.644H365.436L349.733 140.444L334.029 156.244H351.242H368.457L383.2 141.514C391.308 133.413 397.941 126.303 397.941 125.714C397.941 125.125 390.628 124.644 381.689 124.644Z"/>
<path fill-rule="evenodd" clip-rule="evenodd" d="M610.414 142.639L596.912 128.154L539.827 128.156H482.743L477.705 122.889L472.667 117.622H447.985H423.303L403.2 137.811L383.098 158L503.59 158C569.862 158 624.046 157.802 624 157.561C623.953 157.321 617.84 150.604 610.414 142.639ZM594.118 133.605L602.944 142.73C607.798 147.749 611.779 152.054 611.792 152.294C611.802 152.535 563.117 152.733 503.601 152.733H395.389L410.213 137.811L425.036 122.889H447.365C469.634 122.889 469.711 122.903 475.634 128.112L481.574 133.334L537.847 133.47L594.118 133.605Z"/>
<path fill-rule="evenodd" clip-rule="evenodd" d="M527.16 56.5482L470.673 0L381.166 0L291.661 0L286.623 5.26667L281.585 10.5333L181.44 10.5333L81.2957 10.5333L76.2575 5.26667L71.2192 0L47.4427 0.0175727L23.6661 0.0333774L11.8331 11.4041L1.77554e-05 22.773V63.1754V103.578L238.947 103.578L477.894 103.578L483.935 109.859L489.976 116.141L512.607 115.868L535.238 115.595C560.131 115.293 581.208 114.608 582.074 114.072C582.94 113.535 558.229 87.6514 527.16 56.5482ZM467.187 5.31231L519.296 56.6325C559.684 96.4081 570.727 108.198 568.381 109.053C566.717 109.659 548.864 110.295 528.706 110.465L492.053 110.772L485.693 104.554L479.335 98.3357L242.366 98.2988L5.39761 98.2619L4.88915 62.2467L4.38262 26.2333L14.9009 15.8228L25.4192 5.41239L47.0483 5.14553L68.6773 4.87696L74.3046 10.3385L79.9301 15.8L181.524 15.7719L283.117 15.7438L289.053 10.5053L294.987 5.26667L381.087 5.28949L467.187 5.31231Z"/>
<path d="M331.65 125.556C331.15 125.054 323.954 124.644 315.657 124.644H300.574L284.87 140.444L269.166 156.244H285.669H302.172L317.366 141.356C325.723 133.166 332.151 126.056 331.65 125.556Z"/>
<path d="M251.124 124.809L235.785 124.513L220.044 140.38L204.303 156.244H220.959H237.615L252.039 141.724C259.971 133.738 266.463 126.732 266.463 126.156C266.463 125.578 259.559 124.973 251.124 124.809Z"/>
<path fill-rule="evenodd" clip-rule="evenodd" d="M104.711 122.889L1.77554e-05 122.889V140.444V158H87.2474H174.495L191.958 140.444L209.422 122.889H104.711ZM5.25912 128.156H99.9236C155.344 128.156 194.588 128.816 194.588 129.746C194.588 130.622 188.97 136.547 182.103 142.913L169.619 154.489H87.4385H5.25912V141.322V128.156Z"/>
</mask>
<path d="M381.689 124.644H365.436L349.733 140.444L334.029 156.244H351.242H368.457L383.2 141.514C391.308 133.413 397.941 126.303 397.941 125.714C397.941 125.125 390.628 124.644 381.689 124.644Z" fill="url(#paint0_linear_30_3580)"/>
<path fill-rule="evenodd" clip-rule="evenodd" d="M610.414 142.639L596.912 128.154L539.827 128.156H482.743L477.705 122.889L472.667 117.622H447.985H423.303L403.2 137.811L383.098 158L503.59 158C569.862 158 624.046 157.802 624 157.561C623.953 157.321 617.84 150.604 610.414 142.639ZM594.118 133.605L602.944 142.73C607.798 147.749 611.779 152.054 611.792 152.294C611.802 152.535 563.117 152.733 503.601 152.733H395.389L410.213 137.811L425.036 122.889H447.365C469.634 122.889 469.711 122.903 475.634 128.112L481.574 133.334L537.847 133.47L594.118 133.605Z" fill="url(#paint1_linear_30_3580)"/>
<path fill-rule="evenodd" clip-rule="evenodd" d="M527.16 56.5482L470.673 0L381.166 0L291.661 0L286.623 5.26667L281.585 10.5333L181.44 10.5333L81.2957 10.5333L76.2575 5.26667L71.2192 0L47.4427 0.0175727L23.6661 0.0333774L11.8331 11.4041L1.77554e-05 22.773V63.1754V103.578L238.947 103.578L477.894 103.578L483.935 109.859L489.976 116.141L512.607 115.868L535.238 115.595C560.131 115.293 581.208 114.608 582.074 114.072C582.94 113.535 558.229 87.6514 527.16 56.5482ZM467.187 5.31231L519.296 56.6325C559.684 96.4081 570.727 108.198 568.381 109.053C566.717 109.659 548.864 110.295 528.706 110.465L492.053 110.772L485.693 104.554L479.335 98.3357L242.366 98.2988L5.39761 98.2619L4.88915 62.2467L4.38262 26.2333L14.9009 15.8228L25.4192 5.41239L47.0483 5.14553L68.6773 4.87696L74.3046 10.3385L79.9301 15.8L181.524 15.7719L283.117 15.7438L289.053 10.5053L294.987 5.26667L381.087 5.28949L467.187 5.31231Z" fill="url(#paint2_linear_30_3580)"/>
<path d="M331.65 125.556C331.15 125.054 323.954 124.644 315.657 124.644H300.574L284.87 140.444L269.166 156.244H285.669H302.172L317.366 141.356C325.723 133.166 332.151 126.056 331.65 125.556Z" fill="url(#paint3_linear_30_3580)"/>
<path d="M251.124 124.809L235.785 124.513L220.044 140.38L204.303 156.244H220.959H237.615L252.039 141.724C259.971 133.738 266.463 126.732 266.463 126.156C266.463 125.578 259.559 124.973 251.124 124.809Z" fill="url(#paint4_linear_30_3580)"/>
<path fill-rule="evenodd" clip-rule="evenodd" d="M104.711 122.889L1.77554e-05 122.889V140.444V158H87.2474H174.495L191.958 140.444L209.422 122.889H104.711ZM5.25912 128.156H99.9236C155.344 128.156 194.588 128.816 194.588 129.746C194.588 130.622 188.97 136.547 182.103 142.913L169.619 154.489H87.4385H5.25912V141.322V128.156Z" fill="url(#paint5_linear_30_3580)"/>
<path d="M381.689 124.644H365.436L349.733 140.444L334.029 156.244H351.242H368.457L383.2 141.514C391.308 133.413 397.941 126.303 397.941 125.714C397.941 125.125 390.628 124.644 381.689 124.644Z" stroke="#D7CC00" stroke-width="2" mask="url(#path-1-inside-1_30_3580)"/>
<path fill-rule="evenodd" clip-rule="evenodd" d="M610.414 142.639L596.912 128.154L539.827 128.156H482.743L477.705 122.889L472.667 117.622H447.985H423.303L403.2 137.811L383.098 158L503.59 158C569.862 158 624.046 157.802 624 157.561C623.953 157.321 617.84 150.604 610.414 142.639ZM594.118 133.605L602.944 142.73C607.798 147.749 611.779 152.054 611.792 152.294C611.802 152.535 563.117 152.733 503.601 152.733H395.389L410.213 137.811L425.036 122.889H447.365C469.634 122.889 469.711 122.903 475.634 128.112L481.574 133.334L537.847 133.47L594.118 133.605Z" stroke="#D7CC00" stroke-width="2" mask="url(#path-1-inside-1_30_3580)"/>
<path fill-rule="evenodd" clip-rule="evenodd" d="M527.16 56.5482L470.673 0L381.166 0L291.661 0L286.623 5.26667L281.585 10.5333L181.44 10.5333L81.2957 10.5333L76.2575 5.26667L71.2192 0L47.4427 0.0175727L23.6661 0.0333774L11.8331 11.4041L1.77554e-05 22.773V63.1754V103.578L238.947 103.578L477.894 103.578L483.935 109.859L489.976 116.141L512.607 115.868L535.238 115.595C560.131 115.293 581.208 114.608 582.074 114.072C582.94 113.535 558.229 87.6514 527.16 56.5482ZM467.187 5.31231L519.296 56.6325C559.684 96.4081 570.727 108.198 568.381 109.053C566.717 109.659 548.864 110.295 528.706 110.465L492.053 110.772L485.693 104.554L479.335 98.3357L242.366 98.2988L5.39761 98.2619L4.88915 62.2467L4.38262 26.2333L14.9009 15.8228L25.4192 5.41239L47.0483 5.14553L68.6773 4.87696L74.3046 10.3385L79.9301 15.8L181.524 15.7719L283.117 15.7438L289.053 10.5053L294.987 5.26667L381.087 5.28949L467.187 5.31231Z" stroke="#D7CC00" stroke-width="2" mask="url(#path-1-inside-1_30_3580)"/>
<path d="M331.65 125.556C331.15 125.054 323.954 124.644 315.657 124.644H300.574L284.87 140.444L269.166 156.244H285.669H302.172L317.366 141.356C325.723 133.166 332.151 126.056 331.65 125.556Z" stroke="#D7CC00" stroke-width="2" mask="url(#path-1-inside-1_30_3580)"/>
<path d="M251.124 124.809L235.785 124.513L220.044 140.38L204.303 156.244H220.959H237.615L252.039 141.724C259.971 133.738 266.463 126.732 266.463 126.156C266.463 125.578 259.559 124.973 251.124 124.809Z" stroke="#D7CC00" stroke-width="2" mask="url(#path-1-inside-1_30_3580)"/>
<path fill-rule="evenodd" clip-rule="evenodd" d="M104.711 122.889L1.77554e-05 122.889V140.444V158H87.2474H174.495L191.958 140.444L209.422 122.889H104.711ZM5.25912 128.156H99.9236C155.344 128.156 194.588 128.816 194.588 129.746C194.588 130.622 188.97 136.547 182.103 142.913L169.619 154.489H87.4385H5.25912V141.322V128.156Z" stroke="#D7CC00" stroke-width="2" mask="url(#path-1-inside-1_30_3580)"/>
<path d="M136.472 51.64H132.44V50.728C132.44 50.248 132.408 49.944 132.344 49.816C132.312 49.656 132.152 49.464 131.864 49.24C131.576 49.016 131.352 48.888 131.192 48.856C131.032 48.792 130.664 48.76 130.088 48.76H118.184C117.608 48.76 117.24 48.792 117.08 48.856C116.92 48.888 116.696 49.016 116.408 49.24C116.12 49.464 115.944 49.656 115.88 49.816C115.848 49.944 115.832 50.248 115.832 50.728V73.672C115.832 74.152 115.848 74.472 115.88 74.632C115.944 74.76 116.12 74.936 116.408 75.16C116.696 75.384 116.92 75.528 117.08 75.592C117.24 75.624 117.608 75.64 118.184 75.64H130.088C130.664 75.64 131.032 75.624 131.192 75.592C131.352 75.528 131.576 75.384 131.864 75.16C132.152 74.936 132.312 74.76 132.344 74.632C132.408 74.472 132.44 74.152 132.44 73.672V72.76H136.472V74.68C136.472 75.64 136.088 76.44 135.32 77.08L134.168 78.04C133.4 78.68 132.632 79 131.864 79H116.408C115.64 79 114.872 78.68 114.104 78.04L112.952 77.08C112.184 76.44 111.8 75.64 111.8 74.68V49.72C111.8 48.76 112.184 47.96 112.952 47.32L114.104 46.36C114.872 45.72 115.64 45.4 116.408 45.4H131.864C132.632 45.4 133.4 45.72 134.168 46.36L135.32 47.32C136.088 47.96 136.472 48.76 136.472 49.72V51.64ZM156.492 60.088L164.22 45.4H168.828L157.788 64.984V79H153.756V64.984L142.716 45.4H147.324L155.052 60.088C155.436 60.76 155.644 61.256 155.676 61.576H155.868C155.9 61.384 156.108 60.888 156.492 60.088ZM195.607 65.128L194.551 64.264C194.167 63.944 193.895 63.768 193.735 63.736C193.575 63.672 193.255 63.64 192.775 63.64H181.543V75.64H194.071C194.647 75.64 195.015 75.624 195.175 75.592C195.335 75.528 195.559 75.384 195.847 75.16C196.135 74.936 196.295 74.76 196.327 74.632C196.391 74.472 196.423 74.152 196.423 73.672V66.856C196.423 66.344 196.391 66.008 196.327 65.848C196.263 65.688 196.023 65.448 195.607 65.128ZM181.543 48.76V60.28H191.959C192.535 60.28 192.903 60.264 193.063 60.232C193.255 60.168 193.511 60.008 193.831 59.752L195.079 58.744C195.463 58.424 195.687 58.184 195.751 58.024C195.815 57.864 195.847 57.512 195.847 56.968V50.728C195.847 50.248 195.815 49.944 195.751 49.816C195.719 49.656 195.559 49.464 195.271 49.24C194.983 49.016 194.759 48.888 194.599 48.856C194.439 48.792 194.071 48.76 193.495 48.76H181.543ZM196.135 61.432V61.672C196.519 61.672 196.967 61.88 197.479 62.296L199.783 64.168C200.071 64.424 200.247 64.664 200.311 64.888C200.407 65.08 200.455 65.464 200.455 66.04V74.68C200.455 75.64 200.071 76.44 199.303 77.08C199.047 77.272 198.663 77.592 198.151 78.04C197.383 78.68 196.615 79 195.847 79H177.511V45.4H195.271C196.039 45.4 196.807 45.72 197.575 46.36L198.727 47.32C199.495 47.96 199.879 48.76 199.879 49.72V57.928C199.879 58.6 199.623 59.144 199.111 59.56L197.479 60.808C196.967 61.224 196.519 61.432 196.135 61.432ZM234.215 75.64V79H212.711V45.4H234.215V48.76H216.743V60.28H231.527V63.64H216.743V75.64H234.215ZM246.457 45.4H264.217C264.985 45.4 265.753 45.72 266.521 46.36L267.673 47.32C268.441 47.96 268.825 48.76 268.825 49.72V60.952C268.825 61.944 268.425 62.776 267.625 63.448L266.425 64.456C265.721 65.032 264.985 65.32 264.217 65.32H261.529L266.473 73C266.825 73.544 267.065 73.896 267.193 74.056C267.353 74.184 267.689 74.392 268.201 74.68L268.729 74.968C269.305 75.288 269.641 75.544 269.737 75.736C269.833 75.928 269.881 76.392 269.881 77.128V79H268.681C268.105 79 267.705 78.968 267.481 78.904C267.289 78.84 266.937 78.632 266.425 78.28L265.513 77.656C264.809 77.176 264.233 76.552 263.785 75.784L257.401 65.56H250.489V79H246.457V45.4ZM250.489 48.76V62.2H262.441C263.017 62.2 263.385 62.184 263.545 62.152C263.705 62.088 263.929 61.944 264.217 61.72C264.505 61.496 264.665 61.32 264.697 61.192C264.761 61.032 264.793 60.712 264.793 60.232V50.728C264.793 50.248 264.761 49.944 264.697 49.816C264.665 49.656 264.505 49.464 264.217 49.24C263.929 49.016 263.705 48.888 263.545 48.856C263.385 48.792 263.017 48.76 262.441 48.76H250.489ZM313.794 63.64H302.322C301.554 63.64 300.786 63.32 300.018 62.68L298.722 61.576C298.05 61.032 297.714 60.392 297.714 59.656V49.72C297.714 48.76 298.098 47.96 298.866 47.32L300.018 46.36C300.786 45.72 301.554 45.4 302.322 45.4H315.09C315.858 45.4 316.626 45.72 317.394 46.36L318.546 47.32C319.314 47.96 319.698 48.76 319.698 49.72V51.64H315.666V50.728C315.666 50.248 315.634 49.944 315.57 49.816C315.538 49.656 315.378 49.464 315.09 49.24C314.802 49.016 314.578 48.888 314.418 48.856C314.258 48.792 313.89 48.76 313.314 48.76H304.098C303.522 48.76 303.154 48.792 302.994 48.856C302.834 48.888 302.61 49.016 302.322 49.24C302.034 49.464 301.858 49.656 301.794 49.816C301.762 49.944 301.746 50.248 301.746 50.728V58.312C301.746 58.792 301.762 59.112 301.794 59.272C301.858 59.4 302.034 59.576 302.322 59.8C302.61 60.024 302.834 60.168 302.994 60.232C303.154 60.264 303.522 60.28 304.098 60.28H315.57C316.338 60.28 317.106 60.6 317.874 61.24L319.026 62.2C319.794 62.84 320.178 63.64 320.178 64.6V74.68C320.178 75.64 319.794 76.44 319.026 77.08L317.874 78.04C317.106 78.68 316.338 79 315.57 79H301.842C301.074 79 300.306 78.68 299.538 78.04L298.386 77.08C297.618 76.44 297.234 75.64 297.234 74.68V72.76H301.266V73.672C301.266 74.152 301.282 74.472 301.314 74.632C301.378 74.76 301.554 74.936 301.842 75.16C302.13 75.384 302.354 75.528 302.514 75.592C302.674 75.624 303.042 75.64 303.618 75.64H313.794C314.37 75.64 314.738 75.624 314.898 75.592C315.058 75.528 315.282 75.384 315.57 75.16C315.858 74.936 316.018 74.76 316.05 74.632C316.114 74.472 316.146 74.152 316.146 73.672V65.608C316.146 65.128 316.114 64.824 316.05 64.696C316.018 64.536 315.858 64.344 315.57 64.12C315.282 63.896 315.058 63.768 314.898 63.736C314.738 63.672 314.37 63.64 313.794 63.64ZM353.918 75.64V79H332.414V45.4H353.918V48.76H336.446V60.28H351.23V63.64H336.446V75.64H353.918ZM390.833 51.64H386.801V50.728C386.801 50.248 386.769 49.944 386.705 49.816C386.673 49.656 386.513 49.464 386.225 49.24C385.937 49.016 385.713 48.888 385.553 48.856C385.393 48.792 385.025 48.76 384.449 48.76H372.545C371.969 48.76 371.601 48.792 371.441 48.856C371.281 48.888 371.057 49.016 370.769 49.24C370.481 49.464 370.305 49.656 370.241 49.816C370.209 49.944 370.193 50.248 370.193 50.728V73.672C370.193 74.152 370.209 74.472 370.241 74.632C370.305 74.76 370.481 74.936 370.769 75.16C371.057 75.384 371.281 75.528 371.441 75.592C371.601 75.624 371.969 75.64 372.545 75.64H384.449C385.025 75.64 385.393 75.624 385.553 75.592C385.713 75.528 385.937 75.384 386.225 75.16C386.513 74.936 386.673 74.76 386.705 74.632C386.769 74.472 386.801 74.152 386.801 73.672V72.76H390.833V74.68C390.833 75.64 390.449 76.44 389.681 77.08L388.529 78.04C387.761 78.68 386.993 79 386.225 79H370.769C370.001 79 369.233 78.68 368.465 78.04L367.313 77.08C366.545 76.44 366.161 75.64 366.161 74.68V49.72C366.161 48.76 366.545 47.96 367.313 47.32L368.465 46.36C369.233 45.72 370.001 45.4 370.769 45.4H386.225C386.993 45.4 387.761 45.72 388.529 46.36L389.681 47.32C390.449 47.96 390.833 48.76 390.833 49.72V51.64Z" fill="white"/>
<defs>
<linearGradient id="paint0_linear_30_3580" x1="312" y1="0" x2="312" y2="158" gradientUnits="userSpaceOnUse">
<stop stop-color="#C51C07"/>
<stop offset="1" stop-color="#B56210"/>
</linearGradient>
<linearGradient id="paint1_linear_30_3580" x1="312" y1="0" x2="312" y2="158" gradientUnits="userSpaceOnUse">
<stop stop-color="#C51C07"/>
<stop offset="1" stop-color="#B56210"/>
</linearGradient>
<linearGradient id="paint2_linear_30_3580" x1="312" y1="0" x2="312" y2="158" gradientUnits="userSpaceOnUse">
<stop stop-color="#C51C07"/>
<stop offset="1" stop-color="#B56210"/>
</linearGradient>
<linearGradient id="paint3_linear_30_3580" x1="312" y1="0" x2="312" y2="158" gradientUnits="userSpaceOnUse">
<stop stop-color="#C51C07"/>
<stop offset="1" stop-color="#B56210"/>
</linearGradient>
<linearGradient id="paint4_linear_30_3580" x1="312" y1="0" x2="312" y2="158" gradientUnits="userSpaceOnUse">
<stop stop-color="#C51C07"/>
<stop offset="1" stop-color="#B56210"/>
</linearGradient>
<linearGradient id="paint5_linear_30_3580" x1="312" y1="0" x2="312" y2="158" gradientUnits="userSpaceOnUse">
<stop stop-color="#C51C07"/>
<stop offset="1" stop-color="#B56210"/>
</linearGradient>
</defs>
</svg>
