<svg width="623" height="158" viewBox="0 0 623 158" fill="none" xmlns="http://www.w3.org/2000/svg">
<mask id="path-1-inside-1_30_3583" fill="white">
<path d="M241.923 124.644H258.149L273.828 140.444L289.507 156.244H272.321H255.134L240.414 141.514C232.319 133.413 225.696 126.303 225.696 125.714C225.696 125.125 232.998 124.644 241.923 124.644Z"/>
<path fill-rule="evenodd" clip-rule="evenodd" d="M13.5644 142.639L27.0447 128.154L84.0376 128.156H141.031L146.061 122.889L151.091 117.622H175.732H200.376L220.446 137.811L240.516 158L120.217 158C54.0509 158 -0.0454774 157.802 2.8689e-05 157.561C0.0472851 157.321 6.15036 150.604 13.5644 142.639ZM29.8346 133.605L21.0222 142.73C16.1758 147.749 12.201 152.054 12.1888 152.294C12.1783 152.535 60.7858 152.733 120.206 152.733H228.245L213.445 137.811L198.645 122.889H176.352C154.119 122.889 154.042 122.903 148.128 128.112L142.198 133.334L86.0154 133.47L29.8346 133.605Z"/>
<path fill-rule="evenodd" clip-rule="evenodd" d="M96.6848 56.5482L153.081 0L242.444 0L331.806 0L336.836 5.26667L341.867 10.5333L441.851 10.5333L541.835 10.5333L546.865 5.26667L551.895 0L575.633 0.0175727L599.372 0.0333774L611.186 11.4041L623 22.773V63.1754V103.578L384.436 103.578L145.872 103.578L139.84 109.859L133.809 116.141L111.214 115.868L88.6198 115.595C63.7665 115.293 42.7233 114.608 41.8587 114.072C40.9941 113.535 65.6654 87.6514 96.6848 56.5482ZM156.562 5.31231L104.536 56.6325C64.2128 96.4081 53.188 108.198 55.5298 109.053C57.1908 109.659 75.0151 110.295 95.1411 110.465L131.735 110.772L138.085 104.554L144.433 98.3357L381.023 98.2988L617.611 98.2619L618.119 62.2467L618.624 26.2333L608.123 15.8228L597.622 5.41239L576.027 5.14553L554.433 4.87696L548.815 10.3385L543.198 15.8L441.767 15.7719L340.337 15.7438L334.411 10.5053L328.486 5.26667L242.523 5.28949L156.562 5.31231Z"/>
<path d="M291.882 125.556C292.38 125.054 299.565 124.644 307.849 124.644H322.908L338.587 140.444L354.265 156.244H337.788H321.312L306.143 141.356C297.799 133.166 291.381 126.056 291.882 125.556Z"/>
<path d="M372.279 124.809L387.593 124.513L403.309 140.38L419.024 156.244H402.395H385.766L371.365 141.724C363.445 133.738 356.964 126.732 356.964 126.156C356.964 125.578 363.857 124.973 372.279 124.809Z"/>
<path fill-rule="evenodd" clip-rule="evenodd" d="M518.457 122.889L623 122.889V140.444V158H535.892H448.785L431.349 140.444L413.913 122.889H518.457ZM617.749 128.156H523.237C467.905 128.156 428.724 128.816 428.724 129.746C428.724 130.622 434.333 136.547 441.189 142.913L453.653 154.489H535.702H617.749V141.322V128.156Z"/>
</mask>
<path d="M241.923 124.644H258.149L273.828 140.444L289.507 156.244H272.321H255.134L240.414 141.514C232.319 133.413 225.696 126.303 225.696 125.714C225.696 125.125 232.998 124.644 241.923 124.644Z" fill="url(#paint0_linear_30_3583)"/>
<path fill-rule="evenodd" clip-rule="evenodd" d="M13.5644 142.639L27.0447 128.154L84.0376 128.156H141.031L146.061 122.889L151.091 117.622H175.732H200.376L220.446 137.811L240.516 158L120.217 158C54.0509 158 -0.0454774 157.802 2.8689e-05 157.561C0.0472851 157.321 6.15036 150.604 13.5644 142.639ZM29.8346 133.605L21.0222 142.73C16.1758 147.749 12.201 152.054 12.1888 152.294C12.1783 152.535 60.7858 152.733 120.206 152.733H228.245L213.445 137.811L198.645 122.889H176.352C154.119 122.889 154.042 122.903 148.128 128.112L142.198 133.334L86.0154 133.47L29.8346 133.605Z" fill="url(#paint1_linear_30_3583)"/>
<path fill-rule="evenodd" clip-rule="evenodd" d="M96.6848 56.5482L153.081 0L242.444 0L331.806 0L336.836 5.26667L341.867 10.5333L441.851 10.5333L541.835 10.5333L546.865 5.26667L551.895 0L575.633 0.0175727L599.372 0.0333774L611.186 11.4041L623 22.773V63.1754V103.578L384.436 103.578L145.872 103.578L139.84 109.859L133.809 116.141L111.214 115.868L88.6198 115.595C63.7665 115.293 42.7233 114.608 41.8587 114.072C40.9941 113.535 65.6654 87.6514 96.6848 56.5482ZM156.562 5.31231L104.536 56.6325C64.2128 96.4081 53.188 108.198 55.5298 109.053C57.1908 109.659 75.0151 110.295 95.1411 110.465L131.735 110.772L138.085 104.554L144.433 98.3357L381.023 98.2988L617.611 98.2619L618.119 62.2467L618.624 26.2333L608.123 15.8228L597.622 5.41239L576.027 5.14553L554.433 4.87696L548.815 10.3385L543.198 15.8L441.767 15.7719L340.337 15.7438L334.411 10.5053L328.486 5.26667L242.523 5.28949L156.562 5.31231Z" fill="url(#paint2_linear_30_3583)"/>
<path d="M291.882 125.556C292.38 125.054 299.565 124.644 307.849 124.644H322.908L338.587 140.444L354.265 156.244H337.788H321.312L306.143 141.356C297.799 133.166 291.381 126.056 291.882 125.556Z" fill="url(#paint3_linear_30_3583)"/>
<path d="M372.279 124.809L387.593 124.513L403.309 140.38L419.024 156.244H402.395H385.766L371.365 141.724C363.445 133.738 356.964 126.732 356.964 126.156C356.964 125.578 363.857 124.973 372.279 124.809Z" fill="url(#paint4_linear_30_3583)"/>
<path fill-rule="evenodd" clip-rule="evenodd" d="M518.457 122.889L623 122.889V140.444V158H535.892H448.785L431.349 140.444L413.913 122.889H518.457ZM617.749 128.156H523.237C467.905 128.156 428.724 128.816 428.724 129.746C428.724 130.622 434.333 136.547 441.189 142.913L453.653 154.489H535.702H617.749V141.322V128.156Z" fill="url(#paint5_linear_30_3583)"/>
<path d="M241.923 124.644H258.149L273.828 140.444L289.507 156.244H272.321H255.134L240.414 141.514C232.319 133.413 225.696 126.303 225.696 125.714C225.696 125.125 232.998 124.644 241.923 124.644Z" stroke="#D7CC00" stroke-width="2" mask="url(#path-1-inside-1_30_3583)"/>
<path fill-rule="evenodd" clip-rule="evenodd" d="M13.5644 142.639L27.0447 128.154L84.0376 128.156H141.031L146.061 122.889L151.091 117.622H175.732H200.376L220.446 137.811L240.516 158L120.217 158C54.0509 158 -0.0454774 157.802 2.8689e-05 157.561C0.0472851 157.321 6.15036 150.604 13.5644 142.639ZM29.8346 133.605L21.0222 142.73C16.1758 147.749 12.201 152.054 12.1888 152.294C12.1783 152.535 60.7858 152.733 120.206 152.733H228.245L213.445 137.811L198.645 122.889H176.352C154.119 122.889 154.042 122.903 148.128 128.112L142.198 133.334L86.0154 133.47L29.8346 133.605Z" stroke="#D7CC00" stroke-width="2" mask="url(#path-1-inside-1_30_3583)"/>
<path fill-rule="evenodd" clip-rule="evenodd" d="M96.6848 56.5482L153.081 0L242.444 0L331.806 0L336.836 5.26667L341.867 10.5333L441.851 10.5333L541.835 10.5333L546.865 5.26667L551.895 0L575.633 0.0175727L599.372 0.0333774L611.186 11.4041L623 22.773V63.1754V103.578L384.436 103.578L145.872 103.578L139.84 109.859L133.809 116.141L111.214 115.868L88.6198 115.595C63.7665 115.293 42.7233 114.608 41.8587 114.072C40.9941 113.535 65.6654 87.6514 96.6848 56.5482ZM156.562 5.31231L104.536 56.6325C64.2128 96.4081 53.188 108.198 55.5298 109.053C57.1908 109.659 75.0151 110.295 95.1411 110.465L131.735 110.772L138.085 104.554L144.433 98.3357L381.023 98.2988L617.611 98.2619L618.119 62.2467L618.624 26.2333L608.123 15.8228L597.622 5.41239L576.027 5.14553L554.433 4.87696L548.815 10.3385L543.198 15.8L441.767 15.7719L340.337 15.7438L334.411 10.5053L328.486 5.26667L242.523 5.28949L156.562 5.31231Z" stroke="#D7CC00" stroke-width="2" mask="url(#path-1-inside-1_30_3583)"/>
<path d="M291.882 125.556C292.38 125.054 299.565 124.644 307.849 124.644H322.908L338.587 140.444L354.265 156.244H337.788H321.312L306.143 141.356C297.799 133.166 291.381 126.056 291.882 125.556Z" stroke="#D7CC00" stroke-width="2" mask="url(#path-1-inside-1_30_3583)"/>
<path d="M372.279 124.809L387.593 124.513L403.309 140.38L419.024 156.244H402.395H385.766L371.365 141.724C363.445 133.738 356.964 126.732 356.964 126.156C356.964 125.578 363.857 124.973 372.279 124.809Z" stroke="#D7CC00" stroke-width="2" mask="url(#path-1-inside-1_30_3583)"/>
<path fill-rule="evenodd" clip-rule="evenodd" d="M518.457 122.889L623 122.889V140.444V158H535.892H448.785L431.349 140.444L413.913 122.889H518.457ZM617.749 128.156H523.237C467.905 128.156 428.724 128.816 428.724 129.746C428.724 130.622 434.333 136.547 441.189 142.913L453.653 154.489H535.702H617.749V141.322V128.156Z" stroke="#D7CC00" stroke-width="2" mask="url(#path-1-inside-1_30_3583)"/>
<path d="M365.304 75.64V79H343.8V45.4H365.304V48.76H347.832V60.28H362.616V63.64H347.832V75.64H365.304ZM387.146 76.024H387.338C387.338 75.832 387.434 75.416 387.626 74.776L396.746 45.4H401.018L389.882 79H384.602L373.466 45.4H377.738L386.858 74.776C387.05 75.416 387.146 75.832 387.146 76.024Z" fill="white"/>
<defs>
<linearGradient id="paint0_linear_30_3583" x1="311.5" y1="0" x2="311.5" y2="158" gradientUnits="userSpaceOnUse">
<stop stop-color="#C51C07"/>
<stop offset="1" stop-color="#B56210"/>
</linearGradient>
<linearGradient id="paint1_linear_30_3583" x1="311.5" y1="0" x2="311.5" y2="158" gradientUnits="userSpaceOnUse">
<stop stop-color="#C51C07"/>
<stop offset="1" stop-color="#B56210"/>
</linearGradient>
<linearGradient id="paint2_linear_30_3583" x1="311.5" y1="0" x2="311.5" y2="158" gradientUnits="userSpaceOnUse">
<stop stop-color="#C51C07"/>
<stop offset="1" stop-color="#B56210"/>
</linearGradient>
<linearGradient id="paint3_linear_30_3583" x1="311.5" y1="0" x2="311.5" y2="158" gradientUnits="userSpaceOnUse">
<stop stop-color="#C51C07"/>
<stop offset="1" stop-color="#B56210"/>
</linearGradient>
<linearGradient id="paint4_linear_30_3583" x1="311.5" y1="0" x2="311.5" y2="158" gradientUnits="userSpaceOnUse">
<stop stop-color="#C51C07"/>
<stop offset="1" stop-color="#B56210"/>
</linearGradient>
<linearGradient id="paint5_linear_30_3583" x1="311.5" y1="0" x2="311.5" y2="158" gradientUnits="userSpaceOnUse">
<stop stop-color="#C51C07"/>
<stop offset="1" stop-color="#B56210"/>
</linearGradient>
</defs>
</svg>
