<svg width="638" height="638" viewBox="0 0 638 638" fill="none" xmlns="http://www.w3.org/2000/svg">
<path d="M567.596 389.404C606.479 252.108 526.7 109.287 389.404 70.4037C252.108 31.5208 109.287 111.3 70.4038 248.596C31.5208 385.892 111.3 528.713 248.596 567.596C385.892 606.479 528.713 526.7 567.596 389.404Z" fill="#C51C07"/>
<path d="M610.816 323.762C611.37 354.589 606.6 385.868 596.5 414.653C586.552 443.452 572.813 470.304 556.112 493.357L565.549 479.158C567.081 476.766 568.743 474.454 570.158 471.996L574.184 464.492L582.148 449.454C584.634 444.371 586.611 439.04 588.842 433.833C585.633 441.694 582.498 449.243 578.355 456.127C574.308 463.033 570.909 470.158 566.176 476.467C561.574 482.862 556.914 489.229 551.992 495.603C546.559 501.59 540.921 507.636 534.992 513.857C537.362 509.036 542.453 502.743 547.04 496.828C551.693 490.979 554.843 484.773 555.04 481.681C577.983 448.273 594.728 410.518 603.647 370.786C612.719 331.099 613.383 289.37 605.543 249.441C609.758 256.72 611.26 263.991 612.69 270.671C613.988 277.387 614.44 283.696 613.82 289.756C613.011 301.869 611.297 312.502 610.816 323.762Z" fill="#C51C07"/>
<path d="M462.509 567.628C469.32 563.157 475.949 558.811 482.498 554.516C475.716 559.358 468.934 564.054 462.509 567.628Z" fill="#C51C07"/>
<path d="M246.86 70.2808C242.922 71.7467 238.831 72.7312 235.038 74.5033C231.202 76.1296 227.396 77.7486 223.654 79.3312C227.308 77.4642 231.093 75.7577 234.929 74.1168C238.736 72.3957 242.878 71.5789 246.86 70.2808Z" fill="#C51C07"/>
<path d="M574.757 224.291C572.474 220.2 570.338 216.058 568.252 211.821C555.03 179.171 535.478 148.315 509.938 121.813C516.684 129.2 524.262 136.034 530.446 144.238C533.706 148.198 536.98 152.173 540.262 156.155C543.5 160.173 546.125 164.651 549.057 168.903C551.894 173.227 554.789 177.523 557.466 181.928L564.321 195.769C566.407 200.451 568.937 204.907 570.396 209.801C571.971 214.643 573.43 219.478 574.757 224.291Z" fill="#C51C07"/>
<path d="M578.489 262.604C586.424 296.924 585.14 333.76 575.688 365.374C584.301 333.599 585.512 297.682 578.489 262.604Z" fill="#C51C07"/>
<path d="M110.72 255.167C111.413 255.255 111.734 255.926 111.894 256.823C111.806 257.691 111.828 258.5 112.011 259.215C110.785 261.869 109.859 264.611 109.123 267.412L106.607 275.755C105.812 278.548 104.769 281.312 104.127 284.149L102.413 292.711C102.399 289.801 101.436 286.935 101.72 283.959C103.391 277.651 105.454 274.078 106.877 270.227C108.328 266.362 109.327 262.27 110.72 255.167Z" fill="#C51C07"/>
<path d="M255.786 67.5311L256.545 66.9404C259.279 65.9996 261.956 64.9713 264.742 64.439C265.092 64.4463 265.405 64.4535 265.799 64.4681C262.423 65.263 259.126 66.4445 255.786 67.5311Z" fill="#C51C07"/>
<path d="M115.738 241.206C117.021 241.447 118.32 241.687 119.669 241.148C116.664 246.923 114.717 253.115 112.077 259.095C112.055 258.278 112.026 257.491 111.909 256.834C112.471 252.444 115.497 246.296 115.738 241.206Z" fill="#C51C07"/>
<path d="M216.096 138.824C219.64 136.979 221.602 133.048 223.017 131.582C233.001 127.826 243.524 126.09 255.193 122.728C256.812 121.613 260.626 120.504 263.915 118.2C266.358 118.601 268.896 118.812 271.507 118.878C245.573 124.676 219.946 135.578 196.405 151.564C202.597 147.167 209.146 142.893 216.096 138.824Z" fill="#C51C07"/>
<path d="M435.501 533.288C430.914 535.892 426.167 538.444 421.317 540.946C416.46 543.447 411.107 544.993 405.922 547.013C395.617 551.338 384.342 553.176 373.505 556.1C367.955 556.997 362.413 557.901 356.914 558.791L348.71 560.235C345.96 560.498 343.218 560.76 340.491 561.015C335.043 561.548 329.661 562.445 324.337 563.101C318.999 563.451 313.726 563.991 308.512 564.749C314.558 565.34 320.946 566.259 327.488 566.521C334.066 566.492 340.768 566.463 347.463 566.434C360.779 565.333 374.278 564.392 386.18 561.774C398.352 560.096 408.832 556.997 417.364 555.655C425.992 554.539 431.921 553.336 434.947 555.137C437.915 556.793 435.458 559.717 429.405 563.51C423.118 566.733 413.149 570.591 401.553 574.113C377.998 580.764 347.754 582.784 327.371 583.805C332.863 584.6 332.862 584.6 338.339 585.388C332.804 584.454 327.393 584.134 322.58 585.162C328.027 586.628 336.093 586.715 343.692 587.62C351.313 588.633 358.351 588.823 361.706 590.092C358.555 591.499 355.397 593.089 352.159 594.344C359.554 595.43 368.583 595.467 378.53 595.255C388.375 594.599 398.935 592.688 409.678 591.033C420.055 588.298 430.754 585.906 440.497 583.069C450.08 579.897 459.137 577.162 467.028 575.448C431.126 588.145 391.643 597.844 349.906 599.376C308.3 601.089 264.762 595.219 223.222 580.203C181.858 564.881 143.067 539.75 111.825 507.173C80.6626 474.508 58.2153 434.121 46.2186 392.15C16.7994 298.817 32.9092 197.513 84.5132 119.903C87.1605 116.424 90.413 111.392 95.3284 106.571C100.127 101.641 105.721 96.128 111.686 90.4469C124.259 79.8504 138.458 68.5976 151.571 61.2975C173.011 45.5596 197.172 33.9787 221.902 23.7177L240.958 17.3L250.534 14.1349L260.321 11.7575L279.982 7.02442L299.965 3.8958L310.692 2.72169L321.442 2.51749C328.611 2.48832 335.801 2.26953 342.948 2.62688C357.191 4.00522 371.544 4.98244 385.466 8.42465C399.599 10.9334 413.185 15.557 426.794 20.1077C433.598 22.3758 440.052 25.6138 446.674 28.4142C453.281 31.273 459.845 34.2266 466.051 37.9532C472.316 41.5267 478.602 45.1075 484.903 48.6956C490.847 52.8525 496.805 57.0166 502.778 61.1954C508.86 65.221 514.41 69.9905 519.952 74.7965C525.422 79.6754 531.314 84.1313 536.412 89.4769C557.678 110.043 575.99 133.927 592.136 159.896C598.124 170.544 602.142 184.743 601.034 189.41C599.765 194.224 594.04 189.469 578.871 165.096C551.238 126.174 516.393 92.5836 476.144 67.2192C482.518 67.4891 500.641 81.4402 510.012 86.8369C483.729 62.8946 457.927 46.9307 425.029 34.6642L441.285 41.3298C446.667 43.6343 452.195 45.6544 457.285 48.5788C467.604 54.1432 478.223 59.2263 487.813 66.0816C463.185 50.2124 435.254 36.1883 404.777 27.9256C374.475 19.342 342.154 15.3893 310.248 17.0593C304.428 17.5261 298.754 17.2927 292.949 16.8551C287.151 16.4613 281.178 15.5643 274.994 15.9435C268.788 16.104 262.253 16.5999 255.318 17.9418C248.368 19.1815 241.287 22.4633 233.782 26.4962C274.629 16.5342 317.73 15.3747 359.168 22.5654C400.605 29.7853 440.621 44.8814 476.144 67.2192C475.977 67.2047 475.787 67.1682 475.648 67.1974C507.722 86.5306 532.707 110.495 554.666 139.01C547.235 130.557 539.935 121.85 533.152 114.652L539.584 122.076C541.597 124.65 543.457 127.356 545.397 129.974L556.868 145.734C560.362 151.181 563.578 156.797 566.933 162.288C570.273 167.794 573.671 173.242 576.275 179.135L584.647 196.433C587.418 202.195 589.3 208.364 591.641 214.301C596.571 226.13 599.4 238.637 602.704 250.962C591.517 216.605 574.845 183.627 552.741 154.208C530.76 124.708 503.317 98.695 471.856 78.7419C440.453 58.745 405.112 44.8303 368.78 38.42C332.476 31.944 295.21 33.0671 260.758 41.5194C265.812 41.359 270.99 40.9652 276.27 40.4109C278.903 40.0973 281.565 39.7764 284.256 39.4555C286.969 39.3097 289.696 39.1638 292.453 39.018C297.952 38.6023 303.523 38.1793 309.124 37.7564C314.725 37.3698 320.363 37.6542 325.964 37.574C348.352 37.2677 370.224 41.0381 385.976 48.4184C324.111 32.5201 256.536 38.7554 196.37 66.0378C200.542 63.4051 204.611 60.787 208.921 58.5992C203.845 59.8316 199.069 61.9101 194.277 64.0396C189.471 66.1472 184.665 68.3788 179.881 70.6907C170.459 75.5768 161.686 81.8341 152.708 87.6464C144.358 94.3631 135.942 101.043 128.08 108.161C124.303 111.902 120.547 115.622 116.806 119.319C113.043 122.987 109.221 126.561 105.947 130.586C103.467 133.358 101.017 136.1 98.5299 138.886C100.988 136.136 103.467 133.358 105.947 130.586C132.084 102.808 163.181 81.1413 196.37 66.0378C181.879 74.5048 166.71 83.5114 149.31 95.6539C154.356 92.817 160.781 89.878 167.505 86.3483C174.237 82.8332 181.238 78.6544 188.895 75.6716L203.226 68.5028C207.959 66.0305 213.129 64.5209 218.059 62.5154C223.055 60.6703 227.992 58.6648 233.031 57.0021L248.404 52.9399C216.921 61.6694 187.779 76.9187 165.733 96.1134C202.912 73.6807 245.451 57.4178 288.646 53.9683C265.28 57.6876 242.023 62.9749 220.531 72.7545C183.506 86.3994 148.741 108.38 120.715 138.032C121.604 136.749 122.735 135.662 123.77 134.51C121.495 136.625 119.643 139.126 117.681 141.511C112.598 147.63 106.968 153.377 102.322 159.904C97.7788 166.496 92.9655 172.972 88.6701 179.784C85.2643 186.172 82.1794 192.663 79.328 199.161C76.6296 205.732 74.9158 212.674 72.9103 219.362C71.9987 221.55 71.0944 223.716 70.1974 225.882C70.985 221.426 70.5912 218.881 66.9594 226.808C63.5244 235.413 59.776 244.267 57.661 253.733C55.816 263.25 53.1614 272.833 52.6144 282.904C52.1112 287.9 51.6007 292.932 51.0829 298.008C50.5943 303.083 50.7839 308.239 50.4922 313.41C50.4193 318.588 49.7556 323.817 49.9088 329.082C50.0109 334.348 50.0036 339.671 49.8504 345.083C49.4566 350.786 50.463 357.356 51.8924 364.496C53.2708 371.643 54.7877 379.41 57.734 387.111C58.1278 391.611 59.2509 393.747 60.6073 395.52C61.8325 398.823 62.7441 402.28 64.2246 405.525C67.5136 413.548 70.6422 421.701 74.6168 429.205C71.3132 421.482 67.8564 413.482 64.2246 405.525C62.9629 402.521 62.2628 399.341 61.2199 396.3C62.7733 398.145 64.2829 400.107 65.9019 404.577C47.7428 347.934 49.1649 283.743 70.1901 225.874C69.8984 229.689 69.1764 234.939 69.0889 237.171C70.0734 231.191 71.0288 225.138 72.903 219.355C76.6953 210.173 80.2833 200.875 85.2279 192.211L92.1633 178.967L100.207 166.343C97.4069 171.645 94.9929 176.662 93.5344 181.388C123.632 133.941 167.68 94.6111 220.509 72.7399C226.869 70.6615 232.958 67.8684 239.485 66.4317L258.826 61.6622C265.309 60.3203 271.916 59.6566 278.429 58.6357C284.927 57.4542 291.52 57.2062 298.09 56.9583C311.21 55.8206 324.308 57.0166 337.318 57.6C350.241 59.5253 363.186 60.911 375.715 64.4553C349.198 55.208 318.984 51.124 288.624 53.9463C328.771 48.8268 370.289 53.0639 408.664 66.5483C447.17 79.7556 481.782 103.523 508.729 133.336C505.476 131.447 502.056 129.288 498.628 127.093C495.186 124.913 491.284 123.155 487.754 121.31C480.491 117.861 474.183 114.535 468.881 114.433C468.312 116.285 486.099 133.051 474.387 124.964C452.034 111.939 433.131 101.269 416.015 95.4716C411.785 93.9547 407.767 92.5763 403.938 91.4241C399.971 90.6365 396.201 90.0457 392.642 89.703C385.517 88.9956 379.201 89.2508 373.476 91.92C372.338 92.6639 374.614 94.7715 378.253 97.448C381.775 100.555 386.589 104.383 390.87 107.964C392.999 109.787 395.048 111.421 396.667 113.135C398.257 114.929 399.533 116.526 400.299 117.802C401.831 120.355 401.349 121.66 397.426 120.727C394.304 119.509 390.337 118.714 385.94 117.656C381.513 116.701 376.751 115.067 371.412 114.163C366.052 113.339 360.364 112.391 354.457 111.312C348.469 110.816 342.241 110.298 335.896 109.773C328.625 108.766 320.99 108.825 313.106 108.387C312.122 108.198 310.495 109.146 308.475 110.218C281.12 112.158 255.931 119.275 242.439 124.431C237.298 126.028 232.142 127.553 227.365 129.996C224.535 130.579 221.924 130.776 219.627 130.477C217.104 133 214.23 134.846 211.7 137.23C205.574 140.979 199.178 144.341 193.22 148.286C187.59 152.647 181.653 156.644 176.206 161.187L166.441 168.137C163.152 170.456 159.746 172.702 156.975 175.554C157.762 176.021 159.469 175.846 159.17 177.596L150.375 187.638C147.268 190.854 145.138 194.807 142.447 198.337C140.011 202.041 137.021 205.396 134.979 209.349L128.438 220.944C126.031 223.759 124.047 226.662 122.013 229.389C119.927 232.095 117.739 234.611 115.427 236.93C115.019 242.101 114.487 248.774 112.809 256.015C110.767 263.17 109.724 271.513 107.653 279.994C106.435 284.21 106.326 288.709 105.575 293.121C105.079 297.563 104.014 301.982 103.905 306.416C103.817 315.262 102.701 323.933 104.058 331.642L104.35 331.584L105.115 343.289C105.261 347.212 106.326 351.026 106.851 354.928L108.754 366.618L111.876 378.112C111.832 380.861 111.628 383.552 111.249 386.17C113.633 389.576 115.508 393.325 116.777 394.958C119.912 407.422 123.851 417.602 127.278 428.352C128.744 429.832 133.215 431.553 135.504 435.061C137.736 438.649 139.924 442.172 142.09 445.65C144.489 448.954 147.217 451.937 149.733 455.007C152.657 458.617 155.035 462.781 158.397 466.092C161.576 469.585 164.778 473.101 167.994 476.638C190.069 500.142 217.279 518.425 247.092 530.845C247.748 532.121 247.588 533.405 247.442 534.696C252.831 534.506 259.059 538.473 263.821 538.291C262.866 538.524 262.202 538.911 262.173 539.596C277.335 540.559 279.253 544.803 292.737 547.152C295.8 547.465 298.761 546.546 301.766 546.546C303.217 546.926 304.705 546.948 306.2 547.123C309.949 548.618 313.785 549.646 317.672 550.368C321.566 551.068 325.519 551.651 329.508 551.287C333.497 551.104 337.537 550.754 341.658 550.39C343.714 550.207 345.8 550.018 347.9 549.828C349.979 549.449 352.086 549.07 354.216 548.683C362.851 547.903 371.631 547.422 380.142 545.401L393.116 542.966L405.791 539.21C419.363 535.527 425.357 535.483 435.501 533.288Z" fill="#C51C07"/>
<path d="M101.573 296.9C98.5539 311.909 97.5402 327.282 97.6277 342.757C96.2567 326.378 94.2147 311.026 101.573 296.9Z" fill="#C51C07"/>
<path d="M406.035 128.371C410.506 132.477 415.064 137.582 420.577 141.732L408.755 135.022L396.285 129.596C394.199 128.714 392.172 127.664 390.042 126.891L383.551 124.812C379.212 123.492 374.961 121.8 370.556 120.67C361.629 118.89 352.834 116.258 343.667 115.616C339.116 115.23 334.595 114.063 329.993 114.194L316.18 113.8L316.137 113.501C319.849 113.53 323.75 113.559 327.791 113.596C329.811 113.669 331.867 113.596 333.938 113.815C335.995 114.114 338.081 114.413 340.181 114.719C344.374 115.295 348.619 115.886 352.849 116.469C356.998 117.519 361.141 118.519 365.21 119.408C369.301 120.225 373.298 121.064 377.01 122.34C380.773 123.441 384.427 124.382 387.92 125.119C394.892 126.635 400.799 128.51 406.035 128.371Z" fill="#C51C07"/>
<path d="M111.901 256.847C112.018 257.503 112.047 258.291 112.069 259.107L112.018 259.239C111.843 258.517 111.814 257.714 111.901 256.847Z" fill="#C51C07"/>
<path d="M498.5 133.058L501.549 136.282C493.629 128.304 484.155 122.09 475.47 115.06C479.204 117.532 483.054 120.303 486.97 123.272C490.887 126.232 494.963 129.295 498.5 133.058Z" fill="#C51C07"/>
<path d="M560.22 234.993C567.658 256.339 573.609 278.582 575.039 301.379C576.104 330.682 571.363 359.54 561.35 384.7C568.111 360.648 571.757 335.656 571.983 310.335C571.866 285 567.615 259.65 560.22 234.993Z" fill="#C51C07"/>
<path d="M462.651 170.781C467.085 177.031 471.826 182.982 475.253 189.954C471.06 183.587 465.503 178.497 460.515 172.889C462.126 173.268 462.134 171.547 462.651 170.781Z" fill="#C51C07"/>
<path d="M419.217 84.0162L425.504 86.6343C419.881 85.1174 414.222 83.5932 408.562 82.0763C410.707 82.3315 415.629 83.4619 419.217 84.0162Z" fill="#C51C07"/>
<path d="M502.939 239.907C501.349 234.634 498.563 229.865 496.492 224.797C498.417 227.458 500.547 230.004 502.961 232.49C502.618 234.635 502.83 237.078 502.939 239.907Z" fill="#C51C07"/>
<path d="M519.426 322.508C519.258 326.256 519.258 329.953 518.966 333.571C518.375 337.151 517.792 340.674 517.216 344.131C517.464 339.813 518.171 335.489 518.2 331.113C518.171 326.745 518.135 322.354 518.106 318.008C518.952 319.977 519.717 321.567 519.426 322.508Z" fill="#C51C07"/>
<path d="M140.555 292.656H92.955V304.726H140.555V315.776H92.955V327.846H140.555V340.001H77.655V280.501H140.555V292.656ZM215.947 280.501H233.117L202.517 340.001H181.607L151.007 280.501H168.177L192.062 328.696L215.947 280.501ZM306.474 292.656H258.874V304.726H306.474V315.776H258.874V327.846H306.474V340.001H243.574V280.501H306.474V292.656ZM380.226 280.501H395.526V340.001H374.701L334.156 295.376V340.001H318.856V280.501H339.596L380.226 325.211V280.501ZM480.499 280.501V293.336H451.599V340.001H436.299V293.336H407.399V280.501H480.499ZM489.155 319.516H504.455C504.455 325.806 509.555 328.696 528.935 328.696C545 328.696 549.845 326.911 549.845 322.236C549.845 317.306 546.445 316.456 527.15 315.521C501.225 314.331 490.94 310.251 490.94 296.906C490.94 283.816 504.285 279.651 526.555 279.651C548.995 279.651 562.595 285.261 562.595 299.966H547.295C547.295 293.421 540.75 291.806 524.855 291.806C509.81 291.806 506.24 293.251 506.24 297.671C506.24 302.261 509.81 303.111 527.15 304.131C550.61 305.406 565.145 306.681 565.145 321.726C565.145 337.621 550.1 340.851 528.085 340.851C503.69 340.851 489.155 336.686 489.155 319.516Z" fill="black"/>
</svg>
