<svg width="69" height="69" viewBox="0 0 69 69" fill="none" xmlns="http://www.w3.org/2000/svg">
<rect x="34.2227" y="0.711013" width="47.4" height="47.4" rx="5.5" transform="rotate(45 34.2227 0.711013)" fill="#DD2626" fill-opacity="0.1"/>
<rect x="34.2227" y="0.711013" width="47.4" height="47.4" rx="5.5" transform="rotate(45 34.2227 0.711013)" stroke="#DD2626"/>
<g clip-path="url(#clip0_122_936)">
<g clip-path="url(#clip1_122_936)">
<path d="M41.4107 25.7207H27.0277C26.5075 25.7207 26.0087 25.9127 25.6409 26.2544C25.273 26.5961 25.0664 27.0596 25.0664 27.5428V40.905C25.0664 41.3883 25.273 41.8518 25.6409 42.1935C26.0087 42.5352 26.5075 42.7272 27.0277 42.7272H32.6358V36.9453H30.0616V34.2239H32.6358V32.1497C32.6358 29.7905 34.1477 28.4873 36.4632 28.4873C37.5722 28.4873 38.7318 28.671 38.7318 28.671V30.9866H37.4541C36.1952 30.9866 35.8025 31.7124 35.8025 32.4569V34.2239H38.6129L38.1635 36.9453H35.8025V42.7272H41.4107C41.9308 42.7272 42.4297 42.5352 42.7975 42.1935C43.1653 41.8518 43.372 41.3883 43.372 40.905V27.5428C43.372 27.0596 43.1653 26.5961 42.7975 26.2544C42.4297 25.9127 41.9308 25.7207 41.4107 25.7207Z" fill="white"/>
</g>
</g>
<defs>
<clipPath id="clip0_122_936">
<rect width="18.7" height="17.6" fill="white" transform="translate(24.8711 25.4238)"/>
</clipPath>
<clipPath id="clip1_122_936">
<rect width="18.7" height="17.6" fill="white" transform="translate(24.8711 25.4238)"/>
</clipPath>
</defs>
</svg>
