<svg width="175" height="58" viewBox="0 0 175 58" fill="none" xmlns="http://www.w3.org/2000/svg">
<path d="M138.144 9.30812C137.56 9.30812 137.086 8.85089 137.086 8.28687C137.086 7.72286 137.56 7.26562 138.144 7.26562C138.729 7.26562 139.203 7.72286 139.203 8.28687C139.203 8.85089 138.729 9.30812 138.144 9.30812Z" fill="#FDE49F" stroke="black" stroke-width="1.35241"/>
<path d="M131.68 8.28687C131.68 8.85131 131.206 9.30812 130.621 9.30812C130.036 9.30812 129.562 8.85131 129.562 8.28687C129.562 7.72244 130.036 7.26562 130.621 7.26562C131.206 7.26562 131.68 7.72244 131.68 8.28687Z" fill="#FDE49F" stroke="black" stroke-width="1.35241"/>
<path d="M124.582 8.28687C124.582 8.85131 124.108 9.30812 123.523 9.30812C122.938 9.30812 122.464 8.85131 122.464 8.28687C122.464 7.72244 122.938 7.26562 123.523 7.26562C124.108 7.26562 124.582 7.72244 124.582 8.28687Z" fill="#FDE49F" stroke="black" stroke-width="1.35241"/>
<path d="M1.11758 56.9139L167.088 56.8111L167.073 35.9772L174.289 35.9629V0.929688L8.29111 0.929688L1.10765 8.07837L1.00104 23.9208L6.30246 23.9041L6.29501 27.085L1.00351 27.0898L1.11758 56.9187V56.9139ZM164.968 54.7686L3.22772 54.869L3.12856 29.1251L8.40765 29.1203L8.42253 21.8472L3.13103 21.864L3.21782 8.90588L9.18625 2.9674L172.171 2.9674V33.918L164.956 33.9324L164.971 54.7638L164.968 54.7686Z" fill="#FDE49F"/>
<path d="M164.968 54.7686L3.22772 54.869L3.12856 29.1251L8.40765 29.1203L8.42253 21.8472L3.13103 21.864L3.21782 8.90588L9.18625 2.9674L172.171 2.9674V33.918L164.956 33.9324L164.971 54.7638L164.968 54.7686Z" fill="#FDE49F"/>
<path d="M1.11758 56.9139L167.088 56.8111L167.073 35.9772L174.289 35.9629V0.929688L8.29111 0.929688L1.10765 8.07837L1.00104 23.9208L6.30246 23.9041L6.29501 27.085L1.00351 27.0898L1.11758 56.9187V56.9139ZM164.968 54.7686L3.22772 54.869L3.12856 29.1251L8.40765 29.1203L8.42253 21.8472L3.13103 21.864L3.21782 8.90588L9.18625 2.9674L172.171 2.9674V33.918L164.956 33.9324L164.971 54.7638L164.968 54.7686Z" stroke="black" stroke-width="1.35241"/>
<path d="M164.968 54.7686L3.22772 54.869L3.12856 29.1251L8.40765 29.1203L8.42253 21.8472L3.13103 21.864L3.21782 8.90588L9.18625 2.9674L172.171 2.9674V33.918L164.956 33.9324L164.971 54.7638L164.968 54.7686Z" stroke="black" stroke-width="1.35241"/>
<path d="M35.5253 45.1797L41.165 50.6175H42.3203V49.818L37.5096 45.1797H35.5253Z" fill="#FDE49F" stroke="black" stroke-width="1.02293"/>
<path d="M39.4733 45.1797L42.3203 47.9239V46.01L41.4594 45.1797H39.4733Z" fill="#FDE49F" stroke="black" stroke-width="1.02293"/>
<path d="M31.5654 45.1797L37.2032 50.6175H39.1875L33.5497 45.1797H31.5654Z" fill="#FDE49F" stroke="black" stroke-width="1.02293"/>
<path d="M27.6279 45.1797L33.2657 50.6175H35.25L29.6122 45.1797H27.6279Z" fill="#FDE49F" stroke="black" stroke-width="1.02293"/>
<path d="M23.667 45.1797L29.3048 50.6175H31.2891L25.6494 45.1797H23.667Z" fill="#FDE49F" stroke="black" stroke-width="1.02293"/>
<path d="M19.6904 45.1797L25.3282 50.6175H27.3125L21.6747 45.1797H19.6904Z" fill="#FDE49F" stroke="black" stroke-width="1.02293"/>
<path d="M15.7276 45.1797L21.3654 50.6175H23.3516L17.7119 45.1797H15.7276Z" fill="#FDE49F" stroke="black" stroke-width="1.02293"/>
<path d="M11.792 45.1797L17.4317 50.6175H19.4141L13.7763 45.1797H11.792Z" fill="#FDE49F" stroke="black" stroke-width="1.02293"/>
<path d="M8.69004 45.1797V46.0082L13.4688 50.6175H15.4531L9.81534 45.1797H8.69004Z" fill="#FDE49F" stroke="black" stroke-width="1.02293"/>
<path d="M8.69267 47.8984V49.8142L9.52352 50.6138H11.5078L8.69267 47.8984Z" fill="#FDE49F" stroke="black" stroke-width="1.02293"/>
<path d="M166.051 28.9206H167.109V7.77344L145.185 7.77344V8.79469L166.051 8.79469V28.9206Z" fill="#FDE49F" stroke="black" stroke-width="1.35241"/>
<path d="M8.68816 39.6172H12.2266V43.0301H8.68816V39.6172Z" fill="#FDE49F" stroke="black" stroke-width="1.35241"/>
<path d="M169.322 38.1953H174.301V56.8408H169.322V38.1953Z" fill="#FDE49F" stroke="black" stroke-width="1.35241"/>
<mask id="path-18-outside-1_435_2024" maskUnits="userSpaceOnUse" x="48" y="19" width="81" height="20" fill="black">
<rect fill="white" x="48" y="19" width="81" height="20"/>
<path d="M62.024 20.2H63.776V37H62.024V20.2ZM51.512 37H49.736V20.2H51.512V37ZM62.192 29.248H51.32V27.688H62.192V29.248ZM75.9554 37.12C74.7394 37.12 73.6434 36.848 72.6674 36.304C71.7074 35.744 70.9474 34.984 70.3874 34.024C69.8274 33.048 69.5474 31.936 69.5474 30.688C69.5474 29.424 69.8274 28.312 70.3874 27.352C70.9474 26.392 71.7074 25.64 72.6674 25.096C73.6274 24.552 74.7234 24.28 75.9554 24.28C77.2034 24.28 78.3074 24.552 79.2674 25.096C80.2434 25.64 81.0034 26.392 81.5474 27.352C82.1074 28.312 82.3874 29.424 82.3874 30.688C82.3874 31.936 82.1074 33.048 81.5474 34.024C81.0034 34.984 80.2434 35.744 79.2674 36.304C78.2914 36.848 77.1874 37.12 75.9554 37.12ZM75.9554 35.608C76.8674 35.608 77.6754 35.408 78.3794 35.008C79.0834 34.592 79.6354 34.016 80.0354 33.28C80.4514 32.528 80.6594 31.664 80.6594 30.688C80.6594 29.696 80.4514 28.832 80.0354 28.096C79.6354 27.36 79.0834 26.792 78.3794 26.392C77.6754 25.976 76.8754 25.768 75.9794 25.768C75.0834 25.768 74.2834 25.976 73.5794 26.392C72.8754 26.792 72.3154 27.36 71.8994 28.096C71.4834 28.832 71.2754 29.696 71.2754 30.688C71.2754 31.664 71.4834 32.528 71.8994 33.28C72.3154 34.016 72.8754 34.592 73.5794 35.008C74.2834 35.408 75.0754 35.608 75.9554 35.608ZM103.53 24.28C104.554 24.28 105.442 24.48 106.194 24.88C106.962 25.264 107.554 25.856 107.97 26.656C108.402 27.456 108.618 28.464 108.618 29.68V37H106.914V29.848C106.914 28.52 106.594 27.52 105.954 26.848C105.33 26.16 104.442 25.816 103.29 25.816C102.426 25.816 101.674 26 101.034 26.368C100.41 26.72 99.9223 27.24 99.5703 27.928C99.2343 28.6 99.0663 29.416 99.0663 30.376V37H97.3623V29.848C97.3623 28.52 97.0423 27.52 96.4023 26.848C95.7623 26.16 94.8663 25.816 93.7143 25.816C92.8663 25.816 92.1223 26 91.4823 26.368C90.8423 26.72 90.3463 27.24 89.9943 27.928C89.6583 28.6 89.4903 29.416 89.4903 30.376V37H87.7863V24.4H89.4183V27.808L89.1543 27.208C89.5383 26.296 90.1543 25.584 91.0023 25.072C91.8663 24.544 92.8823 24.28 94.0503 24.28C95.2823 24.28 96.3303 24.592 97.1943 25.216C98.0583 25.824 98.6183 26.744 98.8743 27.976L98.2023 27.712C98.5703 26.688 99.2183 25.864 100.146 25.24C101.09 24.6 102.218 24.28 103.53 24.28ZM120.511 37.12C119.199 37.12 118.047 36.848 117.055 36.304C116.063 35.744 115.287 34.984 114.727 34.024C114.167 33.048 113.887 31.936 113.887 30.688C113.887 29.44 114.151 28.336 114.679 27.376C115.223 26.416 115.959 25.664 116.887 25.12C117.831 24.56 118.887 24.28 120.055 24.28C121.239 24.28 122.287 24.552 123.199 25.096C124.127 25.624 124.855 26.376 125.383 27.352C125.911 28.312 126.175 29.424 126.175 30.688C126.175 30.768 126.167 30.856 126.151 30.952C126.151 31.032 126.151 31.12 126.151 31.216H115.183V29.944H125.239L124.567 30.448C124.567 29.536 124.367 28.728 123.967 28.024C123.583 27.304 123.055 26.744 122.383 26.344C121.711 25.944 120.935 25.744 120.055 25.744C119.191 25.744 118.415 25.944 117.727 26.344C117.039 26.744 116.503 27.304 116.119 28.024C115.735 28.744 115.543 29.568 115.543 30.496V30.76C115.543 31.72 115.751 32.568 116.167 33.304C116.599 34.024 117.191 34.592 117.943 35.008C118.711 35.408 119.583 35.608 120.559 35.608C121.327 35.608 122.039 35.472 122.695 35.2C123.367 34.928 123.943 34.512 124.423 33.952L125.383 35.056C124.823 35.728 124.119 36.24 123.271 36.592C122.439 36.944 121.519 37.12 120.511 37.12Z"/>
</mask>
<path d="M62.024 20.2H63.776V37H62.024V20.2ZM51.512 37H49.736V20.2H51.512V37ZM62.192 29.248H51.32V27.688H62.192V29.248ZM75.9554 37.12C74.7394 37.12 73.6434 36.848 72.6674 36.304C71.7074 35.744 70.9474 34.984 70.3874 34.024C69.8274 33.048 69.5474 31.936 69.5474 30.688C69.5474 29.424 69.8274 28.312 70.3874 27.352C70.9474 26.392 71.7074 25.64 72.6674 25.096C73.6274 24.552 74.7234 24.28 75.9554 24.28C77.2034 24.28 78.3074 24.552 79.2674 25.096C80.2434 25.64 81.0034 26.392 81.5474 27.352C82.1074 28.312 82.3874 29.424 82.3874 30.688C82.3874 31.936 82.1074 33.048 81.5474 34.024C81.0034 34.984 80.2434 35.744 79.2674 36.304C78.2914 36.848 77.1874 37.12 75.9554 37.12ZM75.9554 35.608C76.8674 35.608 77.6754 35.408 78.3794 35.008C79.0834 34.592 79.6354 34.016 80.0354 33.28C80.4514 32.528 80.6594 31.664 80.6594 30.688C80.6594 29.696 80.4514 28.832 80.0354 28.096C79.6354 27.36 79.0834 26.792 78.3794 26.392C77.6754 25.976 76.8754 25.768 75.9794 25.768C75.0834 25.768 74.2834 25.976 73.5794 26.392C72.8754 26.792 72.3154 27.36 71.8994 28.096C71.4834 28.832 71.2754 29.696 71.2754 30.688C71.2754 31.664 71.4834 32.528 71.8994 33.28C72.3154 34.016 72.8754 34.592 73.5794 35.008C74.2834 35.408 75.0754 35.608 75.9554 35.608ZM103.53 24.28C104.554 24.28 105.442 24.48 106.194 24.88C106.962 25.264 107.554 25.856 107.97 26.656C108.402 27.456 108.618 28.464 108.618 29.68V37H106.914V29.848C106.914 28.52 106.594 27.52 105.954 26.848C105.33 26.16 104.442 25.816 103.29 25.816C102.426 25.816 101.674 26 101.034 26.368C100.41 26.72 99.9223 27.24 99.5703 27.928C99.2343 28.6 99.0663 29.416 99.0663 30.376V37H97.3623V29.848C97.3623 28.52 97.0423 27.52 96.4023 26.848C95.7623 26.16 94.8663 25.816 93.7143 25.816C92.8663 25.816 92.1223 26 91.4823 26.368C90.8423 26.72 90.3463 27.24 89.9943 27.928C89.6583 28.6 89.4903 29.416 89.4903 30.376V37H87.7863V24.4H89.4183V27.808L89.1543 27.208C89.5383 26.296 90.1543 25.584 91.0023 25.072C91.8663 24.544 92.8823 24.28 94.0503 24.28C95.2823 24.28 96.3303 24.592 97.1943 25.216C98.0583 25.824 98.6183 26.744 98.8743 27.976L98.2023 27.712C98.5703 26.688 99.2183 25.864 100.146 25.24C101.09 24.6 102.218 24.28 103.53 24.28ZM120.511 37.12C119.199 37.12 118.047 36.848 117.055 36.304C116.063 35.744 115.287 34.984 114.727 34.024C114.167 33.048 113.887 31.936 113.887 30.688C113.887 29.44 114.151 28.336 114.679 27.376C115.223 26.416 115.959 25.664 116.887 25.12C117.831 24.56 118.887 24.28 120.055 24.28C121.239 24.28 122.287 24.552 123.199 25.096C124.127 25.624 124.855 26.376 125.383 27.352C125.911 28.312 126.175 29.424 126.175 30.688C126.175 30.768 126.167 30.856 126.151 30.952C126.151 31.032 126.151 31.12 126.151 31.216H115.183V29.944H125.239L124.567 30.448C124.567 29.536 124.367 28.728 123.967 28.024C123.583 27.304 123.055 26.744 122.383 26.344C121.711 25.944 120.935 25.744 120.055 25.744C119.191 25.744 118.415 25.944 117.727 26.344C117.039 26.744 116.503 27.304 116.119 28.024C115.735 28.744 115.543 29.568 115.543 30.496V30.76C115.543 31.72 115.751 32.568 116.167 33.304C116.599 34.024 117.191 34.592 117.943 35.008C118.711 35.408 119.583 35.608 120.559 35.608C121.327 35.608 122.039 35.472 122.695 35.2C123.367 34.928 123.943 34.512 124.423 33.952L125.383 35.056C124.823 35.728 124.119 36.24 123.271 36.592C122.439 36.944 121.519 37.12 120.511 37.12Z" fill="black"/>
<path d="M62.024 20.2V19.2H61.024V20.2H62.024ZM63.776 20.2H64.776V19.2H63.776V20.2ZM63.776 37V38H64.776V37H63.776ZM62.024 37H61.024V38H62.024V37ZM51.512 37V38H52.512V37H51.512ZM49.736 37H48.736V38H49.736V37ZM49.736 20.2V19.2H48.736V20.2H49.736ZM51.512 20.2H52.512V19.2H51.512V20.2ZM62.192 29.248V30.248H63.192V29.248H62.192ZM51.32 29.248H50.32V30.248H51.32V29.248ZM51.32 27.688V26.688H50.32V27.688H51.32ZM62.192 27.688H63.192V26.688H62.192V27.688ZM62.024 21.2H63.776V19.2H62.024V21.2ZM62.776 20.2V37H64.776V20.2H62.776ZM63.776 36H62.024V38H63.776V36ZM63.024 37V20.2H61.024V37H63.024ZM51.512 36H49.736V38H51.512V36ZM50.736 37V20.2H48.736V37H50.736ZM49.736 21.2H51.512V19.2H49.736V21.2ZM50.512 20.2V37H52.512V20.2H50.512ZM62.192 28.248H51.32V30.248H62.192V28.248ZM52.32 29.248V27.688H50.32V29.248H52.32ZM51.32 28.688H62.192V26.688H51.32V28.688ZM61.192 27.688V29.248H63.192V27.688H61.192ZM72.6674 36.304L72.1636 37.1678L72.172 37.1727L72.1806 37.1775L72.6674 36.304ZM70.3874 34.024L69.52 34.5217L69.5237 34.5279L70.3874 34.024ZM70.3874 27.352L69.5237 26.8481L70.3874 27.352ZM72.6674 25.096L73.1604 25.966L72.6674 25.096ZM79.2674 25.096L78.7744 25.966L78.7806 25.9695L79.2674 25.096ZM81.5474 27.352L80.6773 27.8451L80.6837 27.8559L81.5474 27.352ZM81.5474 34.024L80.6801 33.5263L80.6774 33.531L81.5474 34.024ZM79.2674 36.304L79.7543 37.1775L79.7651 37.1714L79.2674 36.304ZM78.3794 35.008L78.8734 35.8775L78.8808 35.8733L78.8882 35.8689L78.3794 35.008ZM80.0354 33.28L79.1604 32.7959L79.1568 32.8025L80.0354 33.28ZM80.0354 28.096L79.1568 28.5735L79.1608 28.5808L79.1649 28.5881L80.0354 28.096ZM78.3794 26.392L77.8707 27.2529L77.878 27.2573L77.8854 27.2615L78.3794 26.392ZM73.5794 26.392L74.0734 27.2615L74.0808 27.2573L74.0882 27.2529L73.5794 26.392ZM71.8994 28.096L72.77 28.5881L71.8994 28.096ZM71.8994 33.28L71.0244 33.7641L71.0289 33.7721L71.8994 33.28ZM73.5794 35.008L73.0707 35.8689L73.078 35.8733L73.0854 35.8775L73.5794 35.008ZM75.9554 36.12C74.8944 36.12 73.9685 35.8843 73.1543 35.4305L72.1806 37.1775C73.3184 37.8117 74.5845 38.12 75.9554 38.12V36.12ZM73.1713 35.4402C72.3603 34.9671 71.7243 34.3311 71.2512 33.5201L69.5237 34.5279C70.1706 35.6369 71.0546 36.5209 72.1636 37.1678L73.1713 35.4402ZM71.2548 33.5263C70.7909 32.7179 70.5474 31.7809 70.5474 30.688H68.5474C68.5474 32.0911 68.8639 33.3781 69.5201 34.5217L71.2548 33.5263ZM70.5474 30.688C70.5474 29.5763 70.7921 28.6429 71.2512 27.8559L69.5237 26.8481C68.8627 27.9811 68.5474 29.2717 68.5474 30.688H70.5474ZM71.2512 27.8559C71.7228 27.0474 72.3554 26.4222 73.1604 25.966L72.1744 24.226C71.0595 24.8578 70.172 25.7366 69.5237 26.8481L71.2512 27.8559ZM73.1604 25.966C73.9532 25.5168 74.8757 25.28 75.9554 25.28V23.28C74.5712 23.28 73.3017 23.5872 72.1744 24.226L73.1604 25.966ZM75.9554 25.28C77.0537 25.28 77.9836 25.5179 78.7744 25.966L79.7605 24.226C78.6313 23.5861 77.3532 23.28 75.9554 23.28V25.28ZM78.7806 25.9695C79.5985 26.4254 80.225 27.0467 80.6774 27.845L82.4175 26.859C81.7818 25.7373 80.8884 24.8546 79.7543 24.2225L78.7806 25.9695ZM80.6837 27.8559C81.1427 28.6429 81.3874 29.5763 81.3874 30.688H83.3874C83.3874 29.2717 83.0721 27.9811 82.4112 26.8481L80.6837 27.8559ZM81.3874 30.688C81.3874 31.7809 81.1439 32.7179 80.6801 33.5263L82.4148 34.5217C83.0709 33.3781 83.3874 32.0911 83.3874 30.688H81.3874ZM80.6774 33.531C80.2236 34.3319 79.5936 34.964 78.7698 35.4366L79.7651 37.1714C80.8933 36.524 81.7833 35.6361 82.4175 34.517L80.6774 33.531ZM78.7806 35.4305C77.9683 35.8833 77.0349 36.12 75.9554 36.12V38.12C77.34 38.12 78.6146 37.8127 79.7543 37.1775L78.7806 35.4305ZM75.9554 36.608C77.0183 36.608 78.0006 36.3734 78.8734 35.8775L77.8854 34.1385C77.3503 34.4426 76.7165 34.608 75.9554 34.608V36.608ZM78.8882 35.8689C79.7518 35.3586 80.4299 34.6483 80.9141 33.7575L79.1568 32.8025C78.841 33.3837 78.4151 33.8254 77.8707 34.1471L78.8882 35.8689ZM80.9105 33.7641C81.419 32.8448 81.6594 31.81 81.6594 30.688H79.6594C79.6594 31.518 79.4839 32.2112 79.1604 32.7959L80.9105 33.7641ZM81.6594 30.688C81.6594 29.5536 81.4205 28.5142 80.906 27.6039L79.1649 28.5881C79.4824 29.1498 79.6594 29.8384 79.6594 30.688H81.6594ZM80.9141 27.6185C80.4282 26.7245 79.7455 26.018 78.8734 25.5225L77.8854 27.2615C78.4214 27.566 78.8427 27.9955 79.1568 28.5735L80.9141 27.6185ZM78.8882 25.5311C78.0156 25.0154 77.0368 24.768 75.9794 24.768V26.768C76.7141 26.768 77.3353 26.9366 77.8707 27.2529L78.8882 25.5311ZM75.9794 24.768C74.9221 24.768 73.9433 25.0154 73.0707 25.5311L74.0882 27.2529C74.6236 26.9366 75.2448 26.768 75.9794 26.768V24.768ZM73.0854 25.5225C72.217 26.016 71.5298 26.7177 71.0289 27.6039L72.77 28.5881C73.1011 28.0023 73.5339 27.568 74.0734 27.2615L73.0854 25.5225ZM71.0289 27.6039C70.5144 28.5142 70.2754 29.5536 70.2754 30.688H72.2754C72.2754 29.8384 72.4525 29.1498 72.77 28.5881L71.0289 27.6039ZM70.2754 30.688C70.2754 31.81 70.5159 32.8448 71.0244 33.7641L72.7745 32.7959C72.451 32.2112 72.2754 31.518 72.2754 30.688H70.2754ZM71.0289 33.7721C71.528 34.6552 72.2106 35.3607 73.0707 35.8689L74.0882 34.1471C73.5403 33.8233 73.1028 33.3768 72.77 32.7879L71.0289 33.7721ZM73.0854 35.8775C73.9529 36.3704 74.9177 36.608 75.9554 36.608V34.608C75.2332 34.608 74.614 34.4456 74.0734 34.1385L73.0854 35.8775ZM106.194 24.88L105.725 25.7629L105.736 25.7688L105.747 25.7744L106.194 24.88ZM107.97 26.656L107.083 27.1174L107.087 27.1243L107.09 27.1311L107.97 26.656ZM108.618 37V38H109.618V37H108.618ZM106.914 37H105.914V38H106.914V37ZM105.954 26.848L105.214 27.5198L105.222 27.5288L105.23 27.5377L105.954 26.848ZM101.034 26.368L101.526 27.239L101.533 27.2349L101.034 26.368ZM99.5703 27.928L98.68 27.4725L98.6759 27.4808L99.5703 27.928ZM99.0663 37V38H100.066V37H99.0663ZM97.3623 37H96.3623V38H97.3623V37ZM96.4023 26.848L95.6701 27.5292L95.6782 27.5377L96.4023 26.848ZM91.4823 26.368L91.9642 27.2442L91.9726 27.2396L91.9808 27.2349L91.4823 26.368ZM89.9943 27.928L89.104 27.4725L89.0999 27.4808L89.9943 27.928ZM89.4903 37V38H90.4903V37H89.4903ZM87.7863 37H86.7863V38H87.7863V37ZM87.7863 24.4V23.4H86.7863V24.4H87.7863ZM89.4183 24.4H90.4183V23.4H89.4183V24.4ZM89.4183 27.808L88.503 28.2107L90.4183 27.808H89.4183ZM89.1543 27.208L88.2327 26.8199L88.0656 27.2167L88.239 27.6107L89.1543 27.208ZM91.0023 25.072L91.5192 25.9281L91.5238 25.9253L91.0023 25.072ZM97.1943 25.216L96.6088 26.0267L96.6188 26.0338L97.1943 25.216ZM98.8743 27.976L98.5087 28.9068L100.23 29.5828L99.8534 27.7726L98.8743 27.976ZM98.2023 27.712L97.2612 27.3738L96.9328 28.2877L97.8367 28.6428L98.2023 27.712ZM100.146 25.24L100.704 26.0698L100.707 26.0677L100.146 25.24ZM103.53 25.28C104.423 25.28 105.144 25.4539 105.725 25.7629L106.664 23.9971C105.741 23.5061 104.685 23.28 103.53 23.28V25.28ZM105.747 25.7744C106.317 26.0592 106.759 26.4945 107.083 27.1174L108.858 26.1946C108.349 25.2175 107.608 24.4688 106.642 23.9856L105.747 25.7744ZM107.09 27.1311C107.421 27.7442 107.618 28.5761 107.618 29.68H109.618C109.618 28.3519 109.383 27.1678 108.85 26.1809L107.09 27.1311ZM107.618 29.68V37H109.618V29.68H107.618ZM108.618 36H106.914V38H108.618V36ZM107.914 37V29.848H105.914V37H107.914ZM107.914 29.848C107.914 28.3738 107.559 27.0833 106.678 26.1583L105.23 27.5377C105.629 27.9567 105.914 28.6662 105.914 29.848H107.914ZM106.695 26.1762C105.837 25.2307 104.652 24.816 103.29 24.816V26.816C104.233 26.816 104.823 27.0893 105.214 27.5198L106.695 26.1762ZM103.29 24.816C102.281 24.816 101.352 25.032 100.536 25.5011L101.533 27.2349C101.997 26.968 102.571 26.816 103.29 26.816V24.816ZM100.543 25.497C99.7346 25.953 99.1141 26.6243 98.6801 27.4725L100.461 28.3835C100.731 27.8557 101.086 27.487 101.526 27.239L100.543 25.497ZM98.6759 27.4808C98.2539 28.3248 98.0663 29.3026 98.0663 30.376H100.066C100.066 29.5294 100.215 28.8752 100.465 28.3752L98.6759 27.4808ZM98.0663 30.376V37H100.066V30.376H98.0663ZM99.0663 36H97.3623V38H99.0663V36ZM98.3623 37V29.848H96.3623V37H98.3623ZM98.3623 29.848C98.3623 28.3738 98.0074 27.0833 97.1264 26.1583L95.6782 27.5377C96.0772 27.9567 96.3623 28.6662 96.3623 29.848H98.3623ZM97.1345 26.1669C96.2638 25.2309 95.0766 24.816 93.7143 24.816V26.816C94.6561 26.816 95.2608 27.0891 95.6701 27.5291L97.1345 26.1669ZM93.7143 24.816C92.7177 24.816 91.7968 25.0336 90.9838 25.5011L91.9808 27.2349C92.4478 26.9664 93.0149 26.816 93.7143 26.816V24.816ZM91.0004 25.4918C90.1749 25.9458 89.5415 26.6175 89.1041 27.4725L90.8846 28.3835C91.1511 27.8625 91.5097 27.4942 91.9642 27.2442L91.0004 25.4918ZM89.0999 27.4808C88.6779 28.3248 88.4903 29.3026 88.4903 30.376H90.4903C90.4903 29.5294 90.6387 28.8752 90.8887 28.3752L89.0999 27.4808ZM88.4903 30.376V37H90.4903V30.376H88.4903ZM89.4903 36H87.7863V38H89.4903V36ZM88.7863 37V24.4H86.7863V37H88.7863ZM87.7863 25.4H89.4183V23.4H87.7863V25.4ZM88.4183 24.4V27.808H90.4183V24.4H88.4183ZM90.3336 27.4053L90.0696 26.8053L88.239 27.6107L88.503 28.2107L90.3336 27.4053ZM90.0759 27.5961C90.3778 26.8791 90.852 26.3309 91.5192 25.9281L90.4854 24.2159C89.4566 24.8371 88.6988 25.7129 88.2327 26.8199L90.0759 27.5961ZM91.5238 25.9253C92.2079 25.5072 93.0376 25.28 94.0503 25.28V23.28C92.7271 23.28 91.5247 23.5808 90.4809 24.2187L91.5238 25.9253ZM94.0503 25.28C95.1061 25.28 95.9408 25.5442 96.6088 26.0267L97.7798 24.4053C96.7198 23.6398 95.4586 23.28 94.0503 23.28V25.28ZM96.6188 26.0338C97.2366 26.4685 97.6804 27.1456 97.8952 28.1794L99.8534 27.7726C99.5562 26.3424 98.8801 25.1795 97.7698 24.3982L96.6188 26.0338ZM99.24 27.0452L98.568 26.7812L97.8367 28.6428L98.5087 28.9068L99.24 27.0452ZM99.1434 28.0502C99.4372 27.2326 99.9479 26.5785 100.704 26.0698L99.5883 24.4102C98.4888 25.1495 97.7034 26.1434 97.2612 27.3738L99.1434 28.0502ZM100.707 26.0677C101.462 25.5562 102.387 25.28 103.53 25.28V23.28C102.049 23.28 100.719 23.6438 99.5852 24.4123L100.707 26.0677ZM117.055 36.304L116.564 37.1749L116.575 37.1808L117.055 36.304ZM114.727 34.024L113.86 34.5217L113.864 34.5279L114.727 34.024ZM114.679 27.376L113.809 26.8829L113.803 26.8941L114.679 27.376ZM116.887 25.12L117.393 25.9827L117.398 25.9801L116.887 25.12ZM123.199 25.096L122.687 25.9548L122.696 25.9601L122.705 25.9652L123.199 25.096ZM125.383 27.352L124.504 27.8278L124.507 27.8339L125.383 27.352ZM126.151 30.952L125.165 30.7876L125.151 30.8692V30.952H126.151ZM126.151 31.216V32.216H127.151V31.216H126.151ZM115.183 31.216H114.183V32.216H115.183V31.216ZM115.183 29.944V28.944H114.183V29.944H115.183ZM125.239 29.944L125.839 30.744L128.239 28.944H125.239V29.944ZM124.567 30.448H123.567V32.448L125.167 31.248L124.567 30.448ZM123.967 28.024L123.085 28.4946L123.091 28.5064L123.098 28.518L123.967 28.024ZM122.383 26.344L122.895 25.4847L122.383 26.344ZM117.727 26.344L117.225 25.4795L117.727 26.344ZM116.119 28.024L117.002 28.4946L116.119 28.024ZM116.167 33.304L115.297 33.7961L115.303 33.8074L115.31 33.8185L116.167 33.304ZM117.943 35.008L117.459 35.883L117.47 35.8891L117.482 35.8949L117.943 35.008ZM122.695 35.2L122.32 34.273L122.312 34.2763L122.695 35.2ZM124.423 33.952L125.178 33.2958L124.418 32.4218L123.664 33.3012L124.423 33.952ZM125.383 35.056L126.152 35.6962L126.697 35.0422L126.138 34.3998L125.383 35.056ZM123.271 36.592L122.888 35.6684L122.882 35.671L123.271 36.592ZM120.511 36.12C119.34 36.12 118.359 35.8783 117.536 35.4272L116.575 37.1808C117.736 37.8177 119.058 38.12 120.511 38.12V36.12ZM117.547 35.4332C116.705 34.9581 116.06 34.323 115.591 33.5201L113.864 34.5279C114.515 35.645 115.421 36.5299 116.564 37.1748L117.547 35.4332ZM115.595 33.5263C115.131 32.7179 114.887 31.7809 114.887 30.688H112.887C112.887 32.0911 113.204 33.3781 113.86 34.5217L115.595 33.5263ZM114.887 30.688C114.887 29.5848 115.12 28.6508 115.556 27.8579L113.803 26.8941C113.183 28.0212 112.887 29.2952 112.887 30.688H114.887ZM115.549 27.869C116.009 27.058 116.621 26.4353 117.393 25.9827L116.382 24.2573C115.298 24.8927 114.438 25.774 113.809 26.883L115.549 27.869ZM117.398 25.9801C118.177 25.5176 119.055 25.28 120.055 25.28V23.28C118.72 23.28 117.486 23.6024 116.377 24.2599L117.398 25.9801ZM120.055 25.28C121.08 25.28 121.947 25.5135 122.687 25.9548L123.712 24.2372C122.628 23.5905 121.399 23.28 120.055 23.28V25.28ZM122.705 25.9652C123.464 26.3969 124.061 27.0096 124.504 27.8278L126.263 26.8762C125.65 25.7424 124.791 24.8511 123.694 24.2268L122.705 25.9652ZM124.507 27.8339C124.942 28.625 125.175 29.5664 125.175 30.688H127.175C127.175 29.2816 126.881 27.999 126.26 26.8701L124.507 27.8339ZM125.175 30.688C125.175 30.7026 125.174 30.7347 125.165 30.7876L127.138 31.1164C127.161 30.9773 127.175 30.8334 127.175 30.688H125.175ZM125.151 30.952C125.151 30.9522 125.151 30.9523 125.151 30.9525C125.151 30.9526 125.151 30.9528 125.151 30.9529C125.151 30.9531 125.151 30.9533 125.151 30.9534C125.151 30.9536 125.151 30.9537 125.151 30.9539C125.151 30.954 125.151 30.9542 125.151 30.9543C125.151 30.9545 125.151 30.9547 125.151 30.9548C125.151 30.955 125.151 30.9551 125.151 30.9553C125.151 30.9554 125.151 30.9556 125.151 30.9558C125.151 30.9559 125.151 30.9561 125.151 30.9562C125.151 30.9564 125.151 30.9565 125.151 30.9567C125.151 30.9569 125.151 30.957 125.151 30.9572C125.151 30.9573 125.151 30.9575 125.151 30.9576C125.151 30.9578 125.151 30.958 125.151 30.9581C125.151 30.9583 125.151 30.9584 125.151 30.9586C125.151 30.9587 125.151 30.9589 125.151 30.9591C125.151 30.9592 125.151 30.9594 125.151 30.9595C125.151 30.9597 125.151 30.9598 125.151 30.96C125.151 30.9602 125.151 30.9603 125.151 30.9605C125.151 30.9606 125.151 30.9608 125.151 30.9609C125.151 30.9611 125.151 30.9613 125.151 30.9614C125.151 30.9616 125.151 30.9617 125.151 30.9619C125.151 30.962 125.151 30.9622 125.151 30.9624C125.151 30.9625 125.151 30.9627 125.151 30.9628C125.151 30.963 125.151 30.9631 125.151 30.9633C125.151 30.9635 125.151 30.9636 125.151 30.9638C125.151 30.9639 125.151 30.9641 125.151 30.9642C125.151 30.9644 125.151 30.9646 125.151 30.9647C125.151 30.9649 125.151 30.965 125.151 30.9652C125.151 30.9654 125.151 30.9655 125.151 30.9657C125.151 30.9658 125.151 30.966 125.151 30.9661C125.151 30.9663 125.151 30.9665 125.151 30.9666C125.151 30.9668 125.151 30.9669 125.151 30.9671C125.151 30.9673 125.151 30.9674 125.151 30.9676C125.151 30.9677 125.151 30.9679 125.151 30.968C125.151 30.9682 125.151 30.9684 125.151 30.9685C125.151 30.9687 125.151 30.9688 125.151 30.969C125.151 30.9692 125.151 30.9693 125.151 30.9695C125.151 30.9696 125.151 30.9698 125.151 30.9699C125.151 30.9701 125.151 30.9703 125.151 30.9704C125.151 30.9706 125.151 30.9707 125.151 30.9709C125.151 30.9711 125.151 30.9712 125.151 30.9714C125.151 30.9715 125.151 30.9717 125.151 30.9718C125.151 30.972 125.151 30.9722 125.151 30.9723C125.151 30.9725 125.151 30.9726 125.151 30.9728C125.151 30.973 125.151 30.9731 125.151 30.9733C125.151 30.9734 125.151 30.9736 125.151 30.9738C125.151 30.9739 125.151 30.9741 125.151 30.9742C125.151 30.9744 125.151 30.9746 125.151 30.9747C125.151 30.9749 125.151 30.975 125.151 30.9752C125.151 30.9753 125.151 30.9755 125.151 30.9757C125.151 30.9758 125.151 30.976 125.151 30.9761C125.151 30.9763 125.151 30.9765 125.151 30.9766C125.151 30.9768 125.151 30.9769 125.151 30.9771C125.151 30.9773 125.151 30.9774 125.151 30.9776C125.151 30.9777 125.151 30.9779 125.151 30.9781C125.151 30.9782 125.151 30.9784 125.151 30.9785C125.151 30.9787 125.151 30.9789 125.151 30.979C125.151 30.9792 125.151 30.9793 125.151 30.9795C125.151 30.9797 125.151 30.9798 125.151 30.98C125.151 30.9801 125.151 30.9803 125.151 30.9805C125.151 30.9806 125.151 30.9808 125.151 30.9809C125.151 30.9811 125.151 30.9813 125.151 30.9814C125.151 30.9816 125.151 30.9817 125.151 30.9819C125.151 30.9821 125.151 30.9822 125.151 30.9824C125.151 30.9825 125.151 30.9827 125.151 30.9829C125.151 30.983 125.151 30.9832 125.151 30.9833C125.151 30.9835 125.151 30.9837 125.151 30.9838C125.151 30.984 125.151 30.9841 125.151 30.9843C125.151 30.9845 125.151 30.9846 125.151 30.9848C125.151 30.9849 125.151 30.9851 125.151 30.9853C125.151 30.9854 125.151 30.9856 125.151 30.9857C125.151 30.9859 125.151 30.9861 125.151 30.9862C125.151 30.9864 125.151 30.9865 125.151 30.9867C125.151 30.9869 125.151 30.987 125.151 30.9872C125.151 30.9873 125.151 30.9875 125.151 30.9877C125.151 30.9878 125.151 30.988 125.151 30.9882C125.151 30.9883 125.151 30.9885 125.151 30.9886C125.151 30.9888 125.151 30.989 125.151 30.9891C125.151 30.9893 125.151 30.9894 125.151 30.9896C125.151 30.9898 125.151 30.9899 125.151 30.9901C125.151 30.9902 125.151 30.9904 125.151 30.9906C125.151 30.9907 125.151 30.9909 125.151 30.9911C125.151 30.9912 125.151 30.9914 125.151 30.9915C125.151 30.9917 125.151 30.9919 125.151 30.992C125.151 30.9922 125.151 30.9923 125.151 30.9925C125.151 30.9927 125.151 30.9928 125.151 30.993C125.151 30.9932 125.151 30.9933 125.151 30.9935C125.151 30.9936 125.151 30.9938 125.151 30.994C125.151 30.9941 125.151 30.9943 125.151 30.9944C125.151 30.9946 125.151 30.9948 125.151 30.9949C125.151 30.9951 125.151 30.9953 125.151 30.9954C125.151 30.9956 125.151 30.9957 125.151 30.9959C125.151 30.9961 125.151 30.9962 125.151 30.9964C125.151 30.9965 125.151 30.9967 125.151 30.9969C125.151 30.997 125.151 30.9972 125.151 30.9974C125.151 30.9975 125.151 30.9977 125.151 30.9978C125.151 30.998 125.151 30.9982 125.151 30.9983C125.151 30.9985 125.151 30.9987 125.151 30.9988C125.151 30.999 125.151 30.9991 125.151 30.9993C125.151 30.9995 125.151 30.9996 125.151 30.9998C125.151 31 125.151 31.0001 125.151 31.0003C125.151 31.0004 125.151 31.0006 125.151 31.0008C125.151 31.0009 125.151 31.0011 125.151 31.0013C125.151 31.0014 125.151 31.0016 125.151 31.0017C125.151 31.0019 125.151 31.0021 125.151 31.0022C125.151 31.0024 125.151 31.0026 125.151 31.0027C125.151 31.0029 125.151 31.003 125.151 31.0032C125.151 31.0034 125.151 31.0035 125.151 31.0037C125.151 31.0039 125.151 31.004 125.151 31.0042C125.151 31.0043 125.151 31.0045 125.151 31.0047C125.151 31.0048 125.151 31.005 125.151 31.0052C125.151 31.0053 125.151 31.0055 125.151 31.0056C125.151 31.0058 125.151 31.006 125.151 31.0061C125.151 31.0063 125.151 31.0065 125.151 31.0066C125.151 31.0068 125.151 31.007 125.151 31.0071C125.151 31.0073 125.151 31.0074 125.151 31.0076C125.151 31.0078 125.151 31.0079 125.151 31.0081C125.151 31.0083 125.151 31.0084 125.151 31.0086C125.151 31.0088 125.151 31.0089 125.151 31.0091C125.151 31.0092 125.151 31.0094 125.151 31.0096C125.151 31.0097 125.151 31.0099 125.151 31.0101C125.151 31.0102 125.151 31.0104 125.151 31.0105C125.151 31.0107 125.151 31.0109 125.151 31.011C125.151 31.0112 125.151 31.0114 125.151 31.0115C125.151 31.0117 125.151 31.0119 125.151 31.012C125.151 31.0122 125.151 31.0124 125.151 31.0125C125.151 31.0127 125.151 31.0128 125.151 31.013C125.151 31.0132 125.151 31.0133 125.151 31.0135C125.151 31.0137 125.151 31.0138 125.151 31.014C125.151 31.0142 125.151 31.0143 125.151 31.0145C125.151 31.0146 125.151 31.0148 125.151 31.015C125.151 31.0151 125.151 31.0153 125.151 31.0155C125.151 31.0156 125.151 31.0158 125.151 31.016C125.151 31.0161 125.151 31.0163 125.151 31.0165C125.151 31.0166 125.151 31.0168 125.151 31.0169C125.151 31.0171 125.151 31.0173 125.151 31.0174C125.151 31.0176 125.151 31.0178 125.151 31.0179C125.151 31.0181 125.151 31.0183 125.151 31.0184C125.151 31.0186 125.151 31.0188 125.151 31.0189C125.151 31.0191 125.151 31.0193 125.151 31.0194C125.151 31.0196 125.151 31.0197 125.151 31.0199C125.151 31.0201 125.151 31.0202 125.151 31.0204C125.151 31.0206 125.151 31.0207 125.151 31.0209C125.151 31.0211 125.151 31.0212 125.151 31.0214C125.151 31.0216 125.151 31.0217 125.151 31.0219C125.151 31.0221 125.151 31.0222 125.151 31.0224C125.151 31.0226 125.151 31.0227 125.151 31.0229C125.151 31.0231 125.151 31.0232 125.151 31.0234C125.151 31.0235 125.151 31.0237 125.151 31.0239C125.151 31.024 125.151 31.0242 125.151 31.0244C125.151 31.0245 125.151 31.0247 125.151 31.0249C125.151 31.025 125.151 31.0252 125.151 31.0254C125.151 31.0255 125.151 31.0257 125.151 31.0259C125.151 31.026 125.151 31.0262 125.151 31.0264C125.151 31.0265 125.151 31.0267 125.151 31.0269C125.151 31.027 125.151 31.0272 125.151 31.0274C125.151 31.0275 125.151 31.0277 125.151 31.0279C125.151 31.028 125.151 31.0282 125.151 31.0283C125.151 31.0285 125.151 31.0287 125.151 31.0288C125.151 31.029 125.151 31.0292 125.151 31.0293C125.151 31.0295 125.151 31.0297 125.151 31.0298C125.151 31.03 125.151 31.0302 125.151 31.0303C125.151 31.0305 125.151 31.0307 125.151 31.0308C125.151 31.031 125.151 31.0312 125.151 31.0313C125.151 31.0315 125.151 31.0317 125.151 31.0318C125.151 31.032 125.151 31.0322 125.151 31.0323C125.151 31.0325 125.151 31.0327 125.151 31.0328C125.151 31.033 125.151 31.0332 125.151 31.0333C125.151 31.0335 125.151 31.0337 125.151 31.0338C125.151 31.034 125.151 31.0342 125.151 31.0343C125.151 31.0345 125.151 31.0347 125.151 31.0348C125.151 31.035 125.151 31.0352 125.151 31.0353C125.151 31.0355 125.151 31.0357 125.151 31.0358C125.151 31.036 125.151 31.0362 125.151 31.0363C125.151 31.0365 125.151 31.0367 125.151 31.0368C125.151 31.037 125.151 31.0372 125.151 31.0373C125.151 31.0375 125.151 31.0377 125.151 31.0378C125.151 31.038 125.151 31.0382 125.151 31.0383C125.151 31.0385 125.151 31.0387 125.151 31.0388C125.151 31.039 125.151 31.0392 125.151 31.0393C125.151 31.0395 125.151 31.0397 125.151 31.0398C125.151 31.04 125.151 31.0402 125.151 31.0403C125.151 31.0405 125.151 31.0407 125.151 31.0408C125.151 31.041 125.151 31.0412 125.151 31.0413C125.151 31.0415 125.151 31.0417 125.151 31.0419C125.151 31.042 125.151 31.0422 125.151 31.0424C125.151 31.0425 125.151 31.0427 125.151 31.0429C125.151 31.043 125.151 31.0432 125.151 31.0434C125.151 31.0435 125.151 31.0437 125.151 31.0439C125.151 31.044 125.151 31.0442 125.151 31.0444C125.151 31.0445 125.151 31.0447 125.151 31.0449C125.151 31.045 125.151 31.0452 125.151 31.0454C125.151 31.0455 125.151 31.0457 125.151 31.0459C125.151 31.046 125.151 31.0462 125.151 31.0464C125.151 31.0466 125.151 31.0467 125.151 31.0469C125.151 31.0471 125.151 31.0472 125.151 31.0474C125.151 31.0476 125.151 31.0477 125.151 31.0479C125.151 31.0481 125.151 31.0482 125.151 31.0484C125.151 31.0486 125.151 31.0487 125.151 31.0489C125.151 31.0491 125.151 31.0492 125.151 31.0494C125.151 31.0496 125.151 31.0497 125.151 31.0499C125.151 31.0501 125.151 31.0503 125.151 31.0504C125.151 31.0506 125.151 31.0508 125.151 31.0509C125.151 31.0511 125.151 31.0513 125.151 31.0514C125.151 31.0516 125.151 31.0518 125.151 31.0519C125.151 31.0521 125.151 31.0523 125.151 31.0524C125.151 31.0526 125.151 31.0528 125.151 31.053C125.151 31.0531 125.151 31.0533 125.151 31.0535C125.151 31.0536 125.151 31.0538 125.151 31.054C125.151 31.0541 125.151 31.0543 125.151 31.0545C125.151 31.0546 125.151 31.0548 125.151 31.055C125.151 31.0552 125.151 31.0553 125.151 31.0555C125.151 31.0557 125.151 31.0558 125.151 31.056C125.151 31.0562 125.151 31.0563 125.151 31.0565C125.151 31.0567 125.151 31.0568 125.151 31.057C125.151 31.0572 125.151 31.0574 125.151 31.0575C125.151 31.0577 125.151 31.0579 125.151 31.058C125.151 31.0582 125.151 31.0584 125.151 31.0585C125.151 31.0587 125.151 31.0589 125.151 31.059C125.151 31.0592 125.151 31.0594 125.151 31.0596C125.151 31.0597 125.151 31.0599 125.151 31.0601C125.151 31.0602 125.151 31.0604 125.151 31.0606C125.151 31.0607 125.151 31.0609 125.151 31.0611C125.151 31.0613 125.151 31.0614 125.151 31.0616C125.151 31.0618 125.151 31.0619 125.151 31.0621C125.151 31.0623 125.151 31.0624 125.151 31.0626C125.151 31.0628 125.151 31.063 125.151 31.0631C125.151 31.0633 125.151 31.0635 125.151 31.0636C125.151 31.0638 125.151 31.064 125.151 31.0641C125.151 31.0643 125.151 31.0645 125.151 31.0647C125.151 31.0648 125.151 31.065 125.151 31.0652C125.151 31.0653 125.151 31.0655 125.151 31.0657C125.151 31.0658 125.151 31.066 125.151 31.0662C125.151 31.0664 125.151 31.0665 125.151 31.0667C125.151 31.0669 125.151 31.067 125.151 31.0672C125.151 31.0674 125.151 31.0676 125.151 31.0677C125.151 31.0679 125.151 31.0681 125.151 31.0682C125.151 31.0684 125.151 31.0686 125.151 31.0687C125.151 31.0689 125.151 31.0691 125.151 31.0693C125.151 31.0694 125.151 31.0696 125.151 31.0698C125.151 31.0699 125.151 31.0701 125.151 31.0703C125.151 31.0705 125.151 31.0706 125.151 31.0708C125.151 31.071 125.151 31.0711 125.151 31.0713C125.151 31.0715 125.151 31.0717 125.151 31.0718C125.151 31.072 125.151 31.0722 125.151 31.0723C125.151 31.0725 125.151 31.0727 125.151 31.0729C125.151 31.073 125.151 31.0732 125.151 31.0734C125.151 31.0735 125.151 31.0737 125.151 31.0739C125.151 31.0741 125.151 31.0742 125.151 31.0744C125.151 31.0746 125.151 31.0747 125.151 31.0749C125.151 31.0751 125.151 31.0753 125.151 31.0754C125.151 31.0756 125.151 31.0758 125.151 31.0759C125.151 31.0761 125.151 31.0763 125.151 31.0765C125.151 31.0766 125.151 31.0768 125.151 31.077C125.151 31.0771 125.151 31.0773 125.151 31.0775C125.151 31.0777 125.151 31.0778 125.151 31.078C125.151 31.0782 125.151 31.0783 125.151 31.0785C125.151 31.0787 125.151 31.0789 125.151 31.079C125.151 31.0792 125.151 31.0794 125.151 31.0795C125.151 31.0797 125.151 31.0799 125.151 31.0801C125.151 31.0802 125.151 31.0804 125.151 31.0806C125.151 31.0808 125.151 31.0809 125.151 31.0811C125.151 31.0813 125.151 31.0814 125.151 31.0816C125.151 31.0818 125.151 31.082 125.151 31.0821C125.151 31.0823 125.151 31.0825 125.151 31.0826C125.151 31.0828 125.151 31.083 125.151 31.0832C125.151 31.0833 125.151 31.0835 125.151 31.0837C125.151 31.0839 125.151 31.084 125.151 31.0842C125.151 31.0844 125.151 31.0845 125.151 31.0847C125.151 31.0849 125.151 31.0851 125.151 31.0852C125.151 31.0854 125.151 31.0856 125.151 31.0858C125.151 31.0859 125.151 31.0861 125.151 31.0863C125.151 31.0864 125.151 31.0866 125.151 31.0868C125.151 31.087 125.151 31.0871 125.151 31.0873C125.151 31.0875 125.151 31.0877 125.151 31.0878C125.151 31.088 125.151 31.0882 125.151 31.0883C125.151 31.0885 125.151 31.0887 125.151 31.0889C125.151 31.089 125.151 31.0892 125.151 31.0894C125.151 31.0896 125.151 31.0897 125.151 31.0899C125.151 31.0901 125.151 31.0903 125.151 31.0904C125.151 31.0906 125.151 31.0908 125.151 31.0909C125.151 31.0911 125.151 31.0913 125.151 31.0915C125.151 31.0916 125.151 31.0918 125.151 31.092C125.151 31.0922 125.151 31.0923 125.151 31.0925C125.151 31.0927 125.151 31.0929 125.151 31.093C125.151 31.0932 125.151 31.0934 125.151 31.0936C125.151 31.0937 125.151 31.0939 125.151 31.0941C125.151 31.0942 125.151 31.0944 125.151 31.0946C125.151 31.0948 125.151 31.0949 125.151 31.0951C125.151 31.0953 125.151 31.0955 125.151 31.0956C125.151 31.0958 125.151 31.096 125.151 31.0962C125.151 31.0963 125.151 31.0965 125.151 31.0967C125.151 31.0969 125.151 31.097 125.151 31.0972C125.151 31.0974 125.151 31.0976 125.151 31.0977C125.151 31.0979 125.151 31.0981 125.151 31.0982C125.151 31.0984 125.151 31.0986 125.151 31.0988C125.151 31.0989 125.151 31.0991 125.151 31.0993C125.151 31.0995 125.151 31.0996 125.151 31.0998C125.151 31.1 125.151 31.1002 125.151 31.1003C125.151 31.1005 125.151 31.1007 125.151 31.1009C125.151 31.101 125.151 31.1012 125.151 31.1014C125.151 31.1016 125.151 31.1017 125.151 31.1019C125.151 31.1021 125.151 31.1023 125.151 31.1024C125.151 31.1026 125.151 31.1028 125.151 31.103C125.151 31.1031 125.151 31.1033 125.151 31.1035C125.151 31.1037 125.151 31.1038 125.151 31.104C125.151 31.1042 125.151 31.1044 125.151 31.1045C125.151 31.1047 125.151 31.1049 125.151 31.1051C125.151 31.1052 125.151 31.1054 125.151 31.1056C125.151 31.1058 125.151 31.1059 125.151 31.1061C125.151 31.1063 125.151 31.1065 125.151 31.1066C125.151 31.1068 125.151 31.107 125.151 31.1072C125.151 31.1073 125.151 31.1075 125.151 31.1077C125.151 31.1079 125.151 31.108 125.151 31.1082C125.151 31.1084 125.151 31.1086 125.151 31.1087C125.151 31.1089 125.151 31.1091 125.151 31.1093C125.151 31.1094 125.151 31.1096 125.151 31.1098C125.151 31.11 125.151 31.1101 125.151 31.1103C125.151 31.1105 125.151 31.1107 125.151 31.1108C125.151 31.111 125.151 31.1112 125.151 31.1114C125.151 31.1116 125.151 31.1117 125.151 31.1119C125.151 31.1121 125.151 31.1123 125.151 31.1124C125.151 31.1126 125.151 31.1128 125.151 31.113C125.151 31.1131 125.151 31.1133 125.151 31.1135C125.151 31.1137 125.151 31.1138 125.151 31.114C125.151 31.1142 125.151 31.1144 125.151 31.1145C125.151 31.1147 125.151 31.1149 125.151 31.1151C125.151 31.1152 125.151 31.1154 125.151 31.1156C125.151 31.1158 125.151 31.116 125.151 31.1161C125.151 31.1163 125.151 31.1165 125.151 31.1167C125.151 31.1168 125.151 31.117 125.151 31.1172C125.151 31.1174 125.151 31.1175 125.151 31.1177C125.151 31.1179 125.151 31.1181 125.151 31.1182C125.151 31.1184 125.151 31.1186 125.151 31.1188C125.151 31.119 125.151 31.1191 125.151 31.1193C125.151 31.1195 125.151 31.1197 125.151 31.1198C125.151 31.12 125.151 31.1202 125.151 31.1204C125.151 31.1205 125.151 31.1207 125.151 31.1209C125.151 31.1211 125.151 31.1213 125.151 31.1214C125.151 31.1216 125.151 31.1218 125.151 31.122C125.151 31.1221 125.151 31.1223 125.151 31.1225C125.151 31.1227 125.151 31.1228 125.151 31.123C125.151 31.1232 125.151 31.1234 125.151 31.1236C125.151 31.1237 125.151 31.1239 125.151 31.1241C125.151 31.1243 125.151 31.1244 125.151 31.1246C125.151 31.1248 125.151 31.125 125.151 31.1251C125.151 31.1253 125.151 31.1255 125.151 31.1257C125.151 31.1259 125.151 31.126 125.151 31.1262C125.151 31.1264 125.151 31.1266 125.151 31.1267C125.151 31.1269 125.151 31.1271 125.151 31.1273C125.151 31.1275 125.151 31.1276 125.151 31.1278C125.151 31.128 125.151 31.1282 125.151 31.1283C125.151 31.1285 125.151 31.1287 125.151 31.1289C125.151 31.1291 125.151 31.1292 125.151 31.1294C125.151 31.1296 125.151 31.1298 125.151 31.1299C125.151 31.1301 125.151 31.1303 125.151 31.1305C125.151 31.1307 125.151 31.1308 125.151 31.131C125.151 31.1312 125.151 31.1314 125.151 31.1315C125.151 31.1317 125.151 31.1319 125.151 31.1321C125.151 31.1323 125.151 31.1324 125.151 31.1326C125.151 31.1328 125.151 31.133 125.151 31.1332C125.151 31.1333 125.151 31.1335 125.151 31.1337C125.151 31.1339 125.151 31.134 125.151 31.1342C125.151 31.1344 125.151 31.1346 125.151 31.1348C125.151 31.1349 125.151 31.1351 125.151 31.1353C125.151 31.1355 125.151 31.1356 125.151 31.1358C125.151 31.136 125.151 31.1362 125.151 31.1364C125.151 31.1365 125.151 31.1367 125.151 31.1369C125.151 31.1371 125.151 31.1373 125.151 31.1374C125.151 31.1376 125.151 31.1378 125.151 31.138C125.151 31.1381 125.151 31.1383 125.151 31.1385C125.151 31.1387 125.151 31.1389 125.151 31.139C125.151 31.1392 125.151 31.1394 125.151 31.1396C125.151 31.1398 125.151 31.1399 125.151 31.1401C125.151 31.1403 125.151 31.1405 125.151 31.1407C125.151 31.1408 125.151 31.141 125.151 31.1412C125.151 31.1414 125.151 31.1416 125.151 31.1417C125.151 31.1419 125.151 31.1421 125.151 31.1423C125.151 31.1424 125.151 31.1426 125.151 31.1428C125.151 31.143 125.151 31.1432 125.151 31.1433C125.151 31.1435 125.151 31.1437 125.151 31.1439C125.151 31.1441 125.151 31.1442 125.151 31.1444C125.151 31.1446 125.151 31.1448 125.151 31.145C125.151 31.1451 125.151 31.1453 125.151 31.1455C125.151 31.1457 125.151 31.1459 125.151 31.146C125.151 31.1462 125.151 31.1464 125.151 31.1466C125.151 31.1468 125.151 31.1469 125.151 31.1471C125.151 31.1473 125.151 31.1475 125.151 31.1477C125.151 31.1478 125.151 31.148 125.151 31.1482C125.151 31.1484 125.151 31.1486 125.151 31.1487C125.151 31.1489 125.151 31.1491 125.151 31.1493C125.151 31.1495 125.151 31.1496 125.151 31.1498C125.151 31.15 125.151 31.1502 125.151 31.1504C125.151 31.1505 125.151 31.1507 125.151 31.1509C125.151 31.1511 125.151 31.1513 125.151 31.1514C125.151 31.1516 125.151 31.1518 125.151 31.152C125.151 31.1522 125.151 31.1523 125.151 31.1525C125.151 31.1527 125.151 31.1529 125.151 31.1531C125.151 31.1532 125.151 31.1534 125.151 31.1536C125.151 31.1538 125.151 31.154 125.151 31.1541C125.151 31.1543 125.151 31.1545 125.151 31.1547C125.151 31.1549 125.151 31.1551 125.151 31.1552C125.151 31.1554 125.151 31.1556 125.151 31.1558C125.151 31.156 125.151 31.1561 125.151 31.1563C125.151 31.1565 125.151 31.1567 125.151 31.1569C125.151 31.157 125.151 31.1572 125.151 31.1574C125.151 31.1576 125.151 31.1578 125.151 31.1579C125.151 31.1581 125.151 31.1583 125.151 31.1585C125.151 31.1587 125.151 31.1589 125.151 31.159C125.151 31.1592 125.151 31.1594 125.151 31.1596C125.151 31.1598 125.151 31.1599 125.151 31.1601C125.151 31.1603 125.151 31.1605 125.151 31.1607C125.151 31.1608 125.151 31.161 125.151 31.1612C125.151 31.1614 125.151 31.1616 125.151 31.1618C125.151 31.1619 125.151 31.1621 125.151 31.1623C125.151 31.1625 125.151 31.1627 125.151 31.1628C125.151 31.163 125.151 31.1632 125.151 31.1634C125.151 31.1636 125.151 31.1638 125.151 31.1639C125.151 31.1641 125.151 31.1643 125.151 31.1645C125.151 31.1647 125.151 31.1648 125.151 31.165C125.151 31.1652 125.151 31.1654 125.151 31.1656C125.151 31.1658 125.151 31.1659 125.151 31.1661C125.151 31.1663 125.151 31.1665 125.151 31.1667C125.151 31.1668 125.151 31.167 125.151 31.1672C125.151 31.1674 125.151 31.1676 125.151 31.1678C125.151 31.1679 125.151 31.1681 125.151 31.1683C125.151 31.1685 125.151 31.1687 125.151 31.1688C125.151 31.169 125.151 31.1692 125.151 31.1694C125.151 31.1696 125.151 31.1698 125.151 31.1699C125.151 31.1701 125.151 31.1703 125.151 31.1705C125.151 31.1707 125.151 31.1709 125.151 31.171C125.151 31.1712 125.151 31.1714 125.151 31.1716C125.151 31.1718 125.151 31.172 125.151 31.1721C125.151 31.1723 125.151 31.1725 125.151 31.1727C125.151 31.1729 125.151 31.173 125.151 31.1732C125.151 31.1734 125.151 31.1736 125.151 31.1738C125.151 31.174 125.151 31.1741 125.151 31.1743C125.151 31.1745 125.151 31.1747 125.151 31.1749C125.151 31.1751 125.151 31.1752 125.151 31.1754C125.151 31.1756 125.151 31.1758 125.151 31.176C125.151 31.1762 125.151 31.1763 125.151 31.1765C125.151 31.1767 125.151 31.1769 125.151 31.1771C125.151 31.1773 125.151 31.1774 125.151 31.1776C125.151 31.1778 125.151 31.178 125.151 31.1782C125.151 31.1784 125.151 31.1785 125.151 31.1787C125.151 31.1789 125.151 31.1791 125.151 31.1793C125.151 31.1795 125.151 31.1796 125.151 31.1798C125.151 31.18 125.151 31.1802 125.151 31.1804C125.151 31.1806 125.151 31.1807 125.151 31.1809C125.151 31.1811 125.151 31.1813 125.151 31.1815C125.151 31.1817 125.151 31.1818 125.151 31.182C125.151 31.1822 125.151 31.1824 125.151 31.1826C125.151 31.1828 125.151 31.1829 125.151 31.1831C125.151 31.1833 125.151 31.1835 125.151 31.1837C125.151 31.1839 125.151 31.1841 125.151 31.1842C125.151 31.1844 125.151 31.1846 125.151 31.1848C125.151 31.185 125.151 31.1852 125.151 31.1853C125.151 31.1855 125.151 31.1857 125.151 31.1859C125.151 31.1861 125.151 31.1863 125.151 31.1864C125.151 31.1866 125.151 31.1868 125.151 31.187C125.151 31.1872 125.151 31.1874 125.151 31.1875C125.151 31.1877 125.151 31.1879 125.151 31.1881C125.151 31.1883 125.151 31.1885 125.151 31.1887C125.151 31.1888 125.151 31.189 125.151 31.1892C125.151 31.1894 125.151 31.1896 125.151 31.1898C125.151 31.1899 125.151 31.1901 125.151 31.1903C125.151 31.1905 125.151 31.1907 125.151 31.1909C125.151 31.1911 125.151 31.1912 125.151 31.1914C125.151 31.1916 125.151 31.1918 125.151 31.192C125.151 31.1922 125.151 31.1924 125.151 31.1925C125.151 31.1927 125.151 31.1929 125.151 31.1931C125.151 31.1933 125.151 31.1935 125.151 31.1936C125.151 31.1938 125.151 31.194 125.151 31.1942C125.151 31.1944 125.151 31.1946 125.151 31.1948C125.151 31.1949 125.151 31.1951 125.151 31.1953C125.151 31.1955 125.151 31.1957 125.151 31.1959C125.151 31.1961 125.151 31.1962 125.151 31.1964C125.151 31.1966 125.151 31.1968 125.151 31.197C125.151 31.1972 125.151 31.1974 125.151 31.1975C125.151 31.1977 125.151 31.1979 125.151 31.1981C125.151 31.1983 125.151 31.1985 125.151 31.1987C125.151 31.1988 125.151 31.199 125.151 31.1992C125.151 31.1994 125.151 31.1996 125.151 31.1998C125.151 31.1999 125.151 31.2001 125.151 31.2003C125.151 31.2005 125.151 31.2007 125.151 31.2009C125.151 31.2011 125.151 31.2013 125.151 31.2014C125.151 31.2016 125.151 31.2018 125.151 31.202C125.151 31.2022 125.151 31.2024 125.151 31.2026C125.151 31.2027 125.151 31.2029 125.151 31.2031C125.151 31.2033 125.151 31.2035 125.151 31.2037C125.151 31.2039 125.151 31.204 125.151 31.2042C125.151 31.2044 125.151 31.2046 125.151 31.2048C125.151 31.205 125.151 31.2052 125.151 31.2053C125.151 31.2055 125.151 31.2057 125.151 31.2059C125.151 31.2061 125.151 31.2063 125.151 31.2065C125.151 31.2066 125.151 31.2068 125.151 31.207C125.151 31.2072 125.151 31.2074 125.151 31.2076C125.151 31.2078 125.151 31.208 125.151 31.2081C125.151 31.2083 125.151 31.2085 125.151 31.2087C125.151 31.2089 125.151 31.2091 125.151 31.2093C125.151 31.2094 125.151 31.2096 125.151 31.2098C125.151 31.21 125.151 31.2102 125.151 31.2104C125.151 31.2106 125.151 31.2108 125.151 31.2109C125.151 31.2111 125.151 31.2113 125.151 31.2115C125.151 31.2117 125.151 31.2119 125.151 31.2121C125.151 31.2123 125.151 31.2124 125.151 31.2126C125.151 31.2128 125.151 31.213 125.151 31.2132C125.151 31.2134 125.151 31.2136 125.151 31.2138C125.151 31.2139 125.151 31.2141 125.151 31.2143C125.151 31.2145 125.151 31.2147 125.151 31.2149C125.151 31.2151 125.151 31.2153 125.151 31.2154C125.151 31.2156 125.151 31.2158 125.151 31.216H127.151C127.151 31.2158 127.151 31.2156 127.151 31.2154C127.151 31.2153 127.151 31.2151 127.151 31.2149C127.151 31.2147 127.151 31.2145 127.151 31.2143C127.151 31.2141 127.151 31.2139 127.151 31.2138C127.151 31.2136 127.151 31.2134 127.151 31.2132C127.151 31.213 127.151 31.2128 127.151 31.2126C127.151 31.2124 127.151 31.2123 127.151 31.2121C127.151 31.2119 127.151 31.2117 127.151 31.2115C127.151 31.2113 127.151 31.2111 127.151 31.2109C127.151 31.2108 127.151 31.2106 127.151 31.2104C127.151 31.2102 127.151 31.21 127.151 31.2098C127.151 31.2096 127.151 31.2094 127.151 31.2093C127.151 31.2091 127.151 31.2089 127.151 31.2087C127.151 31.2085 127.151 31.2083 127.151 31.2081C127.151 31.208 127.151 31.2078 127.151 31.2076C127.151 31.2074 127.151 31.2072 127.151 31.207C127.151 31.2068 127.151 31.2066 127.151 31.2065C127.151 31.2063 127.151 31.2061 127.151 31.2059C127.151 31.2057 127.151 31.2055 127.151 31.2053C127.151 31.2052 127.151 31.205 127.151 31.2048C127.151 31.2046 127.151 31.2044 127.151 31.2042C127.151 31.204 127.151 31.2039 127.151 31.2037C127.151 31.2035 127.151 31.2033 127.151 31.2031C127.151 31.2029 127.151 31.2027 127.151 31.2026C127.151 31.2024 127.151 31.2022 127.151 31.202C127.151 31.2018 127.151 31.2016 127.151 31.2014C127.151 31.2013 127.151 31.2011 127.151 31.2009C127.151 31.2007 127.151 31.2005 127.151 31.2003C127.151 31.2001 127.151 31.1999 127.151 31.1998C127.151 31.1996 127.151 31.1994 127.151 31.1992C127.151 31.199 127.151 31.1988 127.151 31.1987C127.151 31.1985 127.151 31.1983 127.151 31.1981C127.151 31.1979 127.151 31.1977 127.151 31.1975C127.151 31.1974 127.151 31.1972 127.151 31.197C127.151 31.1968 127.151 31.1966 127.151 31.1964C127.151 31.1962 127.151 31.1961 127.151 31.1959C127.151 31.1957 127.151 31.1955 127.151 31.1953C127.151 31.1951 127.151 31.1949 127.151 31.1948C127.151 31.1946 127.151 31.1944 127.151 31.1942C127.151 31.194 127.151 31.1938 127.151 31.1936C127.151 31.1935 127.151 31.1933 127.151 31.1931C127.151 31.1929 127.151 31.1927 127.151 31.1925C127.151 31.1924 127.151 31.1922 127.151 31.192C127.151 31.1918 127.151 31.1916 127.151 31.1914C127.151 31.1912 127.151 31.1911 127.151 31.1909C127.151 31.1907 127.151 31.1905 127.151 31.1903C127.151 31.1901 127.151 31.1899 127.151 31.1898C127.151 31.1896 127.151 31.1894 127.151 31.1892C127.151 31.189 127.151 31.1888 127.151 31.1887C127.151 31.1885 127.151 31.1883 127.151 31.1881C127.151 31.1879 127.151 31.1877 127.151 31.1875C127.151 31.1874 127.151 31.1872 127.151 31.187C127.151 31.1868 127.151 31.1866 127.151 31.1864C127.151 31.1863 127.151 31.1861 127.151 31.1859C127.151 31.1857 127.151 31.1855 127.151 31.1853C127.151 31.1852 127.151 31.185 127.151 31.1848C127.151 31.1846 127.151 31.1844 127.151 31.1842C127.151 31.1841 127.151 31.1839 127.151 31.1837C127.151 31.1835 127.151 31.1833 127.151 31.1831C127.151 31.1829 127.151 31.1828 127.151 31.1826C127.151 31.1824 127.151 31.1822 127.151 31.182C127.151 31.1818 127.151 31.1817 127.151 31.1815C127.151 31.1813 127.151 31.1811 127.151 31.1809C127.151 31.1807 127.151 31.1806 127.151 31.1804C127.151 31.1802 127.151 31.18 127.151 31.1798C127.151 31.1796 127.151 31.1795 127.151 31.1793C127.151 31.1791 127.151 31.1789 127.151 31.1787C127.151 31.1785 127.151 31.1784 127.151 31.1782C127.151 31.178 127.151 31.1778 127.151 31.1776C127.151 31.1774 127.151 31.1773 127.151 31.1771C127.151 31.1769 127.151 31.1767 127.151 31.1765C127.151 31.1763 127.151 31.1762 127.151 31.176C127.151 31.1758 127.151 31.1756 127.151 31.1754C127.151 31.1752 127.151 31.1751 127.151 31.1749C127.151 31.1747 127.151 31.1745 127.151 31.1743C127.151 31.1741 127.151 31.174 127.151 31.1738C127.151 31.1736 127.151 31.1734 127.151 31.1732C127.151 31.173 127.151 31.1729 127.151 31.1727C127.151 31.1725 127.151 31.1723 127.151 31.1721C127.151 31.172 127.151 31.1718 127.151 31.1716C127.151 31.1714 127.151 31.1712 127.151 31.171C127.151 31.1709 127.151 31.1707 127.151 31.1705C127.151 31.1703 127.151 31.1701 127.151 31.1699C127.151 31.1698 127.151 31.1696 127.151 31.1694C127.151 31.1692 127.151 31.169 127.151 31.1688C127.151 31.1687 127.151 31.1685 127.151 31.1683C127.151 31.1681 127.151 31.1679 127.151 31.1678C127.151 31.1676 127.151 31.1674 127.151 31.1672C127.151 31.167 127.151 31.1668 127.151 31.1667C127.151 31.1665 127.151 31.1663 127.151 31.1661C127.151 31.1659 127.151 31.1658 127.151 31.1656C127.151 31.1654 127.151 31.1652 127.151 31.165C127.151 31.1648 127.151 31.1647 127.151 31.1645C127.151 31.1643 127.151 31.1641 127.151 31.1639C127.151 31.1638 127.151 31.1636 127.151 31.1634C127.151 31.1632 127.151 31.163 127.151 31.1628C127.151 31.1627 127.151 31.1625 127.151 31.1623C127.151 31.1621 127.151 31.1619 127.151 31.1618C127.151 31.1616 127.151 31.1614 127.151 31.1612C127.151 31.161 127.151 31.1608 127.151 31.1607C127.151 31.1605 127.151 31.1603 127.151 31.1601C127.151 31.1599 127.151 31.1598 127.151 31.1596C127.151 31.1594 127.151 31.1592 127.151 31.159C127.151 31.1589 127.151 31.1587 127.151 31.1585C127.151 31.1583 127.151 31.1581 127.151 31.1579C127.151 31.1578 127.151 31.1576 127.151 31.1574C127.151 31.1572 127.151 31.157 127.151 31.1569C127.151 31.1567 127.151 31.1565 127.151 31.1563C127.151 31.1561 127.151 31.156 127.151 31.1558C127.151 31.1556 127.151 31.1554 127.151 31.1552C127.151 31.1551 127.151 31.1549 127.151 31.1547C127.151 31.1545 127.151 31.1543 127.151 31.1541C127.151 31.154 127.151 31.1538 127.151 31.1536C127.151 31.1534 127.151 31.1532 127.151 31.1531C127.151 31.1529 127.151 31.1527 127.151 31.1525C127.151 31.1523 127.151 31.1522 127.151 31.152C127.151 31.1518 127.151 31.1516 127.151 31.1514C127.151 31.1513 127.151 31.1511 127.151 31.1509C127.151 31.1507 127.151 31.1505 127.151 31.1504C127.151 31.1502 127.151 31.15 127.151 31.1498C127.151 31.1496 127.151 31.1495 127.151 31.1493C127.151 31.1491 127.151 31.1489 127.151 31.1487C127.151 31.1486 127.151 31.1484 127.151 31.1482C127.151 31.148 127.151 31.1478 127.151 31.1477C127.151 31.1475 127.151 31.1473 127.151 31.1471C127.151 31.1469 127.151 31.1468 127.151 31.1466C127.151 31.1464 127.151 31.1462 127.151 31.146C127.151 31.1459 127.151 31.1457 127.151 31.1455C127.151 31.1453 127.151 31.1451 127.151 31.145C127.151 31.1448 127.151 31.1446 127.151 31.1444C127.151 31.1442 127.151 31.1441 127.151 31.1439C127.151 31.1437 127.151 31.1435 127.151 31.1433C127.151 31.1432 127.151 31.143 127.151 31.1428C127.151 31.1426 127.151 31.1424 127.151 31.1423C127.151 31.1421 127.151 31.1419 127.151 31.1417C127.151 31.1416 127.151 31.1414 127.151 31.1412C127.151 31.141 127.151 31.1408 127.151 31.1407C127.151 31.1405 127.151 31.1403 127.151 31.1401C127.151 31.1399 127.151 31.1398 127.151 31.1396C127.151 31.1394 127.151 31.1392 127.151 31.139C127.151 31.1389 127.151 31.1387 127.151 31.1385C127.151 31.1383 127.151 31.1381 127.151 31.138C127.151 31.1378 127.151 31.1376 127.151 31.1374C127.151 31.1373 127.151 31.1371 127.151 31.1369C127.151 31.1367 127.151 31.1365 127.151 31.1364C127.151 31.1362 127.151 31.136 127.151 31.1358C127.151 31.1356 127.151 31.1355 127.151 31.1353C127.151 31.1351 127.151 31.1349 127.151 31.1348C127.151 31.1346 127.151 31.1344 127.151 31.1342C127.151 31.134 127.151 31.1339 127.151 31.1337C127.151 31.1335 127.151 31.1333 127.151 31.1332C127.151 31.133 127.151 31.1328 127.151 31.1326C127.151 31.1324 127.151 31.1323 127.151 31.1321C127.151 31.1319 127.151 31.1317 127.151 31.1315C127.151 31.1314 127.151 31.1312 127.151 31.131C127.151 31.1308 127.151 31.1307 127.151 31.1305C127.151 31.1303 127.151 31.1301 127.151 31.1299C127.151 31.1298 127.151 31.1296 127.151 31.1294C127.151 31.1292 127.151 31.1291 127.151 31.1289C127.151 31.1287 127.151 31.1285 127.151 31.1283C127.151 31.1282 127.151 31.128 127.151 31.1278C127.151 31.1276 127.151 31.1275 127.151 31.1273C127.151 31.1271 127.151 31.1269 127.151 31.1267C127.151 31.1266 127.151 31.1264 127.151 31.1262C127.151 31.126 127.151 31.1259 127.151 31.1257C127.151 31.1255 127.151 31.1253 127.151 31.1251C127.151 31.125 127.151 31.1248 127.151 31.1246C127.151 31.1244 127.151 31.1243 127.151 31.1241C127.151 31.1239 127.151 31.1237 127.151 31.1236C127.151 31.1234 127.151 31.1232 127.151 31.123C127.151 31.1228 127.151 31.1227 127.151 31.1225C127.151 31.1223 127.151 31.1221 127.151 31.122C127.151 31.1218 127.151 31.1216 127.151 31.1214C127.151 31.1213 127.151 31.1211 127.151 31.1209C127.151 31.1207 127.151 31.1205 127.151 31.1204C127.151 31.1202 127.151 31.12 127.151 31.1198C127.151 31.1197 127.151 31.1195 127.151 31.1193C127.151 31.1191 127.151 31.119 127.151 31.1188C127.151 31.1186 127.151 31.1184 127.151 31.1182C127.151 31.1181 127.151 31.1179 127.151 31.1177C127.151 31.1175 127.151 31.1174 127.151 31.1172C127.151 31.117 127.151 31.1168 127.151 31.1167C127.151 31.1165 127.151 31.1163 127.151 31.1161C127.151 31.116 127.151 31.1158 127.151 31.1156C127.151 31.1154 127.151 31.1152 127.151 31.1151C127.151 31.1149 127.151 31.1147 127.151 31.1145C127.151 31.1144 127.151 31.1142 127.151 31.114C127.151 31.1138 127.151 31.1137 127.151 31.1135C127.151 31.1133 127.151 31.1131 127.151 31.113C127.151 31.1128 127.151 31.1126 127.151 31.1124C127.151 31.1123 127.151 31.1121 127.151 31.1119C127.151 31.1117 127.151 31.1116 127.151 31.1114C127.151 31.1112 127.151 31.111 127.151 31.1108C127.151 31.1107 127.151 31.1105 127.151 31.1103C127.151 31.1101 127.151 31.11 127.151 31.1098C127.151 31.1096 127.151 31.1094 127.151 31.1093C127.151 31.1091 127.151 31.1089 127.151 31.1087C127.151 31.1086 127.151 31.1084 127.151 31.1082C127.151 31.108 127.151 31.1079 127.151 31.1077C127.151 31.1075 127.151 31.1073 127.151 31.1072C127.151 31.107 127.151 31.1068 127.151 31.1066C127.151 31.1065 127.151 31.1063 127.151 31.1061C127.151 31.1059 127.151 31.1058 127.151 31.1056C127.151 31.1054 127.151 31.1052 127.151 31.1051C127.151 31.1049 127.151 31.1047 127.151 31.1045C127.151 31.1044 127.151 31.1042 127.151 31.104C127.151 31.1038 127.151 31.1037 127.151 31.1035C127.151 31.1033 127.151 31.1031 127.151 31.103C127.151 31.1028 127.151 31.1026 127.151 31.1024C127.151 31.1023 127.151 31.1021 127.151 31.1019C127.151 31.1017 127.151 31.1016 127.151 31.1014C127.151 31.1012 127.151 31.101 127.151 31.1009C127.151 31.1007 127.151 31.1005 127.151 31.1003C127.151 31.1002 127.151 31.1 127.151 31.0998C127.151 31.0996 127.151 31.0995 127.151 31.0993C127.151 31.0991 127.151 31.0989 127.151 31.0988C127.151 31.0986 127.151 31.0984 127.151 31.0982C127.151 31.0981 127.151 31.0979 127.151 31.0977C127.151 31.0976 127.151 31.0974 127.151 31.0972C127.151 31.097 127.151 31.0969 127.151 31.0967C127.151 31.0965 127.151 31.0963 127.151 31.0962C127.151 31.096 127.151 31.0958 127.151 31.0956C127.151 31.0955 127.151 31.0953 127.151 31.0951C127.151 31.0949 127.151 31.0948 127.151 31.0946C127.151 31.0944 127.151 31.0942 127.151 31.0941C127.151 31.0939 127.151 31.0937 127.151 31.0936C127.151 31.0934 127.151 31.0932 127.151 31.093C127.151 31.0929 127.151 31.0927 127.151 31.0925C127.151 31.0923 127.151 31.0922 127.151 31.092C127.151 31.0918 127.151 31.0916 127.151 31.0915C127.151 31.0913 127.151 31.0911 127.151 31.0909C127.151 31.0908 127.151 31.0906 127.151 31.0904C127.151 31.0903 127.151 31.0901 127.151 31.0899C127.151 31.0897 127.151 31.0896 127.151 31.0894C127.151 31.0892 127.151 31.089 127.151 31.0889C127.151 31.0887 127.151 31.0885 127.151 31.0883C127.151 31.0882 127.151 31.088 127.151 31.0878C127.151 31.0877 127.151 31.0875 127.151 31.0873C127.151 31.0871 127.151 31.087 127.151 31.0868C127.151 31.0866 127.151 31.0864 127.151 31.0863C127.151 31.0861 127.151 31.0859 127.151 31.0858C127.151 31.0856 127.151 31.0854 127.151 31.0852C127.151 31.0851 127.151 31.0849 127.151 31.0847C127.151 31.0845 127.151 31.0844 127.151 31.0842C127.151 31.084 127.151 31.0839 127.151 31.0837C127.151 31.0835 127.151 31.0833 127.151 31.0832C127.151 31.083 127.151 31.0828 127.151 31.0826C127.151 31.0825 127.151 31.0823 127.151 31.0821C127.151 31.082 127.151 31.0818 127.151 31.0816C127.151 31.0814 127.151 31.0813 127.151 31.0811C127.151 31.0809 127.151 31.0808 127.151 31.0806C127.151 31.0804 127.151 31.0802 127.151 31.0801C127.151 31.0799 127.151 31.0797 127.151 31.0795C127.151 31.0794 127.151 31.0792 127.151 31.079C127.151 31.0789 127.151 31.0787 127.151 31.0785C127.151 31.0783 127.151 31.0782 127.151 31.078C127.151 31.0778 127.151 31.0777 127.151 31.0775C127.151 31.0773 127.151 31.0771 127.151 31.077C127.151 31.0768 127.151 31.0766 127.151 31.0765C127.151 31.0763 127.151 31.0761 127.151 31.0759C127.151 31.0758 127.151 31.0756 127.151 31.0754C127.151 31.0753 127.151 31.0751 127.151 31.0749C127.151 31.0747 127.151 31.0746 127.151 31.0744C127.151 31.0742 127.151 31.0741 127.151 31.0739C127.151 31.0737 127.151 31.0735 127.151 31.0734C127.151 31.0732 127.151 31.073 127.151 31.0729C127.151 31.0727 127.151 31.0725 127.151 31.0723C127.151 31.0722 127.151 31.072 127.151 31.0718C127.151 31.0717 127.151 31.0715 127.151 31.0713C127.151 31.0711 127.151 31.071 127.151 31.0708C127.151 31.0706 127.151 31.0705 127.151 31.0703C127.151 31.0701 127.151 31.0699 127.151 31.0698C127.151 31.0696 127.151 31.0694 127.151 31.0693C127.151 31.0691 127.151 31.0689 127.151 31.0687C127.151 31.0686 127.151 31.0684 127.151 31.0682C127.151 31.0681 127.151 31.0679 127.151 31.0677C127.151 31.0676 127.151 31.0674 127.151 31.0672C127.151 31.067 127.151 31.0669 127.151 31.0667C127.151 31.0665 127.151 31.0664 127.151 31.0662C127.151 31.066 127.151 31.0658 127.151 31.0657C127.151 31.0655 127.151 31.0653 127.151 31.0652C127.151 31.065 127.151 31.0648 127.151 31.0647C127.151 31.0645 127.151 31.0643 127.151 31.0641C127.151 31.064 127.151 31.0638 127.151 31.0636C127.151 31.0635 127.151 31.0633 127.151 31.0631C127.151 31.063 127.151 31.0628 127.151 31.0626C127.151 31.0624 127.151 31.0623 127.151 31.0621C127.151 31.0619 127.151 31.0618 127.151 31.0616C127.151 31.0614 127.151 31.0613 127.151 31.0611C127.151 31.0609 127.151 31.0607 127.151 31.0606C127.151 31.0604 127.151 31.0602 127.151 31.0601C127.151 31.0599 127.151 31.0597 127.151 31.0596C127.151 31.0594 127.151 31.0592 127.151 31.059C127.151 31.0589 127.151 31.0587 127.151 31.0585C127.151 31.0584 127.151 31.0582 127.151 31.058C127.151 31.0579 127.151 31.0577 127.151 31.0575C127.151 31.0574 127.151 31.0572 127.151 31.057C127.151 31.0568 127.151 31.0567 127.151 31.0565C127.151 31.0563 127.151 31.0562 127.151 31.056C127.151 31.0558 127.151 31.0557 127.151 31.0555C127.151 31.0553 127.151 31.0552 127.151 31.055C127.151 31.0548 127.151 31.0546 127.151 31.0545C127.151 31.0543 127.151 31.0541 127.151 31.054C127.151 31.0538 127.151 31.0536 127.151 31.0535C127.151 31.0533 127.151 31.0531 127.151 31.053C127.151 31.0528 127.151 31.0526 127.151 31.0524C127.151 31.0523 127.151 31.0521 127.151 31.0519C127.151 31.0518 127.151 31.0516 127.151 31.0514C127.151 31.0513 127.151 31.0511 127.151 31.0509C127.151 31.0508 127.151 31.0506 127.151 31.0504C127.151 31.0503 127.151 31.0501 127.151 31.0499C127.151 31.0497 127.151 31.0496 127.151 31.0494C127.151 31.0492 127.151 31.0491 127.151 31.0489C127.151 31.0487 127.151 31.0486 127.151 31.0484C127.151 31.0482 127.151 31.0481 127.151 31.0479C127.151 31.0477 127.151 31.0476 127.151 31.0474C127.151 31.0472 127.151 31.0471 127.151 31.0469C127.151 31.0467 127.151 31.0466 127.151 31.0464C127.151 31.0462 127.151 31.046 127.151 31.0459C127.151 31.0457 127.151 31.0455 127.151 31.0454C127.151 31.0452 127.151 31.045 127.151 31.0449C127.151 31.0447 127.151 31.0445 127.151 31.0444C127.151 31.0442 127.151 31.044 127.151 31.0439C127.151 31.0437 127.151 31.0435 127.151 31.0434C127.151 31.0432 127.151 31.043 127.151 31.0429C127.151 31.0427 127.151 31.0425 127.151 31.0424C127.151 31.0422 127.151 31.042 127.151 31.0419C127.151 31.0417 127.151 31.0415 127.151 31.0413C127.151 31.0412 127.151 31.041 127.151 31.0408C127.151 31.0407 127.151 31.0405 127.151 31.0403C127.151 31.0402 127.151 31.04 127.151 31.0398C127.151 31.0397 127.151 31.0395 127.151 31.0393C127.151 31.0392 127.151 31.039 127.151 31.0388C127.151 31.0387 127.151 31.0385 127.151 31.0383C127.151 31.0382 127.151 31.038 127.151 31.0378C127.151 31.0377 127.151 31.0375 127.151 31.0373C127.151 31.0372 127.151 31.037 127.151 31.0368C127.151 31.0367 127.151 31.0365 127.151 31.0363C127.151 31.0362 127.151 31.036 127.151 31.0358C127.151 31.0357 127.151 31.0355 127.151 31.0353C127.151 31.0352 127.151 31.035 127.151 31.0348C127.151 31.0347 127.151 31.0345 127.151 31.0343C127.151 31.0342 127.151 31.034 127.151 31.0338C127.151 31.0337 127.151 31.0335 127.151 31.0333C127.151 31.0332 127.151 31.033 127.151 31.0328C127.151 31.0327 127.151 31.0325 127.151 31.0323C127.151 31.0322 127.151 31.032 127.151 31.0318C127.151 31.0317 127.151 31.0315 127.151 31.0313C127.151 31.0312 127.151 31.031 127.151 31.0308C127.151 31.0307 127.151 31.0305 127.151 31.0303C127.151 31.0302 127.151 31.03 127.151 31.0298C127.151 31.0297 127.151 31.0295 127.151 31.0293C127.151 31.0292 127.151 31.029 127.151 31.0288C127.151 31.0287 127.151 31.0285 127.151 31.0283C127.151 31.0282 127.151 31.028 127.151 31.0279C127.151 31.0277 127.151 31.0275 127.151 31.0274C127.151 31.0272 127.151 31.027 127.151 31.0269C127.151 31.0267 127.151 31.0265 127.151 31.0264C127.151 31.0262 127.151 31.026 127.151 31.0259C127.151 31.0257 127.151 31.0255 127.151 31.0254C127.151 31.0252 127.151 31.025 127.151 31.0249C127.151 31.0247 127.151 31.0245 127.151 31.0244C127.151 31.0242 127.151 31.024 127.151 31.0239C127.151 31.0237 127.151 31.0235 127.151 31.0234C127.151 31.0232 127.151 31.0231 127.151 31.0229C127.151 31.0227 127.151 31.0226 127.151 31.0224C127.151 31.0222 127.151 31.0221 127.151 31.0219C127.151 31.0217 127.151 31.0216 127.151 31.0214C127.151 31.0212 127.151 31.0211 127.151 31.0209C127.151 31.0207 127.151 31.0206 127.151 31.0204C127.151 31.0202 127.151 31.0201 127.151 31.0199C127.151 31.0197 127.151 31.0196 127.151 31.0194C127.151 31.0193 127.151 31.0191 127.151 31.0189C127.151 31.0188 127.151 31.0186 127.151 31.0184C127.151 31.0183 127.151 31.0181 127.151 31.0179C127.151 31.0178 127.151 31.0176 127.151 31.0174C127.151 31.0173 127.151 31.0171 127.151 31.0169C127.151 31.0168 127.151 31.0166 127.151 31.0165C127.151 31.0163 127.151 31.0161 127.151 31.016C127.151 31.0158 127.151 31.0156 127.151 31.0155C127.151 31.0153 127.151 31.0151 127.151 31.015C127.151 31.0148 127.151 31.0146 127.151 31.0145C127.151 31.0143 127.151 31.0142 127.151 31.014C127.151 31.0138 127.151 31.0137 127.151 31.0135C127.151 31.0133 127.151 31.0132 127.151 31.013C127.151 31.0128 127.151 31.0127 127.151 31.0125C127.151 31.0124 127.151 31.0122 127.151 31.012C127.151 31.0119 127.151 31.0117 127.151 31.0115C127.151 31.0114 127.151 31.0112 127.151 31.011C127.151 31.0109 127.151 31.0107 127.151 31.0105C127.151 31.0104 127.151 31.0102 127.151 31.0101C127.151 31.0099 127.151 31.0097 127.151 31.0096C127.151 31.0094 127.151 31.0092 127.151 31.0091C127.151 31.0089 127.151 31.0088 127.151 31.0086C127.151 31.0084 127.151 31.0083 127.151 31.0081C127.151 31.0079 127.151 31.0078 127.151 31.0076C127.151 31.0074 127.151 31.0073 127.151 31.0071C127.151 31.007 127.151 31.0068 127.151 31.0066C127.151 31.0065 127.151 31.0063 127.151 31.0061C127.151 31.006 127.151 31.0058 127.151 31.0056C127.151 31.0055 127.151 31.0053 127.151 31.0052C127.151 31.005 127.151 31.0048 127.151 31.0047C127.151 31.0045 127.151 31.0043 127.151 31.0042C127.151 31.004 127.151 31.0039 127.151 31.0037C127.151 31.0035 127.151 31.0034 127.151 31.0032C127.151 31.003 127.151 31.0029 127.151 31.0027C127.151 31.0026 127.151 31.0024 127.151 31.0022C127.151 31.0021 127.151 31.0019 127.151 31.0017C127.151 31.0016 127.151 31.0014 127.151 31.0013C127.151 31.0011 127.151 31.0009 127.151 31.0008C127.151 31.0006 127.151 31.0004 127.151 31.0003C127.151 31.0001 127.151 31 127.151 30.9998C127.151 30.9996 127.151 30.9995 127.151 30.9993C127.151 30.9991 127.151 30.999 127.151 30.9988C127.151 30.9987 127.151 30.9985 127.151 30.9983C127.151 30.9982 127.151 30.998 127.151 30.9978C127.151 30.9977 127.151 30.9975 127.151 30.9974C127.151 30.9972 127.151 30.997 127.151 30.9969C127.151 30.9967 127.151 30.9965 127.151 30.9964C127.151 30.9962 127.151 30.9961 127.151 30.9959C127.151 30.9957 127.151 30.9956 127.151 30.9954C127.151 30.9953 127.151 30.9951 127.151 30.9949C127.151 30.9948 127.151 30.9946 127.151 30.9944C127.151 30.9943 127.151 30.9941 127.151 30.994C127.151 30.9938 127.151 30.9936 127.151 30.9935C127.151 30.9933 127.151 30.9932 127.151 30.993C127.151 30.9928 127.151 30.9927 127.151 30.9925C127.151 30.9923 127.151 30.9922 127.151 30.992C127.151 30.9919 127.151 30.9917 127.151 30.9915C127.151 30.9914 127.151 30.9912 127.151 30.9911C127.151 30.9909 127.151 30.9907 127.151 30.9906C127.151 30.9904 127.151 30.9902 127.151 30.9901C127.151 30.9899 127.151 30.9898 127.151 30.9896C127.151 30.9894 127.151 30.9893 127.151 30.9891C127.151 30.989 127.151 30.9888 127.151 30.9886C127.151 30.9885 127.151 30.9883 127.151 30.9882C127.151 30.988 127.151 30.9878 127.151 30.9877C127.151 30.9875 127.151 30.9873 127.151 30.9872C127.151 30.987 127.151 30.9869 127.151 30.9867C127.151 30.9865 127.151 30.9864 127.151 30.9862C127.151 30.9861 127.151 30.9859 127.151 30.9857C127.151 30.9856 127.151 30.9854 127.151 30.9853C127.151 30.9851 127.151 30.9849 127.151 30.9848C127.151 30.9846 127.151 30.9845 127.151 30.9843C127.151 30.9841 127.151 30.984 127.151 30.9838C127.151 30.9837 127.151 30.9835 127.151 30.9833C127.151 30.9832 127.151 30.983 127.151 30.9829C127.151 30.9827 127.151 30.9825 127.151 30.9824C127.151 30.9822 127.151 30.9821 127.151 30.9819C127.151 30.9817 127.151 30.9816 127.151 30.9814C127.151 30.9813 127.151 30.9811 127.151 30.9809C127.151 30.9808 127.151 30.9806 127.151 30.9805C127.151 30.9803 127.151 30.9801 127.151 30.98C127.151 30.9798 127.151 30.9797 127.151 30.9795C127.151 30.9793 127.151 30.9792 127.151 30.979C127.151 30.9789 127.151 30.9787 127.151 30.9785C127.151 30.9784 127.151 30.9782 127.151 30.9781C127.151 30.9779 127.151 30.9777 127.151 30.9776C127.151 30.9774 127.151 30.9773 127.151 30.9771C127.151 30.9769 127.151 30.9768 127.151 30.9766C127.151 30.9765 127.151 30.9763 127.151 30.9761C127.151 30.976 127.151 30.9758 127.151 30.9757C127.151 30.9755 127.151 30.9753 127.151 30.9752C127.151 30.975 127.151 30.9749 127.151 30.9747C127.151 30.9746 127.151 30.9744 127.151 30.9742C127.151 30.9741 127.151 30.9739 127.151 30.9738C127.151 30.9736 127.151 30.9734 127.151 30.9733C127.151 30.9731 127.151 30.973 127.151 30.9728C127.151 30.9726 127.151 30.9725 127.151 30.9723C127.151 30.9722 127.151 30.972 127.151 30.9718C127.151 30.9717 127.151 30.9715 127.151 30.9714C127.151 30.9712 127.151 30.9711 127.151 30.9709C127.151 30.9707 127.151 30.9706 127.151 30.9704C127.151 30.9703 127.151 30.9701 127.151 30.9699C127.151 30.9698 127.151 30.9696 127.151 30.9695C127.151 30.9693 127.151 30.9692 127.151 30.969C127.151 30.9688 127.151 30.9687 127.151 30.9685C127.151 30.9684 127.151 30.9682 127.151 30.968C127.151 30.9679 127.151 30.9677 127.151 30.9676C127.151 30.9674 127.151 30.9673 127.151 30.9671C127.151 30.9669 127.151 30.9668 127.151 30.9666C127.151 30.9665 127.151 30.9663 127.151 30.9661C127.151 30.966 127.151 30.9658 127.151 30.9657C127.151 30.9655 127.151 30.9654 127.151 30.9652C127.151 30.965 127.151 30.9649 127.151 30.9647C127.151 30.9646 127.151 30.9644 127.151 30.9642C127.151 30.9641 127.151 30.9639 127.151 30.9638C127.151 30.9636 127.151 30.9635 127.151 30.9633C127.151 30.9631 127.151 30.963 127.151 30.9628C127.151 30.9627 127.151 30.9625 127.151 30.9624C127.151 30.9622 127.151 30.962 127.151 30.9619C127.151 30.9617 127.151 30.9616 127.151 30.9614C127.151 30.9613 127.151 30.9611 127.151 30.9609C127.151 30.9608 127.151 30.9606 127.151 30.9605C127.151 30.9603 127.151 30.9602 127.151 30.96C127.151 30.9598 127.151 30.9597 127.151 30.9595C127.151 30.9594 127.151 30.9592 127.151 30.9591C127.151 30.9589 127.151 30.9587 127.151 30.9586C127.151 30.9584 127.151 30.9583 127.151 30.9581C127.151 30.958 127.151 30.9578 127.151 30.9576C127.151 30.9575 127.151 30.9573 127.151 30.9572C127.151 30.957 127.151 30.9569 127.151 30.9567C127.151 30.9565 127.151 30.9564 127.151 30.9562C127.151 30.9561 127.151 30.9559 127.151 30.9558C127.151 30.9556 127.151 30.9554 127.151 30.9553C127.151 30.9551 127.151 30.955 127.151 30.9548C127.151 30.9547 127.151 30.9545 127.151 30.9543C127.151 30.9542 127.151 30.954 127.151 30.9539C127.151 30.9537 127.151 30.9536 127.151 30.9534C127.151 30.9533 127.151 30.9531 127.151 30.9529C127.151 30.9528 127.151 30.9526 127.151 30.9525C127.151 30.9523 127.151 30.9522 127.151 30.952H125.151ZM126.151 30.216H115.183V32.216H126.151V30.216ZM116.183 31.216V29.944H114.183V31.216H116.183ZM115.183 30.944H125.239V28.944H115.183V30.944ZM124.639 29.144L123.967 29.648L125.167 31.248L125.839 30.744L124.639 29.144ZM125.567 30.448C125.567 29.3851 125.333 28.4028 124.837 27.53L123.098 28.518C123.402 29.0532 123.567 29.6869 123.567 30.448H125.567ZM124.85 27.5534C124.384 26.6798 123.731 25.9822 122.895 25.4847L121.872 27.2033C122.38 27.5058 122.783 27.9282 123.085 28.4946L124.85 27.5534ZM122.895 25.4847C122.05 24.9815 121.092 24.744 120.055 24.744V26.744C120.778 26.744 121.373 26.9065 121.872 27.2033L122.895 25.4847ZM120.055 24.744C119.03 24.744 118.078 24.9832 117.225 25.4795L118.23 27.2085C118.752 26.9048 119.352 26.744 120.055 26.744V24.744ZM117.225 25.4795C116.372 25.9754 115.706 26.6737 115.237 27.5534L117.002 28.4946C117.301 27.9343 117.707 27.5126 118.23 27.2085L117.225 25.4795ZM115.237 27.5534C114.766 28.4371 114.543 29.4266 114.543 30.496H116.543C116.543 29.7094 116.705 29.0509 117.002 28.4946L115.237 27.5534ZM114.543 30.496V30.76H116.543V30.496H114.543ZM114.543 30.76C114.543 31.8687 114.785 32.8905 115.297 33.7961L117.038 32.8119C116.718 32.2455 116.543 31.5713 116.543 30.76H114.543ZM115.31 33.8185C115.835 34.6931 116.557 35.3839 117.459 35.883L118.427 34.133C117.826 33.8001 117.364 33.3549 117.025 32.7895L115.31 33.8185ZM117.482 35.8949C118.409 36.3782 119.443 36.608 120.559 36.608V34.608C119.724 34.608 119.013 34.4378 118.405 34.1211L117.482 35.8949ZM120.559 36.608C121.448 36.608 122.291 36.4501 123.078 36.1237L122.312 34.2763C121.787 34.4939 121.207 34.608 120.559 34.608V36.608ZM123.071 36.1269C123.894 35.7939 124.6 35.282 125.183 34.6028L123.664 33.3012C123.286 33.742 122.841 34.0621 122.32 34.2731L123.071 36.1269ZM123.669 34.6082L124.629 35.7122L126.138 34.3998L125.178 33.2958L123.669 34.6082ZM124.615 34.4158C124.164 34.9574 123.594 35.3752 122.888 35.6684L123.655 37.5156C124.644 37.1048 125.483 36.4986 126.152 35.6962L124.615 34.4158ZM122.882 35.671C122.187 35.9652 121.401 36.12 120.511 36.12V38.12C121.638 38.12 122.692 37.9228 123.661 37.513L122.882 35.671Z" fill="black" mask="url(#path-18-outside-1_435_2024)"/>
</svg>
