<svg width="69" height="69" viewBox="0 0 69 69" fill="none" xmlns="http://www.w3.org/2000/svg">
<rect x="34.2227" y="0.707107" width="47.4" height="47.4" rx="5.5" transform="rotate(45 34.2227 0.707107)" fill="#DD2626" fill-opacity="0.1"/>
<rect x="34.2227" y="0.707107" width="47.4" height="47.4" rx="5.5" transform="rotate(45 34.2227 0.707107)" stroke="#DD2626"/>
<g clip-path="url(#clip0_122_948)">
<g clip-path="url(#clip1_122_948)">
<path d="M33.482 43.2366C28.0313 35.5049 27.0195 34.7114 27.0195 31.8698C27.0195 27.9776 30.2443 24.8223 34.2222 24.8223C38.2002 24.8223 41.4249 27.9776 41.4249 31.8698C41.4249 34.7114 40.4131 35.5049 34.9624 43.2366C34.6047 43.7422 33.8396 43.7422 33.482 43.2366ZM34.2222 34.8063C35.8797 34.8063 37.2233 33.4916 37.2233 31.8698C37.2233 30.2481 35.8797 28.9334 34.2222 28.9334C32.5647 28.9334 31.2211 30.2481 31.2211 31.8698C31.2211 33.4916 32.5647 34.8063 34.2222 34.8063Z" fill="white"/>
</g>
</g>
<defs>
<clipPath id="clip0_122_948">
<rect width="18.7" height="17.6" fill="white" transform="translate(24.8711 25.4199)"/>
</clipPath>
<clipPath id="clip1_122_948">
<rect width="18.7" height="17.6" fill="white" transform="translate(24.8711 25.4199)"/>
</clipPath>
</defs>
</svg>
