<svg width="82" height="83" viewBox="0 0 82 83" fill="none" xmlns="http://www.w3.org/2000/svg">
<path d="M21.7059 26.7074H43.0815V63.4127L39.3251 57.965V30.2797H27.6087L25.9094 33.852L21.7059 26.7074Z" fill="black"/>
<path fill-rule="evenodd" clip-rule="evenodd" d="M45.0491 26.7074H66.0669L61.9714 33.3388C61.5495 34.0253 60.9495 34.5851 60.2349 34.9589L51.9358 39.2997L57.2126 42.2469L45.0491 63.4127V26.7074ZM48.4477 30.1011H60.0746L59.3452 31.4915C59.1794 31.8076 58.9226 32.0668 58.6079 32.2358L48.4477 37.6922V30.1011ZM52.7407 43.4079L48.6266 41.5324V49.9273L52.7407 43.4079Z" fill="black"/>
<path d="M26.0627 63.5006C26.3379 63.6838 26.6168 63.8633 26.8988 64.0386L19.2761 56.4029L31.0568 56.876L21.0698 55.0697L29.4885 48.2701L18.8936 53.6114L22.6803 43.7514L17.6314 53.1745L15.0249 44.1392L15.7887 49.717C15.8057 49.7586 15.8228 49.8006 15.8402 49.843C16.1424 50.5802 16.4741 51.4456 16.5773 51.7662C16.8116 52.4938 17.0645 53.5612 17.0144 53.6114C16.9834 53.6424 16.4825 52.6243 16.0628 51.7183L16.322 53.6114L13.8542 51.6149C13.9669 52.0392 14.2505 52.4858 14.8324 53.3506C15.4108 54.21 16.0818 55.5195 16.0818 55.7885C16.0818 55.8625 16.1143 55.9553 16.1538 55.995C16.1934 56.0346 16.2691 56.2181 16.322 56.4029C16.4421 56.8227 16.5564 56.8376 16.8077 56.4662C17.0235 56.1476 17.285 54.7265 17.1857 54.4133C17.0546 54 17.3084 54.2745 17.7925 55.0697C18.8642 56.8302 20.0616 58.3135 21.8448 60.0899L26.0627 63.5006Z" fill="black"/>
<path d="M16.034 59.5122C15.8756 59.2746 15.7215 59.0586 15.6914 59.0321C15.6689 59.0123 15.4387 58.6788 15.1319 58.2232L15.1227 58.2095L11.9706 67.3667L16.0716 59.5684C16.059 59.5496 16.0465 59.5309 16.034 59.5122Z" fill="black"/>
<path d="M14.0584 56.6295L5.46827 62.2691L14.6706 57.5337C14.4769 57.2448 14.2625 56.9282 14.0584 56.6295Z" fill="black"/>
<path d="M13.3912 55.6666C12.8999 54.9749 12.6321 54.5931 12.5144 54.3828L3.05859 53.9691L13.4329 55.7254C13.4185 55.705 13.4046 55.6854 13.3912 55.6666Z" fill="black"/>
<path d="M12.4821 51.5894C12.4555 51.5052 12.4284 51.4216 12.401 51.3394C12.2604 50.9176 12.1409 50.542 12.038 50.1967C12.0312 50.1741 12.0246 50.1517 12.018 50.1294L7.6867 46.6254L12.4821 51.5894Z" fill="black"/>
<path d="M19.8262 66.3137C19.7002 66.255 19.5753 66.1986 19.452 66.1444L20.1941 68.9916L19.8262 66.3137Z" fill="black"/>
<path d="M75.7011 53.0331C75.6006 53.1858 75.0149 54.0896 74.3995 55.0416C73.7841 55.9935 72.6684 57.7171 71.9203 58.8717C71.1721 60.0264 70.56 61.0108 70.56 61.0593C70.56 61.1079 70.5217 61.1476 70.4751 61.1476C70.4284 61.1476 70.3635 61.2234 70.3309 61.3159C70.2983 61.4084 70.2465 61.5383 70.2156 61.6044C70.1469 61.7519 70.7159 61.7702 71.0787 61.6321C71.1907 61.5895 71.2988 61.575 71.3447 61.5935C71.4019 61.5183 71.4583 61.4433 71.5142 61.3684C71.4897 61.31 71.3968 61.2953 71.2231 61.3208C70.9717 61.3577 70.9312 61.3365 70.9627 61.184C70.9909 61.0466 71.0724 61.0091 71.3032 61.0271C71.5775 61.0485 71.6567 60.984 72.1294 60.354C72.4169 59.9707 72.7387 59.5057 72.8446 59.3206C72.9504 59.1355 73.2796 58.585 73.576 58.0972C73.7065 57.8824 73.8266 57.6776 73.9201 57.5117C73.9864 57.3818 74.0516 57.2515 74.1157 57.1209C74.129 57.051 74.3298 56.6196 74.5735 56.1387C74.5772 56.1314 74.581 56.124 74.5847 56.1165C75.0449 55.081 75.4514 54.0124 75.8429 52.8772C75.8038 52.9004 75.7552 52.951 75.7011 53.0331Z" fill="black"/>
<path fill-rule="evenodd" clip-rule="evenodd" d="M48.7495 0.197605C47.3008 0.578297 45.8914 1.37478 44.5041 2.59686C43.1581 3.78259 41.6115 4.46657 39.5544 4.78572C38.9308 4.88255 38.259 5.03073 38.0615 5.11525C37.493 5.35824 36.8483 5.84096 36.6943 6.13905C36.5645 6.39022 36.1369 6.62571 35.8105 6.62571C35.7382 6.62571 35.8818 6.43128 36.1297 6.19357C36.3776 5.95587 36.5502 5.73134 36.5135 5.69451C36.4767 5.65778 36.3846 5.71624 36.3088 5.82461C36.1244 6.08818 35.4613 6.36272 34.2412 6.68071C32.8704 7.03804 32.3871 7.2743 31.5989 7.97299C31.229 8.30089 30.8319 8.63264 30.7165 8.71014C30.6012 8.78764 30.3257 9.08602 30.1044 9.37306L29.702 9.8951H28.9524C28.5401 9.8951 27.9874 9.94482 27.7244 10.0056C27.2872 10.1066 27.2233 10.0983 26.9835 9.90943C26.6746 9.66634 26.6305 9.66182 26.2329 9.83356C26.0664 9.90549 25.6734 10.0401 25.3597 10.1326C24.6784 10.3336 24.2487 10.7165 24.2487 11.1225C24.2487 11.2768 24.3131 11.6155 24.3918 11.8751C24.4705 12.1347 24.5353 12.5526 24.5359 12.8039C24.5369 13.2234 24.556 13.2607 24.7709 13.2607C25.1922 13.2607 25.4868 13.4391 25.6772 13.8097C25.9271 14.2963 26.5454 14.9912 26.5506 14.7914C26.5528 14.7078 26.4468 14.4266 26.3148 14.1664C26.1829 13.9063 26.0748 13.6386 26.0746 13.5717C26.0742 13.4204 26.6358 13.0692 26.8791 13.0687C26.9784 13.0685 27.3367 12.9318 27.6754 12.765C28.29 12.4621 28.2928 12.4617 29.0804 12.5695C29.5144 12.6289 30.2519 12.7244 30.7193 12.7816C32.2623 12.9707 32.6356 13.3913 32.0352 14.2645C31.6988 14.7541 31.2383 15.8744 30.9066 17.0108C30.5487 18.2373 30.2553 18.7746 29.8057 19.0275C29.2594 19.3348 28.7801 19.3128 28.5043 18.9677C28.222 18.6148 28.2258 18.2381 28.5198 17.4274C28.6495 17.07 28.7384 16.7602 28.7174 16.7392C28.6963 16.7182 28.5683 16.8206 28.433 16.9668C28.1842 17.2354 27.8998 18.012 27.8998 18.4226C27.8998 18.6196 27.8522 18.6464 27.4915 18.6531C27.2669 18.6573 27.148 18.6845 27.2272 18.7134C27.3065 18.7425 27.5984 18.9391 27.876 19.1505C28.5435 19.6587 29.0252 19.7218 29.6845 19.3874C30.4514 18.9985 30.7296 18.6564 31.0695 17.6839C31.5823 16.2171 32.7039 14.6324 32.7039 15.3748C32.7039 15.4798 32.7561 15.7612 32.8199 16C32.9277 16.403 32.9173 16.4713 32.6758 16.9485C32.5325 17.2319 32.4156 17.6225 32.4156 17.8186C32.4156 18.3024 32.2021 18.6786 31.789 18.9225C31.599 19.0347 31.4657 19.1623 31.4928 19.2061C31.5198 19.2499 31.7925 19.3452 32.0989 19.4177C32.5379 19.5217 32.7419 19.6376 33.0622 19.9646C33.5543 20.4672 33.8825 20.6132 34.1718 20.4582L34.3782 20.3477L34.1686 20.2701C33.8904 20.1671 33.6938 19.6601 33.7263 19.1295C33.7417 18.8785 33.7059 18.671 33.6404 18.6305C33.5594 18.5804 33.5739 18.5106 33.6926 18.3794C33.7829 18.2795 33.8569 18.1495 33.8569 18.0905C33.8569 18.0316 33.9326 17.9258 34.025 17.8556C34.3458 17.6117 34.6404 17.222 34.674 16.9968C34.7797 16.2881 34.8415 15.9808 34.9127 15.8089C34.9565 15.7031 35.0166 15.5408 35.0462 15.4483C35.0771 15.3513 35.1951 15.28 35.3243 15.28C35.6057 15.28 36.3167 14.8327 37.0198 14.2134C37.6575 13.6516 38.3846 13.2612 38.7973 13.2591C39.1864 13.2572 40.1901 13.0188 40.3085 12.9003C40.4062 12.8025 39.8628 12.4914 39.5942 12.4914C39.5158 12.4914 39.3277 12.4268 39.1763 12.3477C38.8064 12.1546 38.6922 12.1636 37.9495 12.4433C37.2922 12.6909 36.9315 12.7464 36.9315 12.5999C36.9315 12.5539 37.1368 12.4884 37.3879 12.4545C37.6389 12.4205 38.1901 12.2389 38.6129 12.0508C39.7576 11.5415 40.2521 11.4108 40.8126 11.4689C41.5438 11.5448 41.7868 11.6175 42.5884 12C42.9849 12.1893 43.8287 13.008 44.2327 13.5959C44.5296 14.0277 44.6562 14.1453 44.5632 13.9029C44.5364 13.833 44.4792 13.1298 44.4362 12.3403C44.3932 11.5508 44.3254 10.8291 44.2855 10.7365C44.2457 10.6439 44.2502 10.5689 44.2954 10.5697C44.3407 10.5704 44.5537 10.9057 44.7687 11.3149C45.0757 11.899 45.1995 12.0517 45.3452 12.0265C45.4473 12.0087 45.7692 11.9648 46.0606 11.9289C46.3521 11.893 46.7196 11.7749 46.8773 11.6665C47.7842 11.0435 50.0543 10.8789 51.68 11.3182C52.6408 11.578 53.823 12.2094 54.5144 12.8323C54.6465 12.9512 54.9275 13.0711 55.1389 13.0987C55.3503 13.1263 55.7178 13.1984 55.9556 13.259C56.1934 13.3197 56.5393 13.3989 56.7242 13.4352C57.5904 13.6048 59.7449 15.2579 60.9605 16.6854C61.6925 17.5451 62.5104 18.6394 62.8206 19.1744C62.9375 19.376 62.8764 19.3333 62.6184 19.0331C60.4059 16.459 59.02 15.325 57.3968 14.7601C56.8121 14.5567 55.3532 14.5507 55.1869 14.7511C55.0901 14.8679 55.0936 14.8953 55.2051 14.8953C55.2809 14.8953 55.434 14.9803 55.5453 15.0841C55.6567 15.188 56.1728 15.5541 56.6924 15.898C57.9056 16.7007 58.3892 17.0462 58.9822 17.5338C59.2464 17.7511 59.6355 18.0571 59.8469 18.214C60.3399 18.5798 63.0014 21.238 63.5011 21.8635C63.7107 22.1261 64.0472 22.5155 64.2488 22.7289C64.4504 22.9423 64.6827 23.2441 64.7651 23.3996C64.7962 23.4583 64.9578 23.6988 65.1905 24.0451L65.1908 24.0455C66.068 25.351 67.9542 28.1581 67.6628 28.3876C67.587 28.317 67.4065 28.1968 67.1931 28.0713C67.449 28.2924 67.6225 28.4194 67.6628 28.3876C67.8916 28.6011 68.5423 29.8422 68.5423 30.0653C68.5423 30.1323 68.5804 30.2624 68.6271 30.3542C69.0723 31.2299 69.8451 33.8148 69.9792 34.8763C70.0213 35.209 70.0791 35.5048 70.1078 35.5337C70.208 35.634 70.6517 34.5501 70.6546 34.1978C70.6554 34.1046 70.694 33.9531 70.7403 33.8613C70.9209 33.5038 71.0404 32.9885 71.0404 32.568C71.0404 32.3261 71.1108 31.7883 71.1968 31.3728C71.3505 30.6301 71.3381 29.1434 71.1722 28.4153C71.0503 27.881 71.2976 28.2477 71.5038 28.9072C71.9368 30.2925 72.1251 32.4223 71.9116 33.5214C71.8623 33.7751 71.7712 34.4155 71.7093 34.9444C71.6383 35.5504 71.4261 36.4573 71.1353 37.3965C70.8817 38.2162 70.6442 39.0307 70.6079 39.2064C70.5715 39.3819 70.5223 39.5063 70.4986 39.4825C70.4749 39.4588 70.4137 38.9256 70.3628 38.2977C70.3119 37.6698 70.235 36.9613 70.1919 36.7233L70.1135 36.2906L69.8055 37.2378C69.3021 38.7865 69.1242 39.8014 68.8254 42.8294C68.7058 44.0422 68.4313 45.0425 68.047 45.6661C67.83 46.0181 67.8076 46.1048 67.9271 46.131C68.081 46.1649 69.3356 45.5839 69.391 45.4532C69.4086 45.4117 69.4622 45.3776 69.51 45.3776C69.7165 45.3776 69.9836 45.0283 69.9858 44.7553C69.987 44.5951 70.0339 44.291 70.09 44.0795C70.1907 43.6997 70.3056 42.6121 70.4272 40.8874C70.4859 40.0549 70.4986 40.0142 70.6448 40.1926C70.7754 40.352 70.8722 40.3722 71.2519 40.3193C71.669 40.2612 71.7184 40.2245 71.9004 39.8372C72.0087 39.6066 72.0973 39.312 72.0973 39.1827C72.0973 39.0534 72.1426 38.8281 72.1981 38.6821C72.2535 38.5361 72.3017 37.8951 72.3049 37.2575L72.3109 36.0983L72.5413 36.8195C72.8918 37.9167 72.9934 38.7533 72.9209 39.9447C72.8493 41.1182 72.6903 41.7813 72.2777 42.6265C72.1256 42.9381 72.0012 43.2482 72.0012 43.3157C72.0012 43.3832 71.9688 43.4528 71.9291 43.4705C71.8895 43.4881 71.642 43.7622 71.3791 44.0795C70.8256 44.7474 70.4849 45.0681 70.2477 45.1442C70.1448 45.1773 70.0796 45.2947 70.0796 45.4468C70.0796 46.1165 68.8512 50.2305 68.4306 50.9694C68.3024 51.1947 68.302 51.1945 68.2718 50.8809C68.2239 50.3822 68.0607 50.6251 68.073 51.1768C68.0792 51.4514 68.1039 51.6002 68.1281 51.5077C68.1523 51.4152 68.2055 51.3394 68.2464 51.3394C68.3248 51.3394 68.4452 52.9467 68.4475 54.0229C68.4491 54.7601 68.5214 55.098 68.674 55.0798C69.2074 55.0162 69.2394 55.055 69.1973 55.7161C69.1655 56.2182 69.117 56.3708 68.9536 56.4855C68.8414 56.564 68.726 56.7473 68.6971 56.8927C68.629 57.2345 68.7716 60.7361 68.857 60.8216C68.959 60.9236 69.1464 60.7262 69.9453 59.6755C70.355 59.1366 70.7176 58.6739 70.7508 58.6475C70.7841 58.6211 70.8737 58.5082 70.9499 58.3966C71.0261 58.2852 71.397 57.8525 71.7743 57.435C72.1514 57.0177 72.7118 56.3517 73.0197 55.9551C73.3274 55.5584 74.0164 54.693 74.5506 54.0319C76.3613 51.7914 76.3628 51.7884 76.9408 49.4644C77.3741 47.7223 77.8759 44.3977 77.7279 44.2496C77.696 44.2178 77.67 44.2454 77.67 44.3111C77.67 44.5782 76.8566 46.4882 76.5067 47.0429C76.3004 47.3698 76.1021 47.7022 76.0662 47.7816C75.8839 48.1839 74.6717 49.8513 73.9727 50.6612C73.0098 51.7769 71.5024 53.2431 70.6561 53.8874L70.0315 54.3627L70.8788 53.4521C72.1651 52.0694 73.4765 50.2849 74.021 49.1759C74.0989 49.0172 74.1881 48.8658 74.219 48.8393C74.3171 48.7556 75.2429 46.7898 75.489 46.1428C75.7744 45.3921 75.9949 44.5877 76.2211 43.4712C76.3559 42.8057 76.3547 40.7976 76.2191 40.2104C75.9122 38.8819 75.884 38.7989 75.4282 37.8772C75.2321 37.4806 75.0725 37.102 75.0737 37.0359C75.0764 36.8815 75.5428 36.8825 75.807 37.0373C75.9184 37.1026 76.2211 37.3172 76.4796 37.5142C77.1558 38.0299 77.4721 37.9825 77.4807 37.3645C77.483 37.2001 77.5011 37.1865 77.5661 37.3003C77.6766 37.4938 77.8404 39.3019 77.921 41.2205C77.9572 42.0809 77.9996 42.7721 78.0151 42.7565C78.1594 42.6121 78.3571 39.8323 78.4339 36.8676C78.4974 34.4188 78.5682 33.1382 78.6614 32.7593C78.818 32.1219 78.7232 32.1234 78.4002 32.7636C78.1072 33.3447 77.8099 34.589 77.6656 35.8385C77.6027 36.3831 77.5387 36.8158 77.5234 36.8001C77.5081 36.7843 77.4484 36.5154 77.3909 36.2024C77.3333 35.8894 77.2266 35.5648 77.1536 35.4812C77.0806 35.3975 76.9978 35.0223 76.9697 34.6473C76.9131 33.8961 76.7829 33.349 76.2283 31.5308C76.188 31.3986 76.1038 31.0957 76.0412 30.8577C75.9787 30.6197 75.8872 30.2921 75.8379 30.1297C75.706 29.6945 75.7285 29.1758 75.9024 28.6434C76.0526 28.1842 76.0508 28.1626 75.8331 27.808C75.6344 27.4843 72.9256 24.0549 72.7732 23.9343C72.7399 23.9078 72.6086 23.7347 72.4816 23.5496C72.3546 23.3645 72.2255 23.1914 72.1947 23.165C72.164 23.1385 71.9255 22.814 71.6648 22.4438C70.3861 20.6277 69.4935 19.5821 67.7768 17.8893C66.5288 16.6587 65.6912 15.9302 65.7719 16.1454C65.8016 16.2247 65.9452 16.6791 66.0909 17.1551C66.2367 17.6311 66.3939 18.0956 66.4403 18.1874C66.4866 18.2793 66.5246 18.439 66.5246 18.5424C66.5246 18.6457 66.5678 18.7571 66.6206 18.7898C66.6735 18.8225 66.7167 18.9523 66.7167 19.0782C66.7167 19.2042 66.76 19.334 66.8128 19.3667C66.8656 19.3994 66.9089 19.5065 66.9089 19.6048C66.9089 19.703 66.9429 19.7978 66.9845 19.8155C67.0457 19.8415 67.2357 20.1915 67.6535 21.0483C67.6668 21.0754 67.5497 21.0938 67.3936 21.0891C67.0925 21.0803 66.5113 20.739 66.1054 20.3328C65.9708 20.1981 65.8198 20.0879 65.7698 20.0879C65.6371 20.0879 64.1871 18.6551 63.9208 18.2609C63.7959 18.0758 63.5847 17.8013 63.4517 17.6508C63.3186 17.5003 63.2141 17.3381 63.2193 17.2902C63.2246 17.2423 63.2355 17.1406 63.2434 17.0639C63.2535 16.9661 63.4079 16.9161 63.7622 16.8956L64.2666 16.8666L64.3532 16.3557C64.4345 15.8764 64.4187 15.8038 64.0978 15.1778C63.9097 14.8109 63.7885 14.5107 63.8284 14.5107C63.8684 14.5107 64.2752 14.7931 64.7324 15.1382C65.1896 15.4835 65.5637 15.7441 65.5637 15.7176C65.5637 15.5412 64.8965 14.2654 64.549 13.7772C63.3423 12.0821 61.6073 11.1232 58.838 10.6209C57.9118 10.4529 56.2438 10.2931 56.2438 10.3724C56.2438 10.4013 56.5141 10.5296 56.8443 10.6574C57.7464 11.0066 58.2822 11.2527 58.2377 11.2972C58.2159 11.319 57.9637 11.2948 57.6773 11.2431C57.391 11.1916 56.0973 11.0385 54.8026 10.9031C52.3297 10.6444 50.9443 10.4071 50.3829 10.1463L50.0466 9.99001L50.4789 10.0473C50.7168 10.079 51.1924 10.1427 51.5358 10.1891C51.8793 10.2355 52.9386 10.273 53.8898 10.2724L55.6193 10.2715L54.9948 10.0764C54.6513 9.96905 54.2075 9.83394 54.0086 9.77615C53.3675 9.58999 53.3567 9.50133 53.8865 8.78043C54.0117 8.61004 53.9705 8.58235 53.3093 8.39224C52.8752 8.26743 52.3189 8.22415 51.0074 8.21338C50.0562 8.2056 49.1915 8.16127 49.0858 8.11501C48.3505 7.79279 48.5522 7.16276 49.5662 6.61484C50.0112 6.37435 49.9802 6.18675 49.4522 5.92558C48.2801 5.34565 47.2371 5.35969 45.9682 5.97231C45.5955 6.15223 45.2906 6.27204 45.2906 6.23848C45.2906 6.09607 46.1916 5.54758 46.8769 5.27295C47.6114 4.97861 48.0694 4.86466 49.1819 4.69946C50.2386 4.54253 50.4803 4.48964 50.5335 4.40348C50.5626 4.35637 50.673 4.3179 50.7789 4.3179C51.1326 4.3179 52.0491 3.79471 52.6192 3.26747C53.2316 2.701 53.6715 2.1152 53.9055 1.55469L54.0546 1.19756L53.6687 1.58383C53.2039 2.04895 52.399 2.5032 51.8726 2.59743C51.6609 2.63532 51.3039 2.73485 51.0792 2.8186C50.8204 2.91505 50.2035 2.99005 49.3977 3.02294C48.1794 3.07275 47.4409 3.1714 46.7494 3.37699C46.5741 3.42901 46.4044 3.44536 46.3723 3.41334C46.2875 3.32843 46.6853 2.58638 46.9957 2.25049C47.233 1.99365 48.0123 1.2867 48.3913 0.98447C48.4686 0.922833 48.8944 0.674551 49.3373 0.432809C50.0831 0.0257694 50.1178 -0.00615559 49.8064 0.000767827C49.6214 0.00490265 49.1458 0.0934652 48.7495 0.197605ZM33.4327 8.79399C33.1596 8.86784 32.8704 9.0265 32.7471 9.17007C32.5758 9.3696 32.5229 9.38979 32.478 9.27276C32.4322 9.15333 32.3782 9.14699 32.1787 9.23805C32.0448 9.29911 31.9352 9.40364 31.9352 9.47046C31.9352 9.65769 32.4191 10.1896 32.6797 10.2888C32.9696 10.3992 33.612 10.1358 34.0279 9.73615C34.2955 9.47893 34.7204 8.86188 34.7212 8.72937C34.7219 8.62254 33.9177 8.66292 33.4327 8.79399ZM25.5554 10.9026C25.1446 11.0492 24.9738 11.2362 25.1186 11.3811C25.179 11.4415 25.4577 11.3504 25.9073 11.1232C26.5683 10.7894 26.5861 10.7719 26.2664 10.7704C26.0815 10.7697 25.7615 10.8291 25.5554 10.9026ZM58.742 11.4808C58.742 11.5066 59.1271 11.7214 59.5979 11.9581C60.6256 12.4747 61.9014 13.2192 62.8451 13.8533C63.2259 14.1091 63.565 14.3184 63.5987 14.3184C63.6324 14.3184 63.4802 14.1035 63.2605 13.8409C62.5725 13.0184 61.2961 12.2845 59.4698 11.6609C58.7429 11.4127 58.742 11.4124 58.742 11.4808ZM45.8938 12.3712C45.2427 12.9739 45.1587 13.8152 45.7281 14.0319C45.8944 14.0952 46.1578 14.0921 46.5225 14.0228C47.4794 13.8407 47.8761 13.8158 48.1723 13.9191C48.5891 14.0645 48.5541 13.8391 48.1009 13.4596C47.5604 13.0068 47.5138 12.9722 47.4461 12.9722C47.4119 12.9722 47.1809 12.7558 46.9328 12.4914C46.6847 12.2269 46.4371 12.0106 46.3825 12.0106C46.3279 12.0106 46.108 12.1729 45.8938 12.3712ZM51.9811 12.174C51.9476 12.2075 51.9202 12.3636 51.9202 12.5208C51.9202 12.8552 51.6932 13.0609 51.3197 13.0653C51.1743 13.067 51.0554 13.101 51.0554 13.141C51.0554 13.2142 51.4087 13.3849 51.7896 13.4956C51.9027 13.5285 52.1837 13.4897 52.4141 13.4094C52.6444 13.3291 52.9843 13.2609 53.1692 13.2578C53.3542 13.2547 53.7153 13.1968 53.9716 13.1292L54.4377 13.0062L53.6321 12.5974C52.8907 12.2212 52.129 12.0259 51.9811 12.174ZM51.8467 14.1957C51.5282 14.5866 51.5797 15.234 51.9513 15.5107C52.187 15.6862 52.3576 15.7129 53.2484 15.7139C53.8126 15.7146 54.393 15.7517 54.5384 15.7965C54.7586 15.8642 54.8026 15.849 54.8026 15.7053C54.8026 15.6104 54.7101 15.4342 54.5971 15.3138C54.484 15.1934 54.3435 15.0029 54.2848 14.8904C54.1706 14.6717 52.9336 14.082 52.3869 13.9857C52.1143 13.9376 52.0306 13.9702 51.8467 14.1957ZM22.5673 17.0613C21.5649 17.2829 19.6653 18.0496 18.8201 18.5739C16.734 19.868 15.5946 20.7077 14.1647 22.0046C13.0137 23.0485 12.4866 23.5614 11.8941 24.214L11.4218 24.7341L12.3346 24.2754C12.8366 24.0231 13.3224 23.7783 13.4142 23.7313C13.5059 23.6842 13.6655 23.6458 13.7688 23.6458C13.8721 23.6458 13.9834 23.6025 14.016 23.5496C14.1099 23.3977 15.1539 23.4367 15.4905 23.6047C15.7587 23.7387 15.7933 23.8022 15.7914 24.1576C15.7901 24.4075 15.7183 24.6502 15.6014 24.7997C15.498 24.9319 15.4125 25.0767 15.4113 25.1214C15.4102 25.1661 15.3276 25.3176 15.228 25.458C15.0012 25.7776 13.9813 27.8125 13.6302 28.646C13.4854 28.9898 13.3114 29.4009 13.2434 29.5595C13.0515 30.0081 12.4307 31.8259 12.4307 31.9394C12.4307 31.9952 12.674 31.6557 12.9713 31.1849C13.9977 29.5598 14.8988 28.1166 15.0068 27.9248C15.0664 27.8191 15.1165 27.7856 15.1181 27.8505C15.1253 28.1426 14.5561 29.4009 13.316 31.8344C12.3335 33.7623 11.9342 34.6482 11.819 35.1557C11.5836 36.1935 11.6166 37.8078 11.914 39.8004C12.172 41.5294 12.2505 42.9975 12.1118 43.4975C12.0039 43.8863 11.8587 43.647 11.8523 43.0698C11.8466 42.5627 11.7022 41.8644 11.3167 40.4807L11.0375 39.4783L10.9705 40.4327C10.8334 42.3888 11.0515 45.2809 11.5551 48.184C11.6627 48.8043 11.803 49.4005 12.018 50.1294L13.8542 51.6149C13.7579 51.2525 13.7864 50.9064 13.86 50.3298C13.9458 49.6582 13.9367 49.5185 13.7886 49.2298C13.6953 49.048 13.5737 48.884 13.5184 48.8657C13.4005 48.8263 13.3023 49.3431 13.2858 50.0894L13.2742 50.6183L13.1453 50.0894C12.7125 48.312 12.7163 44.3805 13.153 42.3107C13.509 40.6233 13.5489 40.5613 13.624 41.5794C13.8437 44.556 14.3126 47.1587 14.8692 48.4905C14.9548 48.6953 15.0249 48.9445 15.0249 49.0444C15.0249 49.1443 15.1046 49.4094 15.2022 49.6337C15.2997 49.8578 15.435 50.2144 15.5027 50.4259C15.563 50.6141 15.7966 51.1437 16.0628 51.7183C16.4825 52.6243 16.9834 53.6424 17.0144 53.6114C17.0645 53.5612 16.8116 52.4938 16.5773 51.7662C16.4741 51.4456 16.1424 50.5802 15.8402 49.843C15.8228 49.8006 15.8057 49.7586 15.7887 49.717C14.7084 47.0693 14.5269 46.2242 14.4755 43.7514C14.4412 42.1002 14.4599 41.7895 14.6378 41.0589C14.8067 40.3657 15.7498 37.3141 15.9926 36.6753C16.0329 36.5695 16.0939 36.3748 16.1283 36.2426C16.1627 36.1103 16.2314 35.8507 16.2811 35.6656C16.4118 35.1773 16.6556 33.4627 16.65 33.0693C16.6442 32.6531 16.601 32.7454 16.1784 34.079C16.0109 34.6079 15.7638 35.3002 15.6292 35.6175C15.3744 36.2186 15.3131 36.365 14.8842 37.3965C14.7414 37.7402 14.5199 38.2496 14.3923 38.5284C14.2646 38.8073 14.1602 39.0935 14.1602 39.1644C14.1602 39.2354 14.0325 39.5698 13.8763 39.9075C13.6742 40.345 13.5913 40.4544 13.5881 40.288C13.5857 40.1596 13.5319 39.9113 13.4687 39.7362C13.3757 39.4788 13.3857 39.2019 13.5216 38.287C13.614 37.665 13.7306 36.8639 13.7807 36.507C13.8309 36.15 13.9146 35.5658 13.9666 35.2088C14.0187 34.8519 14.0805 34.4083 14.1039 34.2232C14.1532 33.8326 14.2299 33.4468 14.3523 32.9732C14.4002 32.7881 14.533 32.2472 14.6474 31.7712C14.9325 30.5857 15.6247 28.2983 15.8037 27.9502C15.851 27.8584 15.8896 27.7389 15.8896 27.6847C15.8896 27.6305 15.9811 27.3812 16.0929 27.1305C16.2048 26.8799 16.3608 26.5233 16.4397 26.3382C16.5186 26.1531 16.6397 25.8831 16.7089 25.7382C16.7781 25.5933 16.8621 25.3503 16.8954 25.1983C17.0234 24.6152 17.6612 24.2664 17.756 24.7276C17.7805 24.8466 17.8181 25.2488 17.8397 25.6215C17.8922 26.528 18.3195 27.4288 19.0493 28.1703C19.9019 29.0369 20.6115 29.0393 20.7428 28.1761C20.8754 27.3048 21.0373 26.7693 21.2876 26.3743C21.4366 26.1393 21.5584 25.9268 21.5584 25.9021C21.5584 25.8775 21.3963 25.8565 21.1981 25.8553C20.7984 25.853 20.1385 25.5871 19.9418 25.3492C19.8717 25.2645 19.754 24.966 19.6802 24.6861C19.2442 23.032 20.7248 19.8523 23.0861 17.3714C23.5737 16.8592 23.549 16.8445 22.5673 17.0613ZM21.8448 60.0899L18.5876 57.2968L19.5233 64.1082C19.6598 64.2592 19.8015 64.416 19.925 64.5527C20.2157 64.8743 20.7308 65.4297 21.0698 65.7869C21.4087 66.1441 21.6625 66.4363 21.6337 66.4363C21.6048 66.4363 21.2843 66.3232 20.9213 66.1849C20.5418 66.0404 20.1444 65.9056 19.7539 65.7868C19.61 65.743 19.467 65.7014 19.3263 65.6622C18.4838 65.4279 17.7196 65.2821 17.3006 65.2907C16.9227 65.2984 16.9402 65.3097 17.5902 65.4778C18.1476 65.622 18.7784 65.8489 19.452 66.1444C19.5753 66.1986 19.7002 66.255 19.8262 66.3137C20.5883 66.6683 21.3959 67.1039 22.2076 67.6014C23.6214 68.4681 24.7291 69.0788 24.7291 68.9916C24.7291 68.9674 24.4588 68.7415 24.1286 68.4894C23.0131 67.6382 21.9188 66.6847 22.019 66.6513C22.0738 66.633 22.4358 66.7823 22.8233 66.9832L22.9154 67.0309C23.4258 67.2954 23.6165 67.3942 23.6369 67.3667C23.6491 67.3503 23.6007 67.2889 23.5234 67.1909C23.5159 67.1814 23.5082 67.1715 23.5001 67.1613C23.3408 66.9586 23.3146 66.8545 23.3882 66.7169C23.4693 66.5652 23.4429 66.5283 23.2179 66.4799C22.5085 66.3273 22.6049 66.2417 23.432 66.2902C24.7355 66.3665 26.0807 66.7168 26.9853 67.2155C28.4794 68.0392 29.6693 69.5137 29.9173 70.8487C30.0722 71.682 30.0708 71.6825 29.2304 71.0898C28.536 70.6 26.8736 69.8434 25.8821 69.566C25.6577 69.5032 25.6609 69.5123 25.9301 69.7032C26.4359 70.0618 28.2112 71.1026 28.9567 71.4776C29.353 71.677 29.7854 71.8959 29.9175 71.9642C30.0496 72.0325 30.8279 72.3572 31.647 72.6858C32.4661 73.0144 33.2227 73.3206 33.3284 73.3663C33.4341 73.412 33.8232 73.5407 34.1931 73.6524C34.5631 73.7641 34.9738 73.8929 35.1059 73.9385C36.3519 74.3693 39.3349 74.9247 41.5294 75.1345C44.9431 75.4606 48.5204 75.1867 52.2084 74.3166C52.3934 74.2731 52.7609 74.1861 53.0251 74.1234C54.0649 73.8766 56.5687 72.9826 57.8292 72.4081C58.0406 72.3117 58.4297 72.1356 58.6939 72.0165C58.9581 71.8976 59.2608 71.7534 59.3665 71.6963C59.4722 71.6392 59.7316 71.5082 59.943 71.4051C60.1544 71.3022 60.5435 71.0826 60.8077 70.9172C61.0719 70.7518 61.5259 70.4914 61.8166 70.3384C62.1072 70.1853 62.4664 69.9757 62.6148 69.8724C62.6382 69.8561 62.6683 69.8348 62.7025 69.8106C62.8847 69.6817 63.1831 69.4707 63.2078 69.4954C63.1855 69.4732 63.334 69.1977 63.5376 68.8832C63.7412 68.5688 64.4538 67.4718 65.1211 66.4454C65.7885 65.4191 66.3211 64.5661 66.3047 64.5496C66.2884 64.5333 63.6425 65.2333 60.4251 66.1053C57.2076 66.9772 54.5375 67.6781 54.4914 67.6628C54.4454 67.6474 55.1127 67.3677 55.9743 67.0414C57.5766 66.4344 60.0896 65.4721 62.8254 64.4178C63.6709 64.0919 64.7217 63.6939 65.1605 63.5333C65.5993 63.3726 65.9452 63.2284 65.9291 63.2126C65.9131 63.1969 65.0353 62.8545 63.9784 62.4518C62.9215 62.0491 61.8468 61.6348 61.5903 61.5309L61.1239 61.3422L60.5848 61.7979C59.9062 62.3713 59.8889 62.3849 59.0782 62.979C57.7767 63.9329 54.8026 65.6779 54.8026 65.4878C54.8026 65.4373 55.181 65.0398 55.6433 64.6046C56.1058 64.1693 56.3759 63.8683 56.2438 63.9356C55.7396 64.1926 53.3231 66.0454 53.3964 66.1188C53.4138 66.1361 53.6737 66.0416 53.9739 65.9087C54.2742 65.7758 54.5401 65.6671 54.5648 65.6671C54.5895 65.6671 54.3175 66.0523 53.9604 66.5231C53.2923 67.4038 53.0728 67.7623 52.5415 68.8403C52.0263 69.886 51.8142 70.6035 51.8074 71.3234C51.8003 72.0866 51.9385 72.3704 52.4825 72.709C52.7792 72.8937 52.9621 72.9264 53.676 72.9226L54.5189 72.9182L54.0205 73.2327C53.7464 73.4057 53.1941 73.6876 52.7932 73.8592C52.1616 74.1294 51.953 74.1715 51.231 74.1741C50.5377 74.1766 50.352 74.1437 50.126 73.9785C49.4439 73.48 49.2835 72.3458 49.71 71.0354C49.8362 70.6478 50.0083 70.2226 50.0925 70.0904C50.1768 69.9582 50.3078 69.7202 50.3837 69.5615C50.6799 68.9428 51.2997 68.1159 52.0652 67.3181C52.5051 66.8596 52.8551 66.4746 52.843 66.4625C52.8309 66.4504 52.4346 66.5934 51.9623 66.7803C51.4899 66.9671 50.8657 67.1863 50.575 67.2673L50.3752 67.323L50.1624 67.3823C49.983 67.4322 49.8143 67.4791 49.7103 67.508C48.8032 67.76 45.9035 68.2716 45.071 68.3267C44.5539 68.3609 44.1082 68.4256 44.0805 68.4704C44.0528 68.5152 44.0651 68.5519 44.1079 68.5519C44.1506 68.552 44.3153 68.6593 44.4739 68.7905C44.6324 68.9216 44.8053 69.0625 44.8582 69.1037L44.9112 69.1449C45.0069 69.2194 45.1966 69.3669 45.3863 69.5143C45.8915 69.9068 46.1346 70.1014 46.2861 70.2346C46.3463 70.2875 46.5143 70.3922 46.6597 70.4672C46.8051 70.5422 46.9239 70.6396 46.9239 70.6836C46.9239 70.7275 46.966 70.7635 47.0174 70.7635C47.1901 70.7635 48.173 71.2658 48.173 71.3541C48.173 71.4021 48.0424 71.4676 47.8827 71.4995C47.7231 71.5314 47.5692 71.5953 47.5408 71.6413C47.5123 71.6874 47.3181 71.7251 47.1091 71.7251C46.9001 71.7251 46.654 71.7651 46.5623 71.814C46.2986 71.9547 44.2582 72.0727 43.465 71.9932C42.7611 71.9226 42.0734 71.783 41.6875 71.6322C41.1934 71.4392 40.488 71.0731 40.0171 70.7652C39.7325 70.5791 39.4304 70.3837 39.3455 70.3308C39.1411 70.2034 37.8639 69.0075 37.3146 68.4292C36.8667 67.9577 36.7007 67.8937 35.4656 67.7176C35.2671 67.6893 35.0808 67.6274 35.0516 67.5801C35.0224 67.5327 34.8707 67.4941 34.7146 67.4941C34.5584 67.4941 34.3556 67.4549 34.2639 67.4068C34.1721 67.3588 33.8676 67.2515 33.5873 67.1682C33.3068 67.085 32.5069 66.7931 31.8097 66.5194C30.1435 65.8656 28.4729 65.017 26.8988 64.0386C26.6168 63.8633 26.3379 63.6838 26.0627 63.5006C24.5037 62.4627 23.0627 61.3031 21.8448 60.0899ZM18.6676 63.1351L17.1857 57.4498L16.0716 59.5684C16.9391 60.8658 17.9742 62.284 18.6679 63.1354L18.6676 63.1351ZM15.1227 58.2095L15.5027 57.1055L14.6706 57.5337C14.7165 57.6022 14.7612 57.6692 14.8044 57.734C14.9188 57.9059 15.0296 58.0713 15.1319 58.2232L15.1227 58.2095ZM14.0584 56.6295L15.0249 55.995L13.4329 55.7254C13.4185 55.705 13.4046 55.6854 13.3912 55.6666C13.5535 55.895 13.7976 56.2477 14.0584 56.6295ZM11.6638 33.5719C11.0802 34.871 10.9748 35.377 10.9191 37.1455C10.8816 38.3409 10.8968 38.7519 10.9768 38.7024C11.0366 38.6655 11.0857 38.4971 11.086 38.3283C11.0868 37.7604 11.4531 35.5217 11.7562 34.2315C11.9216 33.5276 12.0392 32.9338 12.0174 32.9121C11.9957 32.8905 11.8366 33.1873 11.6638 33.5719ZM77.8698 43.1259C77.8744 43.2379 77.8971 43.2607 77.9278 43.184C77.9556 43.1146 77.9521 43.0316 77.9202 42.9997C77.8883 42.9678 77.8656 43.0245 77.8698 43.1259ZM67.4419 53.1992C67.2332 53.6308 67.0363 54.0054 67.0046 54.0319C66.9729 54.0583 66.8724 54.2404 66.7812 54.4365C66.6901 54.6326 66.5735 54.819 66.522 54.8509C66.3482 54.9583 66.427 55.0767 66.6927 55.1073C66.9176 55.1332 66.9615 55.1878 66.9878 55.4743C67.0048 55.6594 67.0589 55.852 67.1079 55.9022C67.2895 56.088 67.1842 56.1474 66.6735 56.1474C66.3032 56.1474 66.1256 56.1043 66.0675 56.0002C65.9987 55.8772 65.9465 55.8978 65.7504 56.126C65.472 56.4499 65.1885 56.8986 65.1143 57.133C65.0849 57.2255 65.0227 57.3013 64.976 57.3013C64.9294 57.3013 64.8912 57.3626 64.8912 57.4375C64.8912 57.5124 64.8394 57.591 64.776 57.6122C64.6795 57.6444 67.1596 60.8614 67.3914 61.0047C67.4734 61.0554 67.5752 59.4256 67.6175 57.3867C67.6429 56.159 67.6337 56.0807 67.4689 56.1238C67.314 56.1643 67.2932 56.1055 67.2932 55.6298C67.2932 55.1224 67.3073 55.0896 67.5257 55.0896C67.7404 55.0896 67.7631 55.0432 67.8205 54.4886C67.8548 54.1581 67.869 53.5563 67.8522 53.1512L67.8217 52.4147L67.4419 53.1992ZM61.4353 53.8969C61.4297 54.0897 61.7371 54.6176 61.9222 54.7334C62.0227 54.7961 62.1048 54.9019 62.1048 54.9686C62.1048 55.0351 62.148 55.0896 62.2009 55.0896C62.3708 55.0896 62.3035 54.8571 62.0479 54.5608C61.9111 54.4021 61.718 54.1641 61.6187 54.0319C61.5195 53.8997 61.4369 53.8389 61.4353 53.8969ZM66.199 55.4569C66.1722 55.5002 66.2778 55.5169 66.4336 55.4941C66.5893 55.4712 66.7167 55.4357 66.7167 55.4153C66.7167 55.3421 66.2466 55.3797 66.199 55.4569ZM66.4828 55.7582C66.3456 55.8081 66.329 55.8454 66.4193 55.9012C66.4863 55.9428 66.5887 55.9293 66.6466 55.8714C66.7884 55.7295 66.7104 55.6756 66.4828 55.7582ZM63.8343 58.5395C63.8343 58.586 63.3858 59.0944 62.8377 59.6694L61.8411 60.7149L64.0582 61.3124C65.2776 61.641 66.29 61.8953 66.3079 61.8773C66.3842 61.801 64.1037 58.4552 63.9754 58.4552C63.8978 58.4552 63.8343 58.4932 63.8343 58.5395ZM27.5032 62.7163C27.5757 62.8055 27.6772 62.8785 27.7286 62.8785C27.78 62.8785 27.9374 62.9606 28.0783 63.0611C28.6184 63.4459 31.6266 64.8978 31.8839 64.8978C31.9588 64.8978 32.0467 64.9411 32.0793 64.994C32.112 65.0469 32.2356 65.0901 32.354 65.0901C32.4725 65.0901 32.6105 65.1288 32.6606 65.1761C32.7109 65.2233 33.2059 65.4197 33.7608 65.6125C34.3156 65.8053 34.8447 66.0045 34.9364 66.0554C35.0282 66.1062 35.1693 66.1479 35.25 66.1479C35.3307 66.1479 35.4719 66.1891 35.5636 66.2395C35.6554 66.2899 36.0115 66.4225 36.355 66.5342C36.6985 66.646 37.0767 66.7779 37.1957 66.8273C37.7105 67.0413 38.6638 67.3815 39.1894 67.5388C39.6372 67.6729 39.7543 67.717 40.5585 68.0543C40.8889 68.1928 41.159 68.3398 41.159 68.381C41.159 68.422 41.013 68.4557 40.8345 68.4557C40.4587 68.4557 40.2356 68.6716 40.2779 68.9945C40.3005 69.1666 40.2498 69.2324 40.058 69.2806C39.8589 69.3306 39.831 69.37 39.9192 69.4764C39.9799 69.5497 40.1298 69.6096 40.2523 69.6096C40.3749 69.6096 40.5019 69.6528 40.5345 69.7057C40.5672 69.7586 40.781 69.8019 41.0095 69.8019C41.3453 69.8019 41.455 69.7563 41.5804 69.5649C41.7716 69.2728 41.7745 68.9481 41.5883 68.7017C41.4156 68.4732 41.4077 68.346 41.5674 68.3667C41.6335 68.3753 42.1414 68.3772 42.6961 68.3709L43.7046 68.3595L43.2245 68.0161C42.9605 67.8273 42.2688 67.4426 41.6875 67.1614C40.1443 66.4149 39.3372 66.154 35.7304 65.2358C31.2898 64.1053 30.4855 63.8486 27.5155 62.6139C27.3916 62.5624 27.3899 62.5768 27.5032 62.7163ZM66.4827 66.6005C66.4306 66.7375 66.4415 66.7486 66.5365 66.6543C66.6022 66.5891 66.6317 66.5114 66.6021 66.4819C66.5725 66.4523 66.5188 66.5057 66.4827 66.6005Z" fill="black"/>
</svg>
