<svg width="623" height="158" viewBox="0 0 623 158" fill="none" xmlns="http://www.w3.org/2000/svg">
<mask id="path-1-inside-1_30_3582" fill="white">
<path d="M381.077 124.644H364.851L349.172 140.444L333.493 156.244H350.679H367.866L382.586 141.514C390.681 133.413 397.304 126.303 397.304 125.714C397.304 125.125 390.002 124.644 381.077 124.644Z"/>
<path fill-rule="evenodd" clip-rule="evenodd" d="M609.436 142.639L595.955 128.154L538.962 128.156H481.969L476.939 122.889L471.909 117.622H447.268H422.624L402.554 137.811L382.484 158L502.783 158C568.949 158 623.045 157.802 623 157.561C622.953 157.321 616.85 150.604 609.436 142.639ZM593.165 133.605L601.978 142.73C606.824 147.749 610.799 152.054 610.811 152.294C610.822 152.535 562.214 152.733 502.794 152.733H394.755L409.555 137.811L424.355 122.889H446.648C468.881 122.889 468.958 122.903 474.872 128.112L480.802 133.334L536.985 133.47L593.165 133.605Z"/>
<path fill-rule="evenodd" clip-rule="evenodd" d="M526.315 56.5482L469.919 0L380.556 0L291.194 0L286.164 5.26667L281.133 10.5333L181.149 10.5333L81.1655 10.5333L76.1352 5.26667L71.105 0L47.3666 0.0175727L23.6282 0.0333774L11.8141 11.4041L1.41635e-05 22.773V63.1754V103.578L238.564 103.578L477.128 103.578L483.16 109.859L489.191 116.141L511.786 115.868L534.38 115.595C559.234 115.293 580.277 114.608 581.141 114.072C582.006 113.535 557.335 87.6514 526.315 56.5482ZM466.438 5.31231L518.464 56.6325C558.787 96.4081 569.812 108.198 567.47 109.053C565.809 109.659 547.985 110.295 527.859 110.465L491.265 110.772L484.915 104.554L478.567 98.3357L241.977 98.2988L5.38895 98.2619L4.88131 62.2467L4.3756 26.2333L14.877 15.8228L25.3784 5.41239L46.9729 5.14553L68.5673 4.87696L74.1855 10.3385L79.802 15.8L181.233 15.7719L282.663 15.7438L288.589 10.5053L294.514 5.26667L380.477 5.28949L466.438 5.31231Z"/>
<path d="M331.118 125.556C330.62 125.054 323.435 124.644 315.151 124.644H300.092L284.413 140.444L268.735 156.244H285.212H301.688L316.857 141.356C325.201 133.166 331.619 126.056 331.118 125.556Z"/>
<path d="M250.721 124.809L235.407 124.513L219.691 140.38L203.976 156.244H220.605H237.234L251.635 141.724C259.555 133.738 266.036 126.732 266.036 126.156C266.036 125.578 259.143 124.973 250.721 124.809Z"/>
<path fill-rule="evenodd" clip-rule="evenodd" d="M104.543 122.889L1.41635e-05 122.889V140.444V158H87.1076H174.215L191.651 140.444L209.087 122.889H104.543ZM5.25069 128.156H99.7634C155.095 128.156 194.276 128.816 194.276 129.746C194.276 130.622 188.667 136.547 181.811 142.913L169.347 154.489H87.2983H5.25069V141.322V128.156Z"/>
</mask>
<path d="M381.077 124.644H364.851L349.172 140.444L333.493 156.244H350.679H367.866L382.586 141.514C390.681 133.413 397.304 126.303 397.304 125.714C397.304 125.125 390.002 124.644 381.077 124.644Z" fill="url(#paint0_linear_30_3582)"/>
<path fill-rule="evenodd" clip-rule="evenodd" d="M609.436 142.639L595.955 128.154L538.962 128.156H481.969L476.939 122.889L471.909 117.622H447.268H422.624L402.554 137.811L382.484 158L502.783 158C568.949 158 623.045 157.802 623 157.561C622.953 157.321 616.85 150.604 609.436 142.639ZM593.165 133.605L601.978 142.73C606.824 147.749 610.799 152.054 610.811 152.294C610.822 152.535 562.214 152.733 502.794 152.733H394.755L409.555 137.811L424.355 122.889H446.648C468.881 122.889 468.958 122.903 474.872 128.112L480.802 133.334L536.985 133.47L593.165 133.605Z" fill="url(#paint1_linear_30_3582)"/>
<path fill-rule="evenodd" clip-rule="evenodd" d="M526.315 56.5482L469.919 0L380.556 0L291.194 0L286.164 5.26667L281.133 10.5333L181.149 10.5333L81.1655 10.5333L76.1352 5.26667L71.105 0L47.3666 0.0175727L23.6282 0.0333774L11.8141 11.4041L1.41635e-05 22.773V63.1754V103.578L238.564 103.578L477.128 103.578L483.16 109.859L489.191 116.141L511.786 115.868L534.38 115.595C559.234 115.293 580.277 114.608 581.141 114.072C582.006 113.535 557.335 87.6514 526.315 56.5482ZM466.438 5.31231L518.464 56.6325C558.787 96.4081 569.812 108.198 567.47 109.053C565.809 109.659 547.985 110.295 527.859 110.465L491.265 110.772L484.915 104.554L478.567 98.3357L241.977 98.2988L5.38895 98.2619L4.88131 62.2467L4.3756 26.2333L14.877 15.8228L25.3784 5.41239L46.9729 5.14553L68.5673 4.87696L74.1855 10.3385L79.802 15.8L181.233 15.7719L282.663 15.7438L288.589 10.5053L294.514 5.26667L380.477 5.28949L466.438 5.31231Z" fill="url(#paint2_linear_30_3582)"/>
<path d="M331.118 125.556C330.62 125.054 323.435 124.644 315.151 124.644H300.092L284.413 140.444L268.735 156.244H285.212H301.688L316.857 141.356C325.201 133.166 331.619 126.056 331.118 125.556Z" fill="url(#paint3_linear_30_3582)"/>
<path d="M250.721 124.809L235.407 124.513L219.691 140.38L203.976 156.244H220.605H237.234L251.635 141.724C259.555 133.738 266.036 126.732 266.036 126.156C266.036 125.578 259.143 124.973 250.721 124.809Z" fill="url(#paint4_linear_30_3582)"/>
<path fill-rule="evenodd" clip-rule="evenodd" d="M104.543 122.889L1.41635e-05 122.889V140.444V158H87.1076H174.215L191.651 140.444L209.087 122.889H104.543ZM5.25069 128.156H99.7634C155.095 128.156 194.276 128.816 194.276 129.746C194.276 130.622 188.667 136.547 181.811 142.913L169.347 154.489H87.2983H5.25069V141.322V128.156Z" fill="url(#paint5_linear_30_3582)"/>
<path d="M381.077 124.644H364.851L349.172 140.444L333.493 156.244H350.679H367.866L382.586 141.514C390.681 133.413 397.304 126.303 397.304 125.714C397.304 125.125 390.002 124.644 381.077 124.644Z" stroke="#D7CC00" stroke-width="2" mask="url(#path-1-inside-1_30_3582)"/>
<path fill-rule="evenodd" clip-rule="evenodd" d="M609.436 142.639L595.955 128.154L538.962 128.156H481.969L476.939 122.889L471.909 117.622H447.268H422.624L402.554 137.811L382.484 158L502.783 158C568.949 158 623.045 157.802 623 157.561C622.953 157.321 616.85 150.604 609.436 142.639ZM593.165 133.605L601.978 142.73C606.824 147.749 610.799 152.054 610.811 152.294C610.822 152.535 562.214 152.733 502.794 152.733H394.755L409.555 137.811L424.355 122.889H446.648C468.881 122.889 468.958 122.903 474.872 128.112L480.802 133.334L536.985 133.47L593.165 133.605Z" stroke="#D7CC00" stroke-width="2" mask="url(#path-1-inside-1_30_3582)"/>
<path fill-rule="evenodd" clip-rule="evenodd" d="M526.315 56.5482L469.919 0L380.556 0L291.194 0L286.164 5.26667L281.133 10.5333L181.149 10.5333L81.1655 10.5333L76.1352 5.26667L71.105 0L47.3666 0.0175727L23.6282 0.0333774L11.8141 11.4041L1.41635e-05 22.773V63.1754V103.578L238.564 103.578L477.128 103.578L483.16 109.859L489.191 116.141L511.786 115.868L534.38 115.595C559.234 115.293 580.277 114.608 581.141 114.072C582.006 113.535 557.335 87.6514 526.315 56.5482ZM466.438 5.31231L518.464 56.6325C558.787 96.4081 569.812 108.198 567.47 109.053C565.809 109.659 547.985 110.295 527.859 110.465L491.265 110.772L484.915 104.554L478.567 98.3357L241.977 98.2988L5.38895 98.2619L4.88131 62.2467L4.3756 26.2333L14.877 15.8228L25.3784 5.41239L46.9729 5.14553L68.5673 4.87696L74.1855 10.3385L79.802 15.8L181.233 15.7719L282.663 15.7438L288.589 10.5053L294.514 5.26667L380.477 5.28949L466.438 5.31231Z" stroke="#D7CC00" stroke-width="2" mask="url(#path-1-inside-1_30_3582)"/>
<path d="M331.118 125.556C330.62 125.054 323.435 124.644 315.151 124.644H300.092L284.413 140.444L268.735 156.244H285.212H301.688L316.857 141.356C325.201 133.166 331.619 126.056 331.118 125.556Z" stroke="#D7CC00" stroke-width="2" mask="url(#path-1-inside-1_30_3582)"/>
<path d="M250.721 124.809L235.407 124.513L219.691 140.38L203.976 156.244H220.605H237.234L251.635 141.724C259.555 133.738 266.036 126.732 266.036 126.156C266.036 125.578 259.143 124.973 250.721 124.809Z" stroke="#D7CC00" stroke-width="2" mask="url(#path-1-inside-1_30_3582)"/>
<path fill-rule="evenodd" clip-rule="evenodd" d="M104.543 122.889L1.41635e-05 122.889V140.444V158H87.1076H174.215L191.651 140.444L209.087 122.889H104.543ZM5.25069 128.156H99.7634C155.095 128.156 194.276 128.816 194.276 129.746C194.276 130.622 188.667 136.547 181.811 142.913L169.347 154.489H87.2983H5.25069V141.322V128.156Z" stroke="#D7CC00" stroke-width="2" mask="url(#path-1-inside-1_30_3582)"/>
<path d="M240.64 43.28L240.496 43.328C240.72 44.096 240.832 44.864 240.832 45.632V74H236.8V40.4H243.328L253.6 67.232C253.792 67.776 253.888 68.224 253.888 68.576H254.08C254.08 68.224 254.176 67.776 254.368 67.232L264.688 40.4H271.168V74H267.136V45.632C267.136 44.864 267.248 44.096 267.472 43.328L267.328 43.28L255.52 74H252.448C250.976 70.384 249.568 66.88 248.224 63.488C246.912 60.096 245.824 57.264 244.96 54.992C244.096 52.688 243.344 50.672 242.704 48.944C242.064 47.184 241.568 45.824 241.216 44.864C240.864 43.904 240.672 43.376 240.64 43.28ZM305.345 70.64V74H284.609V40.4H288.641V70.64H305.345Z" fill="white"/>
<defs>
<linearGradient id="paint0_linear_30_3582" x1="311.5" y1="0" x2="311.5" y2="158" gradientUnits="userSpaceOnUse">
<stop stop-color="#C51C07"/>
<stop offset="1" stop-color="#B56210"/>
</linearGradient>
<linearGradient id="paint1_linear_30_3582" x1="311.5" y1="0" x2="311.5" y2="158" gradientUnits="userSpaceOnUse">
<stop stop-color="#C51C07"/>
<stop offset="1" stop-color="#B56210"/>
</linearGradient>
<linearGradient id="paint2_linear_30_3582" x1="311.5" y1="0" x2="311.5" y2="158" gradientUnits="userSpaceOnUse">
<stop stop-color="#C51C07"/>
<stop offset="1" stop-color="#B56210"/>
</linearGradient>
<linearGradient id="paint3_linear_30_3582" x1="311.5" y1="0" x2="311.5" y2="158" gradientUnits="userSpaceOnUse">
<stop stop-color="#C51C07"/>
<stop offset="1" stop-color="#B56210"/>
</linearGradient>
<linearGradient id="paint4_linear_30_3582" x1="311.5" y1="0" x2="311.5" y2="158" gradientUnits="userSpaceOnUse">
<stop stop-color="#C51C07"/>
<stop offset="1" stop-color="#B56210"/>
</linearGradient>
<linearGradient id="paint5_linear_30_3582" x1="311.5" y1="0" x2="311.5" y2="158" gradientUnits="userSpaceOnUse">
<stop stop-color="#C51C07"/>
<stop offset="1" stop-color="#B56210"/>
</linearGradient>
</defs>
</svg>
