<svg width="453" height="452" viewBox="0 0 453 452" fill="none" xmlns="http://www.w3.org/2000/svg">
<ellipse cx="226.5" cy="225.624" rx="226.5" ry="225.624" fill="url(#paint0_linear_163_197)"/>
<path d="M327.942 32.3395C341.042 36.4712 351.547 44.8799 362.156 53.1018C380.737 67.4901 398.176 82.9788 410.549 103.367C404.363 108.184 400.729 103.97 396.66 99.9001C403.802 110.219 403.927 123.548 411.255 133.93C410.861 135.466 409.823 136.463 408.515 137.252C399.878 141.632 396.39 150.228 391.74 157.869C390.723 157.869 389.83 157.557 389.02 156.955C386.031 149.377 382.107 142.068 381.837 133.639C381.775 131.936 381.65 129.943 380.322 128.781C372.432 122.012 375.36 115.513 380.737 109.638C380.633 103.264 376.356 98.9243 375.297 92.3842C375.983 101.001 372.1 104.821 364.917 105.776C362.218 106.129 358.44 104.779 356.986 107.084C348.931 119.998 335.063 118.171 323.063 121.098C320.115 120.725 318.247 119.001 317.126 116.344C317.188 105.049 318.787 104.094 333.589 106.399C338.364 105.298 339.88 102.101 339.298 97.5332C338.966 88.1902 336.62 79.47 331.43 71.6426C304.399 64.0228 280.96 71.954 271.597 91.8651C268.151 97.5748 267.84 104.925 262.38 109.617C258.995 111.029 256.068 114.143 250.961 112.108C247.286 105.921 248.221 98.1354 247.183 90.8893C246.643 87.1106 245.916 83.9547 242.2 82.7089C232.11 79.2831 228.311 70.6252 225.301 61.8013C223.349 56.0916 220.09 52.2921 214.983 49.6138C204.125 43.9249 192.457 41.0389 180.333 40.4576C173.939 40.1461 168.188 42.7414 164.43 48.4303C158.306 57.6903 149.669 58.417 139.995 55.8217C137.047 52.5205 135.884 48.9078 137.939 44.6931C147.053 38.9004 157.475 34.8517 163.787 25.2595C164.513 24.1591 165.842 23.1625 167.129 22.9757C181.828 20.7956 196.09 14.3385 211.433 18.2834C222.228 22.9342 233.045 23.0587 243.923 18.5533C252.207 16.3317 260.47 18.5533 268.462 18.6156C288.102 18.7194 301.368 31.4467 317.728 37.6339C321.153 38.0907 324.205 37.6339 325.97 34.125C326.427 33.3153 327.091 32.734 327.921 32.3603L327.942 32.3395Z" fill="#FCE9AC"/>
<path d="M319.305 41.0421C307.824 39.9832 298.752 34.7511 291.527 24.2661C284.365 24.2661 274.939 27.0067 269.043 23.6225C260.552 18.7226 252.642 21.3801 244.566 20.3005C244.089 20.2382 243.611 20.1967 243.113 20.1344C233.002 18.6395 222.913 18.6603 212.802 20.1344C212.325 20.1967 211.847 20.2382 211.349 20.2797C197.709 18.4526 185.066 25.5949 171.488 24.7021C167.71 24.453 165.488 27.6088 163.599 30.6401C157.869 39.8794 148.921 43.6374 138.686 45.1945C137.835 45.8797 136.984 45.8589 136.133 45.1945C133.87 38.0108 143.046 37.4917 143.212 32.4465C139.953 34.7511 136.07 36.7443 131.773 32.9032C129.302 26.7783 136.091 26.9652 137.98 23.8093C143.046 17.6014 151.018 18.8679 157.454 16.2103H157.433C170.056 7.82232 185.087 8.48672 199.079 6.11981C213.612 3.64909 228.622 4.02281 243.404 5.93295C250.794 10.3346 259.389 7.86385 267.175 10.0854C268.15 10.3761 269.022 10.8744 269.728 11.6011C274.213 14.923 279.797 16.4802 284.863 16.6256C290.427 16.7709 295.762 17.9128 301.243 18.2035C305.271 17.8921 308.634 19.0132 310.835 22.6466C310.876 23.1865 310.959 23.7263 311.084 24.2661C313.409 28.3978 318.786 29.2906 321.007 33.5676C322.025 36.4328 321.319 38.9035 319.284 41.0836L319.305 41.0421Z" fill="#FAECB2"/>
<path d="M418.562 111.777C418.686 113.105 418.832 114.434 418.956 115.763C419.891 121.722 427.8 125.77 423.773 133.12C419.621 135.84 415.469 138.602 410.673 134.366C404.465 132.061 402.182 128.594 401.496 121.057C400.604 111.154 392.777 102.537 391.926 90.8066C400.5 92.0109 400.126 106.461 410.569 103.326C413.247 106.129 415.904 108.953 418.583 111.756L418.562 111.777Z" fill="#FBECB8"/>
<path d="M435.734 148.818C440.364 153.594 439.741 160.798 443.706 165.885C443.831 167.151 443.955 168.418 444.08 169.685C443.955 171.096 443.81 172.529 443.685 173.941C434.26 175.851 433.201 169.373 432.537 162.688C432.059 157.746 430.627 152.493 435.734 148.818Z" fill="#FDE899"/>
<path d="M444.16 177.616C447.503 181.228 448.188 185.713 448.292 190.384C452.444 209.174 452.153 228.068 449.703 247.024C448.707 247.522 447.648 247.647 446.569 247.398C442.52 244.491 445.053 239.591 442.79 235.356C440.506 232.2 435.15 232.221 432.347 228.546C431.766 227.757 431.309 226.885 430.977 225.95C429.15 217.085 431.164 208.552 434.091 200.08C432.264 202.842 434.693 207.638 429.005 207.887C423.856 205.894 419.123 203.049 413.746 201.472C408.784 200.018 405.358 196.675 405.857 190.8C406.417 189.948 407.144 189.305 408.037 188.827C417.109 189.533 423.69 186.128 427.074 177.346C438.451 179.235 442.375 186.19 442.001 203.963C441.96 198.191 442.582 192.44 440.859 186.668C439.904 183.45 440.569 179.733 444.14 177.636L444.16 177.616Z" fill="#F7E5A2"/>
<path d="M444.163 177.615C442.979 189.678 445.263 201.969 441.485 214.219C441.09 200.267 441.381 186.273 427.388 178.03C426.122 177.096 425.686 175.767 425.644 174.251C426.329 169.954 429.236 165.614 425.291 161.462C424.482 160.382 423.755 159.22 423.091 158.057C421.886 155.088 419.561 152.804 418.129 149.959C416.053 146.866 412.087 144.727 412.959 140.097C413.208 139.101 413.644 138.187 414.288 137.378C417.111 134.803 420.62 134.388 424.212 134.305C433.409 134.928 431.146 144.644 435.775 148.901V148.838C436.813 157.725 431.146 168.729 443.727 173.982C443.893 175.207 444.038 176.411 444.204 177.636L444.163 177.615Z" fill="#FAEBB1"/>
<path d="M140.765 55.5751C149.816 53.4158 159.636 53.9141 164.805 42.8478C166.591 39.0067 173.421 36.7437 179.442 36.8059C195.573 36.972 210.209 41.5605 223.642 50.3638C224.514 50.9243 226.008 51.4434 226.091 52.1286C228.209 68.6138 238.236 79.0158 253.973 85.0576C247.122 94.0892 256.547 101.958 251.233 109.516C255.759 111.966 257.731 106.734 261.136 107.481C264.54 110.242 265.495 114.395 264.001 117.779C259.122 128.845 262.713 138.562 267.613 148.3C268.111 150.563 268.028 152.784 267.135 154.944C266.139 156.999 264.54 158.411 262.423 159.2C257.004 160.549 254.451 157.83 252.52 153.054C250.651 148.424 251.15 142.86 247.33 139.04C239.005 137.773 235.06 148.092 226.756 146.41C217.932 141.967 209.877 138.105 198.853 142.465C187.746 146.846 168.771 129.593 176.639 113.897C181.352 108.934 187.725 108.561 193.829 108.332C201.365 108.062 206.784 104.387 211.725 99.3421C213.718 97.3074 215.752 94.9613 214.528 92.0753C210.542 82.753 210.064 72.9947 211.268 62.9873C202.943 60.7034 196.57 56.9869 190.59 52.1493C184.528 47.2494 177.345 47.1871 170.328 50.7998C169.248 51.7548 168.086 52.5853 166.882 53.3328C163.29 54.7861 160.778 57.9212 157.352 59.6445C156.439 60.0598 155.484 60.3297 154.487 60.4958C151.436 60.8695 148.404 61.264 145.353 60.5373C143.194 60.1428 141.408 59.25 140.453 57.1323C140.536 56.6132 140.64 56.1149 140.723 55.5959L140.765 55.5751Z" fill="#FDE6A1"/>
<path d="M265.329 149.006C258.52 140.058 253.475 131.109 260.305 119.482C262.132 116.389 260.949 111.53 261.136 107.461C265.329 102.602 262.879 94.4635 269.44 90.7886C274.111 86.7399 279.073 88.4217 284.014 90.0827C288.934 93.5085 294.54 94.6711 300.415 94.8995C313.39 95.3978 315.134 96.955 317.231 110.118C317.563 112.174 317.979 114.125 319.266 115.807C320.636 117.219 321.985 118.652 323.356 120.063C324.477 121.33 324.477 122.68 323.625 124.071C317.231 125.586 320.325 130.175 320.968 133.434C322.38 140.411 325.681 147.283 320.553 154.093C319.037 155.526 317.314 156.356 315.176 155.879C311.19 152.764 311.19 147.449 308.429 143.67C305.439 139.601 303.612 133.538 296.45 135.614C290.678 140.452 291.176 147.262 290.657 153.761C289.64 158.723 285.862 159.553 281.564 159.678C280.775 158.723 281.107 161.36 281.502 160.031C284.803 161.111 285.177 163.208 283.599 166.011C276.748 167.547 271.848 164.744 268.256 159.076C267.634 155.629 268.111 151.83 265.288 149.006H265.329Z" fill="#F4D582"/>
<path d="M323.479 124.049C323.437 122.72 323.417 121.371 323.375 120.042C324.932 114.146 329.811 115.786 333.61 115.89C341.395 116.076 347.81 114.561 351.319 106.547C353.167 102.332 356.966 100.276 361.554 101.937C366.724 103.827 370.357 102.56 372.557 97.6603C375.194 91.8053 368.945 91.6185 366.433 88.9609C368.841 85.1614 372.101 87.6736 375.028 86.6562C378.287 92.7811 381.132 98.5323 384.329 104.076C389.062 112.298 381.215 115.142 377.872 118.07C377.748 124.755 383.374 123.302 385.616 127.683C382.709 137.275 390.951 146.535 389.913 157.269C389.581 157.601 389.228 157.954 388.896 158.307C387.609 158.868 386.28 159.013 384.91 158.577C383.228 158.016 382.336 156.501 381.111 155.442C377.955 164.557 382.938 171.159 388.045 177.72C389.457 181.125 391.097 184.53 388.626 188.163C383.187 190.593 380.363 185.132 376.107 183.99C370.959 178.903 365.852 173.92 365.893 165.761C365.893 160.529 361.347 160.549 357.672 159.906C353.021 158.473 352.689 153.013 349.015 150.667C345.174 148.279 340.254 148.756 336.558 146.12C332.074 142.922 326.967 139.849 331.015 132.998C338.759 127.6 343.783 137.171 350.842 136.61C349.596 129.759 345.631 125.814 339.319 124.61C335.126 125.44 335.229 129.53 332.842 131.358C328.441 134.887 327.942 130.299 326.24 128.202C325.493 127.205 324.496 126.395 323.853 125.316C323.728 124.921 323.624 124.506 323.52 124.112L323.479 124.049Z" fill="#FBECB4"/>
<path d="M113.587 36.7661C117.116 36.8077 120.625 36.8492 124.154 36.87C125.296 38.614 123.49 39.9012 123.407 41.583C127.995 42.1228 133.081 40.9186 136.611 45.1956C137.317 45.1956 138.002 45.1956 138.708 45.1956C139.393 48.6422 140.078 52.1095 140.784 55.5561V55.5768C139.143 63.1551 135.469 70.0066 134.701 78.0209C133.912 86.2636 120.563 94.7969 112.134 94.091C106.487 93.6134 102.293 91.288 101.857 84.914C104.888 78.9137 104.473 71.6884 108.418 65.9788C110.556 64.3801 112.902 62.9475 113.649 58.9403C107.878 63.6326 100.736 58.4005 95.442 63.3212C93.2622 64.5462 90.9993 65.3766 88.4457 65.1483C87.4699 64.9199 86.6395 64.4423 85.9336 63.7364C83.6499 55.5768 91.7881 53.8951 94.9853 49.1405C95.0891 48.5592 95.1306 47.9778 95.1721 47.3965C101.317 43.8461 107.442 40.275 113.587 36.7246V36.7661Z" fill="#FCEAB0"/>
<path d="M284.013 92.9463C279.155 92.2197 274.318 91.5137 269.46 90.7871C268.111 84.4338 272.678 80.8419 276.768 78.3712C287.709 71.7688 297.404 60.9101 312.476 65.7477C313.12 65.9553 313.847 65.81 314.532 65.9138C321.071 66.8896 329.002 62.9863 333.881 69.6302C340.213 78.2466 343.016 88.2956 342.185 99.1543C338.365 100.275 336.476 97.5971 334.379 95.2717C333.569 93.9429 333.071 92.5103 332.864 90.9739C332.594 86.3232 333.652 80.9872 327.362 79.2432C322.525 80.7589 323.085 85.1397 321.756 88.5447C318.954 95.77 313.224 96.8912 308.781 90.5587C304.151 83.9562 300.518 84.4338 295.992 90.2472C292.837 94.2959 288.685 95.0226 284.013 92.9463Z" fill="#FCE6A0"/>
<path d="M284.012 92.9449C286.96 92.0522 289.929 91.1386 293.084 90.1835C293.998 87.1315 294.849 84.2663 295.762 81.2142C300.537 80.9443 304.856 83.1451 308.842 81.4634C312.641 84.4116 309.319 89.4776 313.222 92.0937C317.873 92.8204 319.097 89.706 319.201 85.948C319.388 80.3214 320.592 74.4665 327.111 74.7987C334.211 75.1724 335.81 81.4841 335.914 87.7751C335.914 88.8132 335.914 89.8514 335.893 90.8895C333.443 92.156 331.575 89.2285 328.481 90.2251C327.277 97.5334 331.429 102.433 336.536 106.939C336.91 107.935 336.703 108.787 335.955 109.534C330.91 113.458 327.319 105.776 324.641 107.001C318.516 109.306 319.658 112.835 319.347 115.763C313.243 111.569 314.032 103.534 309.028 97.8033C300.496 99.4228 291.506 99.7342 284.053 92.9242L284.012 92.9449Z" fill="#FAE396"/>
<path d="M391.93 157.331C391.328 146.182 398.718 140.264 406.67 134.721C408.268 136.465 411.362 136.797 411.528 139.911C401.397 149.773 400.338 161.213 405.196 174.003C406.255 176.785 405.258 180.128 402.746 182.453C397.743 183.201 396.476 179.464 395.625 175.955C394.836 172.695 394.193 169.498 392.158 166.736C391.037 163.622 390.269 160.508 391.95 157.331H391.93Z" fill="#EFD890"/>
<path d="M335.915 109.555C335.915 108.849 335.915 108.143 335.915 107.458C332.448 103.306 331.763 99.1532 335.935 95.0215C338.925 95.0215 340.129 97.7414 342.164 99.174C345.091 105.652 338.842 106.607 335.915 109.576V109.555Z" fill="#FBE59A"/>
<path d="M410.571 138.812C408.142 138.501 406.709 137.276 406.668 134.701C407.997 134.597 409.325 134.493 410.654 134.369C414.806 133.767 418.958 133.165 423.111 132.562C425.021 133.227 426.308 134.244 425.249 136.528C421.616 136.466 418.086 136.819 414.931 138.895C413.457 139.954 412.004 139.539 410.571 138.812Z" fill="#CEC086"/>
<path d="M391.928 157.33C392.654 160.07 393.36 162.832 394.087 165.573C395.498 168.022 396.121 170.41 393.443 172.486C385.388 169.061 384.807 166.631 389.872 157.371L389.893 157.268C390.578 157.288 391.263 157.309 391.928 157.309V157.33Z" fill="#FBF2BF"/>
<path d="M136.613 45.1927C128.828 44.6321 120.835 46.48 112.406 43.6978C116.185 39.7737 121.686 40.9364 124.157 36.8878C126.918 35.4967 129.679 34.1264 132.461 32.7353C136.447 33.1713 139.582 31.7387 142.675 29.1642C145.603 26.735 149.277 25.074 152.495 30.4099C146.246 34.3132 141.7 40.0229 136.613 45.1927Z" fill="#F9EFBC"/>
<path d="M425.249 136.526C424.543 135.197 423.816 133.889 423.111 132.56C424.709 126.228 417.381 122.096 418.958 115.764C426.661 125.73 432.661 136.568 435.754 148.88C428.778 147.717 432.038 137.855 425.27 136.526H425.249Z" fill="#FDE899"/>
<path d="M444.036 246.875C454.458 254.246 447.025 263.672 446.465 272.06C446.112 277.375 443.226 282.524 444.036 288.192C440.423 295.438 437.351 302.892 435.462 310.802C434.029 312.795 433.697 315.702 430.77 316.491C429.213 316.761 427.78 316.45 426.534 315.453C422.86 310.159 426.451 305.632 427.822 301.023C426.887 301.605 428.174 300.193 427.697 300.587C420.368 307.044 415.261 305.217 412.106 296.518C411.151 293.86 410.279 291.348 407.808 289.729C405.441 281.61 405.815 274.8 415.407 271.478C419.31 270.129 420.887 266.495 421.593 262.509C422.32 258.44 422.009 254.183 423.773 250.28C424.791 248.349 426.306 246.937 428.195 245.899C433.635 243.429 439.198 239.338 443.994 246.917L444.036 246.875Z" fill="#F8E9B4"/>
<path d="M394.045 171.842C394.045 169.745 394.066 167.669 394.086 165.572C400.896 169.123 396.121 178.403 402.328 182.244C406.605 183.469 409.013 185.67 406.564 190.383C409.221 195.325 412.19 199.124 418.896 199.124C423.671 199.124 427.823 202.01 429.401 207.201C432.411 210.398 431.144 214.343 431.311 218.039C429.878 224.87 426.12 225.451 420.806 221.963C418.792 220.634 416.944 219.015 414.536 218.371C412.73 217.603 411.173 216.482 409.761 215.111C407.913 213.18 406.667 210.668 404.218 209.319C403.491 208.779 402.848 208.156 402.245 207.491C400.896 205.664 398.986 204.377 397.533 202.654C394.605 198.647 389.166 196.321 389.311 190.279C392.903 187.103 394.522 183.469 391.886 178.86C391.325 176.12 392.114 173.794 394.045 171.822V171.842Z" fill="#FBE8A9"/>
<path d="M406.563 190.406C405.151 187.686 403.74 184.966 402.328 182.267C403.947 170.308 394.293 159.45 399.546 146.286C403.179 144.916 408.286 143.836 410.57 138.833C412.065 136.86 413.476 138.376 414.93 138.916C414.867 139.518 414.826 140.099 414.764 140.701C411.421 147.532 419.352 145.933 420.992 149.027C422.383 151.788 425.144 153.844 425.227 157.27C416.03 161.754 416.217 171.035 414.328 179.112C413.31 183.451 413.663 188.205 408.618 190.406H407.58H406.542H406.563Z" fill="#F0D07F"/>
<path d="M408.641 190.404C410.862 179.275 413.104 168.126 415.471 156.291C418.087 156.54 421.658 156.893 425.249 157.246C425.955 157.973 426.682 158.679 427.388 159.405C429.588 164.222 429.547 169.06 427.429 173.877C427.429 175.268 427.388 176.638 427.367 178.008C427.201 181.413 427.055 184.798 426.91 188.016C421.201 193.705 415.014 192.729 408.661 190.383L408.641 190.404Z" fill="#E7C878"/>
<path d="M433.489 227.924C444.063 230.651 448.146 236.215 445.738 244.617C440.714 244.139 435.669 243.766 430.624 243.682C426.244 237.454 425.912 231.952 433.51 227.924H433.489Z" fill="#FAEBB4"/>
<path d="M429.277 219.535C429.319 215.424 429.36 211.334 429.381 207.223C433.928 202.676 428.073 201.015 426.641 198.69C428.945 195.928 430.855 193.624 433.429 190.551C440.799 203.195 430.128 214.511 433.471 225.805C431.976 226.968 430.44 227.176 428.841 225.992C427.803 223.771 427.949 221.611 429.277 219.535Z" fill="#E1CF84"/>
<path d="M429.338 225.846C430.729 225.846 432.1 225.825 433.49 225.805C433.49 226.511 433.49 227.217 433.49 227.922C430.397 232.49 430.792 237.515 431.58 242.581C432.037 245.467 429.961 245.944 427.927 246.463C426.889 246.588 425.871 246.505 424.854 246.256C421.864 244.428 418.211 243.494 416.238 240.214C417.899 232.968 422.031 227.943 429.359 225.867L429.338 225.846Z" fill="#EFDC9D"/>
<path d="M427.074 244.906C428.569 244.117 430.064 243.349 431.558 242.56C436.458 242.02 441.274 241.999 445.717 244.594C445.842 245.279 445.987 245.965 446.112 246.65C445.406 246.712 444.7 246.774 444.015 246.837C438.721 244.096 433.904 245.902 429.15 248.394C427.531 247.771 426.846 246.588 427.074 244.885V244.906Z" fill="#AA9D67"/>
<path d="M165.676 51.4238C166.361 50.7386 167.067 50.0327 167.752 49.3476C178.9 47.915 186.187 55.8462 181.599 65.6875C178.464 72.3938 179.44 77.6259 181.412 84.1245C184.443 94.1112 184.007 104.368 178.153 113.711C178.153 129.719 181.163 134.888 193.018 139.539C195.758 140.619 198.685 141.304 200.741 139.124C208.567 130.84 215.46 135.968 222.415 140.349C224.429 141.615 226.131 143.339 227.979 144.854C231.031 152.516 225.259 155.402 220.422 158.786C211.868 161.464 206.906 153.512 199.578 151.602C187.537 160.883 172.734 164.662 159.074 170.89C154.444 169.956 151.87 167.112 151.268 162.44C152.077 157.166 150.23 152.557 147.614 148.156C143.337 146.266 139.268 149.131 135.095 148.716C133.683 148.612 132.375 148.197 131.13 147.553C129.282 146.266 127.164 145.519 125.067 144.751C121.58 143.297 118.362 141.449 115.767 138.646C113.483 136.861 110.493 135.574 110.68 131.919C111.158 129.739 112.652 128.535 114.604 127.767C120.936 125.628 127.746 126.251 134.036 124.217C134.472 118.092 126.562 118.071 125.836 112.86C126.915 109.102 130.175 107.503 133.019 108.998C139.642 112.486 145.704 109.787 152.098 108.832C164.783 106.942 167.772 102.375 164.347 88.7337C160.195 86.2007 155.503 85.6402 150.707 85.6402C143.026 103.454 135.053 109.33 120.23 108.147C117.656 101.98 122.638 99.2187 126.209 96.6857C133.164 91.765 136.237 85.7024 134.202 77.3767C132.874 71.9785 134.7 68.7396 140.119 67.4939C148.776 69.7569 150.375 61.0991 155.337 57.6317C156.022 57.6317 156.728 57.6317 157.413 57.6317C160.319 55.7424 162.831 53.3132 165.717 51.403L165.676 51.4238Z" fill="#F7DD94"/>
<path d="M178.154 113.73C177.406 99.8195 183.531 84.9952 172.071 73.2644C183.614 58.8969 182.95 55.8448 167.773 49.367C175.683 42.9514 185.794 42.6608 192.956 48.6403C199.683 54.26 206.638 57.582 213.821 58.6062C217.35 65.1256 215.461 71.5827 212.741 77.7491C213.925 79.8669 215.025 81.6109 215.897 83.4795C221.357 95.231 213.717 110.18 200.7 111.28C193.143 111.924 185.732 113.523 178.154 113.73Z" fill="#FBE096"/>
<path d="M140.762 70.1105C127.6 75.2388 141.281 81.6336 139.081 89.1081C135.676 96.3749 124.922 99.0325 120.002 107.483C117.095 114.438 108.043 109.517 104.597 115.455C102.874 116.556 101.047 117.116 99.0332 116.452C96.791 115.103 95.836 112.964 95.4001 110.514C95.0056 106.237 91.0818 106.631 88.4244 105.344C86.6182 104.493 85.0404 103.351 84.0854 101.545C83.8571 100.569 83.9194 99.6138 84.2931 98.6795C85.7878 96.6241 88.1961 95.9597 90.1891 94.6724C91.3102 94.0703 92.7012 93.8004 93.1787 92.2224C91.9745 89.6064 89.4002 90.1254 87.1996 89.7517C85.082 89.6479 83.0059 89.378 81.2412 88.07C79.352 86.3259 78.916 84.3535 80.307 82.1112C79.6634 80.8654 78.9991 79.6404 78.3555 78.3947C78.916 76.1524 80.4938 75.1143 82.6529 74.7613C85.5179 74.5952 87.0958 76.6714 88.9227 78.3532L88.8397 78.457C93.1787 81.6752 99.1162 79.2667 103.414 82.6095C104.327 91.558 111.241 92.9283 116.95 90.2085C124.548 86.5958 133.828 82.6302 132.437 71.0656C131.586 63.9234 135.634 59.4802 140.762 55.5977C142.153 56.2828 143.524 56.968 144.915 57.6531C149.69 63.8611 145.33 67.0169 140.742 70.0898L140.762 70.1105Z" fill="#F7E19D"/>
<path d="M219.654 157.329C221.689 152.678 227.605 150.622 227.958 144.85C234.498 140.947 239.875 134.947 248.034 133.639C256.442 138.061 252.705 147.487 256.214 154.007C257.729 156.83 258.933 157.079 261.155 157.308C267.362 157.806 270.85 162.789 275.5 165.903C277.12 170.513 279.923 175.392 272.739 177.966C264.393 177.364 258.29 172.298 252.02 167.523C248.823 165.094 246.622 161.086 241.868 161.107C238.775 161.356 237.176 163.744 235.474 165.8C229.723 172.796 222.477 170.222 217.017 166.962C210.789 163.246 215.834 159.841 219.633 157.329H219.654Z" fill="#FAEAAC"/>
<path d="M140.762 70.1085C142.007 65.9145 146.201 62.6964 144.935 57.6719C148.381 57.6719 151.848 57.6719 155.294 57.6719C153.052 64.8556 152.886 74.4894 140.762 70.1293V70.1085Z" fill="#FBE096"/>
<path d="M273.634 165.635C268.194 164.763 265.205 160.237 261.156 157.309C262.547 156.624 263.917 155.918 265.308 155.233C267.177 154.984 268.423 155.939 269.481 157.33C273.156 162.126 278.761 163.517 283.993 165.552C284.263 165.988 284.554 166.445 284.844 166.881C285.509 171.822 283.619 175.061 278.844 176.784C275.668 173.234 275.751 168.936 273.634 165.635Z" fill="#F4DD99"/>
<path d="M269.458 157.33C268.067 156.624 266.676 155.939 265.285 155.233C265.285 153.156 265.306 151.08 265.327 149.004C267.61 150.291 269.894 151.578 272.531 153.073C271.306 154.776 270.372 156.042 269.458 157.309V157.33Z" fill="#F3D789"/>
<path d="M165.675 51.4219C163.828 54.7438 161.482 57.3599 157.371 57.6506C159.219 54.3494 161.586 51.7333 165.675 51.4219Z" fill="#FBE096"/>
<path d="M283.973 165.552C282.686 163.247 281.399 160.922 280.008 158.43C282.354 156.126 287.876 158.493 288.167 153.157C294.291 147.447 295.765 140.346 294.395 132.394C298.007 129.654 306.81 132.27 309.779 138.146C312.436 143.398 316.609 148.527 315.156 155.212C315.737 159.51 312.436 158.908 310.069 159.385C314.782 160.444 318.955 156.043 323.875 157.662C325.972 158.451 327.695 159.655 328.609 161.773C325.474 171.137 320.159 173.525 309.613 170.327C306.81 166.798 302.824 166.216 298.693 166.071C294.976 165.054 291.447 166.029 287.918 167.067C286.402 167.192 285.073 166.818 284.035 165.656L283.994 165.531L283.973 165.552Z" fill="#F3D789"/>
<path d="M319.287 153.136C321.114 143.835 317.585 127.785 312.062 120.685C317.523 116.428 319.246 124.671 323.502 124.069L323.564 124.048C326.927 127.599 327.342 132.561 329.481 136.693C329.688 138.873 330.041 141.011 330.56 143.129C330.56 149.461 334.733 157.829 323.045 158.431C319.744 158.14 317.045 157.413 319.266 153.157L319.287 153.136Z" fill="#EFCC73"/>
<path d="M294.392 132.395C301.347 136.838 298.087 142.651 296.364 148.112C295.16 151.911 293.312 155.399 288.164 153.157C286.523 145.122 287.603 137.917 294.392 132.395Z" fill="#F9E194"/>
<path d="M319.285 153.137C319.534 155.67 320.925 157.082 323.479 157.331C323.998 157.787 324.164 158.244 323.998 158.722C323.832 159.179 323.645 159.407 323.479 159.407C317.52 161.026 311.541 162.48 305.105 160.902C306.787 155.857 312.828 158.763 315.154 155.213C316.524 154.528 317.915 153.822 319.285 153.137Z" fill="#E8CC7A"/>
<path d="M323.46 159.405C323.46 158.72 323.46 158.014 323.46 157.329C331.661 154.402 327.01 147.799 327.654 142.712C332.45 141.612 333.591 145.204 334.318 148.443C335.875 155.315 341.211 157.744 346.775 160.755C347.314 153.626 349.197 149.772 352.421 149.19C355.681 150.955 355.681 154.402 356.636 157.35C358.027 158.616 359.771 158.326 361.411 158.367C363.072 158.409 364.774 158.201 367.245 159.239C368.594 166.278 367.037 174.935 373.618 180.894C367.348 187.476 365.397 181.559 362.698 177.219C360.975 174.458 363.508 169.122 357.715 168.852C354.622 170.368 351.861 172.486 348.311 173.046C345.238 173.524 343.266 175.724 343.391 178.818C343.681 185.898 341.231 192.314 339.01 197.816C339.695 203.795 346.712 205.373 345.57 211.187C341.169 218.017 336.519 224.578 327.882 226.551C324.727 225.056 324.083 221.879 323.398 219.035C322.131 213.761 318.872 212.931 314.305 214.114C310.775 213.242 309.903 210.045 308.429 207.387C307.433 201.989 304.236 197.504 302.035 192.625C300.25 188.701 299.087 185.109 301.142 181.06C308.803 176.513 309.467 185.504 313.599 187.725C320.159 187.04 318.789 180.147 322.298 177.074C325.889 173.939 330.996 172.548 333.28 167.606C333.197 163.994 330.643 162.499 327.571 161.502L323.46 159.426V159.405Z" fill="#EACF80"/>
<path d="M389.872 190.549C393.319 194.016 396.786 197.463 400.232 200.93C397.969 204.854 394.834 207.823 390.765 209.9C386.862 211.893 384.786 215.215 384.225 220.364C389.665 222.44 398.841 221.464 396.412 231.845C396.121 232.78 395.685 233.631 395.146 234.441C389 236.475 392.758 244.635 387.34 247.126C381.713 240.69 373.783 237.264 367.389 231.804C365.229 227.631 365.188 223.354 366.786 219.014C368.406 215.194 373.139 214.094 374.53 210.086C377.79 205.166 375.921 199.498 376.835 194.182C375.153 192.708 371.956 194.743 370.71 191.151C370.129 187.58 372.807 184.798 374.904 181.787C375.859 181.248 376.71 181.372 377.458 182.14C382.004 182.431 384.869 185.462 387.776 188.431C388.98 188.618 389.665 189.324 389.852 190.528L389.872 190.549Z" fill="#F4DF9B"/>
<path d="M352.44 149.172C346.897 151.497 351.111 154.944 351.755 157.601C352.98 162.501 352.191 165.74 346.128 166.944C341.831 163.332 339.091 156.771 331.803 156.937C330.703 151.829 333.734 145.829 327.651 142.715C327.651 140.659 327.61 138.604 327.589 136.548C325.866 132.437 324.454 128.306 327.527 124.174L331.741 132.416C331.056 140.244 335.79 143.545 342.495 144.729C346.274 145.393 349.948 145.808 352.44 149.172Z" fill="#F9E5A1"/>
<path d="M331.741 132.396C331.969 128.701 331.159 124.86 332.779 121.6C340.502 116.908 345.152 123.946 351.671 125.337C351.754 131.234 355.408 135.967 357.567 142.03C347.125 142.238 340.045 135.656 331.741 132.396Z" fill="#FCF4C6"/>
<path d="M394.045 171.843V180.148C390.35 183.283 387.879 181.29 385.72 178.093C371.499 170.12 378.246 157.704 377.727 145.994C385.367 147.489 381.402 158.618 389.872 157.393C391.242 162.21 386.509 168.812 394.045 171.843Z" fill="#FCF6CE"/>
<path d="M385.719 178.092C388.501 178.777 391.283 179.462 394.044 180.147C398.341 180.874 398.258 184.009 397.988 187.518C396.12 190.425 392.674 189.719 389.871 190.57C389.186 189.864 388.48 189.179 387.795 188.473C387.11 185.006 386.404 181.559 385.719 178.092Z" fill="#FBF2BF"/>
<path d="M377.478 182.161C376.751 182.182 376.045 182.203 375.319 182.244C374.966 182.494 374.613 182.763 374.239 183.013C373.886 182.763 373.513 182.514 373.16 182.265C365.935 177.075 367.16 169.123 366.703 162.25C364.212 157.994 359.042 160.693 356.613 157.35C360.288 157.454 364.066 156.769 368.613 158.908C367.409 167.981 371.623 175.434 377.457 182.203L377.478 182.161Z" fill="#F9E5A1"/>
<path d="M327.528 124.175C327.549 128.306 327.569 132.417 327.59 136.549C323.729 133.185 323.21 128.742 323.521 124.029C324.85 124.071 326.178 124.112 327.507 124.175H327.528Z" fill="#F8DA8A"/>
<path d="M335.936 95.0214C335.936 99.1739 335.936 103.306 335.915 107.458C326.116 107.79 326.241 99.4646 324.165 93.485C322.483 88.6474 324.725 84.9932 329.459 83.3945C334.213 84.0174 333.154 89.0211 335.895 90.9105C335.895 92.2808 335.936 93.6511 335.957 95.0007L335.936 95.0214Z" fill="#F2D57F"/>
<path d="M408.598 290.211C409.677 289.463 410.736 288.695 411.857 287.906C416.342 291.643 413.373 299.014 419.123 301.983C426.244 301.983 425.891 293.429 431.414 290.792C434.424 300.052 427.075 306.925 427.199 315.063C426.327 325.694 421.573 333.687 411.587 338.172C406.978 339.542 402.162 340.207 397.595 341.93C382.148 347.723 379.906 351.979 383.996 368.443C384.183 372.513 381.816 375.295 379.201 377.932C378.432 378.617 377.581 379.157 376.668 379.614C371.934 380.818 368.343 383.413 365.312 387.42C362.114 391.614 358.689 396.265 352.191 395.372C344.094 391.365 336.039 392.548 327.984 395.621C326.966 395.746 325.928 395.684 324.911 395.517C321.548 394.625 318.247 393.524 315.963 390.721C312.164 386.05 310.877 380.797 313.783 375.336C316.544 370.125 321.569 367.904 326.946 369.814C335.81 372.97 340.585 368.796 344.613 361.654C344.717 357.813 341.333 355.114 340.585 351.418C339.527 346.145 335.935 344.754 330.952 343.882C302.469 338.94 273.154 341.951 244.899 334.995C241.287 334.102 239.086 336.179 236.719 338.234C233.501 341.016 230.097 343.446 225.612 340.705C223.848 330.552 228.27 322.6 237.467 320.109C248.781 317.036 260.802 318.074 272.013 313.921C276.559 312.24 280.13 317.098 284.822 318.199C297.86 308.876 314.219 305.347 326.78 294.862C332.53 294.55 338.281 293.99 343.969 295.298C350.883 301.36 358.564 305.72 368.073 305.949C370.253 306.177 372.37 306.758 374.509 307.132C377.27 307.236 379.014 304.952 381.38 304.184C390.972 301.381 398.342 294.55 407.103 290.252C407.581 290.252 408.058 290.252 408.536 290.252L408.598 290.211Z" fill="#F8EECB"/>
<path d="M425.354 250.159C425.52 258.484 427.347 267.038 419.935 273.828C417.153 276.381 414.558 277.129 411.133 275.904C410.24 280.908 409.41 285.538 408.579 290.188C402.828 295.462 397.223 291.704 389.957 290.001C395.168 278.811 382.13 269.862 387.424 258.484C387.901 257.612 388.524 256.865 389.272 256.242C395.5 253.211 399.88 260.249 406.42 259.169C408.953 251.882 414.974 247.895 422.447 245.674C424.669 246.338 425.665 247.812 425.312 250.138L425.354 250.159Z" fill="#F5E4AC"/>
<path d="M410.697 335.909C420.205 332.151 421.97 322.226 427.222 315.084C428.593 315.084 429.963 315.084 431.333 315.084C429.61 322.911 425.063 329.327 421.036 336.033C411.61 350.733 400.254 363.813 388.171 376.374C384.953 379.717 381.528 381.98 377.438 383.662C375.569 381.586 375.777 379.489 377.438 377.413C381.341 375.316 384.04 372.305 384.704 367.758C389.458 362.401 393.984 357.045 396.123 349.819C398.219 342.698 406.275 341.058 410.697 335.909Z" fill="#FAE9AC"/>
<path d="M425.352 250.158C424.543 248.974 423.733 247.812 422.944 246.628C422.384 245.798 422.384 244.946 422.882 244.074C423.754 243.555 424.584 243.618 425.352 244.303C425.934 244.469 426.515 244.677 427.096 244.884C427.781 246.068 428.487 247.23 429.172 248.414C427.906 248.995 426.619 249.576 425.352 250.158Z" fill="#7B6C38"/>
<path d="M423.008 244.512C422.987 245.218 422.945 245.944 422.924 246.65C416.26 251.654 410.136 257.218 406.42 264.755C400.254 261.828 395.084 259.378 389.936 256.928C386.385 254.063 385.867 250.574 387.839 246.588C387.88 243.142 387.693 239.674 388.005 236.248C388.441 231.639 391.389 233.051 394.025 234.11C399.922 237.909 395.022 246.505 400.98 250.263C404.198 249.765 405.008 247.211 405.506 245.031C407.209 237.556 409.16 230.393 415.887 225.556C417.817 224.165 415.97 222.483 415.222 221.03C414.371 219.203 413.603 217.375 414.869 215.424C418.585 215.548 421.243 218.019 423.61 220.261C426.308 222.815 427.616 221.217 429.34 219.556C429.34 221.653 429.36 223.75 429.381 225.867C426.661 231.888 421.056 235.418 416.945 240.235C418.565 242.249 422.364 241.169 423.049 244.512H423.008Z" fill="#ECD590"/>
<path d="M394.046 232.051C393.714 229.456 394.814 226.466 392.136 224.722C388.212 222.895 386.074 228.272 382.399 226.715C376.711 215.732 380.821 209.815 400.233 200.949C401.748 202.942 404.406 204.126 404.447 207.116C403.16 207.863 401.582 208.299 401.146 210.043C399.008 213.49 399.735 216.853 400.482 220.632C401.458 225.698 402.475 231.823 394.046 232.051Z" fill="#ECD590"/>
<path d="M400.272 207.138C401.663 205.311 403.075 206.826 404.466 207.096L404.424 207.138C407.04 208.674 409.075 210.813 410.756 213.304C412.106 213.989 413.476 214.695 414.826 215.38C415.511 216.772 416.217 218.163 416.902 219.554C417.338 226.115 413.476 229.167 407.705 229.167C401.497 229.167 400.355 224.35 400.065 219.097C399.857 215.069 398.134 211.083 400.252 207.096L400.272 207.138Z" fill="#E2C879"/>
<path d="M410.738 213.327C407.873 212.039 405.839 209.901 404.406 207.16C408.247 207.43 410.261 209.61 410.738 213.327Z" fill="#E9CF84"/>
<path d="M423.006 244.511C421.47 242.373 417.068 244.325 416.902 240.234C420.349 240.297 423.525 240.899 425.331 244.345C424.563 244.408 423.774 244.47 423.006 244.532V244.511Z" fill="#AA9D67"/>
<path d="M103.457 113.543C106.966 106.048 114.73 110.2 119.983 107.48C123.201 106.276 126.335 104.802 129.616 103.951C139.996 101.231 147.408 96.3725 145.103 83.9151C144.999 83.313 145.311 82.5448 145.622 81.9427C145.934 81.3613 146.494 80.9253 147.449 79.8457C153.075 82.3164 159.241 84.0812 165.511 83.0016C172.487 93.5073 171.76 98.9055 161.878 112.671C153.352 112.02 146.688 113.405 141.885 116.823C136.487 117.114 133.249 105.84 126.273 113.668C125.899 114.124 125.526 114.602 125.152 115.059C118.259 118.152 111.388 117.509 104.516 114.976C104.163 114.498 103.81 114.021 103.457 113.543Z" fill="#F4D98D"/>
<path d="M219.655 157.33C218.513 159.344 217.351 161.379 215.731 164.244C220.672 165.407 224.866 166.382 228.914 167.338C234.686 165.365 234.956 156.375 242.513 157.33C244.526 165.843 241.682 170.66 232.88 172.798C226.465 174.355 219.842 173.857 213.323 174.085C209.877 173.732 206.742 172.487 203.939 170.452C201.469 168.646 199.579 166.113 196.195 164.784C185.088 168.272 174.417 175.933 161.421 171.864C160.528 171.324 159.843 170.597 159.324 169.684C167.898 165.199 173.898 155.981 185.524 157.019C192.521 157.642 192.874 148.797 198.292 145.537C205.725 148.444 210.769 156.52 219.614 157.309L219.655 157.33Z" fill="#FAE5A5"/>
<path d="M159.366 169.686C160.092 169.727 160.798 169.748 161.525 169.79C163.663 171.949 166.922 173.257 167.151 176.932C166.715 181.977 163.102 183.223 159.179 182.434C154.362 181.479 149.151 180.773 145.788 176.371C139.767 169.603 130.882 167.921 123.283 163.914C121.394 162.938 119.962 161.568 119.318 159.471C119.235 157.727 120.107 156.481 121.456 155.526C122.37 154.986 123.346 154.633 124.404 154.488C127.996 154.218 131.608 154.052 135.158 154.924C136.113 155.215 137.006 155.671 137.857 156.19C139.83 157.831 141.76 158.703 144.355 157.062C149.504 153.823 151.829 156.772 153.22 161.443C153.802 165.305 157.103 167.111 159.386 169.707L159.366 169.686Z" fill="#E9D9AA"/>
<path d="M153.199 161.44C150.064 162.146 150.562 157.786 148.279 157.682C143.607 158.118 147.635 163.765 143.213 164.554C139.87 163.537 137.483 161.149 136.715 157.184C138.272 150.706 143.919 148.235 148.735 144.996C152.244 145.598 156.022 145.951 153.22 151.183C150.604 156.042 155.919 154.36 157.413 156.187C156.043 157.89 154.631 159.675 153.22 161.44H153.199Z" fill="#F0D698"/>
<path d="M148.716 144.976C148.156 152.45 141.118 153.53 136.696 157.163V157.226C134.018 155.315 129.928 156.374 127.956 153.032C127.665 152.077 127.769 151.184 128.226 150.312C129.741 148.215 132.399 148.339 134.371 147.114C139.021 145.516 143.319 141.508 148.716 144.997V144.976Z" fill="#C5A86C"/>
<path d="M211.373 171.885C216.73 168.729 222.646 169.871 228.356 169.83C236.805 169.767 241.892 166.155 242.515 157.352C252.376 158.493 255.428 169.726 264.5 172.155C267.012 172.84 269.192 174.709 271.538 176.017C274.798 177.678 278.099 176.827 281.462 176.349C285.946 175.685 288.707 177.595 289.372 182.972C283.912 186.523 281.213 192.295 279.406 198.606C278.763 199.52 277.953 200.226 276.977 200.786C270.936 202.053 264.729 203.922 260.826 196.738C260.742 194.828 261.988 193.52 263.151 192.315C265.704 189.699 267.905 187 265.663 183.221C262.881 178.55 258.853 180.045 254.846 180.481C254.224 187.146 262.798 188.246 261.448 194.35C258.895 197.485 255.656 196.489 253.144 194.911C246.335 190.654 239.442 191.962 232.404 193.748C230.847 193.603 229.435 193.021 228.169 192.128C224.017 188.267 222.377 184.571 228.895 181.436C230.224 181.332 231.511 180.896 232.84 180.771C231.594 180.626 230.473 181.394 229.228 181.332C223.124 183.201 219.387 190.696 211.664 188.62C207.055 186.959 204.771 183.055 202.55 179.09C202.28 172.736 207.034 172.591 211.373 171.948V171.885Z" fill="#F4DD99"/>
<path d="M277.805 196.778C278.365 190.196 279.819 184.196 287.562 181.746C283.763 175.081 275.272 181.849 271.535 176.015C278.677 173.856 271.93 168.894 273.611 165.634C275.5 168.52 277.39 171.406 279.32 174.375C282.684 172.174 281.999 168.209 283.992 165.676C285.362 165.634 286.711 165.592 288.082 165.551C290.801 166.132 291.902 169.33 294.663 169.703C298.628 169.226 297.382 165.634 298.524 163.516C301.763 165.447 308.365 159.073 308.925 167.71C309.237 170.202 309.465 172.672 307.804 174.852C305.458 177.718 300.891 178.008 299.126 183.137C300.87 191.379 305.832 199.331 310.192 207.532C310.939 212.868 318.019 216.481 314.385 223C310.524 226.281 309.216 222.253 307.181 220.426C299.438 213.45 291.113 206.951 288.746 197.504C284.178 194.245 281.044 198.854 277.784 196.819L277.805 196.778Z" fill="#F6E4A6"/>
<path d="M306.788 173.816C306.892 171.553 306.788 169.227 308.968 167.691C317.272 171.906 322.546 167.026 327.59 161.462C333.134 157.455 336.04 161.67 339.403 164.68C337.493 173.92 329.231 175.56 322.649 180.024C324.456 189.325 320.262 193.062 310.484 190.612C308.927 186.896 307.058 182.619 302.74 180.127C301.349 176.245 305.252 175.788 306.809 173.816H306.788Z" fill="#E8CC7A"/>
<path d="M298.565 163.496C300.122 164.721 301.658 165.925 303.298 167.212C301.036 171.095 298.067 173.731 293.624 174.728C289.513 173.025 288.953 169.205 288.102 165.53C290.531 159.468 294.413 160.859 298.544 163.496H298.565Z" fill="#FDEFB5"/>
<path d="M344.218 211.268C343.969 207.78 340.896 207.407 338.612 206.078C336.183 204.645 333.007 201.655 334.419 199.787C341.955 189.842 334.377 170.969 353.228 167.792C354.453 167.584 355.512 166.38 356.654 165.633C361.657 174 350.467 176.014 350.01 182.575C354.328 191.814 364.48 183.281 370.003 188.845C372.619 196.984 368.383 201.593 361.657 204.728C358.626 206.14 355.429 207.178 352.792 209.317C350.052 210.479 347.54 212.763 344.197 211.289L344.218 211.268Z" fill="#E8CC7A"/>
<path d="M344.22 211.273C346.255 209.84 347.438 207.12 350.428 207.162C360.227 203.3 368.822 207.369 377.437 211.293C376.981 216.463 373.514 217.626 369.112 217.522C365.541 219.993 361.825 217.169 357.071 218.02C354.144 227.758 350.428 238.139 336.123 234.713C331.577 233.924 327.3 232.243 322.982 230.685C319.307 228.9 315.508 227.301 313.12 223.688C313.473 217.709 311.21 212.415 308.844 207.141C309.55 206.393 310.276 206.373 311.003 207.099C312.352 209.196 313.723 211.293 315.072 213.37C319.66 217.065 324.352 220.636 327.549 225.723C333.217 221.052 337.473 214.719 344.199 211.252L344.22 211.273Z" fill="#EFD68C"/>
<path d="M369.112 188.451C363.465 191.732 357.091 189.905 350.406 191.483C348.289 188.181 346.171 184.859 344.406 182.098C346.586 174.291 356.863 174.001 356.697 165.633C358.171 163.246 359.811 161.149 363.506 162.602C368.177 168.229 359.852 180.769 373.201 182.285L373.264 182.326C375.797 186.998 372.475 187.725 369.132 188.451H369.112Z" fill="#E3C46E"/>
<path d="M311.023 207.118C310.296 207.118 309.591 207.139 308.864 207.159C304.297 206.537 304.193 202.426 303.259 199.394C301.12 192.439 296.304 187.124 291.176 179.815C298.712 181.082 301.182 174.438 306.788 173.836C305.438 175.933 304.068 178.051 302.719 180.148C301.39 190.404 310.587 197.422 311.023 207.118Z" fill="#EBD48C"/>
<path d="M327.59 225.742C322.773 222.296 313.742 223.085 315.113 213.389C315.32 211.416 315.071 209.278 317.334 207.866C321.092 207.077 322.607 211.375 326.053 212.018C326.572 216.628 327.091 221.175 327.611 225.721L327.59 225.742Z" fill="#E0C579"/>
<path d="M400.274 207.137C402.973 213.636 399.423 222.418 407.208 227.339C411.505 225.553 414.578 223.041 416.903 219.574C419.166 220.965 422.239 221.505 422.654 225.657C419.166 228.232 415.388 231.035 411.132 234.17C411.609 241.976 408.308 249.056 404.364 256.676C389.748 254.122 395.271 242.454 394.004 234.066C394.004 233.381 394.004 232.696 394.025 232.011C401.893 225.636 398.302 219.885 391.824 213.283C397.367 213.76 398.052 209.67 400.253 207.096L400.274 207.137Z" fill="#E9CF84"/>
<path d="M369.111 188.453C370.564 186.46 373.263 185.297 373.242 182.328C373.948 182.328 374.633 182.286 375.339 182.266C375.941 185.525 374.01 188.141 372.889 191.173C377.623 192.605 376.19 186.605 381.173 185.961C378.557 194.578 383.934 203.36 377.477 211.333C375.007 212.267 373.408 215.132 369.796 214.51C368.052 212.454 366.121 210.17 364.523 208.281C359.561 206.122 354.661 211.914 350.488 207.18C354.371 205.042 358.191 202.8 362.135 200.786C367.201 198.17 370.128 194.453 369.173 188.453H369.111Z" fill="#EACF82"/>
<path d="M335.914 232.053C352.46 235.25 351.629 222.232 353.664 212.37C360.515 210.294 363.795 216.876 369.131 217.519C369.131 222.357 369.131 227.195 369.131 232.032C362.737 236.807 353.436 234.814 347.747 241.23C346.813 241.77 345.837 242.102 344.799 242.31C337.865 242.351 332.903 240.628 335.914 232.053Z" fill="#F9E4A6"/>
<path d="M346.294 240.339C351.298 230.394 360.557 232.158 369.131 232.055C374.923 231.66 378.785 236.685 383.809 236.955C386.695 239.944 384.702 244.263 387.816 246.568C389.726 249.765 390.079 253.295 389.913 256.907C389.913 257.613 389.892 258.319 389.871 259.025C381.131 259.959 380.778 251.717 376.958 247.273C376.273 246.734 375.671 246.111 375.069 245.488C373.512 243.64 371.394 243.391 369.173 243.412C364.273 242.394 359.457 241.294 354.37 242.664C351.464 243.453 348.35 243.266 346.273 240.318L346.294 240.339Z" fill="#F8E9B1"/>
<path d="M310.941 402.574L313.142 400.145C317.46 396.698 320.927 397.321 323.46 402.325C324.145 403.695 324.81 405.045 325.495 406.415C320.346 406.29 315.55 404.795 310.941 402.574Z" fill="#958150"/>
<path d="M323.458 402.326C320.011 401.6 316.586 400.873 313.14 400.146C312.413 399.482 311.686 398.838 310.98 398.174C314.198 391.052 319.679 391.841 325.534 394C326.219 394 326.925 394 327.61 394C335.914 393.44 344.219 390.263 352.523 394C360.059 391.115 363.63 384.554 367.263 377.391C370.668 377.391 374.052 377.391 377.436 377.391C377.436 379.467 377.436 381.564 377.436 383.64C377.643 388.021 375.401 389.973 371.187 389.973C369.256 390.907 367.927 392.443 366.765 394.187C360.703 403.364 352.564 406.458 342.059 402.596C335.852 402.492 329.644 402.409 323.437 402.305L323.458 402.326Z" fill="#F9EBC0"/>
<path d="M342.059 402.618C350.093 403.075 357.193 401.663 362.591 394.707C364.48 392.257 367.449 389.974 371.186 389.994C368.383 395.476 366.909 401.912 360.411 404.673C356.363 405.836 352.314 405.857 348.287 404.673C346.294 404.528 344.28 404.383 342.287 404.237C342.287 403.697 342.204 403.158 342.059 402.639V402.618Z" fill="#F0D58D"/>
<path d="M325.535 393.998C319.66 391.839 316.172 397.943 310.982 398.172C306.539 397.715 303.155 393.832 298.422 394.351C295.598 394.289 293.585 392.545 291.197 391.32C285.903 388.579 280.651 388.123 275.232 392.69C268.236 398.587 260.367 403.466 252.873 408.781C251.44 409.445 250.028 410.11 248.596 410.754C235.807 408.864 225.531 417.771 213.469 418.955C201.241 423.979 188.68 422.775 176.078 421.093C173.546 421.28 171.802 419.764 170.037 418.29C161.089 418.124 156.605 412.394 153.387 405.023C154.549 401.327 150.086 396.801 154.321 393.106C145.145 386.067 145.768 380.212 156.958 375.022C158.369 374.772 159.802 374.793 161.214 374.98C162.75 374.98 164.162 376.288 165.864 375.478C167.317 373.527 165.802 371.097 166.84 369.063C170.016 363 175.684 364.121 180.957 364.08C181.974 364.121 183.013 364.287 184.009 364.516C191.462 367.319 200.057 366.737 204.313 371.554C208.029 372.343 207.552 370.08 207.386 371.45C207.386 371.596 207.157 371.658 206.804 371.533C200.244 369.104 191.836 368.647 192.583 358.329C198.438 353.802 203.358 347.968 210.604 345.352C216.126 344.854 219.365 337.712 225.863 340.016C234.811 341.262 234.852 330.113 242.451 328.576C250.423 335.822 261.488 335.988 271.184 335.386C292.713 334.037 313.37 340.743 334.691 340.182C343.95 339.933 344.137 347.47 344.594 353.366C346.047 357.394 350.926 355.775 352.192 360.426C347.396 365.595 342.206 371.201 336.788 377.035C334.317 376.08 331.95 375.52 329.937 374.336C324.394 371.097 318.601 370.475 316.089 377.035C313.806 383.015 314.844 389.472 323.106 391.195C324.788 391.548 325.328 392.524 325.515 393.978L325.535 393.998Z" fill="#F8EECE"/>
<path d="M225.885 340.019C220.964 342.635 217.186 347.265 211.373 348.324C207.615 342.905 213.283 340.33 214.881 336.531C217.643 333.354 220.051 329.991 220.549 325.61C221.172 313.007 222.563 311.429 234.646 309.913C236.016 309.747 237.947 310.308 238.673 309.394C246.479 299.678 259.06 302.169 268.756 297.477C278.139 292.93 287.295 292.743 296.534 297.767C303.052 301.339 308.346 300.321 312 293.324C315.364 286.888 316.921 280.95 309.073 276.528C307.89 275.863 306.519 274.929 306.125 273.683C302.928 263.343 299.897 252.942 302.72 241.938C311.377 241.938 313.869 248.166 314.388 254.893C314.907 261.62 317.855 266.271 322.298 270.984C331.515 280.742 332.657 287.532 327.633 296.439C321.01 305.408 311.523 309.685 301.184 312.571C298.464 313.339 295.89 314.357 294.084 316.557C287.357 324.758 280.818 326.419 274.652 315.125C262.444 324.883 247.538 319.236 233.587 324.966C231.531 329.202 226.798 333.582 225.905 340.04L225.885 340.019Z" fill="#F9EDC5"/>
<path d="M327.612 296.416C328.775 283.44 323.543 273.931 311.71 267.598C309.571 259.106 314.429 247.687 302.699 242.434C298.091 232.364 302.533 225.451 313.038 225.721C317.232 225.824 320.014 228.191 323.232 230.018C326.159 231.264 328.007 233.423 328.692 236.558C328.879 240.275 325.765 243.638 327.592 247.583C344.325 256.573 352.899 285.101 344.2 296.437C338.657 298.845 333.135 300.133 327.592 296.437L327.612 296.416Z" fill="#FCF0CE"/>
<path d="M344.218 296.418C347.27 281.697 340.938 269.219 334.564 256.803C333.837 255.391 332.405 254.145 331.035 253.294C321.609 247.585 321.069 245.093 327.609 236.228C329.747 235.522 330.765 236.913 331.408 238.511C334.626 246.733 339.111 245.716 344.259 240.38C344.944 240.38 345.629 240.359 346.315 240.338C351.297 241.024 355.74 239.653 359.477 236.56C363.816 237.183 366.743 241.21 371.228 240.38C372.826 242.498 375.878 242.394 377.456 244.512C382.48 254.27 381.919 255.204 368.591 259.419C367.615 259.73 366.577 259.876 365.56 259.917C362.259 259.98 359.622 260.623 359.207 264.797C358.833 268.534 357.38 271.98 355.138 275.095C349.013 283.566 349.678 285.434 359.705 288.902C360.702 289.213 361.532 289.753 362.28 290.459C363.961 296.833 374.113 300.051 369.172 308.896C358.937 308.605 348.474 308.771 344.259 296.438L344.218 296.418Z" fill="#FAEFC2"/>
<path d="M369.134 308.876C369.093 306.135 369.176 302.792 366.331 301.796C360.331 299.657 360.643 295.048 360.83 290.273C362.511 282.798 367.785 282.051 374.864 283.629C373.058 274.099 377.957 263.406 367.058 256.928C369.798 253.648 374.553 256.077 377.459 253.253C380.366 250.347 377.314 247.44 377.459 244.533C383.687 247.606 383.334 256.305 389.916 259.067C389.002 265.794 387.736 272.666 396.082 276.279C394.877 280.327 393.736 284.169 392.012 290.003C398.677 285.31 402.808 293.948 408.6 290.252C404.074 298.64 393.839 300.197 388.006 307.173C387.632 307.609 383.874 305.305 381.466 306.799C377.584 305.595 377.48 310.038 375.092 311.077C373.099 310.35 371.127 309.644 369.134 308.917V308.876Z" fill="#F9EBBA"/>
<path d="M410.695 335.908C410.654 336.925 410.986 338.607 410.529 338.877C398.322 345.749 399.381 363.48 385.762 369.107C384.371 370.332 382.98 370.332 381.61 369.107C372.828 352.352 381.672 339.52 404.509 336.032C406.522 335.721 408.64 335.949 410.695 335.929V335.908Z" fill="#F7EDC2"/>
<path d="M352.522 393.998C344.218 396.075 335.914 397.964 327.609 393.998C336.827 388.06 346.522 388.06 352.522 393.998Z" fill="#F8EECE"/>
<path d="M321.051 318.903C317.376 322.682 314.511 324.654 309.965 320.751C313.058 316.142 316.38 316.765 321.051 318.903Z" fill="#F8EECE"/>
<path d="M381.609 369.086C383 369.086 384.37 369.086 385.761 369.086C386.01 374.899 383.27 377.682 377.457 377.391C378.848 374.629 380.239 371.847 381.609 369.086Z" fill="#F9EBC0"/>
<path d="M375.09 311.035C375.879 307.61 376.086 303.333 381.463 306.758C379.325 308.149 378.432 311.43 375.09 311.035Z" fill="#C3B78B"/>
<path d="M211.371 171.885C210.769 176.909 204.603 174.127 203.046 177.802C201.863 180.335 199.558 180.979 197.088 181.062C189.884 181.29 182.742 179.774 175.434 182.349C171.137 183.864 168.293 179.297 165.739 176.037C163.082 174.812 161.67 172.736 161.504 169.808C174.002 170.286 185.524 167.774 195.302 158.514C202.112 161.15 204.707 169.082 211.371 171.885Z" fill="#F7E5AF"/>
<path d="M323.459 232.054C309.342 224.662 303.363 227.652 302.698 242.435C305.978 251.799 307.888 261.412 306.933 271.025C320.075 276.901 326.532 281.883 307.162 306.819C291.467 293.822 274.692 299.095 257.128 304.307C247.495 307.151 246.914 305.158 242.803 314.024C230.222 314.383 223.897 318.903 223.828 327.581C214.756 326.481 212.513 323.574 214.029 315.311C215.897 305.054 222.769 297.642 228.499 289.628C223.143 282.527 216.499 276.942 215.461 267.163C214.963 262.408 206.181 259.564 210.313 252.401C220.652 243.452 230.16 242.788 241.143 250.221C244.007 252.159 247.343 252.747 251.149 251.986C250.464 246.089 246.27 244.491 241.309 243.224C230.907 240.587 227.378 235.417 227.316 223.79C228.478 222.565 229.932 222.213 231.572 222.337C234.333 222.898 236.181 224.725 237.862 226.801C238.485 227.59 238.983 228.462 239.461 229.334C246.706 234.545 251.731 232.905 253.205 224.974C254.512 217.935 251.647 213.015 245.938 209.236C242.201 206.765 239.482 203.381 241.848 198.834C244.568 193.581 249.239 194.91 253.62 196.55C258.997 198.585 263.751 202.343 269.813 202.488C272.699 205.603 270.768 209.88 272.72 213.97C278.574 216.005 284.719 218.683 292.11 219.783C291.384 209.61 282.768 207.617 277.017 203.049C276.457 201.492 276.623 200.101 277.806 198.876C277.806 198.191 277.827 197.505 277.827 196.82C281.439 195.45 282.124 190.405 288.768 189.74C291.404 204.336 305.854 211.208 313.141 223.749C317.355 223.251 320.283 225.908 323.48 227.922C324.705 229.313 324.58 230.704 323.48 232.095L323.459 232.054Z" fill="#F9ECBD"/>
<path d="M269.479 203.007C265.036 205.976 261.133 203.941 256.96 202.031C253.099 200.266 249.736 196.508 244.753 198.086C241.888 201.989 243.715 204.647 246.995 206.578C255.673 211.685 259.888 221.983 256.67 230.766C254.718 236.081 250.068 236.102 245.583 236.164C241.12 236.247 236.116 236.953 236.283 229.977C238.732 228.523 241.037 226.904 243.175 225.035C249.715 217.333 242.698 215.983 237.84 214.114C226.608 209.796 225.84 208.82 227.584 198.065C228.663 195.823 229.847 193.643 232.38 192.688C237.757 185.836 244.462 186.957 251.064 190.072C254.427 191.67 257.292 194.307 261.237 194.639C265.389 201.512 272.178 197.878 277.825 198.813C277.825 200.183 277.825 201.574 277.825 202.944C275.084 205.602 272.323 205.104 269.541 202.986L269.479 203.007Z" fill="#FAE9AF"/>
<path d="M232.34 192.707C231.945 194.888 232.153 197.296 230.015 198.812C227.793 200.078 225.966 201.739 226.527 204.542C228.416 213.947 223.309 216.169 215.358 215.65C212.721 214.882 210.749 213.283 209.275 210.999C207.572 204.106 203.15 200.867 196.05 201.241C192.583 199.85 188.805 201.137 185.317 199.974C181.953 199.393 178.279 199.331 177.199 195.033C177.324 192.271 179.088 191.15 181.497 190.673C190.611 190.88 199.787 190.714 208.59 194.015C207.033 193.143 204.147 193.829 205.102 190.486C208.506 190.382 211.932 190.278 215.337 190.195C220.444 184.942 225.364 191.15 230.388 190.465C231.032 191.213 231.676 191.939 232.319 192.687L232.34 192.707Z" fill="#E1CD8A"/>
<path d="M261.196 194.662C259.452 190.904 255.445 189.865 252.559 187.499C250.296 185.63 248.324 183.907 249.155 180.668C250.11 176.951 253.037 176.391 256.296 175.996C264.248 175.041 270.102 177.18 270.953 186.108C271.597 193.042 267.362 195.118 261.196 194.682V194.662Z" fill="#E4C87C"/>
<path d="M323.457 232.052C323.457 230.661 323.457 229.27 323.457 227.879C327.63 229.228 332.239 229.187 335.893 232.052C336.391 237.097 338.841 240.191 344.218 240.378C342.661 250.219 340.086 251.091 329.062 245.589C326.156 242.786 331.035 238.883 327.588 236.225C326.218 234.834 324.827 233.443 323.457 232.052Z" fill="#F8E9B1"/>
<path d="M377.435 244.51C374.425 244.551 371.664 244.198 371.207 240.378C374.217 240.337 376.999 240.669 377.435 244.51Z" fill="#F9EBBA"/>
<path d="M120.169 412.957C120.253 407.122 116.433 406.23 111.824 406.333C110.184 404.527 107.298 404.403 106.052 402.056C104.62 399.233 105.512 396.243 106.114 393.315C101.381 391.945 97.8516 389.267 93.7202 387.938C91.4158 386.672 89.7549 384.824 88.7999 382.374C86.4332 371.764 93.6165 370.269 102.045 369.314C94.9244 366.366 84.8554 369.46 83.3398 358.414C83.5059 357.334 83.9627 356.421 84.6893 355.611C87.4713 353.493 90.6476 353.369 93.9486 353.742C99.3049 355.507 105.222 353.576 110.453 356.192C115.934 358.559 122.059 358.954 127.415 361.736C132.211 366.553 141.491 363.459 144.563 371.39C146.494 377.723 138.252 380.256 139 386.962C139.352 390.056 139.124 394.208 138.626 397.842C133.955 404.652 127.809 409.676 120.211 412.957H120.169Z" fill="#F2E7C7"/>
<path d="M138.565 397.862C132.856 390.658 139.188 384.47 140.558 377.951C140.994 375.896 142.904 373.923 142.821 371.411C149.631 368.587 154.364 370.954 157.54 377.266C154.945 378.782 151.81 379.529 149.714 383.059C153.264 385.716 151.686 393.793 160.841 390.886C159.658 395.142 160.177 399.378 154.821 394.249C154.904 398.547 157.457 401.765 155.028 404.984C152.973 405.274 151.873 404.091 151.063 402.451C143.963 397.073 148.8 386.588 142.011 379.301C139.873 386.526 141.824 392.713 138.565 397.862Z" fill="#E8E3C9"/>
<path d="M157.602 376.905C152.702 374.953 147.782 373.002 142.883 371.05C138.876 365.133 130.343 370.469 126.398 364.406C128.848 360.607 132.149 357.928 136.55 356.662C145.768 357.596 154.965 354.648 164.204 356.662C171.283 358.219 178.778 358.759 182.39 366.586C177.491 367.749 171.159 364.157 167.962 370.946C166.591 373.77 164.287 375.618 161.629 377.092C160.28 377.03 158.951 376.946 157.602 376.884V376.905Z" fill="#C0B89F"/>
<path d="M194.512 358.87L188.512 356.191C185.46 352.475 184.526 348.447 186.664 343.942C190.006 339.083 194.117 343.651 199.245 342.737C204.29 340.89 208.94 331.733 217.577 337.921C215.999 341.679 211.39 343.63 211.39 348.322C204.124 349.194 202.152 358.558 194.532 358.87H194.512Z" fill="#F6E7B6"/>
<path d="M161.567 377.472C158.391 369.956 165.781 373.361 167.899 371.326C169.373 372.676 170.826 374.025 172.923 375.935C169.248 379.154 165.927 381.022 161.567 377.472Z" fill="#E8E3C9"/>
<path d="M217.536 337.919C210.041 338.625 202.879 339.85 201.53 350.107C196.402 346.951 192.457 344.522 188.513 342.113C188.056 341.989 187.578 341.864 187.122 341.761C184.173 339.373 180.706 337.733 177.738 335.407C174.707 333.04 171.676 330.383 173.087 325.94C174.271 322.182 177.655 321.206 181.122 320.355C184.547 319.524 188.886 321.164 191.606 316.389C186.831 311.676 176.554 314.417 175.267 305.073C177.987 297.827 184.962 299.924 190.672 298.284C193.371 292.014 190.464 288.235 185.253 284.892C179.793 281.384 179.025 277.626 186 274.698C193.08 275.736 200.097 277.127 207.114 278.352C214.152 274.615 209.522 270.276 207.737 266.165C205.723 261.514 200.741 257.299 205.952 251.777C207.405 251.154 208.837 251.154 210.291 251.818C210.643 252.171 210.996 252.524 211.349 252.877C209.979 259.126 214.484 261.14 219.737 263.071C214.796 272.643 226.775 275.965 225.84 283.252C229.494 286.117 232.193 280.989 235.909 284.29C230.096 296.769 216.747 305.676 216.249 321.995C218.408 323.593 221.107 325.587 223.827 327.58C224.699 332.833 220.692 335.117 217.578 337.94L217.536 337.919Z" fill="#F2E0A9"/>
<path d="M367.034 256.908C370.024 257.24 373.2 256.327 376.792 258.631C380.217 267.435 374.383 277.837 380.093 286.37C374.799 291.893 371.913 288.654 369.422 284.958C365.311 285.187 364.75 290.398 360.806 290.273L359.789 290.253H358.771C349.927 291.228 350.675 283.588 352.398 280.245C356.425 272.459 357.463 262.888 365.02 257.012C365.705 257.012 366.37 256.97 367.055 256.929L367.034 256.908Z" fill="#EBD9A1"/>
<path d="M364.999 256.988C364.418 264.753 357.816 269.882 356.217 277.273C355.159 282.111 351.712 287.114 358.771 290.229C357.65 291.433 356.529 292.616 355.802 293.405C353.041 290.25 350.633 287.488 346.688 282.983C346.397 275.176 360.245 269.55 355.968 257.424C359.622 257.258 362.3 257.113 364.999 256.988Z" fill="#F4E5B0"/>
<path d="M51.4073 161.504C52.3623 164.39 53.3796 167.151 57.3449 165.303C57.8224 165.366 58.2999 165.428 58.7774 165.49C63.5731 165.324 68.3689 165.781 73.1646 165.926C89.1712 166.383 97.6208 179.941 90.6867 194.142C86.41 202.904 84.4793 210.939 93.4064 216.981C93.7386 214.655 95.1918 211.686 98.6173 210.025C100.091 209.465 101.586 209.423 103.102 209.839C104.534 210.378 105.634 211.333 106.486 212.6C107.96 215.382 107.503 219.908 112.652 219.41C114.167 219.742 115.434 220.427 116.389 221.694C117.302 224.455 115.309 226.884 115.537 229.584C118.153 240.505 115.89 251.446 115.62 262.367C115.475 268.139 115.413 275.032 107.503 275.676C100.465 276.257 97.2471 271.295 96.0638 264.921C95.2541 261.599 92.8251 260.665 89.794 261.059C81.1575 262.16 76.1126 259.149 74.784 249.91C73.9535 244.013 69.6353 240.484 63.0333 239.072C61.1649 244.885 57.2826 250.491 65.317 254.81C66.189 255.391 66.9156 256.097 67.5592 256.907C69.9052 263.572 72.8947 270.589 63.1164 273.87C57.6356 275.717 54.0024 274.16 50.5561 268.451C42.7916 255.599 41.4629 240.006 32.3282 227.923C30.7711 224.206 26.3075 223.729 24.1692 220.656C23.6917 219.867 23.401 218.995 23.2972 218.081C23.5879 215.008 21.9478 211.728 24.1484 208.821C24.9788 208.323 25.8508 208.219 26.785 208.489C33.7814 208.302 41.9404 210.711 44.4317 200.662C44.7639 200.06 45.096 199.603 45.4905 199.25C42.4179 200.122 43.7673 203.423 42.148 205.001C37.4561 207.7 32.7226 210.15 27.0549 208.178C24.9788 207.223 23.2349 205.977 22.4253 203.714C21.7401 201.617 21.8024 199.52 22.4875 197.443C24.356 193.561 27.5116 190.55 30.0029 186.979C29.4216 184.01 26.2245 183.491 24.7297 181.394C22.1554 177.823 18.9167 174.48 19.934 169.477C24.9996 166.404 29.4216 162.604 32.8056 157.684C34.8817 158.348 36.9578 159.012 39.0546 159.656C40.5702 160.445 40.8401 163.082 43.3106 162.5C46.0095 161.919 48.4178 159.178 51.4281 161.504H51.4073Z" fill="#EFD998"/>
<path d="M11.9847 173.898C11.9847 173.171 11.9847 172.444 11.9847 171.739C12.4622 167.711 8.10244 163.517 12.3999 159.634C19.0641 157.413 25.936 157.579 32.8078 157.662C34.178 167.316 29.7352 171.033 20.4136 169.766C18.379 172.735 17.6939 178.445 11.964 173.898H11.9847Z" fill="#F0D899"/>
<path d="M134.638 179.962C135.22 180.253 135.843 180.357 136.465 180.232C140.368 182.723 145.206 179.505 149.046 182.308C150.686 184.447 150.894 188.786 155.441 186.44C160.07 186.897 156.188 189.762 156.832 191.34C162.582 191.381 168.52 190.094 173.876 193.437C175.06 194.537 175.475 195.928 175.33 197.506C175.08 198.482 174.582 199.333 173.876 200.039C172.195 201.721 169.143 201.243 167.627 204.482C169.454 209.798 176.804 213.867 173.876 221.383C172.693 224.393 170.492 225.556 167.357 225.099C153.261 224.31 141.406 214.677 126.998 215.009C122.431 215.113 120.916 209.507 116.66 208.697C115.808 208.178 115.123 207.472 114.625 206.6C115.372 201.036 119.981 197.451 128.452 195.845C119.047 192.544 119.13 188.765 128.825 178.675C131.026 177.99 132.998 178.218 134.659 179.962H134.638Z" fill="#FAEEBB"/>
<path d="M174.003 194.703C164.889 194.184 155.671 195.7 146.516 193.769C147.305 187.789 156.315 193.644 155.443 186.44C157.394 182.329 160.861 184.924 163.664 184.571C168.314 186.689 173.567 183.844 178.197 186.336C180.065 188.786 182.536 186.336 184.612 187.125C186.75 187.935 188.016 189.513 187.103 191.651C186.169 193.81 184.28 194.163 182.307 192.627C180.875 193.312 179.442 193.977 178.01 194.662C176.702 195.949 175.373 195.887 174.024 194.703H174.003Z" fill="#F4ECC5"/>
<path d="M182.285 192.647C183.344 192.128 184.403 191.629 184.901 191.38C185.877 184.197 176.16 194.993 178.195 186.335C184.548 182.349 191.357 181.29 198.458 183.013C201.738 184.757 199.392 191.235 205.143 190.508C206.928 193.145 210.146 192.086 212.471 194.121C202.402 193.623 192.25 196.903 182.285 192.647Z" fill="#EBDFAD"/>
<path d="M127.852 174.502C127.229 172.571 126.627 170.64 125.734 167.816C133.478 168.045 138.066 171.429 140.558 177.969C139.229 178.011 137.921 178.052 136.592 178.115C133.603 177.118 129.575 178.613 127.852 174.502Z" fill="#C9BE9D"/>
<path d="M178.197 186.337C173.339 185.901 168.19 187.77 163.664 184.572C168.667 183.908 173.775 182.206 178.197 186.337Z" fill="#EBDFAD"/>
<path d="M149.046 182.329C144.79 181.976 140.368 182.745 136.465 180.253C140.845 179.776 145.247 179.215 149.046 182.329Z" fill="#6F6542"/>
<path d="M167.754 223.75C174.792 220.261 172.841 215.486 168.502 211.957C164.08 208.365 163.146 204.357 163.976 198.855H173.983C177.616 204.337 182.536 208.655 187.083 213.306C190.674 217.604 192.771 215.258 195.865 212.164C199.228 208.821 198.356 201.762 204.875 201.43C208.819 202.821 209.027 206.849 211.269 209.237L215.463 213.41C221.089 216.711 230.722 213.617 232.092 223.77C230.701 223.77 229.31 223.77 227.94 223.77C226.819 224.829 225.511 225.411 223.954 225.431C215.691 224.871 210.314 230.767 204.397 234.857C201.574 236.809 203.816 240.484 206.785 242.415C207.511 243.1 208.03 243.91 208.425 244.823C208.778 246.318 208.57 247.709 207.698 248.976C202.508 249.952 199.415 253.46 197.069 257.862C189.533 260.686 188.536 255.059 186.937 250.097C184.882 243.702 181.747 239.612 174.792 244.055C172.488 248.976 178.197 253.855 173.754 258.132C167.734 261.018 162.855 259.066 159.658 253.813C156.295 248.291 155.319 242.228 159.554 236.477C161.941 233.238 165.658 230.829 165.741 226.199C165.99 225.722 166.26 225.244 166.53 224.767C166.945 224.414 167.36 224.061 167.775 223.708L167.754 223.75Z" fill="#F8E7AE"/>
<path d="M223.808 223.727C225.179 223.727 226.57 223.768 227.94 223.768C229.455 227.173 231.054 230.537 232.507 233.962C234.313 238.239 237.241 240.565 242.099 240.087C252.832 239.028 254.181 247.25 257.462 254.123C252.147 258.192 246.562 261.244 242.742 256.469C233.047 244.385 222.48 248.122 211.352 252.815C208.342 250.842 210.086 246.524 207.221 244.51C202.612 235.063 203.068 232.488 212.888 230.225C217.767 229.104 217.02 220.135 223.829 223.727H223.808Z" fill="#FBF0C8"/>
<path d="M269.481 203.006C272.242 203.006 275.003 202.986 277.765 202.965C281.19 202.965 284.595 202.965 288.747 202.965C288.892 211 300.851 213.388 296.138 223.167C286.754 226.634 279.01 219.284 270.312 217.685C264.125 216.543 268.858 208.176 269.481 203.006Z" fill="#FCF2C5"/>
<path d="M278.366 233.174C284.387 233.133 288.58 225.741 294.892 230.475C301.597 235.5 297.196 242.455 298.815 249.473C291.508 248.954 285.528 248.538 279.84 248.144C276.705 243.431 277.888 238.988 278.366 233.174Z" fill="#FCE7B5"/>
<path d="M232.11 223.769C227.439 218.911 219.653 219.056 215.48 213.409C218.615 213.409 221.626 212.931 224.636 210.087C226.567 207.014 219.736 198.626 230.013 198.834C228.705 201.782 228.456 204.71 230.075 208.011C237.175 210.606 244.795 212.516 251.812 217.458C248.947 220.634 249.092 225.7 244.608 227.984C242.49 226.801 242.179 224.226 240.29 222.441C237.632 223.313 238.608 227.05 236.179 228.046C234.83 226.635 233.459 225.202 232.11 223.79V223.769Z" fill="#ECD995"/>
<path d="M236.179 228.023C235.12 222.812 233.418 217.393 240.809 214.029C242.677 218.701 246.123 222.521 244.629 227.961C242.677 232.072 239.729 232.051 236.262 229.996C236.262 229.331 236.221 228.687 236.179 228.023Z" fill="#E6CF84"/>
<path d="M184.361 215.443C181.537 212.702 178.963 209.63 175.849 207.304C172.527 204.813 171.946 202.259 173.98 198.854C177.655 195.553 182.534 199.664 186.292 196.861C189.883 197.11 193.745 195.802 196.817 198.833C202.257 203.92 197.502 207.263 194.824 211.041C192.208 214.716 190.091 219.284 184.361 215.443Z" fill="#EFD695"/>
<path d="M184.363 215.445C192.273 212.725 194.495 205.749 196.82 198.814C200.162 198.814 203.505 198.814 206.328 198.814C209.92 201.97 210.563 205.624 211.29 209.216C209.069 207.182 206.847 205.168 204.211 202.759C202.363 209.569 199.353 215.487 193.892 218.954C190.633 221.03 186.522 219.473 184.384 215.445H184.363Z" fill="#F2DEA1"/>
<path d="M186.292 196.84C182.638 200.224 178.112 198.335 173.98 198.833C173.98 197.463 173.98 196.072 173.98 194.702C175.309 194.702 176.638 194.681 177.967 194.66C180.25 197.255 183.385 196.591 186.271 196.84H186.292Z" fill="#F8E7AE"/>
<path d="M84.5247 358.268C86.58 362.877 90.1301 363.915 95.0712 364.434C100.282 364.995 106.926 363.002 110.746 369.251C108.15 374.961 103.106 373.217 99.1195 373.092C92.8083 372.884 90.317 375.501 90.9398 381.563C88.5938 384.241 84.9399 385.28 82.8431 383.037C79.21 379.113 74.0405 380.068 70.1582 377.556C68.9126 376.912 67.6669 376.248 66.4213 375.604C66.0684 375.314 65.6947 375.002 65.3417 374.712C64.0753 369.106 69.3486 369.355 71.9437 367.196C73.044 365.14 72.8779 362.628 74.3104 360.738C74.8917 359.97 75.5768 359.306 76.3865 358.725C79.0439 357.396 81.7012 356.129 84.5455 358.268H84.5247Z" fill="#F3EABF"/>
<path d="M95.0677 385.715C101.566 387.064 107.254 391.134 114.728 391.321C110.472 394.103 106.05 396.345 107.566 402.179C106.216 403.384 104.825 403.55 103.434 402.242C102.023 400.892 100.632 399.522 99.2199 398.172C97.5382 396.158 94.2995 395.951 93.3238 393.127C92.5349 390.345 92.5972 387.75 95.0677 385.715Z" fill="#F3EABF"/>
<path d="M95.0704 385.716C95.0912 388.457 95.1327 391.177 95.1535 393.917C93.7833 395.08 92.3923 395.246 90.9806 393.959C89.5896 392.589 88.1986 391.218 86.7869 389.848C83.8388 388.021 80.4964 386.713 78.5241 383.599C76.3235 380.775 71.6107 381.419 70.1367 377.577C77.8805 374.733 83.4236 383.163 90.9183 381.585C92.3093 382.955 93.6795 384.346 95.0704 385.716Z" fill="#FCE7AD"/>
<path d="M161.151 366.193C158.342 369.972 155.027 371.716 151.207 371.425C151.685 365.404 155.006 364.573 161.151 366.193Z" fill="#7A7255"/>
<path d="M182.452 352.603C180.688 354.637 178.155 354.471 175.809 354.886C171.823 354.658 167.837 354.43 163.643 354.181C162.667 351.461 168.003 347.101 161.671 345.896C160.321 346.104 159.18 345.626 158.1 344.879C156.834 343.862 155.505 342.99 153.761 342.969C152.453 342.886 151.187 342.657 149.92 342.284C144.003 336.636 146.495 327.584 141.471 321.563C141.118 319.092 141.99 316.891 142.965 314.732C145.187 310.061 140.827 305.867 141.969 301.278C142.405 300.385 143.111 299.762 144.045 299.389C151.124 299.555 156.086 304.517 158.764 309.479C164.349 319.757 170.162 329.764 177.096 339.149C177.885 340.228 177.781 341.785 177.761 343.176C176.556 347.682 181.622 349.115 182.432 352.644L182.452 352.603Z" fill="#F0E1B3"/>
<path d="M140.764 354.149C140.619 353.049 139.456 351.948 141.179 350.578C142.342 351.097 143.691 351.72 145.041 352.322C145.165 353.859 145.29 355.395 145.415 356.931C142.674 357.617 142.467 354.689 140.743 354.149H140.764Z" fill="#5C5843"/>
<path d="M182.452 352.599C179.192 350.626 170.784 352.557 176.037 344.148C179.109 336.882 183.262 336.196 188.493 342.093C188.493 346.785 188.493 351.477 188.493 356.19C185.109 357.312 184.466 353.803 182.452 352.619V352.599Z" fill="#F5E8C3"/>
<path d="M188.515 342.094C185.983 341.471 183.45 340.848 182.121 340.516C178.031 339.997 180.813 346.89 176.059 344.149C174.585 338.606 172.53 333.706 165.284 334.806C167.236 326.315 154.738 307.255 143.008 300.507C137.174 299.78 138.046 292.97 133.271 291.143C136.24 285.371 136.593 279.329 140.973 275.156C141.243 275.156 141.596 275.073 141.907 275.156C142.198 275.239 142.447 275.509 142.717 275.696C140.454 267.225 145.001 257.944 139.624 249.847C136.219 247.335 131.361 248.435 128.33 245.155C126.399 239.985 132.295 240.089 133.707 237.182C137.008 234.047 140.433 230.413 145.395 233.507C150.731 236.808 153.7 242.123 153.72 248.29C153.762 257.612 152.661 266.872 149.381 274.824C151.125 273.101 150.502 269.094 153.305 266.934C162.917 268.969 173.256 281.302 172.924 291.039C172.758 296.022 172.862 300.611 176.017 304.701C180.896 310.639 187.228 311.698 193.851 309.684C198.813 314.086 194.308 318.383 196.135 321.851C188.619 325.463 180.481 320.169 174.689 326.688C176.599 334.516 187.706 333.706 188.495 342.032L188.515 342.094Z" fill="#F6E7B6"/>
<path d="M176.036 304.742C169.517 306.486 166.652 304.306 168.437 297.475C170.534 289.398 172.008 282.048 161.607 277.854C158.887 276.754 157.704 271.813 155.233 267.66C151.974 273.245 147.884 277.522 149.296 284.332C143.545 268.034 159.282 248.974 142.839 234.586C138.396 234.814 138.957 238.946 136.611 240.316C134.161 238.261 133.953 235.603 134.597 232.738C136.279 228.315 139.642 225.803 144.043 224.474C145.04 224.288 146.078 224.267 147.095 224.391C153.842 226.821 161.171 220.966 167.752 225.824C171.738 234.087 163.994 236.267 159.801 240.773C160.257 249.701 161.461 258.089 173.98 256.947C180.022 253.915 183.842 257.715 186.893 261.805C190.174 266.207 190.983 271.19 186.437 275.654C185.233 276.754 184.049 277.834 181.163 280.45C196.713 281.945 196.091 292.056 195.405 302.915C188.97 303.101 182.015 300.298 176.015 304.742H176.036Z" fill="#EEDEA2"/>
<path d="M186.456 275.655C187.993 265.627 183.259 259.772 174 256.948C173.605 255.661 173.439 254.228 172.775 253.087C170.761 249.661 166.879 246.422 170.45 242.186C173.086 239.072 176.678 236.56 181.204 237.93C186.041 239.404 189.757 242.311 190.401 247.792C190.899 252.069 189.861 257.281 196.837 256.948C207.84 260.623 212.075 269.946 207.217 279.766C199.619 281.905 192.519 281.427 186.498 275.634L186.456 275.655Z" fill="#F9EABA"/>
<path d="M207.177 279.787C208.61 269.966 202.091 263.738 196.797 256.969C196.797 253.564 196.797 250.18 196.797 246.027C200.762 247.045 203.98 247.854 207.177 248.685C208.298 250.034 208.444 251.405 207.219 252.796C203.856 257.634 208.693 260.125 210.271 263.572C213.53 270.735 217.246 277.96 209.938 284.915C206.513 284.168 207.592 281.614 207.177 279.808V279.787Z" fill="#EADBA1"/>
<path d="M207.217 252.792C207.217 251.422 207.197 250.051 207.176 248.681C207.176 247.29 207.176 245.899 207.176 244.508C212.241 245.442 211.1 249.47 211.307 252.813C209.937 252.813 208.567 252.813 207.197 252.792H207.217Z" fill="#F9ECBD"/>
<path d="M136.611 232.033C136.611 234.794 136.611 237.555 136.611 240.317C133.87 241.729 131.109 243.14 128.369 244.552C133.621 250.075 128.036 254.684 126.604 259.439C132.168 264.546 141.427 265.854 140.763 275.654C141.323 281.343 140.763 286.679 135.718 290.043C137.337 293.365 139.704 291.018 141.718 292.098C139.725 295.192 140.597 297.995 142.984 300.507L142.631 300.714C142.008 301.42 141.282 301.981 140.431 302.396C135.531 303.019 130.673 306.113 125.649 302.811C122.161 293.365 115.767 298.908 110.473 300.112C107.442 300.797 106.217 304.41 103.58 306.009C101.131 307.068 98.7845 306.86 96.5424 305.407C95.359 304.576 94.404 303.497 93.5321 302.355C92.3487 300.361 90.7501 298.617 89.7328 296.52C89.2761 295.088 89.3592 293.676 89.9612 292.306C90.501 291.496 91.1861 290.832 91.9958 290.312C101.982 285.932 102.21 285.246 97.1029 275.467C95.5459 272.893 92.3279 271.543 91.8089 268.201C92.4525 263.903 92.2034 258.65 99.262 261.121C99.2205 268.408 100.757 274.18 111.137 272.54C111.802 256.844 113.442 241.376 111.739 225.804C117.22 224.06 121.559 226.884 125.753 229.52C129.448 228.648 129.656 223.478 133.974 223.562C137.628 225.389 138.022 228.399 136.652 232.012L136.611 232.033Z" fill="#EDDDA3"/>
<path d="M7.99734 229.977C8.0181 227.901 8.03886 225.825 8.05962 223.769C9.4506 222.295 11.0077 220.904 11.236 218.724C12.0457 210.98 16.5508 210.191 22.7583 212.557C23.8586 214.073 25.7063 215.319 24.5437 217.623C24.4606 218.288 24.4606 218.952 24.5437 219.637C31.4778 222.253 32.3705 229.147 33.7615 234.669C37.2701 248.539 43.8927 262.325 36.3566 277.211C33.7615 282.34 31.9345 287.551 25.5195 288.091C18.8552 288.631 18.7099 282.838 16.9452 278.478C15.6996 275.343 14.1425 272.249 12.1703 269.446C12.0664 267.453 11.9627 265.439 11.8589 263.446C9.57516 256.075 10.0319 248.497 9.92808 240.94C9.88656 237.223 10.717 233.278 7.97656 230.019L7.99734 229.977Z" fill="#FBEEC2"/>
<path d="M99.2417 261.121C94.2799 261.723 95.0688 266.644 93.0135 269.426C94.7989 277.274 92.5567 281.281 83.9825 282.693C72.5849 284.562 61.2287 284.354 51.3881 276.755C36.0251 264.9 37.5614 246.048 32.2259 230.061C31.4785 227.818 32.7242 225.347 34.8625 223.77C43.2499 238.781 46.7169 255.847 56.1631 271.627C58.6544 271.274 62.4121 270.755 66.066 270.256C68.7441 265.523 64.8826 261.287 66.0037 256.989C67.5608 255.972 69.1593 257.072 70.9448 256.885C68.4535 250.657 66.2528 254.809 64.0107 256.927C56.5575 253.896 55.125 243.826 60.855 232.78C73.1869 236.518 79.9134 244.677 79.6228 256.989C86.8475 259.938 94.6743 252.172 99.2417 261.121Z" fill="#ECDCA1"/>
<path d="M34.8629 223.767C33.9702 236.64 40.3645 248.121 42.15 260.558C42.9389 265.977 51.5338 269.07 53.5684 275.631C54.1289 276.13 54.3573 276.669 54.2743 277.272C54.1912 277.874 54.0874 278.185 53.9421 278.185C50.9733 281.299 46.6551 279.161 42.7105 281.216C40.0739 286.448 37.2089 292.262 31.8319 296.207C25.2922 300.401 23.4653 294.027 20.1435 290.995L19.9567 290.186C16.6557 283.521 11.1126 277.708 12.1714 269.403C20.3511 271.396 19.9152 278.891 21.4099 284.476C26.1019 287.092 29.8181 284.476 30.4616 281.59C32.7661 271.437 40.0324 262.51 34.593 250.343C30.2748 240.688 30.2748 229.124 24.5241 219.594C27.9703 220.985 31.4166 222.355 34.8422 223.746L34.8629 223.767Z" fill="#F6E9B5"/>
<path d="M58.3438 166.049C70.5719 166.527 82.9453 163.765 95.0488 167.586C95.0903 168.042 95.1319 168.52 95.1941 168.977C94.8412 172.236 94.5921 175.455 97.3118 177.988C100.198 184.403 98.6197 190.673 96.2322 196.694C93.9485 202.425 94.9035 207.138 99.2632 211.311C94.2599 215.505 96.4398 220.488 98.4744 225.679C86.1424 220.197 80.4747 207.304 86.6199 196.985C92.3499 187.351 91.4987 179.254 80.973 169.849C76.198 168.416 66.8349 169.579 58.3645 166.049H58.3438Z" fill="#F4DFA2"/>
<path d="M11.9853 173.9C14.6842 174.004 16.9679 174.108 17.0925 170.122C17.1755 167.734 19.1063 168.419 20.4142 169.769C23.7982 172.447 24.9193 176.454 26.5801 180.15C31.1475 186.358 28.1995 191.59 24.4833 196.76C24.4418 199.064 24.3795 201.369 24.338 203.674C23.5283 204.068 22.6563 204.193 21.7636 204.11C18.2551 203.424 15.1409 201.805 12.1306 199.936C10.3452 199.397 9.18261 198.047 7.95772 196.781C8.24837 188.974 6.40067 180.794 11.9853 173.921V173.9Z" fill="#F6E2AC"/>
<path d="M99.2627 211.311C90.7093 209.858 88.2803 205.581 92.4325 197.006C95.4428 190.777 95.8372 184.611 95.0898 178.071C94.1971 176.618 95.0483 175.704 96.0448 174.853C98.0379 174.375 98.7022 171.78 100.965 171.697C105.699 171.697 112.259 166.34 113.754 175.995C115.685 181.87 119.401 187.622 115.166 193.975C111.429 197.712 109.456 191.38 105.366 192.708C99.6364 197.878 105.512 205.187 103.373 211.332H99.242L99.2627 211.311Z" fill="#F8E7B0"/>
<path d="M136.612 232.032C135.636 229.935 134.64 227.859 133.623 225.7C129.221 228.586 131.65 233.735 128.391 237.555C123.014 233.403 119.069 226.925 111.699 225.804C113.069 224.412 114.44 223.021 115.81 221.63C115.229 219.762 116.35 219.056 117.844 218.578C121.145 219.139 123.574 217.291 126.273 215.838C135.512 210.896 142.446 214.696 144.896 225.804C142.135 227.88 139.353 229.956 136.591 232.032H136.612Z" fill="#F7E5AA"/>
<path d="M103.375 211.333C96.005 201.222 97.4167 192.71 107.693 185.65C111.887 187.187 110.683 192.377 113.755 194.703C118.261 199.644 112.925 204.689 113.922 209.652C113.672 210.711 113.216 211.666 112.551 212.538C110.392 214.552 108.088 215.527 105.43 213.389C104.745 212.704 104.06 212.019 103.375 211.333Z" fill="#F9ECBA"/>
<path d="M117.863 219.47C117.863 218.827 117.884 218.162 117.946 217.519C119.607 214.072 119.545 210.605 117.988 207.137L118.05 206.992C124.258 203.213 122.908 210.895 126.209 212.266C133.558 210.812 141.115 211.892 147.468 216.294C151.226 218.91 154.797 219.74 159.011 219.595C162.644 219.47 165.945 220.072 167.793 223.726C161.066 226.259 153.904 224.64 147.032 225.803C146.347 225.803 145.662 225.803 144.956 225.803C142.942 223.519 140.991 221.152 138.894 218.951C135.344 215.235 131.918 214.114 127.621 218.494C125.13 221.048 121.849 226.841 117.905 219.47H117.863Z" fill="#F8E7AE"/>
<path d="M223.807 223.728C219.136 224.04 220.236 229.189 217.828 231.223C214.589 231.867 211.599 232.448 208.963 232.967C206.305 236.891 207.551 240.815 207.198 244.511C202.008 244.74 198.894 241.729 199.496 237.099C200.451 229.811 205.932 227.154 212.285 227.59C216.478 225.306 210.416 222.212 213.945 220.136C217.911 219.119 221.046 220.904 223.828 223.728H223.807Z" fill="#F9ECBD"/>
<path d="M146.992 225.826C153.573 221.653 160.86 224.643 167.753 223.75C167.753 224.435 167.753 225.141 167.753 225.826C162.584 228.775 155.421 224.311 151.248 231.162C149.504 228.982 148.238 227.404 146.992 225.826Z" fill="#F7E5AA"/>
<path d="M132.396 335.61C130.818 334.427 129.22 333.264 127.621 332.081C129.033 328.779 131.856 329.132 134.555 329.215C140.223 325.644 132.521 323.776 133.476 320.786C136.714 315.242 139.787 316.218 142.735 321.035C149.275 325.644 149.607 333.056 151.309 339.846C151.558 342.981 150.52 344.704 147.032 343.77C145.849 342.981 144.645 342.192 143.462 341.403C141.531 339.493 138.562 339.41 136.631 337.52C135.22 336.877 133.787 336.254 132.375 335.61H132.396Z" fill="#BEB08D"/>
<path d="M142.736 321.374C139.663 320.087 136.3 317.242 134.411 322.806C130.861 326.461 128.12 324.301 125.421 321.581C124.114 318.197 125.359 315.643 128.037 313.546C130.84 311.906 133.954 312.114 137.027 312.072C140.12 312.238 143.276 312.176 145.103 315.415C144.314 317.408 143.525 319.381 142.736 321.374Z" fill="#D4C6A4"/>
<path d="M157.517 344.047C156.79 342.593 156.043 341.161 155.316 339.707C161.026 337.091 158.763 341.991 159.469 344.109L158.493 344.233L157.517 344.047Z" fill="#BAAC8A"/>
<path d="M140.764 275.655C136.217 267.557 127.789 264.505 118.695 261.246C124.052 255.37 129.865 251.82 128.37 244.553C133.166 244.553 137.941 244.553 142.695 244.553C149.006 257.01 144.252 269.198 144.875 282.88C142.944 279.475 141.844 277.565 140.764 275.655Z" fill="#FAF0C5"/>
<path d="M53.568 277.752C53.568 277.046 53.568 276.361 53.5887 275.655C61.7477 279.974 70.8409 279.787 79.5397 280.057C85.851 280.264 93.1588 278.811 93.0135 269.447C95.8992 269.551 97.9753 270.921 99.2832 273.496C100.093 281.22 98.0791 287.697 91.1035 291.995L90.8751 292.39C89.1104 293.988 87.4288 295.732 85.1451 296.646C82.8407 297.31 80.5985 298.12 78.4394 299.22C70.3842 301.463 64.239 308.833 55.0212 307.899C52.8413 306.965 52.1355 305.304 52.5507 303.041C54.4607 298.598 59.9831 298.681 62.9726 294.757C61.0626 288.569 51.0352 286.431 53.5264 277.752H53.568Z" fill="#F2E4AE"/>
<path d="M53.569 277.754C56.9737 283.339 61.2297 288.156 66.6067 292.038C64.8006 299.014 60.4823 302.44 53.569 302.689C50.1434 304.786 46.6764 305.887 43.1678 302.876C41.3409 296.73 36.7942 294.509 30.8151 294.405C27.5765 287.844 38.3928 291.498 37.0642 285.602C36.1299 281.429 39.1817 278.044 42.5242 274.826C46.0536 275.802 49.396 278.667 53.5897 277.733L53.569 277.754Z" fill="#F8EAC2"/>
<defs>
<linearGradient id="paint0_linear_163_197" x1="226.5" y1="0" x2="226.5" y2="451.248" gradientUnits="userSpaceOnUse">
<stop stop-color="#FAECB2"/>
<stop offset="1" stop-color="#F8EECE"/>
</linearGradient>
</defs>
</svg>
