<svg width="305" height="97" viewBox="0 0 305 97" fill="none" xmlns="http://www.w3.org/2000/svg">
<path d="M146.458 86.254H141.8V90.827H140.95V86.254H136.309V85.421H140.95V80.967H141.8V85.421H146.458V86.254ZM156.896 83.857C156.896 83.7323 156.896 83.6077 156.896 83.483C156.896 83.347 156.89 83.2167 156.879 83.092C156.856 82.6273 156.754 82.1627 156.573 81.698C156.392 81.222 156.125 80.8253 155.774 80.508C155.423 80.1793 154.981 80.015 154.448 80.015C153.847 80.015 153.371 80.1793 153.02 80.508C152.669 80.8367 152.414 81.2503 152.255 81.749C152.108 82.2477 152.034 82.752 152.034 83.262C152.034 83.6473 152.057 84.044 152.102 84.452C152.147 84.8487 152.244 85.2227 152.391 85.574C152.538 85.914 152.759 86.1917 153.054 86.407C153.349 86.611 153.74 86.713 154.227 86.713C154.476 86.713 154.76 86.6677 155.077 86.577C155.406 86.4863 155.712 86.356 155.995 86.186C156.278 86.016 156.488 85.8177 156.624 85.591C156.783 85.3303 156.868 85.0527 156.879 84.758C156.89 84.452 156.896 84.1517 156.896 83.857ZM158.545 84.656C158.545 85.0413 158.494 85.455 158.392 85.897C158.301 86.3277 158.188 86.7243 158.052 87.087C157.474 88.6397 156.618 89.8807 155.485 90.81C154.352 91.7393 152.992 92.4193 151.405 92.85C151.394 92.85 151.382 92.85 151.371 92.85C151.371 92.85 151.365 92.85 151.354 92.85C151.252 92.85 151.201 92.8047 151.201 92.714C151.201 92.6573 151.224 92.6177 151.269 92.595C151.314 92.5723 151.36 92.5553 151.405 92.544C151.926 92.3173 152.442 92.0737 152.952 91.813C153.462 91.5523 153.915 91.218 154.312 90.81C154.675 90.4473 155.02 90.0223 155.349 89.535C155.689 89.0477 155.978 88.5377 156.216 88.005C156.454 87.461 156.596 86.934 156.641 86.424C156.244 86.6847 155.819 86.9 155.366 87.07C154.913 87.24 154.442 87.325 153.955 87.325C153.218 87.325 152.578 87.1777 152.034 86.883C151.49 86.577 151.065 86.152 150.759 85.608C150.464 85.0527 150.317 84.4067 150.317 83.67C150.317 82.7747 150.504 82.021 150.878 81.409C151.252 80.797 151.768 80.3323 152.425 80.015C153.094 79.6977 153.853 79.539 154.703 79.539C155.315 79.539 155.876 79.692 156.386 79.998C156.896 80.304 157.327 80.7063 157.678 81.205C158.029 81.6923 158.267 82.2193 158.392 82.786C158.46 83.092 158.5 83.4037 158.511 83.721C158.534 84.027 158.545 84.3387 158.545 84.656ZM169.422 91.745C169.422 91.9263 169.337 92.017 169.167 92.017C169.088 92.017 169.003 92.0113 168.912 92C168.822 91.9887 168.731 91.983 168.64 91.983C168.538 91.983 168.431 91.983 168.317 91.983C168.215 91.9717 168.108 91.966 167.994 91.966C167.745 91.9547 167.49 91.9547 167.229 91.966C166.98 91.966 166.731 91.966 166.481 91.966C166.141 91.966 165.807 91.966 165.478 91.966C165.15 91.966 164.815 91.9717 164.475 91.983C164.396 91.9943 164.294 92 164.169 92C164.056 92 163.965 92 163.897 92C163.761 92 163.693 91.915 163.693 91.745C163.693 91.6883 163.699 91.6373 163.71 91.592C163.733 91.5353 163.778 91.507 163.846 91.507C163.914 91.507 163.977 91.5127 164.033 91.524C164.101 91.524 164.169 91.524 164.237 91.524C164.351 91.524 164.515 91.524 164.73 91.524C164.957 91.5127 165.167 91.4787 165.359 91.422C165.552 91.354 165.648 91.2407 165.648 91.082C165.648 90.164 165.654 89.246 165.665 88.328C165.677 87.3987 165.682 86.475 165.682 85.557C165.682 84.775 165.682 83.993 165.682 83.211C165.682 82.429 165.682 81.6413 165.682 80.848C165.682 80.7007 165.609 80.627 165.461 80.627C165.393 80.627 165.252 80.6667 165.036 80.746C164.832 80.8253 164.6 80.916 164.339 81.018C164.079 81.12 163.841 81.2107 163.625 81.29C163.421 81.3693 163.291 81.409 163.234 81.409C163.132 81.409 163.059 81.3637 163.013 81.273C162.979 81.1823 162.962 81.0973 162.962 81.018C162.962 80.95 162.996 80.8933 163.064 80.848C163.132 80.7913 163.195 80.7573 163.251 80.746C163.569 80.6667 163.869 80.576 164.152 80.474C164.436 80.3607 164.73 80.253 165.036 80.151C165.274 80.0717 165.524 79.9867 165.784 79.896C166.045 79.794 166.289 79.6977 166.515 79.607C166.561 79.5843 166.64 79.556 166.753 79.522C166.867 79.488 166.98 79.454 167.093 79.42C167.218 79.386 167.292 79.369 167.314 79.369C167.382 79.369 167.433 79.3803 167.467 79.403C167.501 79.4143 167.518 79.471 167.518 79.573C167.518 79.8223 167.513 80.0717 167.501 80.321C167.501 80.559 167.496 80.8027 167.484 81.052C167.473 81.7433 167.462 82.4743 167.45 83.245C167.45 84.0157 167.445 84.775 167.433 85.523C167.433 86.3503 167.433 87.172 167.433 87.988C167.433 88.804 167.433 89.6257 167.433 90.453C167.433 90.555 167.433 90.6627 167.433 90.776C167.445 90.878 167.45 90.98 167.45 91.082C167.462 91.2407 167.552 91.354 167.722 91.422C167.904 91.4787 168.096 91.507 168.3 91.507C168.516 91.507 168.669 91.507 168.759 91.507C168.85 91.507 168.935 91.5013 169.014 91.49C169.094 91.4787 169.173 91.473 169.252 91.473C169.32 91.473 169.366 91.507 169.388 91.575C169.411 91.6317 169.422 91.6883 169.422 91.745ZM178.549 87.036H174.078V86.033H178.549V87.036ZM189.01 88.668C189.01 88.158 188.903 87.733 188.687 87.393C188.483 87.0417 188.211 86.747 187.871 86.509C187.531 86.271 187.157 86.0727 186.749 85.914C186.341 85.744 185.939 85.5853 185.542 85.438C184.93 85.7893 184.443 86.237 184.08 86.781C183.718 87.3137 183.536 87.9427 183.536 88.668C183.536 89.6087 183.763 90.317 184.216 90.793C184.67 91.269 185.367 91.507 186.307 91.507C186.851 91.507 187.322 91.3823 187.718 91.133C188.126 90.8837 188.444 90.5437 188.67 90.113C188.897 89.6823 189.01 89.2007 189.01 88.668ZM188.687 82.14C188.687 81.3693 188.472 80.8027 188.041 80.44C187.622 80.066 187.044 79.879 186.307 79.879C185.616 79.879 185.078 80.0717 184.692 80.457C184.307 80.831 184.114 81.358 184.114 82.038C184.114 82.5707 184.245 83.007 184.505 83.347C184.766 83.687 185.1 83.9647 185.508 84.18C185.928 84.3953 186.353 84.5823 186.783 84.741C187.316 84.503 187.764 84.163 188.126 83.721C188.5 83.2677 188.687 82.7407 188.687 82.14ZM190.693 88.09C190.693 88.9627 190.478 89.6937 190.047 90.283C189.628 90.861 189.073 91.2973 188.381 91.592C187.69 91.8753 186.936 92.017 186.12 92.017C185.452 92.017 184.811 91.9037 184.199 91.677C183.599 91.439 183.106 91.0763 182.72 90.589C182.346 90.1017 182.159 89.484 182.159 88.736C182.159 88.1127 182.301 87.5913 182.584 87.172C182.879 86.7413 183.247 86.373 183.689 86.067C184.143 85.7497 184.607 85.4663 185.083 85.217C184.732 85.0697 184.375 84.877 184.012 84.639C183.65 84.401 183.344 84.112 183.094 83.772C182.845 83.432 182.72 83.0467 182.72 82.616C182.72 81.868 182.913 81.2617 183.298 80.797C183.684 80.321 184.177 79.9753 184.777 79.76C185.378 79.5447 186.007 79.437 186.664 79.437C187.174 79.437 187.684 79.5277 188.194 79.709C188.704 79.8903 189.129 80.168 189.469 80.542C189.809 80.916 189.979 81.392 189.979 81.97C189.979 82.4913 189.872 82.939 189.656 83.313C189.452 83.687 189.169 84.0043 188.806 84.265C188.444 84.5257 188.041 84.7523 187.599 84.945C188.064 85.081 188.534 85.2963 189.01 85.591C189.486 85.8743 189.883 86.2257 190.2 86.645C190.529 87.0643 190.693 87.546 190.693 88.09ZM202.302 87.597C202.302 88.1297 202.194 88.6963 201.979 89.297C201.763 89.8977 201.452 90.3793 201.044 90.742C200.59 91.1387 200.046 91.4447 199.412 91.66C198.777 91.8753 198.159 91.983 197.559 91.983C197.275 91.983 196.935 91.949 196.539 91.881C196.142 91.8017 195.751 91.6883 195.366 91.541C194.98 91.3823 194.657 91.1783 194.397 90.929C194.136 90.6683 194.006 90.3567 194.006 89.994C194.006 89.7447 194.091 89.552 194.261 89.416C194.431 89.2687 194.635 89.195 194.873 89.195C195.077 89.195 195.258 89.246 195.417 89.348C195.575 89.45 195.66 89.6143 195.672 89.841C195.717 90.3623 195.864 90.7647 196.114 91.048C196.374 91.3313 196.782 91.473 197.338 91.473C198.12 91.473 198.754 91.2917 199.242 90.929C199.729 90.555 200.092 89.994 200.33 89.246C200.409 88.9853 200.454 88.719 200.466 88.447C200.488 88.1637 200.5 87.886 200.5 87.614C200.5 87.24 200.454 86.8377 200.364 86.407C200.284 85.965 200.131 85.591 199.905 85.285C199.712 85.0243 199.463 84.8487 199.157 84.758C198.862 84.6673 198.556 84.622 198.239 84.622C197.989 84.622 197.717 84.6673 197.423 84.758C197.128 84.8373 196.884 84.9563 196.692 85.115C196.499 85.2737 196.323 85.4777 196.165 85.727C196.006 85.965 195.915 86.2143 195.893 86.475C195.881 86.543 195.87 86.628 195.859 86.73C195.847 86.832 195.791 86.883 195.689 86.883C195.632 86.883 195.513 86.8603 195.332 86.815C195.162 86.7583 194.997 86.696 194.839 86.628C194.691 86.5487 194.618 86.4807 194.618 86.424C194.618 86.39 194.623 86.356 194.635 86.322C194.646 86.288 194.657 86.254 194.669 86.22C194.748 85.9593 194.81 85.6363 194.856 85.251C194.912 84.8543 194.952 84.4407 194.975 84.01C194.997 83.568 195.014 83.143 195.026 82.735C195.037 82.327 195.043 81.9813 195.043 81.698C195.043 81.0293 195.009 80.355 194.941 79.675C195.292 79.7203 195.638 79.7543 195.978 79.777C196.329 79.7997 196.68 79.811 197.032 79.811H199.463C199.757 79.811 200.097 79.794 200.483 79.76C200.879 79.726 201.208 79.6353 201.469 79.488C201.525 79.454 201.588 79.42 201.656 79.386C201.735 79.3407 201.803 79.318 201.86 79.318C201.894 79.318 201.945 79.3237 202.013 79.335C202.081 79.335 202.115 79.3633 202.115 79.42C202.115 79.4767 202.075 79.5957 201.996 79.777C201.916 79.947 201.831 80.1227 201.741 80.304C201.65 80.4853 201.588 80.6043 201.554 80.661C201.508 80.7403 201.452 80.7913 201.384 80.814C201.316 80.8367 201.236 80.848 201.146 80.848C200.998 80.848 200.845 80.848 200.687 80.848C200.539 80.8367 200.386 80.8253 200.228 80.814C200.035 80.7913 199.837 80.7857 199.633 80.797C199.429 80.797 199.23 80.797 199.038 80.797C198.72 80.797 198.403 80.797 198.086 80.797C197.768 80.7857 197.445 80.78 197.117 80.78C196.924 80.78 196.726 80.78 196.522 80.78C196.329 80.78 196.136 80.7857 195.944 80.797C195.932 81.511 195.904 82.2307 195.859 82.956C195.825 83.67 195.791 84.384 195.757 85.098C196.278 84.7353 196.76 84.469 197.202 84.299C197.655 84.1177 198.199 84.027 198.834 84.027C199.264 84.027 199.678 84.0893 200.075 84.214C200.483 84.3387 200.845 84.5483 201.163 84.843C201.525 85.183 201.803 85.6023 201.996 86.101C202.2 86.5997 202.302 87.0983 202.302 87.597ZM212.261 85.846C212.261 85.5173 212.25 85.115 212.227 84.639C212.216 84.1517 212.176 83.6417 212.108 83.109C212.04 82.5763 211.921 82.0777 211.751 81.613C211.581 81.1483 211.349 80.7743 211.054 80.491C210.759 80.1963 210.374 80.049 209.898 80.049C209.467 80.049 209.105 80.202 208.81 80.508C208.515 80.8027 208.277 81.1937 208.096 81.681C207.915 82.157 207.773 82.667 207.671 83.211C207.58 83.7437 207.518 84.2593 207.484 84.758C207.45 85.2453 207.433 85.642 207.433 85.948C207.433 86.254 207.444 86.6393 207.467 87.104C207.501 87.5573 207.558 88.039 207.637 88.549C207.716 89.0477 207.841 89.518 208.011 89.96C208.192 90.402 208.425 90.7647 208.708 91.048C208.991 91.32 209.348 91.456 209.779 91.456C210.232 91.456 210.606 91.32 210.901 91.048C211.196 90.7647 211.434 90.402 211.615 89.96C211.796 89.5067 211.932 89.025 212.023 88.515C212.125 87.9937 212.187 87.5007 212.21 87.036C212.244 86.56 212.261 86.1633 212.261 85.846ZM214.029 85.625C214.029 86.1463 213.978 86.696 213.876 87.274C213.785 87.852 213.638 88.4187 213.434 88.974C213.23 89.5293 212.958 90.0337 212.618 90.487C212.289 90.9403 211.887 91.303 211.411 91.575C210.935 91.8357 210.38 91.966 209.745 91.966C208.986 91.966 208.345 91.779 207.824 91.405C207.314 91.0197 206.906 90.5267 206.6 89.926C206.294 89.3253 206.073 88.685 205.937 88.005C205.801 87.3137 205.733 86.662 205.733 86.05C205.733 85.5287 205.778 84.9733 205.869 84.384C205.96 83.7833 206.107 83.1997 206.311 82.633C206.515 82.0663 206.781 81.5507 207.11 81.086C207.45 80.6213 207.858 80.253 208.334 79.981C208.821 79.6977 209.388 79.556 210.034 79.556C210.646 79.556 211.173 79.6863 211.615 79.947C212.068 80.2077 212.448 80.5533 212.754 80.984C213.071 81.4147 213.321 81.8963 213.502 82.429C213.683 82.9617 213.814 83.5057 213.893 84.061C213.984 84.605 214.029 85.1263 214.029 85.625ZM224.039 83.857C224.039 83.7323 224.039 83.6077 224.039 83.483C224.039 83.347 224.034 83.2167 224.022 83.092C224 82.6273 223.898 82.1627 223.716 81.698C223.535 81.222 223.269 80.8253 222.917 80.508C222.566 80.1793 222.124 80.015 221.591 80.015C220.991 80.015 220.515 80.1793 220.163 80.508C219.812 80.8367 219.557 81.2503 219.398 81.749C219.251 82.2477 219.177 82.752 219.177 83.262C219.177 83.6473 219.2 84.044 219.245 84.452C219.291 84.8487 219.387 85.2227 219.534 85.574C219.682 85.914 219.903 86.1917 220.197 86.407C220.492 86.611 220.883 86.713 221.37 86.713C221.62 86.713 221.903 86.6677 222.22 86.577C222.549 86.4863 222.855 86.356 223.138 86.186C223.422 86.016 223.631 85.8177 223.767 85.591C223.926 85.3303 224.011 85.0527 224.022 84.758C224.034 84.452 224.039 84.1517 224.039 83.857ZM225.688 84.656C225.688 85.0413 225.637 85.455 225.535 85.897C225.445 86.3277 225.331 86.7243 225.195 87.087C224.617 88.6397 223.762 89.8807 222.628 90.81C221.495 91.7393 220.135 92.4193 218.548 92.85C218.537 92.85 218.526 92.85 218.514 92.85C218.514 92.85 218.509 92.85 218.497 92.85C218.395 92.85 218.344 92.8047 218.344 92.714C218.344 92.6573 218.367 92.6177 218.412 92.595C218.458 92.5723 218.503 92.5553 218.548 92.544C219.07 92.3173 219.585 92.0737 220.095 91.813C220.605 91.5523 221.059 91.218 221.455 90.81C221.818 90.4473 222.164 90.0223 222.492 89.535C222.832 89.0477 223.121 88.5377 223.359 88.005C223.597 87.461 223.739 86.934 223.784 86.424C223.388 86.6847 222.963 86.9 222.509 87.07C222.056 87.24 221.586 87.325 221.098 87.325C220.362 87.325 219.721 87.1777 219.177 86.883C218.633 86.577 218.208 86.152 217.902 85.608C217.608 85.0527 217.46 84.4067 217.46 83.67C217.46 82.7747 217.647 82.021 218.021 81.409C218.395 80.797 218.911 80.3323 219.568 80.015C220.237 79.6977 220.996 79.539 221.846 79.539C222.458 79.539 223.019 79.692 223.529 79.998C224.039 80.304 224.47 80.7063 224.821 81.205C225.173 81.6923 225.411 82.2193 225.535 82.786C225.603 83.092 225.643 83.4037 225.654 83.721C225.677 84.027 225.688 84.3387 225.688 84.656ZM234.101 83.126C234.101 82.8427 234.095 82.5593 234.084 82.276C234.084 81.9927 234.084 81.7093 234.084 81.426L229.715 87.733H234.084C234.084 86.9623 234.084 86.1917 234.084 85.421C234.095 84.6503 234.101 83.8853 234.101 83.126ZM237.977 87.172C237.977 87.1947 237.96 87.2627 237.926 87.376C237.903 87.478 237.886 87.5517 237.875 87.597C237.841 87.7217 237.801 87.8577 237.756 88.005C237.722 88.1523 237.693 88.2883 237.671 88.413C237.659 88.4923 237.625 88.5377 237.569 88.549C237.512 88.549 237.45 88.549 237.382 88.549H235.716C235.716 88.8663 235.716 89.1837 235.716 89.501C235.727 89.8183 235.733 90.1413 235.733 90.47V91.082C235.733 91.252 235.795 91.3653 235.92 91.422C236.056 91.4787 236.209 91.5127 236.379 91.524C236.549 91.524 236.685 91.524 236.787 91.524C236.866 91.524 236.945 91.5183 237.025 91.507C237.115 91.4957 237.2 91.49 237.28 91.49C237.359 91.49 237.404 91.524 237.416 91.592C237.427 91.6487 237.433 91.7053 237.433 91.762C237.433 91.8073 237.421 91.864 237.399 91.932C237.387 91.9887 237.353 92.017 237.297 92.017C237.251 92.017 237.2 92.017 237.144 92.017C237.098 92.017 237.047 92.0113 236.991 92C236.651 91.9773 236.305 91.9603 235.954 91.949C235.614 91.9377 235.279 91.932 234.951 91.932C234.656 91.932 234.356 91.9377 234.05 91.949C233.755 91.9603 233.46 91.9717 233.166 91.983C233.064 91.9943 232.962 92 232.86 92C232.758 92.0113 232.661 92.017 232.571 92.017C232.48 92.017 232.423 91.9943 232.401 91.949C232.378 91.8923 232.367 91.8243 232.367 91.745C232.367 91.6883 232.372 91.6373 232.384 91.592C232.406 91.5353 232.457 91.507 232.537 91.507C232.593 91.507 232.65 91.5127 232.707 91.524C232.775 91.524 232.837 91.524 232.894 91.524C233.018 91.524 233.171 91.524 233.353 91.524C233.545 91.524 233.71 91.4957 233.846 91.439C233.993 91.371 234.067 91.252 234.067 91.082V88.549H229.001C228.921 88.549 228.848 88.532 228.78 88.498C228.723 88.4527 228.695 88.3903 228.695 88.311C228.695 88.2203 228.717 88.141 228.763 88.073C228.774 88.0503 228.785 88.0277 228.797 88.005C228.808 87.9823 228.819 87.9653 228.831 87.954C229.771 86.594 230.718 85.2283 231.67 83.857C232.633 82.4857 233.568 81.1087 234.475 79.726C234.509 79.658 234.548 79.6013 234.594 79.556C234.628 79.4993 234.679 79.471 234.747 79.471H235.648C235.67 79.471 235.704 79.4767 235.75 79.488C235.795 79.488 235.812 79.505 235.801 79.539L235.733 79.726V87.733H236.77C236.917 87.733 237.064 87.7103 237.212 87.665C237.37 87.6083 237.495 87.5233 237.586 87.41C237.608 87.3873 237.631 87.3477 237.654 87.291C237.688 87.223 237.71 87.1777 237.722 87.155C237.756 87.0983 237.795 87.07 237.841 87.07C237.931 87.07 237.977 87.104 237.977 87.172ZM245.828 83.126C245.828 82.8427 245.822 82.5593 245.811 82.276C245.811 81.9927 245.811 81.7093 245.811 81.426L241.442 87.733H245.811C245.811 86.9623 245.811 86.1917 245.811 85.421C245.822 84.6503 245.828 83.8853 245.828 83.126ZM249.704 87.172C249.704 87.1947 249.687 87.2627 249.653 87.376C249.63 87.478 249.613 87.5517 249.602 87.597C249.568 87.7217 249.528 87.8577 249.483 88.005C249.449 88.1523 249.421 88.2883 249.398 88.413C249.387 88.4923 249.353 88.5377 249.296 88.549C249.239 88.549 249.177 88.549 249.109 88.549H247.443C247.443 88.8663 247.443 89.1837 247.443 89.501C247.454 89.8183 247.46 90.1413 247.46 90.47V91.082C247.46 91.252 247.522 91.3653 247.647 91.422C247.783 91.4787 247.936 91.5127 248.106 91.524C248.276 91.524 248.412 91.524 248.514 91.524C248.593 91.524 248.673 91.5183 248.752 91.507C248.843 91.4957 248.928 91.49 249.007 91.49C249.086 91.49 249.132 91.524 249.143 91.592C249.154 91.6487 249.16 91.7053 249.16 91.762C249.16 91.8073 249.149 91.864 249.126 91.932C249.115 91.9887 249.081 92.017 249.024 92.017C248.979 92.017 248.928 92.017 248.871 92.017C248.826 92.017 248.775 92.0113 248.718 92C248.378 91.9773 248.032 91.9603 247.681 91.949C247.341 91.9377 247.007 91.932 246.678 91.932C246.383 91.932 246.083 91.9377 245.777 91.949C245.482 91.9603 245.188 91.9717 244.893 91.983C244.791 91.9943 244.689 92 244.587 92C244.485 92.0113 244.389 92.017 244.298 92.017C244.207 92.017 244.151 91.9943 244.128 91.949C244.105 91.8923 244.094 91.8243 244.094 91.745C244.094 91.6883 244.1 91.6373 244.111 91.592C244.134 91.5353 244.185 91.507 244.264 91.507C244.321 91.507 244.377 91.5127 244.434 91.524C244.502 91.524 244.564 91.524 244.621 91.524C244.746 91.524 244.899 91.524 245.08 91.524C245.273 91.524 245.437 91.4957 245.573 91.439C245.72 91.371 245.794 91.252 245.794 91.082V88.549H240.728C240.649 88.549 240.575 88.532 240.507 88.498C240.45 88.4527 240.422 88.3903 240.422 88.311C240.422 88.2203 240.445 88.141 240.49 88.073C240.501 88.0503 240.513 88.0277 240.524 88.005C240.535 87.9823 240.547 87.9653 240.558 87.954C241.499 86.594 242.445 85.2283 243.397 83.857C244.36 82.4857 245.295 81.1087 246.202 79.726C246.236 79.658 246.276 79.6013 246.321 79.556C246.355 79.4993 246.406 79.471 246.474 79.471H247.375C247.398 79.471 247.432 79.4767 247.477 79.488C247.522 79.488 247.539 79.505 247.528 79.539L247.46 79.726V87.733H248.497C248.644 87.733 248.792 87.7103 248.939 87.665C249.098 87.6083 249.222 87.5233 249.313 87.41C249.336 87.3873 249.358 87.3477 249.381 87.291C249.415 87.223 249.438 87.1777 249.449 87.155C249.483 87.0983 249.523 87.07 249.568 87.07C249.659 87.07 249.704 87.104 249.704 87.172ZM260.955 89.382C260.955 89.4047 260.933 89.467 260.887 89.569C260.853 89.6597 260.831 89.722 260.819 89.756C260.774 89.8693 260.729 89.9827 260.683 90.096C260.649 90.2093 260.615 90.3227 260.581 90.436C260.525 90.6513 260.474 90.8667 260.428 91.082C260.383 91.2973 260.332 91.507 260.275 91.711C260.219 91.8697 260.122 91.949 259.986 91.949C259.669 91.949 259.295 91.9377 258.864 91.915C258.434 91.8923 258.065 91.881 257.759 91.881C257.159 91.881 256.598 91.8867 256.076 91.898C255.566 91.898 255.051 91.9037 254.529 91.915C254.269 91.915 254.002 91.9263 253.73 91.949C253.47 91.9603 253.209 91.966 252.948 91.966C252.892 91.966 252.829 91.949 252.761 91.915C252.693 91.881 252.659 91.8243 252.659 91.745C252.659 91.3257 252.756 90.9233 252.948 90.538C253.13 90.1867 253.39 89.7957 253.73 89.365C254.082 88.9343 254.467 88.498 254.886 88.056C255.306 87.614 255.714 87.1947 256.11 86.798C256.518 86.4013 256.87 86.0613 257.164 85.778C257.572 85.3813 257.924 84.9053 258.218 84.35C258.513 83.7833 258.66 83.211 258.66 82.633C258.66 82.2023 258.604 81.8 258.49 81.426C258.388 81.0407 258.201 80.729 257.929 80.491C257.657 80.253 257.272 80.134 256.773 80.134C256.343 80.134 255.957 80.2077 255.617 80.355C255.289 80.491 255 80.7517 254.75 81.137C254.592 81.3863 254.49 81.681 254.444 82.021C254.41 82.3497 254.382 82.6613 254.359 82.956C254.348 83.3413 254.133 83.534 253.713 83.534C253.113 83.534 252.812 83.2507 252.812 82.684C252.812 82.1513 252.948 81.6923 253.22 81.307C253.504 80.9217 253.861 80.6043 254.291 80.355C254.733 80.1057 255.204 79.9187 255.702 79.794C256.201 79.6693 256.671 79.607 257.113 79.607C257.669 79.607 258.201 79.726 258.711 79.964C259.233 80.202 259.658 80.542 259.986 80.984C260.315 81.4147 260.479 81.9303 260.479 82.531C260.479 83.279 260.338 83.9193 260.054 84.452C259.771 84.9847 259.397 85.455 258.932 85.863C258.479 86.271 257.986 86.6507 257.453 87.002C256.921 87.342 256.399 87.699 255.889 88.073C255.538 88.3337 255.198 88.634 254.869 88.974C254.552 89.3027 254.252 89.637 253.968 89.977C253.923 90.045 253.849 90.147 253.747 90.283C253.657 90.419 253.611 90.5323 253.611 90.623C253.611 90.7137 253.657 90.759 253.747 90.759C254.427 90.759 255.107 90.7477 255.787 90.725C256.467 90.691 257.153 90.6683 257.844 90.657C258.479 90.6457 259.006 90.5493 259.425 90.368C259.856 90.1867 260.264 89.8353 260.649 89.314C260.683 89.2687 260.723 89.246 260.768 89.246C260.802 89.246 260.842 89.263 260.887 89.297C260.933 89.3197 260.955 89.348 260.955 89.382ZM270.898 85.846C270.898 85.5173 270.886 85.115 270.864 84.639C270.852 84.1517 270.813 83.6417 270.745 83.109C270.677 82.5763 270.558 82.0777 270.388 81.613C270.218 81.1483 269.985 80.7743 269.691 80.491C269.396 80.1963 269.011 80.049 268.535 80.049C268.104 80.049 267.741 80.202 267.447 80.508C267.152 80.8027 266.914 81.1937 266.733 81.681C266.551 82.157 266.41 82.667 266.308 83.211C266.217 83.7437 266.155 84.2593 266.121 84.758C266.087 85.2453 266.07 85.642 266.07 85.948C266.07 86.254 266.081 86.6393 266.104 87.104C266.138 87.5573 266.194 88.039 266.274 88.549C266.353 89.0477 266.478 89.518 266.648 89.96C266.829 90.402 267.061 90.7647 267.345 91.048C267.628 91.32 267.985 91.456 268.416 91.456C268.869 91.456 269.243 91.32 269.538 91.048C269.832 90.7647 270.07 90.402 270.252 89.96C270.433 89.5067 270.569 89.025 270.66 88.515C270.762 87.9937 270.824 87.5007 270.847 87.036C270.881 86.56 270.898 86.1633 270.898 85.846ZM272.666 85.625C272.666 86.1463 272.615 86.696 272.513 87.274C272.422 87.852 272.275 88.4187 272.071 88.974C271.867 89.5293 271.595 90.0337 271.255 90.487C270.926 90.9403 270.524 91.303 270.048 91.575C269.572 91.8357 269.016 91.966 268.382 91.966C267.622 91.966 266.982 91.779 266.461 91.405C265.951 91.0197 265.543 90.5267 265.237 89.926C264.931 89.3253 264.71 88.685 264.574 88.005C264.438 87.3137 264.37 86.662 264.37 86.05C264.37 85.5287 264.415 84.9733 264.506 84.384C264.596 83.7833 264.744 83.1997 264.948 82.633C265.152 82.0663 265.418 81.5507 265.747 81.086C266.087 80.6213 266.495 80.253 266.971 79.981C267.458 79.6977 268.025 79.556 268.671 79.556C269.283 79.556 269.81 79.6863 270.252 79.947C270.705 80.2077 271.085 80.5533 271.391 80.984C271.708 81.4147 271.957 81.8963 272.139 82.429C272.32 82.9617 272.45 83.5057 272.53 84.061C272.62 84.605 272.666 85.1263 272.666 85.625ZM282.829 88.668C282.829 88.158 282.721 87.733 282.506 87.393C282.302 87.0417 282.03 86.747 281.69 86.509C281.35 86.271 280.976 86.0727 280.568 85.914C280.16 85.744 279.758 85.5853 279.361 85.438C278.749 85.7893 278.262 86.237 277.899 86.781C277.536 87.3137 277.355 87.9427 277.355 88.668C277.355 89.6087 277.582 90.317 278.035 90.793C278.488 91.269 279.185 91.507 280.126 91.507C280.67 91.507 281.14 91.3823 281.537 91.133C281.945 90.8837 282.262 90.5437 282.489 90.113C282.716 89.6823 282.829 89.2007 282.829 88.668ZM282.506 82.14C282.506 81.3693 282.291 80.8027 281.86 80.44C281.441 80.066 280.863 79.879 280.126 79.879C279.435 79.879 278.896 80.0717 278.511 80.457C278.126 80.831 277.933 81.358 277.933 82.038C277.933 82.5707 278.063 83.007 278.324 83.347C278.585 83.687 278.919 83.9647 279.327 84.18C279.746 84.3953 280.171 84.5823 280.602 84.741C281.135 84.503 281.582 84.163 281.945 83.721C282.319 83.2677 282.506 82.7407 282.506 82.14ZM284.512 88.09C284.512 88.9627 284.297 89.6937 283.866 90.283C283.447 90.861 282.891 91.2973 282.2 91.592C281.509 91.8753 280.755 92.017 279.939 92.017C279.27 92.017 278.63 91.9037 278.018 91.677C277.417 91.439 276.924 91.0763 276.539 90.589C276.165 90.1017 275.978 89.484 275.978 88.736C275.978 88.1127 276.12 87.5913 276.403 87.172C276.698 86.7413 277.066 86.373 277.508 86.067C277.961 85.7497 278.426 85.4663 278.902 85.217C278.551 85.0697 278.194 84.877 277.831 84.639C277.468 84.401 277.162 84.112 276.913 83.772C276.664 83.432 276.539 83.0467 276.539 82.616C276.539 81.868 276.732 81.2617 277.117 80.797C277.502 80.321 277.995 79.9753 278.596 79.76C279.197 79.5447 279.826 79.437 280.483 79.437C280.993 79.437 281.503 79.5277 282.013 79.709C282.523 79.8903 282.948 80.168 283.288 80.542C283.628 80.916 283.798 81.392 283.798 81.97C283.798 82.4913 283.69 82.939 283.475 83.313C283.271 83.687 282.988 84.0043 282.625 84.265C282.262 84.5257 281.86 84.7523 281.418 84.945C281.883 85.081 282.353 85.2963 282.829 85.591C283.305 85.8743 283.702 86.2257 284.019 86.645C284.348 87.0643 284.512 87.546 284.512 88.09ZM292.737 83.126C292.737 82.8427 292.732 82.5593 292.72 82.276C292.72 81.9927 292.72 81.7093 292.72 81.426L288.351 87.733H292.72C292.72 86.9623 292.72 86.1917 292.72 85.421C292.732 84.6503 292.737 83.8853 292.737 83.126ZM296.613 87.172C296.613 87.1947 296.596 87.2627 296.562 87.376C296.54 87.478 296.523 87.5517 296.511 87.597C296.477 87.7217 296.438 87.8577 296.392 88.005C296.358 88.1523 296.33 88.2883 296.307 88.413C296.296 88.4923 296.262 88.5377 296.205 88.549C296.149 88.549 296.086 88.549 296.018 88.549H294.352C294.352 88.8663 294.352 89.1837 294.352 89.501C294.364 89.8183 294.369 90.1413 294.369 90.47V91.082C294.369 91.252 294.432 91.3653 294.556 91.422C294.692 91.4787 294.845 91.5127 295.015 91.524C295.185 91.524 295.321 91.524 295.423 91.524C295.503 91.524 295.582 91.5183 295.661 91.507C295.752 91.4957 295.837 91.49 295.916 91.49C295.996 91.49 296.041 91.524 296.052 91.592C296.064 91.6487 296.069 91.7053 296.069 91.762C296.069 91.8073 296.058 91.864 296.035 91.932C296.024 91.9887 295.99 92.017 295.933 92.017C295.888 92.017 295.837 92.017 295.78 92.017C295.735 92.017 295.684 92.0113 295.627 92C295.287 91.9773 294.942 91.9603 294.59 91.949C294.25 91.9377 293.916 91.932 293.587 91.932C293.293 91.932 292.992 91.9377 292.686 91.949C292.392 91.9603 292.097 91.9717 291.802 91.983C291.7 91.9943 291.598 92 291.496 92C291.394 92.0113 291.298 92.017 291.207 92.017C291.117 92.017 291.06 91.9943 291.037 91.949C291.015 91.8923 291.003 91.8243 291.003 91.745C291.003 91.6883 291.009 91.6373 291.02 91.592C291.043 91.5353 291.094 91.507 291.173 91.507C291.23 91.507 291.287 91.5127 291.343 91.524C291.411 91.524 291.474 91.524 291.53 91.524C291.655 91.524 291.808 91.524 291.989 91.524C292.182 91.524 292.346 91.4957 292.482 91.439C292.63 91.371 292.703 91.252 292.703 91.082V88.549H287.637C287.558 88.549 287.484 88.532 287.416 88.498C287.36 88.4527 287.331 88.3903 287.331 88.311C287.331 88.2203 287.354 88.141 287.399 88.073C287.411 88.0503 287.422 88.0277 287.433 88.005C287.445 87.9823 287.456 87.9653 287.467 87.954C288.408 86.594 289.354 85.2283 290.306 83.857C291.27 82.4857 292.205 81.1087 293.111 79.726C293.145 79.658 293.185 79.6013 293.23 79.556C293.264 79.4993 293.315 79.471 293.383 79.471H294.284C294.307 79.471 294.341 79.4767 294.386 79.488C294.432 79.488 294.449 79.505 294.437 79.539L294.369 79.726V87.733H295.406C295.554 87.733 295.701 87.7103 295.848 87.665C296.007 87.6083 296.132 87.5233 296.222 87.41C296.245 87.3873 296.268 87.3477 296.29 87.291C296.324 87.223 296.347 87.1777 296.358 87.155C296.392 87.0983 296.432 87.07 296.477 87.07C296.568 87.07 296.613 87.104 296.613 87.172Z" fill="white"/>
<path d="M97.535 36.7H100.955V50H96.3L87.237 40.025V50H83.817V36.7H88.453L97.535 46.694V36.7ZM111.909 38.619C116.583 38.619 119.243 40.12 119.281 44.357V50H116.013V48.613C114.037 49.582 111.852 50.19 109.211 50.19C106.076 50.19 104.119 49.183 104.119 46.656C104.119 43.749 107.311 42.837 110.864 42.837C112.783 42.837 114.55 43.141 116.013 43.635C116.013 41.507 113.277 41.336 111.757 41.336C110.294 41.336 108.508 41.469 106.209 42.153L105.05 39.778C107.33 39.037 109.572 38.619 111.909 38.619ZM116.013 46.523V45.649C114.873 45.288 113.334 44.965 111.263 44.965C108.831 44.965 107.368 45.383 107.368 46.523C107.368 47.701 108.451 47.796 110.142 47.796C111.909 47.796 114.341 47.245 116.013 46.523ZM131.539 38.619C135.13 38.619 138.208 40.139 138.208 44.414C138.208 48.689 135.13 50.19 131.539 50.19C129.126 50.19 127.169 49.525 125.953 48.252V50H122.704V34.8H125.953V40.557C127.169 39.284 129.126 38.619 131.539 38.619ZM130.456 47.473C133.363 47.473 134.94 46.618 134.94 44.414C134.94 42.191 133.363 41.336 130.456 41.336C127.549 41.336 125.953 42.191 125.953 44.414C125.953 46.618 127.549 47.473 130.456 47.473ZM148.643 38.619C153.317 38.619 155.977 40.12 156.015 44.357V50H152.747V48.613C150.771 49.582 148.586 50.19 145.945 50.19C142.81 50.19 140.853 49.183 140.853 46.656C140.853 43.749 144.045 42.837 147.598 42.837C149.517 42.837 151.284 43.141 152.747 43.635C152.747 41.507 150.011 41.336 148.491 41.336C147.028 41.336 145.242 41.469 142.943 42.153L141.784 39.778C144.064 39.037 146.306 38.619 148.643 38.619ZM152.747 46.523V45.649C151.607 45.288 150.068 44.965 147.997 44.965C145.565 44.965 144.102 45.383 144.102 46.523C144.102 47.701 145.185 47.796 146.876 47.796C148.643 47.796 151.075 47.245 152.747 46.523ZM159.661 34.8H162.929V37.631H159.661V34.8ZM162.929 38.809V49.487C162.929 52.907 161.903 54.75 158.293 54.75C157.172 54.75 156.013 54.655 154.93 54.465V51.843C155.861 51.957 156.431 52.033 157.267 52.033C159.243 52.033 159.661 51.672 159.661 49.316V38.809H162.929ZM166.33 34.8H169.579V37.631H166.33V34.8ZM166.33 38.809H169.579V50H166.33V38.809ZM184.118 41.526H178.817V44.756C178.817 46.922 179.235 47.473 181.211 47.473C182.237 47.473 182.807 47.473 184.118 47.283V49.905C183.035 50.095 181.8 50.19 180.299 50.19C177.411 50.19 175.549 49.107 175.549 46.637V41.526H172.604V38.809H175.549V36.491L178.817 35.56V38.809H184.118V41.526ZM207.695 36.7C211.134 36.7 214.155 38.828 214.155 43.35C214.155 47.872 211.134 50 207.695 50H198.043V36.7H207.695ZM206.403 47.131C208.987 47.131 210.735 46.58 210.735 43.35C210.735 40.12 208.987 39.569 206.403 39.569H201.463V47.131H206.403ZM224.595 38.619C229.269 38.619 231.929 40.12 231.967 44.357V50H228.699V48.613C226.723 49.582 224.538 50.19 221.897 50.19C218.762 50.19 216.805 49.183 216.805 46.656C216.805 43.749 219.997 42.837 223.55 42.837C225.469 42.837 227.236 43.141 228.699 43.635C228.699 41.507 225.963 41.336 224.443 41.336C222.98 41.336 221.194 41.469 218.895 42.153L217.736 39.778C220.016 39.037 222.258 38.619 224.595 38.619ZM228.699 46.523V45.649C227.559 45.288 226.02 44.965 223.949 44.965C221.517 44.965 220.054 45.383 220.054 46.523C220.054 47.701 221.137 47.796 222.828 47.796C224.595 47.796 227.027 47.245 228.699 46.523ZM234.792 46.067H238.041C238.041 47.264 239.276 47.72 242.905 47.72C246.42 47.72 246.99 47.492 246.99 46.618C246.99 45.763 246.458 45.706 242.525 45.459C237.604 45.174 235.191 44.794 235.191 42.096C235.191 39.17 238.611 38.619 242.601 38.619C246.819 38.619 249.878 39.17 249.878 42.248H246.61C246.61 41.317 245.432 41.089 242.411 41.089C239.333 41.089 238.459 41.317 238.459 41.963C238.459 42.666 239.048 42.78 242.905 43.065C247.275 43.388 250.258 43.502 250.258 46.485C250.258 49.639 247.408 50.19 243.095 50.19C238.782 50.19 234.792 49.639 234.792 46.067Z" fill="white"/>
<path d="M292.964 18.9922C299.592 18.9922 304.964 24.3648 304.964 30.9922V56.8103C304.964 63.4377 299.592 68.8103 292.964 68.8103H52.1552C51.0496 68.8103 50.4773 67.4906 51.2327 66.6835C51.4716 66.4282 51.8056 66.2834 52.1552 66.2834H290.599C297.227 66.2834 302.599 60.9108 302.599 54.2834V33.5195C302.599 26.892 297.227 21.5195 290.599 21.5195H52.1553C51.8056 21.5195 51.4716 21.3746 51.2327 21.1192C50.4772 20.3119 51.0496 18.9922 52.1553 18.9922H292.964Z" fill="#FCFBFF"/>
<path d="M253.281 14.4168C252.483 13.564 251.367 13.0801 250.2 13.0801H164.382C163.214 13.0801 162.098 13.564 161.3 14.4167C158.777 17.1131 160.689 21.5207 164.382 21.5207H250.2C253.892 21.5207 255.804 17.1132 253.281 14.4168Z" fill="#FCFBFF"/>
<path d="M43.6715 56.7475C42.6322 56.6117 41.6475 56.2927 40.9003 55.6878C38.8219 53.8796 38.4569 50.4124 40.074 47.9247C41.7024 45.4415 44.7022 44.8801 46.7692 46.6838C47.2633 47.1147 47.8508 48.256 48.3523 49.7288C54.7173 47.4637 59.4833 45.7911 64.7626 44.0156L48.4686 37.7753C48.4744 38.5239 47.3298 40.2778 46.8561 40.6745C44.7173 42.3545 41.7423 41.638 40.2202 39.0708C38.6827 36.5122 39.1795 33.0516 41.3069 31.3671C41.8225 30.9578 42.9747 30.7143 44.3271 30.609C44.4496 22.3895 44.4941 16.6078 44.5287 10.7314C41.1781 16.0555 37.7147 21.3317 34.3906 26.6518C34.9483 27.2105 35.918 28.5186 36.1513 29.3139C36.9158 32.1647 35.4349 35.2188 32.8615 36.1402C30.2805 37.0441 27.5626 35.4641 26.802 32.6002C26.6249 31.9151 26.7678 30.5818 27.0677 29.0622C20.1629 26.3563 16.0326 24.6821 10.868 22.5522L20.8909 38.6314C21.3543 38.0989 23.0182 37.4591 23.6409 37.4583C26.2373 37.5265 28.3023 40.105 28.2371 43.2253C28.1758 46.3326 26.0311 48.8004 23.4347 48.7322C22.8199 48.7068 21.7612 48.1243 20.6169 47.3173C15.8886 54.5805 13.5411 58.2846 10.2888 63.1503L26.629 57.1603C26.3529 56.5089 26.3265 54.4643 26.5138 53.7925C27.3665 50.9712 30.1262 49.5093 32.6774 50.5399C35.2325 51.5575 36.6138 54.6832 35.7612 57.5045C35.5586 58.1848 34.811 59.1602 33.7366 60.1665C36.7939 65.0865 40.5481 71.2498 43.596 76.4148C43.5921 69.8572 43.6868 63.3096 43.6715 56.7475ZM34.1575 45.5685C32.8061 45.0303 32.0824 43.3226 32.5459 41.7657C33.0132 40.1958 34.4926 39.3654 35.844 39.9036C37.1953 40.4418 37.9191 42.1495 37.4517 43.7194C36.9882 45.2763 35.5202 46.1112 34.1575 45.5685Z" fill="#DD2626"/>
</svg>
