<svg width="306" height="95" viewBox="0 0 306 95" fill="none" xmlns="http://www.w3.org/2000/svg">
<path d="M148.458 83.4649H143.8V88.0379H142.95V83.4649H138.309V82.6319H142.95V78.1779H143.8V82.6319H148.458V83.4649ZM158.896 81.0679C158.896 80.9433 158.896 80.8186 158.896 80.6939C158.896 80.5579 158.89 80.4276 158.879 80.3029C158.856 79.8383 158.754 79.3736 158.573 78.9089C158.392 78.4329 158.125 78.0363 157.774 77.7189C157.423 77.3903 156.981 77.2259 156.448 77.2259C155.847 77.2259 155.371 77.3903 155.02 77.7189C154.669 78.0476 154.414 78.4613 154.255 78.9599C154.108 79.4586 154.034 79.9629 154.034 80.4729C154.034 80.8583 154.057 81.2549 154.102 81.6629C154.147 82.0596 154.244 82.4336 154.391 82.7849C154.538 83.1249 154.759 83.4026 155.054 83.6179C155.349 83.8219 155.74 83.9239 156.227 83.9239C156.476 83.9239 156.76 83.8786 157.077 83.7879C157.406 83.6973 157.712 83.5669 157.995 83.3969C158.278 83.2269 158.488 83.0286 158.624 82.8019C158.783 82.5413 158.868 82.2636 158.879 81.9689C158.89 81.6629 158.896 81.3626 158.896 81.0679ZM160.545 81.8669C160.545 82.2523 160.494 82.6659 160.392 83.1079C160.301 83.5386 160.188 83.9353 160.052 84.2979C159.474 85.8506 158.618 87.0916 157.485 88.0209C156.352 88.9503 154.992 89.6303 153.405 90.0609C153.394 90.0609 153.382 90.0609 153.371 90.0609C153.371 90.0609 153.365 90.0609 153.354 90.0609C153.252 90.0609 153.201 90.0156 153.201 89.9249C153.201 89.8683 153.224 89.8286 153.269 89.8059C153.314 89.7833 153.36 89.7663 153.405 89.7549C153.926 89.5283 154.442 89.2846 154.952 89.0239C155.462 88.7633 155.915 88.4289 156.312 88.0209C156.675 87.6583 157.02 87.2333 157.349 86.7459C157.689 86.2586 157.978 85.7486 158.216 85.2159C158.454 84.6719 158.596 84.1449 158.641 83.6349C158.244 83.8956 157.819 84.1109 157.366 84.2809C156.913 84.4509 156.442 84.5359 155.955 84.5359C155.218 84.5359 154.578 84.3886 154.034 84.0939C153.49 83.7879 153.065 83.3629 152.759 82.8189C152.464 82.2636 152.317 81.6176 152.317 80.8809C152.317 79.9856 152.504 79.2319 152.878 78.6199C153.252 78.0079 153.768 77.5433 154.425 77.2259C155.094 76.9086 155.853 76.7499 156.703 76.7499C157.315 76.7499 157.876 76.9029 158.386 77.2089C158.896 77.5149 159.327 77.9173 159.678 78.4159C160.029 78.9033 160.267 79.4303 160.392 79.9969C160.46 80.3029 160.5 80.6146 160.511 80.9319C160.534 81.2379 160.545 81.5496 160.545 81.8669ZM171.422 88.9559C171.422 89.1373 171.337 89.2279 171.167 89.2279C171.088 89.2279 171.003 89.2223 170.912 89.2109C170.822 89.1996 170.731 89.1939 170.64 89.1939C170.538 89.1939 170.431 89.1939 170.317 89.1939C170.215 89.1826 170.108 89.1769 169.994 89.1769C169.745 89.1656 169.49 89.1656 169.229 89.1769C168.98 89.1769 168.731 89.1769 168.481 89.1769C168.141 89.1769 167.807 89.1769 167.478 89.1769C167.15 89.1769 166.815 89.1826 166.475 89.1939C166.396 89.2053 166.294 89.2109 166.169 89.2109C166.056 89.2109 165.965 89.2109 165.897 89.2109C165.761 89.2109 165.693 89.1259 165.693 88.9559C165.693 88.8993 165.699 88.8483 165.71 88.8029C165.733 88.7463 165.778 88.7179 165.846 88.7179C165.914 88.7179 165.977 88.7236 166.033 88.7349C166.101 88.7349 166.169 88.7349 166.237 88.7349C166.351 88.7349 166.515 88.7349 166.73 88.7349C166.957 88.7236 167.167 88.6896 167.359 88.6329C167.552 88.5649 167.648 88.4516 167.648 88.2929C167.648 87.3749 167.654 86.4569 167.665 85.5389C167.677 84.6096 167.682 83.6859 167.682 82.7679C167.682 81.9859 167.682 81.2039 167.682 80.4219C167.682 79.6399 167.682 78.8523 167.682 78.0589C167.682 77.9116 167.609 77.8379 167.461 77.8379C167.393 77.8379 167.252 77.8776 167.036 77.9569C166.832 78.0363 166.6 78.1269 166.339 78.2289C166.079 78.3309 165.841 78.4216 165.625 78.5009C165.421 78.5803 165.291 78.6199 165.234 78.6199C165.132 78.6199 165.059 78.5746 165.013 78.4839C164.979 78.3933 164.962 78.3083 164.962 78.2289C164.962 78.1609 164.996 78.1043 165.064 78.0589C165.132 78.0023 165.195 77.9683 165.251 77.9569C165.569 77.8776 165.869 77.7869 166.152 77.6849C166.436 77.5716 166.73 77.4639 167.036 77.3619C167.274 77.2826 167.524 77.1976 167.784 77.1069C168.045 77.0049 168.289 76.9086 168.515 76.8179C168.561 76.7953 168.64 76.7669 168.753 76.7329C168.867 76.6989 168.98 76.6649 169.093 76.6309C169.218 76.5969 169.292 76.5799 169.314 76.5799C169.382 76.5799 169.433 76.5913 169.467 76.6139C169.501 76.6253 169.518 76.6819 169.518 76.7839C169.518 77.0333 169.513 77.2826 169.501 77.5319C169.501 77.7699 169.496 78.0136 169.484 78.2629C169.473 78.9543 169.462 79.6853 169.45 80.4559C169.45 81.2266 169.445 81.9859 169.433 82.7339C169.433 83.5613 169.433 84.3829 169.433 85.1989C169.433 86.0149 169.433 86.8366 169.433 87.6639C169.433 87.7659 169.433 87.8736 169.433 87.9869C169.445 88.0889 169.45 88.1909 169.45 88.2929C169.462 88.4516 169.552 88.5649 169.722 88.6329C169.904 88.6896 170.096 88.7179 170.3 88.7179C170.516 88.7179 170.669 88.7179 170.759 88.7179C170.85 88.7179 170.935 88.7123 171.014 88.7009C171.094 88.6896 171.173 88.6839 171.252 88.6839C171.32 88.6839 171.366 88.7179 171.388 88.7859C171.411 88.8426 171.422 88.8993 171.422 88.9559ZM180.549 84.2469H176.078V83.2439H180.549V84.2469ZM192.54 77.3109C192.212 77.6509 191.9 78.0646 191.605 78.5519C191.322 79.0393 191.061 79.5436 190.823 80.0649C190.585 80.5749 190.381 81.0566 190.211 81.5099C189.815 82.5526 189.509 83.6236 189.293 84.7229C189.078 85.8223 188.925 86.9273 188.834 88.0379C188.8 88.4686 188.727 88.8143 188.613 89.0749C188.5 89.3243 188.194 89.4489 187.695 89.4489C187.389 89.4489 187.185 89.3413 187.083 89.1259C186.993 88.8993 186.947 88.6613 186.947 88.4119C186.947 87.9359 187.021 87.3976 187.168 86.7969C187.316 86.1849 187.497 85.5559 187.712 84.9099C187.939 84.2639 188.171 83.6463 188.409 83.0569C188.647 82.4563 188.863 81.9349 189.055 81.4929C189.361 80.8129 189.718 80.1386 190.126 79.4699C190.546 78.8013 190.982 78.1723 191.435 77.5829C190.279 77.5943 189.112 77.6283 187.933 77.6849C187.639 77.6963 187.333 77.7133 187.015 77.7359C186.698 77.7473 186.392 77.7869 186.097 77.8549C185.678 77.9456 185.361 78.1609 185.145 78.5009C184.941 78.8409 184.777 79.2036 184.652 79.5889C184.63 79.6003 184.596 79.6059 184.55 79.6059C184.46 79.6059 184.38 79.5889 184.312 79.5549C184.369 79.1469 184.414 78.7389 184.448 78.3309C184.494 77.9116 184.539 77.4979 184.584 77.0899C184.607 77.0219 184.618 76.9766 184.618 76.9539C184.63 76.9199 184.669 76.8916 184.737 76.8689C184.828 76.8463 184.924 76.8349 185.026 76.8349C185.729 76.8349 186.432 76.8406 187.134 76.8519C187.848 76.8633 188.562 76.8689 189.276 76.8689C189.82 76.8689 190.364 76.8633 190.908 76.8519C191.452 76.8406 191.996 76.8236 192.54 76.8009V77.3109ZM202.534 83.0569C202.534 82.7283 202.522 82.3259 202.5 81.8499C202.488 81.3626 202.449 80.8526 202.381 80.3199C202.313 79.7873 202.194 79.2886 202.024 78.8239C201.854 78.3593 201.621 77.9853 201.327 77.7019C201.032 77.4073 200.647 77.2599 200.171 77.2599C199.74 77.2599 199.377 77.4129 199.083 77.7189C198.788 78.0136 198.55 78.4046 198.369 78.8919C198.187 79.3679 198.046 79.8779 197.944 80.4219C197.853 80.9546 197.791 81.4703 197.757 81.9689C197.723 82.4563 197.706 82.8529 197.706 83.1589C197.706 83.4649 197.717 83.8503 197.74 84.3149C197.774 84.7683 197.83 85.2499 197.91 85.7599C197.989 86.2586 198.114 86.7289 198.284 87.1709C198.465 87.6129 198.697 87.9756 198.981 88.2589C199.264 88.5309 199.621 88.6669 200.052 88.6669C200.505 88.6669 200.879 88.5309 201.174 88.2589C201.468 87.9756 201.706 87.6129 201.888 87.1709C202.069 86.7176 202.205 86.2359 202.296 85.7259C202.398 85.2046 202.46 84.7116 202.483 84.2469C202.517 83.7709 202.534 83.3743 202.534 83.0569ZM204.302 82.8359C204.302 83.3573 204.251 83.9069 204.149 84.4849C204.058 85.0629 203.911 85.6296 203.707 86.1849C203.503 86.7403 203.231 87.2446 202.891 87.6979C202.562 88.1513 202.16 88.5139 201.684 88.7859C201.208 89.0466 200.652 89.1769 200.018 89.1769C199.258 89.1769 198.618 88.9899 198.097 88.6159C197.587 88.2306 197.179 87.7376 196.873 87.1369C196.567 86.5363 196.346 85.8959 196.21 85.2159C196.074 84.5246 196.006 83.8729 196.006 83.2609C196.006 82.7396 196.051 82.1843 196.142 81.5949C196.232 80.9943 196.38 80.4106 196.584 79.8439C196.788 79.2773 197.054 78.7616 197.383 78.2969C197.723 77.8323 198.131 77.4639 198.607 77.1919C199.094 76.9086 199.661 76.7669 200.307 76.7669C200.919 76.7669 201.446 76.8973 201.888 77.1579C202.341 77.4186 202.721 77.7643 203.027 78.1949C203.344 78.6256 203.593 79.1073 203.775 79.6399C203.956 80.1726 204.086 80.7166 204.166 81.2719C204.256 81.8159 204.302 82.3373 204.302 82.8359ZM215.111 88.9559C215.111 89.1373 215.026 89.2279 214.856 89.2279C214.777 89.2279 214.692 89.2223 214.601 89.2109C214.51 89.1996 214.42 89.1939 214.329 89.1939C214.227 89.1939 214.119 89.1939 214.006 89.1939C213.904 89.1826 213.796 89.1769 213.683 89.1769C213.434 89.1656 213.179 89.1656 212.918 89.1769C212.669 89.1769 212.419 89.1769 212.17 89.1769C211.83 89.1769 211.496 89.1769 211.167 89.1769C210.838 89.1769 210.504 89.1826 210.164 89.1939C210.085 89.2053 209.983 89.2109 209.858 89.2109C209.745 89.2109 209.654 89.2109 209.586 89.2109C209.45 89.2109 209.382 89.1259 209.382 88.9559C209.382 88.8993 209.388 88.8483 209.399 88.8029C209.422 88.7463 209.467 88.7179 209.535 88.7179C209.603 88.7179 209.665 88.7236 209.722 88.7349C209.79 88.7349 209.858 88.7349 209.926 88.7349C210.039 88.7349 210.204 88.7349 210.419 88.7349C210.646 88.7236 210.855 88.6896 211.048 88.6329C211.241 88.5649 211.337 88.4516 211.337 88.2929C211.337 87.3749 211.343 86.4569 211.354 85.5389C211.365 84.6096 211.371 83.6859 211.371 82.7679C211.371 81.9859 211.371 81.2039 211.371 80.4219C211.371 79.6399 211.371 78.8523 211.371 78.0589C211.371 77.9116 211.297 77.8379 211.15 77.8379C211.082 77.8379 210.94 77.8776 210.725 77.9569C210.521 78.0363 210.289 78.1269 210.028 78.2289C209.767 78.3309 209.529 78.4216 209.314 78.5009C209.11 78.5803 208.98 78.6199 208.923 78.6199C208.821 78.6199 208.747 78.5746 208.702 78.4839C208.668 78.3933 208.651 78.3083 208.651 78.2289C208.651 78.1609 208.685 78.1043 208.753 78.0589C208.821 78.0023 208.883 77.9683 208.94 77.9569C209.257 77.8776 209.558 77.7869 209.841 77.6849C210.124 77.5716 210.419 77.4639 210.725 77.3619C210.963 77.2826 211.212 77.1976 211.473 77.1069C211.734 77.0049 211.977 76.9086 212.204 76.8179C212.249 76.7953 212.329 76.7669 212.442 76.7329C212.555 76.6989 212.669 76.6649 212.782 76.6309C212.907 76.5969 212.98 76.5799 213.003 76.5799C213.071 76.5799 213.122 76.5913 213.156 76.6139C213.19 76.6253 213.207 76.6819 213.207 76.7839C213.207 77.0333 213.201 77.2826 213.19 77.5319C213.19 77.7699 213.184 78.0136 213.173 78.2629C213.162 78.9543 213.15 79.6853 213.139 80.4559C213.139 81.2266 213.133 81.9859 213.122 82.7339C213.122 83.5613 213.122 84.3829 213.122 85.1989C213.122 86.0149 213.122 86.8366 213.122 87.6639C213.122 87.7659 213.122 87.8736 213.122 87.9869C213.133 88.0889 213.139 88.1909 213.139 88.2929C213.15 88.4516 213.241 88.5649 213.411 88.6329C213.592 88.6896 213.785 88.7179 213.989 88.7179C214.204 88.7179 214.357 88.7179 214.448 88.7179C214.539 88.7179 214.624 88.7123 214.703 88.7009C214.782 88.6896 214.862 88.6839 214.941 88.6839C215.009 88.6839 215.054 88.7179 215.077 88.7859C215.1 88.8426 215.111 88.8993 215.111 88.9559ZM227.756 84.8079C227.756 85.3406 227.649 85.9073 227.433 86.5079C227.218 87.1086 226.906 87.5903 226.498 87.9529C226.045 88.3496 225.501 88.6556 224.866 88.8709C224.232 89.0863 223.614 89.1939 223.013 89.1939C222.73 89.1939 222.39 89.1599 221.993 89.0919C221.597 89.0126 221.206 88.8993 220.82 88.7519C220.435 88.5933 220.112 88.3893 219.851 88.1399C219.591 87.8793 219.46 87.5676 219.46 87.2049C219.46 86.9556 219.545 86.7629 219.715 86.6269C219.885 86.4796 220.089 86.4059 220.327 86.4059C220.531 86.4059 220.713 86.4569 220.871 86.5589C221.03 86.6609 221.115 86.8253 221.126 87.0519C221.172 87.5733 221.319 87.9756 221.568 88.2589C221.829 88.5423 222.237 88.6839 222.792 88.6839C223.574 88.6839 224.209 88.5026 224.696 88.1399C225.184 87.7659 225.546 87.2049 225.784 86.4569C225.864 86.1963 225.909 85.9299 225.92 85.6579C225.943 85.3746 225.954 85.0969 225.954 84.8249C225.954 84.4509 225.909 84.0486 225.818 83.6179C225.739 83.1759 225.586 82.8019 225.359 82.4959C225.167 82.2353 224.917 82.0596 224.611 81.9689C224.317 81.8783 224.011 81.8329 223.693 81.8329C223.444 81.8329 223.172 81.8783 222.877 81.9689C222.583 82.0483 222.339 82.1673 222.146 82.3259C221.954 82.4846 221.778 82.6886 221.619 82.9379C221.461 83.1759 221.37 83.4253 221.347 83.6859C221.336 83.7539 221.325 83.8389 221.313 83.9409C221.302 84.0429 221.245 84.0939 221.143 84.0939C221.087 84.0939 220.968 84.0713 220.786 84.0259C220.616 83.9693 220.452 83.9069 220.293 83.8389C220.146 83.7596 220.072 83.6916 220.072 83.6349C220.072 83.6009 220.078 83.5669 220.089 83.5329C220.101 83.4989 220.112 83.4649 220.123 83.4309C220.203 83.1703 220.265 82.8473 220.31 82.4619C220.367 82.0653 220.407 81.6516 220.429 81.2209C220.452 80.7789 220.469 80.3539 220.48 79.9459C220.492 79.5379 220.497 79.1923 220.497 78.9089C220.497 78.2403 220.463 77.5659 220.395 76.8859C220.747 76.9313 221.092 76.9653 221.432 76.9879C221.784 77.0106 222.135 77.0219 222.486 77.0219H224.917C225.212 77.0219 225.552 77.0049 225.937 76.9709C226.334 76.9369 226.663 76.8463 226.923 76.6989C226.98 76.6649 227.042 76.6309 227.11 76.5969C227.19 76.5516 227.258 76.5289 227.314 76.5289C227.348 76.5289 227.399 76.5346 227.467 76.5459C227.535 76.5459 227.569 76.5743 227.569 76.6309C227.569 76.6876 227.53 76.8066 227.45 76.9879C227.371 77.1579 227.286 77.3336 227.195 77.5149C227.105 77.6963 227.042 77.8153 227.008 77.8719C226.963 77.9513 226.906 78.0023 226.838 78.0249C226.77 78.0476 226.691 78.0589 226.6 78.0589C226.453 78.0589 226.3 78.0589 226.141 78.0589C225.994 78.0476 225.841 78.0363 225.682 78.0249C225.49 78.0023 225.291 77.9966 225.087 78.0079C224.883 78.0079 224.685 78.0079 224.492 78.0079C224.175 78.0079 223.858 78.0079 223.54 78.0079C223.223 77.9966 222.9 77.9909 222.571 77.9909C222.379 77.9909 222.18 77.9909 221.976 77.9909C221.784 77.9909 221.591 77.9966 221.398 78.0079C221.387 78.7219 221.359 79.4416 221.313 80.1669C221.279 80.8809 221.245 81.5949 221.211 82.3089C221.733 81.9463 222.214 81.6799 222.656 81.5099C223.11 81.3286 223.654 81.2379 224.288 81.2379C224.719 81.2379 225.133 81.3003 225.529 81.4249C225.937 81.5496 226.3 81.7593 226.617 82.0539C226.98 82.3939 227.258 82.8133 227.45 83.3119C227.654 83.8106 227.756 84.3093 227.756 84.8079ZM239.45 77.3109C239.121 77.6509 238.809 78.0646 238.515 78.5519C238.231 79.0393 237.971 79.5436 237.733 80.0649C237.495 80.5749 237.291 81.0566 237.121 81.5099C236.724 82.5526 236.418 83.6236 236.203 84.7229C235.987 85.8223 235.834 86.9273 235.744 88.0379C235.71 88.4686 235.636 88.8143 235.523 89.0749C235.409 89.3243 235.103 89.4489 234.605 89.4489C234.299 89.4489 234.095 89.3413 233.993 89.1259C233.902 88.8993 233.857 88.6613 233.857 88.4119C233.857 87.9359 233.93 87.3976 234.078 86.7969C234.225 86.1849 234.406 85.5559 234.622 84.9099C234.848 84.2639 235.081 83.6463 235.319 83.0569C235.557 82.4563 235.772 81.9349 235.965 81.4929C236.271 80.8129 236.628 80.1386 237.036 79.4699C237.455 78.8013 237.891 78.1723 238.345 77.5829C237.189 77.5943 236.021 77.6283 234.843 77.6849C234.548 77.6963 234.242 77.7133 233.925 77.7359C233.607 77.7473 233.301 77.7869 233.007 77.8549C232.587 77.9456 232.27 78.1609 232.055 78.5009C231.851 78.8409 231.686 79.2036 231.562 79.5889C231.539 79.6003 231.505 79.6059 231.46 79.6059C231.369 79.6059 231.29 79.5889 231.222 79.5549C231.278 79.1469 231.324 78.7389 231.358 78.3309C231.403 77.9116 231.448 77.4979 231.494 77.0899C231.516 77.0219 231.528 76.9766 231.528 76.9539C231.539 76.9199 231.579 76.8916 231.647 76.8689C231.737 76.8463 231.834 76.8349 231.936 76.8349C232.638 76.8349 233.341 76.8406 234.044 76.8519C234.758 76.8633 235.472 76.8689 236.186 76.8689C236.73 76.8689 237.274 76.8633 237.818 76.8519C238.362 76.8406 238.906 76.8236 239.45 76.8009V77.3109ZM249.494 81.0679C249.494 80.9433 249.494 80.8186 249.494 80.6939C249.494 80.5579 249.488 80.4276 249.477 80.3029C249.454 79.8383 249.352 79.3736 249.171 78.9089C248.99 78.4329 248.723 78.0363 248.372 77.7189C248.021 77.3903 247.579 77.2259 247.046 77.2259C246.445 77.2259 245.969 77.3903 245.618 77.7189C245.267 78.0476 245.012 78.4613 244.853 78.9599C244.706 79.4586 244.632 79.9629 244.632 80.4729C244.632 80.8583 244.655 81.2549 244.7 81.6629C244.745 82.0596 244.842 82.4336 244.989 82.7849C245.136 83.1249 245.357 83.4026 245.652 83.6179C245.947 83.8219 246.338 83.9239 246.825 83.9239C247.074 83.9239 247.358 83.8786 247.675 83.7879C248.004 83.6973 248.31 83.5669 248.593 83.3969C248.876 83.2269 249.086 83.0286 249.222 82.8019C249.381 82.5413 249.466 82.2636 249.477 81.9689C249.488 81.6629 249.494 81.3626 249.494 81.0679ZM251.143 81.8669C251.143 82.2523 251.092 82.6659 250.99 83.1079C250.899 83.5386 250.786 83.9353 250.65 84.2979C250.072 85.8506 249.216 87.0916 248.083 88.0209C246.95 88.9503 245.59 89.6303 244.003 90.0609C243.992 90.0609 243.98 90.0609 243.969 90.0609C243.969 90.0609 243.963 90.0609 243.952 90.0609C243.85 90.0609 243.799 90.0156 243.799 89.9249C243.799 89.8683 243.822 89.8286 243.867 89.8059C243.912 89.7833 243.958 89.7663 244.003 89.7549C244.524 89.5283 245.04 89.2846 245.55 89.0239C246.06 88.7633 246.513 88.4289 246.91 88.0209C247.273 87.6583 247.618 87.2333 247.947 86.7459C248.287 86.2586 248.576 85.7486 248.814 85.2159C249.052 84.6719 249.194 84.1449 249.239 83.6349C248.842 83.8956 248.417 84.1109 247.964 84.2809C247.511 84.4509 247.04 84.5359 246.553 84.5359C245.816 84.5359 245.176 84.3886 244.632 84.0939C244.088 83.7879 243.663 83.3629 243.357 82.8189C243.062 82.2636 242.915 81.6176 242.915 80.8809C242.915 79.9856 243.102 79.2319 243.476 78.6199C243.85 78.0079 244.366 77.5433 245.023 77.2259C245.692 76.9086 246.451 76.7499 247.301 76.7499C247.913 76.7499 248.474 76.9029 248.984 77.2089C249.494 77.5149 249.925 77.9173 250.276 78.4159C250.627 78.9033 250.865 79.4303 250.99 79.9969C251.058 80.3029 251.098 80.6146 251.109 80.9319C251.132 81.2379 251.143 81.5496 251.143 81.8669ZM262.904 77.3109C262.576 77.6509 262.264 78.0646 261.969 78.5519C261.686 79.0393 261.425 79.5436 261.187 80.0649C260.949 80.5749 260.745 81.0566 260.575 81.5099C260.179 82.5526 259.873 83.6236 259.657 84.7229C259.442 85.8223 259.289 86.9273 259.198 88.0379C259.164 88.4686 259.091 88.8143 258.977 89.0749C258.864 89.3243 258.558 89.4489 258.059 89.4489C257.753 89.4489 257.549 89.3413 257.447 89.1259C257.357 88.8993 257.311 88.6613 257.311 88.4119C257.311 87.9359 257.385 87.3976 257.532 86.7969C257.68 86.1849 257.861 85.5559 258.076 84.9099C258.303 84.2639 258.535 83.6463 258.773 83.0569C259.011 82.4563 259.227 81.9349 259.419 81.4929C259.725 80.8129 260.082 80.1386 260.49 79.4699C260.91 78.8013 261.346 78.1723 261.799 77.5829C260.643 77.5943 259.476 77.6283 258.297 77.6849C258.003 77.6963 257.697 77.7133 257.379 77.7359C257.062 77.7473 256.756 77.7869 256.461 77.8549C256.042 77.9456 255.725 78.1609 255.509 78.5009C255.305 78.8409 255.141 79.2036 255.016 79.5889C254.994 79.6003 254.96 79.6059 254.914 79.6059C254.824 79.6059 254.744 79.5889 254.676 79.5549C254.733 79.1469 254.778 78.7389 254.812 78.3309C254.858 77.9116 254.903 77.4979 254.948 77.0899C254.971 77.0219 254.982 76.9766 254.982 76.9539C254.994 76.9199 255.033 76.8916 255.101 76.8689C255.192 76.8463 255.288 76.8349 255.39 76.8349C256.093 76.8349 256.796 76.8406 257.498 76.8519C258.212 76.8633 258.926 76.8689 259.64 76.8689C260.184 76.8689 260.728 76.8633 261.272 76.8519C261.816 76.8406 262.36 76.8236 262.904 76.8009V77.3109ZM274.632 77.3109C274.303 77.6509 273.991 78.0646 273.697 78.5519C273.413 79.0393 273.153 79.5436 272.915 80.0649C272.677 80.5749 272.473 81.0566 272.303 81.5099C271.906 82.5526 271.6 83.6236 271.385 84.7229C271.169 85.8223 271.016 86.9273 270.926 88.0379C270.892 88.4686 270.818 88.8143 270.705 89.0749C270.591 89.3243 270.285 89.4489 269.787 89.4489C269.481 89.4489 269.277 89.3413 269.175 89.1259C269.084 88.8993 269.039 88.6613 269.039 88.4119C269.039 87.9359 269.112 87.3976 269.26 86.7969C269.407 86.1849 269.588 85.5559 269.804 84.9099C270.03 84.2639 270.263 83.6463 270.501 83.0569C270.739 82.4563 270.954 81.9349 271.147 81.4929C271.453 80.8129 271.81 80.1386 272.218 79.4699C272.637 78.8013 273.073 78.1723 273.527 77.5829C272.371 77.5943 271.203 77.6283 270.025 77.6849C269.73 77.6963 269.424 77.7133 269.107 77.7359C268.789 77.7473 268.483 77.7869 268.189 77.8549C267.769 77.9456 267.452 78.1609 267.237 78.5009C267.033 78.8409 266.868 79.2036 266.744 79.5889C266.721 79.6003 266.687 79.6059 266.642 79.6059C266.551 79.6059 266.472 79.5889 266.404 79.5549C266.46 79.1469 266.506 78.7389 266.54 78.3309C266.585 77.9116 266.63 77.4979 266.676 77.0899C266.698 77.0219 266.71 76.9766 266.71 76.9539C266.721 76.9199 266.761 76.8916 266.829 76.8689C266.919 76.8463 267.016 76.8349 267.118 76.8349C267.82 76.8349 268.523 76.8406 269.226 76.8519C269.94 76.8633 270.654 76.8689 271.368 76.8689C271.912 76.8689 272.456 76.8633 273 76.8519C273.544 76.8406 274.088 76.8236 274.632 76.8009V77.3109ZM284.829 85.8789C284.829 85.3689 284.721 84.9439 284.506 84.6039C284.302 84.2526 284.03 83.9579 283.69 83.7199C283.35 83.4819 282.976 83.2836 282.568 83.1249C282.16 82.9549 281.758 82.7963 281.361 82.6489C280.749 83.0003 280.262 83.4479 279.899 83.9919C279.536 84.5246 279.355 85.1536 279.355 85.8789C279.355 86.8196 279.582 87.5279 280.035 88.0039C280.488 88.4799 281.185 88.7179 282.126 88.7179C282.67 88.7179 283.14 88.5933 283.537 88.3439C283.945 88.0946 284.262 87.7546 284.489 87.3239C284.716 86.8933 284.829 86.4116 284.829 85.8789ZM284.506 79.3509C284.506 78.5803 284.291 78.0136 283.86 77.6509C283.441 77.2769 282.863 77.0899 282.126 77.0899C281.435 77.0899 280.896 77.2826 280.511 77.6679C280.126 78.0419 279.933 78.5689 279.933 79.2489C279.933 79.7816 280.063 80.2179 280.324 80.5579C280.585 80.8979 280.919 81.1756 281.327 81.3909C281.746 81.6063 282.171 81.7933 282.602 81.9519C283.135 81.7139 283.582 81.3739 283.945 80.9319C284.319 80.4786 284.506 79.9516 284.506 79.3509ZM286.512 85.3009C286.512 86.1736 286.297 86.9046 285.866 87.4939C285.447 88.0719 284.891 88.5083 284.2 88.8029C283.509 89.0863 282.755 89.2279 281.939 89.2279C281.27 89.2279 280.63 89.1146 280.018 88.8879C279.417 88.6499 278.924 88.2873 278.539 87.7999C278.165 87.3126 277.978 86.6949 277.978 85.9469C277.978 85.3236 278.12 84.8023 278.403 84.3829C278.698 83.9523 279.066 83.5839 279.508 83.2779C279.961 82.9606 280.426 82.6773 280.902 82.4279C280.551 82.2806 280.194 82.0879 279.831 81.8499C279.468 81.6119 279.162 81.3229 278.913 80.9829C278.664 80.6429 278.539 80.2576 278.539 79.8269C278.539 79.0789 278.732 78.4726 279.117 78.0079C279.502 77.5319 279.995 77.1863 280.596 76.9709C281.197 76.7556 281.826 76.6479 282.483 76.6479C282.993 76.6479 283.503 76.7386 284.013 76.9199C284.523 77.1013 284.948 77.3789 285.288 77.7529C285.628 78.1269 285.798 78.6029 285.798 79.1809C285.798 79.7023 285.69 80.1499 285.475 80.5239C285.271 80.8979 284.988 81.2153 284.625 81.4759C284.262 81.7366 283.86 81.9633 283.418 82.1559C283.883 82.2919 284.353 82.5073 284.829 82.8019C285.305 83.0853 285.702 83.4366 286.019 83.8559C286.348 84.2753 286.512 84.7569 286.512 85.3009ZM294.737 80.3369C294.737 80.0536 294.732 79.7703 294.72 79.4869C294.72 79.2036 294.72 78.9203 294.72 78.6369L290.351 84.9439H294.72C294.72 84.1733 294.72 83.4026 294.72 82.6319C294.732 81.8613 294.737 81.0963 294.737 80.3369ZM298.613 84.3829C298.613 84.4056 298.596 84.4736 298.562 84.5869C298.54 84.6889 298.523 84.7626 298.511 84.8079C298.477 84.9326 298.438 85.0686 298.392 85.2159C298.358 85.3633 298.33 85.4993 298.307 85.6239C298.296 85.7033 298.262 85.7486 298.205 85.7599C298.149 85.7599 298.086 85.7599 298.018 85.7599H296.352C296.352 86.0773 296.352 86.3946 296.352 86.7119C296.364 87.0293 296.369 87.3523 296.369 87.6809V88.2929C296.369 88.4629 296.432 88.5763 296.556 88.6329C296.692 88.6896 296.845 88.7236 297.015 88.7349C297.185 88.7349 297.321 88.7349 297.423 88.7349C297.503 88.7349 297.582 88.7293 297.661 88.7179C297.752 88.7066 297.837 88.7009 297.916 88.7009C297.996 88.7009 298.041 88.7349 298.052 88.8029C298.064 88.8596 298.069 88.9163 298.069 88.9729C298.069 89.0183 298.058 89.0749 298.035 89.1429C298.024 89.1996 297.99 89.2279 297.933 89.2279C297.888 89.2279 297.837 89.2279 297.78 89.2279C297.735 89.2279 297.684 89.2223 297.627 89.2109C297.287 89.1883 296.942 89.1713 296.59 89.1599C296.25 89.1486 295.916 89.1429 295.587 89.1429C295.293 89.1429 294.992 89.1486 294.686 89.1599C294.392 89.1713 294.097 89.1826 293.802 89.1939C293.7 89.2053 293.598 89.2109 293.496 89.2109C293.394 89.2223 293.298 89.2279 293.207 89.2279C293.117 89.2279 293.06 89.2053 293.037 89.1599C293.015 89.1033 293.003 89.0353 293.003 88.9559C293.003 88.8993 293.009 88.8483 293.02 88.8029C293.043 88.7463 293.094 88.7179 293.173 88.7179C293.23 88.7179 293.287 88.7236 293.343 88.7349C293.411 88.7349 293.474 88.7349 293.53 88.7349C293.655 88.7349 293.808 88.7349 293.989 88.7349C294.182 88.7349 294.346 88.7066 294.482 88.6499C294.63 88.5819 294.703 88.4629 294.703 88.2929V85.7599H289.637C289.558 85.7599 289.484 85.7429 289.416 85.7089C289.36 85.6636 289.331 85.6013 289.331 85.5219C289.331 85.4313 289.354 85.3519 289.399 85.2839C289.411 85.2613 289.422 85.2386 289.433 85.2159C289.445 85.1933 289.456 85.1763 289.467 85.1649C290.408 83.8049 291.354 82.4393 292.306 81.0679C293.27 79.6966 294.205 78.3196 295.111 76.9369C295.145 76.8689 295.185 76.8123 295.23 76.7669C295.264 76.7103 295.315 76.6819 295.383 76.6819H296.284C296.307 76.6819 296.341 76.6876 296.386 76.6989C296.432 76.6989 296.449 76.7159 296.437 76.7499L296.369 76.9369V84.9439H297.406C297.554 84.9439 297.701 84.9213 297.848 84.8759C298.007 84.8193 298.132 84.7343 298.222 84.6209C298.245 84.5983 298.268 84.5586 298.29 84.5019C298.324 84.4339 298.347 84.3886 298.358 84.3659C298.392 84.3093 298.432 84.2809 298.477 84.2809C298.568 84.2809 298.613 84.3149 298.613 84.3829Z" fill="white"/>
<path d="M99.535 36.7H102.955V50H98.3L89.237 40.025V50H85.817V36.7H90.453L99.535 46.694V36.7ZM106.494 34.8H109.743V37.631H106.494V34.8ZM106.494 38.809H109.743V50H106.494V38.809ZM112.88 46.067H116.129C116.129 47.264 117.364 47.72 120.993 47.72C124.508 47.72 125.078 47.492 125.078 46.618C125.078 45.763 124.546 45.706 120.613 45.459C115.692 45.174 113.279 44.794 113.279 42.096C113.279 39.17 116.699 38.619 120.689 38.619C124.907 38.619 127.966 39.17 127.966 42.248H124.698C124.698 41.317 123.52 41.089 120.499 41.089C117.421 41.089 116.547 41.317 116.547 41.963C116.547 42.666 117.136 42.78 120.993 43.065C125.363 43.388 128.346 43.502 128.346 46.485C128.346 49.639 125.496 50.19 121.183 50.19C116.87 50.19 112.88 49.639 112.88 46.067ZM141.25 38.619C144.233 38.619 147.026 39.683 147.064 43.806L147.026 50H143.758V45.041C143.758 42.666 142.96 41.431 140.281 41.431C138.096 41.431 135.74 42.552 134.733 43.73V50H131.484V34.8H134.733V40.766C136.329 39.512 138.533 38.619 141.25 38.619ZM157.887 38.619C162.561 38.619 165.221 40.12 165.259 44.357V50H161.991V48.613C160.015 49.582 157.83 50.19 155.189 50.19C152.054 50.19 150.097 49.183 150.097 46.656C150.097 43.749 153.289 42.837 156.842 42.837C158.761 42.837 160.528 43.141 161.991 43.635C161.991 41.507 159.255 41.336 157.735 41.336C156.272 41.336 154.486 41.469 152.187 42.153L151.028 39.778C153.308 39.037 155.55 38.619 157.887 38.619ZM161.991 46.523V45.649C160.851 45.288 159.312 44.965 157.241 44.965C154.809 44.965 153.346 45.383 153.346 46.523C153.346 47.701 154.429 47.796 156.12 47.796C157.887 47.796 160.319 47.245 161.991 46.523ZM189.029 36.7C192.468 36.7 195.489 38.828 195.489 43.35C195.489 47.872 192.468 50 189.029 50H179.377V36.7H189.029ZM187.737 47.131C190.321 47.131 192.069 46.58 192.069 43.35C192.069 40.12 190.321 39.569 187.737 39.569H182.797V47.131H187.737ZM208.485 38.619C211.468 38.619 214.261 39.683 214.299 43.806L214.261 50H210.993V45.041C210.993 42.666 210.195 41.431 207.516 41.431C205.331 41.431 202.975 42.552 201.968 43.73V50H198.719V34.8H201.968V40.766C203.564 39.512 205.768 38.619 208.485 38.619ZM225.122 38.619C229.796 38.619 232.456 40.12 232.494 44.357V50H229.226V48.613C227.25 49.582 225.065 50.19 222.424 50.19C219.289 50.19 217.332 49.183 217.332 46.656C217.332 43.749 220.524 42.837 224.077 42.837C225.996 42.837 227.763 43.141 229.226 43.635C229.226 41.507 226.49 41.336 224.97 41.336C223.507 41.336 221.721 41.469 219.422 42.153L218.263 39.778C220.543 39.037 222.785 38.619 225.122 38.619ZM229.226 46.523V45.649C228.086 45.288 226.547 44.965 224.476 44.965C222.044 44.965 220.581 45.383 220.581 46.523C220.581 47.701 221.664 47.796 223.355 47.796C225.122 47.796 227.554 47.245 229.226 46.523ZM252.865 38.809L245.607 43.388L252.865 50H248.343L242.985 45.117L239.166 47.416V50H235.917V34.8H239.166V43.844L247.317 38.809H252.865ZM262.395 38.619C267.069 38.619 269.729 40.12 269.767 44.357V50H266.499V48.613C264.523 49.582 262.338 50.19 259.697 50.19C256.562 50.19 254.605 49.183 254.605 46.656C254.605 43.749 257.797 42.837 261.35 42.837C263.269 42.837 265.036 43.141 266.499 43.635C266.499 41.507 263.763 41.336 262.243 41.336C260.78 41.336 258.994 41.469 256.695 42.153L255.536 39.778C257.816 39.037 260.058 38.619 262.395 38.619ZM266.499 46.523V45.649C265.359 45.288 263.82 44.965 261.749 44.965C259.317 44.965 257.854 45.383 257.854 46.523C257.854 47.701 258.937 47.796 260.628 47.796C262.395 47.796 264.827 47.245 266.499 46.523Z" fill="white"/>
<path d="M293.894 18.9922C300.521 18.9922 305.894 24.3648 305.894 30.9922V56.8103C305.894 63.4377 300.521 68.8103 293.894 68.8103H53.0849C51.9793 68.8103 51.4069 67.4906 52.1624 66.6835C52.4013 66.4282 52.7353 66.2834 53.0849 66.2834H291.529C298.156 66.2834 303.529 60.9108 303.529 54.2834V33.5195C303.529 26.892 298.156 21.5195 291.529 21.5195H53.085C52.7353 21.5195 52.4013 21.3746 52.1623 21.1192C51.4069 20.3119 51.9793 18.9922 53.085 18.9922H293.894Z" fill="#FCFBFF"/>
<path d="M254.211 14.4168C253.413 13.564 252.297 13.0801 251.129 13.0801H165.311C164.143 13.0801 163.028 13.564 162.23 14.4167C159.707 17.1131 161.619 21.5207 165.311 21.5207H251.129C254.822 21.5207 256.734 17.1132 254.211 14.4168Z" fill="#FCFBFF"/>
<path d="M43.6715 56.7475C42.6322 56.6117 41.6475 56.2927 40.9003 55.6878C38.8219 53.8796 38.4569 50.4124 40.074 47.9247C41.7024 45.4415 44.7022 44.8801 46.7692 46.6838C47.2633 47.1147 47.8508 48.256 48.3523 49.7288C54.7173 47.4637 59.4833 45.7911 64.7626 44.0156L48.4686 37.7753C48.4744 38.5239 47.3298 40.2778 46.8561 40.6745C44.7173 42.3545 41.7423 41.638 40.2202 39.0708C38.6827 36.5122 39.1795 33.0516 41.3069 31.3671C41.8225 30.9578 42.9747 30.7143 44.3271 30.609C44.4496 22.3895 44.4941 16.6078 44.5287 10.7314C41.1781 16.0555 37.7147 21.3317 34.3906 26.6518C34.9483 27.2105 35.918 28.5186 36.1513 29.3139C36.9158 32.1647 35.4349 35.2188 32.8615 36.1402C30.2805 37.0441 27.5626 35.4641 26.802 32.6002C26.6249 31.9151 26.7678 30.5818 27.0677 29.0622C20.1629 26.3563 16.0326 24.6821 10.868 22.5522L20.8909 38.6314C21.3543 38.0989 23.0182 37.4591 23.6409 37.4583C26.2373 37.5265 28.3023 40.105 28.2371 43.2253C28.1758 46.3326 26.0311 48.8004 23.4347 48.7322C22.8199 48.7068 21.7612 48.1243 20.6169 47.3173C15.8886 54.5805 13.5411 58.2846 10.2888 63.1503L26.629 57.1603C26.3529 56.5089 26.3265 54.4643 26.5138 53.7925C27.3665 50.9712 30.1262 49.5093 32.6774 50.5399C35.2325 51.5575 36.6138 54.6832 35.7612 57.5045C35.5586 58.1848 34.811 59.1602 33.7366 60.1665C36.7939 65.0865 40.5481 71.2498 43.596 76.4148C43.5921 69.8572 43.6868 63.3096 43.6715 56.7475ZM34.1575 45.5685C32.8061 45.0303 32.0824 43.3226 32.5459 41.7657C33.0132 40.1958 34.4926 39.3654 35.844 39.9036C37.1953 40.4418 37.9191 42.1495 37.4517 43.7194C36.9882 45.2763 35.5202 46.1112 34.1575 45.5685Z" fill="#DD2626"/>
</svg>
