<svg width="623" height="158" viewBox="0 0 623 158" fill="none" xmlns="http://www.w3.org/2000/svg">
<mask id="path-1-inside-1_30_3578" fill="white">
<path d="M381.077 124.644H364.851L349.172 140.444L333.493 156.244H350.679H367.866L382.586 141.514C390.681 133.413 397.304 126.303 397.304 125.714C397.304 125.125 390.002 124.644 381.077 124.644Z"/>
<path fill-rule="evenodd" clip-rule="evenodd" d="M609.436 142.639L595.955 128.154L538.962 128.156H481.969L476.939 122.889L471.909 117.622H447.268H422.624L402.554 137.811L382.484 158L502.783 158C568.949 158 623.045 157.802 623 157.561C622.953 157.321 616.85 150.604 609.436 142.639ZM593.165 133.605L601.978 142.73C606.824 147.749 610.799 152.054 610.811 152.294C610.822 152.535 562.214 152.733 502.794 152.733H394.755L409.555 137.811L424.355 122.889H446.648C468.881 122.889 468.958 122.903 474.872 128.112L480.802 133.334L536.985 133.47L593.165 133.605Z"/>
<path fill-rule="evenodd" clip-rule="evenodd" d="M526.315 56.5482L469.919 0L380.556 0L291.194 0L286.164 5.26667L281.133 10.5333L181.149 10.5333L81.1655 10.5333L76.1352 5.26667L71.105 0L47.3666 0.0175727L23.6282 0.0333774L11.8141 11.4041L1.41635e-05 22.773V63.1754V103.578L238.564 103.578L477.128 103.578L483.16 109.859L489.191 116.141L511.786 115.868L534.38 115.595C559.234 115.293 580.277 114.608 581.141 114.072C582.006 113.535 557.335 87.6514 526.315 56.5482ZM466.438 5.31231L518.464 56.6325C558.787 96.4081 569.812 108.198 567.47 109.053C565.809 109.659 547.985 110.295 527.859 110.465L491.265 110.772L484.915 104.554L478.567 98.3357L241.977 98.2988L5.38895 98.2619L4.88131 62.2467L4.3756 26.2333L14.877 15.8228L25.3784 5.41239L46.9729 5.14553L68.5673 4.87696L74.1855 10.3385L79.802 15.8L181.233 15.7719L282.663 15.7438L288.589 10.5053L294.514 5.26667L380.477 5.28949L466.438 5.31231Z"/>
<path d="M331.118 125.556C330.62 125.054 323.435 124.644 315.151 124.644H300.092L284.413 140.444L268.735 156.244H285.212H301.688L316.857 141.356C325.201 133.166 331.619 126.056 331.118 125.556Z"/>
<path d="M250.721 124.809L235.407 124.513L219.691 140.38L203.976 156.244H220.605H237.234L251.635 141.724C259.555 133.738 266.036 126.732 266.036 126.156C266.036 125.578 259.143 124.973 250.721 124.809Z"/>
<path fill-rule="evenodd" clip-rule="evenodd" d="M104.543 122.889L1.41635e-05 122.889V140.444V158H87.1076H174.215L191.651 140.444L209.087 122.889H104.543ZM5.25069 128.156H99.7634C155.095 128.156 194.276 128.816 194.276 129.746C194.276 130.622 188.667 136.547 181.811 142.913L169.347 154.489H87.2983H5.25069V141.322V128.156Z"/>
</mask>
<path d="M381.077 124.644H364.851L349.172 140.444L333.493 156.244H350.679H367.866L382.586 141.514C390.681 133.413 397.304 126.303 397.304 125.714C397.304 125.125 390.002 124.644 381.077 124.644Z" fill="url(#paint0_linear_30_3578)"/>
<path fill-rule="evenodd" clip-rule="evenodd" d="M609.436 142.639L595.955 128.154L538.962 128.156H481.969L476.939 122.889L471.909 117.622H447.268H422.624L402.554 137.811L382.484 158L502.783 158C568.949 158 623.045 157.802 623 157.561C622.953 157.321 616.85 150.604 609.436 142.639ZM593.165 133.605L601.978 142.73C606.824 147.749 610.799 152.054 610.811 152.294C610.822 152.535 562.214 152.733 502.794 152.733H394.755L409.555 137.811L424.355 122.889H446.648C468.881 122.889 468.958 122.903 474.872 128.112L480.802 133.334L536.985 133.47L593.165 133.605Z" fill="url(#paint1_linear_30_3578)"/>
<path fill-rule="evenodd" clip-rule="evenodd" d="M526.315 56.5482L469.919 0L380.556 0L291.194 0L286.164 5.26667L281.133 10.5333L181.149 10.5333L81.1655 10.5333L76.1352 5.26667L71.105 0L47.3666 0.0175727L23.6282 0.0333774L11.8141 11.4041L1.41635e-05 22.773V63.1754V103.578L238.564 103.578L477.128 103.578L483.16 109.859L489.191 116.141L511.786 115.868L534.38 115.595C559.234 115.293 580.277 114.608 581.141 114.072C582.006 113.535 557.335 87.6514 526.315 56.5482ZM466.438 5.31231L518.464 56.6325C558.787 96.4081 569.812 108.198 567.47 109.053C565.809 109.659 547.985 110.295 527.859 110.465L491.265 110.772L484.915 104.554L478.567 98.3357L241.977 98.2988L5.38895 98.2619L4.88131 62.2467L4.3756 26.2333L14.877 15.8228L25.3784 5.41239L46.9729 5.14553L68.5673 4.87696L74.1855 10.3385L79.802 15.8L181.233 15.7719L282.663 15.7438L288.589 10.5053L294.514 5.26667L380.477 5.28949L466.438 5.31231Z" fill="url(#paint2_linear_30_3578)"/>
<path d="M331.118 125.556C330.62 125.054 323.435 124.644 315.151 124.644H300.092L284.413 140.444L268.735 156.244H285.212H301.688L316.857 141.356C325.201 133.166 331.619 126.056 331.118 125.556Z" fill="url(#paint3_linear_30_3578)"/>
<path d="M250.721 124.809L235.407 124.513L219.691 140.38L203.976 156.244H220.605H237.234L251.635 141.724C259.555 133.738 266.036 126.732 266.036 126.156C266.036 125.578 259.143 124.973 250.721 124.809Z" fill="url(#paint4_linear_30_3578)"/>
<path fill-rule="evenodd" clip-rule="evenodd" d="M104.543 122.889L1.41635e-05 122.889V140.444V158H87.1076H174.215L191.651 140.444L209.087 122.889H104.543ZM5.25069 128.156H99.7634C155.095 128.156 194.276 128.816 194.276 129.746C194.276 130.622 188.667 136.547 181.811 142.913L169.347 154.489H87.2983H5.25069V141.322V128.156Z" fill="url(#paint5_linear_30_3578)"/>
<path d="M381.077 124.644H364.851L349.172 140.444L333.493 156.244H350.679H367.866L382.586 141.514C390.681 133.413 397.304 126.303 397.304 125.714C397.304 125.125 390.002 124.644 381.077 124.644Z" stroke="#D7CC00" stroke-width="2" mask="url(#path-1-inside-1_30_3578)"/>
<path fill-rule="evenodd" clip-rule="evenodd" d="M609.436 142.639L595.955 128.154L538.962 128.156H481.969L476.939 122.889L471.909 117.622H447.268H422.624L402.554 137.811L382.484 158L502.783 158C568.949 158 623.045 157.802 623 157.561C622.953 157.321 616.85 150.604 609.436 142.639ZM593.165 133.605L601.978 142.73C606.824 147.749 610.799 152.054 610.811 152.294C610.822 152.535 562.214 152.733 502.794 152.733H394.755L409.555 137.811L424.355 122.889H446.648C468.881 122.889 468.958 122.903 474.872 128.112L480.802 133.334L536.985 133.47L593.165 133.605Z" stroke="#D7CC00" stroke-width="2" mask="url(#path-1-inside-1_30_3578)"/>
<path fill-rule="evenodd" clip-rule="evenodd" d="M526.315 56.5482L469.919 0L380.556 0L291.194 0L286.164 5.26667L281.133 10.5333L181.149 10.5333L81.1655 10.5333L76.1352 5.26667L71.105 0L47.3666 0.0175727L23.6282 0.0333774L11.8141 11.4041L1.41635e-05 22.773V63.1754V103.578L238.564 103.578L477.128 103.578L483.16 109.859L489.191 116.141L511.786 115.868L534.38 115.595C559.234 115.293 580.277 114.608 581.141 114.072C582.006 113.535 557.335 87.6514 526.315 56.5482ZM466.438 5.31231L518.464 56.6325C558.787 96.4081 569.812 108.198 567.47 109.053C565.809 109.659 547.985 110.295 527.859 110.465L491.265 110.772L484.915 104.554L478.567 98.3357L241.977 98.2988L5.38895 98.2619L4.88131 62.2467L4.3756 26.2333L14.877 15.8228L25.3784 5.41239L46.9729 5.14553L68.5673 4.87696L74.1855 10.3385L79.802 15.8L181.233 15.7719L282.663 15.7438L288.589 10.5053L294.514 5.26667L380.477 5.28949L466.438 5.31231Z" stroke="#D7CC00" stroke-width="2" mask="url(#path-1-inside-1_30_3578)"/>
<path d="M331.118 125.556C330.62 125.054 323.435 124.644 315.151 124.644H300.092L284.413 140.444L268.735 156.244H285.212H301.688L316.857 141.356C325.201 133.166 331.619 126.056 331.118 125.556Z" stroke="#D7CC00" stroke-width="2" mask="url(#path-1-inside-1_30_3578)"/>
<path d="M250.721 124.809L235.407 124.513L219.691 140.38L203.976 156.244H220.605H237.234L251.635 141.724C259.555 133.738 266.036 126.732 266.036 126.156C266.036 125.578 259.143 124.973 250.721 124.809Z" stroke="#D7CC00" stroke-width="2" mask="url(#path-1-inside-1_30_3578)"/>
<path fill-rule="evenodd" clip-rule="evenodd" d="M104.543 122.889L1.41635e-05 122.889V140.444V158H87.1076H174.215L191.651 140.444L209.087 122.889H104.543ZM5.25069 128.156H99.7634C155.095 128.156 194.276 128.816 194.276 129.746C194.276 130.622 188.667 136.547 181.811 142.913L169.347 154.489H87.2983H5.25069V141.322V128.156Z" stroke="#D7CC00" stroke-width="2" mask="url(#path-1-inside-1_30_3578)"/>
<path d="M89.408 45.4H106.976C107.744 45.4 108.512 45.72 109.28 46.36L110.432 47.32C111.2 47.96 111.584 48.76 111.584 49.72V74.68C111.584 75.64 111.2 76.44 110.432 77.08L109.28 78.04C108.512 78.68 107.744 79 106.976 79H89.408C88.64 79 87.872 78.68 87.104 78.04L85.952 77.08C85.184 76.44 84.8 75.64 84.8 74.68V49.72C84.8 48.76 85.184 47.96 85.952 47.32L87.104 46.36C87.872 45.72 88.64 45.4 89.408 45.4ZM107.552 73.672V50.728C107.552 50.248 107.52 49.944 107.456 49.816C107.424 49.656 107.264 49.464 106.976 49.24C106.688 49.016 106.464 48.888 106.304 48.856C106.144 48.792 105.776 48.76 105.2 48.76H91.184C90.608 48.76 90.24 48.792 90.08 48.856C89.92 48.888 89.696 49.016 89.408 49.24C89.12 49.464 88.944 49.656 88.88 49.816C88.848 49.944 88.832 50.248 88.832 50.728V73.672C88.832 74.152 88.848 74.472 88.88 74.632C88.944 74.76 89.12 74.936 89.408 75.16C89.696 75.384 89.92 75.528 90.08 75.592C90.24 75.624 90.608 75.64 91.184 75.64H105.2C105.776 75.64 106.144 75.624 106.304 75.592C106.464 75.528 106.688 75.384 106.976 75.16C107.264 74.936 107.424 74.76 107.456 74.632C107.52 74.472 107.552 74.152 107.552 73.672ZM129.047 65.56V79H125.015V45.4H142.775C143.543 45.4 144.311 45.72 145.079 46.36L146.231 47.32C146.999 47.96 147.383 48.76 147.383 49.72V61.24C147.383 62.2 146.999 63 146.231 63.64L145.079 64.6C144.311 65.24 143.543 65.56 142.775 65.56H129.047ZM129.047 48.76V62.2H140.999C141.575 62.2 141.943 62.184 142.103 62.152C142.263 62.088 142.487 61.944 142.775 61.72C143.063 61.496 143.223 61.32 143.255 61.192C143.319 61.032 143.351 60.712 143.351 60.232V50.728C143.351 50.248 143.319 49.944 143.255 49.816C143.223 49.656 143.063 49.464 142.775 49.24C142.487 49.016 142.263 48.888 142.103 48.856C141.943 48.792 141.575 48.76 140.999 48.76H129.047ZM181.109 75.64V79H159.605V45.4H181.109V48.76H163.637V60.28H178.421V63.64H163.637V75.64H181.109ZM214.951 72.76L215.095 72.712C214.871 71.944 214.759 71.176 214.759 70.408V45.4H218.791V79H214.759L197.191 52.024L197.047 52.072C197.271 52.84 197.383 53.608 197.383 54.376V79H193.351V45.4H197.383L214.951 72.76ZM269.598 75.64V79H248.094V45.4H269.598V48.76H252.126V60.28H266.91V63.64H252.126V75.64H269.598ZM291.44 76.024H291.632C291.632 75.832 291.728 75.416 291.92 74.776L301.04 45.4H305.312L294.176 79H288.896L277.76 45.4H282.032L291.152 74.776C291.344 75.416 291.44 75.832 291.44 76.024ZM336.153 75.64V79H314.649V45.4H336.153V48.76H318.681V60.28H333.465V63.64H318.681V75.64H336.153ZM369.995 72.76L370.139 72.712C369.915 71.944 369.803 71.176 369.803 70.408V45.4H373.835V79H369.803L352.235 52.024L352.091 52.072C352.315 52.84 352.427 53.608 352.427 54.376V79H348.395V45.4H352.427L369.995 72.76ZM382.209 45.4H407.553V48.76H396.897V79H392.865V48.76H382.209V45.4ZM431.294 63.64H419.822C419.054 63.64 418.286 63.32 417.518 62.68L416.222 61.576C415.55 61.032 415.214 60.392 415.214 59.656V49.72C415.214 48.76 415.598 47.96 416.366 47.32L417.518 46.36C418.286 45.72 419.054 45.4 419.822 45.4H432.59C433.358 45.4 434.126 45.72 434.894 46.36L436.046 47.32C436.814 47.96 437.198 48.76 437.198 49.72V51.64H433.166V50.728C433.166 50.248 433.134 49.944 433.07 49.816C433.038 49.656 432.878 49.464 432.59 49.24C432.302 49.016 432.078 48.888 431.918 48.856C431.758 48.792 431.39 48.76 430.814 48.76H421.598C421.022 48.76 420.654 48.792 420.494 48.856C420.334 48.888 420.11 49.016 419.822 49.24C419.534 49.464 419.358 49.656 419.294 49.816C419.262 49.944 419.246 50.248 419.246 50.728V58.312C419.246 58.792 419.262 59.112 419.294 59.272C419.358 59.4 419.534 59.576 419.822 59.8C420.11 60.024 420.334 60.168 420.494 60.232C420.654 60.264 421.022 60.28 421.598 60.28H433.07C433.838 60.28 434.606 60.6 435.374 61.24L436.526 62.2C437.294 62.84 437.678 63.64 437.678 64.6V74.68C437.678 75.64 437.294 76.44 436.526 77.08L435.374 78.04C434.606 78.68 433.838 79 433.07 79H419.342C418.574 79 417.806 78.68 417.038 78.04L415.886 77.08C415.118 76.44 414.734 75.64 414.734 74.68V72.76H418.766V73.672C418.766 74.152 418.782 74.472 418.814 74.632C418.878 74.76 419.054 74.936 419.342 75.16C419.63 75.384 419.854 75.528 420.014 75.592C420.174 75.624 420.542 75.64 421.118 75.64H431.294C431.87 75.64 432.238 75.624 432.398 75.592C432.558 75.528 432.782 75.384 433.07 75.16C433.358 74.936 433.518 74.76 433.55 74.632C433.614 74.472 433.646 74.152 433.646 73.672V65.608C433.646 65.128 433.614 64.824 433.55 64.696C433.518 64.536 433.358 64.344 433.07 64.12C432.782 63.896 432.558 63.768 432.398 63.736C432.238 63.672 431.87 63.64 431.294 63.64Z" fill="white"/>
<defs>
<linearGradient id="paint0_linear_30_3578" x1="311.5" y1="0" x2="311.5" y2="158" gradientUnits="userSpaceOnUse">
<stop stop-color="#C51C07"/>
<stop offset="1" stop-color="#B56210"/>
</linearGradient>
<linearGradient id="paint1_linear_30_3578" x1="311.5" y1="0" x2="311.5" y2="158" gradientUnits="userSpaceOnUse">
<stop stop-color="#C51C07"/>
<stop offset="1" stop-color="#B56210"/>
</linearGradient>
<linearGradient id="paint2_linear_30_3578" x1="311.5" y1="0" x2="311.5" y2="158" gradientUnits="userSpaceOnUse">
<stop stop-color="#C51C07"/>
<stop offset="1" stop-color="#B56210"/>
</linearGradient>
<linearGradient id="paint3_linear_30_3578" x1="311.5" y1="0" x2="311.5" y2="158" gradientUnits="userSpaceOnUse">
<stop stop-color="#C51C07"/>
<stop offset="1" stop-color="#B56210"/>
</linearGradient>
<linearGradient id="paint4_linear_30_3578" x1="311.5" y1="0" x2="311.5" y2="158" gradientUnits="userSpaceOnUse">
<stop stop-color="#C51C07"/>
<stop offset="1" stop-color="#B56210"/>
</linearGradient>
<linearGradient id="paint5_linear_30_3578" x1="311.5" y1="0" x2="311.5" y2="158" gradientUnits="userSpaceOnUse">
<stop stop-color="#C51C07"/>
<stop offset="1" stop-color="#B56210"/>
</linearGradient>
</defs>
</svg>
