<svg width="623" height="158" viewBox="0 0 623 158" fill="none" xmlns="http://www.w3.org/2000/svg">
<mask id="path-1-inside-1_30_3579" fill="white">
<path d="M241.923 124.644H258.149L273.828 140.444L289.507 156.244H272.321H255.134L240.414 141.514C232.319 133.413 225.696 126.303 225.696 125.714C225.696 125.125 232.998 124.644 241.923 124.644Z"/>
<path fill-rule="evenodd" clip-rule="evenodd" d="M13.5644 142.639L27.0447 128.154L84.0376 128.156H141.031L146.061 122.889L151.091 117.622H175.732H200.376L220.446 137.811L240.516 158L120.217 158C54.0509 158 -0.0454774 157.802 2.8689e-05 157.561C0.0472851 157.321 6.15036 150.604 13.5644 142.639ZM29.8346 133.605L21.0222 142.73C16.1758 147.749 12.201 152.054 12.1888 152.294C12.1783 152.535 60.7858 152.733 120.206 152.733H228.245L213.445 137.811L198.645 122.889H176.352C154.119 122.889 154.042 122.903 148.128 128.112L142.198 133.334L86.0154 133.47L29.8346 133.605Z"/>
<path fill-rule="evenodd" clip-rule="evenodd" d="M96.6848 56.5482L153.081 0L242.444 0L331.806 0L336.836 5.26667L341.867 10.5333L441.851 10.5333L541.835 10.5333L546.865 5.26667L551.895 0L575.633 0.0175727L599.372 0.0333774L611.186 11.4041L623 22.773V63.1754V103.578L384.436 103.578L145.872 103.578L139.84 109.859L133.809 116.141L111.214 115.868L88.6198 115.595C63.7665 115.293 42.7233 114.608 41.8587 114.072C40.9941 113.535 65.6654 87.6514 96.6848 56.5482ZM156.562 5.31231L104.536 56.6325C64.2128 96.4081 53.188 108.198 55.5298 109.053C57.1908 109.659 75.0151 110.295 95.1411 110.465L131.735 110.772L138.085 104.554L144.433 98.3357L381.023 98.2988L617.611 98.2619L618.119 62.2467L618.624 26.2333L608.123 15.8228L597.622 5.41239L576.027 5.14553L554.433 4.87696L548.815 10.3385L543.198 15.8L441.767 15.7719L340.337 15.7438L334.411 10.5053L328.486 5.26667L242.523 5.28949L156.562 5.31231Z"/>
<path d="M291.882 125.556C292.38 125.054 299.565 124.644 307.849 124.644H322.908L338.587 140.444L354.265 156.244H337.788H321.312L306.143 141.356C297.799 133.166 291.381 126.056 291.882 125.556Z"/>
<path d="M372.279 124.809L387.593 124.513L403.309 140.38L419.024 156.244H402.395H385.766L371.365 141.724C363.445 133.738 356.964 126.732 356.964 126.156C356.964 125.578 363.857 124.973 372.279 124.809Z"/>
<path fill-rule="evenodd" clip-rule="evenodd" d="M518.457 122.889L623 122.889V140.444V158H535.892H448.785L431.349 140.444L413.913 122.889H518.457ZM617.749 128.156H523.237C467.905 128.156 428.724 128.816 428.724 129.746C428.724 130.622 434.333 136.547 441.189 142.913L453.653 154.489H535.702H617.749V141.322V128.156Z"/>
</mask>
<path d="M241.923 124.644H258.149L273.828 140.444L289.507 156.244H272.321H255.134L240.414 141.514C232.319 133.413 225.696 126.303 225.696 125.714C225.696 125.125 232.998 124.644 241.923 124.644Z" fill="url(#paint0_linear_30_3579)"/>
<path fill-rule="evenodd" clip-rule="evenodd" d="M13.5644 142.639L27.0447 128.154L84.0376 128.156H141.031L146.061 122.889L151.091 117.622H175.732H200.376L220.446 137.811L240.516 158L120.217 158C54.0509 158 -0.0454774 157.802 2.8689e-05 157.561C0.0472851 157.321 6.15036 150.604 13.5644 142.639ZM29.8346 133.605L21.0222 142.73C16.1758 147.749 12.201 152.054 12.1888 152.294C12.1783 152.535 60.7858 152.733 120.206 152.733H228.245L213.445 137.811L198.645 122.889H176.352C154.119 122.889 154.042 122.903 148.128 128.112L142.198 133.334L86.0154 133.47L29.8346 133.605Z" fill="url(#paint1_linear_30_3579)"/>
<path fill-rule="evenodd" clip-rule="evenodd" d="M96.6848 56.5482L153.081 0L242.444 0L331.806 0L336.836 5.26667L341.867 10.5333L441.851 10.5333L541.835 10.5333L546.865 5.26667L551.895 0L575.633 0.0175727L599.372 0.0333774L611.186 11.4041L623 22.773V63.1754V103.578L384.436 103.578L145.872 103.578L139.84 109.859L133.809 116.141L111.214 115.868L88.6198 115.595C63.7665 115.293 42.7233 114.608 41.8587 114.072C40.9941 113.535 65.6654 87.6514 96.6848 56.5482ZM156.562 5.31231L104.536 56.6325C64.2128 96.4081 53.188 108.198 55.5298 109.053C57.1908 109.659 75.0151 110.295 95.1411 110.465L131.735 110.772L138.085 104.554L144.433 98.3357L381.023 98.2988L617.611 98.2619L618.119 62.2467L618.624 26.2333L608.123 15.8228L597.622 5.41239L576.027 5.14553L554.433 4.87696L548.815 10.3385L543.198 15.8L441.767 15.7719L340.337 15.7438L334.411 10.5053L328.486 5.26667L242.523 5.28949L156.562 5.31231Z" fill="url(#paint2_linear_30_3579)"/>
<path d="M291.882 125.556C292.38 125.054 299.565 124.644 307.849 124.644H322.908L338.587 140.444L354.265 156.244H337.788H321.312L306.143 141.356C297.799 133.166 291.381 126.056 291.882 125.556Z" fill="url(#paint3_linear_30_3579)"/>
<path d="M372.279 124.809L387.593 124.513L403.309 140.38L419.024 156.244H402.395H385.766L371.365 141.724C363.445 133.738 356.964 126.732 356.964 126.156C356.964 125.578 363.857 124.973 372.279 124.809Z" fill="url(#paint4_linear_30_3579)"/>
<path fill-rule="evenodd" clip-rule="evenodd" d="M518.457 122.889L623 122.889V140.444V158H535.892H448.785L431.349 140.444L413.913 122.889H518.457ZM617.749 128.156H523.237C467.905 128.156 428.724 128.816 428.724 129.746C428.724 130.622 434.333 136.547 441.189 142.913L453.653 154.489H535.702H617.749V141.322V128.156Z" fill="url(#paint5_linear_30_3579)"/>
<path d="M241.923 124.644H258.149L273.828 140.444L289.507 156.244H272.321H255.134L240.414 141.514C232.319 133.413 225.696 126.303 225.696 125.714C225.696 125.125 232.998 124.644 241.923 124.644Z" stroke="#D7CC00" stroke-width="2" mask="url(#path-1-inside-1_30_3579)"/>
<path fill-rule="evenodd" clip-rule="evenodd" d="M13.5644 142.639L27.0447 128.154L84.0376 128.156H141.031L146.061 122.889L151.091 117.622H175.732H200.376L220.446 137.811L240.516 158L120.217 158C54.0509 158 -0.0454774 157.802 2.8689e-05 157.561C0.0472851 157.321 6.15036 150.604 13.5644 142.639ZM29.8346 133.605L21.0222 142.73C16.1758 147.749 12.201 152.054 12.1888 152.294C12.1783 152.535 60.7858 152.733 120.206 152.733H228.245L213.445 137.811L198.645 122.889H176.352C154.119 122.889 154.042 122.903 148.128 128.112L142.198 133.334L86.0154 133.47L29.8346 133.605Z" stroke="#D7CC00" stroke-width="2" mask="url(#path-1-inside-1_30_3579)"/>
<path fill-rule="evenodd" clip-rule="evenodd" d="M96.6848 56.5482L153.081 0L242.444 0L331.806 0L336.836 5.26667L341.867 10.5333L441.851 10.5333L541.835 10.5333L546.865 5.26667L551.895 0L575.633 0.0175727L599.372 0.0333774L611.186 11.4041L623 22.773V63.1754V103.578L384.436 103.578L145.872 103.578L139.84 109.859L133.809 116.141L111.214 115.868L88.6198 115.595C63.7665 115.293 42.7233 114.608 41.8587 114.072C40.9941 113.535 65.6654 87.6514 96.6848 56.5482ZM156.562 5.31231L104.536 56.6325C64.2128 96.4081 53.188 108.198 55.5298 109.053C57.1908 109.659 75.0151 110.295 95.1411 110.465L131.735 110.772L138.085 104.554L144.433 98.3357L381.023 98.2988L617.611 98.2619L618.119 62.2467L618.624 26.2333L608.123 15.8228L597.622 5.41239L576.027 5.14553L554.433 4.87696L548.815 10.3385L543.198 15.8L441.767 15.7719L340.337 15.7438L334.411 10.5053L328.486 5.26667L242.523 5.28949L156.562 5.31231Z" stroke="#D7CC00" stroke-width="2" mask="url(#path-1-inside-1_30_3579)"/>
<path d="M291.882 125.556C292.38 125.054 299.565 124.644 307.849 124.644H322.908L338.587 140.444L354.265 156.244H337.788H321.312L306.143 141.356C297.799 133.166 291.381 126.056 291.882 125.556Z" stroke="#D7CC00" stroke-width="2" mask="url(#path-1-inside-1_30_3579)"/>
<path d="M372.279 124.809L387.593 124.513L403.309 140.38L419.024 156.244H402.395H385.766L371.365 141.724C363.445 133.738 356.964 126.732 356.964 126.156C356.964 125.578 363.857 124.973 372.279 124.809Z" stroke="#D7CC00" stroke-width="2" mask="url(#path-1-inside-1_30_3579)"/>
<path fill-rule="evenodd" clip-rule="evenodd" d="M518.457 122.889L623 122.889V140.444V158H535.892H448.785L431.349 140.444L413.913 122.889H518.457ZM617.749 128.156H523.237C467.905 128.156 428.724 128.816 428.724 129.746C428.724 130.622 434.333 136.547 441.189 142.913L453.653 154.489H535.702H617.749V141.322V128.156Z" stroke="#D7CC00" stroke-width="2" mask="url(#path-1-inside-1_30_3579)"/>
<path d="M245.8 45.4H263.56C264.328 45.4 265.096 45.72 265.864 46.36L267.016 47.32C267.784 47.96 268.168 48.76 268.168 49.72V60.952C268.168 61.944 267.768 62.776 266.968 63.448L265.768 64.456C265.064 65.032 264.328 65.32 263.56 65.32H260.872L265.816 73C266.168 73.544 266.408 73.896 266.536 74.056C266.696 74.184 267.032 74.392 267.544 74.68L268.072 74.968C268.648 75.288 268.984 75.544 269.08 75.736C269.176 75.928 269.224 76.392 269.224 77.128V79H268.024C267.448 79 267.048 78.968 266.824 78.904C266.632 78.84 266.28 78.632 265.768 78.28L264.856 77.656C264.152 77.176 263.576 76.552 263.128 75.784L256.744 65.56H249.832V79H245.8V45.4ZM249.832 48.76V62.2H261.784C262.36 62.2 262.728 62.184 262.888 62.152C263.048 62.088 263.272 61.944 263.56 61.72C263.848 61.496 264.008 61.32 264.04 61.192C264.104 61.032 264.136 60.712 264.136 60.232V50.728C264.136 50.248 264.104 49.944 264.04 49.816C264.008 49.656 263.848 49.464 263.56 49.24C263.272 49.016 263.048 48.888 262.888 48.856C262.728 48.792 262.36 48.76 261.784 48.76H249.832ZM286.545 45.4H304.113C304.881 45.4 305.649 45.72 306.417 46.36L307.569 47.32C308.337 47.96 308.721 48.76 308.721 49.72V74.68C308.721 75.64 308.337 76.44 307.569 77.08L306.417 78.04C305.649 78.68 304.881 79 304.113 79H286.545C285.777 79 285.009 78.68 284.241 78.04L283.089 77.08C282.321 76.44 281.937 75.64 281.937 74.68V49.72C281.937 48.76 282.321 47.96 283.089 47.32L284.241 46.36C285.009 45.72 285.777 45.4 286.545 45.4ZM304.689 73.672V50.728C304.689 50.248 304.657 49.944 304.593 49.816C304.561 49.656 304.401 49.464 304.113 49.24C303.825 49.016 303.601 48.888 303.441 48.856C303.281 48.792 302.913 48.76 302.337 48.76H288.321C287.745 48.76 287.377 48.792 287.217 48.856C287.057 48.888 286.833 49.016 286.545 49.24C286.257 49.464 286.081 49.656 286.017 49.816C285.985 49.944 285.969 50.248 285.969 50.728V73.672C285.969 74.152 285.985 74.472 286.017 74.632C286.081 74.76 286.257 74.936 286.545 75.16C286.833 75.384 287.057 75.528 287.217 75.592C287.377 75.624 287.745 75.64 288.321 75.64H302.337C302.913 75.64 303.281 75.624 303.441 75.592C303.601 75.528 303.825 75.384 304.113 75.16C304.401 74.936 304.561 74.76 304.593 74.632C304.657 74.472 304.689 74.152 304.689 73.672ZM340.248 65.128L339.192 64.264C338.808 63.944 338.536 63.768 338.376 63.736C338.216 63.672 337.896 63.64 337.416 63.64H326.184V75.64H338.712C339.288 75.64 339.656 75.624 339.816 75.592C339.976 75.528 340.2 75.384 340.488 75.16C340.776 74.936 340.936 74.76 340.968 74.632C341.032 74.472 341.064 74.152 341.064 73.672V66.856C341.064 66.344 341.032 66.008 340.968 65.848C340.904 65.688 340.664 65.448 340.248 65.128ZM326.184 48.76V60.28H336.6C337.176 60.28 337.544 60.264 337.704 60.232C337.896 60.168 338.152 60.008 338.472 59.752L339.72 58.744C340.104 58.424 340.328 58.184 340.392 58.024C340.456 57.864 340.488 57.512 340.488 56.968V50.728C340.488 50.248 340.456 49.944 340.392 49.816C340.36 49.656 340.2 49.464 339.912 49.24C339.624 49.016 339.4 48.888 339.24 48.856C339.08 48.792 338.712 48.76 338.136 48.76H326.184ZM340.776 61.432V61.672C341.16 61.672 341.608 61.88 342.12 62.296L344.424 64.168C344.712 64.424 344.888 64.664 344.952 64.888C345.048 65.08 345.096 65.464 345.096 66.04V74.68C345.096 75.64 344.712 76.44 343.944 77.08C343.688 77.272 343.304 77.592 342.792 78.04C342.024 78.68 341.256 79 340.488 79H322.152V45.4H339.912C340.68 45.4 341.448 45.72 342.216 46.36L343.368 47.32C344.136 47.96 344.52 48.76 344.52 49.72V57.928C344.52 58.6 344.264 59.144 343.752 59.56L342.12 60.808C341.608 61.224 341.16 61.432 340.776 61.432ZM361.959 45.4H379.527C380.295 45.4 381.063 45.72 381.831 46.36L382.983 47.32C383.751 47.96 384.135 48.76 384.135 49.72V74.68C384.135 75.64 383.751 76.44 382.983 77.08L381.831 78.04C381.063 78.68 380.295 79 379.527 79H361.959C361.191 79 360.423 78.68 359.655 78.04L358.503 77.08C357.735 76.44 357.351 75.64 357.351 74.68V49.72C357.351 48.76 357.735 47.96 358.503 47.32L359.655 46.36C360.423 45.72 361.191 45.4 361.959 45.4ZM380.103 73.672V50.728C380.103 50.248 380.071 49.944 380.007 49.816C379.975 49.656 379.815 49.464 379.527 49.24C379.239 49.016 379.015 48.888 378.855 48.856C378.695 48.792 378.327 48.76 377.751 48.76H363.735C363.159 48.76 362.791 48.792 362.631 48.856C362.471 48.888 362.247 49.016 361.959 49.24C361.671 49.464 361.495 49.656 361.431 49.816C361.399 49.944 361.383 50.248 361.383 50.728V73.672C361.383 74.152 361.399 74.472 361.431 74.632C361.495 74.76 361.671 74.936 361.959 75.16C362.247 75.384 362.471 75.528 362.631 75.592C362.791 75.624 363.159 75.64 363.735 75.64H377.751C378.327 75.64 378.695 75.624 378.855 75.592C379.015 75.528 379.239 75.384 379.527 75.16C379.815 74.936 379.975 74.76 380.007 74.632C380.071 74.472 380.103 74.152 380.103 73.672ZM392.478 45.4H417.822V48.76H407.166V79H403.134V48.76H392.478V45.4ZM426.203 45.4H430.235V79H426.203V45.4ZM468.356 51.64H464.324V50.728C464.324 50.248 464.292 49.944 464.228 49.816C464.196 49.656 464.036 49.464 463.748 49.24C463.46 49.016 463.236 48.888 463.076 48.856C462.916 48.792 462.548 48.76 461.972 48.76H450.068C449.492 48.76 449.124 48.792 448.964 48.856C448.804 48.888 448.58 49.016 448.292 49.24C448.004 49.464 447.828 49.656 447.764 49.816C447.732 49.944 447.716 50.248 447.716 50.728V73.672C447.716 74.152 447.732 74.472 447.764 74.632C447.828 74.76 448.004 74.936 448.292 75.16C448.58 75.384 448.804 75.528 448.964 75.592C449.124 75.624 449.492 75.64 450.068 75.64H461.972C462.548 75.64 462.916 75.624 463.076 75.592C463.236 75.528 463.46 75.384 463.748 75.16C464.036 74.936 464.196 74.76 464.228 74.632C464.292 74.472 464.324 74.152 464.324 73.672V72.76H468.356V74.68C468.356 75.64 467.972 76.44 467.204 77.08L466.052 78.04C465.284 78.68 464.516 79 463.748 79H448.292C447.524 79 446.756 78.68 445.988 78.04L444.836 77.08C444.068 76.44 443.684 75.64 443.684 74.68V49.72C443.684 48.76 444.068 47.96 444.836 47.32L445.988 46.36C446.756 45.72 447.524 45.4 448.292 45.4H463.748C464.516 45.4 465.284 45.72 466.052 46.36L467.204 47.32C467.972 47.96 468.356 48.76 468.356 49.72V51.64ZM494.712 63.64H483.24C482.472 63.64 481.704 63.32 480.936 62.68L479.64 61.576C478.968 61.032 478.632 60.392 478.632 59.656V49.72C478.632 48.76 479.016 47.96 479.784 47.32L480.936 46.36C481.704 45.72 482.472 45.4 483.24 45.4H496.008C496.776 45.4 497.544 45.72 498.312 46.36L499.464 47.32C500.232 47.96 500.616 48.76 500.616 49.72V51.64H496.584V50.728C496.584 50.248 496.552 49.944 496.488 49.816C496.456 49.656 496.296 49.464 496.008 49.24C495.72 49.016 495.496 48.888 495.336 48.856C495.176 48.792 494.808 48.76 494.232 48.76H485.016C484.44 48.76 484.072 48.792 483.912 48.856C483.752 48.888 483.528 49.016 483.24 49.24C482.952 49.464 482.776 49.656 482.712 49.816C482.68 49.944 482.664 50.248 482.664 50.728V58.312C482.664 58.792 482.68 59.112 482.712 59.272C482.776 59.4 482.952 59.576 483.24 59.8C483.528 60.024 483.752 60.168 483.912 60.232C484.072 60.264 484.44 60.28 485.016 60.28H496.488C497.256 60.28 498.024 60.6 498.792 61.24L499.944 62.2C500.712 62.84 501.096 63.64 501.096 64.6V74.68C501.096 75.64 500.712 76.44 499.944 77.08L498.792 78.04C498.024 78.68 497.256 79 496.488 79H482.76C481.992 79 481.224 78.68 480.456 78.04L479.304 77.08C478.536 76.44 478.152 75.64 478.152 74.68V72.76H482.184V73.672C482.184 74.152 482.2 74.472 482.232 74.632C482.296 74.76 482.472 74.936 482.76 75.16C483.048 75.384 483.272 75.528 483.432 75.592C483.592 75.624 483.96 75.64 484.536 75.64H494.712C495.288 75.64 495.656 75.624 495.816 75.592C495.976 75.528 496.2 75.384 496.488 75.16C496.776 74.936 496.936 74.76 496.968 74.632C497.032 74.472 497.064 74.152 497.064 73.672V65.608C497.064 65.128 497.032 64.824 496.968 64.696C496.936 64.536 496.776 64.344 496.488 64.12C496.2 63.896 495.976 63.768 495.816 63.736C495.656 63.672 495.288 63.64 494.712 63.64Z" fill="white"/>
<defs>
<linearGradient id="paint0_linear_30_3579" x1="311.5" y1="0" x2="311.5" y2="158" gradientUnits="userSpaceOnUse">
<stop stop-color="#C51C07"/>
<stop offset="1" stop-color="#B56210"/>
</linearGradient>
<linearGradient id="paint1_linear_30_3579" x1="311.5" y1="0" x2="311.5" y2="158" gradientUnits="userSpaceOnUse">
<stop stop-color="#C51C07"/>
<stop offset="1" stop-color="#B56210"/>
</linearGradient>
<linearGradient id="paint2_linear_30_3579" x1="311.5" y1="0" x2="311.5" y2="158" gradientUnits="userSpaceOnUse">
<stop stop-color="#C51C07"/>
<stop offset="1" stop-color="#B56210"/>
</linearGradient>
<linearGradient id="paint3_linear_30_3579" x1="311.5" y1="0" x2="311.5" y2="158" gradientUnits="userSpaceOnUse">
<stop stop-color="#C51C07"/>
<stop offset="1" stop-color="#B56210"/>
</linearGradient>
<linearGradient id="paint4_linear_30_3579" x1="311.5" y1="0" x2="311.5" y2="158" gradientUnits="userSpaceOnUse">
<stop stop-color="#C51C07"/>
<stop offset="1" stop-color="#B56210"/>
</linearGradient>
<linearGradient id="paint5_linear_30_3579" x1="311.5" y1="0" x2="311.5" y2="158" gradientUnits="userSpaceOnUse">
<stop stop-color="#C51C07"/>
<stop offset="1" stop-color="#B56210"/>
</linearGradient>
</defs>
</svg>
