<svg width="811" height="424" viewBox="0 0 811 424" fill="none" xmlns="http://www.w3.org/2000/svg">
<g filter="url(#filter0_bd_24_1693)">
<path d="M35.2808 154.13C12.2768 154.13 0.774807 140.498 0.774807 116.642V108.122H22.9268V118.346C22.9268 128.996 27.6128 132.83 35.0678 132.83C42.5228 132.83 47.4218 128.996 47.4218 117.92C47.4218 105.566 42.3098 97.898 26.9738 84.479C7.37781 67.226 0.774807 54.872 0.774807 37.832C0.774807 14.402 12.9158 0.769992 35.7068 0.769992C58.4978 0.769992 69.7868 14.402 69.7868 38.258V44.435H47.6348V36.767C47.6348 26.117 43.3748 22.07 35.9198 22.07C28.4648 22.07 23.9918 26.117 23.9918 36.341C23.9918 47.204 29.3168 54.872 44.6528 68.291C64.2488 85.544 70.6388 97.685 70.6388 116.216C70.6388 140.498 58.2848 154.13 35.2808 154.13ZM143.292 154.13C120.288 154.13 107.721 140.498 107.721 116.642V38.258C107.721 14.402 120.288 0.769992 143.292 0.769992C166.296 0.769992 178.863 14.402 178.863 38.258V116.642C178.863 140.498 166.296 154.13 143.292 154.13ZM143.292 132.83C150.747 132.83 155.433 128.783 155.433 118.133V36.767C155.433 26.117 150.747 22.07 143.292 22.07C135.837 22.07 131.151 26.117 131.151 36.767V118.133C131.151 128.783 135.837 132.83 143.292 132.83ZM220.268 152V2.89999H243.698V130.7H282.251V152H220.268ZM353.127 154.13C330.123 154.13 318.195 140.498 318.195 116.642V2.89999H341.625V118.346C341.625 128.996 346.098 132.83 353.553 132.83C361.008 132.83 365.481 128.996 365.481 118.346V2.89999H388.059V116.642C388.059 140.498 376.131 154.13 353.127 154.13ZM448.624 152V24.2H424.129V2.89999H496.549V24.2H472.054V152H448.624ZM533.453 152V2.89999H556.883V152H533.453ZM633.857 154.13C610.853 154.13 598.286 140.498 598.286 116.642V38.258C598.286 14.402 610.853 0.769992 633.857 0.769992C656.861 0.769992 669.428 14.402 669.428 38.258V116.642C669.428 140.498 656.861 154.13 633.857 154.13ZM633.857 132.83C641.312 132.83 645.998 128.783 645.998 118.133V36.767C645.998 26.117 641.312 22.07 633.857 22.07C626.402 22.07 621.716 26.117 621.716 36.767V118.133C621.716 128.783 626.402 132.83 633.857 132.83ZM710.834 152V2.89999H739.802L763.445 92.147V2.89999H784.319V152H760.676L731.708 43.157V152H710.834ZM393.612 408V391.812C393.612 369.66 399.576 356.241 417.042 337.923C434.934 318.966 440.046 308.955 440.046 295.11C440.046 281.691 435.36 278.07 427.905 278.07C420.45 278.07 415.764 282.117 415.764 292.767V308.742H393.612V294.258C393.612 270.402 405.54 256.77 428.544 256.77C451.548 256.77 463.476 270.402 463.476 294.258C463.476 311.937 456.234 327.273 434.508 350.277C420.45 365.187 416.829 373.068 416.829 383.505V386.7H461.346V408H393.612ZM554.447 408L534.851 342.396L525.266 361.14V408H501.836V258.9H525.266V323.013L554.66 258.9H578.516L550.613 313.641L578.942 408H554.447ZM611.97 408V391.812C611.97 369.66 617.934 356.241 635.4 337.923C653.292 318.966 658.404 308.955 658.404 295.11C658.404 281.691 653.718 278.07 646.263 278.07C638.808 278.07 634.122 282.117 634.122 292.767V308.742H611.97V294.258C611.97 270.402 623.898 256.77 646.902 256.77C669.906 256.77 681.834 270.402 681.834 294.258C681.834 311.937 674.592 327.273 652.866 350.277C638.808 365.187 635.187 373.068 635.187 383.505V386.7H679.704V408H611.97ZM752.57 410.13C729.566 410.13 717.638 396.498 717.638 372.642V360.927H739.79V374.346C739.79 384.996 744.476 388.83 751.931 388.83C759.386 388.83 764.072 384.996 764.072 374.346V340.905C764.072 330.255 759.386 326.208 751.931 326.208C744.476 326.208 739.79 330.255 739.79 340.905V342.183H717.638L721.898 258.9H783.668V280.2H742.772L740.855 315.771C745.115 308.742 752.144 304.908 761.516 304.908C778.769 304.908 787.502 317.049 787.502 338.988V372.642C787.502 396.498 775.574 410.13 752.57 410.13Z" fill="white"/>
</g>
<defs>
<filter id="filter0_bd_24_1693" x="-72.6251" y="-72.63" width="933.527" height="556.16" filterUnits="userSpaceOnUse" color-interpolation-filters="sRGB">
<feFlood flood-opacity="0" result="BackgroundImageFix"/>
<feGaussianBlur in="BackgroundImageFix" stdDeviation="36.7"/>
<feComposite in2="SourceAlpha" operator="in" result="effect1_backgroundBlur_24_1693"/>
<feColorMatrix in="SourceAlpha" type="matrix" values="0 0 0 0 0 0 0 0 0 0 0 0 0 0 0 0 0 0 127 0" result="hardAlpha"/>
<feOffset dx="16" dy="7"/>
<feGaussianBlur stdDeviation="3.4"/>
<feComposite in2="hardAlpha" operator="out"/>
<feColorMatrix type="matrix" values="0 0 0 0 0 0 0 0 0 0 0 0 0 0 0 0 0 0 0.69 0"/>
<feBlend mode="normal" in2="effect1_backgroundBlur_24_1693" result="effect2_dropShadow_24_1693"/>
<feBlend mode="normal" in="SourceGraphic" in2="effect2_dropShadow_24_1693" result="shape"/>
</filter>
</defs>
</svg>
